%TF.GenerationSoftware,KiCad,Pcbnew,(5.1.8-0-10_14)*%
%TF.CreationDate,2021-08-18T19:24:50+02:00*%
%TF.ProjectId,ethersweep,65746865-7273-4776-9565-702e6b696361,2.0.1*%
%TF.SameCoordinates,Original*%
%TF.FileFunction,Paste,Bot*%
%TF.FilePolarity,Positive*%
%FSLAX46Y46*%
G04 Gerber Fmt 4.6, Leading zero omitted, Abs format (unit mm)*
G04 Created by KiCad (PCBNEW (5.1.8-0-10_14)) date 2021-08-18 19:24:50*
%MOMM*%
%LPD*%
G01*
G04 APERTURE LIST*
%TA.AperFunction,Profile*%
%ADD10C,0.150000*%
%TD*%
%ADD11R,3.150000X1.000000*%
%ADD12R,0.600000X1.400000*%
G04 APERTURE END LIST*
D10*
X198000000Y-81000000D02*
G75*
G02*
X201500000Y-84500000I0J-3500000D01*
G01*
X160500000Y-115500000D02*
X160500000Y-114200000D01*
X163500000Y-86600000D02*
X163500000Y-85000000D01*
X163500000Y-86600000D02*
G75*
G02*
X160500000Y-86600000I-1500000J0D01*
G01*
X163500000Y-115500000D02*
X163500000Y-114200000D01*
X160500000Y-86600000D02*
X160500000Y-85000000D01*
X160500000Y-114200000D02*
G75*
G02*
X163500000Y-114200000I1500000J0D01*
G01*
X163500000Y-97600000D02*
G75*
G02*
X160500000Y-97600000I-1500000J0D01*
G01*
X160500000Y-91800000D02*
G75*
G02*
X163500000Y-91800000I1500000J0D01*
G01*
X163500000Y-97600000D02*
X163500000Y-91800000D01*
X160500000Y-109200000D02*
X160500000Y-102800000D01*
X160500000Y-102800000D02*
G75*
G02*
X163500000Y-102800000I1500000J0D01*
G01*
X160500000Y-97600000D02*
X160500000Y-91800000D01*
X163500000Y-109200000D02*
X163500000Y-102800000D01*
X163500000Y-109200000D02*
G75*
G02*
X160500000Y-109200000I-1500000J0D01*
G01*
X160500000Y-116000000D02*
X160500000Y-115500000D01*
X163500000Y-84500000D02*
X163500000Y-85000000D01*
X151100000Y-110800000D02*
G75*
G03*
X151100000Y-110800000I-1500000J0D01*
G01*
X126000000Y-119500000D02*
G75*
G02*
X122500000Y-116000000I0J3500000D01*
G01*
X126000000Y-119500000D02*
X157000000Y-119500000D01*
X167000000Y-81000000D02*
X198000000Y-81000000D01*
X163500000Y-84500000D02*
G75*
G02*
X167000000Y-81000000I3500000J0D01*
G01*
X201500000Y-115500000D02*
G75*
G02*
X198000000Y-119000000I-3500000J0D01*
G01*
X167000000Y-119000000D02*
G75*
G02*
X163500000Y-115500000I0J3500000D01*
G01*
X167000000Y-119000000D02*
X198000000Y-119000000D01*
X201500000Y-115500000D02*
X201500000Y-84500000D01*
X122500000Y-85000000D02*
X122500000Y-116000000D01*
X160500000Y-116000000D02*
G75*
G02*
X157000000Y-119500000I-3500000J0D01*
G01*
X157000000Y-81500000D02*
G75*
G02*
X160500000Y-85000000I0J-3500000D01*
G01*
X122500000Y-85000000D02*
G75*
G02*
X126000000Y-81500000I3500000J0D01*
G01*
X157000000Y-81500000D02*
X126000000Y-81500000D01*
D11*
X185025000Y-84030000D03*
X179975000Y-84030000D03*
X185025000Y-86570000D03*
X179975000Y-86570000D03*
G36*
G01*
X139850000Y-84250000D02*
X139850000Y-85850000D01*
G75*
G02*
X139650000Y-86050000I-200000J0D01*
G01*
X139250000Y-86050000D01*
G75*
G02*
X139050000Y-85850000I0J200000D01*
G01*
X139050000Y-84250000D01*
G75*
G02*
X139250000Y-84050000I200000J0D01*
G01*
X139650000Y-84050000D01*
G75*
G02*
X139850000Y-84250000I0J-200000D01*
G01*
G37*
G36*
G01*
X144050000Y-84250000D02*
X144050000Y-85850000D01*
G75*
G02*
X143850000Y-86050000I-200000J0D01*
G01*
X143450000Y-86050000D01*
G75*
G02*
X143250000Y-85850000I0J200000D01*
G01*
X143250000Y-84250000D01*
G75*
G02*
X143450000Y-84050000I200000J0D01*
G01*
X143850000Y-84050000D01*
G75*
G02*
X144050000Y-84250000I0J-200000D01*
G01*
G37*
D12*
X180595000Y-97300000D03*
X181865000Y-97300000D03*
X183135000Y-97300000D03*
X184405000Y-97300000D03*
X184405000Y-102700000D03*
X183135000Y-102700000D03*
X181865000Y-102700000D03*
X180595000Y-102700000D03*
M02*
