%TF.GenerationSoftware,KiCad,Pcbnew,(5.1.8-0-10_14)*%
%TF.CreationDate,2021-08-18T19:24:52+02:00*%
%TF.ProjectId,ethersweep,65746865-7273-4776-9565-702e6b696361,2.0.1*%
%TF.SameCoordinates,Original*%
%TF.FileFunction,Other,User*%
%FSLAX46Y46*%
G04 Gerber Fmt 4.6, Leading zero omitted, Abs format (unit mm)*
G04 Created by KiCad (PCBNEW (5.1.8-0-10_14)) date 2021-08-18 19:24:52*
%MOMM*%
%LPD*%
G01*
G04 APERTURE LIST*
%TA.AperFunction,Profile*%
%ADD10C,0.150000*%
%TD*%
%ADD11C,0.050000*%
%ADD12C,0.010000*%
G04 APERTURE END LIST*
D10*
X198000000Y-81000000D02*
G75*
G02*
X201500000Y-84500000I0J-3500000D01*
G01*
X160500000Y-115500000D02*
X160500000Y-114200000D01*
X163500000Y-86600000D02*
X163500000Y-85000000D01*
X163500000Y-86600000D02*
G75*
G02*
X160500000Y-86600000I-1500000J0D01*
G01*
X163500000Y-115500000D02*
X163500000Y-114200000D01*
X160500000Y-86600000D02*
X160500000Y-85000000D01*
X160500000Y-114200000D02*
G75*
G02*
X163500000Y-114200000I1500000J0D01*
G01*
X163500000Y-97600000D02*
G75*
G02*
X160500000Y-97600000I-1500000J0D01*
G01*
X160500000Y-91800000D02*
G75*
G02*
X163500000Y-91800000I1500000J0D01*
G01*
X163500000Y-97600000D02*
X163500000Y-91800000D01*
X160500000Y-109200000D02*
X160500000Y-102800000D01*
X160500000Y-102800000D02*
G75*
G02*
X163500000Y-102800000I1500000J0D01*
G01*
X160500000Y-97600000D02*
X160500000Y-91800000D01*
X163500000Y-109200000D02*
X163500000Y-102800000D01*
X163500000Y-109200000D02*
G75*
G02*
X160500000Y-109200000I-1500000J0D01*
G01*
X160500000Y-116000000D02*
X160500000Y-115500000D01*
X163500000Y-84500000D02*
X163500000Y-85000000D01*
X151100000Y-110800000D02*
G75*
G03*
X151100000Y-110800000I-1500000J0D01*
G01*
X126000000Y-119500000D02*
G75*
G02*
X122500000Y-116000000I0J3500000D01*
G01*
X126000000Y-119500000D02*
X157000000Y-119500000D01*
X167000000Y-81000000D02*
X198000000Y-81000000D01*
X163500000Y-84500000D02*
G75*
G02*
X167000000Y-81000000I3500000J0D01*
G01*
X201500000Y-115500000D02*
G75*
G02*
X198000000Y-119000000I-3500000J0D01*
G01*
X167000000Y-119000000D02*
G75*
G02*
X163500000Y-115500000I0J3500000D01*
G01*
X167000000Y-119000000D02*
X198000000Y-119000000D01*
X201500000Y-115500000D02*
X201500000Y-84500000D01*
X122500000Y-85000000D02*
X122500000Y-116000000D01*
X160500000Y-116000000D02*
G75*
G02*
X157000000Y-119500000I-3500000J0D01*
G01*
X157000000Y-81500000D02*
G75*
G02*
X160500000Y-85000000I0J-3500000D01*
G01*
X122500000Y-85000000D02*
G75*
G02*
X126000000Y-81500000I3500000J0D01*
G01*
X157000000Y-81500000D02*
X126000000Y-81500000D01*
D11*
X155220000Y-93600000D02*
X145320000Y-93600000D01*
X155220000Y-77310000D02*
X155220000Y-93600000D01*
X145320000Y-77310000D02*
X155220000Y-77310000D01*
X145320000Y-93600000D02*
X145320000Y-77310000D01*
X125800000Y-94900000D02*
X125800000Y-106100000D01*
X125800000Y-106100000D02*
X122200000Y-106100000D01*
X122200000Y-106100000D02*
X122200000Y-94900000D01*
X122200000Y-94900000D02*
X125800000Y-94900000D01*
X188400000Y-82250000D02*
X188400000Y-88350000D01*
X188400000Y-88350000D02*
X176600000Y-88350000D01*
X176600000Y-88350000D02*
X176600000Y-82250000D01*
X176600000Y-82250000D02*
X188400000Y-82250000D01*
X144300000Y-83350000D02*
X138800000Y-83350000D01*
X138800000Y-83350000D02*
X138800000Y-86750000D01*
X138800000Y-86750000D02*
X144300000Y-86750000D01*
X144300000Y-86750000D02*
X144300000Y-83350000D01*
D12*
G36*
X179960000Y-102032000D02*
G01*
X185040000Y-102032000D01*
X185040000Y-97968000D01*
X179960000Y-97968000D01*
X179960000Y-102032000D01*
G37*
X179960000Y-102032000D02*
X185040000Y-102032000D01*
X185040000Y-97968000D01*
X179960000Y-97968000D01*
X179960000Y-102032000D01*
D11*
X166474999Y-109500000D02*
G75*
G03*
X166474999Y-109500000I-1500000J0D01*
G01*
X166500000Y-106400000D02*
G75*
G03*
X166500000Y-106400000I-1500000J0D01*
G01*
X169600000Y-109500000D02*
G75*
G03*
X169600000Y-109500000I-1500000J0D01*
G01*
X169600000Y-106400000D02*
G75*
G03*
X169600000Y-106400000I-1500000J0D01*
G01*
X158400000Y-92400000D02*
X139550000Y-92400000D01*
X139550000Y-92400000D02*
X139550000Y-88800000D01*
X139550000Y-88800000D02*
X158400000Y-88800000D01*
X158400000Y-88800000D02*
X158400000Y-92400000D01*
M02*
