%TF.GenerationSoftware,KiCad,Pcbnew,(5.1.8-0-10_14)*%
%TF.CreationDate,2021-08-18T19:24:52+02:00*%
%TF.ProjectId,ethersweep,65746865-7273-4776-9565-702e6b696361,2.0.1*%
%TF.SameCoordinates,Original*%
%TF.FileFunction,Other,Fab,Bot*%
%FSLAX46Y46*%
G04 Gerber Fmt 4.6, Leading zero omitted, Abs format (unit mm)*
G04 Created by KiCad (PCBNEW (5.1.8-0-10_14)) date 2021-08-18 19:24:52*
%MOMM*%
%LPD*%
G01*
G04 APERTURE LIST*
%TA.AperFunction,Profile*%
%ADD10C,0.150000*%
%TD*%
%ADD11C,0.100000*%
%ADD12C,0.150000*%
%ADD13C,0.015000*%
G04 APERTURE END LIST*
D10*
X198000000Y-81000000D02*
G75*
G02*
X201500000Y-84500000I0J-3500000D01*
G01*
X160500000Y-115500000D02*
X160500000Y-114200000D01*
X163500000Y-86600000D02*
X163500000Y-85000000D01*
X163500000Y-86600000D02*
G75*
G02*
X160500000Y-86600000I-1500000J0D01*
G01*
X163500000Y-115500000D02*
X163500000Y-114200000D01*
X160500000Y-86600000D02*
X160500000Y-85000000D01*
X160500000Y-114200000D02*
G75*
G02*
X163500000Y-114200000I1500000J0D01*
G01*
X163500000Y-97600000D02*
G75*
G02*
X160500000Y-97600000I-1500000J0D01*
G01*
X160500000Y-91800000D02*
G75*
G02*
X163500000Y-91800000I1500000J0D01*
G01*
X163500000Y-97600000D02*
X163500000Y-91800000D01*
X160500000Y-109200000D02*
X160500000Y-102800000D01*
X160500000Y-102800000D02*
G75*
G02*
X163500000Y-102800000I1500000J0D01*
G01*
X160500000Y-97600000D02*
X160500000Y-91800000D01*
X163500000Y-109200000D02*
X163500000Y-102800000D01*
X163500000Y-109200000D02*
G75*
G02*
X160500000Y-109200000I-1500000J0D01*
G01*
X160500000Y-116000000D02*
X160500000Y-115500000D01*
X163500000Y-84500000D02*
X163500000Y-85000000D01*
X151100000Y-110800000D02*
G75*
G03*
X151100000Y-110800000I-1500000J0D01*
G01*
X126000000Y-119500000D02*
G75*
G02*
X122500000Y-116000000I0J3500000D01*
G01*
X126000000Y-119500000D02*
X157000000Y-119500000D01*
X167000000Y-81000000D02*
X198000000Y-81000000D01*
X163500000Y-84500000D02*
G75*
G02*
X167000000Y-81000000I3500000J0D01*
G01*
X201500000Y-115500000D02*
G75*
G02*
X198000000Y-119000000I-3500000J0D01*
G01*
X167000000Y-119000000D02*
G75*
G02*
X163500000Y-115500000I0J3500000D01*
G01*
X167000000Y-119000000D02*
X198000000Y-119000000D01*
X201500000Y-115500000D02*
X201500000Y-84500000D01*
X122500000Y-85000000D02*
X122500000Y-116000000D01*
X160500000Y-116000000D02*
G75*
G02*
X157000000Y-119500000I-3500000J0D01*
G01*
X157000000Y-81500000D02*
G75*
G02*
X160500000Y-85000000I0J-3500000D01*
G01*
X122500000Y-85000000D02*
G75*
G02*
X126000000Y-81500000I3500000J0D01*
G01*
X157000000Y-81500000D02*
X126000000Y-81500000D01*
D11*
X147020000Y-83410000D02*
X145820000Y-83410000D01*
X147020000Y-83410000D02*
X147020000Y-83410000D01*
X147020000Y-79010000D02*
X147020000Y-83410000D01*
X153520000Y-79010000D02*
X147020000Y-79010000D01*
X153520000Y-91910000D02*
X153520000Y-79010000D01*
X147020000Y-91910000D02*
X153520000Y-91910000D01*
X147020000Y-87510000D02*
X147020000Y-91910000D01*
X145820000Y-87510000D02*
X147020000Y-87510000D01*
X145820000Y-77820000D02*
X145820000Y-92100000D01*
X154720000Y-77820000D02*
X145820000Y-77820000D01*
X154720000Y-93100000D02*
X154720000Y-77820000D01*
X146820000Y-93100000D02*
X154720000Y-93100000D01*
X145820000Y-92100000D02*
X146820000Y-93100000D01*
X124635000Y-95430000D02*
X122730000Y-95430000D01*
X122730000Y-95430000D02*
X122730000Y-105590000D01*
X122730000Y-105590000D02*
X125270000Y-105590000D01*
X125270000Y-105590000D02*
X125270000Y-96065000D01*
X125270000Y-96065000D02*
X124635000Y-95430000D01*
X179960000Y-87840000D02*
X185040000Y-87840000D01*
X184090000Y-82760000D02*
X179960000Y-82760000D01*
X185040000Y-87840000D02*
X185040000Y-83710000D01*
X185040000Y-83710000D02*
X184090000Y-82760000D01*
X179960000Y-82760000D02*
X179960000Y-87840000D01*
X185040000Y-83710000D02*
X186100000Y-83710000D01*
X186100000Y-83710000D02*
X186100000Y-84350000D01*
X186100000Y-84350000D02*
X185040000Y-84350000D01*
X179960000Y-83710000D02*
X178900000Y-83710000D01*
X178900000Y-83710000D02*
X178900000Y-84350000D01*
X178900000Y-84350000D02*
X179960000Y-84350000D01*
X185040000Y-86250000D02*
X186100000Y-86250000D01*
X186100000Y-86250000D02*
X186100000Y-86890000D01*
X186100000Y-86890000D02*
X185040000Y-86890000D01*
X179960000Y-86250000D02*
X178900000Y-86250000D01*
X178900000Y-86250000D02*
X178900000Y-86890000D01*
X178900000Y-86890000D02*
X179960000Y-86890000D01*
X142550000Y-85050000D02*
G75*
G03*
X142550000Y-85050000I-1000000J0D01*
G01*
X139600000Y-86500000D02*
X143500000Y-86500000D01*
X143500000Y-86500000D02*
X143500000Y-83600000D01*
X143500000Y-83600000D02*
X139600000Y-83600000D01*
X139600000Y-83600000D02*
X139600000Y-86500000D01*
X157870000Y-91235000D02*
X157870000Y-89330000D01*
X157870000Y-89330000D02*
X140090000Y-89330000D01*
X140090000Y-89330000D02*
X140090000Y-91870000D01*
X140090000Y-91870000D02*
X157235000Y-91870000D01*
X157235000Y-91870000D02*
X157870000Y-91235000D01*
D12*
X154365238Y-76986666D02*
X153889047Y-76986666D01*
X154460476Y-77272380D02*
X154127142Y-76272380D01*
X153793809Y-77272380D01*
X153603333Y-76272380D02*
X153270000Y-77272380D01*
X152936666Y-76272380D01*
X152031904Y-77272380D02*
X152365238Y-76796190D01*
X152603333Y-77272380D02*
X152603333Y-76272380D01*
X152222380Y-76272380D01*
X152127142Y-76320000D01*
X152079523Y-76367619D01*
X152031904Y-76462857D01*
X152031904Y-76605714D01*
X152079523Y-76700952D01*
X152127142Y-76748571D01*
X152222380Y-76796190D01*
X152603333Y-76796190D01*
X151603333Y-76891428D02*
X150841428Y-76891428D01*
X150365238Y-77272380D02*
X150365238Y-76272380D01*
X149936666Y-77224761D02*
X149793809Y-77272380D01*
X149555714Y-77272380D01*
X149460476Y-77224761D01*
X149412857Y-77177142D01*
X149365238Y-77081904D01*
X149365238Y-76986666D01*
X149412857Y-76891428D01*
X149460476Y-76843809D01*
X149555714Y-76796190D01*
X149746190Y-76748571D01*
X149841428Y-76700952D01*
X149889047Y-76653333D01*
X149936666Y-76558095D01*
X149936666Y-76462857D01*
X149889047Y-76367619D01*
X149841428Y-76320000D01*
X149746190Y-76272380D01*
X149508095Y-76272380D01*
X149365238Y-76320000D01*
X148936666Y-77272380D02*
X148936666Y-76272380D01*
X148555714Y-76272380D01*
X148460476Y-76320000D01*
X148412857Y-76367619D01*
X148365238Y-76462857D01*
X148365238Y-76605714D01*
X148412857Y-76700952D01*
X148460476Y-76748571D01*
X148555714Y-76796190D01*
X148936666Y-76796190D01*
X147936666Y-76891428D02*
X147174761Y-76891428D01*
X146270000Y-76272380D02*
X146460476Y-76272380D01*
X146555714Y-76320000D01*
X146603333Y-76367619D01*
X146698571Y-76510476D01*
X146746190Y-76700952D01*
X146746190Y-77081904D01*
X146698571Y-77177142D01*
X146650952Y-77224761D01*
X146555714Y-77272380D01*
X146365238Y-77272380D01*
X146270000Y-77224761D01*
X146222380Y-77177142D01*
X146174761Y-77081904D01*
X146174761Y-76843809D01*
X146222380Y-76748571D01*
X146270000Y-76700952D01*
X146365238Y-76653333D01*
X146555714Y-76653333D01*
X146650952Y-76700952D01*
X146698571Y-76748571D01*
X146746190Y-76843809D01*
X149722380Y-85126666D02*
X150436666Y-85126666D01*
X150579523Y-85079047D01*
X150674761Y-84983809D01*
X150722380Y-84840952D01*
X150722380Y-84745714D01*
X150150952Y-85745714D02*
X150103333Y-85650476D01*
X150055714Y-85602857D01*
X149960476Y-85555238D01*
X149912857Y-85555238D01*
X149817619Y-85602857D01*
X149770000Y-85650476D01*
X149722380Y-85745714D01*
X149722380Y-85936190D01*
X149770000Y-86031428D01*
X149817619Y-86079047D01*
X149912857Y-86126666D01*
X149960476Y-86126666D01*
X150055714Y-86079047D01*
X150103333Y-86031428D01*
X150150952Y-85936190D01*
X150150952Y-85745714D01*
X150198571Y-85650476D01*
X150246190Y-85602857D01*
X150341428Y-85555238D01*
X150531904Y-85555238D01*
X150627142Y-85602857D01*
X150674761Y-85650476D01*
X150722380Y-85745714D01*
X150722380Y-85936190D01*
X150674761Y-86031428D01*
X150627142Y-86079047D01*
X150531904Y-86126666D01*
X150341428Y-86126666D01*
X150246190Y-86079047D01*
X150198571Y-86031428D01*
X150150952Y-85936190D01*
X130785714Y-107007142D02*
X130833333Y-107054761D01*
X130976190Y-107102380D01*
X131071428Y-107102380D01*
X131214285Y-107054761D01*
X131309523Y-106959523D01*
X131357142Y-106864285D01*
X131404761Y-106673809D01*
X131404761Y-106530952D01*
X131357142Y-106340476D01*
X131309523Y-106245238D01*
X131214285Y-106150000D01*
X131071428Y-106102380D01*
X130976190Y-106102380D01*
X130833333Y-106150000D01*
X130785714Y-106197619D01*
X130214285Y-107102380D02*
X130309523Y-107054761D01*
X130357142Y-107007142D01*
X130404761Y-106911904D01*
X130404761Y-106626190D01*
X130357142Y-106530952D01*
X130309523Y-106483333D01*
X130214285Y-106435714D01*
X130071428Y-106435714D01*
X129976190Y-106483333D01*
X129928571Y-106530952D01*
X129880952Y-106626190D01*
X129880952Y-106911904D01*
X129928571Y-107007142D01*
X129976190Y-107054761D01*
X130071428Y-107102380D01*
X130214285Y-107102380D01*
X129452380Y-106435714D02*
X129452380Y-107102380D01*
X129452380Y-106530952D02*
X129404761Y-106483333D01*
X129309523Y-106435714D01*
X129166666Y-106435714D01*
X129071428Y-106483333D01*
X129023809Y-106578571D01*
X129023809Y-107102380D01*
X128547619Y-106435714D02*
X128547619Y-107102380D01*
X128547619Y-106530952D02*
X128500000Y-106483333D01*
X128404761Y-106435714D01*
X128261904Y-106435714D01*
X128166666Y-106483333D01*
X128119047Y-106578571D01*
X128119047Y-107102380D01*
X127880952Y-107197619D02*
X127119047Y-107197619D01*
X126690476Y-106102380D02*
X126595238Y-106102380D01*
X126500000Y-106150000D01*
X126452380Y-106197619D01*
X126404761Y-106292857D01*
X126357142Y-106483333D01*
X126357142Y-106721428D01*
X126404761Y-106911904D01*
X126452380Y-107007142D01*
X126500000Y-107054761D01*
X126595238Y-107102380D01*
X126690476Y-107102380D01*
X126785714Y-107054761D01*
X126833333Y-107007142D01*
X126880952Y-106911904D01*
X126928571Y-106721428D01*
X126928571Y-106483333D01*
X126880952Y-106292857D01*
X126833333Y-106197619D01*
X126785714Y-106150000D01*
X126690476Y-106102380D01*
X125404761Y-107102380D02*
X125976190Y-107102380D01*
X125690476Y-107102380D02*
X125690476Y-106102380D01*
X125785714Y-106245238D01*
X125880952Y-106340476D01*
X125976190Y-106388095D01*
X125071428Y-107102380D02*
X124547619Y-106435714D01*
X125071428Y-106435714D02*
X124547619Y-107102380D01*
X123976190Y-106102380D02*
X123880952Y-106102380D01*
X123785714Y-106150000D01*
X123738095Y-106197619D01*
X123690476Y-106292857D01*
X123642857Y-106483333D01*
X123642857Y-106721428D01*
X123690476Y-106911904D01*
X123738095Y-107007142D01*
X123785714Y-107054761D01*
X123880952Y-107102380D01*
X123976190Y-107102380D01*
X124071428Y-107054761D01*
X124119047Y-107007142D01*
X124166666Y-106911904D01*
X124214285Y-106721428D01*
X124214285Y-106483333D01*
X124166666Y-106292857D01*
X124119047Y-106197619D01*
X124071428Y-106150000D01*
X123976190Y-106102380D01*
X122785714Y-106435714D02*
X122785714Y-107102380D01*
X123023809Y-106054761D02*
X123261904Y-106769047D01*
X122642857Y-106769047D01*
X122500000Y-107197619D02*
X121738095Y-107197619D01*
X121166666Y-106578571D02*
X121500000Y-106578571D01*
X121500000Y-107102380D02*
X121500000Y-106102380D01*
X121023809Y-106102380D01*
X120261904Y-107054761D02*
X120357142Y-107102380D01*
X120547619Y-107102380D01*
X120642857Y-107054761D01*
X120690476Y-106959523D01*
X120690476Y-106578571D01*
X120642857Y-106483333D01*
X120547619Y-106435714D01*
X120357142Y-106435714D01*
X120261904Y-106483333D01*
X120214285Y-106578571D01*
X120214285Y-106673809D01*
X120690476Y-106769047D01*
X119785714Y-107102380D02*
X119785714Y-106435714D01*
X119785714Y-106530952D02*
X119738095Y-106483333D01*
X119642857Y-106435714D01*
X119500000Y-106435714D01*
X119404761Y-106483333D01*
X119357142Y-106578571D01*
X119357142Y-107102380D01*
X119357142Y-106578571D02*
X119309523Y-106483333D01*
X119214285Y-106435714D01*
X119071428Y-106435714D01*
X118976190Y-106483333D01*
X118928571Y-106578571D01*
X118928571Y-107102380D01*
X118023809Y-107102380D02*
X118023809Y-106578571D01*
X118071428Y-106483333D01*
X118166666Y-106435714D01*
X118357142Y-106435714D01*
X118452380Y-106483333D01*
X118023809Y-107054761D02*
X118119047Y-107102380D01*
X118357142Y-107102380D01*
X118452380Y-107054761D01*
X118500000Y-106959523D01*
X118500000Y-106864285D01*
X118452380Y-106769047D01*
X118357142Y-106721428D01*
X118119047Y-106721428D01*
X118023809Y-106673809D01*
X117404761Y-107102380D02*
X117500000Y-107054761D01*
X117547619Y-106959523D01*
X117547619Y-106102380D01*
X116642857Y-107054761D02*
X116738095Y-107102380D01*
X116928571Y-107102380D01*
X117023809Y-107054761D01*
X117071428Y-106959523D01*
X117071428Y-106578571D01*
X117023809Y-106483333D01*
X116928571Y-106435714D01*
X116738095Y-106435714D01*
X116642857Y-106483333D01*
X116595238Y-106578571D01*
X116595238Y-106673809D01*
X117071428Y-106769047D01*
X123452380Y-100176666D02*
X124166666Y-100176666D01*
X124309523Y-100129047D01*
X124404761Y-100033809D01*
X124452380Y-99890952D01*
X124452380Y-99795714D01*
X123452380Y-100557619D02*
X123452380Y-101176666D01*
X123833333Y-100843333D01*
X123833333Y-100986190D01*
X123880952Y-101081428D01*
X123928571Y-101129047D01*
X124023809Y-101176666D01*
X124261904Y-101176666D01*
X124357142Y-101129047D01*
X124404761Y-101081428D01*
X124452380Y-100986190D01*
X124452380Y-100700476D01*
X124404761Y-100605238D01*
X124357142Y-100557619D01*
X190595238Y-89304761D02*
X190452380Y-89352380D01*
X190214285Y-89352380D01*
X190119047Y-89304761D01*
X190071428Y-89257142D01*
X190023809Y-89161904D01*
X190023809Y-89066666D01*
X190071428Y-88971428D01*
X190119047Y-88923809D01*
X190214285Y-88876190D01*
X190404761Y-88828571D01*
X190500000Y-88780952D01*
X190547619Y-88733333D01*
X190595238Y-88638095D01*
X190595238Y-88542857D01*
X190547619Y-88447619D01*
X190500000Y-88400000D01*
X190404761Y-88352380D01*
X190166666Y-88352380D01*
X190023809Y-88400000D01*
X189738095Y-88685714D02*
X189357142Y-88685714D01*
X189595238Y-88352380D02*
X189595238Y-89209523D01*
X189547619Y-89304761D01*
X189452380Y-89352380D01*
X189357142Y-89352380D01*
X188642857Y-89304761D02*
X188738095Y-89352380D01*
X188928571Y-89352380D01*
X189023809Y-89304761D01*
X189071428Y-89209523D01*
X189071428Y-88828571D01*
X189023809Y-88733333D01*
X188928571Y-88685714D01*
X188738095Y-88685714D01*
X188642857Y-88733333D01*
X188595238Y-88828571D01*
X188595238Y-88923809D01*
X189071428Y-89019047D01*
X188166666Y-88685714D02*
X188166666Y-89685714D01*
X188166666Y-88733333D02*
X188071428Y-88685714D01*
X187880952Y-88685714D01*
X187785714Y-88733333D01*
X187738095Y-88780952D01*
X187690476Y-88876190D01*
X187690476Y-89161904D01*
X187738095Y-89257142D01*
X187785714Y-89304761D01*
X187880952Y-89352380D01*
X188071428Y-89352380D01*
X188166666Y-89304761D01*
X187261904Y-88685714D02*
X187261904Y-89685714D01*
X187261904Y-88733333D02*
X187166666Y-88685714D01*
X186976190Y-88685714D01*
X186880952Y-88733333D01*
X186833333Y-88780952D01*
X186785714Y-88876190D01*
X186785714Y-89161904D01*
X186833333Y-89257142D01*
X186880952Y-89304761D01*
X186976190Y-89352380D01*
X187166666Y-89352380D01*
X187261904Y-89304761D01*
X185976190Y-89304761D02*
X186071428Y-89352380D01*
X186261904Y-89352380D01*
X186357142Y-89304761D01*
X186404761Y-89209523D01*
X186404761Y-88828571D01*
X186357142Y-88733333D01*
X186261904Y-88685714D01*
X186071428Y-88685714D01*
X185976190Y-88733333D01*
X185928571Y-88828571D01*
X185928571Y-88923809D01*
X186404761Y-89019047D01*
X185500000Y-89352380D02*
X185500000Y-88685714D01*
X185500000Y-88876190D02*
X185452380Y-88780952D01*
X185404761Y-88733333D01*
X185309523Y-88685714D01*
X185214285Y-88685714D01*
X185119047Y-89447619D02*
X184357142Y-89447619D01*
X184119047Y-89352380D02*
X184119047Y-88352380D01*
X183785714Y-89066666D01*
X183452380Y-88352380D01*
X183452380Y-89352380D01*
X182833333Y-89352380D02*
X182928571Y-89304761D01*
X182976190Y-89257142D01*
X183023809Y-89161904D01*
X183023809Y-88876190D01*
X182976190Y-88780952D01*
X182928571Y-88733333D01*
X182833333Y-88685714D01*
X182690476Y-88685714D01*
X182595238Y-88733333D01*
X182547619Y-88780952D01*
X182500000Y-88876190D01*
X182500000Y-89161904D01*
X182547619Y-89257142D01*
X182595238Y-89304761D01*
X182690476Y-89352380D01*
X182833333Y-89352380D01*
X182214285Y-88685714D02*
X181833333Y-88685714D01*
X182071428Y-88352380D02*
X182071428Y-89209523D01*
X182023809Y-89304761D01*
X181928571Y-89352380D01*
X181833333Y-89352380D01*
X181357142Y-89352380D02*
X181452380Y-89304761D01*
X181500000Y-89257142D01*
X181547619Y-89161904D01*
X181547619Y-88876190D01*
X181500000Y-88780952D01*
X181452380Y-88733333D01*
X181357142Y-88685714D01*
X181214285Y-88685714D01*
X181119047Y-88733333D01*
X181071428Y-88780952D01*
X181023809Y-88876190D01*
X181023809Y-89161904D01*
X181071428Y-89257142D01*
X181119047Y-89304761D01*
X181214285Y-89352380D01*
X181357142Y-89352380D01*
X180595238Y-89352380D02*
X180595238Y-88685714D01*
X180595238Y-88876190D02*
X180547619Y-88780952D01*
X180500000Y-88733333D01*
X180404761Y-88685714D01*
X180309523Y-88685714D01*
X180214285Y-89447619D02*
X179452380Y-89447619D01*
X179214285Y-89352380D02*
X179214285Y-88352380D01*
X179214285Y-88733333D02*
X179119047Y-88685714D01*
X178928571Y-88685714D01*
X178833333Y-88733333D01*
X178785714Y-88780952D01*
X178738095Y-88876190D01*
X178738095Y-89161904D01*
X178785714Y-89257142D01*
X178833333Y-89304761D01*
X178928571Y-89352380D01*
X179119047Y-89352380D01*
X179214285Y-89304761D01*
X178309523Y-89352380D02*
X178309523Y-88685714D01*
X178309523Y-88352380D02*
X178357142Y-88400000D01*
X178309523Y-88447619D01*
X178261904Y-88400000D01*
X178309523Y-88352380D01*
X178309523Y-88447619D01*
X177833333Y-88685714D02*
X177833333Y-89685714D01*
X177833333Y-88733333D02*
X177738095Y-88685714D01*
X177547619Y-88685714D01*
X177452380Y-88733333D01*
X177404761Y-88780952D01*
X177357142Y-88876190D01*
X177357142Y-89161904D01*
X177404761Y-89257142D01*
X177452380Y-89304761D01*
X177547619Y-89352380D01*
X177738095Y-89352380D01*
X177833333Y-89304761D01*
X176785714Y-89352380D02*
X176880952Y-89304761D01*
X176928571Y-89257142D01*
X176976190Y-89161904D01*
X176976190Y-88876190D01*
X176928571Y-88780952D01*
X176880952Y-88733333D01*
X176785714Y-88685714D01*
X176642857Y-88685714D01*
X176547619Y-88733333D01*
X176500000Y-88780952D01*
X176452380Y-88876190D01*
X176452380Y-89161904D01*
X176500000Y-89257142D01*
X176547619Y-89304761D01*
X176642857Y-89352380D01*
X176785714Y-89352380D01*
X175880952Y-89352380D02*
X175976190Y-89304761D01*
X176023809Y-89209523D01*
X176023809Y-88352380D01*
X175071428Y-89352380D02*
X175071428Y-88828571D01*
X175119047Y-88733333D01*
X175214285Y-88685714D01*
X175404761Y-88685714D01*
X175500000Y-88733333D01*
X175071428Y-89304761D02*
X175166666Y-89352380D01*
X175404761Y-89352380D01*
X175500000Y-89304761D01*
X175547619Y-89209523D01*
X175547619Y-89114285D01*
X175500000Y-89019047D01*
X175404761Y-88971428D01*
X175166666Y-88971428D01*
X175071428Y-88923809D01*
X174595238Y-89352380D02*
X174595238Y-88685714D01*
X174595238Y-88876190D02*
X174547619Y-88780952D01*
X174500000Y-88733333D01*
X174404761Y-88685714D01*
X174309523Y-88685714D01*
X182952380Y-84490476D02*
X181952380Y-84490476D01*
X182666666Y-84823809D01*
X181952380Y-85157142D01*
X182952380Y-85157142D01*
X182952380Y-86157142D02*
X182952380Y-85585714D01*
X182952380Y-85871428D02*
X181952380Y-85871428D01*
X182095238Y-85776190D01*
X182190476Y-85680952D01*
X182238095Y-85585714D01*
X144597619Y-87954761D02*
X144454761Y-88002380D01*
X144216666Y-88002380D01*
X144121428Y-87954761D01*
X144073809Y-87907142D01*
X144026190Y-87811904D01*
X144026190Y-87716666D01*
X144073809Y-87621428D01*
X144121428Y-87573809D01*
X144216666Y-87526190D01*
X144407142Y-87478571D01*
X144502380Y-87430952D01*
X144550000Y-87383333D01*
X144597619Y-87288095D01*
X144597619Y-87192857D01*
X144550000Y-87097619D01*
X144502380Y-87050000D01*
X144407142Y-87002380D01*
X144169047Y-87002380D01*
X144026190Y-87050000D01*
X143692857Y-87002380D02*
X143454761Y-88002380D01*
X143264285Y-87288095D01*
X143073809Y-88002380D01*
X142835714Y-87002380D01*
X142692857Y-88097619D02*
X141930952Y-88097619D01*
X141692857Y-88002380D02*
X141692857Y-87002380D01*
X141311904Y-87002380D01*
X141216666Y-87050000D01*
X141169047Y-87097619D01*
X141121428Y-87192857D01*
X141121428Y-87335714D01*
X141169047Y-87430952D01*
X141216666Y-87478571D01*
X141311904Y-87526190D01*
X141692857Y-87526190D01*
X140264285Y-87335714D02*
X140264285Y-88002380D01*
X140692857Y-87335714D02*
X140692857Y-87859523D01*
X140645238Y-87954761D01*
X140550000Y-88002380D01*
X140407142Y-88002380D01*
X140311904Y-87954761D01*
X140264285Y-87907142D01*
X139835714Y-87954761D02*
X139740476Y-88002380D01*
X139550000Y-88002380D01*
X139454761Y-87954761D01*
X139407142Y-87859523D01*
X139407142Y-87811904D01*
X139454761Y-87716666D01*
X139550000Y-87669047D01*
X139692857Y-87669047D01*
X139788095Y-87621428D01*
X139835714Y-87526190D01*
X139835714Y-87478571D01*
X139788095Y-87383333D01*
X139692857Y-87335714D01*
X139550000Y-87335714D01*
X139454761Y-87383333D01*
X138978571Y-88002380D02*
X138978571Y-87002380D01*
X138550000Y-88002380D02*
X138550000Y-87478571D01*
X138597619Y-87383333D01*
X138692857Y-87335714D01*
X138835714Y-87335714D01*
X138930952Y-87383333D01*
X138978571Y-87430952D01*
X142883333Y-85454761D02*
X142740476Y-85502380D01*
X142502380Y-85502380D01*
X142407142Y-85454761D01*
X142359523Y-85407142D01*
X142311904Y-85311904D01*
X142311904Y-85216666D01*
X142359523Y-85121428D01*
X142407142Y-85073809D01*
X142502380Y-85026190D01*
X142692857Y-84978571D01*
X142788095Y-84930952D01*
X142835714Y-84883333D01*
X142883333Y-84788095D01*
X142883333Y-84692857D01*
X142835714Y-84597619D01*
X142788095Y-84550000D01*
X142692857Y-84502380D01*
X142454761Y-84502380D01*
X142311904Y-84550000D01*
X141978571Y-84502380D02*
X141740476Y-85502380D01*
X141550000Y-84788095D01*
X141359523Y-85502380D01*
X141121428Y-84502380D01*
X140216666Y-85502380D02*
X140788095Y-85502380D01*
X140502380Y-85502380D02*
X140502380Y-84502380D01*
X140597619Y-84645238D01*
X140692857Y-84740476D01*
X140788095Y-84788095D01*
D13*
X178309523Y-101583333D02*
X178071428Y-101583333D01*
X178357142Y-101726190D02*
X178190476Y-101226190D01*
X178023809Y-101726190D01*
X177880952Y-101702380D02*
X177809523Y-101726190D01*
X177690476Y-101726190D01*
X177642857Y-101702380D01*
X177619047Y-101678571D01*
X177595238Y-101630952D01*
X177595238Y-101583333D01*
X177619047Y-101535714D01*
X177642857Y-101511904D01*
X177690476Y-101488095D01*
X177785714Y-101464285D01*
X177833333Y-101440476D01*
X177857142Y-101416666D01*
X177880952Y-101369047D01*
X177880952Y-101321428D01*
X177857142Y-101273809D01*
X177833333Y-101250000D01*
X177785714Y-101226190D01*
X177666666Y-101226190D01*
X177595238Y-101250000D01*
X177142857Y-101226190D02*
X177380952Y-101226190D01*
X177404761Y-101464285D01*
X177380952Y-101440476D01*
X177333333Y-101416666D01*
X177214285Y-101416666D01*
X177166666Y-101440476D01*
X177142857Y-101464285D01*
X177119047Y-101511904D01*
X177119047Y-101630952D01*
X177142857Y-101678571D01*
X177166666Y-101702380D01*
X177214285Y-101726190D01*
X177333333Y-101726190D01*
X177380952Y-101702380D01*
X177404761Y-101678571D01*
X176690476Y-101226190D02*
X176785714Y-101226190D01*
X176833333Y-101250000D01*
X176857142Y-101273809D01*
X176904761Y-101345238D01*
X176928571Y-101440476D01*
X176928571Y-101630952D01*
X176904761Y-101678571D01*
X176880952Y-101702380D01*
X176833333Y-101726190D01*
X176738095Y-101726190D01*
X176690476Y-101702380D01*
X176666666Y-101678571D01*
X176642857Y-101630952D01*
X176642857Y-101511904D01*
X176666666Y-101464285D01*
X176690476Y-101440476D01*
X176738095Y-101416666D01*
X176833333Y-101416666D01*
X176880952Y-101440476D01*
X176904761Y-101464285D01*
X176928571Y-101511904D01*
X176333333Y-101226190D02*
X176285714Y-101226190D01*
X176238095Y-101250000D01*
X176214285Y-101273809D01*
X176190476Y-101321428D01*
X176166666Y-101416666D01*
X176166666Y-101535714D01*
X176190476Y-101630952D01*
X176214285Y-101678571D01*
X176238095Y-101702380D01*
X176285714Y-101726190D01*
X176333333Y-101726190D01*
X176380952Y-101702380D01*
X176404761Y-101678571D01*
X176428571Y-101630952D01*
X176452380Y-101535714D01*
X176452380Y-101416666D01*
X176428571Y-101321428D01*
X176404761Y-101273809D01*
X176380952Y-101250000D01*
X176333333Y-101226190D01*
X175857142Y-101226190D02*
X175809523Y-101226190D01*
X175761904Y-101250000D01*
X175738095Y-101273809D01*
X175714285Y-101321428D01*
X175690476Y-101416666D01*
X175690476Y-101535714D01*
X175714285Y-101630952D01*
X175738095Y-101678571D01*
X175761904Y-101702380D01*
X175809523Y-101726190D01*
X175857142Y-101726190D01*
X175904761Y-101702380D01*
X175928571Y-101678571D01*
X175952380Y-101630952D01*
X175976190Y-101535714D01*
X175976190Y-101416666D01*
X175952380Y-101321428D01*
X175928571Y-101273809D01*
X175904761Y-101250000D01*
X175857142Y-101226190D01*
D12*
X162377379Y-106166666D02*
X162377379Y-106738095D01*
X163377379Y-106452380D02*
X162377379Y-106452380D01*
X163329760Y-107452380D02*
X163377379Y-107357142D01*
X163377379Y-107166666D01*
X163329760Y-107071428D01*
X163234522Y-107023809D01*
X162853570Y-107023809D01*
X162758332Y-107071428D01*
X162710713Y-107166666D01*
X162710713Y-107357142D01*
X162758332Y-107452380D01*
X162853570Y-107500000D01*
X162948808Y-107500000D01*
X163044046Y-107023809D01*
X163329760Y-107880952D02*
X163377379Y-107976190D01*
X163377379Y-108166666D01*
X163329760Y-108261904D01*
X163234522Y-108309523D01*
X163186903Y-108309523D01*
X163091665Y-108261904D01*
X163044046Y-108166666D01*
X163044046Y-108023809D01*
X162996427Y-107928571D01*
X162901189Y-107880952D01*
X162853570Y-107880952D01*
X162758332Y-107928571D01*
X162710713Y-108023809D01*
X162710713Y-108166666D01*
X162758332Y-108261904D01*
X162710713Y-108595238D02*
X162710713Y-108976190D01*
X162377379Y-108738095D02*
X163234522Y-108738095D01*
X163329760Y-108785714D01*
X163377379Y-108880952D01*
X163377379Y-108976190D01*
X163377379Y-109309523D02*
X162377379Y-109309523D01*
X162377379Y-109690476D01*
X162424999Y-109785714D01*
X162472618Y-109833333D01*
X162567856Y-109880952D01*
X162710713Y-109880952D01*
X162805951Y-109833333D01*
X162853570Y-109785714D01*
X162901189Y-109690476D01*
X162901189Y-109309523D01*
X163377379Y-110452380D02*
X163329760Y-110357142D01*
X163282141Y-110309523D01*
X163186903Y-110261904D01*
X162901189Y-110261904D01*
X162805951Y-110309523D01*
X162758332Y-110357142D01*
X162710713Y-110452380D01*
X162710713Y-110595238D01*
X162758332Y-110690476D01*
X162805951Y-110738095D01*
X162901189Y-110785714D01*
X163186903Y-110785714D01*
X163282141Y-110738095D01*
X163329760Y-110690476D01*
X163377379Y-110595238D01*
X163377379Y-110452380D01*
X163377379Y-111214285D02*
X162710713Y-111214285D01*
X162377379Y-111214285D02*
X162424999Y-111166666D01*
X162472618Y-111214285D01*
X162424999Y-111261904D01*
X162377379Y-111214285D01*
X162472618Y-111214285D01*
X162710713Y-111690476D02*
X163377379Y-111690476D01*
X162805951Y-111690476D02*
X162758332Y-111738095D01*
X162710713Y-111833333D01*
X162710713Y-111976190D01*
X162758332Y-112071428D01*
X162853570Y-112119047D01*
X163377379Y-112119047D01*
X162710713Y-112452380D02*
X162710713Y-112833333D01*
X162377379Y-112595238D02*
X163234522Y-112595238D01*
X163329760Y-112642857D01*
X163377379Y-112738095D01*
X163377379Y-112833333D01*
X167427379Y-108857142D02*
X166951189Y-108523809D01*
X167427379Y-108285714D02*
X166427379Y-108285714D01*
X166427379Y-108666666D01*
X166474999Y-108761904D01*
X166522618Y-108809523D01*
X166617856Y-108857142D01*
X166760713Y-108857142D01*
X166855951Y-108809523D01*
X166903570Y-108761904D01*
X166951189Y-108666666D01*
X166951189Y-108285714D01*
X166427379Y-109190476D02*
X167427379Y-109857142D01*
X166427379Y-109857142D02*
X167427379Y-109190476D01*
X167427379Y-110761904D02*
X167427379Y-110190476D01*
X167427379Y-110476190D02*
X166427379Y-110476190D01*
X166570237Y-110380952D01*
X166665475Y-110285714D01*
X166713094Y-110190476D01*
X162402380Y-103066666D02*
X162402380Y-103638095D01*
X163402380Y-103352380D02*
X162402380Y-103352380D01*
X163354761Y-104352380D02*
X163402380Y-104257142D01*
X163402380Y-104066666D01*
X163354761Y-103971428D01*
X163259523Y-103923809D01*
X162878571Y-103923809D01*
X162783333Y-103971428D01*
X162735714Y-104066666D01*
X162735714Y-104257142D01*
X162783333Y-104352380D01*
X162878571Y-104400000D01*
X162973809Y-104400000D01*
X163069047Y-103923809D01*
X163354761Y-104780952D02*
X163402380Y-104876190D01*
X163402380Y-105066666D01*
X163354761Y-105161904D01*
X163259523Y-105209523D01*
X163211904Y-105209523D01*
X163116666Y-105161904D01*
X163069047Y-105066666D01*
X163069047Y-104923809D01*
X163021428Y-104828571D01*
X162926190Y-104780952D01*
X162878571Y-104780952D01*
X162783333Y-104828571D01*
X162735714Y-104923809D01*
X162735714Y-105066666D01*
X162783333Y-105161904D01*
X162735714Y-105495238D02*
X162735714Y-105876190D01*
X162402380Y-105638095D02*
X163259523Y-105638095D01*
X163354761Y-105685714D01*
X163402380Y-105780952D01*
X163402380Y-105876190D01*
X163402380Y-106209523D02*
X162402380Y-106209523D01*
X162402380Y-106590476D01*
X162450000Y-106685714D01*
X162497619Y-106733333D01*
X162592857Y-106780952D01*
X162735714Y-106780952D01*
X162830952Y-106733333D01*
X162878571Y-106685714D01*
X162926190Y-106590476D01*
X162926190Y-106209523D01*
X163402380Y-107352380D02*
X163354761Y-107257142D01*
X163307142Y-107209523D01*
X163211904Y-107161904D01*
X162926190Y-107161904D01*
X162830952Y-107209523D01*
X162783333Y-107257142D01*
X162735714Y-107352380D01*
X162735714Y-107495238D01*
X162783333Y-107590476D01*
X162830952Y-107638095D01*
X162926190Y-107685714D01*
X163211904Y-107685714D01*
X163307142Y-107638095D01*
X163354761Y-107590476D01*
X163402380Y-107495238D01*
X163402380Y-107352380D01*
X163402380Y-108114285D02*
X162735714Y-108114285D01*
X162402380Y-108114285D02*
X162450000Y-108066666D01*
X162497619Y-108114285D01*
X162450000Y-108161904D01*
X162402380Y-108114285D01*
X162497619Y-108114285D01*
X162735714Y-108590476D02*
X163402380Y-108590476D01*
X162830952Y-108590476D02*
X162783333Y-108638095D01*
X162735714Y-108733333D01*
X162735714Y-108876190D01*
X162783333Y-108971428D01*
X162878571Y-109019047D01*
X163402380Y-109019047D01*
X162735714Y-109352380D02*
X162735714Y-109733333D01*
X162402380Y-109495238D02*
X163259523Y-109495238D01*
X163354761Y-109542857D01*
X163402380Y-109638095D01*
X163402380Y-109733333D01*
X166452380Y-105161904D02*
X166452380Y-105733333D01*
X167452380Y-105447619D02*
X166452380Y-105447619D01*
X166452380Y-105971428D02*
X167452380Y-106638095D01*
X166452380Y-106638095D02*
X167452380Y-105971428D01*
X167452380Y-107542857D02*
X167452380Y-106971428D01*
X167452380Y-107257142D02*
X166452380Y-107257142D01*
X166595238Y-107161904D01*
X166690476Y-107066666D01*
X166738095Y-106971428D01*
X171433333Y-106902380D02*
X170861904Y-106902380D01*
X171147619Y-107902380D02*
X171147619Y-106902380D01*
X170147619Y-107854761D02*
X170242857Y-107902380D01*
X170433333Y-107902380D01*
X170528571Y-107854761D01*
X170576190Y-107759523D01*
X170576190Y-107378571D01*
X170528571Y-107283333D01*
X170433333Y-107235714D01*
X170242857Y-107235714D01*
X170147619Y-107283333D01*
X170100000Y-107378571D01*
X170100000Y-107473809D01*
X170576190Y-107569047D01*
X169719047Y-107854761D02*
X169623809Y-107902380D01*
X169433333Y-107902380D01*
X169338095Y-107854761D01*
X169290476Y-107759523D01*
X169290476Y-107711904D01*
X169338095Y-107616666D01*
X169433333Y-107569047D01*
X169576190Y-107569047D01*
X169671428Y-107521428D01*
X169719047Y-107426190D01*
X169719047Y-107378571D01*
X169671428Y-107283333D01*
X169576190Y-107235714D01*
X169433333Y-107235714D01*
X169338095Y-107283333D01*
X169004761Y-107235714D02*
X168623809Y-107235714D01*
X168861904Y-106902380D02*
X168861904Y-107759523D01*
X168814285Y-107854761D01*
X168719047Y-107902380D01*
X168623809Y-107902380D01*
X168290476Y-107902380D02*
X168290476Y-106902380D01*
X167909523Y-106902380D01*
X167814285Y-106950000D01*
X167766666Y-106997619D01*
X167719047Y-107092857D01*
X167719047Y-107235714D01*
X167766666Y-107330952D01*
X167814285Y-107378571D01*
X167909523Y-107426190D01*
X168290476Y-107426190D01*
X167147619Y-107902380D02*
X167242857Y-107854761D01*
X167290476Y-107807142D01*
X167338095Y-107711904D01*
X167338095Y-107426190D01*
X167290476Y-107330952D01*
X167242857Y-107283333D01*
X167147619Y-107235714D01*
X167004761Y-107235714D01*
X166909523Y-107283333D01*
X166861904Y-107330952D01*
X166814285Y-107426190D01*
X166814285Y-107711904D01*
X166861904Y-107807142D01*
X166909523Y-107854761D01*
X167004761Y-107902380D01*
X167147619Y-107902380D01*
X166385714Y-107902380D02*
X166385714Y-107235714D01*
X166385714Y-106902380D02*
X166433333Y-106950000D01*
X166385714Y-106997619D01*
X166338095Y-106950000D01*
X166385714Y-106902380D01*
X166385714Y-106997619D01*
X165909523Y-107235714D02*
X165909523Y-107902380D01*
X165909523Y-107330952D02*
X165861904Y-107283333D01*
X165766666Y-107235714D01*
X165623809Y-107235714D01*
X165528571Y-107283333D01*
X165480952Y-107378571D01*
X165480952Y-107902380D01*
X165147619Y-107235714D02*
X164766666Y-107235714D01*
X165004761Y-106902380D02*
X165004761Y-107759523D01*
X164957142Y-107854761D01*
X164861904Y-107902380D01*
X164766666Y-107902380D01*
X169361904Y-110952380D02*
X168790476Y-110952380D01*
X169076190Y-111952380D02*
X169076190Y-110952380D01*
X168457142Y-111952380D02*
X168457142Y-110952380D01*
X168076190Y-110952380D01*
X167980952Y-111000000D01*
X167933333Y-111047619D01*
X167885714Y-111142857D01*
X167885714Y-111285714D01*
X167933333Y-111380952D01*
X167980952Y-111428571D01*
X168076190Y-111476190D01*
X168457142Y-111476190D01*
X166933333Y-111952380D02*
X167504761Y-111952380D01*
X167219047Y-111952380D02*
X167219047Y-110952380D01*
X167314285Y-111095238D01*
X167409523Y-111190476D01*
X167504761Y-111238095D01*
X171433333Y-103802380D02*
X170861904Y-103802380D01*
X171147619Y-104802380D02*
X171147619Y-103802380D01*
X170147619Y-104754761D02*
X170242857Y-104802380D01*
X170433333Y-104802380D01*
X170528571Y-104754761D01*
X170576190Y-104659523D01*
X170576190Y-104278571D01*
X170528571Y-104183333D01*
X170433333Y-104135714D01*
X170242857Y-104135714D01*
X170147619Y-104183333D01*
X170100000Y-104278571D01*
X170100000Y-104373809D01*
X170576190Y-104469047D01*
X169719047Y-104754761D02*
X169623809Y-104802380D01*
X169433333Y-104802380D01*
X169338095Y-104754761D01*
X169290476Y-104659523D01*
X169290476Y-104611904D01*
X169338095Y-104516666D01*
X169433333Y-104469047D01*
X169576190Y-104469047D01*
X169671428Y-104421428D01*
X169719047Y-104326190D01*
X169719047Y-104278571D01*
X169671428Y-104183333D01*
X169576190Y-104135714D01*
X169433333Y-104135714D01*
X169338095Y-104183333D01*
X169004761Y-104135714D02*
X168623809Y-104135714D01*
X168861904Y-103802380D02*
X168861904Y-104659523D01*
X168814285Y-104754761D01*
X168719047Y-104802380D01*
X168623809Y-104802380D01*
X168290476Y-104802380D02*
X168290476Y-103802380D01*
X167909523Y-103802380D01*
X167814285Y-103850000D01*
X167766666Y-103897619D01*
X167719047Y-103992857D01*
X167719047Y-104135714D01*
X167766666Y-104230952D01*
X167814285Y-104278571D01*
X167909523Y-104326190D01*
X168290476Y-104326190D01*
X167147619Y-104802380D02*
X167242857Y-104754761D01*
X167290476Y-104707142D01*
X167338095Y-104611904D01*
X167338095Y-104326190D01*
X167290476Y-104230952D01*
X167242857Y-104183333D01*
X167147619Y-104135714D01*
X167004761Y-104135714D01*
X166909523Y-104183333D01*
X166861904Y-104230952D01*
X166814285Y-104326190D01*
X166814285Y-104611904D01*
X166861904Y-104707142D01*
X166909523Y-104754761D01*
X167004761Y-104802380D01*
X167147619Y-104802380D01*
X166385714Y-104802380D02*
X166385714Y-104135714D01*
X166385714Y-103802380D02*
X166433333Y-103850000D01*
X166385714Y-103897619D01*
X166338095Y-103850000D01*
X166385714Y-103802380D01*
X166385714Y-103897619D01*
X165909523Y-104135714D02*
X165909523Y-104802380D01*
X165909523Y-104230952D02*
X165861904Y-104183333D01*
X165766666Y-104135714D01*
X165623809Y-104135714D01*
X165528571Y-104183333D01*
X165480952Y-104278571D01*
X165480952Y-104802380D01*
X165147619Y-104135714D02*
X164766666Y-104135714D01*
X165004761Y-103802380D02*
X165004761Y-104659523D01*
X164957142Y-104754761D01*
X164861904Y-104802380D01*
X164766666Y-104802380D01*
X169361904Y-107852380D02*
X168790476Y-107852380D01*
X169076190Y-108852380D02*
X169076190Y-107852380D01*
X168457142Y-108852380D02*
X168457142Y-107852380D01*
X168076190Y-107852380D01*
X167980952Y-107900000D01*
X167933333Y-107947619D01*
X167885714Y-108042857D01*
X167885714Y-108185714D01*
X167933333Y-108280952D01*
X167980952Y-108328571D01*
X168076190Y-108376190D01*
X168457142Y-108376190D01*
X167504761Y-107947619D02*
X167457142Y-107900000D01*
X167361904Y-107852380D01*
X167123809Y-107852380D01*
X167028571Y-107900000D01*
X166980952Y-107947619D01*
X166933333Y-108042857D01*
X166933333Y-108138095D01*
X166980952Y-108280952D01*
X167552380Y-108852380D01*
X166933333Y-108852380D01*
X139387142Y-84766666D02*
X139434761Y-84719047D01*
X139482380Y-84576190D01*
X139482380Y-84480952D01*
X139434761Y-84338095D01*
X139339523Y-84242857D01*
X139244285Y-84195238D01*
X139053809Y-84147619D01*
X138910952Y-84147619D01*
X138720476Y-84195238D01*
X138625238Y-84242857D01*
X138530000Y-84338095D01*
X138482380Y-84480952D01*
X138482380Y-84576190D01*
X138530000Y-84719047D01*
X138577619Y-84766666D01*
X139482380Y-85338095D02*
X139434761Y-85242857D01*
X139387142Y-85195238D01*
X139291904Y-85147619D01*
X139006190Y-85147619D01*
X138910952Y-85195238D01*
X138863333Y-85242857D01*
X138815714Y-85338095D01*
X138815714Y-85480952D01*
X138863333Y-85576190D01*
X138910952Y-85623809D01*
X139006190Y-85671428D01*
X139291904Y-85671428D01*
X139387142Y-85623809D01*
X139434761Y-85576190D01*
X139482380Y-85480952D01*
X139482380Y-85338095D01*
X138815714Y-86100000D02*
X139482380Y-86100000D01*
X138910952Y-86100000D02*
X138863333Y-86147619D01*
X138815714Y-86242857D01*
X138815714Y-86385714D01*
X138863333Y-86480952D01*
X138958571Y-86528571D01*
X139482380Y-86528571D01*
X138815714Y-87004761D02*
X139482380Y-87004761D01*
X138910952Y-87004761D02*
X138863333Y-87052380D01*
X138815714Y-87147619D01*
X138815714Y-87290476D01*
X138863333Y-87385714D01*
X138958571Y-87433333D01*
X139482380Y-87433333D01*
X139577619Y-87671428D02*
X139577619Y-88433333D01*
X138482380Y-88861904D02*
X138482380Y-88957142D01*
X138530000Y-89052380D01*
X138577619Y-89100000D01*
X138672857Y-89147619D01*
X138863333Y-89195238D01*
X139101428Y-89195238D01*
X139291904Y-89147619D01*
X139387142Y-89100000D01*
X139434761Y-89052380D01*
X139482380Y-88957142D01*
X139482380Y-88861904D01*
X139434761Y-88766666D01*
X139387142Y-88719047D01*
X139291904Y-88671428D01*
X139101428Y-88623809D01*
X138863333Y-88623809D01*
X138672857Y-88671428D01*
X138577619Y-88719047D01*
X138530000Y-88766666D01*
X138482380Y-88861904D01*
X139482380Y-90147619D02*
X139482380Y-89576190D01*
X139482380Y-89861904D02*
X138482380Y-89861904D01*
X138625238Y-89766666D01*
X138720476Y-89671428D01*
X138768095Y-89576190D01*
X139482380Y-90480952D02*
X138815714Y-91004761D01*
X138815714Y-90480952D02*
X139482380Y-91004761D01*
X138482380Y-91576190D02*
X138482380Y-91671428D01*
X138530000Y-91766666D01*
X138577619Y-91814285D01*
X138672857Y-91861904D01*
X138863333Y-91909523D01*
X139101428Y-91909523D01*
X139291904Y-91861904D01*
X139387142Y-91814285D01*
X139434761Y-91766666D01*
X139482380Y-91671428D01*
X139482380Y-91576190D01*
X139434761Y-91480952D01*
X139387142Y-91433333D01*
X139291904Y-91385714D01*
X139101428Y-91338095D01*
X138863333Y-91338095D01*
X138672857Y-91385714D01*
X138577619Y-91433333D01*
X138530000Y-91480952D01*
X138482380Y-91576190D01*
X138482380Y-92242857D02*
X138482380Y-92909523D01*
X139482380Y-92480952D01*
X139577619Y-93052380D02*
X139577619Y-93814285D01*
X139482380Y-94052380D02*
X138482380Y-94052380D01*
X139196666Y-94385714D01*
X138482380Y-94719047D01*
X139482380Y-94719047D01*
X139482380Y-95623809D02*
X138958571Y-95623809D01*
X138863333Y-95576190D01*
X138815714Y-95480952D01*
X138815714Y-95290476D01*
X138863333Y-95195238D01*
X139434761Y-95623809D02*
X139482380Y-95528571D01*
X139482380Y-95290476D01*
X139434761Y-95195238D01*
X139339523Y-95147619D01*
X139244285Y-95147619D01*
X139149047Y-95195238D01*
X139101428Y-95290476D01*
X139101428Y-95528571D01*
X139053809Y-95623809D01*
X139482380Y-96242857D02*
X139434761Y-96147619D01*
X139339523Y-96100000D01*
X138482380Y-96100000D01*
X139434761Y-97004761D02*
X139482380Y-96909523D01*
X139482380Y-96719047D01*
X139434761Y-96623809D01*
X139339523Y-96576190D01*
X138958571Y-96576190D01*
X138863333Y-96623809D01*
X138815714Y-96719047D01*
X138815714Y-96909523D01*
X138863333Y-97004761D01*
X138958571Y-97052380D01*
X139053809Y-97052380D01*
X139149047Y-96576190D01*
X149313333Y-90052380D02*
X149313333Y-90766666D01*
X149360952Y-90909523D01*
X149456190Y-91004761D01*
X149599047Y-91052380D01*
X149694285Y-91052380D01*
X148932380Y-90052380D02*
X148265714Y-90052380D01*
X148694285Y-91052380D01*
M02*
