%TF.GenerationSoftware,KiCad,Pcbnew,(5.1.8-0-10_14)*%
%TF.CreationDate,2021-08-18T19:24:52+02:00*%
%TF.ProjectId,ethersweep,65746865-7273-4776-9565-702e6b696361,2.0.1*%
%TF.SameCoordinates,Original*%
%TF.FileFunction,Other,User*%
%FSLAX46Y46*%
G04 Gerber Fmt 4.6, Leading zero omitted, Abs format (unit mm)*
G04 Created by KiCad (PCBNEW (5.1.8-0-10_14)) date 2021-08-18 19:24:52*
%MOMM*%
%LPD*%
G01*
G04 APERTURE LIST*
%TA.AperFunction,Profile*%
%ADD10C,0.150000*%
%TD*%
%ADD11C,0.050000*%
G04 APERTURE END LIST*
D10*
X198000000Y-81000000D02*
G75*
G02*
X201500000Y-84500000I0J-3500000D01*
G01*
X160500000Y-115500000D02*
X160500000Y-114200000D01*
X163500000Y-86600000D02*
X163500000Y-85000000D01*
X163500000Y-86600000D02*
G75*
G02*
X160500000Y-86600000I-1500000J0D01*
G01*
X163500000Y-115500000D02*
X163500000Y-114200000D01*
X160500000Y-86600000D02*
X160500000Y-85000000D01*
X160500000Y-114200000D02*
G75*
G02*
X163500000Y-114200000I1500000J0D01*
G01*
X163500000Y-97600000D02*
G75*
G02*
X160500000Y-97600000I-1500000J0D01*
G01*
X160500000Y-91800000D02*
G75*
G02*
X163500000Y-91800000I1500000J0D01*
G01*
X163500000Y-97600000D02*
X163500000Y-91800000D01*
X160500000Y-109200000D02*
X160500000Y-102800000D01*
X160500000Y-102800000D02*
G75*
G02*
X163500000Y-102800000I1500000J0D01*
G01*
X160500000Y-97600000D02*
X160500000Y-91800000D01*
X163500000Y-109200000D02*
X163500000Y-102800000D01*
X163500000Y-109200000D02*
G75*
G02*
X160500000Y-109200000I-1500000J0D01*
G01*
X160500000Y-116000000D02*
X160500000Y-115500000D01*
X163500000Y-84500000D02*
X163500000Y-85000000D01*
X151100000Y-110800000D02*
G75*
G03*
X151100000Y-110800000I-1500000J0D01*
G01*
X126000000Y-119500000D02*
G75*
G02*
X122500000Y-116000000I0J3500000D01*
G01*
X126000000Y-119500000D02*
X157000000Y-119500000D01*
X167000000Y-81000000D02*
X198000000Y-81000000D01*
X163500000Y-84500000D02*
G75*
G02*
X167000000Y-81000000I3500000J0D01*
G01*
X201500000Y-115500000D02*
G75*
G02*
X198000000Y-119000000I-3500000J0D01*
G01*
X167000000Y-119000000D02*
G75*
G02*
X163500000Y-115500000I0J3500000D01*
G01*
X167000000Y-119000000D02*
X198000000Y-119000000D01*
X201500000Y-115500000D02*
X201500000Y-84500000D01*
X122500000Y-85000000D02*
X122500000Y-116000000D01*
X160500000Y-116000000D02*
G75*
G02*
X157000000Y-119500000I-3500000J0D01*
G01*
X157000000Y-81500000D02*
G75*
G02*
X160500000Y-85000000I0J-3500000D01*
G01*
X122500000Y-85000000D02*
G75*
G02*
X126000000Y-81500000I3500000J0D01*
G01*
X157000000Y-81500000D02*
X126000000Y-81500000D01*
D11*
X188550000Y-97900000D02*
X189400000Y-97900000D01*
X188550000Y-94900000D02*
X188550000Y-97900000D01*
X189400000Y-94900000D02*
X188550000Y-94900000D01*
X189400000Y-97900000D02*
X189400000Y-99650000D01*
X189400000Y-93150000D02*
X189400000Y-94900000D01*
X189400000Y-93150000D02*
X190550000Y-92000000D01*
X189400000Y-99650000D02*
X190550000Y-100800000D01*
X190550000Y-92000000D02*
X198200000Y-92000000D01*
X190550000Y-100800000D02*
X198200000Y-100800000D01*
X198200000Y-97900000D02*
X198200000Y-100800000D01*
X199050000Y-97900000D02*
X198200000Y-97900000D01*
X199050000Y-94900000D02*
X199050000Y-97900000D01*
X198200000Y-94900000D02*
X199050000Y-94900000D01*
X198200000Y-92000000D02*
X198200000Y-94900000D01*
X201450000Y-84500000D02*
G75*
G03*
X201450000Y-84500000I-3450000J0D01*
G01*
X189650000Y-120900000D02*
X175350000Y-120900000D01*
X175350000Y-120900000D02*
X175350000Y-105050000D01*
X189650000Y-105050000D02*
X175350000Y-105050000D01*
X189650000Y-120900000D02*
X189650000Y-105050000D01*
X129800000Y-121400000D02*
X138300000Y-121400000D01*
X129800000Y-112200000D02*
X129800000Y-121400000D01*
X138300000Y-112200000D02*
X129800000Y-112200000D01*
X138300000Y-121400000D02*
X138300000Y-112200000D01*
X178680000Y-93100000D02*
X178680000Y-76810000D01*
X178680000Y-76810000D02*
X168780000Y-76810000D01*
X168780000Y-76810000D02*
X168780000Y-93100000D01*
X168780000Y-93100000D02*
X178680000Y-93100000D01*
X170450000Y-115500000D02*
G75*
G03*
X170450000Y-115500000I-3450000J0D01*
G01*
X201450000Y-115475001D02*
G75*
G03*
X201450000Y-115475001I-3450000J0D01*
G01*
X170450000Y-84500000D02*
G75*
G03*
X170450000Y-84500000I-3450000J0D01*
G01*
X175950000Y-93980000D02*
X172550000Y-93980000D01*
X175950000Y-92020000D02*
X175950000Y-93980000D01*
X172550000Y-92020000D02*
X175950000Y-92020000D01*
X172550000Y-93980000D02*
X172550000Y-92020000D01*
X168360000Y-106290000D02*
X168360000Y-108110000D01*
X167440000Y-106290000D02*
X168360000Y-106290000D01*
X167440000Y-108110000D02*
X167440000Y-106290000D01*
X168360000Y-108110000D02*
X167440000Y-108110000D01*
X175040000Y-106290000D02*
X175960000Y-106290000D01*
X175960000Y-106290000D02*
X175960000Y-108110000D01*
X175960000Y-108110000D02*
X175040000Y-108110000D01*
X175040000Y-108110000D02*
X175040000Y-106290000D01*
X184700000Y-101720000D02*
X184700000Y-103680000D01*
X184700000Y-103680000D02*
X181300000Y-103680000D01*
X181300000Y-103680000D02*
X181300000Y-101720000D01*
X181300000Y-101720000D02*
X184700000Y-101720000D01*
X146200000Y-121400000D02*
X146200000Y-112200000D01*
X146200000Y-112200000D02*
X137700000Y-112200000D01*
X137700000Y-112200000D02*
X137700000Y-121400000D01*
X137700000Y-121400000D02*
X146200000Y-121400000D01*
X189920000Y-116230000D02*
X189920000Y-114770000D01*
X189920000Y-114770000D02*
X192880000Y-114770000D01*
X192880000Y-114770000D02*
X192880000Y-116230000D01*
X192880000Y-116230000D02*
X189920000Y-116230000D01*
X166200000Y-104800000D02*
X176800000Y-104800000D01*
X166200000Y-94200000D02*
X176800000Y-94200000D01*
X166200000Y-104800000D02*
X166200000Y-94200000D01*
X176800000Y-104800000D02*
X176800000Y-94200000D01*
X129450000Y-85000000D02*
G75*
G03*
X129450000Y-85000000I-3450000J0D01*
G01*
X160450000Y-85000000D02*
G75*
G03*
X160450000Y-85000000I-3450000J0D01*
G01*
X160450000Y-116000000D02*
G75*
G03*
X160450000Y-116000000I-3450000J0D01*
G01*
X129450000Y-116000000D02*
G75*
G03*
X129450000Y-116000000I-3450000J0D01*
G01*
X164020000Y-99480000D02*
X164020000Y-96520000D01*
X165480000Y-99480000D02*
X164020000Y-99480000D01*
X165480000Y-96520000D02*
X165480000Y-99480000D01*
X164020000Y-96520000D02*
X165480000Y-96520000D01*
X178470000Y-96520000D02*
X179930000Y-96520000D01*
X179930000Y-96520000D02*
X179930000Y-99480000D01*
X179930000Y-99480000D02*
X178470000Y-99480000D01*
X178470000Y-99480000D02*
X178470000Y-96520000D01*
X165530000Y-94680000D02*
X164070000Y-94680000D01*
X164070000Y-94680000D02*
X164070000Y-91720000D01*
X164070000Y-91720000D02*
X165530000Y-91720000D01*
X165530000Y-91720000D02*
X165530000Y-94680000D01*
X167530000Y-91720000D02*
X167530000Y-94680000D01*
X166070000Y-91720000D02*
X167530000Y-91720000D01*
X166070000Y-94680000D02*
X166070000Y-91720000D01*
X167530000Y-94680000D02*
X166070000Y-94680000D01*
X146730000Y-84120000D02*
X146730000Y-87080000D01*
X145270000Y-84120000D02*
X146730000Y-84120000D01*
X145270000Y-87080000D02*
X145270000Y-84120000D01*
X146730000Y-87080000D02*
X145270000Y-87080000D01*
X168600000Y-109000000D02*
X174800000Y-109000000D01*
X168600000Y-105200000D02*
X168600000Y-109000000D01*
X174800000Y-105200000D02*
X168600000Y-105200000D01*
X174800000Y-109000000D02*
X174800000Y-105200000D01*
X189925001Y-112885001D02*
X189925001Y-111425001D01*
X189925001Y-111425001D02*
X192885001Y-111425001D01*
X192885001Y-111425001D02*
X192885001Y-112885001D01*
X192885001Y-112885001D02*
X189925001Y-112885001D01*
X189920000Y-113070000D02*
X192880000Y-113070000D01*
X189920000Y-114530000D02*
X189920000Y-113070000D01*
X192880000Y-114530000D02*
X189920000Y-114530000D01*
X192880000Y-113070000D02*
X192880000Y-114530000D01*
X142820000Y-109880000D02*
X147380000Y-109880000D01*
X142820000Y-112120000D02*
X142820000Y-109880000D01*
X147380000Y-112120000D02*
X142820000Y-112120000D01*
X147380000Y-109880000D02*
X147380000Y-112120000D01*
X137030000Y-102320000D02*
X137030000Y-105280000D01*
X135570000Y-102320000D02*
X137030000Y-102320000D01*
X135570000Y-105280000D02*
X135570000Y-102320000D01*
X137030000Y-105280000D02*
X135570000Y-105280000D01*
X133670000Y-102870000D02*
X135130000Y-102870000D01*
X135130000Y-102870000D02*
X135130000Y-105830000D01*
X135130000Y-105830000D02*
X133670000Y-105830000D01*
X133670000Y-105830000D02*
X133670000Y-102870000D01*
X138410000Y-94160000D02*
X136590000Y-94160000D01*
X138410000Y-93240000D02*
X138410000Y-94160000D01*
X136590000Y-93240000D02*
X138410000Y-93240000D01*
X136590000Y-94160000D02*
X136590000Y-93240000D01*
X137490000Y-95160000D02*
X137490000Y-94240000D01*
X137490000Y-94240000D02*
X139310000Y-94240000D01*
X139310000Y-94240000D02*
X139310000Y-95160000D01*
X139310000Y-95160000D02*
X137490000Y-95160000D01*
X135560000Y-87490000D02*
X135560000Y-89310000D01*
X134640000Y-87490000D02*
X135560000Y-87490000D01*
X134640000Y-89310000D02*
X134640000Y-87490000D01*
X135560000Y-89310000D02*
X134640000Y-89310000D01*
X133690000Y-99560000D02*
X133690000Y-98640000D01*
X133690000Y-98640000D02*
X135510000Y-98640000D01*
X135510000Y-98640000D02*
X135510000Y-99560000D01*
X135510000Y-99560000D02*
X133690000Y-99560000D01*
X126440000Y-96690000D02*
X127360000Y-96690000D01*
X127360000Y-96690000D02*
X127360000Y-98510000D01*
X127360000Y-98510000D02*
X126440000Y-98510000D01*
X126440000Y-98510000D02*
X126440000Y-96690000D01*
X136590000Y-96260000D02*
X136590000Y-95340000D01*
X136590000Y-95340000D02*
X138410000Y-95340000D01*
X138410000Y-95340000D02*
X138410000Y-96260000D01*
X138410000Y-96260000D02*
X136590000Y-96260000D01*
X137680000Y-86600000D02*
X137680000Y-90000000D01*
X135720000Y-86600000D02*
X137680000Y-86600000D01*
X135720000Y-90000000D02*
X135720000Y-86600000D01*
X137680000Y-90000000D02*
X135720000Y-90000000D01*
X126100000Y-91020000D02*
X126100000Y-92980000D01*
X126100000Y-92980000D02*
X122700000Y-92980000D01*
X122700000Y-92980000D02*
X122700000Y-91020000D01*
X122700000Y-91020000D02*
X126100000Y-91020000D01*
X135960000Y-83690000D02*
X135960000Y-85510000D01*
X135040000Y-83690000D02*
X135960000Y-83690000D01*
X135040000Y-85510000D02*
X135040000Y-83690000D01*
X135960000Y-85510000D02*
X135040000Y-85510000D01*
X130560000Y-83690000D02*
X130560000Y-85510000D01*
X129640000Y-83690000D02*
X130560000Y-83690000D01*
X129640000Y-85510000D02*
X129640000Y-83690000D01*
X130560000Y-85510000D02*
X129640000Y-85510000D01*
X136620000Y-91780000D02*
X136620000Y-90320000D01*
X136620000Y-90320000D02*
X139580000Y-90320000D01*
X139580000Y-90320000D02*
X139580000Y-91780000D01*
X139580000Y-91780000D02*
X136620000Y-91780000D01*
X136610000Y-92810000D02*
X136610000Y-91890000D01*
X136610000Y-91890000D02*
X138430000Y-91890000D01*
X138430000Y-91890000D02*
X138430000Y-92810000D01*
X138430000Y-92810000D02*
X136610000Y-92810000D01*
X165600000Y-88300000D02*
X165600000Y-91900000D01*
X184450000Y-88300000D02*
X165600000Y-88300000D01*
X184450000Y-91900000D02*
X184450000Y-88300000D01*
X165600000Y-91900000D02*
X184450000Y-91900000D01*
X161920000Y-109750000D02*
X161920000Y-91250000D01*
X140020000Y-109750000D02*
X161920000Y-109750000D01*
X140020000Y-91250000D02*
X140020000Y-109750000D01*
X161920000Y-91250000D02*
X140020000Y-91250000D01*
X128350000Y-109650000D02*
X124850000Y-109650000D01*
X128350000Y-107950000D02*
X128350000Y-109650000D01*
X124850000Y-107950000D02*
X128350000Y-107950000D01*
X124850000Y-109650000D02*
X124850000Y-107950000D01*
X127850000Y-102730000D02*
X125950000Y-102730000D01*
X125950000Y-102730000D02*
X125950000Y-99370000D01*
X125950000Y-99370000D02*
X127850000Y-99370000D01*
X127850000Y-99370000D02*
X127850000Y-102730000D01*
X129750000Y-99370000D02*
X129750000Y-102730000D01*
X127850000Y-99370000D02*
X129750000Y-99370000D01*
X127850000Y-102730000D02*
X127850000Y-99370000D01*
X129750000Y-102730000D02*
X127850000Y-102730000D01*
X131650000Y-102730000D02*
X129750000Y-102730000D01*
X129750000Y-102730000D02*
X129750000Y-99370000D01*
X129750000Y-99370000D02*
X131650000Y-99370000D01*
X131650000Y-99370000D02*
X131650000Y-102730000D01*
X133550000Y-99370000D02*
X133550000Y-102730000D01*
X131650000Y-99370000D02*
X133550000Y-99370000D01*
X131650000Y-102730000D02*
X131650000Y-99370000D01*
X133550000Y-102730000D02*
X131650000Y-102730000D01*
X127330000Y-102820000D02*
X127330000Y-105780000D01*
X125870000Y-102820000D02*
X127330000Y-102820000D01*
X125870000Y-105780000D02*
X125870000Y-102820000D01*
X127330000Y-105780000D02*
X125870000Y-105780000D01*
X129730000Y-102820000D02*
X129730000Y-105780000D01*
X128270000Y-102820000D02*
X129730000Y-102820000D01*
X128270000Y-105780000D02*
X128270000Y-102820000D01*
X129730000Y-105780000D02*
X128270000Y-105780000D01*
X131430000Y-105830000D02*
X129970000Y-105830000D01*
X129970000Y-105830000D02*
X129970000Y-102870000D01*
X129970000Y-102870000D02*
X131430000Y-102870000D01*
X131430000Y-102870000D02*
X131430000Y-105830000D01*
X151720000Y-110470000D02*
X154680000Y-110470000D01*
X151720000Y-111930000D02*
X151720000Y-110470000D01*
X154680000Y-111930000D02*
X151720000Y-111930000D01*
X154680000Y-110470000D02*
X154680000Y-111930000D01*
X154680000Y-108870000D02*
X154680000Y-110330000D01*
X154680000Y-110330000D02*
X151720000Y-110330000D01*
X151720000Y-110330000D02*
X151720000Y-108870000D01*
X151720000Y-108870000D02*
X154680000Y-108870000D01*
X133330000Y-105830000D02*
X131870000Y-105830000D01*
X131870000Y-105830000D02*
X131870000Y-102870000D01*
X131870000Y-102870000D02*
X133330000Y-102870000D01*
X133330000Y-102870000D02*
X133330000Y-105830000D01*
X126150000Y-93300000D02*
X126150000Y-96450000D01*
X126150000Y-96450000D02*
X127550000Y-96450000D01*
X127550000Y-96450000D02*
X127550000Y-97050000D01*
X127550000Y-97050000D02*
X128150000Y-97050000D01*
X128150000Y-97050000D02*
X128150000Y-98450000D01*
X128150000Y-98450000D02*
X131300000Y-98450000D01*
X126150000Y-93300000D02*
X126150000Y-90150000D01*
X126150000Y-90150000D02*
X127550000Y-90150000D01*
X127550000Y-90150000D02*
X127550000Y-89550000D01*
X127550000Y-89550000D02*
X128150000Y-89550000D01*
X128150000Y-89550000D02*
X128150000Y-88150000D01*
X128150000Y-88150000D02*
X131300000Y-88150000D01*
X136450000Y-93300000D02*
X136450000Y-96450000D01*
X136450000Y-96450000D02*
X135050000Y-96450000D01*
X135050000Y-96450000D02*
X135050000Y-97050000D01*
X135050000Y-97050000D02*
X134450000Y-97050000D01*
X134450000Y-97050000D02*
X134450000Y-98450000D01*
X134450000Y-98450000D02*
X131300000Y-98450000D01*
X136450000Y-93300000D02*
X136450000Y-90150000D01*
X136450000Y-90150000D02*
X135050000Y-90150000D01*
X135050000Y-90150000D02*
X135050000Y-89550000D01*
X135050000Y-89550000D02*
X134450000Y-89550000D01*
X134450000Y-89550000D02*
X134450000Y-88150000D01*
X134450000Y-88150000D02*
X131300000Y-88150000D01*
X130700000Y-82600000D02*
X130700000Y-86000000D01*
X130700000Y-86000000D02*
X134900000Y-86000000D01*
X134900000Y-86000000D02*
X134900000Y-82600000D01*
X134900000Y-82600000D02*
X130700000Y-82600000D01*
X189650000Y-100000000D02*
X189650000Y-104600000D01*
X187350000Y-100000000D02*
X189650000Y-100000000D01*
X187350000Y-104600000D02*
X187350000Y-100000000D01*
X189650000Y-104600000D02*
X187350000Y-104600000D01*
X187080000Y-100000000D02*
X187080000Y-103400000D01*
X185120000Y-100000000D02*
X187080000Y-100000000D01*
X185120000Y-103400000D02*
X185120000Y-100000000D01*
X187080000Y-103400000D02*
X185120000Y-103400000D01*
X167080000Y-106330000D02*
X164120000Y-106330000D01*
X167080000Y-104870000D02*
X167080000Y-106330000D01*
X164120000Y-104870000D02*
X167080000Y-104870000D01*
X164120000Y-106330000D02*
X164120000Y-104870000D01*
X195900000Y-91780000D02*
X192500000Y-91780000D01*
X195900000Y-89820000D02*
X195900000Y-91780000D01*
X192500000Y-89820000D02*
X195900000Y-89820000D01*
X192500000Y-91780000D02*
X192500000Y-89820000D01*
X192500000Y-89380000D02*
X192500000Y-87420000D01*
X192500000Y-87420000D02*
X195900000Y-87420000D01*
X195900000Y-87420000D02*
X195900000Y-89380000D01*
X195900000Y-89380000D02*
X192500000Y-89380000D01*
X192300000Y-91780000D02*
X188900000Y-91780000D01*
X192300000Y-89820000D02*
X192300000Y-91780000D01*
X188900000Y-89820000D02*
X192300000Y-89820000D01*
X188900000Y-91780000D02*
X188900000Y-89820000D01*
X186820000Y-93100000D02*
X186820000Y-89700000D01*
X188780000Y-93100000D02*
X186820000Y-93100000D01*
X188780000Y-89700000D02*
X188780000Y-93100000D01*
X186820000Y-89700000D02*
X188780000Y-89700000D01*
X184620000Y-89700000D02*
X186580000Y-89700000D01*
X186580000Y-89700000D02*
X186580000Y-93100000D01*
X186580000Y-93100000D02*
X184620000Y-93100000D01*
X184620000Y-93100000D02*
X184620000Y-89700000D01*
X180320000Y-83080000D02*
X184880000Y-83080000D01*
X180320000Y-85320000D02*
X180320000Y-83080000D01*
X184880000Y-85320000D02*
X180320000Y-85320000D01*
X184880000Y-83080000D02*
X184880000Y-85320000D01*
X184874999Y-85534999D02*
X184874999Y-87774999D01*
X184874999Y-87774999D02*
X180314999Y-87774999D01*
X180314999Y-87774999D02*
X180314999Y-85534999D01*
X180314999Y-85534999D02*
X184874999Y-85534999D01*
X170300000Y-108900000D02*
X170300000Y-119000000D01*
X175700000Y-108900000D02*
X170300000Y-108900000D01*
X175700000Y-119000000D02*
X175700000Y-108900000D01*
X170300000Y-119000000D02*
X175700000Y-119000000D01*
X185900000Y-82300000D02*
X185900000Y-88500000D01*
X192100000Y-82300000D02*
X185900000Y-82300000D01*
X192100000Y-88500000D02*
X192100000Y-82300000D01*
X185900000Y-88500000D02*
X192100000Y-88500000D01*
X139680000Y-100130000D02*
X136720000Y-100130000D01*
X139680000Y-98670000D02*
X139680000Y-100130000D01*
X136720000Y-98670000D02*
X139680000Y-98670000D01*
X136720000Y-100130000D02*
X136720000Y-98670000D01*
X136720000Y-101730000D02*
X136720000Y-100270000D01*
X136720000Y-100270000D02*
X139680000Y-100270000D01*
X139680000Y-100270000D02*
X139680000Y-101730000D01*
X139680000Y-101730000D02*
X136720000Y-101730000D01*
X139150000Y-105280000D02*
X137250000Y-105280000D01*
X137250000Y-105280000D02*
X137250000Y-101920000D01*
X137250000Y-101920000D02*
X139150000Y-101920000D01*
X139150000Y-101920000D02*
X139150000Y-105280000D01*
X132880000Y-86270000D02*
X132880000Y-87730000D01*
X132880000Y-87730000D02*
X129920000Y-87730000D01*
X129920000Y-87730000D02*
X129920000Y-86270000D01*
X129920000Y-86270000D02*
X132880000Y-86270000D01*
X135520000Y-96670000D02*
X138480000Y-96670000D01*
X135520000Y-98130000D02*
X135520000Y-96670000D01*
X138480000Y-98130000D02*
X135520000Y-98130000D01*
X138480000Y-96670000D02*
X138480000Y-98130000D01*
X144280000Y-83870000D02*
X144280000Y-85330000D01*
X144280000Y-85330000D02*
X141320000Y-85330000D01*
X141320000Y-85330000D02*
X141320000Y-83870000D01*
X141320000Y-83870000D02*
X144280000Y-83870000D01*
X141320000Y-82070000D02*
X144280000Y-82070000D01*
X141320000Y-83530000D02*
X141320000Y-82070000D01*
X144280000Y-83530000D02*
X141320000Y-83530000D01*
X144280000Y-82070000D02*
X144280000Y-83530000D01*
X141330000Y-85520000D02*
X141330000Y-88480000D01*
X139870000Y-85520000D02*
X141330000Y-85520000D01*
X139870000Y-88480000D02*
X139870000Y-85520000D01*
X141330000Y-88480000D02*
X139870000Y-88480000D01*
X139530000Y-88480000D02*
X138070000Y-88480000D01*
X138070000Y-88480000D02*
X138070000Y-85520000D01*
X138070000Y-85520000D02*
X139530000Y-85520000D01*
X139530000Y-85520000D02*
X139530000Y-88480000D01*
X192880000Y-117930000D02*
X189920000Y-117930000D01*
X192880000Y-116470000D02*
X192880000Y-117930000D01*
X189920000Y-116470000D02*
X192880000Y-116470000D01*
X189920000Y-117930000D02*
X189920000Y-116470000D01*
X164120000Y-108130000D02*
X164120000Y-106670000D01*
X164120000Y-106670000D02*
X167080000Y-106670000D01*
X167080000Y-106670000D02*
X167080000Y-108130000D01*
X167080000Y-108130000D02*
X164120000Y-108130000D01*
X122700000Y-95180000D02*
X122700000Y-93220000D01*
X122700000Y-93220000D02*
X126100000Y-93220000D01*
X126100000Y-93220000D02*
X126100000Y-95180000D01*
X126100000Y-95180000D02*
X122700000Y-95180000D01*
M02*
