%TF.GenerationSoftware,KiCad,Pcbnew,(6.0.1-0)*%
%TF.CreationDate,2022-02-22T17:31:55+01:00*%
%TF.ProjectId,ethersweep,65746865-7273-4776-9565-702e6b696361,2.0.1*%
%TF.SameCoordinates,Original*%
%TF.FileFunction,OtherDrawing,Comment*%
%FSLAX46Y46*%
G04 Gerber Fmt 4.6, Leading zero omitted, Abs format (unit mm)*
G04 Created by KiCad (PCBNEW (6.0.1-0)) date 2022-02-22 17:31:55*
%MOMM*%
%LPD*%
G01*
G04 APERTURE LIST*
%ADD10C,0.150000*%
%TA.AperFunction,Profile*%
%ADD11C,0.150000*%
%TD*%
%ADD12C,0.040000*%
%ADD13C,0.050000*%
%ADD14C,0.100000*%
G04 APERTURE END LIST*
D10*
X186000000Y-54500000D02*
X186000000Y-37900000D01*
X207800000Y-54500000D02*
X186000000Y-54500000D01*
X186000000Y-37900000D02*
X207800000Y-37900000D01*
X207800000Y-37900000D02*
X207800000Y-54500000D01*
X212350000Y-34820000D02*
X221150000Y-43620000D01*
X221150000Y-34820000D02*
X212350000Y-43620000D01*
D11*
X184100000Y-31800000D02*
X184100000Y-30200000D01*
X184100000Y-60700000D02*
X184100000Y-59400000D01*
X180600000Y-26700000D02*
X149600000Y-26700000D01*
X149600000Y-26700000D02*
G75*
G03*
X146100000Y-30200000I-1J-3499999D01*
G01*
X184100000Y-30200000D02*
G75*
G03*
X180600000Y-26700000I-3499999J1D01*
G01*
X180600000Y-64700000D02*
G75*
G03*
X184100000Y-61200000I1J3499999D01*
G01*
X146100000Y-30200000D02*
X146100000Y-61200000D01*
X149600000Y-64700000D02*
X180600000Y-64700000D01*
X146100000Y-61200000D02*
G75*
G03*
X149600000Y-64700000I3499999J-1D01*
G01*
X184100000Y-61200000D02*
X184100000Y-60700000D01*
X225100000Y-61200000D02*
X225100000Y-30200000D01*
X190600000Y-64700000D02*
X221600000Y-64700000D01*
X187100000Y-61200000D02*
G75*
G03*
X190600000Y-64700000I3499999J-1D01*
G01*
X221600000Y-64700000D02*
G75*
G03*
X225100000Y-61200000I1J3499999D01*
G01*
X190600000Y-26700000D02*
G75*
G03*
X187100000Y-30200000I-1J-3499999D01*
G01*
X190600000Y-26700000D02*
X221600000Y-26700000D01*
X187100000Y-30200000D02*
X187100000Y-30700000D01*
X187100000Y-61200000D02*
X187100000Y-59400000D01*
X187100000Y-31800000D02*
X187100000Y-30700000D01*
X225100000Y-30200000D02*
G75*
G03*
X221600000Y-26700000I-3499999J1D01*
G01*
X184099404Y-31800002D02*
G75*
G03*
X187100000Y-31800000I1500298J-298D01*
G01*
X187100596Y-59399998D02*
G75*
G03*
X184100000Y-59400000I-1500298J298D01*
G01*
D12*
X196678571Y-65220952D02*
X196678571Y-64820952D01*
X196830952Y-64820952D01*
X196869047Y-64840000D01*
X196888095Y-64859047D01*
X196907142Y-64897142D01*
X196907142Y-64954285D01*
X196888095Y-64992380D01*
X196869047Y-65011428D01*
X196830952Y-65030476D01*
X196678571Y-65030476D01*
X197307142Y-65182857D02*
X197288095Y-65201904D01*
X197230952Y-65220952D01*
X197192857Y-65220952D01*
X197135714Y-65201904D01*
X197097619Y-65163809D01*
X197078571Y-65125714D01*
X197059523Y-65049523D01*
X197059523Y-64992380D01*
X197078571Y-64916190D01*
X197097619Y-64878095D01*
X197135714Y-64840000D01*
X197192857Y-64820952D01*
X197230952Y-64820952D01*
X197288095Y-64840000D01*
X197307142Y-64859047D01*
X197611904Y-65011428D02*
X197669047Y-65030476D01*
X197688095Y-65049523D01*
X197707142Y-65087619D01*
X197707142Y-65144761D01*
X197688095Y-65182857D01*
X197669047Y-65201904D01*
X197630952Y-65220952D01*
X197478571Y-65220952D01*
X197478571Y-64820952D01*
X197611904Y-64820952D01*
X197650000Y-64840000D01*
X197669047Y-64859047D01*
X197688095Y-64897142D01*
X197688095Y-64935238D01*
X197669047Y-64973333D01*
X197650000Y-64992380D01*
X197611904Y-65011428D01*
X197478571Y-65011428D01*
X198183333Y-65011428D02*
X198316666Y-65011428D01*
X198373809Y-65220952D02*
X198183333Y-65220952D01*
X198183333Y-64820952D01*
X198373809Y-64820952D01*
X198716666Y-65220952D02*
X198716666Y-64820952D01*
X198716666Y-65201904D02*
X198678571Y-65220952D01*
X198602380Y-65220952D01*
X198564285Y-65201904D01*
X198545238Y-65182857D01*
X198526190Y-65144761D01*
X198526190Y-65030476D01*
X198545238Y-64992380D01*
X198564285Y-64973333D01*
X198602380Y-64954285D01*
X198678571Y-64954285D01*
X198716666Y-64973333D01*
X199078571Y-64954285D02*
X199078571Y-65278095D01*
X199059523Y-65316190D01*
X199040476Y-65335238D01*
X199002380Y-65354285D01*
X198945238Y-65354285D01*
X198907142Y-65335238D01*
X199078571Y-65201904D02*
X199040476Y-65220952D01*
X198964285Y-65220952D01*
X198926190Y-65201904D01*
X198907142Y-65182857D01*
X198888095Y-65144761D01*
X198888095Y-65030476D01*
X198907142Y-64992380D01*
X198926190Y-64973333D01*
X198964285Y-64954285D01*
X199040476Y-64954285D01*
X199078571Y-64973333D01*
X199421428Y-65201904D02*
X199383333Y-65220952D01*
X199307142Y-65220952D01*
X199269047Y-65201904D01*
X199250000Y-65163809D01*
X199250000Y-65011428D01*
X199269047Y-64973333D01*
X199307142Y-64954285D01*
X199383333Y-64954285D01*
X199421428Y-64973333D01*
X199440476Y-65011428D01*
X199440476Y-65049523D01*
X199250000Y-65087619D01*
D13*
X224750000Y-40670000D02*
G75*
G03*
X224750000Y-40670000I-1800000J0D01*
G01*
D14*
X203560000Y-43414000D02*
G75*
G03*
X203560000Y-43414000I-254000J0D01*
G01*
M02*
