%TF.GenerationSoftware,KiCad,Pcbnew,(6.0.1-0)*%
%TF.CreationDate,2022-02-22T17:31:55+01:00*%
%TF.ProjectId,ethersweep,65746865-7273-4776-9565-702e6b696361,2.0.1*%
%TF.SameCoordinates,Original*%
%TF.FileFunction,Other,Comment*%
%FSLAX46Y46*%
G04 Gerber Fmt 4.6, Leading zero omitted, Abs format (unit mm)*
G04 Created by KiCad (PCBNEW (6.0.1-0)) date 2022-02-22 17:31:55*
%MOMM*%
%LPD*%
G01*
G04 APERTURE LIST*
%TA.AperFunction,Profile*%
%ADD10C,0.150000*%
%TD*%
%ADD11C,0.020000*%
%ADD12C,0.150000*%
G04 APERTURE END LIST*
D10*
X184100000Y-31800000D02*
X184100000Y-30200000D01*
X184100000Y-60700000D02*
X184100000Y-59400000D01*
X180600000Y-26700000D02*
X149600000Y-26700000D01*
X149600000Y-26700000D02*
G75*
G03*
X146100000Y-30200000I-1J-3499999D01*
G01*
X184100000Y-30200000D02*
G75*
G03*
X180600000Y-26700000I-3499999J1D01*
G01*
X180600000Y-64700000D02*
G75*
G03*
X184100000Y-61200000I1J3499999D01*
G01*
X146100000Y-30200000D02*
X146100000Y-61200000D01*
X149600000Y-64700000D02*
X180600000Y-64700000D01*
X146100000Y-61200000D02*
G75*
G03*
X149600000Y-64700000I3499999J-1D01*
G01*
X184100000Y-61200000D02*
X184100000Y-60700000D01*
X225100000Y-61200000D02*
X225100000Y-30200000D01*
X190600000Y-64700000D02*
X221600000Y-64700000D01*
X187100000Y-61200000D02*
G75*
G03*
X190600000Y-64700000I3499999J-1D01*
G01*
X221600000Y-64700000D02*
G75*
G03*
X225100000Y-61200000I1J3499999D01*
G01*
X190600000Y-26700000D02*
G75*
G03*
X187100000Y-30200000I-1J-3499999D01*
G01*
X190600000Y-26700000D02*
X221600000Y-26700000D01*
X187100000Y-30200000D02*
X187100000Y-30700000D01*
X187100000Y-61200000D02*
X187100000Y-59400000D01*
X187100000Y-31800000D02*
X187100000Y-30700000D01*
X225100000Y-30200000D02*
G75*
G03*
X221600000Y-26700000I-3499999J1D01*
G01*
X184099404Y-31800002D02*
G75*
G03*
X187100000Y-31800000I1500298J-298D01*
G01*
X187100596Y-59399998D02*
G75*
G03*
X184100000Y-59400000I-1500298J298D01*
G01*
D11*
X221826357Y-41570000D02*
X221976357Y-41534285D01*
X221869214Y-41505714D01*
X221976357Y-41477142D01*
X221826357Y-41441428D01*
X221976357Y-41384285D02*
X221876357Y-41384285D01*
X221826357Y-41384285D02*
X221833500Y-41391428D01*
X221840642Y-41384285D01*
X221833500Y-41377142D01*
X221826357Y-41384285D01*
X221840642Y-41384285D01*
X221876357Y-41312857D02*
X222026357Y-41312857D01*
X221883500Y-41312857D02*
X221876357Y-41298571D01*
X221876357Y-41270000D01*
X221883500Y-41255714D01*
X221890642Y-41248571D01*
X221904928Y-41241428D01*
X221947785Y-41241428D01*
X221962071Y-41248571D01*
X221969214Y-41255714D01*
X221976357Y-41270000D01*
X221976357Y-41298571D01*
X221969214Y-41312857D01*
X221969214Y-41120000D02*
X221976357Y-41134285D01*
X221976357Y-41162857D01*
X221969214Y-41177142D01*
X221954928Y-41184285D01*
X221897785Y-41184285D01*
X221883500Y-41177142D01*
X221876357Y-41162857D01*
X221876357Y-41134285D01*
X221883500Y-41120000D01*
X221897785Y-41112857D01*
X221912071Y-41112857D01*
X221926357Y-41184285D01*
X221976357Y-41048571D02*
X221876357Y-41048571D01*
X221904928Y-41048571D02*
X221890642Y-41041428D01*
X221883500Y-41034285D01*
X221876357Y-41020000D01*
X221876357Y-41005714D01*
X221976357Y-40841428D02*
X221876357Y-40841428D01*
X221890642Y-40841428D02*
X221883500Y-40834285D01*
X221876357Y-40820000D01*
X221876357Y-40798571D01*
X221883500Y-40784285D01*
X221897785Y-40777142D01*
X221976357Y-40777142D01*
X221897785Y-40777142D02*
X221883500Y-40770000D01*
X221876357Y-40755714D01*
X221876357Y-40734285D01*
X221883500Y-40720000D01*
X221897785Y-40712857D01*
X221976357Y-40712857D01*
X221976357Y-40577142D02*
X221897785Y-40577142D01*
X221883500Y-40584285D01*
X221876357Y-40598571D01*
X221876357Y-40627142D01*
X221883500Y-40641428D01*
X221969214Y-40577142D02*
X221976357Y-40591428D01*
X221976357Y-40627142D01*
X221969214Y-40641428D01*
X221954928Y-40648571D01*
X221940642Y-40648571D01*
X221926357Y-40641428D01*
X221919214Y-40627142D01*
X221919214Y-40591428D01*
X221912071Y-40577142D01*
X221876357Y-40520000D02*
X221976357Y-40484285D01*
X221876357Y-40448571D02*
X221976357Y-40484285D01*
X222012071Y-40498571D01*
X222019214Y-40505714D01*
X222026357Y-40520000D01*
X221976357Y-40277142D02*
X221826357Y-40277142D01*
X221883500Y-40277142D02*
X221876357Y-40262857D01*
X221876357Y-40234285D01*
X221883500Y-40220000D01*
X221890642Y-40212857D01*
X221904928Y-40205714D01*
X221947785Y-40205714D01*
X221962071Y-40212857D01*
X221969214Y-40220000D01*
X221976357Y-40234285D01*
X221976357Y-40262857D01*
X221969214Y-40277142D01*
X221969214Y-40084285D02*
X221976357Y-40098571D01*
X221976357Y-40127142D01*
X221969214Y-40141428D01*
X221954928Y-40148571D01*
X221897785Y-40148571D01*
X221883500Y-40141428D01*
X221876357Y-40127142D01*
X221876357Y-40098571D01*
X221883500Y-40084285D01*
X221897785Y-40077142D01*
X221912071Y-40077142D01*
X221926357Y-40148571D01*
X222217857Y-41620000D02*
X222139285Y-41620000D01*
X222125000Y-41627142D01*
X222117857Y-41641428D01*
X222117857Y-41670000D01*
X222125000Y-41684285D01*
X222210714Y-41620000D02*
X222217857Y-41634285D01*
X222217857Y-41670000D01*
X222210714Y-41684285D01*
X222196428Y-41691428D01*
X222182142Y-41691428D01*
X222167857Y-41684285D01*
X222160714Y-41670000D01*
X222160714Y-41634285D01*
X222153571Y-41620000D01*
X222117857Y-41548571D02*
X222217857Y-41548571D01*
X222132142Y-41548571D02*
X222125000Y-41541428D01*
X222117857Y-41527142D01*
X222117857Y-41505714D01*
X222125000Y-41491428D01*
X222139285Y-41484285D01*
X222217857Y-41484285D01*
X222117857Y-41427142D02*
X222217857Y-41391428D01*
X222117857Y-41355714D02*
X222217857Y-41391428D01*
X222253571Y-41405714D01*
X222260714Y-41412857D01*
X222267857Y-41427142D01*
X222117857Y-41312857D02*
X222217857Y-41284285D01*
X222146428Y-41255714D01*
X222217857Y-41227142D01*
X222117857Y-41198571D01*
X222217857Y-41141428D02*
X222067857Y-41141428D01*
X222217857Y-41077142D02*
X222139285Y-41077142D01*
X222125000Y-41084285D01*
X222117857Y-41098571D01*
X222117857Y-41120000D01*
X222125000Y-41134285D01*
X222132142Y-41141428D01*
X222210714Y-40948571D02*
X222217857Y-40962857D01*
X222217857Y-40991428D01*
X222210714Y-41005714D01*
X222196428Y-41012857D01*
X222139285Y-41012857D01*
X222125000Y-41005714D01*
X222117857Y-40991428D01*
X222117857Y-40962857D01*
X222125000Y-40948571D01*
X222139285Y-40941428D01*
X222153571Y-40941428D01*
X222167857Y-41012857D01*
X222217857Y-40877142D02*
X222117857Y-40877142D01*
X222146428Y-40877142D02*
X222132142Y-40870000D01*
X222125000Y-40862857D01*
X222117857Y-40848571D01*
X222117857Y-40834285D01*
X222210714Y-40727142D02*
X222217857Y-40741428D01*
X222217857Y-40770000D01*
X222210714Y-40784285D01*
X222196428Y-40791428D01*
X222139285Y-40791428D01*
X222125000Y-40784285D01*
X222117857Y-40770000D01*
X222117857Y-40741428D01*
X222125000Y-40727142D01*
X222139285Y-40720000D01*
X222153571Y-40720000D01*
X222167857Y-40791428D01*
X222117857Y-40555714D02*
X222217857Y-40527142D01*
X222146428Y-40498571D01*
X222217857Y-40470000D01*
X222117857Y-40441428D01*
X222217857Y-40384285D02*
X222117857Y-40384285D01*
X222067857Y-40384285D02*
X222075000Y-40391428D01*
X222082142Y-40384285D01*
X222075000Y-40377142D01*
X222067857Y-40384285D01*
X222082142Y-40384285D01*
X222117857Y-40334285D02*
X222117857Y-40277142D01*
X222067857Y-40312857D02*
X222196428Y-40312857D01*
X222210714Y-40305714D01*
X222217857Y-40291428D01*
X222217857Y-40277142D01*
X222217857Y-40227142D02*
X222067857Y-40227142D01*
X222217857Y-40162857D02*
X222139285Y-40162857D01*
X222125000Y-40170000D01*
X222117857Y-40184285D01*
X222117857Y-40205714D01*
X222125000Y-40220000D01*
X222132142Y-40227142D01*
X222217857Y-40091428D02*
X222117857Y-40091428D01*
X222067857Y-40091428D02*
X222075000Y-40098571D01*
X222082142Y-40091428D01*
X222075000Y-40084285D01*
X222067857Y-40091428D01*
X222082142Y-40091428D01*
X222117857Y-40020000D02*
X222217857Y-40020000D01*
X222132142Y-40020000D02*
X222125000Y-40012857D01*
X222117857Y-39998571D01*
X222117857Y-39977142D01*
X222125000Y-39962857D01*
X222139285Y-39955714D01*
X222217857Y-39955714D01*
X222452214Y-41434285D02*
X222459357Y-41448571D01*
X222459357Y-41477142D01*
X222452214Y-41491428D01*
X222445071Y-41498571D01*
X222430785Y-41505714D01*
X222387928Y-41505714D01*
X222373642Y-41498571D01*
X222366500Y-41491428D01*
X222359357Y-41477142D01*
X222359357Y-41448571D01*
X222366500Y-41434285D01*
X222459357Y-41370000D02*
X222359357Y-41370000D01*
X222309357Y-41370000D02*
X222316500Y-41377142D01*
X222323642Y-41370000D01*
X222316500Y-41362857D01*
X222309357Y-41370000D01*
X222323642Y-41370000D01*
X222459357Y-41298571D02*
X222359357Y-41298571D01*
X222387928Y-41298571D02*
X222373642Y-41291428D01*
X222366500Y-41284285D01*
X222359357Y-41270000D01*
X222359357Y-41255714D01*
X222452214Y-41141428D02*
X222459357Y-41155714D01*
X222459357Y-41184285D01*
X222452214Y-41198571D01*
X222445071Y-41205714D01*
X222430785Y-41212857D01*
X222387928Y-41212857D01*
X222373642Y-41205714D01*
X222366500Y-41198571D01*
X222359357Y-41184285D01*
X222359357Y-41155714D01*
X222366500Y-41141428D01*
X222459357Y-41055714D02*
X222452214Y-41070000D01*
X222437928Y-41077142D01*
X222309357Y-41077142D01*
X222452214Y-40941428D02*
X222459357Y-40955714D01*
X222459357Y-40984285D01*
X222452214Y-40998571D01*
X222437928Y-41005714D01*
X222380785Y-41005714D01*
X222366500Y-40998571D01*
X222359357Y-40984285D01*
X222359357Y-40955714D01*
X222366500Y-40941428D01*
X222380785Y-40934285D01*
X222395071Y-40934285D01*
X222409357Y-41005714D01*
X222452214Y-40762857D02*
X222459357Y-40748571D01*
X222459357Y-40720000D01*
X222452214Y-40705714D01*
X222437928Y-40698571D01*
X222430785Y-40698571D01*
X222416500Y-40705714D01*
X222409357Y-40720000D01*
X222409357Y-40741428D01*
X222402214Y-40755714D01*
X222387928Y-40762857D01*
X222380785Y-40762857D01*
X222366500Y-40755714D01*
X222359357Y-40741428D01*
X222359357Y-40720000D01*
X222366500Y-40705714D01*
X222459357Y-40634285D02*
X222309357Y-40634285D01*
X222459357Y-40570000D02*
X222380785Y-40570000D01*
X222366500Y-40577142D01*
X222359357Y-40591428D01*
X222359357Y-40612857D01*
X222366500Y-40627142D01*
X222373642Y-40634285D01*
X222459357Y-40477142D02*
X222452214Y-40491428D01*
X222445071Y-40498571D01*
X222430785Y-40505714D01*
X222387928Y-40505714D01*
X222373642Y-40498571D01*
X222366500Y-40491428D01*
X222359357Y-40477142D01*
X222359357Y-40455714D01*
X222366500Y-40441428D01*
X222373642Y-40434285D01*
X222387928Y-40427142D01*
X222430785Y-40427142D01*
X222445071Y-40434285D01*
X222452214Y-40441428D01*
X222459357Y-40455714D01*
X222459357Y-40477142D01*
X222359357Y-40377142D02*
X222459357Y-40348571D01*
X222387928Y-40320000D01*
X222459357Y-40291428D01*
X222359357Y-40262857D01*
X222359357Y-40205714D02*
X222459357Y-40205714D01*
X222373642Y-40205714D02*
X222366500Y-40198571D01*
X222359357Y-40184285D01*
X222359357Y-40162857D01*
X222366500Y-40148571D01*
X222380785Y-40141428D01*
X222459357Y-40141428D01*
D12*
X183800000Y-30200000D02*
G75*
G03*
X183800000Y-30200000I-3200000J0D01*
G01*
X152800000Y-30200000D02*
G75*
G03*
X152800000Y-30200000I-3200000J0D01*
G01*
X152800000Y-61200000D02*
G75*
G03*
X152800000Y-61200000I-3200000J0D01*
G01*
X183800000Y-61200000D02*
G75*
G03*
X183800000Y-61200000I-3200000J0D01*
G01*
X193800000Y-30200000D02*
G75*
G03*
X193800000Y-30200000I-3200000J0D01*
G01*
X224800000Y-30200000D02*
G75*
G03*
X224800000Y-30200000I-3200000J0D01*
G01*
X193800000Y-61200000D02*
G75*
G03*
X193800000Y-61200000I-3200000J0D01*
G01*
X224800000Y-61175001D02*
G75*
G03*
X224800000Y-61175001I-3200000J0D01*
G01*
M02*
