%TF.GenerationSoftware,KiCad,Pcbnew,(6.0.1-0)*%
%TF.CreationDate,2022-02-22T17:31:54+01:00*%
%TF.ProjectId,ethersweep,65746865-7273-4776-9565-702e6b696361,2.0.1*%
%TF.SameCoordinates,Original*%
%TF.FileFunction,Paste,Bot*%
%TF.FilePolarity,Positive*%
%FSLAX46Y46*%
G04 Gerber Fmt 4.6, Leading zero omitted, Abs format (unit mm)*
G04 Created by KiCad (PCBNEW (6.0.1-0)) date 2022-02-22 17:31:54*
%MOMM*%
%LPD*%
G01*
G04 APERTURE LIST*
G04 Aperture macros list*
%AMRoundRect*
0 Rectangle with rounded corners*
0 $1 Rounding radius*
0 $2 $3 $4 $5 $6 $7 $8 $9 X,Y pos of 4 corners*
0 Add a 4 corners polygon primitive as box body*
4,1,4,$2,$3,$4,$5,$6,$7,$8,$9,$2,$3,0*
0 Add four circle primitives for the rounded corners*
1,1,$1+$1,$2,$3*
1,1,$1+$1,$4,$5*
1,1,$1+$1,$6,$7*
1,1,$1+$1,$8,$9*
0 Add four rect primitives between the rounded corners*
20,1,$1+$1,$2,$3,$4,$5,0*
20,1,$1+$1,$4,$5,$6,$7,0*
20,1,$1+$1,$6,$7,$8,$9,0*
20,1,$1+$1,$8,$9,$2,$3,0*%
G04 Aperture macros list end*
%TA.AperFunction,Profile*%
%ADD10C,0.150000*%
%TD*%
%ADD11RoundRect,0.200000X0.200000X0.800000X-0.200000X0.800000X-0.200000X-0.800000X0.200000X-0.800000X0*%
%ADD12R,0.600000X1.400000*%
G04 APERTURE END LIST*
D10*
X184100000Y-31800000D02*
X184100000Y-30200000D01*
X184100000Y-60700000D02*
X184100000Y-59400000D01*
X180600000Y-26700000D02*
X149600000Y-26700000D01*
X149600000Y-26700000D02*
G75*
G03*
X146100000Y-30200000I-1J-3499999D01*
G01*
X184100000Y-30200000D02*
G75*
G03*
X180600000Y-26700000I-3499999J1D01*
G01*
X180600000Y-64700000D02*
G75*
G03*
X184100000Y-61200000I1J3499999D01*
G01*
X146100000Y-30200000D02*
X146100000Y-61200000D01*
X149600000Y-64700000D02*
X180600000Y-64700000D01*
X146100000Y-61200000D02*
G75*
G03*
X149600000Y-64700000I3499999J-1D01*
G01*
X184100000Y-61200000D02*
X184100000Y-60700000D01*
X225100000Y-61200000D02*
X225100000Y-30200000D01*
X190600000Y-64700000D02*
X221600000Y-64700000D01*
X187100000Y-61200000D02*
G75*
G03*
X190600000Y-64700000I3499999J-1D01*
G01*
X221600000Y-64700000D02*
G75*
G03*
X225100000Y-61200000I1J3499999D01*
G01*
X190600000Y-26700000D02*
G75*
G03*
X187100000Y-30200000I-1J-3499999D01*
G01*
X190600000Y-26700000D02*
X221600000Y-26700000D01*
X187100000Y-30200000D02*
X187100000Y-30700000D01*
X187100000Y-61200000D02*
X187100000Y-59400000D01*
X187100000Y-31800000D02*
X187100000Y-30700000D01*
X225100000Y-30200000D02*
G75*
G03*
X221600000Y-26700000I-3499999J1D01*
G01*
X184099404Y-31800002D02*
G75*
G03*
X187100000Y-31800000I1500298J-298D01*
G01*
X187100596Y-59399998D02*
G75*
G03*
X184100000Y-59400000I-1500298J298D01*
G01*
D11*
X167250000Y-30250000D03*
X163050000Y-30250000D03*
D12*
X204195000Y-43000000D03*
X205465000Y-43000000D03*
X206735000Y-43000000D03*
X208005000Y-43000000D03*
X208005000Y-48400000D03*
X206735000Y-48400000D03*
X205465000Y-48400000D03*
X204195000Y-48400000D03*
M02*
