%TF.GenerationSoftware,KiCad,Pcbnew,(6.0.1-0)*%
%TF.CreationDate,2022-02-22T17:31:54+01:00*%
%TF.ProjectId,ethersweep,65746865-7273-4776-9565-702e6b696361,2.0.1*%
%TF.SameCoordinates,Original*%
%TF.FileFunction,Paste,Top*%
%TF.FilePolarity,Positive*%
%FSLAX46Y46*%
G04 Gerber Fmt 4.6, Leading zero omitted, Abs format (unit mm)*
G04 Created by KiCad (PCBNEW (6.0.1-0)) date 2022-02-22 17:31:54*
%MOMM*%
%LPD*%
G01*
G04 APERTURE LIST*
G04 Aperture macros list*
%AMRoundRect*
0 Rectangle with rounded corners*
0 $1 Rounding radius*
0 $2 $3 $4 $5 $6 $7 $8 $9 X,Y pos of 4 corners*
0 Add a 4 corners polygon primitive as box body*
4,1,4,$2,$3,$4,$5,$6,$7,$8,$9,$2,$3,0*
0 Add four circle primitives for the rounded corners*
1,1,$1+$1,$2,$3*
1,1,$1+$1,$4,$5*
1,1,$1+$1,$6,$7*
1,1,$1+$1,$8,$9*
0 Add four rect primitives between the rounded corners*
20,1,$1+$1,$2,$3,$4,$5,0*
20,1,$1+$1,$4,$5,$6,$7,0*
20,1,$1+$1,$6,$7,$8,$9,0*
20,1,$1+$1,$8,$9,$2,$3,0*%
G04 Aperture macros list end*
%TA.AperFunction,Profile*%
%ADD10C,0.150000*%
%TD*%
%ADD11RoundRect,0.140000X-0.140000X-0.170000X0.140000X-0.170000X0.140000X0.170000X-0.140000X0.170000X0*%
%ADD12RoundRect,0.140000X-0.170000X0.140000X-0.170000X-0.140000X0.170000X-0.140000X0.170000X0.140000X0*%
%ADD13RoundRect,0.250000X0.475000X-0.250000X0.475000X0.250000X-0.475000X0.250000X-0.475000X-0.250000X0*%
%ADD14RoundRect,0.218750X-0.218750X-0.381250X0.218750X-0.381250X0.218750X0.381250X-0.218750X0.381250X0*%
%ADD15RoundRect,0.200000X0.200000X0.275000X-0.200000X0.275000X-0.200000X-0.275000X0.200000X-0.275000X0*%
%ADD16R,1.400000X1.200000*%
%ADD17RoundRect,0.075000X0.075000X-0.662500X0.075000X0.662500X-0.075000X0.662500X-0.075000X-0.662500X0*%
%ADD18RoundRect,0.075000X0.662500X-0.075000X0.662500X0.075000X-0.662500X0.075000X-0.662500X-0.075000X0*%
%ADD19RoundRect,0.225000X-0.225000X-0.250000X0.225000X-0.250000X0.225000X0.250000X-0.225000X0.250000X0*%
%ADD20RoundRect,0.140000X0.170000X-0.140000X0.170000X0.140000X-0.170000X0.140000X-0.170000X-0.140000X0*%
%ADD21RoundRect,0.200000X0.275000X-0.200000X0.275000X0.200000X-0.275000X0.200000X-0.275000X-0.200000X0*%
%ADD22RoundRect,0.250000X0.250000X0.475000X-0.250000X0.475000X-0.250000X-0.475000X0.250000X-0.475000X0*%
%ADD23RoundRect,0.249998X0.450002X-0.262502X0.450002X0.262502X-0.450002X0.262502X-0.450002X-0.262502X0*%
%ADD24RoundRect,0.225000X-0.250000X0.225000X-0.250000X-0.225000X0.250000X-0.225000X0.250000X0.225000X0*%
%ADD25RoundRect,0.225000X0.225000X0.250000X-0.225000X0.250000X-0.225000X-0.250000X0.225000X-0.250000X0*%
%ADD26RoundRect,0.249999X0.325001X0.650001X-0.325001X0.650001X-0.325001X-0.650001X0.325001X-0.650001X0*%
%ADD27RoundRect,0.225000X0.250000X-0.225000X0.250000X0.225000X-0.250000X0.225000X-0.250000X-0.225000X0*%
%ADD28RoundRect,0.249999X-0.325001X-0.650001X0.325001X-0.650001X0.325001X0.650001X-0.325001X0.650001X0*%
%ADD29RoundRect,0.250000X-0.250000X-0.475000X0.250000X-0.475000X0.250000X0.475000X-0.250000X0.475000X0*%
%ADD30RoundRect,0.200000X-0.200000X-0.275000X0.200000X-0.275000X0.200000X0.275000X-0.200000X0.275000X0*%
%ADD31R,0.550000X1.600000*%
%ADD32R,1.600000X0.550000*%
%ADD33R,2.000000X2.400000*%
%ADD34RoundRect,0.200000X-0.275000X0.200000X-0.275000X-0.200000X0.275000X-0.200000X0.275000X0.200000X0*%
%ADD35RoundRect,0.218750X-0.256250X0.218750X-0.256250X-0.218750X0.256250X-0.218750X0.256250X0.218750X0*%
%ADD36RoundRect,0.250000X-0.455000X-0.455000X0.455000X-0.455000X0.455000X0.455000X-0.455000X0.455000X0*%
%ADD37RoundRect,0.062500X-0.425000X-0.062500X0.425000X-0.062500X0.425000X0.062500X-0.425000X0.062500X0*%
%ADD38RoundRect,0.062500X-0.062500X-0.425000X0.062500X-0.425000X0.062500X0.425000X-0.062500X0.425000X0*%
%ADD39RoundRect,0.249997X-0.312503X-0.625003X0.312503X-0.625003X0.312503X0.625003X-0.312503X0.625003X0*%
%ADD40RoundRect,0.218750X0.218750X0.256250X-0.218750X0.256250X-0.218750X-0.256250X0.218750X-0.256250X0*%
%ADD41RoundRect,0.250000X-0.475000X0.250000X-0.475000X-0.250000X0.475000X-0.250000X0.475000X0.250000X0*%
%ADD42RoundRect,0.225000X0.225000X-0.225000X0.225000X0.225000X-0.225000X0.225000X-0.225000X-0.225000X0*%
%ADD43RoundRect,0.062500X0.062500X-0.337500X0.062500X0.337500X-0.062500X0.337500X-0.062500X-0.337500X0*%
%ADD44RoundRect,0.062500X0.337500X-0.062500X0.337500X0.062500X-0.337500X0.062500X-0.337500X-0.062500X0*%
%ADD45R,0.450000X1.380000*%
%ADD46R,1.000000X1.900000*%
%ADD47R,1.425000X1.550000*%
%ADD48R,1.650000X1.300000*%
%ADD49R,1.800000X1.900000*%
%ADD50RoundRect,0.249997X0.312503X0.625003X-0.312503X0.625003X-0.312503X-0.625003X0.312503X-0.625003X0*%
%ADD51R,1.200000X1.200000*%
%ADD52R,1.600000X1.500000*%
G04 APERTURE END LIST*
D10*
X184100000Y-31800000D02*
X184100000Y-30200000D01*
X184100000Y-60700000D02*
X184100000Y-59400000D01*
X180600000Y-26700000D02*
X149600000Y-26700000D01*
X149600000Y-26700000D02*
G75*
G03*
X146100000Y-30200000I-1J-3499999D01*
G01*
X184100000Y-30200000D02*
G75*
G03*
X180600000Y-26700000I-3499999J1D01*
G01*
X180600000Y-64700000D02*
G75*
G03*
X184100000Y-61200000I1J3499999D01*
G01*
X146100000Y-30200000D02*
X146100000Y-61200000D01*
X149600000Y-64700000D02*
X180600000Y-64700000D01*
X146100000Y-61200000D02*
G75*
G03*
X149600000Y-64700000I3499999J-1D01*
G01*
X184100000Y-61200000D02*
X184100000Y-60700000D01*
X225100000Y-61200000D02*
X225100000Y-30200000D01*
X190600000Y-64700000D02*
X221600000Y-64700000D01*
X187100000Y-61200000D02*
G75*
G03*
X190600000Y-64700000I3499999J-1D01*
G01*
X221600000Y-64700000D02*
G75*
G03*
X225100000Y-61200000I1J3499999D01*
G01*
X190600000Y-26700000D02*
G75*
G03*
X187100000Y-30200000I-1J-3499999D01*
G01*
X190600000Y-26700000D02*
X221600000Y-26700000D01*
X187100000Y-30200000D02*
X187100000Y-30700000D01*
X187100000Y-61200000D02*
X187100000Y-59400000D01*
X187100000Y-31800000D02*
X187100000Y-30700000D01*
X225100000Y-30200000D02*
G75*
G03*
X221600000Y-26700000I-3499999J1D01*
G01*
X184099404Y-31800002D02*
G75*
G03*
X187100000Y-31800000I1500298J-298D01*
G01*
X187100596Y-59399998D02*
G75*
G03*
X184100000Y-59400000I-1500298J298D01*
G01*
D11*
X157720000Y-44300000D03*
X158680000Y-44300000D03*
D12*
X150500000Y-42320000D03*
X150500000Y-43280000D03*
D13*
X160300000Y-34450000D03*
X160300000Y-32550000D03*
D14*
X149137500Y-54000000D03*
X151262500Y-54000000D03*
D15*
X177625000Y-56400000D03*
X175975000Y-56400000D03*
D16*
X155300000Y-30350000D03*
X157500000Y-30350000D03*
X157500000Y-28650000D03*
X155300000Y-28650000D03*
D11*
X160640000Y-37550000D03*
X161600000Y-37550000D03*
D17*
X152150000Y-42662500D03*
X152650000Y-42662500D03*
X153150000Y-42662500D03*
X153650000Y-42662500D03*
X154150000Y-42662500D03*
X154650000Y-42662500D03*
X155150000Y-42662500D03*
X155650000Y-42662500D03*
X156150000Y-42662500D03*
X156650000Y-42662500D03*
X157150000Y-42662500D03*
X157650000Y-42662500D03*
D18*
X159062500Y-41250000D03*
X159062500Y-40750000D03*
X159062500Y-40250000D03*
X159062500Y-39750000D03*
X159062500Y-39250000D03*
X159062500Y-38750000D03*
X159062500Y-38250000D03*
X159062500Y-37750000D03*
X159062500Y-37250000D03*
X159062500Y-36750000D03*
X159062500Y-36250000D03*
X159062500Y-35750000D03*
D17*
X157650000Y-34337500D03*
X157150000Y-34337500D03*
X156650000Y-34337500D03*
X156150000Y-34337500D03*
X155650000Y-34337500D03*
X155150000Y-34337500D03*
X154650000Y-34337500D03*
X154150000Y-34337500D03*
X153650000Y-34337500D03*
X153150000Y-34337500D03*
X152650000Y-34337500D03*
X152150000Y-34337500D03*
D18*
X150737500Y-35750000D03*
X150737500Y-36250000D03*
X150737500Y-36750000D03*
X150737500Y-37250000D03*
X150737500Y-37750000D03*
X150737500Y-38250000D03*
X150737500Y-38750000D03*
X150737500Y-39250000D03*
X150737500Y-39750000D03*
X150737500Y-40250000D03*
X150737500Y-40750000D03*
X150737500Y-41250000D03*
D19*
X160925000Y-36250000D03*
X162475000Y-36250000D03*
D15*
X177625000Y-54800000D03*
X175975000Y-54800000D03*
D20*
X153700000Y-30280000D03*
X153700000Y-29320000D03*
X159100000Y-30280000D03*
X159100000Y-29320000D03*
D21*
X169600000Y-31625000D03*
X169600000Y-29975000D03*
D22*
X148950000Y-37200000D03*
X147050000Y-37200000D03*
D20*
X158700000Y-34080000D03*
X158700000Y-33120000D03*
D11*
X161520000Y-39900000D03*
X162480000Y-39900000D03*
X160620000Y-38900000D03*
X161580000Y-38900000D03*
D21*
X156200000Y-50375000D03*
X156200000Y-48725000D03*
D23*
X156200000Y-47162500D03*
X156200000Y-45337500D03*
X154300000Y-47162500D03*
X154300000Y-45337500D03*
X152400000Y-47162500D03*
X152400000Y-45337500D03*
X150500000Y-47162500D03*
X150500000Y-45337500D03*
D24*
X158000000Y-48775000D03*
X158000000Y-50325000D03*
D11*
X160620000Y-41000000D03*
X161580000Y-41000000D03*
D25*
X162575000Y-44600000D03*
X161025000Y-44600000D03*
X162575000Y-46200000D03*
X161025000Y-46200000D03*
D22*
X148950000Y-39200000D03*
X147050000Y-39200000D03*
D26*
X170075000Y-56200000D03*
X167125000Y-56200000D03*
D27*
X160000000Y-49575000D03*
X160000000Y-48025000D03*
D28*
X218175000Y-53270000D03*
X221125000Y-53270000D03*
D29*
X218100000Y-55570000D03*
X220000000Y-55570000D03*
D15*
X204875000Y-45150000D03*
X203225000Y-45150000D03*
D30*
X203225000Y-43550000D03*
X204875000Y-43550000D03*
D31*
X192300000Y-49450000D03*
X193100000Y-49450000D03*
X193900000Y-49450000D03*
X194700000Y-49450000D03*
X195500000Y-49450000D03*
X196300000Y-49450000D03*
X197100000Y-49450000D03*
X197900000Y-49450000D03*
D32*
X199350000Y-48000000D03*
X199350000Y-47200000D03*
X199350000Y-46400000D03*
X199350000Y-45600000D03*
X199350000Y-44800000D03*
X199350000Y-44000000D03*
X199350000Y-43200000D03*
X199350000Y-42400000D03*
D31*
X197900000Y-40950000D03*
X197100000Y-40950000D03*
X196300000Y-40950000D03*
X195500000Y-40950000D03*
X194700000Y-40950000D03*
X193900000Y-40950000D03*
X193100000Y-40950000D03*
X192300000Y-40950000D03*
D32*
X190850000Y-42400000D03*
X190850000Y-43200000D03*
X190850000Y-44000000D03*
X190850000Y-44800000D03*
X190850000Y-45600000D03*
X190850000Y-46400000D03*
X190850000Y-47200000D03*
X190850000Y-48000000D03*
D13*
X209650000Y-46770000D03*
X209650000Y-44870000D03*
D20*
X191500000Y-53380000D03*
X191500000Y-52420000D03*
D29*
X196900000Y-38700000D03*
X198800000Y-38700000D03*
D12*
X199100000Y-52420000D03*
X199100000Y-53380000D03*
D33*
X197150000Y-52800000D03*
X193450000Y-52800000D03*
D21*
X190400000Y-39725000D03*
X190400000Y-38075000D03*
X188400000Y-39725000D03*
X188400000Y-38075000D03*
D34*
X206450000Y-45045000D03*
X206450000Y-46695000D03*
X188350000Y-42875000D03*
X188350000Y-44525000D03*
D35*
X188120000Y-55432500D03*
X188120000Y-57007500D03*
D36*
X215960000Y-39980000D03*
X217580000Y-39980000D03*
X217580000Y-38360000D03*
X215960000Y-38360000D03*
D37*
X214407500Y-37670000D03*
X214407500Y-38170000D03*
X214407500Y-38670000D03*
X214407500Y-39170000D03*
X214407500Y-39670000D03*
X214407500Y-40170000D03*
X214407500Y-40670000D03*
D38*
X215270000Y-41532500D03*
X215770000Y-41532500D03*
X216270000Y-41532500D03*
X216770000Y-41532500D03*
X217270000Y-41532500D03*
X217770000Y-41532500D03*
X218270000Y-41532500D03*
D37*
X219132500Y-40670000D03*
X219132500Y-40170000D03*
X219132500Y-39670000D03*
X219132500Y-39170000D03*
X219132500Y-38670000D03*
X219132500Y-38170000D03*
X219132500Y-37670000D03*
D38*
X218270000Y-36807500D03*
X217770000Y-36807500D03*
X217270000Y-36807500D03*
X216770000Y-36807500D03*
X216270000Y-36807500D03*
X215770000Y-36807500D03*
X215270000Y-36807500D03*
D39*
X218787500Y-34670000D03*
X221712500Y-34670000D03*
D22*
X215150000Y-44770000D03*
X213250000Y-44770000D03*
D13*
X208750000Y-41420000D03*
X208750000Y-39520000D03*
D34*
X189450000Y-51645000D03*
X189450000Y-53295000D03*
D23*
X161800000Y-49712500D03*
X161800000Y-47887500D03*
D15*
X155825000Y-32200000D03*
X154175000Y-32200000D03*
X161425000Y-42600000D03*
X159775000Y-42600000D03*
D21*
X150200000Y-50325000D03*
X150200000Y-48675000D03*
X152600000Y-50325000D03*
X152600000Y-48675000D03*
X154300000Y-50375000D03*
X154300000Y-48725000D03*
D40*
X167437500Y-27970000D03*
X165862500Y-27970000D03*
D21*
X164150000Y-32995000D03*
X164150000Y-31345000D03*
X162450000Y-32970000D03*
X162450000Y-31320000D03*
D40*
X167437500Y-29770000D03*
X165862500Y-29770000D03*
D29*
X203300000Y-41720000D03*
X205200000Y-41720000D03*
D41*
X203550000Y-58920000D03*
X203550000Y-60820000D03*
X205650000Y-58520000D03*
X205650000Y-60420000D03*
D29*
X196750000Y-57070000D03*
X198650000Y-57070000D03*
D42*
X202430000Y-52200000D03*
X204670000Y-52200000D03*
X203550000Y-54440000D03*
X204670000Y-53320000D03*
X203550000Y-53320000D03*
X202430000Y-54440000D03*
X203550000Y-52200000D03*
X204670000Y-54440000D03*
X202430000Y-53320000D03*
D43*
X202050000Y-55770000D03*
X202550000Y-55770000D03*
X203050000Y-55770000D03*
X203550000Y-55770000D03*
X204050000Y-55770000D03*
X204550000Y-55770000D03*
X205050000Y-55770000D03*
D44*
X206000000Y-54820000D03*
X206000000Y-54320000D03*
X206000000Y-53820000D03*
X206000000Y-53320000D03*
X206000000Y-52820000D03*
X206000000Y-52320000D03*
X206000000Y-51820000D03*
D43*
X205050000Y-50870000D03*
X204550000Y-50870000D03*
X204050000Y-50870000D03*
X203550000Y-50870000D03*
X203050000Y-50870000D03*
X202550000Y-50870000D03*
X202050000Y-50870000D03*
D44*
X201100000Y-51820000D03*
X201100000Y-52320000D03*
X201100000Y-52820000D03*
X201100000Y-53320000D03*
X201100000Y-53820000D03*
X201100000Y-54320000D03*
X201100000Y-54820000D03*
D13*
X209350000Y-36120000D03*
X209350000Y-34220000D03*
D29*
X222180000Y-36970000D03*
X224080000Y-36970000D03*
D35*
X224150000Y-55382500D03*
X224150000Y-56957500D03*
D45*
X196750000Y-60910000D03*
X197400000Y-60910000D03*
X198050000Y-60910000D03*
X198700000Y-60910000D03*
X199350000Y-60910000D03*
D46*
X199600000Y-63570000D03*
D47*
X195562500Y-60995000D03*
D48*
X194675000Y-63570000D03*
D47*
X200537500Y-60995000D03*
D49*
X196900000Y-63570000D03*
D48*
X201425000Y-63570000D03*
D50*
X214712500Y-34670000D03*
X211787500Y-34670000D03*
D41*
X210750000Y-39520000D03*
X210750000Y-41420000D03*
D51*
X221950000Y-42470000D03*
D52*
X222950000Y-39220000D03*
D51*
X223950000Y-42470000D03*
D34*
X222550000Y-55345000D03*
X222550000Y-56995000D03*
M02*
