%TF.GenerationSoftware,KiCad,Pcbnew,(6.0.1-0)*%
%TF.CreationDate,2022-02-22T17:31:54+01:00*%
%TF.ProjectId,ethersweep,65746865-7273-4776-9565-702e6b696361,2.0.1*%
%TF.SameCoordinates,Original*%
%TF.FileFunction,Legend,Top*%
%TF.FilePolarity,Positive*%
%FSLAX46Y46*%
G04 Gerber Fmt 4.6, Leading zero omitted, Abs format (unit mm)*
G04 Created by KiCad (PCBNEW (6.0.1-0)) date 2022-02-22 17:31:54*
%MOMM*%
%LPD*%
G01*
G04 APERTURE LIST*
%ADD10C,0.150000*%
%TA.AperFunction,Profile*%
%ADD11C,0.150000*%
%TD*%
%ADD12C,0.250000*%
%ADD13C,0.125000*%
%ADD14C,0.120000*%
%ADD15C,0.127000*%
%ADD16C,0.300000*%
G04 APERTURE END LIST*
D10*
X212350000Y-34820000D02*
X221150000Y-34820000D01*
X212350000Y-43620000D02*
X212350000Y-34820000D01*
X221150000Y-34820000D02*
X221150000Y-43620000D01*
X221150000Y-43620000D02*
X212350000Y-43620000D01*
D11*
X184100000Y-31800000D02*
X184100000Y-30200000D01*
X184100000Y-60700000D02*
X184100000Y-59400000D01*
X180600000Y-26700000D02*
X149600000Y-26700000D01*
X149600000Y-26700000D02*
G75*
G03*
X146100000Y-30200000I-1J-3499999D01*
G01*
X184100000Y-30200000D02*
G75*
G03*
X180600000Y-26700000I-3499999J1D01*
G01*
X180600000Y-64700000D02*
G75*
G03*
X184100000Y-61200000I1J3499999D01*
G01*
X146100000Y-30200000D02*
X146100000Y-61200000D01*
X149600000Y-64700000D02*
X180600000Y-64700000D01*
X146100000Y-61200000D02*
G75*
G03*
X149600000Y-64700000I3499999J-1D01*
G01*
X184100000Y-61200000D02*
X184100000Y-60700000D01*
X225100000Y-61200000D02*
X225100000Y-30200000D01*
X190600000Y-64700000D02*
X221600000Y-64700000D01*
X187100000Y-61200000D02*
G75*
G03*
X190600000Y-64700000I3499999J-1D01*
G01*
X221600000Y-64700000D02*
G75*
G03*
X225100000Y-61200000I1J3499999D01*
G01*
X190600000Y-26700000D02*
G75*
G03*
X187100000Y-30200000I-1J-3499999D01*
G01*
X190600000Y-26700000D02*
X221600000Y-26700000D01*
X187100000Y-30200000D02*
X187100000Y-30700000D01*
X187100000Y-61200000D02*
X187100000Y-59400000D01*
X187100000Y-31800000D02*
X187100000Y-30700000D01*
X225100000Y-30200000D02*
G75*
G03*
X221600000Y-26700000I-3499999J1D01*
G01*
X184099404Y-31800002D02*
G75*
G03*
X187100000Y-31800000I1500298J-298D01*
G01*
X187100596Y-59399998D02*
G75*
G03*
X184100000Y-59400000I-1500298J298D01*
G01*
D12*
X160633333Y-28452380D02*
X160633333Y-27452380D01*
X160871428Y-27452380D01*
X161014285Y-27500000D01*
X161109523Y-27595238D01*
X161157142Y-27690476D01*
X161204761Y-27880952D01*
X161204761Y-28023809D01*
X161157142Y-28214285D01*
X161109523Y-28309523D01*
X161014285Y-28404761D01*
X160871428Y-28452380D01*
X160633333Y-28452380D01*
X161633333Y-27452380D02*
X161633333Y-28261904D01*
X161680952Y-28357142D01*
X161728571Y-28404761D01*
X161823809Y-28452380D01*
X162014285Y-28452380D01*
X162109523Y-28404761D01*
X162157142Y-28357142D01*
X162204761Y-28261904D01*
X162204761Y-27452380D01*
X162680952Y-28452380D02*
X162680952Y-27452380D01*
X163061904Y-27452380D01*
X163157142Y-27500000D01*
X163204761Y-27547619D01*
X163252380Y-27642857D01*
X163252380Y-27785714D01*
X163204761Y-27880952D01*
X163157142Y-27928571D01*
X163061904Y-27976190D01*
X162680952Y-27976190D01*
X164157142Y-28452380D02*
X163680952Y-28452380D01*
X163680952Y-27452380D01*
X164395238Y-27452380D02*
X165061904Y-28452380D01*
X165061904Y-27452380D02*
X164395238Y-28452380D01*
X160609523Y-30204761D02*
X160752380Y-30252380D01*
X160990476Y-30252380D01*
X161085714Y-30204761D01*
X161133333Y-30157142D01*
X161180952Y-30061904D01*
X161180952Y-29966666D01*
X161133333Y-29871428D01*
X161085714Y-29823809D01*
X160990476Y-29776190D01*
X160800000Y-29728571D01*
X160704761Y-29680952D01*
X160657142Y-29633333D01*
X160609523Y-29538095D01*
X160609523Y-29442857D01*
X160657142Y-29347619D01*
X160704761Y-29300000D01*
X160800000Y-29252380D01*
X161038095Y-29252380D01*
X161180952Y-29300000D01*
X161609523Y-30252380D02*
X161609523Y-29252380D01*
X161990476Y-29252380D01*
X162085714Y-29300000D01*
X162133333Y-29347619D01*
X162180952Y-29442857D01*
X162180952Y-29585714D01*
X162133333Y-29680952D01*
X162085714Y-29728571D01*
X161990476Y-29776190D01*
X161609523Y-29776190D01*
X162609523Y-29728571D02*
X162942857Y-29728571D01*
X163085714Y-30252380D02*
X162609523Y-30252380D01*
X162609523Y-29252380D01*
X163085714Y-29252380D01*
X163514285Y-29728571D02*
X163847619Y-29728571D01*
X163990476Y-30252380D02*
X163514285Y-30252380D01*
X163514285Y-29252380D01*
X163990476Y-29252380D01*
X164419047Y-30252380D02*
X164419047Y-29252380D01*
X164657142Y-29252380D01*
X164800000Y-29300000D01*
X164895238Y-29395238D01*
X164942857Y-29490476D01*
X164990476Y-29680952D01*
X164990476Y-29823809D01*
X164942857Y-30014285D01*
X164895238Y-30109523D01*
X164800000Y-30204761D01*
X164657142Y-30252380D01*
X164419047Y-30252380D01*
D13*
X157878571Y-45378571D02*
X157854761Y-45402380D01*
X157783333Y-45426190D01*
X157735714Y-45426190D01*
X157664285Y-45402380D01*
X157616666Y-45354761D01*
X157592857Y-45307142D01*
X157569047Y-45211904D01*
X157569047Y-45140476D01*
X157592857Y-45045238D01*
X157616666Y-44997619D01*
X157664285Y-44950000D01*
X157735714Y-44926190D01*
X157783333Y-44926190D01*
X157854761Y-44950000D01*
X157878571Y-44973809D01*
X158354761Y-45426190D02*
X158069047Y-45426190D01*
X158211904Y-45426190D02*
X158211904Y-44926190D01*
X158164285Y-44997619D01*
X158116666Y-45045238D01*
X158069047Y-45069047D01*
X158521428Y-44926190D02*
X158854761Y-44926190D01*
X158640476Y-45426190D01*
X149828571Y-43121428D02*
X149852380Y-43145238D01*
X149876190Y-43216666D01*
X149876190Y-43264285D01*
X149852380Y-43335714D01*
X149804761Y-43383333D01*
X149757142Y-43407142D01*
X149661904Y-43430952D01*
X149590476Y-43430952D01*
X149495238Y-43407142D01*
X149447619Y-43383333D01*
X149400000Y-43335714D01*
X149376190Y-43264285D01*
X149376190Y-43216666D01*
X149400000Y-43145238D01*
X149423809Y-43121428D01*
X149423809Y-42930952D02*
X149400000Y-42907142D01*
X149376190Y-42859523D01*
X149376190Y-42740476D01*
X149400000Y-42692857D01*
X149423809Y-42669047D01*
X149471428Y-42645238D01*
X149519047Y-42645238D01*
X149590476Y-42669047D01*
X149876190Y-42954761D01*
X149876190Y-42645238D01*
X149542857Y-42216666D02*
X149876190Y-42216666D01*
X149352380Y-42335714D02*
X149709523Y-42454761D01*
X149709523Y-42145238D01*
X159878571Y-31578571D02*
X159854761Y-31602380D01*
X159783333Y-31626190D01*
X159735714Y-31626190D01*
X159664285Y-31602380D01*
X159616666Y-31554761D01*
X159592857Y-31507142D01*
X159569047Y-31411904D01*
X159569047Y-31340476D01*
X159592857Y-31245238D01*
X159616666Y-31197619D01*
X159664285Y-31150000D01*
X159735714Y-31126190D01*
X159783333Y-31126190D01*
X159854761Y-31150000D01*
X159878571Y-31173809D01*
X160069047Y-31173809D02*
X160092857Y-31150000D01*
X160140476Y-31126190D01*
X160259523Y-31126190D01*
X160307142Y-31150000D01*
X160330952Y-31173809D01*
X160354761Y-31221428D01*
X160354761Y-31269047D01*
X160330952Y-31340476D01*
X160045238Y-31626190D01*
X160354761Y-31626190D01*
X160783333Y-31126190D02*
X160688095Y-31126190D01*
X160640476Y-31150000D01*
X160616666Y-31173809D01*
X160569047Y-31245238D01*
X160545238Y-31340476D01*
X160545238Y-31530952D01*
X160569047Y-31578571D01*
X160592857Y-31602380D01*
X160640476Y-31626190D01*
X160735714Y-31626190D01*
X160783333Y-31602380D01*
X160807142Y-31578571D01*
X160830952Y-31530952D01*
X160830952Y-31411904D01*
X160807142Y-31364285D01*
X160783333Y-31340476D01*
X160735714Y-31316666D01*
X160640476Y-31316666D01*
X160592857Y-31340476D01*
X160569047Y-31364285D01*
X160545238Y-31411904D01*
X151166666Y-55526190D02*
X150928571Y-55526190D01*
X150928571Y-55026190D01*
X151595238Y-55526190D02*
X151309523Y-55526190D01*
X151452380Y-55526190D02*
X151452380Y-55026190D01*
X151404761Y-55097619D01*
X151357142Y-55145238D01*
X151309523Y-55169047D01*
X164395238Y-38126190D02*
X164395238Y-38483333D01*
X164371428Y-38554761D01*
X164323809Y-38602380D01*
X164252380Y-38626190D01*
X164204761Y-38626190D01*
X164895238Y-38626190D02*
X164609523Y-38626190D01*
X164752380Y-38626190D02*
X164752380Y-38126190D01*
X164704761Y-38197619D01*
X164657142Y-38245238D01*
X164609523Y-38269047D01*
X165204761Y-38126190D02*
X165252380Y-38126190D01*
X165300000Y-38150000D01*
X165323809Y-38173809D01*
X165347619Y-38221428D01*
X165371428Y-38316666D01*
X165371428Y-38435714D01*
X165347619Y-38530952D01*
X165323809Y-38578571D01*
X165300000Y-38602380D01*
X165252380Y-38626190D01*
X165204761Y-38626190D01*
X165157142Y-38602380D01*
X165133333Y-38578571D01*
X165109523Y-38530952D01*
X165085714Y-38435714D01*
X165085714Y-38316666D01*
X165109523Y-38221428D01*
X165133333Y-38173809D01*
X165157142Y-38150000D01*
X165204761Y-38126190D01*
X178628571Y-55026190D02*
X178461904Y-54788095D01*
X178342857Y-55026190D02*
X178342857Y-54526190D01*
X178533333Y-54526190D01*
X178580952Y-54550000D01*
X178604761Y-54573809D01*
X178628571Y-54621428D01*
X178628571Y-54692857D01*
X178604761Y-54740476D01*
X178580952Y-54764285D01*
X178533333Y-54788095D01*
X178342857Y-54788095D01*
X179104761Y-55026190D02*
X178819047Y-55026190D01*
X178961904Y-55026190D02*
X178961904Y-54526190D01*
X178914285Y-54597619D01*
X178866666Y-54645238D01*
X178819047Y-54669047D01*
X179342857Y-55026190D02*
X179438095Y-55026190D01*
X179485714Y-55002380D01*
X179509523Y-54978571D01*
X179557142Y-54907142D01*
X179580952Y-54811904D01*
X179580952Y-54621428D01*
X179557142Y-54573809D01*
X179533333Y-54550000D01*
X179485714Y-54526190D01*
X179390476Y-54526190D01*
X179342857Y-54550000D01*
X179319047Y-54573809D01*
X179295238Y-54621428D01*
X179295238Y-54740476D01*
X179319047Y-54788095D01*
X179342857Y-54811904D01*
X179390476Y-54835714D01*
X179485714Y-54835714D01*
X179533333Y-54811904D01*
X179557142Y-54788095D01*
X179580952Y-54740476D01*
X157661904Y-27438095D02*
X157661904Y-27676190D01*
X157495238Y-27176190D02*
X157661904Y-27438095D01*
X157828571Y-27176190D01*
X157971428Y-27223809D02*
X157995238Y-27200000D01*
X158042857Y-27176190D01*
X158161904Y-27176190D01*
X158209523Y-27200000D01*
X158233333Y-27223809D01*
X158257142Y-27271428D01*
X158257142Y-27319047D01*
X158233333Y-27390476D01*
X157947619Y-27676190D01*
X158257142Y-27676190D01*
X162178571Y-35328571D02*
X162154761Y-35352380D01*
X162083333Y-35376190D01*
X162035714Y-35376190D01*
X161964285Y-35352380D01*
X161916666Y-35304761D01*
X161892857Y-35257142D01*
X161869047Y-35161904D01*
X161869047Y-35090476D01*
X161892857Y-34995238D01*
X161916666Y-34947619D01*
X161964285Y-34900000D01*
X162035714Y-34876190D01*
X162083333Y-34876190D01*
X162154761Y-34900000D01*
X162178571Y-34923809D01*
X162345238Y-34876190D02*
X162654761Y-34876190D01*
X162488095Y-35066666D01*
X162559523Y-35066666D01*
X162607142Y-35090476D01*
X162630952Y-35114285D01*
X162654761Y-35161904D01*
X162654761Y-35280952D01*
X162630952Y-35328571D01*
X162607142Y-35352380D01*
X162559523Y-35376190D01*
X162416666Y-35376190D01*
X162369047Y-35352380D01*
X162345238Y-35328571D01*
X163083333Y-34876190D02*
X162988095Y-34876190D01*
X162940476Y-34900000D01*
X162916666Y-34923809D01*
X162869047Y-34995238D01*
X162845238Y-35090476D01*
X162845238Y-35280952D01*
X162869047Y-35328571D01*
X162892857Y-35352380D01*
X162940476Y-35376190D01*
X163035714Y-35376190D01*
X163083333Y-35352380D01*
X163107142Y-35328571D01*
X163130952Y-35280952D01*
X163130952Y-35161904D01*
X163107142Y-35114285D01*
X163083333Y-35090476D01*
X163035714Y-35066666D01*
X162940476Y-35066666D01*
X162892857Y-35090476D01*
X162869047Y-35114285D01*
X162845238Y-35161904D01*
X149919047Y-34776190D02*
X149919047Y-35180952D01*
X149942857Y-35228571D01*
X149966666Y-35252380D01*
X150014285Y-35276190D01*
X150109523Y-35276190D01*
X150157142Y-35252380D01*
X150180952Y-35228571D01*
X150204761Y-35180952D01*
X150204761Y-34776190D01*
X150657142Y-34776190D02*
X150561904Y-34776190D01*
X150514285Y-34800000D01*
X150490476Y-34823809D01*
X150442857Y-34895238D01*
X150419047Y-34990476D01*
X150419047Y-35180952D01*
X150442857Y-35228571D01*
X150466666Y-35252380D01*
X150514285Y-35276190D01*
X150609523Y-35276190D01*
X150657142Y-35252380D01*
X150680952Y-35228571D01*
X150704761Y-35180952D01*
X150704761Y-35061904D01*
X150680952Y-35014285D01*
X150657142Y-34990476D01*
X150609523Y-34966666D01*
X150514285Y-34966666D01*
X150466666Y-34990476D01*
X150442857Y-35014285D01*
X150419047Y-35061904D01*
X162478571Y-37778571D02*
X162454761Y-37802380D01*
X162383333Y-37826190D01*
X162335714Y-37826190D01*
X162264285Y-37802380D01*
X162216666Y-37754761D01*
X162192857Y-37707142D01*
X162169047Y-37611904D01*
X162169047Y-37540476D01*
X162192857Y-37445238D01*
X162216666Y-37397619D01*
X162264285Y-37350000D01*
X162335714Y-37326190D01*
X162383333Y-37326190D01*
X162454761Y-37350000D01*
X162478571Y-37373809D01*
X162645238Y-37326190D02*
X162954761Y-37326190D01*
X162788095Y-37516666D01*
X162859523Y-37516666D01*
X162907142Y-37540476D01*
X162930952Y-37564285D01*
X162954761Y-37611904D01*
X162954761Y-37730952D01*
X162930952Y-37778571D01*
X162907142Y-37802380D01*
X162859523Y-37826190D01*
X162716666Y-37826190D01*
X162669047Y-37802380D01*
X162645238Y-37778571D01*
X163407142Y-37326190D02*
X163169047Y-37326190D01*
X163145238Y-37564285D01*
X163169047Y-37540476D01*
X163216666Y-37516666D01*
X163335714Y-37516666D01*
X163383333Y-37540476D01*
X163407142Y-37564285D01*
X163430952Y-37611904D01*
X163430952Y-37730952D01*
X163407142Y-37778571D01*
X163383333Y-37802380D01*
X163335714Y-37826190D01*
X163216666Y-37826190D01*
X163169047Y-37802380D01*
X163145238Y-37778571D01*
X178728571Y-56576190D02*
X178561904Y-56338095D01*
X178442857Y-56576190D02*
X178442857Y-56076190D01*
X178633333Y-56076190D01*
X178680952Y-56100000D01*
X178704761Y-56123809D01*
X178728571Y-56171428D01*
X178728571Y-56242857D01*
X178704761Y-56290476D01*
X178680952Y-56314285D01*
X178633333Y-56338095D01*
X178442857Y-56338095D01*
X178919047Y-56123809D02*
X178942857Y-56100000D01*
X178990476Y-56076190D01*
X179109523Y-56076190D01*
X179157142Y-56100000D01*
X179180952Y-56123809D01*
X179204761Y-56171428D01*
X179204761Y-56219047D01*
X179180952Y-56290476D01*
X178895238Y-56576190D01*
X179204761Y-56576190D01*
X179514285Y-56076190D02*
X179561904Y-56076190D01*
X179609523Y-56100000D01*
X179633333Y-56123809D01*
X179657142Y-56171428D01*
X179680952Y-56266666D01*
X179680952Y-56385714D01*
X179657142Y-56480952D01*
X179633333Y-56528571D01*
X179609523Y-56552380D01*
X179561904Y-56576190D01*
X179514285Y-56576190D01*
X179466666Y-56552380D01*
X179442857Y-56528571D01*
X179419047Y-56480952D01*
X179395238Y-56385714D01*
X179395238Y-56266666D01*
X179419047Y-56171428D01*
X179442857Y-56123809D01*
X179466666Y-56100000D01*
X179514285Y-56076190D01*
X153878571Y-28471428D02*
X153902380Y-28495238D01*
X153926190Y-28566666D01*
X153926190Y-28614285D01*
X153902380Y-28685714D01*
X153854761Y-28733333D01*
X153807142Y-28757142D01*
X153711904Y-28780952D01*
X153640476Y-28780952D01*
X153545238Y-28757142D01*
X153497619Y-28733333D01*
X153450000Y-28685714D01*
X153426190Y-28614285D01*
X153426190Y-28566666D01*
X153450000Y-28495238D01*
X153473809Y-28471428D01*
X153426190Y-28304761D02*
X153426190Y-27995238D01*
X153616666Y-28161904D01*
X153616666Y-28090476D01*
X153640476Y-28042857D01*
X153664285Y-28019047D01*
X153711904Y-27995238D01*
X153830952Y-27995238D01*
X153878571Y-28019047D01*
X153902380Y-28042857D01*
X153926190Y-28090476D01*
X153926190Y-28233333D01*
X153902380Y-28280952D01*
X153878571Y-28304761D01*
X153592857Y-27566666D02*
X153926190Y-27566666D01*
X153402380Y-27685714D02*
X153759523Y-27804761D01*
X153759523Y-27495238D01*
X159278571Y-28421428D02*
X159302380Y-28445238D01*
X159326190Y-28516666D01*
X159326190Y-28564285D01*
X159302380Y-28635714D01*
X159254761Y-28683333D01*
X159207142Y-28707142D01*
X159111904Y-28730952D01*
X159040476Y-28730952D01*
X158945238Y-28707142D01*
X158897619Y-28683333D01*
X158850000Y-28635714D01*
X158826190Y-28564285D01*
X158826190Y-28516666D01*
X158850000Y-28445238D01*
X158873809Y-28421428D01*
X158826190Y-28254761D02*
X158826190Y-27945238D01*
X159016666Y-28111904D01*
X159016666Y-28040476D01*
X159040476Y-27992857D01*
X159064285Y-27969047D01*
X159111904Y-27945238D01*
X159230952Y-27945238D01*
X159278571Y-27969047D01*
X159302380Y-27992857D01*
X159326190Y-28040476D01*
X159326190Y-28183333D01*
X159302380Y-28230952D01*
X159278571Y-28254761D01*
X158826190Y-27778571D02*
X158826190Y-27469047D01*
X159016666Y-27635714D01*
X159016666Y-27564285D01*
X159040476Y-27516666D01*
X159064285Y-27492857D01*
X159111904Y-27469047D01*
X159230952Y-27469047D01*
X159278571Y-27492857D01*
X159302380Y-27516666D01*
X159326190Y-27564285D01*
X159326190Y-27707142D01*
X159302380Y-27754761D01*
X159278571Y-27778571D01*
X157233333Y-57926190D02*
X157233333Y-58283333D01*
X157209523Y-58354761D01*
X157161904Y-58402380D01*
X157090476Y-58426190D01*
X157042857Y-58426190D01*
X157709523Y-57926190D02*
X157471428Y-57926190D01*
X157447619Y-58164285D01*
X157471428Y-58140476D01*
X157519047Y-58116666D01*
X157638095Y-58116666D01*
X157685714Y-58140476D01*
X157709523Y-58164285D01*
X157733333Y-58211904D01*
X157733333Y-58330952D01*
X157709523Y-58378571D01*
X157685714Y-58402380D01*
X157638095Y-58426190D01*
X157519047Y-58426190D01*
X157471428Y-58402380D01*
X157447619Y-58378571D01*
X165233333Y-57926190D02*
X165233333Y-58283333D01*
X165209523Y-58354761D01*
X165161904Y-58402380D01*
X165090476Y-58426190D01*
X165042857Y-58426190D01*
X165685714Y-58092857D02*
X165685714Y-58426190D01*
X165566666Y-57902380D02*
X165447619Y-58259523D01*
X165757142Y-58259523D01*
X169826190Y-28833333D02*
X169588095Y-29000000D01*
X169826190Y-29119047D02*
X169326190Y-29119047D01*
X169326190Y-28928571D01*
X169350000Y-28880952D01*
X169373809Y-28857142D01*
X169421428Y-28833333D01*
X169492857Y-28833333D01*
X169540476Y-28857142D01*
X169564285Y-28880952D01*
X169588095Y-28928571D01*
X169588095Y-29119047D01*
X169326190Y-28666666D02*
X169326190Y-28357142D01*
X169516666Y-28523809D01*
X169516666Y-28452380D01*
X169540476Y-28404761D01*
X169564285Y-28380952D01*
X169611904Y-28357142D01*
X169730952Y-28357142D01*
X169778571Y-28380952D01*
X169802380Y-28404761D01*
X169826190Y-28452380D01*
X169826190Y-28595238D01*
X169802380Y-28642857D01*
X169778571Y-28666666D01*
X146878571Y-36078571D02*
X146854761Y-36102380D01*
X146783333Y-36126190D01*
X146735714Y-36126190D01*
X146664285Y-36102380D01*
X146616666Y-36054761D01*
X146592857Y-36007142D01*
X146569047Y-35911904D01*
X146569047Y-35840476D01*
X146592857Y-35745238D01*
X146616666Y-35697619D01*
X146664285Y-35650000D01*
X146735714Y-35626190D01*
X146783333Y-35626190D01*
X146854761Y-35650000D01*
X146878571Y-35673809D01*
X147045238Y-35626190D02*
X147354761Y-35626190D01*
X147188095Y-35816666D01*
X147259523Y-35816666D01*
X147307142Y-35840476D01*
X147330952Y-35864285D01*
X147354761Y-35911904D01*
X147354761Y-36030952D01*
X147330952Y-36078571D01*
X147307142Y-36102380D01*
X147259523Y-36126190D01*
X147116666Y-36126190D01*
X147069047Y-36102380D01*
X147045238Y-36078571D01*
X147664285Y-35626190D02*
X147711904Y-35626190D01*
X147759523Y-35650000D01*
X147783333Y-35673809D01*
X147807142Y-35721428D01*
X147830952Y-35816666D01*
X147830952Y-35935714D01*
X147807142Y-36030952D01*
X147783333Y-36078571D01*
X147759523Y-36102380D01*
X147711904Y-36126190D01*
X147664285Y-36126190D01*
X147616666Y-36102380D01*
X147592857Y-36078571D01*
X147569047Y-36030952D01*
X147545238Y-35935714D01*
X147545238Y-35816666D01*
X147569047Y-35721428D01*
X147592857Y-35673809D01*
X147616666Y-35650000D01*
X147664285Y-35626190D01*
X158928571Y-32271428D02*
X158952380Y-32295238D01*
X158976190Y-32366666D01*
X158976190Y-32414285D01*
X158952380Y-32485714D01*
X158904761Y-32533333D01*
X158857142Y-32557142D01*
X158761904Y-32580952D01*
X158690476Y-32580952D01*
X158595238Y-32557142D01*
X158547619Y-32533333D01*
X158500000Y-32485714D01*
X158476190Y-32414285D01*
X158476190Y-32366666D01*
X158500000Y-32295238D01*
X158523809Y-32271428D01*
X158976190Y-31795238D02*
X158976190Y-32080952D01*
X158976190Y-31938095D02*
X158476190Y-31938095D01*
X158547619Y-31985714D01*
X158595238Y-32033333D01*
X158619047Y-32080952D01*
X158476190Y-31366666D02*
X158476190Y-31461904D01*
X158500000Y-31509523D01*
X158523809Y-31533333D01*
X158595238Y-31580952D01*
X158690476Y-31604761D01*
X158880952Y-31604761D01*
X158928571Y-31580952D01*
X158952380Y-31557142D01*
X158976190Y-31509523D01*
X158976190Y-31414285D01*
X158952380Y-31366666D01*
X158928571Y-31342857D01*
X158880952Y-31319047D01*
X158761904Y-31319047D01*
X158714285Y-31342857D01*
X158690476Y-31366666D01*
X158666666Y-31414285D01*
X158666666Y-31509523D01*
X158690476Y-31557142D01*
X158714285Y-31580952D01*
X158761904Y-31604761D01*
X160278571Y-40178571D02*
X160254761Y-40202380D01*
X160183333Y-40226190D01*
X160135714Y-40226190D01*
X160064285Y-40202380D01*
X160016666Y-40154761D01*
X159992857Y-40107142D01*
X159969047Y-40011904D01*
X159969047Y-39940476D01*
X159992857Y-39845238D01*
X160016666Y-39797619D01*
X160064285Y-39750000D01*
X160135714Y-39726190D01*
X160183333Y-39726190D01*
X160254761Y-39750000D01*
X160278571Y-39773809D01*
X160754761Y-40226190D02*
X160469047Y-40226190D01*
X160611904Y-40226190D02*
X160611904Y-39726190D01*
X160564285Y-39797619D01*
X160516666Y-39845238D01*
X160469047Y-39869047D01*
X161207142Y-39726190D02*
X160969047Y-39726190D01*
X160945238Y-39964285D01*
X160969047Y-39940476D01*
X161016666Y-39916666D01*
X161135714Y-39916666D01*
X161183333Y-39940476D01*
X161207142Y-39964285D01*
X161230952Y-40011904D01*
X161230952Y-40130952D01*
X161207142Y-40178571D01*
X161183333Y-40202380D01*
X161135714Y-40226190D01*
X161016666Y-40226190D01*
X160969047Y-40202380D01*
X160945238Y-40178571D01*
X162478571Y-39078571D02*
X162454761Y-39102380D01*
X162383333Y-39126190D01*
X162335714Y-39126190D01*
X162264285Y-39102380D01*
X162216666Y-39054761D01*
X162192857Y-39007142D01*
X162169047Y-38911904D01*
X162169047Y-38840476D01*
X162192857Y-38745238D01*
X162216666Y-38697619D01*
X162264285Y-38650000D01*
X162335714Y-38626190D01*
X162383333Y-38626190D01*
X162454761Y-38650000D01*
X162478571Y-38673809D01*
X162954761Y-39126190D02*
X162669047Y-39126190D01*
X162811904Y-39126190D02*
X162811904Y-38626190D01*
X162764285Y-38697619D01*
X162716666Y-38745238D01*
X162669047Y-38769047D01*
X163383333Y-38792857D02*
X163383333Y-39126190D01*
X163264285Y-38602380D02*
X163145238Y-38959523D01*
X163454761Y-38959523D01*
X155828571Y-51676190D02*
X155661904Y-51438095D01*
X155542857Y-51676190D02*
X155542857Y-51176190D01*
X155733333Y-51176190D01*
X155780952Y-51200000D01*
X155804761Y-51223809D01*
X155828571Y-51271428D01*
X155828571Y-51342857D01*
X155804761Y-51390476D01*
X155780952Y-51414285D01*
X155733333Y-51438095D01*
X155542857Y-51438095D01*
X156019047Y-51223809D02*
X156042857Y-51200000D01*
X156090476Y-51176190D01*
X156209523Y-51176190D01*
X156257142Y-51200000D01*
X156280952Y-51223809D01*
X156304761Y-51271428D01*
X156304761Y-51319047D01*
X156280952Y-51390476D01*
X155995238Y-51676190D01*
X156304761Y-51676190D01*
X156471428Y-51176190D02*
X156780952Y-51176190D01*
X156614285Y-51366666D01*
X156685714Y-51366666D01*
X156733333Y-51390476D01*
X156757142Y-51414285D01*
X156780952Y-51461904D01*
X156780952Y-51580952D01*
X156757142Y-51628571D01*
X156733333Y-51652380D01*
X156685714Y-51676190D01*
X156542857Y-51676190D01*
X156495238Y-51652380D01*
X156471428Y-51628571D01*
X156166666Y-44476190D02*
X156000000Y-44238095D01*
X155880952Y-44476190D02*
X155880952Y-43976190D01*
X156071428Y-43976190D01*
X156119047Y-44000000D01*
X156142857Y-44023809D01*
X156166666Y-44071428D01*
X156166666Y-44142857D01*
X156142857Y-44190476D01*
X156119047Y-44214285D01*
X156071428Y-44238095D01*
X155880952Y-44238095D01*
X156333333Y-43976190D02*
X156666666Y-43976190D01*
X156452380Y-44476190D01*
X154266666Y-44476190D02*
X154100000Y-44238095D01*
X153980952Y-44476190D02*
X153980952Y-43976190D01*
X154171428Y-43976190D01*
X154219047Y-44000000D01*
X154242857Y-44023809D01*
X154266666Y-44071428D01*
X154266666Y-44142857D01*
X154242857Y-44190476D01*
X154219047Y-44214285D01*
X154171428Y-44238095D01*
X153980952Y-44238095D01*
X154695238Y-43976190D02*
X154600000Y-43976190D01*
X154552380Y-44000000D01*
X154528571Y-44023809D01*
X154480952Y-44095238D01*
X154457142Y-44190476D01*
X154457142Y-44380952D01*
X154480952Y-44428571D01*
X154504761Y-44452380D01*
X154552380Y-44476190D01*
X154647619Y-44476190D01*
X154695238Y-44452380D01*
X154719047Y-44428571D01*
X154742857Y-44380952D01*
X154742857Y-44261904D01*
X154719047Y-44214285D01*
X154695238Y-44190476D01*
X154647619Y-44166666D01*
X154552380Y-44166666D01*
X154504761Y-44190476D01*
X154480952Y-44214285D01*
X154457142Y-44261904D01*
X152416666Y-44476190D02*
X152250000Y-44238095D01*
X152130952Y-44476190D02*
X152130952Y-43976190D01*
X152321428Y-43976190D01*
X152369047Y-44000000D01*
X152392857Y-44023809D01*
X152416666Y-44071428D01*
X152416666Y-44142857D01*
X152392857Y-44190476D01*
X152369047Y-44214285D01*
X152321428Y-44238095D01*
X152130952Y-44238095D01*
X152869047Y-43976190D02*
X152630952Y-43976190D01*
X152607142Y-44214285D01*
X152630952Y-44190476D01*
X152678571Y-44166666D01*
X152797619Y-44166666D01*
X152845238Y-44190476D01*
X152869047Y-44214285D01*
X152892857Y-44261904D01*
X152892857Y-44380952D01*
X152869047Y-44428571D01*
X152845238Y-44452380D01*
X152797619Y-44476190D01*
X152678571Y-44476190D01*
X152630952Y-44452380D01*
X152607142Y-44428571D01*
X150516666Y-44476190D02*
X150350000Y-44238095D01*
X150230952Y-44476190D02*
X150230952Y-43976190D01*
X150421428Y-43976190D01*
X150469047Y-44000000D01*
X150492857Y-44023809D01*
X150516666Y-44071428D01*
X150516666Y-44142857D01*
X150492857Y-44190476D01*
X150469047Y-44214285D01*
X150421428Y-44238095D01*
X150230952Y-44238095D01*
X150945238Y-44142857D02*
X150945238Y-44476190D01*
X150826190Y-43952380D02*
X150707142Y-44309523D01*
X151016666Y-44309523D01*
X157916666Y-51628571D02*
X157892857Y-51652380D01*
X157821428Y-51676190D01*
X157773809Y-51676190D01*
X157702380Y-51652380D01*
X157654761Y-51604761D01*
X157630952Y-51557142D01*
X157607142Y-51461904D01*
X157607142Y-51390476D01*
X157630952Y-51295238D01*
X157654761Y-51247619D01*
X157702380Y-51200000D01*
X157773809Y-51176190D01*
X157821428Y-51176190D01*
X157892857Y-51200000D01*
X157916666Y-51223809D01*
X158369047Y-51176190D02*
X158130952Y-51176190D01*
X158107142Y-51414285D01*
X158130952Y-51390476D01*
X158178571Y-51366666D01*
X158297619Y-51366666D01*
X158345238Y-51390476D01*
X158369047Y-51414285D01*
X158392857Y-51461904D01*
X158392857Y-51580952D01*
X158369047Y-51628571D01*
X158345238Y-51652380D01*
X158297619Y-51676190D01*
X158178571Y-51676190D01*
X158130952Y-51652380D01*
X158107142Y-51628571D01*
X162478571Y-41178571D02*
X162454761Y-41202380D01*
X162383333Y-41226190D01*
X162335714Y-41226190D01*
X162264285Y-41202380D01*
X162216666Y-41154761D01*
X162192857Y-41107142D01*
X162169047Y-41011904D01*
X162169047Y-40940476D01*
X162192857Y-40845238D01*
X162216666Y-40797619D01*
X162264285Y-40750000D01*
X162335714Y-40726190D01*
X162383333Y-40726190D01*
X162454761Y-40750000D01*
X162478571Y-40773809D01*
X162669047Y-40773809D02*
X162692857Y-40750000D01*
X162740476Y-40726190D01*
X162859523Y-40726190D01*
X162907142Y-40750000D01*
X162930952Y-40773809D01*
X162954761Y-40821428D01*
X162954761Y-40869047D01*
X162930952Y-40940476D01*
X162645238Y-41226190D01*
X162954761Y-41226190D01*
X163407142Y-40726190D02*
X163169047Y-40726190D01*
X163145238Y-40964285D01*
X163169047Y-40940476D01*
X163216666Y-40916666D01*
X163335714Y-40916666D01*
X163383333Y-40940476D01*
X163407142Y-40964285D01*
X163430952Y-41011904D01*
X163430952Y-41130952D01*
X163407142Y-41178571D01*
X163383333Y-41202380D01*
X163335714Y-41226190D01*
X163216666Y-41226190D01*
X163169047Y-41202380D01*
X163145238Y-41178571D01*
X159716666Y-44978571D02*
X159692857Y-45002380D01*
X159621428Y-45026190D01*
X159573809Y-45026190D01*
X159502380Y-45002380D01*
X159454761Y-44954761D01*
X159430952Y-44907142D01*
X159407142Y-44811904D01*
X159407142Y-44740476D01*
X159430952Y-44645238D01*
X159454761Y-44597619D01*
X159502380Y-44550000D01*
X159573809Y-44526190D01*
X159621428Y-44526190D01*
X159692857Y-44550000D01*
X159716666Y-44573809D01*
X159883333Y-44526190D02*
X160216666Y-44526190D01*
X160002380Y-45026190D01*
X159278571Y-46578571D02*
X159254761Y-46602380D01*
X159183333Y-46626190D01*
X159135714Y-46626190D01*
X159064285Y-46602380D01*
X159016666Y-46554761D01*
X158992857Y-46507142D01*
X158969047Y-46411904D01*
X158969047Y-46340476D01*
X158992857Y-46245238D01*
X159016666Y-46197619D01*
X159064285Y-46150000D01*
X159135714Y-46126190D01*
X159183333Y-46126190D01*
X159254761Y-46150000D01*
X159278571Y-46173809D01*
X159754761Y-46626190D02*
X159469047Y-46626190D01*
X159611904Y-46626190D02*
X159611904Y-46126190D01*
X159564285Y-46197619D01*
X159516666Y-46245238D01*
X159469047Y-46269047D01*
X159921428Y-46126190D02*
X160230952Y-46126190D01*
X160064285Y-46316666D01*
X160135714Y-46316666D01*
X160183333Y-46340476D01*
X160207142Y-46364285D01*
X160230952Y-46411904D01*
X160230952Y-46530952D01*
X160207142Y-46578571D01*
X160183333Y-46602380D01*
X160135714Y-46626190D01*
X159992857Y-46626190D01*
X159945238Y-46602380D01*
X159921428Y-46578571D01*
X146878571Y-40778571D02*
X146854761Y-40802380D01*
X146783333Y-40826190D01*
X146735714Y-40826190D01*
X146664285Y-40802380D01*
X146616666Y-40754761D01*
X146592857Y-40707142D01*
X146569047Y-40611904D01*
X146569047Y-40540476D01*
X146592857Y-40445238D01*
X146616666Y-40397619D01*
X146664285Y-40350000D01*
X146735714Y-40326190D01*
X146783333Y-40326190D01*
X146854761Y-40350000D01*
X146878571Y-40373809D01*
X147069047Y-40373809D02*
X147092857Y-40350000D01*
X147140476Y-40326190D01*
X147259523Y-40326190D01*
X147307142Y-40350000D01*
X147330952Y-40373809D01*
X147354761Y-40421428D01*
X147354761Y-40469047D01*
X147330952Y-40540476D01*
X147045238Y-40826190D01*
X147354761Y-40826190D01*
X147592857Y-40826190D02*
X147688095Y-40826190D01*
X147735714Y-40802380D01*
X147759523Y-40778571D01*
X147807142Y-40707142D01*
X147830952Y-40611904D01*
X147830952Y-40421428D01*
X147807142Y-40373809D01*
X147783333Y-40350000D01*
X147735714Y-40326190D01*
X147640476Y-40326190D01*
X147592857Y-40350000D01*
X147569047Y-40373809D01*
X147545238Y-40421428D01*
X147545238Y-40540476D01*
X147569047Y-40588095D01*
X147592857Y-40611904D01*
X147640476Y-40635714D01*
X147735714Y-40635714D01*
X147783333Y-40611904D01*
X147807142Y-40588095D01*
X147830952Y-40540476D01*
X171366666Y-56348571D02*
X171342857Y-56372380D01*
X171271428Y-56396190D01*
X171223809Y-56396190D01*
X171152380Y-56372380D01*
X171104761Y-56324761D01*
X171080952Y-56277142D01*
X171057142Y-56181904D01*
X171057142Y-56110476D01*
X171080952Y-56015238D01*
X171104761Y-55967619D01*
X171152380Y-55920000D01*
X171223809Y-55896190D01*
X171271428Y-55896190D01*
X171342857Y-55920000D01*
X171366666Y-55943809D01*
X171533333Y-55896190D02*
X171842857Y-55896190D01*
X171676190Y-56086666D01*
X171747619Y-56086666D01*
X171795238Y-56110476D01*
X171819047Y-56134285D01*
X171842857Y-56181904D01*
X171842857Y-56300952D01*
X171819047Y-56348571D01*
X171795238Y-56372380D01*
X171747619Y-56396190D01*
X171604761Y-56396190D01*
X171557142Y-56372380D01*
X171533333Y-56348571D01*
X159966666Y-50848571D02*
X159942857Y-50872380D01*
X159871428Y-50896190D01*
X159823809Y-50896190D01*
X159752380Y-50872380D01*
X159704761Y-50824761D01*
X159680952Y-50777142D01*
X159657142Y-50681904D01*
X159657142Y-50610476D01*
X159680952Y-50515238D01*
X159704761Y-50467619D01*
X159752380Y-50420000D01*
X159823809Y-50396190D01*
X159871428Y-50396190D01*
X159942857Y-50420000D01*
X159966666Y-50443809D01*
X160395238Y-50562857D02*
X160395238Y-50896190D01*
X160276190Y-50372380D02*
X160157142Y-50729523D01*
X160466666Y-50729523D01*
X221166666Y-51848571D02*
X221142857Y-51872380D01*
X221071428Y-51896190D01*
X221023809Y-51896190D01*
X220952380Y-51872380D01*
X220904761Y-51824761D01*
X220880952Y-51777142D01*
X220857142Y-51681904D01*
X220857142Y-51610476D01*
X220880952Y-51515238D01*
X220904761Y-51467619D01*
X220952380Y-51420000D01*
X221023809Y-51396190D01*
X221071428Y-51396190D01*
X221142857Y-51420000D01*
X221166666Y-51443809D01*
X221357142Y-51443809D02*
X221380952Y-51420000D01*
X221428571Y-51396190D01*
X221547619Y-51396190D01*
X221595238Y-51420000D01*
X221619047Y-51443809D01*
X221642857Y-51491428D01*
X221642857Y-51539047D01*
X221619047Y-51610476D01*
X221333333Y-51896190D01*
X221642857Y-51896190D01*
X221166666Y-55548571D02*
X221142857Y-55572380D01*
X221071428Y-55596190D01*
X221023809Y-55596190D01*
X220952380Y-55572380D01*
X220904761Y-55524761D01*
X220880952Y-55477142D01*
X220857142Y-55381904D01*
X220857142Y-55310476D01*
X220880952Y-55215238D01*
X220904761Y-55167619D01*
X220952380Y-55120000D01*
X221023809Y-55096190D01*
X221071428Y-55096190D01*
X221142857Y-55120000D01*
X221166666Y-55143809D01*
X221595238Y-55096190D02*
X221500000Y-55096190D01*
X221452380Y-55120000D01*
X221428571Y-55143809D01*
X221380952Y-55215238D01*
X221357142Y-55310476D01*
X221357142Y-55500952D01*
X221380952Y-55548571D01*
X221404761Y-55572380D01*
X221452380Y-55596190D01*
X221547619Y-55596190D01*
X221595238Y-55572380D01*
X221619047Y-55548571D01*
X221642857Y-55500952D01*
X221642857Y-55381904D01*
X221619047Y-55334285D01*
X221595238Y-55310476D01*
X221547619Y-55286666D01*
X221452380Y-55286666D01*
X221404761Y-55310476D01*
X221380952Y-55334285D01*
X221357142Y-55381904D01*
X201628571Y-45376190D02*
X201461904Y-45138095D01*
X201342857Y-45376190D02*
X201342857Y-44876190D01*
X201533333Y-44876190D01*
X201580952Y-44900000D01*
X201604761Y-44923809D01*
X201628571Y-44971428D01*
X201628571Y-45042857D01*
X201604761Y-45090476D01*
X201580952Y-45114285D01*
X201533333Y-45138095D01*
X201342857Y-45138095D01*
X202104761Y-45376190D02*
X201819047Y-45376190D01*
X201961904Y-45376190D02*
X201961904Y-44876190D01*
X201914285Y-44947619D01*
X201866666Y-44995238D01*
X201819047Y-45019047D01*
X202533333Y-44876190D02*
X202438095Y-44876190D01*
X202390476Y-44900000D01*
X202366666Y-44923809D01*
X202319047Y-44995238D01*
X202295238Y-45090476D01*
X202295238Y-45280952D01*
X202319047Y-45328571D01*
X202342857Y-45352380D01*
X202390476Y-45376190D01*
X202485714Y-45376190D01*
X202533333Y-45352380D01*
X202557142Y-45328571D01*
X202580952Y-45280952D01*
X202580952Y-45161904D01*
X202557142Y-45114285D01*
X202533333Y-45090476D01*
X202485714Y-45066666D01*
X202390476Y-45066666D01*
X202342857Y-45090476D01*
X202319047Y-45114285D01*
X202295238Y-45161904D01*
X201628571Y-43896190D02*
X201461904Y-43658095D01*
X201342857Y-43896190D02*
X201342857Y-43396190D01*
X201533333Y-43396190D01*
X201580952Y-43420000D01*
X201604761Y-43443809D01*
X201628571Y-43491428D01*
X201628571Y-43562857D01*
X201604761Y-43610476D01*
X201580952Y-43634285D01*
X201533333Y-43658095D01*
X201342857Y-43658095D01*
X202104761Y-43896190D02*
X201819047Y-43896190D01*
X201961904Y-43896190D02*
X201961904Y-43396190D01*
X201914285Y-43467619D01*
X201866666Y-43515238D01*
X201819047Y-43539047D01*
X202271428Y-43396190D02*
X202604761Y-43396190D01*
X202390476Y-43896190D01*
X198819047Y-40826190D02*
X198819047Y-41230952D01*
X198842857Y-41278571D01*
X198866666Y-41302380D01*
X198914285Y-41326190D01*
X199009523Y-41326190D01*
X199057142Y-41302380D01*
X199080952Y-41278571D01*
X199104761Y-41230952D01*
X199104761Y-40826190D01*
X199319047Y-40873809D02*
X199342857Y-40850000D01*
X199390476Y-40826190D01*
X199509523Y-40826190D01*
X199557142Y-40850000D01*
X199580952Y-40873809D01*
X199604761Y-40921428D01*
X199604761Y-40969047D01*
X199580952Y-41040476D01*
X199295238Y-41326190D01*
X199604761Y-41326190D01*
X209328571Y-43848571D02*
X209304761Y-43872380D01*
X209233333Y-43896190D01*
X209185714Y-43896190D01*
X209114285Y-43872380D01*
X209066666Y-43824761D01*
X209042857Y-43777142D01*
X209019047Y-43681904D01*
X209019047Y-43610476D01*
X209042857Y-43515238D01*
X209066666Y-43467619D01*
X209114285Y-43420000D01*
X209185714Y-43396190D01*
X209233333Y-43396190D01*
X209304761Y-43420000D01*
X209328571Y-43443809D01*
X209804761Y-43896190D02*
X209519047Y-43896190D01*
X209661904Y-43896190D02*
X209661904Y-43396190D01*
X209614285Y-43467619D01*
X209566666Y-43515238D01*
X209519047Y-43539047D01*
X209995238Y-43443809D02*
X210019047Y-43420000D01*
X210066666Y-43396190D01*
X210185714Y-43396190D01*
X210233333Y-43420000D01*
X210257142Y-43443809D01*
X210280952Y-43491428D01*
X210280952Y-43539047D01*
X210257142Y-43610476D01*
X209971428Y-43896190D01*
X210280952Y-43896190D01*
X191416666Y-54428571D02*
X191392857Y-54452380D01*
X191321428Y-54476190D01*
X191273809Y-54476190D01*
X191202380Y-54452380D01*
X191154761Y-54404761D01*
X191130952Y-54357142D01*
X191107142Y-54261904D01*
X191107142Y-54190476D01*
X191130952Y-54095238D01*
X191154761Y-54047619D01*
X191202380Y-54000000D01*
X191273809Y-53976190D01*
X191321428Y-53976190D01*
X191392857Y-54000000D01*
X191416666Y-54023809D01*
X191702380Y-54190476D02*
X191654761Y-54166666D01*
X191630952Y-54142857D01*
X191607142Y-54095238D01*
X191607142Y-54071428D01*
X191630952Y-54023809D01*
X191654761Y-54000000D01*
X191702380Y-53976190D01*
X191797619Y-53976190D01*
X191845238Y-54000000D01*
X191869047Y-54023809D01*
X191892857Y-54071428D01*
X191892857Y-54095238D01*
X191869047Y-54142857D01*
X191845238Y-54166666D01*
X191797619Y-54190476D01*
X191702380Y-54190476D01*
X191654761Y-54214285D01*
X191630952Y-54238095D01*
X191607142Y-54285714D01*
X191607142Y-54380952D01*
X191630952Y-54428571D01*
X191654761Y-54452380D01*
X191702380Y-54476190D01*
X191797619Y-54476190D01*
X191845238Y-54452380D01*
X191869047Y-54428571D01*
X191892857Y-54380952D01*
X191892857Y-54285714D01*
X191869047Y-54238095D01*
X191845238Y-54214285D01*
X191797619Y-54190476D01*
X195666666Y-39278571D02*
X195642857Y-39302380D01*
X195571428Y-39326190D01*
X195523809Y-39326190D01*
X195452380Y-39302380D01*
X195404761Y-39254761D01*
X195380952Y-39207142D01*
X195357142Y-39111904D01*
X195357142Y-39040476D01*
X195380952Y-38945238D01*
X195404761Y-38897619D01*
X195452380Y-38850000D01*
X195523809Y-38826190D01*
X195571428Y-38826190D01*
X195642857Y-38850000D01*
X195666666Y-38873809D01*
X196142857Y-39326190D02*
X195857142Y-39326190D01*
X196000000Y-39326190D02*
X196000000Y-38826190D01*
X195952380Y-38897619D01*
X195904761Y-38945238D01*
X195857142Y-38969047D01*
X198928571Y-54428571D02*
X198904761Y-54452380D01*
X198833333Y-54476190D01*
X198785714Y-54476190D01*
X198714285Y-54452380D01*
X198666666Y-54404761D01*
X198642857Y-54357142D01*
X198619047Y-54261904D01*
X198619047Y-54190476D01*
X198642857Y-54095238D01*
X198666666Y-54047619D01*
X198714285Y-54000000D01*
X198785714Y-53976190D01*
X198833333Y-53976190D01*
X198904761Y-54000000D01*
X198928571Y-54023809D01*
X199404761Y-54476190D02*
X199119047Y-54476190D01*
X199261904Y-54476190D02*
X199261904Y-53976190D01*
X199214285Y-54047619D01*
X199166666Y-54095238D01*
X199119047Y-54119047D01*
X199714285Y-53976190D02*
X199761904Y-53976190D01*
X199809523Y-54000000D01*
X199833333Y-54023809D01*
X199857142Y-54071428D01*
X199880952Y-54166666D01*
X199880952Y-54285714D01*
X199857142Y-54380952D01*
X199833333Y-54428571D01*
X199809523Y-54452380D01*
X199761904Y-54476190D01*
X199714285Y-54476190D01*
X199666666Y-54452380D01*
X199642857Y-54428571D01*
X199619047Y-54380952D01*
X199595238Y-54285714D01*
X199595238Y-54166666D01*
X199619047Y-54071428D01*
X199642857Y-54023809D01*
X199666666Y-54000000D01*
X199714285Y-53976190D01*
X199833333Y-27026190D02*
X199833333Y-27383333D01*
X199809523Y-27454761D01*
X199761904Y-27502380D01*
X199690476Y-27526190D01*
X199642857Y-27526190D01*
X200333333Y-27526190D02*
X200047619Y-27526190D01*
X200190476Y-27526190D02*
X200190476Y-27026190D01*
X200142857Y-27097619D01*
X200095238Y-27145238D01*
X200047619Y-27169047D01*
X189883333Y-34276190D02*
X189883333Y-34633333D01*
X189859523Y-34704761D01*
X189811904Y-34752380D01*
X189740476Y-34776190D01*
X189692857Y-34776190D01*
X190335714Y-34276190D02*
X190240476Y-34276190D01*
X190192857Y-34300000D01*
X190169047Y-34323809D01*
X190121428Y-34395238D01*
X190097619Y-34490476D01*
X190097619Y-34680952D01*
X190121428Y-34728571D01*
X190145238Y-34752380D01*
X190192857Y-34776190D01*
X190288095Y-34776190D01*
X190335714Y-34752380D01*
X190359523Y-34728571D01*
X190383333Y-34680952D01*
X190383333Y-34561904D01*
X190359523Y-34514285D01*
X190335714Y-34490476D01*
X190288095Y-34466666D01*
X190192857Y-34466666D01*
X190145238Y-34490476D01*
X190121428Y-34514285D01*
X190097619Y-34561904D01*
X192711904Y-55058095D02*
X192711904Y-55296190D01*
X192545238Y-54796190D02*
X192711904Y-55058095D01*
X192878571Y-54796190D01*
X192997619Y-54796190D02*
X193307142Y-54796190D01*
X193140476Y-54986666D01*
X193211904Y-54986666D01*
X193259523Y-55010476D01*
X193283333Y-55034285D01*
X193307142Y-55081904D01*
X193307142Y-55200952D01*
X193283333Y-55248571D01*
X193259523Y-55272380D01*
X193211904Y-55296190D01*
X193069047Y-55296190D01*
X193021428Y-55272380D01*
X192997619Y-55248571D01*
X190066666Y-40976190D02*
X189900000Y-40738095D01*
X189780952Y-40976190D02*
X189780952Y-40476190D01*
X189971428Y-40476190D01*
X190019047Y-40500000D01*
X190042857Y-40523809D01*
X190066666Y-40571428D01*
X190066666Y-40642857D01*
X190042857Y-40690476D01*
X190019047Y-40714285D01*
X189971428Y-40738095D01*
X189780952Y-40738095D01*
X190257142Y-40523809D02*
X190280952Y-40500000D01*
X190328571Y-40476190D01*
X190447619Y-40476190D01*
X190495238Y-40500000D01*
X190519047Y-40523809D01*
X190542857Y-40571428D01*
X190542857Y-40619047D01*
X190519047Y-40690476D01*
X190233333Y-40976190D01*
X190542857Y-40976190D01*
X188066666Y-40976190D02*
X187900000Y-40738095D01*
X187780952Y-40976190D02*
X187780952Y-40476190D01*
X187971428Y-40476190D01*
X188019047Y-40500000D01*
X188042857Y-40523809D01*
X188066666Y-40571428D01*
X188066666Y-40642857D01*
X188042857Y-40690476D01*
X188019047Y-40714285D01*
X187971428Y-40738095D01*
X187780952Y-40738095D01*
X188542857Y-40976190D02*
X188257142Y-40976190D01*
X188400000Y-40976190D02*
X188400000Y-40476190D01*
X188352380Y-40547619D01*
X188304761Y-40595238D01*
X188257142Y-40619047D01*
X206676190Y-48491428D02*
X206438095Y-48658095D01*
X206676190Y-48777142D02*
X206176190Y-48777142D01*
X206176190Y-48586666D01*
X206200000Y-48539047D01*
X206223809Y-48515238D01*
X206271428Y-48491428D01*
X206342857Y-48491428D01*
X206390476Y-48515238D01*
X206414285Y-48539047D01*
X206438095Y-48586666D01*
X206438095Y-48777142D01*
X206676190Y-48015238D02*
X206676190Y-48300952D01*
X206676190Y-48158095D02*
X206176190Y-48158095D01*
X206247619Y-48205714D01*
X206295238Y-48253333D01*
X206319047Y-48300952D01*
X206176190Y-47562857D02*
X206176190Y-47800952D01*
X206414285Y-47824761D01*
X206390476Y-47800952D01*
X206366666Y-47753333D01*
X206366666Y-47634285D01*
X206390476Y-47586666D01*
X206414285Y-47562857D01*
X206461904Y-47539047D01*
X206580952Y-47539047D01*
X206628571Y-47562857D01*
X206652380Y-47586666D01*
X206676190Y-47634285D01*
X206676190Y-47753333D01*
X206652380Y-47800952D01*
X206628571Y-47824761D01*
X187978571Y-45826190D02*
X187811904Y-45588095D01*
X187692857Y-45826190D02*
X187692857Y-45326190D01*
X187883333Y-45326190D01*
X187930952Y-45350000D01*
X187954761Y-45373809D01*
X187978571Y-45421428D01*
X187978571Y-45492857D01*
X187954761Y-45540476D01*
X187930952Y-45564285D01*
X187883333Y-45588095D01*
X187692857Y-45588095D01*
X188454761Y-45826190D02*
X188169047Y-45826190D01*
X188311904Y-45826190D02*
X188311904Y-45326190D01*
X188264285Y-45397619D01*
X188216666Y-45445238D01*
X188169047Y-45469047D01*
X188883333Y-45492857D02*
X188883333Y-45826190D01*
X188764285Y-45302380D02*
X188645238Y-45659523D01*
X188954761Y-45659523D01*
X187780952Y-58296190D02*
X187780952Y-57796190D01*
X187900000Y-57796190D01*
X187971428Y-57820000D01*
X188019047Y-57867619D01*
X188042857Y-57915238D01*
X188066666Y-58010476D01*
X188066666Y-58081904D01*
X188042857Y-58177142D01*
X188019047Y-58224761D01*
X187971428Y-58272380D01*
X187900000Y-58296190D01*
X187780952Y-58296190D01*
X188257142Y-57843809D02*
X188280952Y-57820000D01*
X188328571Y-57796190D01*
X188447619Y-57796190D01*
X188495238Y-57820000D01*
X188519047Y-57843809D01*
X188542857Y-57891428D01*
X188542857Y-57939047D01*
X188519047Y-58010476D01*
X188233333Y-58296190D01*
X188542857Y-58296190D01*
X219169047Y-41996190D02*
X219169047Y-42400952D01*
X219192857Y-42448571D01*
X219216666Y-42472380D01*
X219264285Y-42496190D01*
X219359523Y-42496190D01*
X219407142Y-42472380D01*
X219430952Y-42448571D01*
X219454761Y-42400952D01*
X219454761Y-41996190D01*
X219645238Y-41996190D02*
X219954761Y-41996190D01*
X219788095Y-42186666D01*
X219859523Y-42186666D01*
X219907142Y-42210476D01*
X219930952Y-42234285D01*
X219954761Y-42281904D01*
X219954761Y-42400952D01*
X219930952Y-42448571D01*
X219907142Y-42472380D01*
X219859523Y-42496190D01*
X219716666Y-42496190D01*
X219669047Y-42472380D01*
X219645238Y-42448571D01*
X218528571Y-33396190D02*
X218361904Y-33158095D01*
X218242857Y-33396190D02*
X218242857Y-32896190D01*
X218433333Y-32896190D01*
X218480952Y-32920000D01*
X218504761Y-32943809D01*
X218528571Y-32991428D01*
X218528571Y-33062857D01*
X218504761Y-33110476D01*
X218480952Y-33134285D01*
X218433333Y-33158095D01*
X218242857Y-33158095D01*
X219004761Y-33396190D02*
X218719047Y-33396190D01*
X218861904Y-33396190D02*
X218861904Y-32896190D01*
X218814285Y-32967619D01*
X218766666Y-33015238D01*
X218719047Y-33039047D01*
X219480952Y-33396190D02*
X219195238Y-33396190D01*
X219338095Y-33396190D02*
X219338095Y-32896190D01*
X219290476Y-32967619D01*
X219242857Y-33015238D01*
X219195238Y-33039047D01*
X216478571Y-45441428D02*
X216502380Y-45465238D01*
X216526190Y-45536666D01*
X216526190Y-45584285D01*
X216502380Y-45655714D01*
X216454761Y-45703333D01*
X216407142Y-45727142D01*
X216311904Y-45750952D01*
X216240476Y-45750952D01*
X216145238Y-45727142D01*
X216097619Y-45703333D01*
X216050000Y-45655714D01*
X216026190Y-45584285D01*
X216026190Y-45536666D01*
X216050000Y-45465238D01*
X216073809Y-45441428D01*
X216526190Y-44965238D02*
X216526190Y-45250952D01*
X216526190Y-45108095D02*
X216026190Y-45108095D01*
X216097619Y-45155714D01*
X216145238Y-45203333D01*
X216169047Y-45250952D01*
X216526190Y-44489047D02*
X216526190Y-44774761D01*
X216526190Y-44631904D02*
X216026190Y-44631904D01*
X216097619Y-44679523D01*
X216145238Y-44727142D01*
X216169047Y-44774761D01*
X208666666Y-42748571D02*
X208642857Y-42772380D01*
X208571428Y-42796190D01*
X208523809Y-42796190D01*
X208452380Y-42772380D01*
X208404761Y-42724761D01*
X208380952Y-42677142D01*
X208357142Y-42581904D01*
X208357142Y-42510476D01*
X208380952Y-42415238D01*
X208404761Y-42367619D01*
X208452380Y-42320000D01*
X208523809Y-42296190D01*
X208571428Y-42296190D01*
X208642857Y-42320000D01*
X208666666Y-42343809D01*
X208904761Y-42796190D02*
X209000000Y-42796190D01*
X209047619Y-42772380D01*
X209071428Y-42748571D01*
X209119047Y-42677142D01*
X209142857Y-42581904D01*
X209142857Y-42391428D01*
X209119047Y-42343809D01*
X209095238Y-42320000D01*
X209047619Y-42296190D01*
X208952380Y-42296190D01*
X208904761Y-42320000D01*
X208880952Y-42343809D01*
X208857142Y-42391428D01*
X208857142Y-42510476D01*
X208880952Y-42558095D01*
X208904761Y-42581904D01*
X208952380Y-42605714D01*
X209047619Y-42605714D01*
X209095238Y-42581904D01*
X209119047Y-42558095D01*
X209142857Y-42510476D01*
X189128571Y-54596190D02*
X188961904Y-54358095D01*
X188842857Y-54596190D02*
X188842857Y-54096190D01*
X189033333Y-54096190D01*
X189080952Y-54120000D01*
X189104761Y-54143809D01*
X189128571Y-54191428D01*
X189128571Y-54262857D01*
X189104761Y-54310476D01*
X189080952Y-54334285D01*
X189033333Y-54358095D01*
X188842857Y-54358095D01*
X189319047Y-54143809D02*
X189342857Y-54120000D01*
X189390476Y-54096190D01*
X189509523Y-54096190D01*
X189557142Y-54120000D01*
X189580952Y-54143809D01*
X189604761Y-54191428D01*
X189604761Y-54239047D01*
X189580952Y-54310476D01*
X189295238Y-54596190D01*
X189604761Y-54596190D01*
X190033333Y-54262857D02*
X190033333Y-54596190D01*
X189914285Y-54072380D02*
X189795238Y-54429523D01*
X190104761Y-54429523D01*
X161716666Y-51026190D02*
X161550000Y-50788095D01*
X161430952Y-51026190D02*
X161430952Y-50526190D01*
X161621428Y-50526190D01*
X161669047Y-50550000D01*
X161692857Y-50573809D01*
X161716666Y-50621428D01*
X161716666Y-50692857D01*
X161692857Y-50740476D01*
X161669047Y-50764285D01*
X161621428Y-50788095D01*
X161430952Y-50788095D01*
X162002380Y-50740476D02*
X161954761Y-50716666D01*
X161930952Y-50692857D01*
X161907142Y-50645238D01*
X161907142Y-50621428D01*
X161930952Y-50573809D01*
X161954761Y-50550000D01*
X162002380Y-50526190D01*
X162097619Y-50526190D01*
X162145238Y-50550000D01*
X162169047Y-50573809D01*
X162192857Y-50621428D01*
X162192857Y-50645238D01*
X162169047Y-50692857D01*
X162145238Y-50716666D01*
X162097619Y-50740476D01*
X162002380Y-50740476D01*
X161954761Y-50764285D01*
X161930952Y-50788095D01*
X161907142Y-50835714D01*
X161907142Y-50930952D01*
X161930952Y-50978571D01*
X161954761Y-51002380D01*
X162002380Y-51026190D01*
X162097619Y-51026190D01*
X162145238Y-51002380D01*
X162169047Y-50978571D01*
X162192857Y-50930952D01*
X162192857Y-50835714D01*
X162169047Y-50788095D01*
X162145238Y-50764285D01*
X162097619Y-50740476D01*
X157226190Y-32521428D02*
X156988095Y-32688095D01*
X157226190Y-32807142D02*
X156726190Y-32807142D01*
X156726190Y-32616666D01*
X156750000Y-32569047D01*
X156773809Y-32545238D01*
X156821428Y-32521428D01*
X156892857Y-32521428D01*
X156940476Y-32545238D01*
X156964285Y-32569047D01*
X156988095Y-32616666D01*
X156988095Y-32807142D01*
X156773809Y-32330952D02*
X156750000Y-32307142D01*
X156726190Y-32259523D01*
X156726190Y-32140476D01*
X156750000Y-32092857D01*
X156773809Y-32069047D01*
X156821428Y-32045238D01*
X156869047Y-32045238D01*
X156940476Y-32069047D01*
X157226190Y-32354761D01*
X157226190Y-32045238D01*
X157226190Y-31569047D02*
X157226190Y-31854761D01*
X157226190Y-31711904D02*
X156726190Y-31711904D01*
X156797619Y-31759523D01*
X156845238Y-31807142D01*
X156869047Y-31854761D01*
X162826190Y-42921428D02*
X162588095Y-43088095D01*
X162826190Y-43207142D02*
X162326190Y-43207142D01*
X162326190Y-43016666D01*
X162350000Y-42969047D01*
X162373809Y-42945238D01*
X162421428Y-42921428D01*
X162492857Y-42921428D01*
X162540476Y-42945238D01*
X162564285Y-42969047D01*
X162588095Y-43016666D01*
X162588095Y-43207142D01*
X162373809Y-42730952D02*
X162350000Y-42707142D01*
X162326190Y-42659523D01*
X162326190Y-42540476D01*
X162350000Y-42492857D01*
X162373809Y-42469047D01*
X162421428Y-42445238D01*
X162469047Y-42445238D01*
X162540476Y-42469047D01*
X162826190Y-42754761D01*
X162826190Y-42445238D01*
X162373809Y-42254761D02*
X162350000Y-42230952D01*
X162326190Y-42183333D01*
X162326190Y-42064285D01*
X162350000Y-42016666D01*
X162373809Y-41992857D01*
X162421428Y-41969047D01*
X162469047Y-41969047D01*
X162540476Y-41992857D01*
X162826190Y-42278571D01*
X162826190Y-41969047D01*
X150116666Y-51626190D02*
X149950000Y-51388095D01*
X149830952Y-51626190D02*
X149830952Y-51126190D01*
X150021428Y-51126190D01*
X150069047Y-51150000D01*
X150092857Y-51173809D01*
X150116666Y-51221428D01*
X150116666Y-51292857D01*
X150092857Y-51340476D01*
X150069047Y-51364285D01*
X150021428Y-51388095D01*
X149830952Y-51388095D01*
X150354761Y-51626190D02*
X150450000Y-51626190D01*
X150497619Y-51602380D01*
X150521428Y-51578571D01*
X150569047Y-51507142D01*
X150592857Y-51411904D01*
X150592857Y-51221428D01*
X150569047Y-51173809D01*
X150545238Y-51150000D01*
X150497619Y-51126190D01*
X150402380Y-51126190D01*
X150354761Y-51150000D01*
X150330952Y-51173809D01*
X150307142Y-51221428D01*
X150307142Y-51340476D01*
X150330952Y-51388095D01*
X150354761Y-51411904D01*
X150402380Y-51435714D01*
X150497619Y-51435714D01*
X150545238Y-51411904D01*
X150569047Y-51388095D01*
X150592857Y-51340476D01*
X152278571Y-51626190D02*
X152111904Y-51388095D01*
X151992857Y-51626190D02*
X151992857Y-51126190D01*
X152183333Y-51126190D01*
X152230952Y-51150000D01*
X152254761Y-51173809D01*
X152278571Y-51221428D01*
X152278571Y-51292857D01*
X152254761Y-51340476D01*
X152230952Y-51364285D01*
X152183333Y-51388095D01*
X151992857Y-51388095D01*
X152754761Y-51626190D02*
X152469047Y-51626190D01*
X152611904Y-51626190D02*
X152611904Y-51126190D01*
X152564285Y-51197619D01*
X152516666Y-51245238D01*
X152469047Y-51269047D01*
X153064285Y-51126190D02*
X153111904Y-51126190D01*
X153159523Y-51150000D01*
X153183333Y-51173809D01*
X153207142Y-51221428D01*
X153230952Y-51316666D01*
X153230952Y-51435714D01*
X153207142Y-51530952D01*
X153183333Y-51578571D01*
X153159523Y-51602380D01*
X153111904Y-51626190D01*
X153064285Y-51626190D01*
X153016666Y-51602380D01*
X152992857Y-51578571D01*
X152969047Y-51530952D01*
X152945238Y-51435714D01*
X152945238Y-51316666D01*
X152969047Y-51221428D01*
X152992857Y-51173809D01*
X153016666Y-51150000D01*
X153064285Y-51126190D01*
X153978571Y-51676190D02*
X153811904Y-51438095D01*
X153692857Y-51676190D02*
X153692857Y-51176190D01*
X153883333Y-51176190D01*
X153930952Y-51200000D01*
X153954761Y-51223809D01*
X153978571Y-51271428D01*
X153978571Y-51342857D01*
X153954761Y-51390476D01*
X153930952Y-51414285D01*
X153883333Y-51438095D01*
X153692857Y-51438095D01*
X154454761Y-51676190D02*
X154169047Y-51676190D01*
X154311904Y-51676190D02*
X154311904Y-51176190D01*
X154264285Y-51247619D01*
X154216666Y-51295238D01*
X154169047Y-51319047D01*
X154740476Y-51390476D02*
X154692857Y-51366666D01*
X154669047Y-51342857D01*
X154645238Y-51295238D01*
X154645238Y-51271428D01*
X154669047Y-51223809D01*
X154692857Y-51200000D01*
X154740476Y-51176190D01*
X154835714Y-51176190D01*
X154883333Y-51200000D01*
X154907142Y-51223809D01*
X154930952Y-51271428D01*
X154930952Y-51295238D01*
X154907142Y-51342857D01*
X154883333Y-51366666D01*
X154835714Y-51390476D01*
X154740476Y-51390476D01*
X154692857Y-51414285D01*
X154669047Y-51438095D01*
X154645238Y-51485714D01*
X154645238Y-51580952D01*
X154669047Y-51628571D01*
X154692857Y-51652380D01*
X154740476Y-51676190D01*
X154835714Y-51676190D01*
X154883333Y-51652380D01*
X154907142Y-51628571D01*
X154930952Y-51580952D01*
X154930952Y-51485714D01*
X154907142Y-51438095D01*
X154883333Y-51414285D01*
X154835714Y-51390476D01*
X168776190Y-28339047D02*
X168276190Y-28339047D01*
X168276190Y-28220000D01*
X168300000Y-28148571D01*
X168347619Y-28100952D01*
X168395238Y-28077142D01*
X168490476Y-28053333D01*
X168561904Y-28053333D01*
X168657142Y-28077142D01*
X168704761Y-28100952D01*
X168752380Y-28148571D01*
X168776190Y-28220000D01*
X168776190Y-28339047D01*
X168442857Y-27624761D02*
X168776190Y-27624761D01*
X168252380Y-27743809D02*
X168609523Y-27862857D01*
X168609523Y-27553333D01*
X163828571Y-34196190D02*
X163661904Y-33958095D01*
X163542857Y-34196190D02*
X163542857Y-33696190D01*
X163733333Y-33696190D01*
X163780952Y-33720000D01*
X163804761Y-33743809D01*
X163828571Y-33791428D01*
X163828571Y-33862857D01*
X163804761Y-33910476D01*
X163780952Y-33934285D01*
X163733333Y-33958095D01*
X163542857Y-33958095D01*
X164019047Y-33743809D02*
X164042857Y-33720000D01*
X164090476Y-33696190D01*
X164209523Y-33696190D01*
X164257142Y-33720000D01*
X164280952Y-33743809D01*
X164304761Y-33791428D01*
X164304761Y-33839047D01*
X164280952Y-33910476D01*
X163995238Y-34196190D01*
X164304761Y-34196190D01*
X164757142Y-33696190D02*
X164519047Y-33696190D01*
X164495238Y-33934285D01*
X164519047Y-33910476D01*
X164566666Y-33886666D01*
X164685714Y-33886666D01*
X164733333Y-33910476D01*
X164757142Y-33934285D01*
X164780952Y-33981904D01*
X164780952Y-34100952D01*
X164757142Y-34148571D01*
X164733333Y-34172380D01*
X164685714Y-34196190D01*
X164566666Y-34196190D01*
X164519047Y-34172380D01*
X164495238Y-34148571D01*
X162128571Y-34196190D02*
X161961904Y-33958095D01*
X161842857Y-34196190D02*
X161842857Y-33696190D01*
X162033333Y-33696190D01*
X162080952Y-33720000D01*
X162104761Y-33743809D01*
X162128571Y-33791428D01*
X162128571Y-33862857D01*
X162104761Y-33910476D01*
X162080952Y-33934285D01*
X162033333Y-33958095D01*
X161842857Y-33958095D01*
X162319047Y-33743809D02*
X162342857Y-33720000D01*
X162390476Y-33696190D01*
X162509523Y-33696190D01*
X162557142Y-33720000D01*
X162580952Y-33743809D01*
X162604761Y-33791428D01*
X162604761Y-33839047D01*
X162580952Y-33910476D01*
X162295238Y-34196190D01*
X162604761Y-34196190D01*
X163033333Y-33696190D02*
X162938095Y-33696190D01*
X162890476Y-33720000D01*
X162866666Y-33743809D01*
X162819047Y-33815238D01*
X162795238Y-33910476D01*
X162795238Y-34100952D01*
X162819047Y-34148571D01*
X162842857Y-34172380D01*
X162890476Y-34196190D01*
X162985714Y-34196190D01*
X163033333Y-34172380D01*
X163057142Y-34148571D01*
X163080952Y-34100952D01*
X163080952Y-33981904D01*
X163057142Y-33934285D01*
X163033333Y-33910476D01*
X162985714Y-33886666D01*
X162890476Y-33886666D01*
X162842857Y-33910476D01*
X162819047Y-33934285D01*
X162795238Y-33981904D01*
X168876190Y-30134048D02*
X168376190Y-30134048D01*
X168376190Y-30015001D01*
X168400000Y-29943572D01*
X168447619Y-29895953D01*
X168495238Y-29872143D01*
X168590476Y-29848334D01*
X168661904Y-29848334D01*
X168757142Y-29872143D01*
X168804761Y-29895953D01*
X168852380Y-29943572D01*
X168876190Y-30015001D01*
X168876190Y-30134048D01*
X168376190Y-29681667D02*
X168376190Y-29372143D01*
X168566666Y-29538810D01*
X168566666Y-29467381D01*
X168590476Y-29419762D01*
X168614285Y-29395953D01*
X168661904Y-29372143D01*
X168780952Y-29372143D01*
X168828571Y-29395953D01*
X168852380Y-29419762D01*
X168876190Y-29467381D01*
X168876190Y-29610239D01*
X168852380Y-29657858D01*
X168828571Y-29681667D01*
X201528571Y-41998571D02*
X201504761Y-42022380D01*
X201433333Y-42046190D01*
X201385714Y-42046190D01*
X201314285Y-42022380D01*
X201266666Y-41974761D01*
X201242857Y-41927142D01*
X201219047Y-41831904D01*
X201219047Y-41760476D01*
X201242857Y-41665238D01*
X201266666Y-41617619D01*
X201314285Y-41570000D01*
X201385714Y-41546190D01*
X201433333Y-41546190D01*
X201504761Y-41570000D01*
X201528571Y-41593809D01*
X202004761Y-42046190D02*
X201719047Y-42046190D01*
X201861904Y-42046190D02*
X201861904Y-41546190D01*
X201814285Y-41617619D01*
X201766666Y-41665238D01*
X201719047Y-41689047D01*
X202242857Y-42046190D02*
X202338095Y-42046190D01*
X202385714Y-42022380D01*
X202409523Y-41998571D01*
X202457142Y-41927142D01*
X202480952Y-41831904D01*
X202480952Y-41641428D01*
X202457142Y-41593809D01*
X202433333Y-41570000D01*
X202385714Y-41546190D01*
X202290476Y-41546190D01*
X202242857Y-41570000D01*
X202219047Y-41593809D01*
X202195238Y-41641428D01*
X202195238Y-41760476D01*
X202219047Y-41808095D01*
X202242857Y-41831904D01*
X202290476Y-41855714D01*
X202385714Y-41855714D01*
X202433333Y-41831904D01*
X202457142Y-41808095D01*
X202480952Y-41760476D01*
X203228571Y-58048571D02*
X203204761Y-58072380D01*
X203133333Y-58096190D01*
X203085714Y-58096190D01*
X203014285Y-58072380D01*
X202966666Y-58024761D01*
X202942857Y-57977142D01*
X202919047Y-57881904D01*
X202919047Y-57810476D01*
X202942857Y-57715238D01*
X202966666Y-57667619D01*
X203014285Y-57620000D01*
X203085714Y-57596190D01*
X203133333Y-57596190D01*
X203204761Y-57620000D01*
X203228571Y-57643809D01*
X203419047Y-57643809D02*
X203442857Y-57620000D01*
X203490476Y-57596190D01*
X203609523Y-57596190D01*
X203657142Y-57620000D01*
X203680952Y-57643809D01*
X203704761Y-57691428D01*
X203704761Y-57739047D01*
X203680952Y-57810476D01*
X203395238Y-58096190D01*
X203704761Y-58096190D01*
X204014285Y-57596190D02*
X204061904Y-57596190D01*
X204109523Y-57620000D01*
X204133333Y-57643809D01*
X204157142Y-57691428D01*
X204180952Y-57786666D01*
X204180952Y-57905714D01*
X204157142Y-58000952D01*
X204133333Y-58048571D01*
X204109523Y-58072380D01*
X204061904Y-58096190D01*
X204014285Y-58096190D01*
X203966666Y-58072380D01*
X203942857Y-58048571D01*
X203919047Y-58000952D01*
X203895238Y-57905714D01*
X203895238Y-57786666D01*
X203919047Y-57691428D01*
X203942857Y-57643809D01*
X203966666Y-57620000D01*
X204014285Y-57596190D01*
X205278571Y-57648571D02*
X205254761Y-57672380D01*
X205183333Y-57696190D01*
X205135714Y-57696190D01*
X205064285Y-57672380D01*
X205016666Y-57624761D01*
X204992857Y-57577142D01*
X204969047Y-57481904D01*
X204969047Y-57410476D01*
X204992857Y-57315238D01*
X205016666Y-57267619D01*
X205064285Y-57220000D01*
X205135714Y-57196190D01*
X205183333Y-57196190D01*
X205254761Y-57220000D01*
X205278571Y-57243809D01*
X205469047Y-57243809D02*
X205492857Y-57220000D01*
X205540476Y-57196190D01*
X205659523Y-57196190D01*
X205707142Y-57220000D01*
X205730952Y-57243809D01*
X205754761Y-57291428D01*
X205754761Y-57339047D01*
X205730952Y-57410476D01*
X205445238Y-57696190D01*
X205754761Y-57696190D01*
X206230952Y-57696190D02*
X205945238Y-57696190D01*
X206088095Y-57696190D02*
X206088095Y-57196190D01*
X206040476Y-57267619D01*
X205992857Y-57315238D01*
X205945238Y-57339047D01*
X196428571Y-55948571D02*
X196404761Y-55972380D01*
X196333333Y-55996190D01*
X196285714Y-55996190D01*
X196214285Y-55972380D01*
X196166666Y-55924761D01*
X196142857Y-55877142D01*
X196119047Y-55781904D01*
X196119047Y-55710476D01*
X196142857Y-55615238D01*
X196166666Y-55567619D01*
X196214285Y-55520000D01*
X196285714Y-55496190D01*
X196333333Y-55496190D01*
X196404761Y-55520000D01*
X196428571Y-55543809D01*
X196619047Y-55543809D02*
X196642857Y-55520000D01*
X196690476Y-55496190D01*
X196809523Y-55496190D01*
X196857142Y-55520000D01*
X196880952Y-55543809D01*
X196904761Y-55591428D01*
X196904761Y-55639047D01*
X196880952Y-55710476D01*
X196595238Y-55996190D01*
X196904761Y-55996190D01*
X197071428Y-55496190D02*
X197404761Y-55496190D01*
X197190476Y-55996190D01*
X205669047Y-49946190D02*
X205669047Y-50350952D01*
X205692857Y-50398571D01*
X205716666Y-50422380D01*
X205764285Y-50446190D01*
X205859523Y-50446190D01*
X205907142Y-50422380D01*
X205930952Y-50398571D01*
X205954761Y-50350952D01*
X205954761Y-49946190D01*
X206454761Y-50446190D02*
X206169047Y-50446190D01*
X206311904Y-50446190D02*
X206311904Y-49946190D01*
X206264285Y-50017619D01*
X206216666Y-50065238D01*
X206169047Y-50089047D01*
D10*
X205532380Y-52191904D02*
X206341904Y-52191904D01*
X206437142Y-52144285D01*
X206484761Y-52096666D01*
X206532380Y-52001428D01*
X206532380Y-51810952D01*
X206484761Y-51715714D01*
X206437142Y-51668095D01*
X206341904Y-51620476D01*
X205532380Y-51620476D01*
X205865714Y-50715714D02*
X206532380Y-50715714D01*
X205484761Y-50953809D02*
X206199047Y-51191904D01*
X206199047Y-50572857D01*
X222090000Y-49651904D02*
X222042380Y-49747142D01*
X222042380Y-49890000D01*
X222090000Y-50032857D01*
X222185238Y-50128095D01*
X222280476Y-50175714D01*
X222470952Y-50223333D01*
X222613809Y-50223333D01*
X222804285Y-50175714D01*
X222899523Y-50128095D01*
X222994761Y-50032857D01*
X223042380Y-49890000D01*
X223042380Y-49794761D01*
X222994761Y-49651904D01*
X222947142Y-49604285D01*
X222613809Y-49604285D01*
X222613809Y-49794761D01*
X223042380Y-49175714D02*
X222042380Y-49175714D01*
X223042380Y-48604285D01*
X222042380Y-48604285D01*
X223042380Y-48128095D02*
X222042380Y-48128095D01*
X222042380Y-47890000D01*
X222090000Y-47747142D01*
X222185238Y-47651904D01*
X222280476Y-47604285D01*
X222470952Y-47556666D01*
X222613809Y-47556666D01*
X222804285Y-47604285D01*
X222899523Y-47651904D01*
X222994761Y-47747142D01*
X223042380Y-47890000D01*
X223042380Y-48128095D01*
D13*
X208376190Y-52555714D02*
X207876190Y-52555714D01*
X207876190Y-52436666D01*
X207900000Y-52365238D01*
X207947619Y-52317619D01*
X207995238Y-52293809D01*
X208090476Y-52270000D01*
X208161904Y-52270000D01*
X208257142Y-52293809D01*
X208304761Y-52317619D01*
X208352380Y-52365238D01*
X208376190Y-52436666D01*
X208376190Y-52555714D01*
X208376190Y-52055714D02*
X207876190Y-52055714D01*
X207876190Y-51936666D01*
X207900000Y-51865238D01*
X207947619Y-51817619D01*
X207995238Y-51793809D01*
X208090476Y-51770000D01*
X208161904Y-51770000D01*
X208257142Y-51793809D01*
X208304761Y-51817619D01*
X208352380Y-51865238D01*
X208376190Y-51936666D01*
X208376190Y-52055714D01*
X208042857Y-51341428D02*
X208376190Y-51341428D01*
X207852380Y-51460476D02*
X208209523Y-51579523D01*
X208209523Y-51270000D01*
X207876190Y-50984285D02*
X207876190Y-50936666D01*
X207900000Y-50889047D01*
X207923809Y-50865238D01*
X207971428Y-50841428D01*
X208066666Y-50817619D01*
X208185714Y-50817619D01*
X208280952Y-50841428D01*
X208328571Y-50865238D01*
X208352380Y-50889047D01*
X208376190Y-50936666D01*
X208376190Y-50984285D01*
X208352380Y-51031904D01*
X208328571Y-51055714D01*
X208280952Y-51079523D01*
X208185714Y-51103333D01*
X208066666Y-51103333D01*
X207971428Y-51079523D01*
X207923809Y-51055714D01*
X207900000Y-51031904D01*
X207876190Y-50984285D01*
X208376190Y-50341428D02*
X208376190Y-50627142D01*
X208376190Y-50484285D02*
X207876190Y-50484285D01*
X207947619Y-50531904D01*
X207995238Y-50579523D01*
X208019047Y-50627142D01*
X207923809Y-50150952D02*
X207900000Y-50127142D01*
X207876190Y-50079523D01*
X207876190Y-49960476D01*
X207900000Y-49912857D01*
X207923809Y-49889047D01*
X207971428Y-49865238D01*
X208019047Y-49865238D01*
X208090476Y-49889047D01*
X208376190Y-50174761D01*
X208376190Y-49865238D01*
X208352380Y-49674761D02*
X208376190Y-49603333D01*
X208376190Y-49484285D01*
X208352380Y-49436666D01*
X208328571Y-49412857D01*
X208280952Y-49389047D01*
X208233333Y-49389047D01*
X208185714Y-49412857D01*
X208161904Y-49436666D01*
X208138095Y-49484285D01*
X208114285Y-49579523D01*
X208090476Y-49627142D01*
X208066666Y-49650952D01*
X208019047Y-49674761D01*
X207971428Y-49674761D01*
X207923809Y-49650952D01*
X207900000Y-49627142D01*
X207876190Y-49579523D01*
X207876190Y-49460476D01*
X207900000Y-49389047D01*
X208233333Y-49198571D02*
X208233333Y-48960476D01*
X208376190Y-49246190D02*
X207876190Y-49079523D01*
X208376190Y-48912857D01*
D10*
X222042380Y-45937142D02*
X223042380Y-45603809D01*
X222042380Y-45270476D01*
X222042380Y-44746666D02*
X222042380Y-44556190D01*
X222090000Y-44460952D01*
X222185238Y-44365714D01*
X222375714Y-44318095D01*
X222709047Y-44318095D01*
X222899523Y-44365714D01*
X222994761Y-44460952D01*
X223042380Y-44556190D01*
X223042380Y-44746666D01*
X222994761Y-44841904D01*
X222899523Y-44937142D01*
X222709047Y-44984761D01*
X222375714Y-44984761D01*
X222185238Y-44937142D01*
X222090000Y-44841904D01*
X222042380Y-44746666D01*
X222042380Y-53271428D02*
X223042380Y-52938095D01*
X222042380Y-52604761D01*
X223042380Y-52271428D02*
X222042380Y-52271428D01*
D13*
X208928571Y-37448571D02*
X208904761Y-37472380D01*
X208833333Y-37496190D01*
X208785714Y-37496190D01*
X208714285Y-37472380D01*
X208666666Y-37424761D01*
X208642857Y-37377142D01*
X208619047Y-37281904D01*
X208619047Y-37210476D01*
X208642857Y-37115238D01*
X208666666Y-37067619D01*
X208714285Y-37020000D01*
X208785714Y-36996190D01*
X208833333Y-36996190D01*
X208904761Y-37020000D01*
X208928571Y-37043809D01*
X209119047Y-37043809D02*
X209142857Y-37020000D01*
X209190476Y-36996190D01*
X209309523Y-36996190D01*
X209357142Y-37020000D01*
X209380952Y-37043809D01*
X209404761Y-37091428D01*
X209404761Y-37139047D01*
X209380952Y-37210476D01*
X209095238Y-37496190D01*
X209404761Y-37496190D01*
X209571428Y-36996190D02*
X209880952Y-36996190D01*
X209714285Y-37186666D01*
X209785714Y-37186666D01*
X209833333Y-37210476D01*
X209857142Y-37234285D01*
X209880952Y-37281904D01*
X209880952Y-37400952D01*
X209857142Y-37448571D01*
X209833333Y-37472380D01*
X209785714Y-37496190D01*
X209642857Y-37496190D01*
X209595238Y-37472380D01*
X209571428Y-37448571D01*
X223528571Y-35848571D02*
X223504761Y-35872380D01*
X223433333Y-35896190D01*
X223385714Y-35896190D01*
X223314285Y-35872380D01*
X223266666Y-35824761D01*
X223242857Y-35777142D01*
X223219047Y-35681904D01*
X223219047Y-35610476D01*
X223242857Y-35515238D01*
X223266666Y-35467619D01*
X223314285Y-35420000D01*
X223385714Y-35396190D01*
X223433333Y-35396190D01*
X223504761Y-35420000D01*
X223528571Y-35443809D01*
X223719047Y-35443809D02*
X223742857Y-35420000D01*
X223790476Y-35396190D01*
X223909523Y-35396190D01*
X223957142Y-35420000D01*
X223980952Y-35443809D01*
X224004761Y-35491428D01*
X224004761Y-35539047D01*
X223980952Y-35610476D01*
X223695238Y-35896190D01*
X224004761Y-35896190D01*
X224195238Y-35443809D02*
X224219047Y-35420000D01*
X224266666Y-35396190D01*
X224385714Y-35396190D01*
X224433333Y-35420000D01*
X224457142Y-35443809D01*
X224480952Y-35491428D01*
X224480952Y-35539047D01*
X224457142Y-35610476D01*
X224171428Y-35896190D01*
X224480952Y-35896190D01*
X223780952Y-54596190D02*
X223780952Y-54096190D01*
X223900000Y-54096190D01*
X223971428Y-54120000D01*
X224019047Y-54167619D01*
X224042857Y-54215238D01*
X224066666Y-54310476D01*
X224066666Y-54381904D01*
X224042857Y-54477142D01*
X224019047Y-54524761D01*
X223971428Y-54572380D01*
X223900000Y-54596190D01*
X223780952Y-54596190D01*
X224542857Y-54596190D02*
X224257142Y-54596190D01*
X224400000Y-54596190D02*
X224400000Y-54096190D01*
X224352380Y-54167619D01*
X224304761Y-54215238D01*
X224257142Y-54239047D01*
X194483333Y-59596190D02*
X194483333Y-59953333D01*
X194459523Y-60024761D01*
X194411904Y-60072380D01*
X194340476Y-60096190D01*
X194292857Y-60096190D01*
X194745238Y-60096190D02*
X194840476Y-60096190D01*
X194888095Y-60072380D01*
X194911904Y-60048571D01*
X194959523Y-59977142D01*
X194983333Y-59881904D01*
X194983333Y-59691428D01*
X194959523Y-59643809D01*
X194935714Y-59620000D01*
X194888095Y-59596190D01*
X194792857Y-59596190D01*
X194745238Y-59620000D01*
X194721428Y-59643809D01*
X194697619Y-59691428D01*
X194697619Y-59810476D01*
X194721428Y-59858095D01*
X194745238Y-59881904D01*
X194792857Y-59905714D01*
X194888095Y-59905714D01*
X194935714Y-59881904D01*
X194959523Y-59858095D01*
X194983333Y-59810476D01*
D10*
X213030476Y-27732380D02*
X213030476Y-28446666D01*
X212982857Y-28589523D01*
X212887619Y-28684761D01*
X212744761Y-28732380D01*
X212649523Y-28732380D01*
X214030476Y-28732380D02*
X213459047Y-28732380D01*
X213744761Y-28732380D02*
X213744761Y-27732380D01*
X213649523Y-27875238D01*
X213554285Y-27970476D01*
X213459047Y-28018095D01*
X214982857Y-28732380D02*
X214411428Y-28732380D01*
X214697142Y-28732380D02*
X214697142Y-27732380D01*
X214601904Y-27875238D01*
X214506666Y-27970476D01*
X214411428Y-28018095D01*
D13*
X207633333Y-56426190D02*
X207633333Y-56783333D01*
X207609523Y-56854761D01*
X207561904Y-56902380D01*
X207490476Y-56926190D01*
X207442857Y-56926190D01*
X207847619Y-56473809D02*
X207871428Y-56450000D01*
X207919047Y-56426190D01*
X208038095Y-56426190D01*
X208085714Y-56450000D01*
X208109523Y-56473809D01*
X208133333Y-56521428D01*
X208133333Y-56569047D01*
X208109523Y-56640476D01*
X207823809Y-56926190D01*
X208133333Y-56926190D01*
D10*
X205828571Y-53207142D02*
X206971428Y-53207142D01*
X216828571Y-53207142D02*
X217971428Y-53207142D01*
X217400000Y-53778571D02*
X217400000Y-52635714D01*
D13*
X211528571Y-33396190D02*
X211361904Y-33158095D01*
X211242857Y-33396190D02*
X211242857Y-32896190D01*
X211433333Y-32896190D01*
X211480952Y-32920000D01*
X211504761Y-32943809D01*
X211528571Y-32991428D01*
X211528571Y-33062857D01*
X211504761Y-33110476D01*
X211480952Y-33134285D01*
X211433333Y-33158095D01*
X211242857Y-33158095D01*
X212004761Y-33396190D02*
X211719047Y-33396190D01*
X211861904Y-33396190D02*
X211861904Y-32896190D01*
X211814285Y-32967619D01*
X211766666Y-33015238D01*
X211719047Y-33039047D01*
X212195238Y-32943809D02*
X212219047Y-32920000D01*
X212266666Y-32896190D01*
X212385714Y-32896190D01*
X212433333Y-32920000D01*
X212457142Y-32943809D01*
X212480952Y-32991428D01*
X212480952Y-33039047D01*
X212457142Y-33110476D01*
X212171428Y-33396190D01*
X212480952Y-33396190D01*
X210328571Y-42748571D02*
X210304761Y-42772380D01*
X210233333Y-42796190D01*
X210185714Y-42796190D01*
X210114285Y-42772380D01*
X210066666Y-42724761D01*
X210042857Y-42677142D01*
X210019047Y-42581904D01*
X210019047Y-42510476D01*
X210042857Y-42415238D01*
X210066666Y-42367619D01*
X210114285Y-42320000D01*
X210185714Y-42296190D01*
X210233333Y-42296190D01*
X210304761Y-42320000D01*
X210328571Y-42343809D01*
X210804761Y-42796190D02*
X210519047Y-42796190D01*
X210661904Y-42796190D02*
X210661904Y-42296190D01*
X210614285Y-42367619D01*
X210566666Y-42415238D01*
X210519047Y-42439047D01*
X211090476Y-42510476D02*
X211042857Y-42486666D01*
X211019047Y-42462857D01*
X210995238Y-42415238D01*
X210995238Y-42391428D01*
X211019047Y-42343809D01*
X211042857Y-42320000D01*
X211090476Y-42296190D01*
X211185714Y-42296190D01*
X211233333Y-42320000D01*
X211257142Y-42343809D01*
X211280952Y-42391428D01*
X211280952Y-42415238D01*
X211257142Y-42462857D01*
X211233333Y-42486666D01*
X211185714Y-42510476D01*
X211090476Y-42510476D01*
X211042857Y-42534285D01*
X211019047Y-42558095D01*
X210995238Y-42605714D01*
X210995238Y-42700952D01*
X211019047Y-42748571D01*
X211042857Y-42772380D01*
X211090476Y-42796190D01*
X211185714Y-42796190D01*
X211233333Y-42772380D01*
X211257142Y-42748571D01*
X211280952Y-42700952D01*
X211280952Y-42605714D01*
X211257142Y-42558095D01*
X211233333Y-42534285D01*
X211185714Y-42510476D01*
X223052380Y-43796190D02*
X222885714Y-43558095D01*
X222766666Y-43796190D02*
X222766666Y-43296190D01*
X222957142Y-43296190D01*
X223004761Y-43320000D01*
X223028571Y-43343809D01*
X223052380Y-43391428D01*
X223052380Y-43462857D01*
X223028571Y-43510476D01*
X223004761Y-43534285D01*
X222957142Y-43558095D01*
X222766666Y-43558095D01*
X223195238Y-43296190D02*
X223361904Y-43796190D01*
X223528571Y-43296190D01*
X223957142Y-43796190D02*
X223671428Y-43796190D01*
X223814285Y-43796190D02*
X223814285Y-43296190D01*
X223766666Y-43367619D01*
X223719047Y-43415238D01*
X223671428Y-43439047D01*
X222228571Y-54596190D02*
X222061904Y-54358095D01*
X221942857Y-54596190D02*
X221942857Y-54096190D01*
X222133333Y-54096190D01*
X222180952Y-54120000D01*
X222204761Y-54143809D01*
X222228571Y-54191428D01*
X222228571Y-54262857D01*
X222204761Y-54310476D01*
X222180952Y-54334285D01*
X222133333Y-54358095D01*
X221942857Y-54358095D01*
X222704761Y-54596190D02*
X222419047Y-54596190D01*
X222561904Y-54596190D02*
X222561904Y-54096190D01*
X222514285Y-54167619D01*
X222466666Y-54215238D01*
X222419047Y-54239047D01*
X222871428Y-54096190D02*
X223180952Y-54096190D01*
X223014285Y-54286666D01*
X223085714Y-54286666D01*
X223133333Y-54310476D01*
X223157142Y-54334285D01*
X223180952Y-54381904D01*
X223180952Y-54500952D01*
X223157142Y-54548571D01*
X223133333Y-54572380D01*
X223085714Y-54596190D01*
X222942857Y-54596190D01*
X222895238Y-54572380D01*
X222871428Y-54548571D01*
D14*
X158092164Y-43940000D02*
X158307836Y-43940000D01*
X158092164Y-44660000D02*
X158307836Y-44660000D01*
X150860000Y-42692164D02*
X150860000Y-42907836D01*
X150140000Y-42692164D02*
X150140000Y-42907836D01*
X161035000Y-33761252D02*
X161035000Y-33238748D01*
X159565000Y-33761252D02*
X159565000Y-33238748D01*
X149800378Y-54560000D02*
X150599622Y-54560000D01*
X149800378Y-53440000D02*
X150599622Y-53440000D01*
D15*
X185270000Y-53700000D02*
X185270000Y-37700000D01*
X185270000Y-37700000D02*
X172850000Y-37700000D01*
X169750000Y-37700000D02*
X163870000Y-37700000D01*
X185270000Y-53700000D02*
X172850000Y-53700000D01*
X163870000Y-53700000D02*
X163870000Y-37700000D01*
X169750000Y-53700000D02*
X163870000Y-53700000D01*
D16*
X168200000Y-54700000D02*
G75*
G03*
X168200000Y-54700000I-150000J0D01*
G01*
D14*
X177037258Y-56922500D02*
X176562742Y-56922500D01*
X177037258Y-55877500D02*
X176562742Y-55877500D01*
X154400000Y-31150000D02*
X158400000Y-31150000D01*
X154400000Y-27850000D02*
X154400000Y-31150000D01*
X161012164Y-37190000D02*
X161227836Y-37190000D01*
X161012164Y-37910000D02*
X161227836Y-37910000D01*
X151740000Y-42110000D02*
X151740000Y-43400000D01*
X151290000Y-34890000D02*
X151740000Y-34890000D01*
X158510000Y-35340000D02*
X158510000Y-34890000D01*
X158510000Y-42110000D02*
X158060000Y-42110000D01*
X158510000Y-41660000D02*
X158510000Y-42110000D01*
X151290000Y-35340000D02*
X151290000Y-34890000D01*
X151290000Y-41660000D02*
X151290000Y-42110000D01*
X151290000Y-42110000D02*
X151740000Y-42110000D01*
X158510000Y-34890000D02*
X158060000Y-34890000D01*
X161559420Y-36760000D02*
X161840580Y-36760000D01*
X161559420Y-35740000D02*
X161840580Y-35740000D01*
X177037258Y-54277500D02*
X176562742Y-54277500D01*
X177037258Y-55322500D02*
X176562742Y-55322500D01*
X154060000Y-29907836D02*
X154060000Y-29692164D01*
X153340000Y-29907836D02*
X153340000Y-29692164D01*
X159460000Y-29907836D02*
X159460000Y-29692164D01*
X158740000Y-29907836D02*
X158740000Y-29692164D01*
X156720000Y-64410000D02*
X156400000Y-64490000D01*
X160290000Y-59990000D02*
X161510000Y-59990000D01*
X155010000Y-64990000D02*
X155010000Y-59990000D01*
X157730000Y-59990000D02*
X157570000Y-59990000D01*
X158580000Y-64410000D02*
X158580000Y-60990000D01*
X156080000Y-60990000D02*
X156400000Y-60990000D01*
X158580000Y-60990000D02*
X158900000Y-60990000D01*
X158900000Y-64490000D02*
X158580000Y-64410000D01*
X161510000Y-64990000D02*
X160290000Y-64990000D01*
X160290000Y-60990000D02*
X155010000Y-60990000D01*
X153790000Y-57790000D02*
X155010000Y-57790000D01*
X158900000Y-57900000D02*
X159200000Y-57300000D01*
X158600000Y-57300000D02*
X158900000Y-57900000D01*
X159220000Y-60990000D02*
X159220000Y-64410000D01*
X156400000Y-60990000D02*
X156720000Y-60990000D01*
X159220000Y-64410000D02*
X158900000Y-64490000D01*
X153790000Y-64990000D02*
X155010000Y-64990000D01*
X155010000Y-57790000D02*
X155010000Y-59990000D01*
X158900000Y-60990000D02*
X159220000Y-60990000D01*
X156080000Y-64410000D02*
X156080000Y-60990000D01*
X160290000Y-64990000D02*
X160290000Y-59990000D01*
X155010000Y-59990000D02*
X153790000Y-59990000D01*
X160290000Y-59990000D02*
X160290000Y-57790000D01*
X159200000Y-57300000D02*
X158600000Y-57300000D01*
X161510000Y-66210000D02*
X153790000Y-66210000D01*
X156400000Y-64490000D02*
X156080000Y-64410000D01*
X156720000Y-60990000D02*
X156720000Y-64410000D01*
X160290000Y-57790000D02*
X161510000Y-57790000D01*
X153790000Y-66210000D02*
X153790000Y-57790000D01*
X161510000Y-57790000D02*
X161510000Y-66210000D01*
X166480000Y-60990000D02*
X166800000Y-60990000D01*
X161690000Y-57790000D02*
X162910000Y-57790000D01*
X167120000Y-64410000D02*
X166800000Y-64490000D01*
X167120000Y-60990000D02*
X167120000Y-64410000D01*
X168190000Y-57790000D02*
X169410000Y-57790000D01*
X164300000Y-60990000D02*
X164620000Y-60990000D01*
X166800000Y-64490000D02*
X166480000Y-64410000D01*
X166800000Y-60990000D02*
X167120000Y-60990000D01*
X164300000Y-64490000D02*
X163980000Y-64410000D01*
X163980000Y-60990000D02*
X164300000Y-60990000D01*
X168190000Y-59990000D02*
X169410000Y-59990000D01*
X161690000Y-64990000D02*
X162910000Y-64990000D01*
X169410000Y-66210000D02*
X161690000Y-66210000D01*
X165630000Y-59990000D02*
X165470000Y-59990000D01*
X162910000Y-57790000D02*
X162910000Y-59990000D01*
X168190000Y-60990000D02*
X162910000Y-60990000D01*
X162910000Y-59990000D02*
X161690000Y-59990000D01*
X169410000Y-64990000D02*
X168190000Y-64990000D01*
X168190000Y-59990000D02*
X168190000Y-57790000D01*
X166500000Y-57300000D02*
X166800000Y-57900000D01*
X167100000Y-57300000D02*
X166500000Y-57300000D01*
X164620000Y-60990000D02*
X164620000Y-64410000D01*
X162910000Y-64990000D02*
X162910000Y-59990000D01*
X166800000Y-57900000D02*
X167100000Y-57300000D01*
X163980000Y-64410000D02*
X163980000Y-60990000D01*
X168190000Y-64990000D02*
X168190000Y-59990000D01*
X161690000Y-66210000D02*
X161690000Y-57790000D01*
X169410000Y-57790000D02*
X169410000Y-66210000D01*
X164620000Y-64410000D02*
X164300000Y-64490000D01*
X166480000Y-64410000D02*
X166480000Y-60990000D01*
X170122500Y-31037258D02*
X170122500Y-30562742D01*
X169077500Y-31037258D02*
X169077500Y-30562742D01*
X148261252Y-37935000D02*
X147738748Y-37935000D01*
X148261252Y-36465000D02*
X147738748Y-36465000D01*
X159060000Y-33707836D02*
X159060000Y-33492164D01*
X158340000Y-33707836D02*
X158340000Y-33492164D01*
X161892164Y-40260000D02*
X162107836Y-40260000D01*
X161892164Y-39540000D02*
X162107836Y-39540000D01*
X160992164Y-38540000D02*
X161207836Y-38540000D01*
X160992164Y-39260000D02*
X161207836Y-39260000D01*
X156722500Y-49787258D02*
X156722500Y-49312742D01*
X155677500Y-49787258D02*
X155677500Y-49312742D01*
X155465000Y-46477064D02*
X155465000Y-46022936D01*
X156935000Y-46477064D02*
X156935000Y-46022936D01*
X153565000Y-46477064D02*
X153565000Y-46022936D01*
X155035000Y-46477064D02*
X155035000Y-46022936D01*
X153135000Y-46477064D02*
X153135000Y-46022936D01*
X151665000Y-46477064D02*
X151665000Y-46022936D01*
X149765000Y-46477064D02*
X149765000Y-46022936D01*
X151235000Y-46477064D02*
X151235000Y-46022936D01*
X157490000Y-49409420D02*
X157490000Y-49690580D01*
X158510000Y-49409420D02*
X158510000Y-49690580D01*
X160992164Y-41360000D02*
X161207836Y-41360000D01*
X160992164Y-40640000D02*
X161207836Y-40640000D01*
X161940580Y-45110000D02*
X161659420Y-45110000D01*
X161940580Y-44090000D02*
X161659420Y-44090000D01*
X161940580Y-46710000D02*
X161659420Y-46710000D01*
X161940580Y-45690000D02*
X161659420Y-45690000D01*
X148261252Y-39935000D02*
X147738748Y-39935000D01*
X148261252Y-38465000D02*
X147738748Y-38465000D01*
X169311252Y-55290000D02*
X167888748Y-55290000D01*
X169311252Y-57110000D02*
X167888748Y-57110000D01*
X159490000Y-48940580D02*
X159490000Y-48659420D01*
X160510000Y-48940580D02*
X160510000Y-48659420D01*
X218938748Y-54180000D02*
X220361252Y-54180000D01*
X218938748Y-52360000D02*
X220361252Y-52360000D01*
X218788748Y-56305000D02*
X219311252Y-56305000D01*
X218788748Y-54835000D02*
X219311252Y-54835000D01*
X204287258Y-44627500D02*
X203812742Y-44627500D01*
X204287258Y-45672500D02*
X203812742Y-45672500D01*
X203812742Y-43027500D02*
X204287258Y-43027500D01*
X203812742Y-44072500D02*
X204287258Y-44072500D01*
D10*
X191700000Y-48825000D02*
X191700000Y-50250000D01*
X198725000Y-41575000D02*
X198725000Y-41900000D01*
X198725000Y-48825000D02*
X198400000Y-48825000D01*
X191475000Y-48825000D02*
X191475000Y-48500000D01*
X198725000Y-41575000D02*
X198400000Y-41575000D01*
X191475000Y-41575000D02*
X191475000Y-41900000D01*
X191475000Y-41575000D02*
X191800000Y-41575000D01*
X198725000Y-48825000D02*
X198725000Y-48500000D01*
X191475000Y-48825000D02*
X191700000Y-48825000D01*
D14*
X208915000Y-46081252D02*
X208915000Y-45558748D01*
X210385000Y-46081252D02*
X210385000Y-45558748D01*
X191860000Y-53007836D02*
X191860000Y-52792164D01*
X191140000Y-53007836D02*
X191140000Y-52792164D01*
X197588748Y-39435000D02*
X198111252Y-39435000D01*
X197588748Y-37965000D02*
X198111252Y-37965000D01*
X198740000Y-52792164D02*
X198740000Y-53007836D01*
X199460000Y-52792164D02*
X199460000Y-53007836D01*
X200580000Y-24210000D02*
X200580000Y-28610000D01*
X203280000Y-33700000D02*
X203280000Y-32700000D01*
X203280000Y-32700000D02*
X202280000Y-33200000D01*
X200580000Y-28610000D02*
X200580000Y-28610000D01*
X192770000Y-38410000D02*
X192770000Y-22910000D01*
X200580000Y-32710000D02*
X200580000Y-37110000D01*
X201890000Y-38410000D02*
X192770000Y-38410000D01*
X200580000Y-37110000D02*
X194080000Y-37110000D01*
X192770000Y-22910000D02*
X201890000Y-22910000D01*
X194080000Y-37110000D02*
X194080000Y-24210000D01*
X200580000Y-28610000D02*
X201890000Y-28610000D01*
X201890000Y-22910000D02*
X201890000Y-38410000D01*
X201890000Y-32710000D02*
X200580000Y-32710000D01*
X194080000Y-24210000D02*
X200580000Y-24210000D01*
X202280000Y-33200000D02*
X203280000Y-33700000D01*
X192270000Y-34470000D02*
X207570000Y-34470000D01*
X192270000Y-37130000D02*
X192270000Y-34470000D01*
X207570000Y-37130000D02*
X207570000Y-34470000D01*
X192270000Y-37130000D02*
X207570000Y-37130000D01*
X189670000Y-37130000D02*
X189670000Y-35800000D01*
X191000000Y-37130000D02*
X189670000Y-37130000D01*
X198350000Y-54600000D02*
X198350000Y-51000000D01*
X192600000Y-54600000D02*
X198350000Y-54600000D01*
X198350000Y-51000000D02*
X192600000Y-51000000D01*
X190922500Y-39137258D02*
X190922500Y-38662742D01*
X189877500Y-39137258D02*
X189877500Y-38662742D01*
X188922500Y-39137258D02*
X188922500Y-38662742D01*
X187877500Y-39137258D02*
X187877500Y-38662742D01*
X205927500Y-45632742D02*
X205927500Y-46107258D01*
X206972500Y-45632742D02*
X206972500Y-46107258D01*
X188872500Y-43462742D02*
X188872500Y-43937258D01*
X187827500Y-43462742D02*
X187827500Y-43937258D01*
X188855000Y-57020000D02*
X188855000Y-54735000D01*
X187385000Y-54735000D02*
X187385000Y-57020000D01*
X188855000Y-54735000D02*
X187385000Y-54735000D01*
X214885000Y-36560000D02*
X214160000Y-36560000D01*
X218655000Y-41780000D02*
X219380000Y-41780000D01*
X219380000Y-41780000D02*
X219380000Y-41055000D01*
X214885000Y-41780000D02*
X214160000Y-41780000D01*
X218655000Y-36560000D02*
X219380000Y-36560000D01*
X214160000Y-41780000D02*
X214160000Y-41055000D01*
X219380000Y-36560000D02*
X219380000Y-37285000D01*
X219522936Y-33760000D02*
X220977064Y-33760000D01*
X219522936Y-35580000D02*
X220977064Y-35580000D01*
X214461252Y-44035000D02*
X213938748Y-44035000D01*
X214461252Y-45505000D02*
X213938748Y-45505000D01*
X208015000Y-40731252D02*
X208015000Y-40208748D01*
X209485000Y-40731252D02*
X209485000Y-40208748D01*
X188927500Y-52232742D02*
X188927500Y-52707258D01*
X189972500Y-52232742D02*
X189972500Y-52707258D01*
X161065000Y-49027064D02*
X161065000Y-48572936D01*
X162535000Y-49027064D02*
X162535000Y-48572936D01*
X155237258Y-32722500D02*
X154762742Y-32722500D01*
X155237258Y-31677500D02*
X154762742Y-31677500D01*
X160837258Y-42077500D02*
X160362742Y-42077500D01*
X160837258Y-43122500D02*
X160362742Y-43122500D01*
X150722500Y-49737258D02*
X150722500Y-49262742D01*
X149677500Y-49737258D02*
X149677500Y-49262742D01*
X152077500Y-49737258D02*
X152077500Y-49262742D01*
X153122500Y-49737258D02*
X153122500Y-49262742D01*
X153777500Y-49787258D02*
X153777500Y-49312742D01*
X154822500Y-49787258D02*
X154822500Y-49312742D01*
X168135000Y-27235000D02*
X165850000Y-27235000D01*
X165850000Y-28705000D02*
X168135000Y-28705000D01*
X168135000Y-28705000D02*
X168135000Y-27235000D01*
X164672500Y-32407258D02*
X164672500Y-31932742D01*
X163627500Y-32407258D02*
X163627500Y-31932742D01*
X161927500Y-32382258D02*
X161927500Y-31907742D01*
X162972500Y-32382258D02*
X162972500Y-31907742D01*
X168135000Y-30505000D02*
X168135000Y-29035000D01*
X168135000Y-29035000D02*
X165850000Y-29035000D01*
X165850000Y-30505000D02*
X168135000Y-30505000D01*
X203988748Y-42455000D02*
X204511252Y-42455000D01*
X203988748Y-40985000D02*
X204511252Y-40985000D01*
X204285000Y-59608748D02*
X204285000Y-60131252D01*
X202815000Y-59608748D02*
X202815000Y-60131252D01*
X204915000Y-59208748D02*
X204915000Y-59731252D01*
X206385000Y-59208748D02*
X206385000Y-59731252D01*
X197438748Y-57805000D02*
X197961252Y-57805000D01*
X197438748Y-56335000D02*
X197961252Y-56335000D01*
X200940000Y-55205000D02*
X200940000Y-55930000D01*
X200940000Y-50710000D02*
X201665000Y-50710000D01*
X200940000Y-51435000D02*
X200940000Y-50710000D01*
X206160000Y-51435000D02*
X206160000Y-50710000D01*
X206160000Y-50710000D02*
X205435000Y-50710000D01*
X206160000Y-55205000D02*
X206160000Y-55930000D01*
X206160000Y-55930000D02*
X205435000Y-55930000D01*
X207350000Y-43810000D02*
X225130000Y-43810000D01*
X225130000Y-53970000D02*
X207350000Y-53970000D01*
X225130000Y-43810000D02*
X225130000Y-53970000D01*
X207350000Y-53970000D02*
X207350000Y-43810000D01*
X208615000Y-35431252D02*
X208615000Y-34908748D01*
X210085000Y-35431252D02*
X210085000Y-34908748D01*
X222868748Y-36235000D02*
X223391252Y-36235000D01*
X222868748Y-37705000D02*
X223391252Y-37705000D01*
X224885000Y-54685000D02*
X223415000Y-54685000D01*
X224885000Y-56970000D02*
X224885000Y-54685000D01*
X223415000Y-54685000D02*
X223415000Y-56970000D01*
X201860000Y-64710000D02*
X201860000Y-64970000D01*
X194240000Y-64970000D02*
X194240000Y-64710000D01*
X201860000Y-60660000D02*
X201480000Y-60660000D01*
X201860000Y-60660000D02*
X201860000Y-62430000D01*
X194240000Y-62430000D02*
X194240000Y-60660000D01*
X194240000Y-60660000D02*
X194620000Y-60660000D01*
X204950000Y-29780000D02*
X204630000Y-29780000D01*
X207450000Y-26280000D02*
X207770000Y-26360000D01*
X202340000Y-24560000D02*
X215060000Y-24560000D01*
X207130000Y-29780000D02*
X207130000Y-26360000D01*
X211120000Y-30780000D02*
X211280000Y-30780000D01*
X204650000Y-33470000D02*
X205250000Y-33470000D01*
X202340000Y-32980000D02*
X202340000Y-24560000D01*
X207770000Y-26360000D02*
X207770000Y-29780000D01*
X203560000Y-29780000D02*
X213840000Y-29780000D01*
X203560000Y-25780000D02*
X203560000Y-30780000D01*
X209950000Y-29780000D02*
X209630000Y-29780000D01*
X213840000Y-30780000D02*
X215060000Y-30780000D01*
X212770000Y-29780000D02*
X212450000Y-29780000D01*
X207770000Y-29780000D02*
X207450000Y-29780000D01*
X207450000Y-29780000D02*
X207130000Y-29780000D01*
X204630000Y-26360000D02*
X204950000Y-26280000D01*
X209950000Y-26280000D02*
X210270000Y-26360000D01*
X203560000Y-32980000D02*
X202340000Y-32980000D01*
X212130000Y-26360000D02*
X212450000Y-26280000D01*
X205270000Y-29780000D02*
X204950000Y-29780000D01*
X203560000Y-30780000D02*
X202340000Y-30780000D01*
X204950000Y-32870000D02*
X204650000Y-33470000D01*
X208620000Y-30780000D02*
X208780000Y-30780000D01*
X206120000Y-30780000D02*
X206280000Y-30780000D01*
X207130000Y-26360000D02*
X207450000Y-26280000D01*
X203560000Y-30780000D02*
X203560000Y-32980000D01*
X205270000Y-26360000D02*
X205270000Y-29780000D01*
X215060000Y-25780000D02*
X213840000Y-25780000D01*
X212450000Y-29780000D02*
X212130000Y-29780000D01*
X212130000Y-29780000D02*
X212130000Y-26360000D01*
X204950000Y-26280000D02*
X205270000Y-26360000D01*
X202340000Y-25780000D02*
X203560000Y-25780000D01*
X210270000Y-26360000D02*
X210270000Y-29780000D01*
X205250000Y-33470000D02*
X204950000Y-32870000D01*
X204630000Y-29780000D02*
X204630000Y-26360000D01*
X215060000Y-32980000D02*
X213840000Y-32980000D01*
X209630000Y-29780000D02*
X209630000Y-26360000D01*
X210270000Y-29780000D02*
X209950000Y-29780000D01*
X212450000Y-26280000D02*
X212770000Y-26360000D01*
X215060000Y-24560000D02*
X215060000Y-32980000D01*
X212770000Y-26360000D02*
X212770000Y-29780000D01*
X213840000Y-25780000D02*
X213840000Y-30780000D01*
X213840000Y-32980000D02*
X213840000Y-30780000D01*
X209630000Y-26360000D02*
X209950000Y-26280000D01*
X216960000Y-57090000D02*
X206840000Y-57090000D01*
X216960000Y-66310000D02*
X206840000Y-66310000D01*
X216960000Y-66310000D02*
X216960000Y-64210000D01*
X217550000Y-61990000D02*
X216960000Y-61990000D01*
X206840000Y-66310000D02*
X206840000Y-64210000D01*
X216960000Y-61990000D02*
X216960000Y-57090000D01*
X206840000Y-61990000D02*
X206250000Y-61990000D01*
X217550000Y-64210000D02*
X216960000Y-64210000D01*
X206840000Y-64210000D02*
X206250000Y-64210000D01*
X206840000Y-61990000D02*
X206840000Y-57090000D01*
X206250000Y-61990000D02*
G75*
G03*
X206250000Y-64210000I0J-1110000D01*
G01*
X217550000Y-64210000D02*
G75*
G03*
X217550000Y-61990000I0J1110000D01*
G01*
X213977064Y-33760000D02*
X212522936Y-33760000D01*
X213977064Y-35580000D02*
X212522936Y-35580000D01*
X211485000Y-40208748D02*
X211485000Y-40731252D01*
X210015000Y-40208748D02*
X210015000Y-40731252D01*
X224550000Y-38770000D02*
X223950000Y-38770000D01*
X222750000Y-42770000D02*
X223150000Y-42770000D01*
X224550000Y-41670000D02*
X224550000Y-38770000D01*
X221150000Y-43270000D02*
X221850000Y-43270000D01*
X221350000Y-38770000D02*
X221950000Y-38770000D01*
X221150000Y-42570000D02*
X221150000Y-43270000D01*
X221350000Y-41670000D02*
X221350000Y-38770000D01*
X222027500Y-55932742D02*
X222027500Y-56407258D01*
X223072500Y-55932742D02*
X223072500Y-56407258D01*
M02*
