%TF.GenerationSoftware,KiCad,Pcbnew,(6.0.1-0)*%
%TF.CreationDate,2022-02-22T17:31:54+01:00*%
%TF.ProjectId,ethersweep,65746865-7273-4776-9565-702e6b696361,2.0.1*%
%TF.SameCoordinates,Original*%
%TF.FileFunction,Soldermask,Top*%
%TF.FilePolarity,Negative*%
%FSLAX46Y46*%
G04 Gerber Fmt 4.6, Leading zero omitted, Abs format (unit mm)*
G04 Created by KiCad (PCBNEW (6.0.1-0)) date 2022-02-22 17:31:54*
%MOMM*%
%LPD*%
G01*
G04 APERTURE LIST*
G04 Aperture macros list*
%AMRoundRect*
0 Rectangle with rounded corners*
0 $1 Rounding radius*
0 $2 $3 $4 $5 $6 $7 $8 $9 X,Y pos of 4 corners*
0 Add a 4 corners polygon primitive as box body*
4,1,4,$2,$3,$4,$5,$6,$7,$8,$9,$2,$3,0*
0 Add four circle primitives for the rounded corners*
1,1,$1+$1,$2,$3*
1,1,$1+$1,$4,$5*
1,1,$1+$1,$6,$7*
1,1,$1+$1,$8,$9*
0 Add four rect primitives between the rounded corners*
20,1,$1+$1,$2,$3,$4,$5,0*
20,1,$1+$1,$4,$5,$6,$7,0*
20,1,$1+$1,$6,$7,$8,$9,0*
20,1,$1+$1,$8,$9,$2,$3,0*%
G04 Aperture macros list end*
%TA.AperFunction,Profile*%
%ADD10C,0.150000*%
%TD*%
%ADD11RoundRect,0.191000X-0.140000X-0.170000X0.140000X-0.170000X0.140000X0.170000X-0.140000X0.170000X0*%
%ADD12RoundRect,0.191000X-0.170000X0.140000X-0.170000X-0.140000X0.170000X-0.140000X0.170000X0.140000X0*%
%ADD13RoundRect,0.301000X0.475000X-0.250000X0.475000X0.250000X-0.475000X0.250000X-0.475000X-0.250000X0*%
%ADD14RoundRect,0.269750X-0.218750X-0.381250X0.218750X-0.381250X0.218750X0.381250X-0.218750X0.381250X0*%
%ADD15C,3.352000*%
%ADD16RoundRect,0.051000X-0.699000X0.699000X-0.699000X-0.699000X0.699000X-0.699000X0.699000X0.699000X0*%
%ADD17C,1.500000*%
%ADD18C,1.632000*%
%ADD19C,2.547000*%
%ADD20C,0.902000*%
%ADD21C,6.502000*%
%ADD22RoundRect,0.251000X0.200000X0.275000X-0.200000X0.275000X-0.200000X-0.275000X0.200000X-0.275000X0*%
%ADD23RoundRect,0.051000X-0.700000X-0.600000X0.700000X-0.600000X0.700000X0.600000X-0.700000X0.600000X0*%
%ADD24RoundRect,0.126000X0.075000X-0.662500X0.075000X0.662500X-0.075000X0.662500X-0.075000X-0.662500X0*%
%ADD25RoundRect,0.126000X0.662500X-0.075000X0.662500X0.075000X-0.662500X0.075000X-0.662500X-0.075000X0*%
%ADD26RoundRect,0.276000X-0.225000X-0.250000X0.225000X-0.250000X0.225000X0.250000X-0.225000X0.250000X0*%
%ADD27RoundRect,0.191000X0.170000X-0.140000X0.170000X0.140000X-0.170000X0.140000X-0.170000X-0.140000X0*%
%ADD28RoundRect,0.301000X0.600000X0.750000X-0.600000X0.750000X-0.600000X-0.750000X0.600000X-0.750000X0*%
%ADD29O,1.802000X2.102000*%
%ADD30RoundRect,0.251000X0.275000X-0.200000X0.275000X0.200000X-0.275000X0.200000X-0.275000X-0.200000X0*%
%ADD31RoundRect,0.301000X0.250000X0.475000X-0.250000X0.475000X-0.250000X-0.475000X0.250000X-0.475000X0*%
%ADD32RoundRect,0.300998X0.450002X-0.262502X0.450002X0.262502X-0.450002X0.262502X-0.450002X-0.262502X0*%
%ADD33RoundRect,0.276000X-0.250000X0.225000X-0.250000X-0.225000X0.250000X-0.225000X0.250000X0.225000X0*%
%ADD34RoundRect,0.276000X0.225000X0.250000X-0.225000X0.250000X-0.225000X-0.250000X0.225000X-0.250000X0*%
%ADD35RoundRect,0.300999X0.325001X0.650001X-0.325001X0.650001X-0.325001X-0.650001X0.325001X-0.650001X0*%
%ADD36RoundRect,0.276000X0.250000X-0.225000X0.250000X0.225000X-0.250000X0.225000X-0.250000X-0.225000X0*%
%ADD37RoundRect,0.300999X-0.325001X-0.650001X0.325001X-0.650001X0.325001X0.650001X-0.325001X0.650001X0*%
%ADD38RoundRect,0.301000X-0.250000X-0.475000X0.250000X-0.475000X0.250000X0.475000X-0.250000X0.475000X0*%
%ADD39RoundRect,0.251000X-0.200000X-0.275000X0.200000X-0.275000X0.200000X0.275000X-0.200000X0.275000X0*%
%ADD40RoundRect,0.051000X0.275000X-0.800000X0.275000X0.800000X-0.275000X0.800000X-0.275000X-0.800000X0*%
%ADD41RoundRect,0.051000X0.800000X0.275000X-0.800000X0.275000X-0.800000X-0.275000X0.800000X-0.275000X0*%
%ADD42RoundRect,0.301000X0.600000X0.600000X-0.600000X0.600000X-0.600000X-0.600000X0.600000X-0.600000X0*%
%ADD43C,1.802000*%
%ADD44RoundRect,0.051000X0.850000X-0.850000X0.850000X0.850000X-0.850000X0.850000X-0.850000X-0.850000X0*%
%ADD45O,1.802000X1.802000*%
%ADD46RoundRect,0.051000X1.000000X1.200000X-1.000000X1.200000X-1.000000X-1.200000X1.000000X-1.200000X0*%
%ADD47RoundRect,0.251000X-0.275000X0.200000X-0.275000X-0.200000X0.275000X-0.200000X0.275000X0.200000X0*%
%ADD48RoundRect,0.269750X-0.256250X0.218750X-0.256250X-0.218750X0.256250X-0.218750X0.256250X0.218750X0*%
%ADD49RoundRect,0.113500X-0.425000X-0.062500X0.425000X-0.062500X0.425000X0.062500X-0.425000X0.062500X0*%
%ADD50RoundRect,0.113500X-0.062500X-0.425000X0.062500X-0.425000X0.062500X0.425000X-0.062500X0.425000X0*%
%ADD51RoundRect,0.051000X-1.625000X-1.625000X1.625000X-1.625000X1.625000X1.625000X-1.625000X1.625000X0*%
%ADD52RoundRect,0.300997X-0.312503X-0.625003X0.312503X-0.625003X0.312503X0.625003X-0.312503X0.625003X0*%
%ADD53RoundRect,0.269750X0.218750X0.256250X-0.218750X0.256250X-0.218750X-0.256250X0.218750X-0.256250X0*%
%ADD54RoundRect,0.301000X-0.475000X0.250000X-0.475000X-0.250000X0.475000X-0.250000X0.475000X0.250000X0*%
%ADD55RoundRect,0.113500X0.062500X-0.337500X0.062500X0.337500X-0.062500X0.337500X-0.062500X-0.337500X0*%
%ADD56RoundRect,0.113500X0.337500X-0.062500X0.337500X0.062500X-0.337500X0.062500X-0.337500X-0.062500X0*%
%ADD57RoundRect,0.051000X1.675000X-1.675000X1.675000X1.675000X-1.675000X1.675000X-1.675000X-1.675000X0*%
%ADD58C,1.626000*%
%ADD59RoundRect,0.051000X-0.225000X-0.690000X0.225000X-0.690000X0.225000X0.690000X-0.225000X0.690000X0*%
%ADD60RoundRect,0.051000X-0.500000X-0.950000X0.500000X-0.950000X0.500000X0.950000X-0.500000X0.950000X0*%
%ADD61RoundRect,0.051000X-0.712500X-0.775000X0.712500X-0.775000X0.712500X0.775000X-0.712500X0.775000X0*%
%ADD62RoundRect,0.051000X-0.825000X-0.650000X0.825000X-0.650000X0.825000X0.650000X-0.825000X0.650000X0*%
%ADD63RoundRect,0.051000X-0.900000X-0.950000X0.900000X-0.950000X0.900000X0.950000X-0.900000X0.950000X0*%
%ADD64RoundRect,0.301000X-0.600000X-0.725000X0.600000X-0.725000X0.600000X0.725000X-0.600000X0.725000X0*%
%ADD65O,1.802000X2.052000*%
%ADD66C,1.502000*%
%ADD67RoundRect,0.051000X1.750000X1.750000X-1.750000X1.750000X-1.750000X-1.750000X1.750000X-1.750000X0*%
%ADD68C,3.602000*%
%ADD69RoundRect,0.300997X0.312503X0.625003X-0.312503X0.625003X-0.312503X-0.625003X0.312503X-0.625003X0*%
%ADD70RoundRect,0.051000X0.600000X-0.600000X0.600000X0.600000X-0.600000X0.600000X-0.600000X-0.600000X0*%
%ADD71RoundRect,0.051000X0.800000X-0.750000X0.800000X0.750000X-0.800000X0.750000X-0.800000X-0.750000X0*%
%ADD72RoundRect,0.301000X-0.600000X-0.600000X0.600000X-0.600000X0.600000X0.600000X-0.600000X0.600000X0*%
%ADD73RoundRect,0.051000X0.850000X0.850000X-0.850000X0.850000X-0.850000X-0.850000X0.850000X-0.850000X0*%
G04 APERTURE END LIST*
D10*
X184100000Y-31800000D02*
X184100000Y-30200000D01*
X184100000Y-60700000D02*
X184100000Y-59400000D01*
X180600000Y-26700000D02*
X149600000Y-26700000D01*
X149600000Y-26700000D02*
G75*
G03*
X146100000Y-30200000I-1J-3499999D01*
G01*
X184100000Y-30200000D02*
G75*
G03*
X180600000Y-26700000I-3499999J1D01*
G01*
X180600000Y-64700000D02*
G75*
G03*
X184100000Y-61200000I1J3499999D01*
G01*
X146100000Y-30200000D02*
X146100000Y-61200000D01*
X149600000Y-64700000D02*
X180600000Y-64700000D01*
X146100000Y-61200000D02*
G75*
G03*
X149600000Y-64700000I3499999J-1D01*
G01*
X184100000Y-61200000D02*
X184100000Y-60700000D01*
X225100000Y-61200000D02*
X225100000Y-30200000D01*
X190600000Y-64700000D02*
X221600000Y-64700000D01*
X187100000Y-61200000D02*
G75*
G03*
X190600000Y-64700000I3499999J-1D01*
G01*
X221600000Y-64700000D02*
G75*
G03*
X225100000Y-61200000I1J3499999D01*
G01*
X190600000Y-26700000D02*
G75*
G03*
X187100000Y-30200000I-1J-3499999D01*
G01*
X190600000Y-26700000D02*
X221600000Y-26700000D01*
X187100000Y-30200000D02*
X187100000Y-30700000D01*
X187100000Y-61200000D02*
X187100000Y-59400000D01*
X187100000Y-31800000D02*
X187100000Y-30700000D01*
X225100000Y-30200000D02*
G75*
G03*
X221600000Y-26700000I-3499999J1D01*
G01*
X184099404Y-31800002D02*
G75*
G03*
X187100000Y-31800000I1500298J-298D01*
G01*
X187100596Y-59399998D02*
G75*
G03*
X184100000Y-59400000I-1500298J298D01*
G01*
X184100000Y-31800000D02*
X184100000Y-30200000D01*
X184100000Y-60700000D02*
X184100000Y-59400000D01*
X180600000Y-26700000D02*
X149600000Y-26700000D01*
X149600000Y-26700000D02*
G75*
G03*
X146100000Y-30200000I-1J-3499999D01*
G01*
X184100000Y-30200000D02*
G75*
G03*
X180600000Y-26700000I-3499999J1D01*
G01*
X180600000Y-64700000D02*
G75*
G03*
X184100000Y-61200000I1J3499999D01*
G01*
X146100000Y-30200000D02*
X146100000Y-61200000D01*
X149600000Y-64700000D02*
X180600000Y-64700000D01*
X146100000Y-61200000D02*
G75*
G03*
X149600000Y-64700000I3499999J-1D01*
G01*
X184100000Y-61200000D02*
X184100000Y-60700000D01*
X225100000Y-61200000D02*
X225100000Y-30200000D01*
X190600000Y-64700000D02*
X221600000Y-64700000D01*
X187100000Y-61200000D02*
G75*
G03*
X190600000Y-64700000I3499999J-1D01*
G01*
X221600000Y-64700000D02*
G75*
G03*
X225100000Y-61200000I1J3499999D01*
G01*
X190600000Y-26700000D02*
G75*
G03*
X187100000Y-30200000I-1J-3499999D01*
G01*
X190600000Y-26700000D02*
X221600000Y-26700000D01*
X187100000Y-30200000D02*
X187100000Y-30700000D01*
X187100000Y-61200000D02*
X187100000Y-59400000D01*
X187100000Y-31800000D02*
X187100000Y-30700000D01*
X225100000Y-30200000D02*
G75*
G03*
X221600000Y-26700000I-3499999J1D01*
G01*
X184099404Y-31800002D02*
G75*
G03*
X187100000Y-31800000I1500298J-298D01*
G01*
X187100596Y-59399998D02*
G75*
G03*
X184100000Y-59400000I-1500298J298D01*
G01*
D11*
X157720000Y-44300000D03*
X158680000Y-44300000D03*
D12*
X150500000Y-42320000D03*
X150500000Y-43280000D03*
D13*
X160300000Y-34450000D03*
X160300000Y-32550000D03*
D14*
X149137500Y-54000000D03*
X151262500Y-54000000D03*
D15*
X174350000Y-51415000D03*
X174350000Y-39985000D03*
D16*
X168000000Y-50150000D03*
D17*
X165460000Y-48880000D03*
X168000000Y-47610000D03*
X165460000Y-46340000D03*
X168000000Y-45070000D03*
X165460000Y-43800000D03*
X168000000Y-42530000D03*
X165460000Y-41260000D03*
D18*
X179250000Y-52325000D03*
X179250000Y-49785000D03*
X179250000Y-41615000D03*
X179250000Y-39075000D03*
D19*
X171300000Y-53445000D03*
X171300000Y-37955000D03*
D20*
X182297056Y-31897056D03*
X180600000Y-32600000D03*
X180600000Y-27800000D03*
X178902944Y-28502944D03*
D21*
X180600000Y-30200000D03*
D20*
X178902944Y-31897056D03*
X183000000Y-30200000D03*
X178200000Y-30200000D03*
X182297056Y-28502944D03*
X149600000Y-32600000D03*
X149600000Y-27800000D03*
X147902944Y-28502944D03*
D21*
X149600000Y-30200000D03*
D20*
X151297056Y-31897056D03*
X151297056Y-28502944D03*
X147902944Y-31897056D03*
X152000000Y-30200000D03*
X147200000Y-30200000D03*
X147902944Y-59502944D03*
X151297056Y-62897056D03*
X147200000Y-61200000D03*
X149600000Y-58800000D03*
X151297056Y-59502944D03*
X152000000Y-61200000D03*
X149600000Y-63600000D03*
D21*
X149600000Y-61200000D03*
D20*
X147902944Y-62897056D03*
X182297056Y-59502944D03*
X180600000Y-58800000D03*
X180600000Y-63600000D03*
X178902944Y-62897056D03*
X183000000Y-61200000D03*
D21*
X180600000Y-61200000D03*
D20*
X182297056Y-62897056D03*
X178200000Y-61200000D03*
X178902944Y-59502944D03*
D22*
X177625000Y-56400000D03*
X175975000Y-56400000D03*
D23*
X155300000Y-30350000D03*
X157500000Y-30350000D03*
X157500000Y-28650000D03*
X155300000Y-28650000D03*
D11*
X160640000Y-37550000D03*
X161600000Y-37550000D03*
D24*
X152150000Y-42662500D03*
X152650000Y-42662500D03*
X153150000Y-42662500D03*
X153650000Y-42662500D03*
X154150000Y-42662500D03*
X154650000Y-42662500D03*
X155150000Y-42662500D03*
X155650000Y-42662500D03*
X156150000Y-42662500D03*
X156650000Y-42662500D03*
X157150000Y-42662500D03*
X157650000Y-42662500D03*
D25*
X159062500Y-41250000D03*
X159062500Y-40750000D03*
X159062500Y-40250000D03*
X159062500Y-39750000D03*
X159062500Y-39250000D03*
X159062500Y-38750000D03*
X159062500Y-38250000D03*
X159062500Y-37750000D03*
X159062500Y-37250000D03*
X159062500Y-36750000D03*
X159062500Y-36250000D03*
X159062500Y-35750000D03*
D24*
X157650000Y-34337500D03*
X157150000Y-34337500D03*
X156650000Y-34337500D03*
X156150000Y-34337500D03*
X155650000Y-34337500D03*
X155150000Y-34337500D03*
X154650000Y-34337500D03*
X154150000Y-34337500D03*
X153650000Y-34337500D03*
X153150000Y-34337500D03*
X152650000Y-34337500D03*
X152150000Y-34337500D03*
D25*
X150737500Y-35750000D03*
X150737500Y-36250000D03*
X150737500Y-36750000D03*
X150737500Y-37250000D03*
X150737500Y-37750000D03*
X150737500Y-38250000D03*
X150737500Y-38750000D03*
X150737500Y-39250000D03*
X150737500Y-39750000D03*
X150737500Y-40250000D03*
X150737500Y-40750000D03*
X150737500Y-41250000D03*
D26*
X160925000Y-36250000D03*
X162475000Y-36250000D03*
D22*
X177625000Y-54800000D03*
X175975000Y-54800000D03*
D27*
X153700000Y-30280000D03*
X153700000Y-29320000D03*
X159100000Y-30280000D03*
X159100000Y-29320000D03*
D28*
X158900000Y-59400000D03*
D29*
X156400000Y-59400000D03*
D28*
X166800000Y-59400000D03*
D29*
X164300000Y-59400000D03*
D30*
X169600000Y-31625000D03*
X169600000Y-29975000D03*
D31*
X148950000Y-37200000D03*
X147050000Y-37200000D03*
D27*
X158700000Y-34080000D03*
X158700000Y-33120000D03*
D11*
X161520000Y-39900000D03*
X162480000Y-39900000D03*
X160620000Y-38900000D03*
X161580000Y-38900000D03*
D30*
X156200000Y-50375000D03*
X156200000Y-48725000D03*
D32*
X156200000Y-47162500D03*
X156200000Y-45337500D03*
X154300000Y-47162500D03*
X154300000Y-45337500D03*
X152400000Y-47162500D03*
X152400000Y-45337500D03*
X150500000Y-47162500D03*
X150500000Y-45337500D03*
D33*
X158000000Y-48775000D03*
X158000000Y-50325000D03*
D11*
X160620000Y-41000000D03*
X161580000Y-41000000D03*
D34*
X162575000Y-44600000D03*
X161025000Y-44600000D03*
X162575000Y-46200000D03*
X161025000Y-46200000D03*
D31*
X148950000Y-39200000D03*
X147050000Y-39200000D03*
D35*
X170075000Y-56200000D03*
X167125000Y-56200000D03*
D36*
X160000000Y-49575000D03*
X160000000Y-48025000D03*
D37*
X218175000Y-53270000D03*
X221125000Y-53270000D03*
D38*
X218100000Y-55570000D03*
X220000000Y-55570000D03*
D22*
X204875000Y-45150000D03*
X203225000Y-45150000D03*
D39*
X203225000Y-43550000D03*
X204875000Y-43550000D03*
D40*
X192300000Y-49450000D03*
X193100000Y-49450000D03*
X193900000Y-49450000D03*
X194700000Y-49450000D03*
X195500000Y-49450000D03*
X196300000Y-49450000D03*
X197100000Y-49450000D03*
X197900000Y-49450000D03*
D41*
X199350000Y-48000000D03*
X199350000Y-47200000D03*
X199350000Y-46400000D03*
X199350000Y-45600000D03*
X199350000Y-44800000D03*
X199350000Y-44000000D03*
X199350000Y-43200000D03*
X199350000Y-42400000D03*
D40*
X197900000Y-40950000D03*
X197100000Y-40950000D03*
X196300000Y-40950000D03*
X195500000Y-40950000D03*
X194700000Y-40950000D03*
X193900000Y-40950000D03*
X193100000Y-40950000D03*
X192300000Y-40950000D03*
D41*
X190850000Y-42400000D03*
X190850000Y-43200000D03*
X190850000Y-44000000D03*
X190850000Y-44800000D03*
X190850000Y-45600000D03*
X190850000Y-46400000D03*
X190850000Y-47200000D03*
X190850000Y-48000000D03*
D13*
X209650000Y-46770000D03*
X209650000Y-44870000D03*
D20*
X193000000Y-30200000D03*
D21*
X190600000Y-30200000D03*
D20*
X192297056Y-31897056D03*
X190600000Y-32600000D03*
X188200000Y-30200000D03*
X190600000Y-27800000D03*
X192297056Y-28502944D03*
X188902944Y-28502944D03*
X188902944Y-31897056D03*
D27*
X191500000Y-53380000D03*
X191500000Y-52420000D03*
D38*
X196900000Y-38700000D03*
X198800000Y-38700000D03*
D12*
X199100000Y-52420000D03*
X199100000Y-53380000D03*
D20*
X223297056Y-31897056D03*
D21*
X221600000Y-30200000D03*
D20*
X221600000Y-32600000D03*
X219200000Y-30200000D03*
X224000000Y-30200000D03*
X219902944Y-28502944D03*
X221600000Y-27800000D03*
X219902944Y-31897056D03*
X223297056Y-28502944D03*
X188902944Y-62897056D03*
X192297056Y-59502944D03*
D21*
X190600000Y-61200000D03*
D20*
X188902944Y-59502944D03*
X193000000Y-61200000D03*
X190600000Y-63600000D03*
X192297056Y-62897056D03*
X190600000Y-58800000D03*
X188200000Y-61200000D03*
D42*
X198600000Y-33200000D03*
D43*
X196060000Y-33200000D03*
X198600000Y-30660000D03*
X196060000Y-30660000D03*
X198600000Y-28120000D03*
X196060000Y-28120000D03*
D20*
X219200000Y-61175001D03*
X224000000Y-61175001D03*
X219902944Y-59477945D03*
X219902944Y-62872057D03*
D21*
X221600000Y-61175001D03*
D20*
X223297056Y-62872057D03*
X223297056Y-59477945D03*
X221600000Y-58775001D03*
X221600000Y-63575001D03*
D44*
X191000000Y-35800000D03*
D45*
X193540000Y-35800000D03*
X196080000Y-35800000D03*
X198620000Y-35800000D03*
X201160000Y-35800000D03*
X203700000Y-35800000D03*
X206240000Y-35800000D03*
D46*
X197150000Y-52800000D03*
X193450000Y-52800000D03*
D30*
X190400000Y-39725000D03*
X190400000Y-38075000D03*
X188400000Y-39725000D03*
X188400000Y-38075000D03*
D47*
X206450000Y-45045000D03*
X206450000Y-46695000D03*
X188350000Y-42875000D03*
X188350000Y-44525000D03*
D48*
X188120000Y-55432500D03*
X188120000Y-57007500D03*
D49*
X214407500Y-37670000D03*
X214407500Y-38170000D03*
X214407500Y-38670000D03*
X214407500Y-39170000D03*
X214407500Y-39670000D03*
X214407500Y-40170000D03*
X214407500Y-40670000D03*
D50*
X215270000Y-41532500D03*
X215770000Y-41532500D03*
X216270000Y-41532500D03*
X216770000Y-41532500D03*
X217270000Y-41532500D03*
X217770000Y-41532500D03*
X218270000Y-41532500D03*
D49*
X219132500Y-40670000D03*
X219132500Y-40170000D03*
X219132500Y-39670000D03*
X219132500Y-39170000D03*
X219132500Y-38670000D03*
X219132500Y-38170000D03*
X219132500Y-37670000D03*
D50*
X218270000Y-36807500D03*
X217770000Y-36807500D03*
X217270000Y-36807500D03*
X216770000Y-36807500D03*
X216270000Y-36807500D03*
X215770000Y-36807500D03*
X215270000Y-36807500D03*
D51*
X216770000Y-39170000D03*
D52*
X218787500Y-34670000D03*
X221712500Y-34670000D03*
D31*
X215150000Y-44770000D03*
X213250000Y-44770000D03*
D13*
X208750000Y-41420000D03*
X208750000Y-39520000D03*
D47*
X189450000Y-51645000D03*
X189450000Y-53295000D03*
D32*
X161800000Y-49712500D03*
X161800000Y-47887500D03*
D22*
X155825000Y-32200000D03*
X154175000Y-32200000D03*
X161425000Y-42600000D03*
X159775000Y-42600000D03*
D30*
X150200000Y-50325000D03*
X150200000Y-48675000D03*
X152600000Y-50325000D03*
X152600000Y-48675000D03*
X154300000Y-50375000D03*
X154300000Y-48725000D03*
D53*
X167437500Y-27970000D03*
X165862500Y-27970000D03*
D30*
X164150000Y-32995000D03*
X164150000Y-31345000D03*
X162450000Y-32970000D03*
X162450000Y-31320000D03*
D53*
X167437500Y-29770000D03*
X165862500Y-29770000D03*
D38*
X203300000Y-41720000D03*
X205200000Y-41720000D03*
D54*
X203550000Y-58920000D03*
X203550000Y-60820000D03*
X205650000Y-58520000D03*
X205650000Y-60420000D03*
D38*
X196750000Y-57070000D03*
X198650000Y-57070000D03*
D55*
X202050000Y-55770000D03*
X202550000Y-55770000D03*
X203050000Y-55770000D03*
X203550000Y-55770000D03*
X204050000Y-55770000D03*
X204550000Y-55770000D03*
X205050000Y-55770000D03*
D56*
X206000000Y-54820000D03*
X206000000Y-54320000D03*
X206000000Y-53820000D03*
X206000000Y-53320000D03*
X206000000Y-52820000D03*
X206000000Y-52320000D03*
X206000000Y-51820000D03*
D55*
X205050000Y-50870000D03*
X204550000Y-50870000D03*
X204050000Y-50870000D03*
X203550000Y-50870000D03*
X203050000Y-50870000D03*
X202550000Y-50870000D03*
X202050000Y-50870000D03*
D56*
X201100000Y-51820000D03*
X201100000Y-52320000D03*
X201100000Y-52820000D03*
X201100000Y-53320000D03*
X201100000Y-53820000D03*
X201100000Y-54320000D03*
X201100000Y-54820000D03*
D57*
X203550000Y-53320000D03*
D58*
X223860000Y-51430000D03*
X223860000Y-48890000D03*
X223860000Y-46350000D03*
D13*
X209350000Y-36120000D03*
X209350000Y-34220000D03*
D38*
X222180000Y-36970000D03*
X224080000Y-36970000D03*
D48*
X224150000Y-55382500D03*
X224150000Y-56957500D03*
D59*
X196750000Y-60910000D03*
X197400000Y-60910000D03*
X198050000Y-60910000D03*
X198700000Y-60910000D03*
X199350000Y-60910000D03*
D60*
X199600000Y-63570000D03*
D61*
X195562500Y-60995000D03*
D62*
X194675000Y-63570000D03*
D61*
X200537500Y-60995000D03*
D63*
X196900000Y-63570000D03*
D62*
X201425000Y-63570000D03*
D64*
X204950000Y-31370000D03*
D65*
X207450000Y-31370000D03*
X209950000Y-31370000D03*
X212450000Y-31370000D03*
D66*
X217400000Y-63100000D03*
X206400000Y-63100000D03*
D67*
X209400000Y-53100000D03*
D68*
X214400000Y-53100000D03*
D69*
X214712500Y-34670000D03*
X211787500Y-34670000D03*
D54*
X210750000Y-39520000D03*
X210750000Y-41420000D03*
D70*
X221950000Y-42470000D03*
D71*
X222950000Y-39220000D03*
D70*
X223950000Y-42470000D03*
D47*
X222550000Y-55345000D03*
X222550000Y-56995000D03*
D72*
X172600000Y-33200000D03*
D43*
X175140000Y-33200000D03*
X172600000Y-30660000D03*
X175140000Y-30660000D03*
X172600000Y-28120000D03*
X175140000Y-28120000D03*
D73*
X147600000Y-41900000D03*
D45*
X147600000Y-44440000D03*
X147600000Y-46980000D03*
X147600000Y-49520000D03*
D44*
X180200000Y-35800000D03*
D45*
X177660000Y-35800000D03*
X175120000Y-35800000D03*
X172580000Y-35800000D03*
X170040000Y-35800000D03*
X167500000Y-35800000D03*
X164960000Y-35800000D03*
G36*
X196315660Y-60187493D02*
G01*
X196329452Y-60196709D01*
X196330615Y-60194969D01*
X196332409Y-60194084D01*
X196333560Y-60194545D01*
X196350952Y-60209078D01*
X196419670Y-60217704D01*
X196467288Y-60194918D01*
X196469282Y-60195072D01*
X196469814Y-60195611D01*
X196470548Y-60196709D01*
X196484340Y-60187493D01*
X196486336Y-60187362D01*
X196487447Y-60189025D01*
X196487114Y-60190267D01*
X196479767Y-60201262D01*
X196476000Y-60220199D01*
X196476000Y-61599801D01*
X196479767Y-61618738D01*
X196490380Y-61634620D01*
X196501376Y-61641968D01*
X196502261Y-61643762D01*
X196501150Y-61645425D01*
X196499875Y-61645593D01*
X196483605Y-61642357D01*
X196483585Y-61642460D01*
X196482266Y-61643964D01*
X196481025Y-61643979D01*
X196453196Y-61635264D01*
X196386406Y-61653585D01*
X196340077Y-61705159D01*
X196330777Y-61746142D01*
X196330216Y-61746748D01*
X196327962Y-61758080D01*
X196326643Y-61759584D01*
X196324681Y-61759194D01*
X196324000Y-61757690D01*
X196324000Y-60220199D01*
X196320233Y-60201262D01*
X196312886Y-60190267D01*
X196312755Y-60188271D01*
X196314418Y-60187160D01*
X196315660Y-60187493D01*
G37*
G36*
X199615660Y-60187493D02*
G01*
X199629452Y-60196709D01*
X199630615Y-60194969D01*
X199632409Y-60194084D01*
X199633560Y-60194545D01*
X199650952Y-60209078D01*
X199719670Y-60217704D01*
X199767288Y-60194918D01*
X199769282Y-60195072D01*
X199769814Y-60195611D01*
X199770548Y-60196709D01*
X199784340Y-60187493D01*
X199786336Y-60187362D01*
X199787447Y-60189025D01*
X199787114Y-60190267D01*
X199779767Y-60201262D01*
X199776000Y-60220199D01*
X199776000Y-61757681D01*
X199775000Y-61759413D01*
X199773000Y-61759413D01*
X199772038Y-61758071D01*
X199769942Y-61747534D01*
X199768885Y-61747175D01*
X199768470Y-61746419D01*
X199752405Y-61691707D01*
X199700062Y-61646352D01*
X199631443Y-61636486D01*
X199615986Y-61642409D01*
X199615660Y-61642503D01*
X199600126Y-61645592D01*
X199598232Y-61644949D01*
X199597842Y-61642987D01*
X199598625Y-61641967D01*
X199609620Y-61634620D01*
X199620233Y-61618738D01*
X199624000Y-61599801D01*
X199624000Y-60220199D01*
X199620233Y-60201262D01*
X199612886Y-60190267D01*
X199612755Y-60188271D01*
X199614418Y-60187160D01*
X199615660Y-60187493D01*
G37*
G36*
X199089633Y-60183517D02*
G01*
X199090197Y-60185436D01*
X199089916Y-60186075D01*
X199079767Y-60201263D01*
X199076000Y-60220199D01*
X199076000Y-61599801D01*
X199079767Y-61618738D01*
X199089814Y-61633773D01*
X199089945Y-61635768D01*
X199088282Y-61636880D01*
X199087553Y-61636793D01*
X199027212Y-61617898D01*
X198962310Y-61636955D01*
X198960367Y-61636483D01*
X198959803Y-61634564D01*
X198960084Y-61633925D01*
X198970233Y-61618737D01*
X198974000Y-61599801D01*
X198974000Y-60220199D01*
X198970233Y-60201262D01*
X198960186Y-60186227D01*
X198960055Y-60184232D01*
X198961718Y-60183120D01*
X198962447Y-60183207D01*
X199022788Y-60202102D01*
X199087690Y-60183045D01*
X199089633Y-60183517D01*
G37*
G36*
X198439633Y-60183517D02*
G01*
X198440197Y-60185436D01*
X198439916Y-60186075D01*
X198429767Y-60201263D01*
X198426000Y-60220199D01*
X198426000Y-61599801D01*
X198429767Y-61618738D01*
X198439814Y-61633773D01*
X198439945Y-61635768D01*
X198438282Y-61636880D01*
X198437553Y-61636793D01*
X198377212Y-61617898D01*
X198312310Y-61636955D01*
X198310367Y-61636483D01*
X198309803Y-61634564D01*
X198310084Y-61633925D01*
X198320233Y-61618737D01*
X198324000Y-61599801D01*
X198324000Y-60220199D01*
X198320233Y-60201262D01*
X198310186Y-60186227D01*
X198310055Y-60184232D01*
X198311718Y-60183120D01*
X198312447Y-60183207D01*
X198372788Y-60202102D01*
X198437690Y-60183045D01*
X198439633Y-60183517D01*
G37*
G36*
X197789633Y-60183517D02*
G01*
X197790197Y-60185436D01*
X197789916Y-60186075D01*
X197779767Y-60201263D01*
X197776000Y-60220199D01*
X197776000Y-61599801D01*
X197779767Y-61618738D01*
X197789814Y-61633773D01*
X197789945Y-61635768D01*
X197788282Y-61636880D01*
X197787553Y-61636793D01*
X197727212Y-61617898D01*
X197662310Y-61636955D01*
X197660367Y-61636483D01*
X197659803Y-61634564D01*
X197660084Y-61633925D01*
X197670233Y-61618737D01*
X197674000Y-61599801D01*
X197674000Y-60220199D01*
X197670233Y-60201262D01*
X197660186Y-60186227D01*
X197660055Y-60184232D01*
X197661718Y-60183120D01*
X197662447Y-60183207D01*
X197722788Y-60202102D01*
X197787690Y-60183045D01*
X197789633Y-60183517D01*
G37*
G36*
X197139633Y-60183517D02*
G01*
X197140197Y-60185436D01*
X197139916Y-60186075D01*
X197129767Y-60201263D01*
X197126000Y-60220199D01*
X197126000Y-61599801D01*
X197129767Y-61618738D01*
X197139814Y-61633773D01*
X197139945Y-61635768D01*
X197138282Y-61636880D01*
X197137553Y-61636793D01*
X197077212Y-61617898D01*
X197012310Y-61636955D01*
X197010367Y-61636483D01*
X197009803Y-61634564D01*
X197010084Y-61633925D01*
X197020233Y-61618737D01*
X197024000Y-61599801D01*
X197024000Y-60220199D01*
X197020233Y-60201262D01*
X197010186Y-60186227D01*
X197010055Y-60184232D01*
X197011718Y-60183120D01*
X197012447Y-60183207D01*
X197072788Y-60202102D01*
X197137690Y-60183045D01*
X197139633Y-60183517D01*
G37*
G36*
X202203894Y-55365456D02*
G01*
X202250945Y-55404777D01*
X202319661Y-55413408D01*
X202382291Y-55383444D01*
X202389798Y-55374781D01*
X202391688Y-55374127D01*
X202393199Y-55375437D01*
X202392972Y-55377202D01*
X202384525Y-55389844D01*
X202376000Y-55432699D01*
X202376000Y-56107301D01*
X202384525Y-56150156D01*
X202399052Y-56171898D01*
X202399183Y-56173894D01*
X202397520Y-56175005D01*
X202396106Y-56174544D01*
X202349055Y-56135223D01*
X202280339Y-56126592D01*
X202217709Y-56156556D01*
X202210202Y-56165219D01*
X202208312Y-56165873D01*
X202206801Y-56164563D01*
X202207028Y-56162798D01*
X202215475Y-56150156D01*
X202224000Y-56107301D01*
X202224000Y-55432699D01*
X202215475Y-55389844D01*
X202200948Y-55368102D01*
X202200817Y-55366106D01*
X202202480Y-55364995D01*
X202203894Y-55365456D01*
G37*
G36*
X203203894Y-55365456D02*
G01*
X203250945Y-55404777D01*
X203319661Y-55413408D01*
X203382291Y-55383444D01*
X203389798Y-55374781D01*
X203391688Y-55374127D01*
X203393199Y-55375437D01*
X203392972Y-55377202D01*
X203384525Y-55389844D01*
X203376000Y-55432699D01*
X203376000Y-56107301D01*
X203384525Y-56150156D01*
X203399052Y-56171898D01*
X203399183Y-56173894D01*
X203397520Y-56175005D01*
X203396106Y-56174544D01*
X203349055Y-56135223D01*
X203280339Y-56126592D01*
X203217709Y-56156556D01*
X203210202Y-56165219D01*
X203208312Y-56165873D01*
X203206801Y-56164563D01*
X203207028Y-56162798D01*
X203215475Y-56150156D01*
X203224000Y-56107301D01*
X203224000Y-55432699D01*
X203215475Y-55389844D01*
X203200948Y-55368102D01*
X203200817Y-55366106D01*
X203202480Y-55364995D01*
X203203894Y-55365456D01*
G37*
G36*
X204703894Y-55365456D02*
G01*
X204750945Y-55404777D01*
X204819661Y-55413408D01*
X204882291Y-55383444D01*
X204889798Y-55374781D01*
X204891688Y-55374127D01*
X204893199Y-55375437D01*
X204892972Y-55377202D01*
X204884525Y-55389844D01*
X204876000Y-55432699D01*
X204876000Y-56107301D01*
X204884525Y-56150156D01*
X204899052Y-56171898D01*
X204899183Y-56173894D01*
X204897520Y-56175005D01*
X204896106Y-56174544D01*
X204849055Y-56135223D01*
X204780339Y-56126592D01*
X204717709Y-56156556D01*
X204710202Y-56165219D01*
X204708312Y-56165873D01*
X204706801Y-56164563D01*
X204707028Y-56162798D01*
X204715475Y-56150156D01*
X204724000Y-56107301D01*
X204724000Y-55432699D01*
X204715475Y-55389844D01*
X204700948Y-55368102D01*
X204700817Y-55366106D01*
X204702480Y-55364995D01*
X204703894Y-55365456D01*
G37*
G36*
X203703894Y-55365456D02*
G01*
X203750945Y-55404777D01*
X203819661Y-55413408D01*
X203882291Y-55383444D01*
X203889798Y-55374781D01*
X203891688Y-55374127D01*
X203893199Y-55375437D01*
X203892972Y-55377202D01*
X203884525Y-55389844D01*
X203876000Y-55432699D01*
X203876000Y-56107301D01*
X203884525Y-56150156D01*
X203899052Y-56171898D01*
X203899183Y-56173894D01*
X203897520Y-56175005D01*
X203896106Y-56174544D01*
X203849055Y-56135223D01*
X203780339Y-56126592D01*
X203717709Y-56156556D01*
X203710202Y-56165219D01*
X203708312Y-56165873D01*
X203706801Y-56164563D01*
X203707028Y-56162798D01*
X203715475Y-56150156D01*
X203724000Y-56107301D01*
X203724000Y-55432699D01*
X203715475Y-55389844D01*
X203700948Y-55368102D01*
X203700817Y-55366106D01*
X203702480Y-55364995D01*
X203703894Y-55365456D01*
G37*
G36*
X204203894Y-55365456D02*
G01*
X204250945Y-55404777D01*
X204319661Y-55413408D01*
X204382291Y-55383444D01*
X204389798Y-55374781D01*
X204391688Y-55374127D01*
X204393199Y-55375437D01*
X204392972Y-55377202D01*
X204384525Y-55389844D01*
X204376000Y-55432699D01*
X204376000Y-56107301D01*
X204384525Y-56150156D01*
X204399052Y-56171898D01*
X204399183Y-56173894D01*
X204397520Y-56175005D01*
X204396106Y-56174544D01*
X204349055Y-56135223D01*
X204280339Y-56126592D01*
X204217709Y-56156556D01*
X204210202Y-56165219D01*
X204208312Y-56165873D01*
X204206801Y-56164563D01*
X204207028Y-56162798D01*
X204215475Y-56150156D01*
X204224000Y-56107301D01*
X204224000Y-55432699D01*
X204215475Y-55389844D01*
X204200948Y-55368102D01*
X204200817Y-55366106D01*
X204202480Y-55364995D01*
X204203894Y-55365456D01*
G37*
G36*
X202703894Y-55365456D02*
G01*
X202750945Y-55404777D01*
X202819661Y-55413408D01*
X202882291Y-55383444D01*
X202889798Y-55374781D01*
X202891688Y-55374127D01*
X202893199Y-55375437D01*
X202892972Y-55377202D01*
X202884525Y-55389844D01*
X202876000Y-55432699D01*
X202876000Y-56107301D01*
X202884525Y-56150156D01*
X202899052Y-56171898D01*
X202899183Y-56173894D01*
X202897520Y-56175005D01*
X202896106Y-56174544D01*
X202849055Y-56135223D01*
X202780339Y-56126592D01*
X202717709Y-56156556D01*
X202710202Y-56165219D01*
X202708312Y-56165873D01*
X202706801Y-56164563D01*
X202707028Y-56162798D01*
X202715475Y-56150156D01*
X202724000Y-56107301D01*
X202724000Y-55432699D01*
X202715475Y-55389844D01*
X202700948Y-55368102D01*
X202700817Y-55366106D01*
X202702480Y-55364995D01*
X202703894Y-55365456D01*
G37*
G36*
X201505005Y-54472480D02*
G01*
X201504544Y-54473894D01*
X201465223Y-54520945D01*
X201456592Y-54589661D01*
X201486556Y-54652291D01*
X201495219Y-54659798D01*
X201495873Y-54661688D01*
X201494563Y-54663199D01*
X201492798Y-54662972D01*
X201480156Y-54654525D01*
X201437301Y-54646000D01*
X200762699Y-54646000D01*
X200719844Y-54654525D01*
X200698102Y-54669052D01*
X200696106Y-54669183D01*
X200694995Y-54667520D01*
X200695456Y-54666106D01*
X200734777Y-54619055D01*
X200743408Y-54550339D01*
X200713444Y-54487709D01*
X200704781Y-54480202D01*
X200704127Y-54478312D01*
X200705437Y-54476801D01*
X200707202Y-54477028D01*
X200719844Y-54485475D01*
X200762699Y-54494000D01*
X201437301Y-54494000D01*
X201480156Y-54485475D01*
X201501898Y-54470948D01*
X201503894Y-54470817D01*
X201505005Y-54472480D01*
G37*
G36*
X206405005Y-54472480D02*
G01*
X206404544Y-54473894D01*
X206365223Y-54520945D01*
X206356592Y-54589661D01*
X206386556Y-54652291D01*
X206395219Y-54659798D01*
X206395873Y-54661688D01*
X206394563Y-54663199D01*
X206392798Y-54662972D01*
X206380156Y-54654525D01*
X206337301Y-54646000D01*
X205662699Y-54646000D01*
X205619844Y-54654525D01*
X205598102Y-54669052D01*
X205596106Y-54669183D01*
X205594995Y-54667520D01*
X205595456Y-54666106D01*
X205634777Y-54619055D01*
X205643408Y-54550339D01*
X205613444Y-54487709D01*
X205604781Y-54480202D01*
X205604127Y-54478312D01*
X205605437Y-54476801D01*
X205607202Y-54477028D01*
X205619844Y-54485475D01*
X205662699Y-54494000D01*
X206337301Y-54494000D01*
X206380156Y-54485475D01*
X206401898Y-54470948D01*
X206403894Y-54470817D01*
X206405005Y-54472480D01*
G37*
G36*
X201505005Y-53972480D02*
G01*
X201504544Y-53973894D01*
X201465223Y-54020945D01*
X201456592Y-54089661D01*
X201486556Y-54152291D01*
X201495219Y-54159798D01*
X201495873Y-54161688D01*
X201494563Y-54163199D01*
X201492798Y-54162972D01*
X201480156Y-54154525D01*
X201437301Y-54146000D01*
X200762699Y-54146000D01*
X200719844Y-54154525D01*
X200698102Y-54169052D01*
X200696106Y-54169183D01*
X200694995Y-54167520D01*
X200695456Y-54166106D01*
X200734777Y-54119055D01*
X200743408Y-54050339D01*
X200713444Y-53987709D01*
X200704781Y-53980202D01*
X200704127Y-53978312D01*
X200705437Y-53976801D01*
X200707202Y-53977028D01*
X200719844Y-53985475D01*
X200762699Y-53994000D01*
X201437301Y-53994000D01*
X201480156Y-53985475D01*
X201501898Y-53970948D01*
X201503894Y-53970817D01*
X201505005Y-53972480D01*
G37*
G36*
X206405005Y-53972480D02*
G01*
X206404544Y-53973894D01*
X206365223Y-54020945D01*
X206356592Y-54089661D01*
X206386556Y-54152291D01*
X206395219Y-54159798D01*
X206395873Y-54161688D01*
X206394563Y-54163199D01*
X206392798Y-54162972D01*
X206380156Y-54154525D01*
X206337301Y-54146000D01*
X205662699Y-54146000D01*
X205619844Y-54154525D01*
X205598102Y-54169052D01*
X205596106Y-54169183D01*
X205594995Y-54167520D01*
X205595456Y-54166106D01*
X205634777Y-54119055D01*
X205643408Y-54050339D01*
X205613444Y-53987709D01*
X205604781Y-53980202D01*
X205604127Y-53978312D01*
X205605437Y-53976801D01*
X205607202Y-53977028D01*
X205619844Y-53985475D01*
X205662699Y-53994000D01*
X206337301Y-53994000D01*
X206380156Y-53985475D01*
X206401898Y-53970948D01*
X206403894Y-53970817D01*
X206405005Y-53972480D01*
G37*
G36*
X201505005Y-53472480D02*
G01*
X201504544Y-53473894D01*
X201465223Y-53520945D01*
X201456592Y-53589661D01*
X201486556Y-53652291D01*
X201495219Y-53659798D01*
X201495873Y-53661688D01*
X201494563Y-53663199D01*
X201492798Y-53662972D01*
X201480156Y-53654525D01*
X201437301Y-53646000D01*
X200762699Y-53646000D01*
X200719844Y-53654525D01*
X200698102Y-53669052D01*
X200696106Y-53669183D01*
X200694995Y-53667520D01*
X200695456Y-53666106D01*
X200734777Y-53619055D01*
X200743408Y-53550339D01*
X200713444Y-53487709D01*
X200704781Y-53480202D01*
X200704127Y-53478312D01*
X200705437Y-53476801D01*
X200707202Y-53477028D01*
X200719844Y-53485475D01*
X200762699Y-53494000D01*
X201437301Y-53494000D01*
X201480156Y-53485475D01*
X201501898Y-53470948D01*
X201503894Y-53470817D01*
X201505005Y-53472480D01*
G37*
G36*
X206405005Y-53472480D02*
G01*
X206404544Y-53473894D01*
X206365223Y-53520945D01*
X206356592Y-53589661D01*
X206386556Y-53652291D01*
X206395219Y-53659798D01*
X206395873Y-53661688D01*
X206394563Y-53663199D01*
X206392798Y-53662972D01*
X206380156Y-53654525D01*
X206337301Y-53646000D01*
X205662699Y-53646000D01*
X205619844Y-53654525D01*
X205598102Y-53669052D01*
X205596106Y-53669183D01*
X205594995Y-53667520D01*
X205595456Y-53666106D01*
X205634777Y-53619055D01*
X205643408Y-53550339D01*
X205613444Y-53487709D01*
X205604781Y-53480202D01*
X205604127Y-53478312D01*
X205605437Y-53476801D01*
X205607202Y-53477028D01*
X205619844Y-53485475D01*
X205662699Y-53494000D01*
X206337301Y-53494000D01*
X206380156Y-53485475D01*
X206401898Y-53470948D01*
X206403894Y-53470817D01*
X206405005Y-53472480D01*
G37*
G36*
X201505005Y-52972480D02*
G01*
X201504544Y-52973894D01*
X201465223Y-53020945D01*
X201456592Y-53089661D01*
X201486556Y-53152291D01*
X201495219Y-53159798D01*
X201495873Y-53161688D01*
X201494563Y-53163199D01*
X201492798Y-53162972D01*
X201480156Y-53154525D01*
X201437301Y-53146000D01*
X200762699Y-53146000D01*
X200719844Y-53154525D01*
X200698102Y-53169052D01*
X200696106Y-53169183D01*
X200694995Y-53167520D01*
X200695456Y-53166106D01*
X200734777Y-53119055D01*
X200743408Y-53050339D01*
X200713444Y-52987709D01*
X200704781Y-52980202D01*
X200704127Y-52978312D01*
X200705437Y-52976801D01*
X200707202Y-52977028D01*
X200719844Y-52985475D01*
X200762699Y-52994000D01*
X201437301Y-52994000D01*
X201480156Y-52985475D01*
X201501898Y-52970948D01*
X201503894Y-52970817D01*
X201505005Y-52972480D01*
G37*
G36*
X206405005Y-52972480D02*
G01*
X206404544Y-52973894D01*
X206365223Y-53020945D01*
X206356592Y-53089661D01*
X206386556Y-53152291D01*
X206395219Y-53159798D01*
X206395873Y-53161688D01*
X206394563Y-53163199D01*
X206392798Y-53162972D01*
X206380156Y-53154525D01*
X206337301Y-53146000D01*
X205662699Y-53146000D01*
X205619844Y-53154525D01*
X205598102Y-53169052D01*
X205596106Y-53169183D01*
X205594995Y-53167520D01*
X205595456Y-53166106D01*
X205634777Y-53119055D01*
X205643408Y-53050339D01*
X205613444Y-52987709D01*
X205604781Y-52980202D01*
X205604127Y-52978312D01*
X205605437Y-52976801D01*
X205607202Y-52977028D01*
X205619844Y-52985475D01*
X205662699Y-52994000D01*
X206337301Y-52994000D01*
X206380156Y-52985475D01*
X206401898Y-52970948D01*
X206403894Y-52970817D01*
X206405005Y-52972480D01*
G37*
G36*
X201505005Y-52472480D02*
G01*
X201504544Y-52473894D01*
X201465223Y-52520945D01*
X201456592Y-52589661D01*
X201486556Y-52652291D01*
X201495219Y-52659798D01*
X201495873Y-52661688D01*
X201494563Y-52663199D01*
X201492798Y-52662972D01*
X201480156Y-52654525D01*
X201437301Y-52646000D01*
X200762699Y-52646000D01*
X200719844Y-52654525D01*
X200698102Y-52669052D01*
X200696106Y-52669183D01*
X200694995Y-52667520D01*
X200695456Y-52666106D01*
X200734777Y-52619055D01*
X200743408Y-52550339D01*
X200713444Y-52487709D01*
X200704781Y-52480202D01*
X200704127Y-52478312D01*
X200705437Y-52476801D01*
X200707202Y-52477028D01*
X200719844Y-52485475D01*
X200762699Y-52494000D01*
X201437301Y-52494000D01*
X201480156Y-52485475D01*
X201501898Y-52470948D01*
X201503894Y-52470817D01*
X201505005Y-52472480D01*
G37*
G36*
X206405005Y-52472480D02*
G01*
X206404544Y-52473894D01*
X206365223Y-52520945D01*
X206356592Y-52589661D01*
X206386556Y-52652291D01*
X206395219Y-52659798D01*
X206395873Y-52661688D01*
X206394563Y-52663199D01*
X206392798Y-52662972D01*
X206380156Y-52654525D01*
X206337301Y-52646000D01*
X205662699Y-52646000D01*
X205619844Y-52654525D01*
X205598102Y-52669052D01*
X205596106Y-52669183D01*
X205594995Y-52667520D01*
X205595456Y-52666106D01*
X205634777Y-52619055D01*
X205643408Y-52550339D01*
X205613444Y-52487709D01*
X205604781Y-52480202D01*
X205604127Y-52478312D01*
X205605437Y-52476801D01*
X205607202Y-52477028D01*
X205619844Y-52485475D01*
X205662699Y-52494000D01*
X206337301Y-52494000D01*
X206380156Y-52485475D01*
X206401898Y-52470948D01*
X206403894Y-52470817D01*
X206405005Y-52472480D01*
G37*
G36*
X206405005Y-51972480D02*
G01*
X206404544Y-51973894D01*
X206365223Y-52020945D01*
X206356592Y-52089661D01*
X206386556Y-52152291D01*
X206395219Y-52159798D01*
X206395873Y-52161688D01*
X206394563Y-52163199D01*
X206392798Y-52162972D01*
X206380156Y-52154525D01*
X206337301Y-52146000D01*
X205662699Y-52146000D01*
X205619844Y-52154525D01*
X205598102Y-52169052D01*
X205596106Y-52169183D01*
X205594995Y-52167520D01*
X205595456Y-52166106D01*
X205634777Y-52119055D01*
X205643408Y-52050339D01*
X205613444Y-51987709D01*
X205604781Y-51980202D01*
X205604127Y-51978312D01*
X205605437Y-51976801D01*
X205607202Y-51977028D01*
X205619844Y-51985475D01*
X205662699Y-51994000D01*
X206337301Y-51994000D01*
X206380156Y-51985475D01*
X206401898Y-51970948D01*
X206403894Y-51970817D01*
X206405005Y-51972480D01*
G37*
G36*
X201505005Y-51972480D02*
G01*
X201504544Y-51973894D01*
X201465223Y-52020945D01*
X201456592Y-52089661D01*
X201486556Y-52152291D01*
X201495219Y-52159798D01*
X201495873Y-52161688D01*
X201494563Y-52163199D01*
X201492798Y-52162972D01*
X201480156Y-52154525D01*
X201437301Y-52146000D01*
X200762699Y-52146000D01*
X200719844Y-52154525D01*
X200698102Y-52169052D01*
X200696106Y-52169183D01*
X200694995Y-52167520D01*
X200695456Y-52166106D01*
X200734777Y-52119055D01*
X200743408Y-52050339D01*
X200713444Y-51987709D01*
X200704781Y-51980202D01*
X200704127Y-51978312D01*
X200705437Y-51976801D01*
X200707202Y-51977028D01*
X200719844Y-51985475D01*
X200762699Y-51994000D01*
X201437301Y-51994000D01*
X201480156Y-51985475D01*
X201501898Y-51970948D01*
X201503894Y-51970817D01*
X201505005Y-51972480D01*
G37*
G36*
X202203894Y-50465456D02*
G01*
X202250945Y-50504777D01*
X202319661Y-50513408D01*
X202382291Y-50483444D01*
X202389798Y-50474781D01*
X202391688Y-50474127D01*
X202393199Y-50475437D01*
X202392972Y-50477202D01*
X202384525Y-50489844D01*
X202376000Y-50532699D01*
X202376000Y-51207301D01*
X202384525Y-51250156D01*
X202399052Y-51271898D01*
X202399183Y-51273894D01*
X202397520Y-51275005D01*
X202396106Y-51274544D01*
X202349055Y-51235223D01*
X202280339Y-51226592D01*
X202217709Y-51256556D01*
X202210202Y-51265219D01*
X202208312Y-51265873D01*
X202206801Y-51264563D01*
X202207028Y-51262798D01*
X202215475Y-51250156D01*
X202224000Y-51207301D01*
X202224000Y-50532699D01*
X202215475Y-50489844D01*
X202200948Y-50468102D01*
X202200817Y-50466106D01*
X202202480Y-50464995D01*
X202203894Y-50465456D01*
G37*
G36*
X203203894Y-50465456D02*
G01*
X203250945Y-50504777D01*
X203319661Y-50513408D01*
X203382291Y-50483444D01*
X203389798Y-50474781D01*
X203391688Y-50474127D01*
X203393199Y-50475437D01*
X203392972Y-50477202D01*
X203384525Y-50489844D01*
X203376000Y-50532699D01*
X203376000Y-51207301D01*
X203384525Y-51250156D01*
X203399052Y-51271898D01*
X203399183Y-51273894D01*
X203397520Y-51275005D01*
X203396106Y-51274544D01*
X203349055Y-51235223D01*
X203280339Y-51226592D01*
X203217709Y-51256556D01*
X203210202Y-51265219D01*
X203208312Y-51265873D01*
X203206801Y-51264563D01*
X203207028Y-51262798D01*
X203215475Y-51250156D01*
X203224000Y-51207301D01*
X203224000Y-50532699D01*
X203215475Y-50489844D01*
X203200948Y-50468102D01*
X203200817Y-50466106D01*
X203202480Y-50464995D01*
X203203894Y-50465456D01*
G37*
G36*
X204203894Y-50465456D02*
G01*
X204250945Y-50504777D01*
X204319661Y-50513408D01*
X204382291Y-50483444D01*
X204389798Y-50474781D01*
X204391688Y-50474127D01*
X204393199Y-50475437D01*
X204392972Y-50477202D01*
X204384525Y-50489844D01*
X204376000Y-50532699D01*
X204376000Y-51207301D01*
X204384525Y-51250156D01*
X204399052Y-51271898D01*
X204399183Y-51273894D01*
X204397520Y-51275005D01*
X204396106Y-51274544D01*
X204349055Y-51235223D01*
X204280339Y-51226592D01*
X204217709Y-51256556D01*
X204210202Y-51265219D01*
X204208312Y-51265873D01*
X204206801Y-51264563D01*
X204207028Y-51262798D01*
X204215475Y-51250156D01*
X204224000Y-51207301D01*
X204224000Y-50532699D01*
X204215475Y-50489844D01*
X204200948Y-50468102D01*
X204200817Y-50466106D01*
X204202480Y-50464995D01*
X204203894Y-50465456D01*
G37*
G36*
X203703894Y-50465456D02*
G01*
X203750945Y-50504777D01*
X203819661Y-50513408D01*
X203882291Y-50483444D01*
X203889798Y-50474781D01*
X203891688Y-50474127D01*
X203893199Y-50475437D01*
X203892972Y-50477202D01*
X203884525Y-50489844D01*
X203876000Y-50532699D01*
X203876000Y-51207301D01*
X203884525Y-51250156D01*
X203899052Y-51271898D01*
X203899183Y-51273894D01*
X203897520Y-51275005D01*
X203896106Y-51274544D01*
X203849055Y-51235223D01*
X203780339Y-51226592D01*
X203717709Y-51256556D01*
X203710202Y-51265219D01*
X203708312Y-51265873D01*
X203706801Y-51264563D01*
X203707028Y-51262798D01*
X203715475Y-51250156D01*
X203724000Y-51207301D01*
X203724000Y-50532699D01*
X203715475Y-50489844D01*
X203700948Y-50468102D01*
X203700817Y-50466106D01*
X203702480Y-50464995D01*
X203703894Y-50465456D01*
G37*
G36*
X204703894Y-50465456D02*
G01*
X204750945Y-50504777D01*
X204819661Y-50513408D01*
X204882291Y-50483444D01*
X204889798Y-50474781D01*
X204891688Y-50474127D01*
X204893199Y-50475437D01*
X204892972Y-50477202D01*
X204884525Y-50489844D01*
X204876000Y-50532699D01*
X204876000Y-51207301D01*
X204884525Y-51250156D01*
X204899052Y-51271898D01*
X204899183Y-51273894D01*
X204897520Y-51275005D01*
X204896106Y-51274544D01*
X204849055Y-51235223D01*
X204780339Y-51226592D01*
X204717709Y-51256556D01*
X204710202Y-51265219D01*
X204708312Y-51265873D01*
X204706801Y-51264563D01*
X204707028Y-51262798D01*
X204715475Y-51250156D01*
X204724000Y-51207301D01*
X204724000Y-50532699D01*
X204715475Y-50489844D01*
X204700948Y-50468102D01*
X204700817Y-50466106D01*
X204702480Y-50464995D01*
X204703894Y-50465456D01*
G37*
G36*
X202703894Y-50465456D02*
G01*
X202750945Y-50504777D01*
X202819661Y-50513408D01*
X202882291Y-50483444D01*
X202889798Y-50474781D01*
X202891688Y-50474127D01*
X202893199Y-50475437D01*
X202892972Y-50477202D01*
X202884525Y-50489844D01*
X202876000Y-50532699D01*
X202876000Y-51207301D01*
X202884525Y-51250156D01*
X202899052Y-51271898D01*
X202899183Y-51273894D01*
X202897520Y-51275005D01*
X202896106Y-51274544D01*
X202849055Y-51235223D01*
X202780339Y-51226592D01*
X202717709Y-51256556D01*
X202710202Y-51265219D01*
X202708312Y-51265873D01*
X202706801Y-51264563D01*
X202707028Y-51262798D01*
X202715475Y-51250156D01*
X202724000Y-51207301D01*
X202724000Y-50532699D01*
X202715475Y-50489844D01*
X202700948Y-50468102D01*
X202700817Y-50466106D01*
X202702480Y-50464995D01*
X202703894Y-50465456D01*
G37*
G36*
X195015660Y-48617493D02*
G01*
X195029452Y-48626709D01*
X195030615Y-48624969D01*
X195032409Y-48624084D01*
X195033560Y-48624545D01*
X195050952Y-48639078D01*
X195119670Y-48647704D01*
X195167288Y-48624918D01*
X195169282Y-48625072D01*
X195169814Y-48625611D01*
X195170548Y-48626709D01*
X195184340Y-48617493D01*
X195186336Y-48617362D01*
X195187447Y-48619025D01*
X195187114Y-48620267D01*
X195179767Y-48631262D01*
X195176000Y-48650199D01*
X195176000Y-50249801D01*
X195179767Y-50268738D01*
X195187114Y-50279733D01*
X195187245Y-50281729D01*
X195185582Y-50282840D01*
X195184340Y-50282507D01*
X195170548Y-50273291D01*
X195169385Y-50275031D01*
X195167591Y-50275916D01*
X195166440Y-50275455D01*
X195149048Y-50260922D01*
X195080330Y-50252296D01*
X195032712Y-50275082D01*
X195030718Y-50274928D01*
X195030186Y-50274389D01*
X195029452Y-50273291D01*
X195015660Y-50282507D01*
X195013664Y-50282638D01*
X195012553Y-50280975D01*
X195012886Y-50279733D01*
X195020233Y-50268738D01*
X195024000Y-50249801D01*
X195024000Y-48650199D01*
X195020233Y-48631262D01*
X195012886Y-48620267D01*
X195012755Y-48618271D01*
X195014418Y-48617160D01*
X195015660Y-48617493D01*
G37*
G36*
X193415660Y-48617493D02*
G01*
X193429452Y-48626709D01*
X193430615Y-48624969D01*
X193432409Y-48624084D01*
X193433560Y-48624545D01*
X193450952Y-48639078D01*
X193519670Y-48647704D01*
X193567288Y-48624918D01*
X193569282Y-48625072D01*
X193569814Y-48625611D01*
X193570548Y-48626709D01*
X193584340Y-48617493D01*
X193586336Y-48617362D01*
X193587447Y-48619025D01*
X193587114Y-48620267D01*
X193579767Y-48631262D01*
X193576000Y-48650199D01*
X193576000Y-50249801D01*
X193579767Y-50268738D01*
X193587114Y-50279733D01*
X193587245Y-50281729D01*
X193585582Y-50282840D01*
X193584340Y-50282507D01*
X193570548Y-50273291D01*
X193569385Y-50275031D01*
X193567591Y-50275916D01*
X193566440Y-50275455D01*
X193549048Y-50260922D01*
X193480330Y-50252296D01*
X193432712Y-50275082D01*
X193430718Y-50274928D01*
X193430186Y-50274389D01*
X193429452Y-50273291D01*
X193415660Y-50282507D01*
X193413664Y-50282638D01*
X193412553Y-50280975D01*
X193412886Y-50279733D01*
X193420233Y-50268738D01*
X193424000Y-50249801D01*
X193424000Y-48650199D01*
X193420233Y-48631262D01*
X193412886Y-48620267D01*
X193412755Y-48618271D01*
X193414418Y-48617160D01*
X193415660Y-48617493D01*
G37*
G36*
X195815660Y-48617493D02*
G01*
X195829452Y-48626709D01*
X195830615Y-48624969D01*
X195832409Y-48624084D01*
X195833560Y-48624545D01*
X195850952Y-48639078D01*
X195919670Y-48647704D01*
X195967288Y-48624918D01*
X195969282Y-48625072D01*
X195969814Y-48625611D01*
X195970548Y-48626709D01*
X195984340Y-48617493D01*
X195986336Y-48617362D01*
X195987447Y-48619025D01*
X195987114Y-48620267D01*
X195979767Y-48631262D01*
X195976000Y-48650199D01*
X195976000Y-50249801D01*
X195979767Y-50268738D01*
X195987114Y-50279733D01*
X195987245Y-50281729D01*
X195985582Y-50282840D01*
X195984340Y-50282507D01*
X195970548Y-50273291D01*
X195969385Y-50275031D01*
X195967591Y-50275916D01*
X195966440Y-50275455D01*
X195949048Y-50260922D01*
X195880330Y-50252296D01*
X195832712Y-50275082D01*
X195830718Y-50274928D01*
X195830186Y-50274389D01*
X195829452Y-50273291D01*
X195815660Y-50282507D01*
X195813664Y-50282638D01*
X195812553Y-50280975D01*
X195812886Y-50279733D01*
X195820233Y-50268738D01*
X195824000Y-50249801D01*
X195824000Y-48650199D01*
X195820233Y-48631262D01*
X195812886Y-48620267D01*
X195812755Y-48618271D01*
X195814418Y-48617160D01*
X195815660Y-48617493D01*
G37*
G36*
X194215660Y-48617493D02*
G01*
X194229452Y-48626709D01*
X194230615Y-48624969D01*
X194232409Y-48624084D01*
X194233560Y-48624545D01*
X194250952Y-48639078D01*
X194319670Y-48647704D01*
X194367288Y-48624918D01*
X194369282Y-48625072D01*
X194369814Y-48625611D01*
X194370548Y-48626709D01*
X194384340Y-48617493D01*
X194386336Y-48617362D01*
X194387447Y-48619025D01*
X194387114Y-48620267D01*
X194379767Y-48631262D01*
X194376000Y-48650199D01*
X194376000Y-50249801D01*
X194379767Y-50268738D01*
X194387114Y-50279733D01*
X194387245Y-50281729D01*
X194385582Y-50282840D01*
X194384340Y-50282507D01*
X194370548Y-50273291D01*
X194369385Y-50275031D01*
X194367591Y-50275916D01*
X194366440Y-50275455D01*
X194349048Y-50260922D01*
X194280330Y-50252296D01*
X194232712Y-50275082D01*
X194230718Y-50274928D01*
X194230186Y-50274389D01*
X194229452Y-50273291D01*
X194215660Y-50282507D01*
X194213664Y-50282638D01*
X194212553Y-50280975D01*
X194212886Y-50279733D01*
X194220233Y-50268738D01*
X194224000Y-50249801D01*
X194224000Y-48650199D01*
X194220233Y-48631262D01*
X194212886Y-48620267D01*
X194212755Y-48618271D01*
X194214418Y-48617160D01*
X194215660Y-48617493D01*
G37*
G36*
X196615660Y-48617493D02*
G01*
X196629452Y-48626709D01*
X196630615Y-48624969D01*
X196632409Y-48624084D01*
X196633560Y-48624545D01*
X196650952Y-48639078D01*
X196719670Y-48647704D01*
X196767288Y-48624918D01*
X196769282Y-48625072D01*
X196769814Y-48625611D01*
X196770548Y-48626709D01*
X196784340Y-48617493D01*
X196786336Y-48617362D01*
X196787447Y-48619025D01*
X196787114Y-48620267D01*
X196779767Y-48631262D01*
X196776000Y-48650199D01*
X196776000Y-50249801D01*
X196779767Y-50268738D01*
X196787114Y-50279733D01*
X196787245Y-50281729D01*
X196785582Y-50282840D01*
X196784340Y-50282507D01*
X196770548Y-50273291D01*
X196769385Y-50275031D01*
X196767591Y-50275916D01*
X196766440Y-50275455D01*
X196749048Y-50260922D01*
X196680330Y-50252296D01*
X196632712Y-50275082D01*
X196630718Y-50274928D01*
X196630186Y-50274389D01*
X196629452Y-50273291D01*
X196615660Y-50282507D01*
X196613664Y-50282638D01*
X196612553Y-50280975D01*
X196612886Y-50279733D01*
X196620233Y-50268738D01*
X196624000Y-50249801D01*
X196624000Y-48650199D01*
X196620233Y-48631262D01*
X196612886Y-48620267D01*
X196612755Y-48618271D01*
X196614418Y-48617160D01*
X196615660Y-48617493D01*
G37*
G36*
X197415660Y-48617493D02*
G01*
X197429452Y-48626709D01*
X197430615Y-48624969D01*
X197432409Y-48624084D01*
X197433560Y-48624545D01*
X197450952Y-48639078D01*
X197519670Y-48647704D01*
X197567288Y-48624918D01*
X197569282Y-48625072D01*
X197569814Y-48625611D01*
X197570548Y-48626709D01*
X197584340Y-48617493D01*
X197586336Y-48617362D01*
X197587447Y-48619025D01*
X197587114Y-48620267D01*
X197579767Y-48631262D01*
X197576000Y-48650199D01*
X197576000Y-50249801D01*
X197579767Y-50268738D01*
X197587114Y-50279733D01*
X197587245Y-50281729D01*
X197585582Y-50282840D01*
X197584340Y-50282507D01*
X197570548Y-50273291D01*
X197569385Y-50275031D01*
X197567591Y-50275916D01*
X197566440Y-50275455D01*
X197549048Y-50260922D01*
X197480330Y-50252296D01*
X197432712Y-50275082D01*
X197430718Y-50274928D01*
X197430186Y-50274389D01*
X197429452Y-50273291D01*
X197415660Y-50282507D01*
X197413664Y-50282638D01*
X197412553Y-50280975D01*
X197412886Y-50279733D01*
X197420233Y-50268738D01*
X197424000Y-50249801D01*
X197424000Y-48650199D01*
X197420233Y-48631262D01*
X197412886Y-48620267D01*
X197412755Y-48618271D01*
X197414418Y-48617160D01*
X197415660Y-48617493D01*
G37*
G36*
X192615660Y-48617493D02*
G01*
X192629452Y-48626709D01*
X192630615Y-48624969D01*
X192632409Y-48624084D01*
X192633560Y-48624545D01*
X192650952Y-48639078D01*
X192719670Y-48647704D01*
X192767288Y-48624918D01*
X192769282Y-48625072D01*
X192769814Y-48625611D01*
X192770548Y-48626709D01*
X192784340Y-48617493D01*
X192786336Y-48617362D01*
X192787447Y-48619025D01*
X192787114Y-48620267D01*
X192779767Y-48631262D01*
X192776000Y-48650199D01*
X192776000Y-50249801D01*
X192779767Y-50268738D01*
X192787114Y-50279733D01*
X192787245Y-50281729D01*
X192785582Y-50282840D01*
X192784340Y-50282507D01*
X192770548Y-50273291D01*
X192769385Y-50275031D01*
X192767591Y-50275916D01*
X192766440Y-50275455D01*
X192749048Y-50260922D01*
X192680330Y-50252296D01*
X192632712Y-50275082D01*
X192630718Y-50274928D01*
X192630186Y-50274389D01*
X192629452Y-50273291D01*
X192615660Y-50282507D01*
X192613664Y-50282638D01*
X192612553Y-50280975D01*
X192612886Y-50279733D01*
X192620233Y-50268738D01*
X192624000Y-50249801D01*
X192624000Y-48650199D01*
X192620233Y-48631262D01*
X192612886Y-48620267D01*
X192612755Y-48618271D01*
X192614418Y-48617160D01*
X192615660Y-48617493D01*
G37*
G36*
X198520267Y-47512886D02*
G01*
X198531262Y-47520233D01*
X198550199Y-47524000D01*
X200149801Y-47524000D01*
X200168738Y-47520233D01*
X200179733Y-47512886D01*
X200181729Y-47512755D01*
X200182840Y-47514418D01*
X200182507Y-47515660D01*
X200173291Y-47529452D01*
X200175031Y-47530615D01*
X200175916Y-47532409D01*
X200175455Y-47533560D01*
X200160922Y-47550952D01*
X200152296Y-47619670D01*
X200175082Y-47667288D01*
X200174928Y-47669282D01*
X200174389Y-47669814D01*
X200173291Y-47670548D01*
X200182507Y-47684340D01*
X200182638Y-47686336D01*
X200180975Y-47687447D01*
X200179733Y-47687114D01*
X200168738Y-47679767D01*
X200149801Y-47676000D01*
X198550199Y-47676000D01*
X198531262Y-47679767D01*
X198520267Y-47687114D01*
X198518271Y-47687245D01*
X198517160Y-47685582D01*
X198517493Y-47684340D01*
X198526709Y-47670548D01*
X198524969Y-47669385D01*
X198524084Y-47667591D01*
X198524545Y-47666440D01*
X198539078Y-47649048D01*
X198547704Y-47580330D01*
X198524918Y-47532712D01*
X198525072Y-47530718D01*
X198525611Y-47530186D01*
X198526709Y-47529452D01*
X198517493Y-47515660D01*
X198517362Y-47513664D01*
X198519025Y-47512553D01*
X198520267Y-47512886D01*
G37*
G36*
X190020267Y-47512886D02*
G01*
X190031262Y-47520233D01*
X190050199Y-47524000D01*
X191649801Y-47524000D01*
X191668738Y-47520233D01*
X191679733Y-47512886D01*
X191681729Y-47512755D01*
X191682840Y-47514418D01*
X191682507Y-47515660D01*
X191673291Y-47529452D01*
X191675031Y-47530615D01*
X191675916Y-47532409D01*
X191675455Y-47533560D01*
X191660922Y-47550952D01*
X191652296Y-47619670D01*
X191675082Y-47667288D01*
X191674928Y-47669282D01*
X191674389Y-47669814D01*
X191673291Y-47670548D01*
X191682507Y-47684340D01*
X191682638Y-47686336D01*
X191680975Y-47687447D01*
X191679733Y-47687114D01*
X191668738Y-47679767D01*
X191649801Y-47676000D01*
X190050199Y-47676000D01*
X190031262Y-47679767D01*
X190020267Y-47687114D01*
X190018271Y-47687245D01*
X190017160Y-47685582D01*
X190017493Y-47684340D01*
X190026709Y-47670548D01*
X190024969Y-47669385D01*
X190024084Y-47667591D01*
X190024545Y-47666440D01*
X190039078Y-47649048D01*
X190047704Y-47580330D01*
X190024918Y-47532712D01*
X190025072Y-47530718D01*
X190025611Y-47530186D01*
X190026709Y-47529452D01*
X190017493Y-47515660D01*
X190017362Y-47513664D01*
X190019025Y-47512553D01*
X190020267Y-47512886D01*
G37*
G36*
X198520267Y-46712886D02*
G01*
X198531262Y-46720233D01*
X198550199Y-46724000D01*
X200149801Y-46724000D01*
X200168738Y-46720233D01*
X200179733Y-46712886D01*
X200181729Y-46712755D01*
X200182840Y-46714418D01*
X200182507Y-46715660D01*
X200173291Y-46729452D01*
X200175031Y-46730615D01*
X200175916Y-46732409D01*
X200175455Y-46733560D01*
X200160922Y-46750952D01*
X200152296Y-46819670D01*
X200175082Y-46867288D01*
X200174928Y-46869282D01*
X200174389Y-46869814D01*
X200173291Y-46870548D01*
X200182507Y-46884340D01*
X200182638Y-46886336D01*
X200180975Y-46887447D01*
X200179733Y-46887114D01*
X200168738Y-46879767D01*
X200149801Y-46876000D01*
X198550199Y-46876000D01*
X198531262Y-46879767D01*
X198520267Y-46887114D01*
X198518271Y-46887245D01*
X198517160Y-46885582D01*
X198517493Y-46884340D01*
X198526709Y-46870548D01*
X198524969Y-46869385D01*
X198524084Y-46867591D01*
X198524545Y-46866440D01*
X198539078Y-46849048D01*
X198547704Y-46780330D01*
X198524918Y-46732712D01*
X198525072Y-46730718D01*
X198525611Y-46730186D01*
X198526709Y-46729452D01*
X198517493Y-46715660D01*
X198517362Y-46713664D01*
X198519025Y-46712553D01*
X198520267Y-46712886D01*
G37*
G36*
X190020267Y-46712886D02*
G01*
X190031262Y-46720233D01*
X190050199Y-46724000D01*
X191649801Y-46724000D01*
X191668738Y-46720233D01*
X191679733Y-46712886D01*
X191681729Y-46712755D01*
X191682840Y-46714418D01*
X191682507Y-46715660D01*
X191673291Y-46729452D01*
X191675031Y-46730615D01*
X191675916Y-46732409D01*
X191675455Y-46733560D01*
X191660922Y-46750952D01*
X191652296Y-46819670D01*
X191675082Y-46867288D01*
X191674928Y-46869282D01*
X191674389Y-46869814D01*
X191673291Y-46870548D01*
X191682507Y-46884340D01*
X191682638Y-46886336D01*
X191680975Y-46887447D01*
X191679733Y-46887114D01*
X191668738Y-46879767D01*
X191649801Y-46876000D01*
X190050199Y-46876000D01*
X190031262Y-46879767D01*
X190020267Y-46887114D01*
X190018271Y-46887245D01*
X190017160Y-46885582D01*
X190017493Y-46884340D01*
X190026709Y-46870548D01*
X190024969Y-46869385D01*
X190024084Y-46867591D01*
X190024545Y-46866440D01*
X190039078Y-46849048D01*
X190047704Y-46780330D01*
X190024918Y-46732712D01*
X190025072Y-46730718D01*
X190025611Y-46730186D01*
X190026709Y-46729452D01*
X190017493Y-46715660D01*
X190017362Y-46713664D01*
X190019025Y-46712553D01*
X190020267Y-46712886D01*
G37*
G36*
X190020267Y-45912886D02*
G01*
X190031262Y-45920233D01*
X190050199Y-45924000D01*
X191649801Y-45924000D01*
X191668738Y-45920233D01*
X191679733Y-45912886D01*
X191681729Y-45912755D01*
X191682840Y-45914418D01*
X191682507Y-45915660D01*
X191673291Y-45929452D01*
X191675031Y-45930615D01*
X191675916Y-45932409D01*
X191675455Y-45933560D01*
X191660922Y-45950952D01*
X191652296Y-46019670D01*
X191675082Y-46067288D01*
X191674928Y-46069282D01*
X191674389Y-46069814D01*
X191673291Y-46070548D01*
X191682507Y-46084340D01*
X191682638Y-46086336D01*
X191680975Y-46087447D01*
X191679733Y-46087114D01*
X191668738Y-46079767D01*
X191649801Y-46076000D01*
X190050199Y-46076000D01*
X190031262Y-46079767D01*
X190020267Y-46087114D01*
X190018271Y-46087245D01*
X190017160Y-46085582D01*
X190017493Y-46084340D01*
X190026709Y-46070548D01*
X190024969Y-46069385D01*
X190024084Y-46067591D01*
X190024545Y-46066440D01*
X190039078Y-46049048D01*
X190047704Y-45980330D01*
X190024918Y-45932712D01*
X190025072Y-45930718D01*
X190025611Y-45930186D01*
X190026709Y-45929452D01*
X190017493Y-45915660D01*
X190017362Y-45913664D01*
X190019025Y-45912553D01*
X190020267Y-45912886D01*
G37*
G36*
X198520267Y-45912886D02*
G01*
X198531262Y-45920233D01*
X198550199Y-45924000D01*
X200149801Y-45924000D01*
X200168738Y-45920233D01*
X200179733Y-45912886D01*
X200181729Y-45912755D01*
X200182840Y-45914418D01*
X200182507Y-45915660D01*
X200173291Y-45929452D01*
X200175031Y-45930615D01*
X200175916Y-45932409D01*
X200175455Y-45933560D01*
X200160922Y-45950952D01*
X200152296Y-46019670D01*
X200175082Y-46067288D01*
X200174928Y-46069282D01*
X200174389Y-46069814D01*
X200173291Y-46070548D01*
X200182507Y-46084340D01*
X200182638Y-46086336D01*
X200180975Y-46087447D01*
X200179733Y-46087114D01*
X200168738Y-46079767D01*
X200149801Y-46076000D01*
X198550199Y-46076000D01*
X198531262Y-46079767D01*
X198520267Y-46087114D01*
X198518271Y-46087245D01*
X198517160Y-46085582D01*
X198517493Y-46084340D01*
X198526709Y-46070548D01*
X198524969Y-46069385D01*
X198524084Y-46067591D01*
X198524545Y-46066440D01*
X198539078Y-46049048D01*
X198547704Y-45980330D01*
X198524918Y-45932712D01*
X198525072Y-45930718D01*
X198525611Y-45930186D01*
X198526709Y-45929452D01*
X198517493Y-45915660D01*
X198517362Y-45913664D01*
X198519025Y-45912553D01*
X198520267Y-45912886D01*
G37*
G36*
X190020267Y-45112886D02*
G01*
X190031262Y-45120233D01*
X190050199Y-45124000D01*
X191649801Y-45124000D01*
X191668738Y-45120233D01*
X191679733Y-45112886D01*
X191681729Y-45112755D01*
X191682840Y-45114418D01*
X191682507Y-45115660D01*
X191673291Y-45129452D01*
X191675031Y-45130615D01*
X191675916Y-45132409D01*
X191675455Y-45133560D01*
X191660922Y-45150952D01*
X191652296Y-45219670D01*
X191675082Y-45267288D01*
X191674928Y-45269282D01*
X191674389Y-45269814D01*
X191673291Y-45270548D01*
X191682507Y-45284340D01*
X191682638Y-45286336D01*
X191680975Y-45287447D01*
X191679733Y-45287114D01*
X191668738Y-45279767D01*
X191649801Y-45276000D01*
X190050199Y-45276000D01*
X190031262Y-45279767D01*
X190020267Y-45287114D01*
X190018271Y-45287245D01*
X190017160Y-45285582D01*
X190017493Y-45284340D01*
X190026709Y-45270548D01*
X190024969Y-45269385D01*
X190024084Y-45267591D01*
X190024545Y-45266440D01*
X190039078Y-45249048D01*
X190047704Y-45180330D01*
X190024918Y-45132712D01*
X190025072Y-45130718D01*
X190025611Y-45130186D01*
X190026709Y-45129452D01*
X190017493Y-45115660D01*
X190017362Y-45113664D01*
X190019025Y-45112553D01*
X190020267Y-45112886D01*
G37*
G36*
X198520267Y-45112886D02*
G01*
X198531262Y-45120233D01*
X198550199Y-45124000D01*
X200149801Y-45124000D01*
X200168738Y-45120233D01*
X200179733Y-45112886D01*
X200181729Y-45112755D01*
X200182840Y-45114418D01*
X200182507Y-45115660D01*
X200173291Y-45129452D01*
X200175031Y-45130615D01*
X200175916Y-45132409D01*
X200175455Y-45133560D01*
X200160922Y-45150952D01*
X200152296Y-45219670D01*
X200175082Y-45267288D01*
X200174928Y-45269282D01*
X200174389Y-45269814D01*
X200173291Y-45270548D01*
X200182507Y-45284340D01*
X200182638Y-45286336D01*
X200180975Y-45287447D01*
X200179733Y-45287114D01*
X200168738Y-45279767D01*
X200149801Y-45276000D01*
X198550199Y-45276000D01*
X198531262Y-45279767D01*
X198520267Y-45287114D01*
X198518271Y-45287245D01*
X198517160Y-45285582D01*
X198517493Y-45284340D01*
X198526709Y-45270548D01*
X198524969Y-45269385D01*
X198524084Y-45267591D01*
X198524545Y-45266440D01*
X198539078Y-45249048D01*
X198547704Y-45180330D01*
X198524918Y-45132712D01*
X198525072Y-45130718D01*
X198525611Y-45130186D01*
X198526709Y-45129452D01*
X198517493Y-45115660D01*
X198517362Y-45113664D01*
X198519025Y-45112553D01*
X198520267Y-45112886D01*
G37*
G36*
X190020267Y-44312886D02*
G01*
X190031262Y-44320233D01*
X190050199Y-44324000D01*
X191649801Y-44324000D01*
X191668738Y-44320233D01*
X191679733Y-44312886D01*
X191681729Y-44312755D01*
X191682840Y-44314418D01*
X191682507Y-44315660D01*
X191673291Y-44329452D01*
X191675031Y-44330615D01*
X191675916Y-44332409D01*
X191675455Y-44333560D01*
X191660922Y-44350952D01*
X191652296Y-44419670D01*
X191675082Y-44467288D01*
X191674928Y-44469282D01*
X191674389Y-44469814D01*
X191673291Y-44470548D01*
X191682507Y-44484340D01*
X191682638Y-44486336D01*
X191680975Y-44487447D01*
X191679733Y-44487114D01*
X191668738Y-44479767D01*
X191649801Y-44476000D01*
X190050199Y-44476000D01*
X190031262Y-44479767D01*
X190020267Y-44487114D01*
X190018271Y-44487245D01*
X190017160Y-44485582D01*
X190017493Y-44484340D01*
X190026709Y-44470548D01*
X190024969Y-44469385D01*
X190024084Y-44467591D01*
X190024545Y-44466440D01*
X190039078Y-44449048D01*
X190047704Y-44380330D01*
X190024918Y-44332712D01*
X190025072Y-44330718D01*
X190025611Y-44330186D01*
X190026709Y-44329452D01*
X190017493Y-44315660D01*
X190017362Y-44313664D01*
X190019025Y-44312553D01*
X190020267Y-44312886D01*
G37*
G36*
X198520267Y-44312886D02*
G01*
X198531262Y-44320233D01*
X198550199Y-44324000D01*
X200149801Y-44324000D01*
X200168738Y-44320233D01*
X200179733Y-44312886D01*
X200181729Y-44312755D01*
X200182840Y-44314418D01*
X200182507Y-44315660D01*
X200173291Y-44329452D01*
X200175031Y-44330615D01*
X200175916Y-44332409D01*
X200175455Y-44333560D01*
X200160922Y-44350952D01*
X200152296Y-44419670D01*
X200175082Y-44467288D01*
X200174928Y-44469282D01*
X200174389Y-44469814D01*
X200173291Y-44470548D01*
X200182507Y-44484340D01*
X200182638Y-44486336D01*
X200180975Y-44487447D01*
X200179733Y-44487114D01*
X200168738Y-44479767D01*
X200149801Y-44476000D01*
X198550199Y-44476000D01*
X198531262Y-44479767D01*
X198520267Y-44487114D01*
X198518271Y-44487245D01*
X198517160Y-44485582D01*
X198517493Y-44484340D01*
X198526709Y-44470548D01*
X198524969Y-44469385D01*
X198524084Y-44467591D01*
X198524545Y-44466440D01*
X198539078Y-44449048D01*
X198547704Y-44380330D01*
X198524918Y-44332712D01*
X198525072Y-44330718D01*
X198525611Y-44330186D01*
X198526709Y-44329452D01*
X198517493Y-44315660D01*
X198517362Y-44313664D01*
X198519025Y-44312553D01*
X198520267Y-44312886D01*
G37*
G36*
X190020267Y-43512886D02*
G01*
X190031262Y-43520233D01*
X190050199Y-43524000D01*
X191649801Y-43524000D01*
X191668738Y-43520233D01*
X191679733Y-43512886D01*
X191681729Y-43512755D01*
X191682840Y-43514418D01*
X191682507Y-43515660D01*
X191673291Y-43529452D01*
X191675031Y-43530615D01*
X191675916Y-43532409D01*
X191675455Y-43533560D01*
X191660922Y-43550952D01*
X191652296Y-43619670D01*
X191675082Y-43667288D01*
X191674928Y-43669282D01*
X191674389Y-43669814D01*
X191673291Y-43670548D01*
X191682507Y-43684340D01*
X191682638Y-43686336D01*
X191680975Y-43687447D01*
X191679733Y-43687114D01*
X191668738Y-43679767D01*
X191649801Y-43676000D01*
X190050199Y-43676000D01*
X190031262Y-43679767D01*
X190020267Y-43687114D01*
X190018271Y-43687245D01*
X190017160Y-43685582D01*
X190017493Y-43684340D01*
X190026709Y-43670548D01*
X190024969Y-43669385D01*
X190024084Y-43667591D01*
X190024545Y-43666440D01*
X190039078Y-43649048D01*
X190047704Y-43580330D01*
X190024918Y-43532712D01*
X190025072Y-43530718D01*
X190025611Y-43530186D01*
X190026709Y-43529452D01*
X190017493Y-43515660D01*
X190017362Y-43513664D01*
X190019025Y-43512553D01*
X190020267Y-43512886D01*
G37*
G36*
X198520267Y-43512886D02*
G01*
X198531262Y-43520233D01*
X198550199Y-43524000D01*
X200149801Y-43524000D01*
X200168738Y-43520233D01*
X200179733Y-43512886D01*
X200181729Y-43512755D01*
X200182840Y-43514418D01*
X200182507Y-43515660D01*
X200173291Y-43529452D01*
X200175031Y-43530615D01*
X200175916Y-43532409D01*
X200175455Y-43533560D01*
X200160922Y-43550952D01*
X200152296Y-43619670D01*
X200175082Y-43667288D01*
X200174928Y-43669282D01*
X200174389Y-43669814D01*
X200173291Y-43670548D01*
X200182507Y-43684340D01*
X200182638Y-43686336D01*
X200180975Y-43687447D01*
X200179733Y-43687114D01*
X200168738Y-43679767D01*
X200149801Y-43676000D01*
X198550199Y-43676000D01*
X198531262Y-43679767D01*
X198520267Y-43687114D01*
X198518271Y-43687245D01*
X198517160Y-43685582D01*
X198517493Y-43684340D01*
X198526709Y-43670548D01*
X198524969Y-43669385D01*
X198524084Y-43667591D01*
X198524545Y-43666440D01*
X198539078Y-43649048D01*
X198547704Y-43580330D01*
X198524918Y-43532712D01*
X198525072Y-43530718D01*
X198525611Y-43530186D01*
X198526709Y-43529452D01*
X198517493Y-43515660D01*
X198517362Y-43513664D01*
X198519025Y-43512553D01*
X198520267Y-43512886D01*
G37*
G36*
X156318693Y-41914460D02*
G01*
X156331425Y-41922967D01*
X156397789Y-41943747D01*
X156468589Y-41922958D01*
X156481307Y-41914460D01*
X156483303Y-41914329D01*
X156484414Y-41915992D01*
X156484081Y-41917234D01*
X156460476Y-41952561D01*
X156451000Y-42000199D01*
X156451000Y-43324801D01*
X156460476Y-43372439D01*
X156484081Y-43407766D01*
X156484212Y-43409762D01*
X156482549Y-43410873D01*
X156481307Y-43410540D01*
X156468575Y-43402033D01*
X156402211Y-43381253D01*
X156331411Y-43402042D01*
X156318693Y-43410540D01*
X156316697Y-43410671D01*
X156315586Y-43409008D01*
X156315919Y-43407766D01*
X156339524Y-43372439D01*
X156349000Y-43324801D01*
X156349000Y-42000199D01*
X156339524Y-41952561D01*
X156315919Y-41917234D01*
X156315788Y-41915238D01*
X156317451Y-41914127D01*
X156318693Y-41914460D01*
G37*
G36*
X157318693Y-41914460D02*
G01*
X157331425Y-41922967D01*
X157397789Y-41943747D01*
X157468589Y-41922958D01*
X157481307Y-41914460D01*
X157483303Y-41914329D01*
X157484414Y-41915992D01*
X157484081Y-41917234D01*
X157460476Y-41952561D01*
X157451000Y-42000199D01*
X157451000Y-43324801D01*
X157460476Y-43372439D01*
X157484081Y-43407766D01*
X157484212Y-43409762D01*
X157482549Y-43410873D01*
X157481307Y-43410540D01*
X157468575Y-43402033D01*
X157402211Y-43381253D01*
X157331411Y-43402042D01*
X157318693Y-43410540D01*
X157316697Y-43410671D01*
X157315586Y-43409008D01*
X157315919Y-43407766D01*
X157339524Y-43372439D01*
X157349000Y-43324801D01*
X157349000Y-42000199D01*
X157339524Y-41952561D01*
X157315919Y-41917234D01*
X157315788Y-41915238D01*
X157317451Y-41914127D01*
X157318693Y-41914460D01*
G37*
G36*
X155818693Y-41914460D02*
G01*
X155831425Y-41922967D01*
X155897789Y-41943747D01*
X155968589Y-41922958D01*
X155981307Y-41914460D01*
X155983303Y-41914329D01*
X155984414Y-41915992D01*
X155984081Y-41917234D01*
X155960476Y-41952561D01*
X155951000Y-42000199D01*
X155951000Y-43324801D01*
X155960476Y-43372439D01*
X155984081Y-43407766D01*
X155984212Y-43409762D01*
X155982549Y-43410873D01*
X155981307Y-43410540D01*
X155968575Y-43402033D01*
X155902211Y-43381253D01*
X155831411Y-43402042D01*
X155818693Y-43410540D01*
X155816697Y-43410671D01*
X155815586Y-43409008D01*
X155815919Y-43407766D01*
X155839524Y-43372439D01*
X155849000Y-43324801D01*
X155849000Y-42000199D01*
X155839524Y-41952561D01*
X155815919Y-41917234D01*
X155815788Y-41915238D01*
X155817451Y-41914127D01*
X155818693Y-41914460D01*
G37*
G36*
X152818693Y-41914460D02*
G01*
X152831425Y-41922967D01*
X152897789Y-41943747D01*
X152968589Y-41922958D01*
X152981307Y-41914460D01*
X152983303Y-41914329D01*
X152984414Y-41915992D01*
X152984081Y-41917234D01*
X152960476Y-41952561D01*
X152951000Y-42000199D01*
X152951000Y-43324801D01*
X152960476Y-43372439D01*
X152984081Y-43407766D01*
X152984212Y-43409762D01*
X152982549Y-43410873D01*
X152981307Y-43410540D01*
X152968575Y-43402033D01*
X152902211Y-43381253D01*
X152831411Y-43402042D01*
X152818693Y-43410540D01*
X152816697Y-43410671D01*
X152815586Y-43409008D01*
X152815919Y-43407766D01*
X152839524Y-43372439D01*
X152849000Y-43324801D01*
X152849000Y-42000199D01*
X152839524Y-41952561D01*
X152815919Y-41917234D01*
X152815788Y-41915238D01*
X152817451Y-41914127D01*
X152818693Y-41914460D01*
G37*
G36*
X153818693Y-41914460D02*
G01*
X153831425Y-41922967D01*
X153897789Y-41943747D01*
X153968589Y-41922958D01*
X153981307Y-41914460D01*
X153983303Y-41914329D01*
X153984414Y-41915992D01*
X153984081Y-41917234D01*
X153960476Y-41952561D01*
X153951000Y-42000199D01*
X153951000Y-43324801D01*
X153960476Y-43372439D01*
X153984081Y-43407766D01*
X153984212Y-43409762D01*
X153982549Y-43410873D01*
X153981307Y-43410540D01*
X153968575Y-43402033D01*
X153902211Y-43381253D01*
X153831411Y-43402042D01*
X153818693Y-43410540D01*
X153816697Y-43410671D01*
X153815586Y-43409008D01*
X153815919Y-43407766D01*
X153839524Y-43372439D01*
X153849000Y-43324801D01*
X153849000Y-42000199D01*
X153839524Y-41952561D01*
X153815919Y-41917234D01*
X153815788Y-41915238D01*
X153817451Y-41914127D01*
X153818693Y-41914460D01*
G37*
G36*
X153318693Y-41914460D02*
G01*
X153331425Y-41922967D01*
X153397789Y-41943747D01*
X153468589Y-41922958D01*
X153481307Y-41914460D01*
X153483303Y-41914329D01*
X153484414Y-41915992D01*
X153484081Y-41917234D01*
X153460476Y-41952561D01*
X153451000Y-42000199D01*
X153451000Y-43324801D01*
X153460476Y-43372439D01*
X153484081Y-43407766D01*
X153484212Y-43409762D01*
X153482549Y-43410873D01*
X153481307Y-43410540D01*
X153468575Y-43402033D01*
X153402211Y-43381253D01*
X153331411Y-43402042D01*
X153318693Y-43410540D01*
X153316697Y-43410671D01*
X153315586Y-43409008D01*
X153315919Y-43407766D01*
X153339524Y-43372439D01*
X153349000Y-43324801D01*
X153349000Y-42000199D01*
X153339524Y-41952561D01*
X153315919Y-41917234D01*
X153315788Y-41915238D01*
X153317451Y-41914127D01*
X153318693Y-41914460D01*
G37*
G36*
X154818693Y-41914460D02*
G01*
X154831425Y-41922967D01*
X154897789Y-41943747D01*
X154968589Y-41922958D01*
X154981307Y-41914460D01*
X154983303Y-41914329D01*
X154984414Y-41915992D01*
X154984081Y-41917234D01*
X154960476Y-41952561D01*
X154951000Y-42000199D01*
X154951000Y-43324801D01*
X154960476Y-43372439D01*
X154984081Y-43407766D01*
X154984212Y-43409762D01*
X154982549Y-43410873D01*
X154981307Y-43410540D01*
X154968575Y-43402033D01*
X154902211Y-43381253D01*
X154831411Y-43402042D01*
X154818693Y-43410540D01*
X154816697Y-43410671D01*
X154815586Y-43409008D01*
X154815919Y-43407766D01*
X154839524Y-43372439D01*
X154849000Y-43324801D01*
X154849000Y-42000199D01*
X154839524Y-41952561D01*
X154815919Y-41917234D01*
X154815788Y-41915238D01*
X154817451Y-41914127D01*
X154818693Y-41914460D01*
G37*
G36*
X155318693Y-41914460D02*
G01*
X155331425Y-41922967D01*
X155397789Y-41943747D01*
X155468589Y-41922958D01*
X155481307Y-41914460D01*
X155483303Y-41914329D01*
X155484414Y-41915992D01*
X155484081Y-41917234D01*
X155460476Y-41952561D01*
X155451000Y-42000199D01*
X155451000Y-43324801D01*
X155460476Y-43372439D01*
X155484081Y-43407766D01*
X155484212Y-43409762D01*
X155482549Y-43410873D01*
X155481307Y-43410540D01*
X155468575Y-43402033D01*
X155402211Y-43381253D01*
X155331411Y-43402042D01*
X155318693Y-43410540D01*
X155316697Y-43410671D01*
X155315586Y-43409008D01*
X155315919Y-43407766D01*
X155339524Y-43372439D01*
X155349000Y-43324801D01*
X155349000Y-42000199D01*
X155339524Y-41952561D01*
X155315919Y-41917234D01*
X155315788Y-41915238D01*
X155317451Y-41914127D01*
X155318693Y-41914460D01*
G37*
G36*
X156818693Y-41914460D02*
G01*
X156831425Y-41922967D01*
X156897789Y-41943747D01*
X156968589Y-41922958D01*
X156981307Y-41914460D01*
X156983303Y-41914329D01*
X156984414Y-41915992D01*
X156984081Y-41917234D01*
X156960476Y-41952561D01*
X156951000Y-42000199D01*
X156951000Y-43324801D01*
X156960476Y-43372439D01*
X156984081Y-43407766D01*
X156984212Y-43409762D01*
X156982549Y-43410873D01*
X156981307Y-43410540D01*
X156968575Y-43402033D01*
X156902211Y-43381253D01*
X156831411Y-43402042D01*
X156818693Y-43410540D01*
X156816697Y-43410671D01*
X156815586Y-43409008D01*
X156815919Y-43407766D01*
X156839524Y-43372439D01*
X156849000Y-43324801D01*
X156849000Y-42000199D01*
X156839524Y-41952561D01*
X156815919Y-41917234D01*
X156815788Y-41915238D01*
X156817451Y-41914127D01*
X156818693Y-41914460D01*
G37*
G36*
X152318693Y-41914460D02*
G01*
X152331425Y-41922967D01*
X152397789Y-41943747D01*
X152468589Y-41922958D01*
X152481307Y-41914460D01*
X152483303Y-41914329D01*
X152484414Y-41915992D01*
X152484081Y-41917234D01*
X152460476Y-41952561D01*
X152451000Y-42000199D01*
X152451000Y-43324801D01*
X152460476Y-43372439D01*
X152484081Y-43407766D01*
X152484212Y-43409762D01*
X152482549Y-43410873D01*
X152481307Y-43410540D01*
X152468575Y-43402033D01*
X152402211Y-43381253D01*
X152331411Y-43402042D01*
X152318693Y-43410540D01*
X152316697Y-43410671D01*
X152315586Y-43409008D01*
X152315919Y-43407766D01*
X152339524Y-43372439D01*
X152349000Y-43324801D01*
X152349000Y-42000199D01*
X152339524Y-41952561D01*
X152315919Y-41917234D01*
X152315788Y-41915238D01*
X152317451Y-41914127D01*
X152318693Y-41914460D01*
G37*
G36*
X154318693Y-41914460D02*
G01*
X154331425Y-41922967D01*
X154397789Y-41943747D01*
X154468589Y-41922958D01*
X154481307Y-41914460D01*
X154483303Y-41914329D01*
X154484414Y-41915992D01*
X154484081Y-41917234D01*
X154460476Y-41952561D01*
X154451000Y-42000199D01*
X154451000Y-43324801D01*
X154460476Y-43372439D01*
X154484081Y-43407766D01*
X154484212Y-43409762D01*
X154482549Y-43410873D01*
X154481307Y-43410540D01*
X154468575Y-43402033D01*
X154402211Y-43381253D01*
X154331411Y-43402042D01*
X154318693Y-43410540D01*
X154316697Y-43410671D01*
X154315586Y-43409008D01*
X154315919Y-43407766D01*
X154339524Y-43372439D01*
X154349000Y-43324801D01*
X154349000Y-42000199D01*
X154339524Y-41952561D01*
X154315919Y-41917234D01*
X154315788Y-41915238D01*
X154317451Y-41914127D01*
X154318693Y-41914460D01*
G37*
G36*
X190020267Y-42712886D02*
G01*
X190031262Y-42720233D01*
X190050199Y-42724000D01*
X191649801Y-42724000D01*
X191668738Y-42720233D01*
X191679733Y-42712886D01*
X191681729Y-42712755D01*
X191682840Y-42714418D01*
X191682507Y-42715660D01*
X191673291Y-42729452D01*
X191675031Y-42730615D01*
X191675916Y-42732409D01*
X191675455Y-42733560D01*
X191660922Y-42750952D01*
X191652296Y-42819670D01*
X191675082Y-42867288D01*
X191674928Y-42869282D01*
X191674389Y-42869814D01*
X191673291Y-42870548D01*
X191682507Y-42884340D01*
X191682638Y-42886336D01*
X191680975Y-42887447D01*
X191679733Y-42887114D01*
X191668738Y-42879767D01*
X191649801Y-42876000D01*
X190050199Y-42876000D01*
X190031262Y-42879767D01*
X190020267Y-42887114D01*
X190018271Y-42887245D01*
X190017160Y-42885582D01*
X190017493Y-42884340D01*
X190026709Y-42870548D01*
X190024969Y-42869385D01*
X190024084Y-42867591D01*
X190024545Y-42866440D01*
X190039078Y-42849048D01*
X190047704Y-42780330D01*
X190024918Y-42732712D01*
X190025072Y-42730718D01*
X190025611Y-42730186D01*
X190026709Y-42729452D01*
X190017493Y-42715660D01*
X190017362Y-42713664D01*
X190019025Y-42712553D01*
X190020267Y-42712886D01*
G37*
G36*
X198520267Y-42712886D02*
G01*
X198531262Y-42720233D01*
X198550199Y-42724000D01*
X200149801Y-42724000D01*
X200168738Y-42720233D01*
X200179733Y-42712886D01*
X200181729Y-42712755D01*
X200182840Y-42714418D01*
X200182507Y-42715660D01*
X200173291Y-42729452D01*
X200175031Y-42730615D01*
X200175916Y-42732409D01*
X200175455Y-42733560D01*
X200160922Y-42750952D01*
X200152296Y-42819670D01*
X200175082Y-42867288D01*
X200174928Y-42869282D01*
X200174389Y-42869814D01*
X200173291Y-42870548D01*
X200182507Y-42884340D01*
X200182638Y-42886336D01*
X200180975Y-42887447D01*
X200179733Y-42887114D01*
X200168738Y-42879767D01*
X200149801Y-42876000D01*
X198550199Y-42876000D01*
X198531262Y-42879767D01*
X198520267Y-42887114D01*
X198518271Y-42887245D01*
X198517160Y-42885582D01*
X198517493Y-42884340D01*
X198526709Y-42870548D01*
X198524969Y-42869385D01*
X198524084Y-42867591D01*
X198524545Y-42866440D01*
X198539078Y-42849048D01*
X198547704Y-42780330D01*
X198524918Y-42732712D01*
X198525072Y-42730718D01*
X198525611Y-42730186D01*
X198526709Y-42729452D01*
X198517493Y-42715660D01*
X198517362Y-42713664D01*
X198519025Y-42712553D01*
X198520267Y-42712886D01*
G37*
G36*
X218422859Y-40837746D02*
G01*
X218422398Y-40839160D01*
X218383074Y-40886216D01*
X218374444Y-40954932D01*
X218399432Y-41007160D01*
X218399372Y-41007936D01*
X218400814Y-41010094D01*
X218400955Y-41010342D01*
X218404408Y-41017561D01*
X218407518Y-41020255D01*
X218407871Y-41020656D01*
X218409199Y-41022644D01*
X218409330Y-41024640D01*
X218407667Y-41025751D01*
X218406425Y-41025418D01*
X218375156Y-41004525D01*
X218332301Y-40996000D01*
X218207699Y-40996000D01*
X218164844Y-41004525D01*
X218128685Y-41028685D01*
X218104525Y-41064844D01*
X218096000Y-41107699D01*
X218096000Y-41957301D01*
X218104525Y-42000156D01*
X218119052Y-42021898D01*
X218119183Y-42023894D01*
X218117520Y-42025005D01*
X218116106Y-42024544D01*
X218069055Y-41985223D01*
X218000339Y-41976592D01*
X217937709Y-42006556D01*
X217930202Y-42015219D01*
X217928312Y-42015873D01*
X217926801Y-42014563D01*
X217927028Y-42012798D01*
X217935475Y-42000156D01*
X217944000Y-41957301D01*
X217944000Y-41107699D01*
X217935475Y-41064844D01*
X217911315Y-41028685D01*
X217875156Y-41004525D01*
X217832301Y-40996000D01*
X217707699Y-40996000D01*
X217664844Y-41004525D01*
X217628685Y-41028685D01*
X217604525Y-41064844D01*
X217596000Y-41107699D01*
X217596000Y-41957301D01*
X217604525Y-42000156D01*
X217619052Y-42021898D01*
X217619183Y-42023894D01*
X217617520Y-42025005D01*
X217616106Y-42024544D01*
X217569055Y-41985223D01*
X217500339Y-41976592D01*
X217437709Y-42006556D01*
X217430202Y-42015219D01*
X217428312Y-42015873D01*
X217426801Y-42014563D01*
X217427028Y-42012798D01*
X217435475Y-42000156D01*
X217444000Y-41957301D01*
X217444000Y-41107699D01*
X217435475Y-41064844D01*
X217411315Y-41028685D01*
X217375156Y-41004525D01*
X217332301Y-40996000D01*
X217207699Y-40996000D01*
X217164844Y-41004525D01*
X217128685Y-41028685D01*
X217104525Y-41064844D01*
X217096000Y-41107699D01*
X217096000Y-41957301D01*
X217104525Y-42000156D01*
X217119052Y-42021898D01*
X217119183Y-42023894D01*
X217117520Y-42025005D01*
X217116106Y-42024544D01*
X217069055Y-41985223D01*
X217000339Y-41976592D01*
X216937709Y-42006556D01*
X216930202Y-42015219D01*
X216928312Y-42015873D01*
X216926801Y-42014563D01*
X216927028Y-42012798D01*
X216935475Y-42000156D01*
X216944000Y-41957301D01*
X216944000Y-41107699D01*
X216935475Y-41064844D01*
X216911315Y-41028685D01*
X216875156Y-41004525D01*
X216832301Y-40996000D01*
X216707699Y-40996000D01*
X216664844Y-41004525D01*
X216628685Y-41028685D01*
X216604525Y-41064844D01*
X216596000Y-41107699D01*
X216596000Y-41957301D01*
X216604525Y-42000156D01*
X216619052Y-42021898D01*
X216619183Y-42023894D01*
X216617520Y-42025005D01*
X216616106Y-42024544D01*
X216569055Y-41985223D01*
X216500339Y-41976592D01*
X216437709Y-42006556D01*
X216430202Y-42015219D01*
X216428312Y-42015873D01*
X216426801Y-42014563D01*
X216427028Y-42012798D01*
X216435475Y-42000156D01*
X216444000Y-41957301D01*
X216444000Y-41107699D01*
X216435475Y-41064844D01*
X216411315Y-41028685D01*
X216375156Y-41004525D01*
X216332301Y-40996000D01*
X216207699Y-40996000D01*
X216164844Y-41004525D01*
X216128685Y-41028685D01*
X216104525Y-41064844D01*
X216096000Y-41107699D01*
X216096000Y-41957301D01*
X216104525Y-42000156D01*
X216119052Y-42021898D01*
X216119183Y-42023894D01*
X216117520Y-42025005D01*
X216116106Y-42024544D01*
X216069055Y-41985223D01*
X216000339Y-41976592D01*
X215937709Y-42006556D01*
X215930202Y-42015219D01*
X215928312Y-42015873D01*
X215926801Y-42014563D01*
X215927028Y-42012798D01*
X215935475Y-42000156D01*
X215944000Y-41957301D01*
X215944000Y-41107699D01*
X215935475Y-41064844D01*
X215911315Y-41028685D01*
X215875156Y-41004525D01*
X215832301Y-40996000D01*
X215707699Y-40996000D01*
X215664844Y-41004525D01*
X215628685Y-41028685D01*
X215604525Y-41064844D01*
X215596000Y-41107699D01*
X215596000Y-41957301D01*
X215604525Y-42000156D01*
X215619052Y-42021898D01*
X215619183Y-42023894D01*
X215617520Y-42025005D01*
X215616106Y-42024544D01*
X215569055Y-41985223D01*
X215500339Y-41976592D01*
X215437709Y-42006556D01*
X215430202Y-42015219D01*
X215428312Y-42015873D01*
X215426801Y-42014563D01*
X215427028Y-42012798D01*
X215435475Y-42000156D01*
X215444000Y-41957301D01*
X215444000Y-41107699D01*
X215435475Y-41064844D01*
X215411315Y-41028685D01*
X215375156Y-41004525D01*
X215332301Y-40996000D01*
X215207699Y-40996000D01*
X215164844Y-41004525D01*
X215133575Y-41025418D01*
X215131579Y-41025549D01*
X215130468Y-41023886D01*
X215130801Y-41022644D01*
X215140015Y-41008854D01*
X215139563Y-41008552D01*
X215138678Y-41006758D01*
X215139139Y-41005607D01*
X215156926Y-40984322D01*
X215165556Y-40915605D01*
X215135590Y-40852976D01*
X215124991Y-40843793D01*
X215124337Y-40841903D01*
X215125647Y-40840391D01*
X215126691Y-40840319D01*
X215145199Y-40844000D01*
X218394801Y-40844000D01*
X218413737Y-40840233D01*
X218419752Y-40836214D01*
X218421747Y-40836083D01*
X218422859Y-40837746D01*
G37*
G36*
X195015660Y-40117493D02*
G01*
X195029452Y-40126709D01*
X195030615Y-40124969D01*
X195032409Y-40124084D01*
X195033560Y-40124545D01*
X195050952Y-40139078D01*
X195119670Y-40147704D01*
X195167288Y-40124918D01*
X195169282Y-40125072D01*
X195169814Y-40125611D01*
X195170548Y-40126709D01*
X195184340Y-40117493D01*
X195186336Y-40117362D01*
X195187447Y-40119025D01*
X195187114Y-40120267D01*
X195179767Y-40131262D01*
X195176000Y-40150199D01*
X195176000Y-41749801D01*
X195179767Y-41768738D01*
X195187114Y-41779733D01*
X195187245Y-41781729D01*
X195185582Y-41782840D01*
X195184340Y-41782507D01*
X195170548Y-41773291D01*
X195169385Y-41775031D01*
X195167591Y-41775916D01*
X195166440Y-41775455D01*
X195149048Y-41760922D01*
X195080330Y-41752296D01*
X195032712Y-41775082D01*
X195030718Y-41774928D01*
X195030186Y-41774389D01*
X195029452Y-41773291D01*
X195015660Y-41782507D01*
X195013664Y-41782638D01*
X195012553Y-41780975D01*
X195012886Y-41779733D01*
X195020233Y-41768738D01*
X195024000Y-41749801D01*
X195024000Y-40150199D01*
X195020233Y-40131262D01*
X195012886Y-40120267D01*
X195012755Y-40118271D01*
X195014418Y-40117160D01*
X195015660Y-40117493D01*
G37*
G36*
X194215660Y-40117493D02*
G01*
X194229452Y-40126709D01*
X194230615Y-40124969D01*
X194232409Y-40124084D01*
X194233560Y-40124545D01*
X194250952Y-40139078D01*
X194319670Y-40147704D01*
X194367288Y-40124918D01*
X194369282Y-40125072D01*
X194369814Y-40125611D01*
X194370548Y-40126709D01*
X194384340Y-40117493D01*
X194386336Y-40117362D01*
X194387447Y-40119025D01*
X194387114Y-40120267D01*
X194379767Y-40131262D01*
X194376000Y-40150199D01*
X194376000Y-41749801D01*
X194379767Y-41768738D01*
X194387114Y-41779733D01*
X194387245Y-41781729D01*
X194385582Y-41782840D01*
X194384340Y-41782507D01*
X194370548Y-41773291D01*
X194369385Y-41775031D01*
X194367591Y-41775916D01*
X194366440Y-41775455D01*
X194349048Y-41760922D01*
X194280330Y-41752296D01*
X194232712Y-41775082D01*
X194230718Y-41774928D01*
X194230186Y-41774389D01*
X194229452Y-41773291D01*
X194215660Y-41782507D01*
X194213664Y-41782638D01*
X194212553Y-41780975D01*
X194212886Y-41779733D01*
X194220233Y-41768738D01*
X194224000Y-41749801D01*
X194224000Y-40150199D01*
X194220233Y-40131262D01*
X194212886Y-40120267D01*
X194212755Y-40118271D01*
X194214418Y-40117160D01*
X194215660Y-40117493D01*
G37*
G36*
X196615660Y-40117493D02*
G01*
X196629452Y-40126709D01*
X196630615Y-40124969D01*
X196632409Y-40124084D01*
X196633560Y-40124545D01*
X196650952Y-40139078D01*
X196719670Y-40147704D01*
X196767288Y-40124918D01*
X196769282Y-40125072D01*
X196769814Y-40125611D01*
X196770548Y-40126709D01*
X196784340Y-40117493D01*
X196786336Y-40117362D01*
X196787447Y-40119025D01*
X196787114Y-40120267D01*
X196779767Y-40131262D01*
X196776000Y-40150199D01*
X196776000Y-41749801D01*
X196779767Y-41768738D01*
X196787114Y-41779733D01*
X196787245Y-41781729D01*
X196785582Y-41782840D01*
X196784340Y-41782507D01*
X196770548Y-41773291D01*
X196769385Y-41775031D01*
X196767591Y-41775916D01*
X196766440Y-41775455D01*
X196749048Y-41760922D01*
X196680330Y-41752296D01*
X196632712Y-41775082D01*
X196630718Y-41774928D01*
X196630186Y-41774389D01*
X196629452Y-41773291D01*
X196615660Y-41782507D01*
X196613664Y-41782638D01*
X196612553Y-41780975D01*
X196612886Y-41779733D01*
X196620233Y-41768738D01*
X196624000Y-41749801D01*
X196624000Y-40150199D01*
X196620233Y-40131262D01*
X196612886Y-40120267D01*
X196612755Y-40118271D01*
X196614418Y-40117160D01*
X196615660Y-40117493D01*
G37*
G36*
X197415660Y-40117493D02*
G01*
X197429452Y-40126709D01*
X197430615Y-40124969D01*
X197432409Y-40124084D01*
X197433560Y-40124545D01*
X197450952Y-40139078D01*
X197519670Y-40147704D01*
X197567288Y-40124918D01*
X197569282Y-40125072D01*
X197569814Y-40125611D01*
X197570548Y-40126709D01*
X197584340Y-40117493D01*
X197586336Y-40117362D01*
X197587447Y-40119025D01*
X197587114Y-40120267D01*
X197579767Y-40131262D01*
X197576000Y-40150199D01*
X197576000Y-41749801D01*
X197579767Y-41768738D01*
X197587114Y-41779733D01*
X197587245Y-41781729D01*
X197585582Y-41782840D01*
X197584340Y-41782507D01*
X197570548Y-41773291D01*
X197569385Y-41775031D01*
X197567591Y-41775916D01*
X197566440Y-41775455D01*
X197549048Y-41760922D01*
X197480330Y-41752296D01*
X197432712Y-41775082D01*
X197430718Y-41774928D01*
X197430186Y-41774389D01*
X197429452Y-41773291D01*
X197415660Y-41782507D01*
X197413664Y-41782638D01*
X197412553Y-41780975D01*
X197412886Y-41779733D01*
X197420233Y-41768738D01*
X197424000Y-41749801D01*
X197424000Y-40150199D01*
X197420233Y-40131262D01*
X197412886Y-40120267D01*
X197412755Y-40118271D01*
X197414418Y-40117160D01*
X197415660Y-40117493D01*
G37*
G36*
X193415660Y-40117493D02*
G01*
X193429452Y-40126709D01*
X193430615Y-40124969D01*
X193432409Y-40124084D01*
X193433560Y-40124545D01*
X193450952Y-40139078D01*
X193519670Y-40147704D01*
X193567288Y-40124918D01*
X193569282Y-40125072D01*
X193569814Y-40125611D01*
X193570548Y-40126709D01*
X193584340Y-40117493D01*
X193586336Y-40117362D01*
X193587447Y-40119025D01*
X193587114Y-40120267D01*
X193579767Y-40131262D01*
X193576000Y-40150199D01*
X193576000Y-41749801D01*
X193579767Y-41768738D01*
X193587114Y-41779733D01*
X193587245Y-41781729D01*
X193585582Y-41782840D01*
X193584340Y-41782507D01*
X193570548Y-41773291D01*
X193569385Y-41775031D01*
X193567591Y-41775916D01*
X193566440Y-41775455D01*
X193549048Y-41760922D01*
X193480330Y-41752296D01*
X193432712Y-41775082D01*
X193430718Y-41774928D01*
X193430186Y-41774389D01*
X193429452Y-41773291D01*
X193415660Y-41782507D01*
X193413664Y-41782638D01*
X193412553Y-41780975D01*
X193412886Y-41779733D01*
X193420233Y-41768738D01*
X193424000Y-41749801D01*
X193424000Y-40150199D01*
X193420233Y-40131262D01*
X193412886Y-40120267D01*
X193412755Y-40118271D01*
X193414418Y-40117160D01*
X193415660Y-40117493D01*
G37*
G36*
X195815660Y-40117493D02*
G01*
X195829452Y-40126709D01*
X195830615Y-40124969D01*
X195832409Y-40124084D01*
X195833560Y-40124545D01*
X195850952Y-40139078D01*
X195919670Y-40147704D01*
X195967288Y-40124918D01*
X195969282Y-40125072D01*
X195969814Y-40125611D01*
X195970548Y-40126709D01*
X195984340Y-40117493D01*
X195986336Y-40117362D01*
X195987447Y-40119025D01*
X195987114Y-40120267D01*
X195979767Y-40131262D01*
X195976000Y-40150199D01*
X195976000Y-41749801D01*
X195979767Y-41768738D01*
X195987114Y-41779733D01*
X195987245Y-41781729D01*
X195985582Y-41782840D01*
X195984340Y-41782507D01*
X195970548Y-41773291D01*
X195969385Y-41775031D01*
X195967591Y-41775916D01*
X195966440Y-41775455D01*
X195949048Y-41760922D01*
X195880330Y-41752296D01*
X195832712Y-41775082D01*
X195830718Y-41774928D01*
X195830186Y-41774389D01*
X195829452Y-41773291D01*
X195815660Y-41782507D01*
X195813664Y-41782638D01*
X195812553Y-41780975D01*
X195812886Y-41779733D01*
X195820233Y-41768738D01*
X195824000Y-41749801D01*
X195824000Y-40150199D01*
X195820233Y-40131262D01*
X195812886Y-40120267D01*
X195812755Y-40118271D01*
X195814418Y-40117160D01*
X195815660Y-40117493D01*
G37*
G36*
X192615660Y-40117493D02*
G01*
X192629452Y-40126709D01*
X192630615Y-40124969D01*
X192632409Y-40124084D01*
X192633560Y-40124545D01*
X192650952Y-40139078D01*
X192719670Y-40147704D01*
X192767288Y-40124918D01*
X192769282Y-40125072D01*
X192769814Y-40125611D01*
X192770548Y-40126709D01*
X192784340Y-40117493D01*
X192786336Y-40117362D01*
X192787447Y-40119025D01*
X192787114Y-40120267D01*
X192779767Y-40131262D01*
X192776000Y-40150199D01*
X192776000Y-41749801D01*
X192779767Y-41768738D01*
X192787114Y-41779733D01*
X192787245Y-41781729D01*
X192785582Y-41782840D01*
X192784340Y-41782507D01*
X192770548Y-41773291D01*
X192769385Y-41775031D01*
X192767591Y-41775916D01*
X192766440Y-41775455D01*
X192749048Y-41760922D01*
X192680330Y-41752296D01*
X192632712Y-41775082D01*
X192630718Y-41774928D01*
X192630186Y-41774389D01*
X192629452Y-41773291D01*
X192615660Y-41782507D01*
X192613664Y-41782638D01*
X192612553Y-41780975D01*
X192612886Y-41779733D01*
X192620233Y-41768738D01*
X192624000Y-41749801D01*
X192624000Y-40150199D01*
X192620233Y-40131262D01*
X192612886Y-40120267D01*
X192612755Y-40118271D01*
X192614418Y-40117160D01*
X192615660Y-40117493D01*
G37*
G36*
X158317234Y-40915919D02*
G01*
X158352561Y-40939524D01*
X158400199Y-40949000D01*
X159724801Y-40949000D01*
X159772439Y-40939524D01*
X159807766Y-40915919D01*
X159809762Y-40915788D01*
X159810873Y-40917451D01*
X159810540Y-40918693D01*
X159802033Y-40931425D01*
X159781253Y-40997789D01*
X159802042Y-41068589D01*
X159810540Y-41081307D01*
X159810671Y-41083303D01*
X159809008Y-41084414D01*
X159807766Y-41084081D01*
X159772439Y-41060476D01*
X159724801Y-41051000D01*
X158400199Y-41051000D01*
X158352561Y-41060476D01*
X158317234Y-41084081D01*
X158315238Y-41084212D01*
X158314127Y-41082549D01*
X158314460Y-41081307D01*
X158322967Y-41068575D01*
X158343747Y-41002211D01*
X158322958Y-40931411D01*
X158314460Y-40918693D01*
X158314329Y-40916697D01*
X158315992Y-40915586D01*
X158317234Y-40915919D01*
G37*
G36*
X149992234Y-40915919D02*
G01*
X150027561Y-40939524D01*
X150075199Y-40949000D01*
X151399801Y-40949000D01*
X151447439Y-40939524D01*
X151482766Y-40915919D01*
X151484762Y-40915788D01*
X151485873Y-40917451D01*
X151485540Y-40918693D01*
X151477033Y-40931425D01*
X151456253Y-40997789D01*
X151477042Y-41068589D01*
X151485540Y-41081307D01*
X151485671Y-41083303D01*
X151484008Y-41084414D01*
X151482766Y-41084081D01*
X151447439Y-41060476D01*
X151399801Y-41051000D01*
X150075199Y-41051000D01*
X150027561Y-41060476D01*
X149992234Y-41084081D01*
X149990238Y-41084212D01*
X149989127Y-41082549D01*
X149989460Y-41081307D01*
X149997967Y-41068575D01*
X150018747Y-41002211D01*
X149997958Y-40931411D01*
X149989460Y-40918693D01*
X149989329Y-40916697D01*
X149990992Y-40915586D01*
X149992234Y-40915919D01*
G37*
G36*
X215099609Y-37525647D02*
G01*
X215099681Y-37526691D01*
X215096000Y-37545199D01*
X215096000Y-40794801D01*
X215099767Y-40813737D01*
X215103786Y-40819752D01*
X215103917Y-40821747D01*
X215102254Y-40822859D01*
X215100840Y-40822398D01*
X215053784Y-40783074D01*
X214985068Y-40774444D01*
X214932840Y-40799432D01*
X214932064Y-40799372D01*
X214929906Y-40800814D01*
X214929658Y-40800955D01*
X214922439Y-40804408D01*
X214919745Y-40807518D01*
X214919344Y-40807871D01*
X214917356Y-40809199D01*
X214915360Y-40809330D01*
X214914249Y-40807667D01*
X214914582Y-40806425D01*
X214935475Y-40775156D01*
X214944000Y-40732301D01*
X214944000Y-40607699D01*
X214935475Y-40564844D01*
X214911315Y-40528685D01*
X214875156Y-40504525D01*
X214832301Y-40496000D01*
X213982699Y-40496000D01*
X213939844Y-40504525D01*
X213918102Y-40519052D01*
X213916106Y-40519183D01*
X213914995Y-40517520D01*
X213915456Y-40516106D01*
X213954777Y-40469055D01*
X213963408Y-40400339D01*
X213933444Y-40337709D01*
X213924781Y-40330202D01*
X213924127Y-40328312D01*
X213925437Y-40326801D01*
X213927202Y-40327028D01*
X213939844Y-40335475D01*
X213982699Y-40344000D01*
X214832301Y-40344000D01*
X214875156Y-40335475D01*
X214911315Y-40311315D01*
X214935475Y-40275156D01*
X214944000Y-40232301D01*
X214944000Y-40107699D01*
X214935475Y-40064844D01*
X214911315Y-40028685D01*
X214875156Y-40004525D01*
X214832301Y-39996000D01*
X213982699Y-39996000D01*
X213939844Y-40004525D01*
X213918102Y-40019052D01*
X213916106Y-40019183D01*
X213914995Y-40017520D01*
X213915456Y-40016106D01*
X213954777Y-39969055D01*
X213963408Y-39900339D01*
X213933444Y-39837709D01*
X213924781Y-39830202D01*
X213924127Y-39828312D01*
X213925437Y-39826801D01*
X213927202Y-39827028D01*
X213939844Y-39835475D01*
X213982699Y-39844000D01*
X214832301Y-39844000D01*
X214875156Y-39835475D01*
X214911315Y-39811315D01*
X214935475Y-39775156D01*
X214944000Y-39732301D01*
X214944000Y-39607699D01*
X214935475Y-39564844D01*
X214911315Y-39528685D01*
X214875156Y-39504525D01*
X214832301Y-39496000D01*
X213982699Y-39496000D01*
X213939844Y-39504525D01*
X213918102Y-39519052D01*
X213916106Y-39519183D01*
X213914995Y-39517520D01*
X213915456Y-39516106D01*
X213954777Y-39469055D01*
X213963408Y-39400339D01*
X213933444Y-39337709D01*
X213924781Y-39330202D01*
X213924127Y-39328312D01*
X213925437Y-39326801D01*
X213927202Y-39327028D01*
X213939844Y-39335475D01*
X213982699Y-39344000D01*
X214832301Y-39344000D01*
X214875156Y-39335475D01*
X214911315Y-39311315D01*
X214935475Y-39275156D01*
X214944000Y-39232301D01*
X214944000Y-39107699D01*
X214935475Y-39064844D01*
X214911315Y-39028685D01*
X214875156Y-39004525D01*
X214832301Y-38996000D01*
X213982699Y-38996000D01*
X213939844Y-39004525D01*
X213918102Y-39019052D01*
X213916106Y-39019183D01*
X213914995Y-39017520D01*
X213915456Y-39016106D01*
X213954777Y-38969055D01*
X213963408Y-38900339D01*
X213933444Y-38837709D01*
X213924781Y-38830202D01*
X213924127Y-38828312D01*
X213925437Y-38826801D01*
X213927202Y-38827028D01*
X213939844Y-38835475D01*
X213982699Y-38844000D01*
X214832301Y-38844000D01*
X214875156Y-38835475D01*
X214911315Y-38811315D01*
X214935475Y-38775156D01*
X214944000Y-38732301D01*
X214944000Y-38607699D01*
X214935475Y-38564844D01*
X214911315Y-38528685D01*
X214875156Y-38504525D01*
X214832301Y-38496000D01*
X213982699Y-38496000D01*
X213939844Y-38504525D01*
X213918102Y-38519052D01*
X213916106Y-38519183D01*
X213914995Y-38517520D01*
X213915456Y-38516106D01*
X213954777Y-38469055D01*
X213963408Y-38400339D01*
X213933444Y-38337709D01*
X213924781Y-38330202D01*
X213924127Y-38328312D01*
X213925437Y-38326801D01*
X213927202Y-38327028D01*
X213939844Y-38335475D01*
X213982699Y-38344000D01*
X214832301Y-38344000D01*
X214875156Y-38335475D01*
X214911315Y-38311315D01*
X214935475Y-38275156D01*
X214944000Y-38232301D01*
X214944000Y-38107699D01*
X214935475Y-38064844D01*
X214911315Y-38028685D01*
X214875156Y-38004525D01*
X214832301Y-37996000D01*
X213982699Y-37996000D01*
X213939844Y-38004525D01*
X213918102Y-38019052D01*
X213916106Y-38019183D01*
X213914995Y-38017520D01*
X213915456Y-38016106D01*
X213954777Y-37969055D01*
X213963408Y-37900339D01*
X213933444Y-37837709D01*
X213924781Y-37830202D01*
X213924127Y-37828312D01*
X213925437Y-37826801D01*
X213927202Y-37827028D01*
X213939844Y-37835475D01*
X213982699Y-37844000D01*
X214832301Y-37844000D01*
X214875156Y-37835475D01*
X214911315Y-37811315D01*
X214935475Y-37775156D01*
X214944000Y-37732301D01*
X214944000Y-37607699D01*
X214935475Y-37564844D01*
X214914582Y-37533575D01*
X214914451Y-37531579D01*
X214916114Y-37530468D01*
X214917356Y-37530801D01*
X214931146Y-37540015D01*
X214931448Y-37539563D01*
X214933242Y-37538678D01*
X214934393Y-37539139D01*
X214955678Y-37556926D01*
X215024395Y-37565556D01*
X215087024Y-37535590D01*
X215096207Y-37524991D01*
X215098097Y-37524337D01*
X215099609Y-37525647D01*
G37*
G36*
X218439160Y-37517602D02*
G01*
X218486216Y-37556926D01*
X218554932Y-37565556D01*
X218607160Y-37540568D01*
X218607936Y-37540628D01*
X218610094Y-37539186D01*
X218610342Y-37539045D01*
X218617561Y-37535592D01*
X218620255Y-37532482D01*
X218620656Y-37532129D01*
X218622644Y-37530801D01*
X218624640Y-37530670D01*
X218625751Y-37532333D01*
X218625418Y-37533575D01*
X218604525Y-37564844D01*
X218596000Y-37607699D01*
X218596000Y-37732301D01*
X218604525Y-37775156D01*
X218628685Y-37811315D01*
X218664844Y-37835475D01*
X218707699Y-37844000D01*
X219557301Y-37844000D01*
X219600156Y-37835475D01*
X219621898Y-37820948D01*
X219623894Y-37820817D01*
X219625005Y-37822480D01*
X219624544Y-37823894D01*
X219585223Y-37870945D01*
X219576592Y-37939661D01*
X219606556Y-38002291D01*
X219615219Y-38009798D01*
X219615873Y-38011688D01*
X219614563Y-38013199D01*
X219612798Y-38012972D01*
X219600156Y-38004525D01*
X219557301Y-37996000D01*
X218707699Y-37996000D01*
X218664844Y-38004525D01*
X218628685Y-38028685D01*
X218604525Y-38064844D01*
X218596000Y-38107699D01*
X218596000Y-38232301D01*
X218604525Y-38275156D01*
X218628685Y-38311315D01*
X218664844Y-38335475D01*
X218707699Y-38344000D01*
X219557301Y-38344000D01*
X219600156Y-38335475D01*
X219621898Y-38320948D01*
X219623894Y-38320817D01*
X219625005Y-38322480D01*
X219624544Y-38323894D01*
X219585223Y-38370945D01*
X219576592Y-38439661D01*
X219606556Y-38502291D01*
X219615219Y-38509798D01*
X219615873Y-38511688D01*
X219614563Y-38513199D01*
X219612798Y-38512972D01*
X219600156Y-38504525D01*
X219557301Y-38496000D01*
X218707699Y-38496000D01*
X218664844Y-38504525D01*
X218628685Y-38528685D01*
X218604525Y-38564844D01*
X218596000Y-38607699D01*
X218596000Y-38732301D01*
X218604525Y-38775156D01*
X218628685Y-38811315D01*
X218664844Y-38835475D01*
X218707699Y-38844000D01*
X219557301Y-38844000D01*
X219600156Y-38835475D01*
X219621898Y-38820948D01*
X219623894Y-38820817D01*
X219625005Y-38822480D01*
X219624544Y-38823894D01*
X219585223Y-38870945D01*
X219576592Y-38939661D01*
X219606556Y-39002291D01*
X219615219Y-39009798D01*
X219615873Y-39011688D01*
X219614563Y-39013199D01*
X219612798Y-39012972D01*
X219600156Y-39004525D01*
X219557301Y-38996000D01*
X218707699Y-38996000D01*
X218664844Y-39004525D01*
X218628685Y-39028685D01*
X218604525Y-39064844D01*
X218596000Y-39107699D01*
X218596000Y-39232301D01*
X218604525Y-39275156D01*
X218628685Y-39311315D01*
X218664844Y-39335475D01*
X218707699Y-39344000D01*
X219557301Y-39344000D01*
X219600156Y-39335475D01*
X219621898Y-39320948D01*
X219623894Y-39320817D01*
X219625005Y-39322480D01*
X219624544Y-39323894D01*
X219585223Y-39370945D01*
X219576592Y-39439661D01*
X219606556Y-39502291D01*
X219615219Y-39509798D01*
X219615873Y-39511688D01*
X219614563Y-39513199D01*
X219612798Y-39512972D01*
X219600156Y-39504525D01*
X219557301Y-39496000D01*
X218707699Y-39496000D01*
X218664844Y-39504525D01*
X218628685Y-39528685D01*
X218604525Y-39564844D01*
X218596000Y-39607699D01*
X218596000Y-39732301D01*
X218604525Y-39775156D01*
X218628685Y-39811315D01*
X218664844Y-39835475D01*
X218707699Y-39844000D01*
X219557301Y-39844000D01*
X219600156Y-39835475D01*
X219621898Y-39820948D01*
X219623894Y-39820817D01*
X219625005Y-39822480D01*
X219624544Y-39823894D01*
X219585223Y-39870945D01*
X219576592Y-39939661D01*
X219606556Y-40002291D01*
X219615219Y-40009798D01*
X219615873Y-40011688D01*
X219614563Y-40013199D01*
X219612798Y-40012972D01*
X219600156Y-40004525D01*
X219557301Y-39996000D01*
X218707699Y-39996000D01*
X218664844Y-40004525D01*
X218628685Y-40028685D01*
X218604525Y-40064844D01*
X218596000Y-40107699D01*
X218596000Y-40232301D01*
X218604525Y-40275156D01*
X218628685Y-40311315D01*
X218664844Y-40335475D01*
X218707699Y-40344000D01*
X219557301Y-40344000D01*
X219600156Y-40335475D01*
X219621898Y-40320948D01*
X219623894Y-40320817D01*
X219625005Y-40322480D01*
X219624544Y-40323894D01*
X219585223Y-40370945D01*
X219576592Y-40439661D01*
X219606556Y-40502291D01*
X219615219Y-40509798D01*
X219615873Y-40511688D01*
X219614563Y-40513199D01*
X219612798Y-40512972D01*
X219600156Y-40504525D01*
X219557301Y-40496000D01*
X218707699Y-40496000D01*
X218664844Y-40504525D01*
X218628685Y-40528685D01*
X218604525Y-40564844D01*
X218596000Y-40607699D01*
X218596000Y-40732301D01*
X218604525Y-40775156D01*
X218625418Y-40806425D01*
X218625549Y-40808421D01*
X218623886Y-40809532D01*
X218622644Y-40809199D01*
X218608854Y-40799985D01*
X218608552Y-40800437D01*
X218606758Y-40801322D01*
X218605607Y-40800861D01*
X218584322Y-40783074D01*
X218515605Y-40774444D01*
X218452976Y-40804410D01*
X218443793Y-40815009D01*
X218441903Y-40815663D01*
X218440391Y-40814353D01*
X218440319Y-40813309D01*
X218444000Y-40794801D01*
X218444000Y-37545199D01*
X218440233Y-37526263D01*
X218436214Y-37520248D01*
X218436083Y-37518253D01*
X218437746Y-37517141D01*
X218439160Y-37517602D01*
G37*
G36*
X149992234Y-40415919D02*
G01*
X150027561Y-40439524D01*
X150075199Y-40449000D01*
X151399801Y-40449000D01*
X151447439Y-40439524D01*
X151482766Y-40415919D01*
X151484762Y-40415788D01*
X151485873Y-40417451D01*
X151485540Y-40418693D01*
X151477033Y-40431425D01*
X151456253Y-40497789D01*
X151477042Y-40568589D01*
X151485540Y-40581307D01*
X151485671Y-40583303D01*
X151484008Y-40584414D01*
X151482766Y-40584081D01*
X151447439Y-40560476D01*
X151399801Y-40551000D01*
X150075199Y-40551000D01*
X150027561Y-40560476D01*
X149992234Y-40584081D01*
X149990238Y-40584212D01*
X149989127Y-40582549D01*
X149989460Y-40581307D01*
X149997967Y-40568575D01*
X150018747Y-40502211D01*
X149997958Y-40431411D01*
X149989460Y-40418693D01*
X149989329Y-40416697D01*
X149990992Y-40415586D01*
X149992234Y-40415919D01*
G37*
G36*
X158317234Y-40415919D02*
G01*
X158352561Y-40439524D01*
X158400199Y-40449000D01*
X159724801Y-40449000D01*
X159772439Y-40439524D01*
X159807766Y-40415919D01*
X159809762Y-40415788D01*
X159810873Y-40417451D01*
X159810540Y-40418693D01*
X159802033Y-40431425D01*
X159781253Y-40497789D01*
X159802042Y-40568589D01*
X159810540Y-40581307D01*
X159810671Y-40583303D01*
X159809008Y-40584414D01*
X159807766Y-40584081D01*
X159772439Y-40560476D01*
X159724801Y-40551000D01*
X158400199Y-40551000D01*
X158352561Y-40560476D01*
X158317234Y-40584081D01*
X158315238Y-40584212D01*
X158314127Y-40582549D01*
X158314460Y-40581307D01*
X158322967Y-40568575D01*
X158343747Y-40502211D01*
X158322958Y-40431411D01*
X158314460Y-40418693D01*
X158314329Y-40416697D01*
X158315992Y-40415586D01*
X158317234Y-40415919D01*
G37*
G36*
X158317234Y-39915919D02*
G01*
X158352561Y-39939524D01*
X158400199Y-39949000D01*
X159724801Y-39949000D01*
X159772439Y-39939524D01*
X159807766Y-39915919D01*
X159809762Y-39915788D01*
X159810873Y-39917451D01*
X159810540Y-39918693D01*
X159802033Y-39931425D01*
X159781253Y-39997789D01*
X159802042Y-40068589D01*
X159810540Y-40081307D01*
X159810671Y-40083303D01*
X159809008Y-40084414D01*
X159807766Y-40084081D01*
X159772439Y-40060476D01*
X159724801Y-40051000D01*
X158400199Y-40051000D01*
X158352561Y-40060476D01*
X158317234Y-40084081D01*
X158315238Y-40084212D01*
X158314127Y-40082549D01*
X158314460Y-40081307D01*
X158322967Y-40068575D01*
X158343747Y-40002211D01*
X158322958Y-39931411D01*
X158314460Y-39918693D01*
X158314329Y-39916697D01*
X158315992Y-39915586D01*
X158317234Y-39915919D01*
G37*
G36*
X149992234Y-39915919D02*
G01*
X150027561Y-39939524D01*
X150075199Y-39949000D01*
X151399801Y-39949000D01*
X151447439Y-39939524D01*
X151482766Y-39915919D01*
X151484762Y-39915788D01*
X151485873Y-39917451D01*
X151485540Y-39918693D01*
X151477033Y-39931425D01*
X151456253Y-39997789D01*
X151477042Y-40068589D01*
X151485540Y-40081307D01*
X151485671Y-40083303D01*
X151484008Y-40084414D01*
X151482766Y-40084081D01*
X151447439Y-40060476D01*
X151399801Y-40051000D01*
X150075199Y-40051000D01*
X150027561Y-40060476D01*
X149992234Y-40084081D01*
X149990238Y-40084212D01*
X149989127Y-40082549D01*
X149989460Y-40081307D01*
X149997967Y-40068575D01*
X150018747Y-40002211D01*
X149997958Y-39931411D01*
X149989460Y-39918693D01*
X149989329Y-39916697D01*
X149990992Y-39915586D01*
X149992234Y-39915919D01*
G37*
G36*
X158317234Y-39415919D02*
G01*
X158352561Y-39439524D01*
X158400199Y-39449000D01*
X159724801Y-39449000D01*
X159772439Y-39439524D01*
X159807766Y-39415919D01*
X159809762Y-39415788D01*
X159810873Y-39417451D01*
X159810540Y-39418693D01*
X159802033Y-39431425D01*
X159781253Y-39497789D01*
X159802042Y-39568589D01*
X159810540Y-39581307D01*
X159810671Y-39583303D01*
X159809008Y-39584414D01*
X159807766Y-39584081D01*
X159772439Y-39560476D01*
X159724801Y-39551000D01*
X158400199Y-39551000D01*
X158352561Y-39560476D01*
X158317234Y-39584081D01*
X158315238Y-39584212D01*
X158314127Y-39582549D01*
X158314460Y-39581307D01*
X158322967Y-39568575D01*
X158343747Y-39502211D01*
X158322958Y-39431411D01*
X158314460Y-39418693D01*
X158314329Y-39416697D01*
X158315992Y-39415586D01*
X158317234Y-39415919D01*
G37*
G36*
X149992234Y-39415919D02*
G01*
X150027561Y-39439524D01*
X150075199Y-39449000D01*
X151399801Y-39449000D01*
X151447439Y-39439524D01*
X151482766Y-39415919D01*
X151484762Y-39415788D01*
X151485873Y-39417451D01*
X151485540Y-39418693D01*
X151477033Y-39431425D01*
X151456253Y-39497789D01*
X151477042Y-39568589D01*
X151485540Y-39581307D01*
X151485671Y-39583303D01*
X151484008Y-39584414D01*
X151482766Y-39584081D01*
X151447439Y-39560476D01*
X151399801Y-39551000D01*
X150075199Y-39551000D01*
X150027561Y-39560476D01*
X149992234Y-39584081D01*
X149990238Y-39584212D01*
X149989127Y-39582549D01*
X149989460Y-39581307D01*
X149997967Y-39568575D01*
X150018747Y-39502211D01*
X149997958Y-39431411D01*
X149989460Y-39418693D01*
X149989329Y-39416697D01*
X149990992Y-39415586D01*
X149992234Y-39415919D01*
G37*
G36*
X158317234Y-38915919D02*
G01*
X158352561Y-38939524D01*
X158400199Y-38949000D01*
X159724801Y-38949000D01*
X159772439Y-38939524D01*
X159807766Y-38915919D01*
X159809762Y-38915788D01*
X159810873Y-38917451D01*
X159810540Y-38918693D01*
X159802033Y-38931425D01*
X159781253Y-38997789D01*
X159802042Y-39068589D01*
X159810540Y-39081307D01*
X159810671Y-39083303D01*
X159809008Y-39084414D01*
X159807766Y-39084081D01*
X159772439Y-39060476D01*
X159724801Y-39051000D01*
X158400199Y-39051000D01*
X158352561Y-39060476D01*
X158317234Y-39084081D01*
X158315238Y-39084212D01*
X158314127Y-39082549D01*
X158314460Y-39081307D01*
X158322967Y-39068575D01*
X158343747Y-39002211D01*
X158322958Y-38931411D01*
X158314460Y-38918693D01*
X158314329Y-38916697D01*
X158315992Y-38915586D01*
X158317234Y-38915919D01*
G37*
G36*
X149992234Y-38915919D02*
G01*
X150027561Y-38939524D01*
X150075199Y-38949000D01*
X151399801Y-38949000D01*
X151447439Y-38939524D01*
X151482766Y-38915919D01*
X151484762Y-38915788D01*
X151485873Y-38917451D01*
X151485540Y-38918693D01*
X151477033Y-38931425D01*
X151456253Y-38997789D01*
X151477042Y-39068589D01*
X151485540Y-39081307D01*
X151485671Y-39083303D01*
X151484008Y-39084414D01*
X151482766Y-39084081D01*
X151447439Y-39060476D01*
X151399801Y-39051000D01*
X150075199Y-39051000D01*
X150027561Y-39060476D01*
X149992234Y-39084081D01*
X149990238Y-39084212D01*
X149989127Y-39082549D01*
X149989460Y-39081307D01*
X149997967Y-39068575D01*
X150018747Y-39002211D01*
X149997958Y-38931411D01*
X149989460Y-38918693D01*
X149989329Y-38916697D01*
X149990992Y-38915586D01*
X149992234Y-38915919D01*
G37*
G36*
X149992234Y-38415919D02*
G01*
X150027561Y-38439524D01*
X150075199Y-38449000D01*
X151399801Y-38449000D01*
X151447439Y-38439524D01*
X151482766Y-38415919D01*
X151484762Y-38415788D01*
X151485873Y-38417451D01*
X151485540Y-38418693D01*
X151477033Y-38431425D01*
X151456253Y-38497789D01*
X151477042Y-38568589D01*
X151485540Y-38581307D01*
X151485671Y-38583303D01*
X151484008Y-38584414D01*
X151482766Y-38584081D01*
X151447439Y-38560476D01*
X151399801Y-38551000D01*
X150075199Y-38551000D01*
X150027561Y-38560476D01*
X149992234Y-38584081D01*
X149990238Y-38584212D01*
X149989127Y-38582549D01*
X149989460Y-38581307D01*
X149997967Y-38568575D01*
X150018747Y-38502211D01*
X149997958Y-38431411D01*
X149989460Y-38418693D01*
X149989329Y-38416697D01*
X149990992Y-38415586D01*
X149992234Y-38415919D01*
G37*
G36*
X158317234Y-38415919D02*
G01*
X158352561Y-38439524D01*
X158400199Y-38449000D01*
X159724801Y-38449000D01*
X159772439Y-38439524D01*
X159807766Y-38415919D01*
X159809762Y-38415788D01*
X159810873Y-38417451D01*
X159810540Y-38418693D01*
X159802033Y-38431425D01*
X159781253Y-38497789D01*
X159802042Y-38568589D01*
X159810540Y-38581307D01*
X159810671Y-38583303D01*
X159809008Y-38584414D01*
X159807766Y-38584081D01*
X159772439Y-38560476D01*
X159724801Y-38551000D01*
X158400199Y-38551000D01*
X158352561Y-38560476D01*
X158317234Y-38584081D01*
X158315238Y-38584212D01*
X158314127Y-38582549D01*
X158314460Y-38581307D01*
X158322967Y-38568575D01*
X158343747Y-38502211D01*
X158322958Y-38431411D01*
X158314460Y-38418693D01*
X158314329Y-38416697D01*
X158315992Y-38415586D01*
X158317234Y-38415919D01*
G37*
G36*
X149992234Y-37915919D02*
G01*
X150027561Y-37939524D01*
X150075199Y-37949000D01*
X151399801Y-37949000D01*
X151447439Y-37939524D01*
X151482766Y-37915919D01*
X151484762Y-37915788D01*
X151485873Y-37917451D01*
X151485540Y-37918693D01*
X151477033Y-37931425D01*
X151456253Y-37997789D01*
X151477042Y-38068589D01*
X151485540Y-38081307D01*
X151485671Y-38083303D01*
X151484008Y-38084414D01*
X151482766Y-38084081D01*
X151447439Y-38060476D01*
X151399801Y-38051000D01*
X150075199Y-38051000D01*
X150027561Y-38060476D01*
X149992234Y-38084081D01*
X149990238Y-38084212D01*
X149989127Y-38082549D01*
X149989460Y-38081307D01*
X149997967Y-38068575D01*
X150018747Y-38002211D01*
X149997958Y-37931411D01*
X149989460Y-37918693D01*
X149989329Y-37916697D01*
X149990992Y-37915586D01*
X149992234Y-37915919D01*
G37*
G36*
X158317234Y-37915919D02*
G01*
X158352561Y-37939524D01*
X158400199Y-37949000D01*
X159724801Y-37949000D01*
X159772439Y-37939524D01*
X159807766Y-37915919D01*
X159809762Y-37915788D01*
X159810873Y-37917451D01*
X159810540Y-37918693D01*
X159802033Y-37931425D01*
X159781253Y-37997789D01*
X159802042Y-38068589D01*
X159810540Y-38081307D01*
X159810671Y-38083303D01*
X159809008Y-38084414D01*
X159807766Y-38084081D01*
X159772439Y-38060476D01*
X159724801Y-38051000D01*
X158400199Y-38051000D01*
X158352561Y-38060476D01*
X158317234Y-38084081D01*
X158315238Y-38084212D01*
X158314127Y-38082549D01*
X158314460Y-38081307D01*
X158322967Y-38068575D01*
X158343747Y-38002211D01*
X158322958Y-37931411D01*
X158314460Y-37918693D01*
X158314329Y-37916697D01*
X158315992Y-37915586D01*
X158317234Y-37915919D01*
G37*
G36*
X158317234Y-37415919D02*
G01*
X158352561Y-37439524D01*
X158400199Y-37449000D01*
X159724801Y-37449000D01*
X159772439Y-37439524D01*
X159807766Y-37415919D01*
X159809762Y-37415788D01*
X159810873Y-37417451D01*
X159810540Y-37418693D01*
X159802033Y-37431425D01*
X159781253Y-37497789D01*
X159802042Y-37568589D01*
X159810540Y-37581307D01*
X159810671Y-37583303D01*
X159809008Y-37584414D01*
X159807766Y-37584081D01*
X159772439Y-37560476D01*
X159724801Y-37551000D01*
X158400199Y-37551000D01*
X158352561Y-37560476D01*
X158317234Y-37584081D01*
X158315238Y-37584212D01*
X158314127Y-37582549D01*
X158314460Y-37581307D01*
X158322967Y-37568575D01*
X158343747Y-37502211D01*
X158322958Y-37431411D01*
X158314460Y-37418693D01*
X158314329Y-37416697D01*
X158315992Y-37415586D01*
X158317234Y-37415919D01*
G37*
G36*
X149992234Y-37415919D02*
G01*
X150027561Y-37439524D01*
X150075199Y-37449000D01*
X151399801Y-37449000D01*
X151447439Y-37439524D01*
X151482766Y-37415919D01*
X151484762Y-37415788D01*
X151485873Y-37417451D01*
X151485540Y-37418693D01*
X151477033Y-37431425D01*
X151456253Y-37497789D01*
X151477042Y-37568589D01*
X151485540Y-37581307D01*
X151485671Y-37583303D01*
X151484008Y-37584414D01*
X151482766Y-37584081D01*
X151447439Y-37560476D01*
X151399801Y-37551000D01*
X150075199Y-37551000D01*
X150027561Y-37560476D01*
X149992234Y-37584081D01*
X149990238Y-37584212D01*
X149989127Y-37582549D01*
X149989460Y-37581307D01*
X149997967Y-37568575D01*
X150018747Y-37502211D01*
X149997958Y-37431411D01*
X149989460Y-37418693D01*
X149989329Y-37416697D01*
X149990992Y-37415586D01*
X149992234Y-37415919D01*
G37*
G36*
X217923894Y-36315456D02*
G01*
X217970945Y-36354777D01*
X218039661Y-36363408D01*
X218102291Y-36333444D01*
X218109798Y-36324781D01*
X218111688Y-36324127D01*
X218113199Y-36325437D01*
X218112972Y-36327202D01*
X218104525Y-36339844D01*
X218096000Y-36382699D01*
X218096000Y-37232301D01*
X218104525Y-37275156D01*
X218128685Y-37311315D01*
X218164844Y-37335475D01*
X218207699Y-37344000D01*
X218332301Y-37344000D01*
X218375156Y-37335475D01*
X218406425Y-37314582D01*
X218408421Y-37314451D01*
X218409532Y-37316114D01*
X218409199Y-37317356D01*
X218399985Y-37331146D01*
X218400437Y-37331448D01*
X218401322Y-37333242D01*
X218400861Y-37334393D01*
X218383074Y-37355678D01*
X218374444Y-37424395D01*
X218404410Y-37487024D01*
X218415009Y-37496207D01*
X218415663Y-37498097D01*
X218414353Y-37499609D01*
X218413309Y-37499681D01*
X218394801Y-37496000D01*
X215145199Y-37496000D01*
X215126263Y-37499767D01*
X215120248Y-37503786D01*
X215118253Y-37503917D01*
X215117141Y-37502254D01*
X215117602Y-37500840D01*
X215156926Y-37453784D01*
X215165556Y-37385068D01*
X215140568Y-37332840D01*
X215140628Y-37332064D01*
X215139186Y-37329906D01*
X215139045Y-37329658D01*
X215135592Y-37322439D01*
X215132482Y-37319745D01*
X215132129Y-37319344D01*
X215130801Y-37317356D01*
X215130670Y-37315360D01*
X215132333Y-37314249D01*
X215133575Y-37314582D01*
X215164844Y-37335475D01*
X215207699Y-37344000D01*
X215332301Y-37344000D01*
X215375156Y-37335475D01*
X215411315Y-37311315D01*
X215435475Y-37275156D01*
X215444000Y-37232301D01*
X215444000Y-36382699D01*
X215435475Y-36339844D01*
X215420948Y-36318102D01*
X215420817Y-36316106D01*
X215422480Y-36314995D01*
X215423894Y-36315456D01*
X215470945Y-36354777D01*
X215539661Y-36363408D01*
X215602291Y-36333444D01*
X215609798Y-36324781D01*
X215611688Y-36324127D01*
X215613199Y-36325437D01*
X215612972Y-36327202D01*
X215604525Y-36339844D01*
X215596000Y-36382699D01*
X215596000Y-37232301D01*
X215604525Y-37275156D01*
X215628685Y-37311315D01*
X215664844Y-37335475D01*
X215707699Y-37344000D01*
X215832301Y-37344000D01*
X215875156Y-37335475D01*
X215911315Y-37311315D01*
X215935475Y-37275156D01*
X215944000Y-37232301D01*
X215944000Y-36382699D01*
X215935475Y-36339844D01*
X215920948Y-36318102D01*
X215920817Y-36316106D01*
X215922480Y-36314995D01*
X215923894Y-36315456D01*
X215970945Y-36354777D01*
X216039661Y-36363408D01*
X216102291Y-36333444D01*
X216109798Y-36324781D01*
X216111688Y-36324127D01*
X216113199Y-36325437D01*
X216112972Y-36327202D01*
X216104525Y-36339844D01*
X216096000Y-36382699D01*
X216096000Y-37232301D01*
X216104525Y-37275156D01*
X216128685Y-37311315D01*
X216164844Y-37335475D01*
X216207699Y-37344000D01*
X216332301Y-37344000D01*
X216375156Y-37335475D01*
X216411315Y-37311315D01*
X216435475Y-37275156D01*
X216444000Y-37232301D01*
X216444000Y-36382699D01*
X216435475Y-36339844D01*
X216420948Y-36318102D01*
X216420817Y-36316106D01*
X216422480Y-36314995D01*
X216423894Y-36315456D01*
X216470945Y-36354777D01*
X216539661Y-36363408D01*
X216602291Y-36333444D01*
X216609798Y-36324781D01*
X216611688Y-36324127D01*
X216613199Y-36325437D01*
X216612972Y-36327202D01*
X216604525Y-36339844D01*
X216596000Y-36382699D01*
X216596000Y-37232301D01*
X216604525Y-37275156D01*
X216628685Y-37311315D01*
X216664844Y-37335475D01*
X216707699Y-37344000D01*
X216832301Y-37344000D01*
X216875156Y-37335475D01*
X216911315Y-37311315D01*
X216935475Y-37275156D01*
X216944000Y-37232301D01*
X216944000Y-36382699D01*
X216935475Y-36339844D01*
X216920948Y-36318102D01*
X216920817Y-36316106D01*
X216922480Y-36314995D01*
X216923894Y-36315456D01*
X216970945Y-36354777D01*
X217039661Y-36363408D01*
X217102291Y-36333444D01*
X217109798Y-36324781D01*
X217111688Y-36324127D01*
X217113199Y-36325437D01*
X217112972Y-36327202D01*
X217104525Y-36339844D01*
X217096000Y-36382699D01*
X217096000Y-37232301D01*
X217104525Y-37275156D01*
X217128685Y-37311315D01*
X217164844Y-37335475D01*
X217207699Y-37344000D01*
X217332301Y-37344000D01*
X217375156Y-37335475D01*
X217411315Y-37311315D01*
X217435475Y-37275156D01*
X217444000Y-37232301D01*
X217444000Y-36382699D01*
X217435475Y-36339844D01*
X217420948Y-36318102D01*
X217420817Y-36316106D01*
X217422480Y-36314995D01*
X217423894Y-36315456D01*
X217470945Y-36354777D01*
X217539661Y-36363408D01*
X217602291Y-36333444D01*
X217609798Y-36324781D01*
X217611688Y-36324127D01*
X217613199Y-36325437D01*
X217612972Y-36327202D01*
X217604525Y-36339844D01*
X217596000Y-36382699D01*
X217596000Y-37232301D01*
X217604525Y-37275156D01*
X217628685Y-37311315D01*
X217664844Y-37335475D01*
X217707699Y-37344000D01*
X217832301Y-37344000D01*
X217875156Y-37335475D01*
X217911315Y-37311315D01*
X217935475Y-37275156D01*
X217944000Y-37232301D01*
X217944000Y-36382699D01*
X217935475Y-36339844D01*
X217920948Y-36318102D01*
X217920817Y-36316106D01*
X217922480Y-36314995D01*
X217923894Y-36315456D01*
G37*
G36*
X158317234Y-36915919D02*
G01*
X158352561Y-36939524D01*
X158400199Y-36949000D01*
X159724801Y-36949000D01*
X159772439Y-36939524D01*
X159807766Y-36915919D01*
X159809762Y-36915788D01*
X159810873Y-36917451D01*
X159810540Y-36918693D01*
X159802033Y-36931425D01*
X159781253Y-36997789D01*
X159802042Y-37068589D01*
X159810540Y-37081307D01*
X159810671Y-37083303D01*
X159809008Y-37084414D01*
X159807766Y-37084081D01*
X159772439Y-37060476D01*
X159724801Y-37051000D01*
X158400199Y-37051000D01*
X158352561Y-37060476D01*
X158317234Y-37084081D01*
X158315238Y-37084212D01*
X158314127Y-37082549D01*
X158314460Y-37081307D01*
X158322967Y-37068575D01*
X158343747Y-37002211D01*
X158322958Y-36931411D01*
X158314460Y-36918693D01*
X158314329Y-36916697D01*
X158315992Y-36915586D01*
X158317234Y-36915919D01*
G37*
G36*
X149992234Y-36915919D02*
G01*
X150027561Y-36939524D01*
X150075199Y-36949000D01*
X151399801Y-36949000D01*
X151447439Y-36939524D01*
X151482766Y-36915919D01*
X151484762Y-36915788D01*
X151485873Y-36917451D01*
X151485540Y-36918693D01*
X151477033Y-36931425D01*
X151456253Y-36997789D01*
X151477042Y-37068589D01*
X151485540Y-37081307D01*
X151485671Y-37083303D01*
X151484008Y-37084414D01*
X151482766Y-37084081D01*
X151447439Y-37060476D01*
X151399801Y-37051000D01*
X150075199Y-37051000D01*
X150027561Y-37060476D01*
X149992234Y-37084081D01*
X149990238Y-37084212D01*
X149989127Y-37082549D01*
X149989460Y-37081307D01*
X149997967Y-37068575D01*
X150018747Y-37002211D01*
X149997958Y-36931411D01*
X149989460Y-36918693D01*
X149989329Y-36916697D01*
X149990992Y-36915586D01*
X149992234Y-36915919D01*
G37*
G36*
X158317234Y-36415919D02*
G01*
X158352561Y-36439524D01*
X158400199Y-36449000D01*
X159724801Y-36449000D01*
X159772439Y-36439524D01*
X159807766Y-36415919D01*
X159809762Y-36415788D01*
X159810873Y-36417451D01*
X159810540Y-36418693D01*
X159802033Y-36431425D01*
X159781253Y-36497789D01*
X159802042Y-36568589D01*
X159810540Y-36581307D01*
X159810671Y-36583303D01*
X159809008Y-36584414D01*
X159807766Y-36584081D01*
X159772439Y-36560476D01*
X159724801Y-36551000D01*
X158400199Y-36551000D01*
X158352561Y-36560476D01*
X158317234Y-36584081D01*
X158315238Y-36584212D01*
X158314127Y-36582549D01*
X158314460Y-36581307D01*
X158322967Y-36568575D01*
X158343747Y-36502211D01*
X158322958Y-36431411D01*
X158314460Y-36418693D01*
X158314329Y-36416697D01*
X158315992Y-36415586D01*
X158317234Y-36415919D01*
G37*
G36*
X149992234Y-36415919D02*
G01*
X150027561Y-36439524D01*
X150075199Y-36449000D01*
X151399801Y-36449000D01*
X151447439Y-36439524D01*
X151482766Y-36415919D01*
X151484762Y-36415788D01*
X151485873Y-36417451D01*
X151485540Y-36418693D01*
X151477033Y-36431425D01*
X151456253Y-36497789D01*
X151477042Y-36568589D01*
X151485540Y-36581307D01*
X151485671Y-36583303D01*
X151484008Y-36584414D01*
X151482766Y-36584081D01*
X151447439Y-36560476D01*
X151399801Y-36551000D01*
X150075199Y-36551000D01*
X150027561Y-36560476D01*
X149992234Y-36584081D01*
X149990238Y-36584212D01*
X149989127Y-36582549D01*
X149989460Y-36581307D01*
X149997967Y-36568575D01*
X150018747Y-36502211D01*
X149997958Y-36431411D01*
X149989460Y-36418693D01*
X149989329Y-36416697D01*
X149990992Y-36415586D01*
X149992234Y-36415919D01*
G37*
G36*
X149992234Y-35915919D02*
G01*
X150027561Y-35939524D01*
X150075199Y-35949000D01*
X151399801Y-35949000D01*
X151447439Y-35939524D01*
X151482766Y-35915919D01*
X151484762Y-35915788D01*
X151485873Y-35917451D01*
X151485540Y-35918693D01*
X151477033Y-35931425D01*
X151456253Y-35997789D01*
X151477042Y-36068589D01*
X151485540Y-36081307D01*
X151485671Y-36083303D01*
X151484008Y-36084414D01*
X151482766Y-36084081D01*
X151447439Y-36060476D01*
X151399801Y-36051000D01*
X150075199Y-36051000D01*
X150027561Y-36060476D01*
X149992234Y-36084081D01*
X149990238Y-36084212D01*
X149989127Y-36082549D01*
X149989460Y-36081307D01*
X149997967Y-36068575D01*
X150018747Y-36002211D01*
X149997958Y-35931411D01*
X149989460Y-35918693D01*
X149989329Y-35916697D01*
X149990992Y-35915586D01*
X149992234Y-35915919D01*
G37*
G36*
X158317234Y-35915919D02*
G01*
X158352561Y-35939524D01*
X158400199Y-35949000D01*
X159724801Y-35949000D01*
X159772439Y-35939524D01*
X159807766Y-35915919D01*
X159809762Y-35915788D01*
X159810873Y-35917451D01*
X159810540Y-35918693D01*
X159802033Y-35931425D01*
X159781253Y-35997789D01*
X159802042Y-36068589D01*
X159810540Y-36081307D01*
X159810671Y-36083303D01*
X159809008Y-36084414D01*
X159807766Y-36084081D01*
X159772439Y-36060476D01*
X159724801Y-36051000D01*
X158400199Y-36051000D01*
X158352561Y-36060476D01*
X158317234Y-36084081D01*
X158315238Y-36084212D01*
X158314127Y-36082549D01*
X158314460Y-36081307D01*
X158322967Y-36068575D01*
X158343747Y-36002211D01*
X158322958Y-35931411D01*
X158314460Y-35918693D01*
X158314329Y-35916697D01*
X158315992Y-35915586D01*
X158317234Y-35915919D01*
G37*
G36*
X152318693Y-33589460D02*
G01*
X152331425Y-33597967D01*
X152397789Y-33618747D01*
X152468589Y-33597958D01*
X152481307Y-33589460D01*
X152483303Y-33589329D01*
X152484414Y-33590992D01*
X152484081Y-33592234D01*
X152460476Y-33627561D01*
X152451000Y-33675199D01*
X152451000Y-34999801D01*
X152460476Y-35047439D01*
X152484081Y-35082766D01*
X152484212Y-35084762D01*
X152482549Y-35085873D01*
X152481307Y-35085540D01*
X152468575Y-35077033D01*
X152402211Y-35056253D01*
X152331411Y-35077042D01*
X152318693Y-35085540D01*
X152316697Y-35085671D01*
X152315586Y-35084008D01*
X152315919Y-35082766D01*
X152339524Y-35047439D01*
X152349000Y-34999801D01*
X152349000Y-33675199D01*
X152339524Y-33627561D01*
X152315919Y-33592234D01*
X152315788Y-33590238D01*
X152317451Y-33589127D01*
X152318693Y-33589460D01*
G37*
G36*
X156318693Y-33589460D02*
G01*
X156331425Y-33597967D01*
X156397789Y-33618747D01*
X156468589Y-33597958D01*
X156481307Y-33589460D01*
X156483303Y-33589329D01*
X156484414Y-33590992D01*
X156484081Y-33592234D01*
X156460476Y-33627561D01*
X156451000Y-33675199D01*
X156451000Y-34999801D01*
X156460476Y-35047439D01*
X156484081Y-35082766D01*
X156484212Y-35084762D01*
X156482549Y-35085873D01*
X156481307Y-35085540D01*
X156468575Y-35077033D01*
X156402211Y-35056253D01*
X156331411Y-35077042D01*
X156318693Y-35085540D01*
X156316697Y-35085671D01*
X156315586Y-35084008D01*
X156315919Y-35082766D01*
X156339524Y-35047439D01*
X156349000Y-34999801D01*
X156349000Y-33675199D01*
X156339524Y-33627561D01*
X156315919Y-33592234D01*
X156315788Y-33590238D01*
X156317451Y-33589127D01*
X156318693Y-33589460D01*
G37*
G36*
X156818693Y-33589460D02*
G01*
X156831425Y-33597967D01*
X156897789Y-33618747D01*
X156968589Y-33597958D01*
X156981307Y-33589460D01*
X156983303Y-33589329D01*
X156984414Y-33590992D01*
X156984081Y-33592234D01*
X156960476Y-33627561D01*
X156951000Y-33675199D01*
X156951000Y-34999801D01*
X156960476Y-35047439D01*
X156984081Y-35082766D01*
X156984212Y-35084762D01*
X156982549Y-35085873D01*
X156981307Y-35085540D01*
X156968575Y-35077033D01*
X156902211Y-35056253D01*
X156831411Y-35077042D01*
X156818693Y-35085540D01*
X156816697Y-35085671D01*
X156815586Y-35084008D01*
X156815919Y-35082766D01*
X156839524Y-35047439D01*
X156849000Y-34999801D01*
X156849000Y-33675199D01*
X156839524Y-33627561D01*
X156815919Y-33592234D01*
X156815788Y-33590238D01*
X156817451Y-33589127D01*
X156818693Y-33589460D01*
G37*
G36*
X155818693Y-33589460D02*
G01*
X155831425Y-33597967D01*
X155897789Y-33618747D01*
X155968589Y-33597958D01*
X155981307Y-33589460D01*
X155983303Y-33589329D01*
X155984414Y-33590992D01*
X155984081Y-33592234D01*
X155960476Y-33627561D01*
X155951000Y-33675199D01*
X155951000Y-34999801D01*
X155960476Y-35047439D01*
X155984081Y-35082766D01*
X155984212Y-35084762D01*
X155982549Y-35085873D01*
X155981307Y-35085540D01*
X155968575Y-35077033D01*
X155902211Y-35056253D01*
X155831411Y-35077042D01*
X155818693Y-35085540D01*
X155816697Y-35085671D01*
X155815586Y-35084008D01*
X155815919Y-35082766D01*
X155839524Y-35047439D01*
X155849000Y-34999801D01*
X155849000Y-33675199D01*
X155839524Y-33627561D01*
X155815919Y-33592234D01*
X155815788Y-33590238D01*
X155817451Y-33589127D01*
X155818693Y-33589460D01*
G37*
G36*
X155318693Y-33589460D02*
G01*
X155331425Y-33597967D01*
X155397789Y-33618747D01*
X155468589Y-33597958D01*
X155481307Y-33589460D01*
X155483303Y-33589329D01*
X155484414Y-33590992D01*
X155484081Y-33592234D01*
X155460476Y-33627561D01*
X155451000Y-33675199D01*
X155451000Y-34999801D01*
X155460476Y-35047439D01*
X155484081Y-35082766D01*
X155484212Y-35084762D01*
X155482549Y-35085873D01*
X155481307Y-35085540D01*
X155468575Y-35077033D01*
X155402211Y-35056253D01*
X155331411Y-35077042D01*
X155318693Y-35085540D01*
X155316697Y-35085671D01*
X155315586Y-35084008D01*
X155315919Y-35082766D01*
X155339524Y-35047439D01*
X155349000Y-34999801D01*
X155349000Y-33675199D01*
X155339524Y-33627561D01*
X155315919Y-33592234D01*
X155315788Y-33590238D01*
X155317451Y-33589127D01*
X155318693Y-33589460D01*
G37*
G36*
X153818693Y-33589460D02*
G01*
X153831425Y-33597967D01*
X153897789Y-33618747D01*
X153968589Y-33597958D01*
X153981307Y-33589460D01*
X153983303Y-33589329D01*
X153984414Y-33590992D01*
X153984081Y-33592234D01*
X153960476Y-33627561D01*
X153951000Y-33675199D01*
X153951000Y-34999801D01*
X153960476Y-35047439D01*
X153984081Y-35082766D01*
X153984212Y-35084762D01*
X153982549Y-35085873D01*
X153981307Y-35085540D01*
X153968575Y-35077033D01*
X153902211Y-35056253D01*
X153831411Y-35077042D01*
X153818693Y-35085540D01*
X153816697Y-35085671D01*
X153815586Y-35084008D01*
X153815919Y-35082766D01*
X153839524Y-35047439D01*
X153849000Y-34999801D01*
X153849000Y-33675199D01*
X153839524Y-33627561D01*
X153815919Y-33592234D01*
X153815788Y-33590238D01*
X153817451Y-33589127D01*
X153818693Y-33589460D01*
G37*
G36*
X154318693Y-33589460D02*
G01*
X154331425Y-33597967D01*
X154397789Y-33618747D01*
X154468589Y-33597958D01*
X154481307Y-33589460D01*
X154483303Y-33589329D01*
X154484414Y-33590992D01*
X154484081Y-33592234D01*
X154460476Y-33627561D01*
X154451000Y-33675199D01*
X154451000Y-34999801D01*
X154460476Y-35047439D01*
X154484081Y-35082766D01*
X154484212Y-35084762D01*
X154482549Y-35085873D01*
X154481307Y-35085540D01*
X154468575Y-35077033D01*
X154402211Y-35056253D01*
X154331411Y-35077042D01*
X154318693Y-35085540D01*
X154316697Y-35085671D01*
X154315586Y-35084008D01*
X154315919Y-35082766D01*
X154339524Y-35047439D01*
X154349000Y-34999801D01*
X154349000Y-33675199D01*
X154339524Y-33627561D01*
X154315919Y-33592234D01*
X154315788Y-33590238D01*
X154317451Y-33589127D01*
X154318693Y-33589460D01*
G37*
G36*
X154818693Y-33589460D02*
G01*
X154831425Y-33597967D01*
X154897789Y-33618747D01*
X154968589Y-33597958D01*
X154981307Y-33589460D01*
X154983303Y-33589329D01*
X154984414Y-33590992D01*
X154984081Y-33592234D01*
X154960476Y-33627561D01*
X154951000Y-33675199D01*
X154951000Y-34999801D01*
X154960476Y-35047439D01*
X154984081Y-35082766D01*
X154984212Y-35084762D01*
X154982549Y-35085873D01*
X154981307Y-35085540D01*
X154968575Y-35077033D01*
X154902211Y-35056253D01*
X154831411Y-35077042D01*
X154818693Y-35085540D01*
X154816697Y-35085671D01*
X154815586Y-35084008D01*
X154815919Y-35082766D01*
X154839524Y-35047439D01*
X154849000Y-34999801D01*
X154849000Y-33675199D01*
X154839524Y-33627561D01*
X154815919Y-33592234D01*
X154815788Y-33590238D01*
X154817451Y-33589127D01*
X154818693Y-33589460D01*
G37*
G36*
X153318693Y-33589460D02*
G01*
X153331425Y-33597967D01*
X153397789Y-33618747D01*
X153468589Y-33597958D01*
X153481307Y-33589460D01*
X153483303Y-33589329D01*
X153484414Y-33590992D01*
X153484081Y-33592234D01*
X153460476Y-33627561D01*
X153451000Y-33675199D01*
X153451000Y-34999801D01*
X153460476Y-35047439D01*
X153484081Y-35082766D01*
X153484212Y-35084762D01*
X153482549Y-35085873D01*
X153481307Y-35085540D01*
X153468575Y-35077033D01*
X153402211Y-35056253D01*
X153331411Y-35077042D01*
X153318693Y-35085540D01*
X153316697Y-35085671D01*
X153315586Y-35084008D01*
X153315919Y-35082766D01*
X153339524Y-35047439D01*
X153349000Y-34999801D01*
X153349000Y-33675199D01*
X153339524Y-33627561D01*
X153315919Y-33592234D01*
X153315788Y-33590238D01*
X153317451Y-33589127D01*
X153318693Y-33589460D01*
G37*
G36*
X157318693Y-33589460D02*
G01*
X157331425Y-33597967D01*
X157397789Y-33618747D01*
X157468589Y-33597958D01*
X157481307Y-33589460D01*
X157483303Y-33589329D01*
X157484414Y-33590992D01*
X157484081Y-33592234D01*
X157460476Y-33627561D01*
X157451000Y-33675199D01*
X157451000Y-34999801D01*
X157460476Y-35047439D01*
X157484081Y-35082766D01*
X157484212Y-35084762D01*
X157482549Y-35085873D01*
X157481307Y-35085540D01*
X157468575Y-35077033D01*
X157402211Y-35056253D01*
X157331411Y-35077042D01*
X157318693Y-35085540D01*
X157316697Y-35085671D01*
X157315586Y-35084008D01*
X157315919Y-35082766D01*
X157339524Y-35047439D01*
X157349000Y-34999801D01*
X157349000Y-33675199D01*
X157339524Y-33627561D01*
X157315919Y-33592234D01*
X157315788Y-33590238D01*
X157317451Y-33589127D01*
X157318693Y-33589460D01*
G37*
G36*
X152818693Y-33589460D02*
G01*
X152831425Y-33597967D01*
X152897789Y-33618747D01*
X152968589Y-33597958D01*
X152981307Y-33589460D01*
X152983303Y-33589329D01*
X152984414Y-33590992D01*
X152984081Y-33592234D01*
X152960476Y-33627561D01*
X152951000Y-33675199D01*
X152951000Y-34999801D01*
X152960476Y-35047439D01*
X152984081Y-35082766D01*
X152984212Y-35084762D01*
X152982549Y-35085873D01*
X152981307Y-35085540D01*
X152968575Y-35077033D01*
X152902211Y-35056253D01*
X152831411Y-35077042D01*
X152818693Y-35085540D01*
X152816697Y-35085671D01*
X152815586Y-35084008D01*
X152815919Y-35082766D01*
X152839524Y-35047439D01*
X152849000Y-34999801D01*
X152849000Y-33675199D01*
X152839524Y-33627561D01*
X152815919Y-33592234D01*
X152815788Y-33590238D01*
X152817451Y-33589127D01*
X152818693Y-33589460D01*
G37*
M02*
