M48
; DRILL file {KiCad (6.0.1-0)} date 2022 February 22, Tuesday 17:32:01
; FORMAT={-:-/ absolute / metric / decimal}
; #@! TF.CreationDate,2022-02-22T17:32:01+01:00
; #@! TF.GenerationSoftware,Kicad,Pcbnew,(6.0.1-0)
; #@! TF.FileFunction,Plated,1,2,PTH
FMAT,2
METRIC
; #@! TA.AperFunction,Plated,PTH,ComponentDrill
T1C0.200
; #@! TA.AperFunction,Plated,PTH,ViaDrill
T2C0.400
; #@! TA.AperFunction,Plated,PTH,ComponentDrill
T3C0.500
; #@! TA.AperFunction,Plated,PTH,ComponentDrill
T4C0.762
; #@! TA.AperFunction,Plated,PTH,ComponentDrill
T5C0.890
; #@! TA.AperFunction,Plated,PTH,ComponentDrill
T6C0.950
; #@! TA.AperFunction,Plated,PTH,ComponentDrill
T7C1.000
; #@! TA.AperFunction,Plated,PTH,ComponentDrill
T8C1.020
; #@! TA.AperFunction,Plated,PTH,ComponentDrill
T9C1.630
; #@! TA.AperFunction,Plated,PTH,ComponentDrill
T10C1.900
; #@! TA.AperFunction,Plated,PTH,ComponentDrill
T11C3.200
%
G90
G05
T1
X215.395Y-37.795
X215.395Y-39.17
X215.395Y-40.545
X216.77Y-37.795
X216.77Y-39.17
X216.77Y-40.545
X218.145Y-37.795
X218.145Y-39.17
X218.145Y-40.545
T2
X147.0Y-35.6
X147.05Y-33.85
X147.4Y-52.5
X147.45Y-54.25
X147.55Y-57.1
X147.6Y-40.4
X148.85Y-34.9
X150.05Y-55.7
X150.9Y-34.45
X151.1Y-43.55
X152.4Y-54.0
X152.6Y-37.95
X152.6Y-55.2
X152.8Y-27.4
X152.8Y-32.6
X152.8Y-51.6
X152.95Y-36.1
X153.0Y-63.95
X153.15Y-39.75
X153.35Y-40.7
X153.4Y-44.1
X153.6Y-54.0
X153.6Y-56.2
X153.7Y-28.4
X153.9Y-36.75
X154.05Y-61.75
X154.2Y-37.67
X154.5Y-58.7
X154.65Y-40.85
X155.0Y-55.4
X155.05Y-63.45
X155.1Y-36.75
X155.2Y-52.4
X155.35Y-35.75
X155.8Y-56.6
X156.2Y-27.4
X156.3Y-36.65
X156.8Y-53.4
X156.8Y-55.4
X157.15Y-31.85
X157.3Y-38.25
X157.4Y-61.8
X157.6Y-40.9
X157.6Y-45.4
X158.0Y-47.75
X158.0Y-52.4
X158.0Y-56.6
X158.0Y-63.75
X158.6Y-43.2
X158.8Y-32.2
X159.2Y-53.4
X159.2Y-55.4
X159.3Y-50.6
X159.6Y-44.05
X159.6Y-45.2
X160.2Y-27.8
X160.4Y-31.5
X160.4Y-52.4
X160.4Y-56.6
X160.55Y-40.0
X160.55Y-59.3
X160.6Y-29.8
X160.7Y-61.9
X160.8Y-51.4
X161.4Y-53.4
X161.4Y-55.4
X161.6Y-58.4
X162.0Y-29.4
X162.0Y-51.8
X162.0Y-56.6
X162.4Y-59.6
X162.45Y-38.8
X162.45Y-41.05
X162.5Y-37.7
X162.7Y-58.2
X162.75Y-42.6
X163.1Y-34.9
X163.15Y-57.05
X163.2Y-47.8
X163.2Y-51.2
X163.2Y-52.4
X163.2Y-53.4
X163.2Y-55.4
X163.25Y-37.2
X163.3Y-49.8
X163.35Y-34.65
X163.5Y-39.9
X163.5Y-63.7
X163.6Y-27.8
X164.4Y-56.6
X164.8Y-55.4
X165.8Y-31.4
X165.8Y-54.6
X166.0Y-56.3
X166.35Y-34.57
X166.55Y-63.75
X167.05Y-61.77
X168.35Y-34.57
X168.4Y-27.4
X168.7Y-56.2
X168.8Y-37.0
X169.15Y-59.55
X169.65Y-33.2
X169.65Y-63.75
X170.25Y-27.3
X170.65Y-29.15
X170.75Y-31.1
X171.0Y-59.45
X171.15Y-34.45
X171.55Y-57.15
X173.15Y-56.07
X173.45Y-63.4
X173.85Y-37.02
X174.55Y-61.97
X174.75Y-57.3
X174.9Y-54.47
X175.9Y-61.0
X176.05Y-37.17
X176.3Y-63.45
X176.5Y-29.4
X176.9Y-32.35
X177.15Y-27.5
X178.15Y-33.45
X178.75Y-37.4
X179.1Y-54.05
X179.85Y-44.22
X179.9Y-46.27
X179.9Y-48.02
X180.05Y-37.75
X180.55Y-40.32
X182.0Y-57.1
X183.0Y-33.85
X183.0Y-56.0
X183.45Y-38.57
X183.45Y-43.82
X183.45Y-53.72
X183.5Y-48.27
X187.75Y-46.57
X187.95Y-52.47
X187.95Y-53.67
X188.0Y-33.9
X188.1Y-41.2
X188.6Y-35.2
X188.7Y-49.5
X188.95Y-45.57
X189.1Y-40.9
X189.3Y-48.4
X189.65Y-56.97
X191.15Y-51.27
X191.45Y-55.77
X192.5Y-47.8
X193.1Y-44.7
X193.1Y-44.7
X193.15Y-57.97
X193.4Y-43.2
X193.6Y-39.2
X193.65Y-47.3
X193.65Y-55.37
X193.8Y-32.9
X194.05Y-56.57
X194.1Y-27.45
X194.1Y-37.7
X194.1Y-45.7
X194.6Y-28.7
X194.6Y-39.2
X194.7Y-47.1
X194.736Y-38.3
X194.8Y-42.4
X194.8Y-44.3
X194.8Y-57.32
X195.2Y-52.9
X195.25Y-54.32
X195.55Y-43.1
X195.6Y-46.5
X195.8Y-38.5
X196.1Y-37.7
X196.2Y-44.3
X196.6Y-47.7
X196.6Y-59.32
X196.65Y-43.07
X197.15Y-31.9
X197.8Y-42.9
X197.85Y-47.67
X198.45Y-63.37
X198.85Y-39.95
X199.0Y-51.4
X199.1Y-37.2
X199.85Y-49.17
X199.85Y-56.97
X200.25Y-50.77
X200.6Y-37.2
X201.05Y-48.87
X201.15Y-28.07
X201.35Y-30.47
X201.35Y-31.97
X201.45Y-45.57
X201.75Y-56.87
X201.85Y-58.27
X202.15Y-60.37
X202.15Y-61.17
X202.65Y-44.27
X202.75Y-32.77
X202.95Y-37.67
X203.15Y-31.27
X203.45Y-62.47
X203.55Y-57.57
X204.15Y-28.47
X204.15Y-63.87
X204.25Y-46.37
X204.75Y-49.77
X204.85Y-34.27
X205.05Y-38.07
X205.75Y-61.57
X206.037Y-50.87
X206.25Y-41.67
X206.45Y-56.47
X206.55Y-37.97
X206.75Y-28.07
X207.05Y-40.934
X207.45Y-50.27
X207.85Y-33.87
X207.95Y-37.37
X207.95Y-38.17
X207.95Y-44.57
X208.35Y-46.67
X208.35Y-56.37
X208.75Y-27.87
X208.85Y-43.07
X209.05Y-59.67
X209.35Y-50.07
X209.95Y-62.27
X210.212Y-36.807
X210.25Y-37.97
X210.25Y-49.07
X210.55Y-50.47
X210.65Y-34.17
X210.712Y-36.807
X211.15Y-27.97
X211.25Y-45.77
X211.25Y-46.867
X211.35Y-33.37
X211.35Y-37.97
X211.95Y-52.07
X211.95Y-55.77
X212.25Y-46.77
X212.35Y-38.57
X212.35Y-49.27
X212.85Y-42.27
X213.25Y-50.17
X213.75Y-49.07
X213.85Y-32.87
X213.85Y-59.57
X213.95Y-41.97
X214.15Y-56.47
X214.55Y-46.17
X214.688Y-36.807
X214.75Y-27.97
X214.75Y-62.97
X214.95Y-50.17
X216.15Y-32.57
X216.15Y-46.67
X216.25Y-49.37
X216.25Y-55.67
X216.35Y-43.77
X216.75Y-33.97
X216.95Y-44.87
X217.25Y-29.47
X217.35Y-51.87
X217.4Y-45.92
X217.85Y-27.87
X218.05Y-57.97
X218.25Y-46.77
X218.35Y-49.37
X218.812Y-36.807
X219.15Y-41.57
X219.25Y-42.77
X219.25Y-45.17
X219.75Y-57.37
X219.85Y-53.57
X220.05Y-43.87
X220.35Y-41.87
X220.55Y-38.67
X220.55Y-48.37
X220.712Y-36.807
X221.15Y-47.07
X221.75Y-50.37
X222.55Y-52.57
X222.65Y-40.97
X223.05Y-34.47
X223.55Y-53.27
X224.15Y-35.67
X224.25Y-58.07
T3
X147.2Y-30.2
X147.2Y-61.2
X147.903Y-28.503
X147.903Y-31.897
X147.903Y-59.503
X147.903Y-62.897
X149.6Y-27.8
X149.6Y-32.6
X149.6Y-58.8
X149.6Y-63.6
X151.297Y-28.503
X151.297Y-31.897
X151.297Y-59.503
X151.297Y-62.897
X152.0Y-30.2
X152.0Y-61.2
X178.2Y-30.2
X178.2Y-61.2
X178.903Y-28.503
X178.903Y-31.897
X178.903Y-59.503
X178.903Y-62.897
X180.6Y-27.8
X180.6Y-32.6
X180.6Y-58.8
X180.6Y-63.6
X182.297Y-28.503
X182.297Y-31.897
X182.297Y-59.503
X182.297Y-62.897
X183.0Y-30.2
X183.0Y-61.2
X188.2Y-30.2
X188.2Y-61.2
X188.903Y-28.503
X188.903Y-31.897
X188.903Y-59.503
X188.903Y-62.897
X190.6Y-27.8
X190.6Y-32.6
X190.6Y-58.8
X190.6Y-63.6
X192.297Y-28.503
X192.297Y-31.897
X192.297Y-59.503
X192.297Y-62.897
X193.0Y-30.2
X193.0Y-61.2
X219.2Y-30.2
X219.2Y-61.175
X219.903Y-28.503
X219.903Y-31.897
X219.903Y-59.478
X219.903Y-62.872
X221.6Y-27.8
X221.6Y-32.6
X221.6Y-58.775
X221.6Y-63.575
X223.297Y-28.503
X223.297Y-31.897
X223.297Y-59.478
X223.297Y-62.872
X224.0Y-30.2
X224.0Y-61.175
T4
X223.86Y-46.35
X223.86Y-48.89
X223.86Y-51.43
T5
X165.46Y-41.26
X165.46Y-43.8
X165.46Y-46.34
X165.46Y-48.88
X168.0Y-42.53
X168.0Y-45.07
X168.0Y-47.61
X168.0Y-50.15
T6
X204.95Y-31.37
X207.45Y-31.37
X209.95Y-31.37
X212.45Y-31.37
T7
X147.6Y-41.9
X147.6Y-44.44
X147.6Y-46.98
X147.6Y-49.52
X156.4Y-59.4
X158.9Y-59.4
X164.3Y-59.4
X164.96Y-35.8
X166.8Y-59.4
X167.5Y-35.8
X170.04Y-35.8
X172.58Y-35.8
X172.6Y-28.12
X172.6Y-30.66
X172.6Y-33.2
X175.12Y-35.8
X175.14Y-28.12
X175.14Y-30.66
X175.14Y-33.2
X177.66Y-35.8
X180.2Y-35.8
X191.0Y-35.8
X193.54Y-35.8
X196.06Y-28.12
X196.06Y-30.66
X196.06Y-33.2
X196.08Y-35.8
X198.6Y-28.12
X198.6Y-30.66
X198.6Y-33.2
X198.62Y-35.8
X201.16Y-35.8
X203.7Y-35.8
X206.24Y-35.8
X206.4Y-63.1
X217.4Y-63.1
T8
X179.25Y-39.075
X179.25Y-41.615
X179.25Y-49.785
X179.25Y-52.325
T9
X171.3Y-37.955
X171.3Y-53.445
T10
X209.4Y-53.1
X214.4Y-53.1
T11
X149.6Y-30.2
X149.6Y-61.2
X180.6Y-30.2
X180.6Y-61.2
X190.6Y-30.2
X190.6Y-61.2
X221.6Y-30.2
X221.6Y-61.175
T0
M30
