%TF.GenerationSoftware,KiCad,Pcbnew,(6.0.1-0)*%
%TF.CreationDate,2022-02-22T17:31:55+01:00*%
%TF.ProjectId,ethersweep,65746865-7273-4776-9565-702e6b696361,2.0.1*%
%TF.SameCoordinates,Original*%
%TF.FileFunction,Other,User*%
%FSLAX46Y46*%
G04 Gerber Fmt 4.6, Leading zero omitted, Abs format (unit mm)*
G04 Created by KiCad (PCBNEW (6.0.1-0)) date 2022-02-22 17:31:55*
%MOMM*%
%LPD*%
G01*
G04 APERTURE LIST*
%TA.AperFunction,Profile*%
%ADD10C,0.150000*%
%TD*%
%ADD11C,0.050000*%
G04 APERTURE END LIST*
D10*
X184100000Y-31800000D02*
X184100000Y-30200000D01*
X184100000Y-60700000D02*
X184100000Y-59400000D01*
X180600000Y-26700000D02*
X149600000Y-26700000D01*
X149600000Y-26700000D02*
G75*
G03*
X146100000Y-30200000I-1J-3499999D01*
G01*
X184100000Y-30200000D02*
G75*
G03*
X180600000Y-26700000I-3499999J1D01*
G01*
X180600000Y-64700000D02*
G75*
G03*
X184100000Y-61200000I1J3499999D01*
G01*
X146100000Y-30200000D02*
X146100000Y-61200000D01*
X149600000Y-64700000D02*
X180600000Y-64700000D01*
X146100000Y-61200000D02*
G75*
G03*
X149600000Y-64700000I3499999J-1D01*
G01*
X184100000Y-61200000D02*
X184100000Y-60700000D01*
X225100000Y-61200000D02*
X225100000Y-30200000D01*
X190600000Y-64700000D02*
X221600000Y-64700000D01*
X187100000Y-61200000D02*
G75*
G03*
X190600000Y-64700000I3499999J-1D01*
G01*
X221600000Y-64700000D02*
G75*
G03*
X225100000Y-61200000I1J3499999D01*
G01*
X190600000Y-26700000D02*
G75*
G03*
X187100000Y-30200000I-1J-3499999D01*
G01*
X190600000Y-26700000D02*
X221600000Y-26700000D01*
X187100000Y-30200000D02*
X187100000Y-30700000D01*
X187100000Y-61200000D02*
X187100000Y-59400000D01*
X187100000Y-31800000D02*
X187100000Y-30700000D01*
X225100000Y-30200000D02*
G75*
G03*
X221600000Y-26700000I-3499999J1D01*
G01*
X184099404Y-31800002D02*
G75*
G03*
X187100000Y-31800000I1500298J-298D01*
G01*
X187100596Y-59399998D02*
G75*
G03*
X184100000Y-59400000I-1500298J298D01*
G01*
D11*
X159110000Y-44760000D02*
X157290000Y-44760000D01*
X157290000Y-43840000D02*
X159110000Y-43840000D01*
X157290000Y-44760000D02*
X157290000Y-43840000D01*
X159110000Y-43840000D02*
X159110000Y-44760000D01*
X150960000Y-41890000D02*
X150960000Y-43710000D01*
X150960000Y-43710000D02*
X150040000Y-43710000D01*
X150040000Y-41890000D02*
X150960000Y-41890000D01*
X150040000Y-43710000D02*
X150040000Y-41890000D01*
X161280000Y-35200000D02*
X159320000Y-35200000D01*
X159320000Y-31800000D02*
X161280000Y-31800000D01*
X161280000Y-31800000D02*
X161280000Y-35200000D01*
X159320000Y-35200000D02*
X159320000Y-31800000D01*
X148450000Y-54850000D02*
X148450000Y-53150000D01*
X151950000Y-53150000D02*
X151950000Y-54850000D01*
X151950000Y-54850000D02*
X148450000Y-54850000D01*
X148450000Y-53150000D02*
X151950000Y-53150000D01*
X185520000Y-36450000D02*
X163620000Y-36450000D01*
X163620000Y-36450000D02*
X163620000Y-54950000D01*
X163620000Y-54950000D02*
X185520000Y-54950000D01*
X185520000Y-54950000D02*
X185520000Y-36450000D01*
X184050000Y-30200000D02*
G75*
G03*
X184050000Y-30200000I-3450000J0D01*
G01*
X153050000Y-30200000D02*
G75*
G03*
X153050000Y-30200000I-3450000J0D01*
G01*
X153050000Y-61200000D02*
G75*
G03*
X153050000Y-61200000I-3450000J0D01*
G01*
X184050000Y-61200000D02*
G75*
G03*
X184050000Y-61200000I-3450000J0D01*
G01*
X175320000Y-57130000D02*
X175320000Y-55670000D01*
X178280000Y-57130000D02*
X175320000Y-57130000D01*
X178280000Y-55670000D02*
X178280000Y-57130000D01*
X175320000Y-55670000D02*
X178280000Y-55670000D01*
X158500000Y-31200000D02*
X158500000Y-27800000D01*
X154300000Y-31200000D02*
X158500000Y-31200000D01*
X158500000Y-27800000D02*
X154300000Y-27800000D01*
X154300000Y-27800000D02*
X154300000Y-31200000D01*
X160210000Y-38010000D02*
X160210000Y-37090000D01*
X160210000Y-37090000D02*
X162030000Y-37090000D01*
X162030000Y-37090000D02*
X162030000Y-38010000D01*
X162030000Y-38010000D02*
X160210000Y-38010000D01*
X151150000Y-41650000D02*
X151150000Y-42250000D01*
X158050000Y-43650000D02*
X154900000Y-43650000D01*
X151150000Y-35350000D02*
X151150000Y-34750000D01*
X160050000Y-41650000D02*
X158650000Y-41650000D01*
X158050000Y-33350000D02*
X154900000Y-33350000D01*
X158650000Y-35350000D02*
X158650000Y-34750000D01*
X160050000Y-38500000D02*
X160050000Y-35350000D01*
X158650000Y-42250000D02*
X158050000Y-42250000D01*
X149750000Y-38500000D02*
X149750000Y-35350000D01*
X151150000Y-42250000D02*
X151750000Y-42250000D01*
X158050000Y-34750000D02*
X158050000Y-33350000D01*
X149750000Y-38500000D02*
X149750000Y-41650000D01*
X158650000Y-41650000D02*
X158650000Y-42250000D01*
X151750000Y-33350000D02*
X154900000Y-33350000D01*
X151750000Y-43650000D02*
X154900000Y-43650000D01*
X160050000Y-35350000D02*
X158650000Y-35350000D01*
X151750000Y-42250000D02*
X151750000Y-43650000D01*
X158050000Y-42250000D02*
X158050000Y-43650000D01*
X149750000Y-41650000D02*
X151150000Y-41650000D01*
X149750000Y-35350000D02*
X151150000Y-35350000D01*
X151750000Y-34750000D02*
X151750000Y-33350000D01*
X151150000Y-34750000D02*
X151750000Y-34750000D01*
X160050000Y-38500000D02*
X160050000Y-41650000D01*
X158650000Y-34750000D02*
X158050000Y-34750000D01*
X163180000Y-36980000D02*
X160220000Y-36980000D01*
X160220000Y-36980000D02*
X160220000Y-35520000D01*
X163180000Y-35520000D02*
X163180000Y-36980000D01*
X160220000Y-35520000D02*
X163180000Y-35520000D01*
X175320000Y-54070000D02*
X178280000Y-54070000D01*
X178280000Y-54070000D02*
X178280000Y-55530000D01*
X175320000Y-55530000D02*
X175320000Y-54070000D01*
X178280000Y-55530000D02*
X175320000Y-55530000D01*
X154160000Y-28890000D02*
X154160000Y-30710000D01*
X154160000Y-30710000D02*
X153240000Y-30710000D01*
X153240000Y-28890000D02*
X154160000Y-28890000D01*
X153240000Y-30710000D02*
X153240000Y-28890000D01*
X158640000Y-28890000D02*
X159560000Y-28890000D01*
X158640000Y-30710000D02*
X158640000Y-28890000D01*
X159560000Y-28890000D02*
X159560000Y-30710000D01*
X159560000Y-30710000D02*
X158640000Y-30710000D01*
X161900000Y-66600000D02*
X161900000Y-57400000D01*
X161900000Y-57400000D02*
X153400000Y-57400000D01*
X153400000Y-66600000D02*
X161900000Y-66600000D01*
X153400000Y-57400000D02*
X153400000Y-66600000D01*
X169800000Y-57400000D02*
X161300000Y-57400000D01*
X161300000Y-57400000D02*
X161300000Y-66600000D01*
X161300000Y-66600000D02*
X169800000Y-66600000D01*
X169800000Y-66600000D02*
X169800000Y-57400000D01*
X170330000Y-32280000D02*
X168870000Y-32280000D01*
X168870000Y-29320000D02*
X170330000Y-29320000D01*
X168870000Y-32280000D02*
X168870000Y-29320000D01*
X170330000Y-29320000D02*
X170330000Y-32280000D01*
X149700000Y-38180000D02*
X146300000Y-38180000D01*
X146300000Y-36220000D02*
X149700000Y-36220000D01*
X146300000Y-38180000D02*
X146300000Y-36220000D01*
X149700000Y-36220000D02*
X149700000Y-38180000D01*
X159160000Y-32690000D02*
X159160000Y-34510000D01*
X159160000Y-34510000D02*
X158240000Y-34510000D01*
X158240000Y-32690000D02*
X159160000Y-32690000D01*
X158240000Y-34510000D02*
X158240000Y-32690000D01*
X161090000Y-39440000D02*
X162910000Y-39440000D01*
X162910000Y-40360000D02*
X161090000Y-40360000D01*
X162910000Y-39440000D02*
X162910000Y-40360000D01*
X161090000Y-40360000D02*
X161090000Y-39440000D01*
X162010000Y-38440000D02*
X162010000Y-39360000D01*
X160190000Y-38440000D02*
X162010000Y-38440000D01*
X160190000Y-39360000D02*
X160190000Y-38440000D01*
X162010000Y-39360000D02*
X160190000Y-39360000D01*
X155470000Y-51030000D02*
X155470000Y-48070000D01*
X155470000Y-48070000D02*
X156930000Y-48070000D01*
X156930000Y-48070000D02*
X156930000Y-51030000D01*
X156930000Y-51030000D02*
X155470000Y-51030000D01*
X155250000Y-44570000D02*
X157150000Y-44570000D01*
X157150000Y-44570000D02*
X157150000Y-47930000D01*
X155250000Y-47930000D02*
X155250000Y-44570000D01*
X157150000Y-47930000D02*
X155250000Y-47930000D01*
X155250000Y-44570000D02*
X155250000Y-47930000D01*
X153350000Y-44570000D02*
X155250000Y-44570000D01*
X155250000Y-47930000D02*
X153350000Y-47930000D01*
X153350000Y-47930000D02*
X153350000Y-44570000D01*
X153350000Y-44570000D02*
X153350000Y-47930000D01*
X151450000Y-44570000D02*
X153350000Y-44570000D01*
X151450000Y-47930000D02*
X151450000Y-44570000D01*
X153350000Y-47930000D02*
X151450000Y-47930000D01*
X149550000Y-47930000D02*
X149550000Y-44570000D01*
X149550000Y-44570000D02*
X151450000Y-44570000D01*
X151450000Y-44570000D02*
X151450000Y-47930000D01*
X151450000Y-47930000D02*
X149550000Y-47930000D01*
X157270000Y-48070000D02*
X158730000Y-48070000D01*
X158730000Y-48070000D02*
X158730000Y-51030000D01*
X157270000Y-51030000D02*
X157270000Y-48070000D01*
X158730000Y-51030000D02*
X157270000Y-51030000D01*
X162010000Y-40540000D02*
X162010000Y-41460000D01*
X160190000Y-40540000D02*
X162010000Y-40540000D01*
X160190000Y-41460000D02*
X160190000Y-40540000D01*
X162010000Y-41460000D02*
X160190000Y-41460000D01*
X163280000Y-43870000D02*
X163280000Y-45330000D01*
X163280000Y-45330000D02*
X160320000Y-45330000D01*
X160320000Y-43870000D02*
X163280000Y-43870000D01*
X160320000Y-45330000D02*
X160320000Y-43870000D01*
X163280000Y-46930000D02*
X160320000Y-46930000D01*
X163280000Y-45470000D02*
X163280000Y-46930000D01*
X160320000Y-45470000D02*
X163280000Y-45470000D01*
X160320000Y-46930000D02*
X160320000Y-45470000D01*
X149700000Y-38220000D02*
X149700000Y-40180000D01*
X149700000Y-40180000D02*
X146300000Y-40180000D01*
X146300000Y-38220000D02*
X149700000Y-38220000D01*
X146300000Y-40180000D02*
X146300000Y-38220000D01*
X166300000Y-57350000D02*
X166300000Y-55050000D01*
X166300000Y-55050000D02*
X170900000Y-55050000D01*
X170900000Y-57350000D02*
X166300000Y-57350000D01*
X170900000Y-55050000D02*
X170900000Y-57350000D01*
X159270000Y-50280000D02*
X159270000Y-47320000D01*
X160730000Y-47320000D02*
X160730000Y-50280000D01*
X159270000Y-47320000D02*
X160730000Y-47320000D01*
X160730000Y-50280000D02*
X159270000Y-50280000D01*
X217350000Y-54420000D02*
X217350000Y-52120000D01*
X221950000Y-54420000D02*
X217350000Y-54420000D01*
X217350000Y-52120000D02*
X221950000Y-52120000D01*
X221950000Y-52120000D02*
X221950000Y-54420000D01*
X220750000Y-56550000D02*
X217350000Y-56550000D01*
X220750000Y-54590000D02*
X220750000Y-56550000D01*
X217350000Y-56550000D02*
X217350000Y-54590000D01*
X217350000Y-54590000D02*
X220750000Y-54590000D01*
X205530000Y-45880000D02*
X202570000Y-45880000D01*
X205530000Y-44420000D02*
X205530000Y-45880000D01*
X202570000Y-45880000D02*
X202570000Y-44420000D01*
X202570000Y-44420000D02*
X205530000Y-44420000D01*
X205530000Y-42820000D02*
X205530000Y-44280000D01*
X202570000Y-44280000D02*
X202570000Y-42820000D01*
X202570000Y-42820000D02*
X205530000Y-42820000D01*
X205530000Y-44280000D02*
X202570000Y-44280000D01*
X189800000Y-39900000D02*
X200400000Y-39900000D01*
X189800000Y-50500000D02*
X189800000Y-39900000D01*
X200400000Y-50500000D02*
X200400000Y-39900000D01*
X189800000Y-50500000D02*
X200400000Y-50500000D01*
X208670000Y-47520000D02*
X208670000Y-44120000D01*
X210630000Y-47520000D02*
X208670000Y-47520000D01*
X208670000Y-44120000D02*
X210630000Y-44120000D01*
X210630000Y-44120000D02*
X210630000Y-47520000D01*
X194050000Y-30200000D02*
G75*
G03*
X194050000Y-30200000I-3450000J0D01*
G01*
X191960000Y-53810000D02*
X191040000Y-53810000D01*
X191960000Y-51990000D02*
X191960000Y-53810000D01*
X191040000Y-53810000D02*
X191040000Y-51990000D01*
X191040000Y-51990000D02*
X191960000Y-51990000D01*
X199550000Y-39680000D02*
X196150000Y-39680000D01*
X196150000Y-37720000D02*
X199550000Y-37720000D01*
X196150000Y-39680000D02*
X196150000Y-37720000D01*
X199550000Y-37720000D02*
X199550000Y-39680000D01*
X199560000Y-51990000D02*
X199560000Y-53810000D01*
X198640000Y-51990000D02*
X199560000Y-51990000D01*
X199560000Y-53810000D02*
X198640000Y-53810000D01*
X198640000Y-53810000D02*
X198640000Y-51990000D01*
X225050000Y-30200000D02*
G75*
G03*
X225050000Y-30200000I-3450000J0D01*
G01*
X194050000Y-61200000D02*
G75*
G03*
X194050000Y-61200000I-3450000J0D01*
G01*
X192380000Y-38800000D02*
X202280000Y-38800000D01*
X202280000Y-38800000D02*
X202280000Y-22510000D01*
X192380000Y-22510000D02*
X192380000Y-38800000D01*
X202280000Y-22510000D02*
X192380000Y-22510000D01*
X225050000Y-61175001D02*
G75*
G03*
X225050000Y-61175001I-3450000J0D01*
G01*
X189200000Y-37600000D02*
X208050000Y-37600000D01*
X208050000Y-37600000D02*
X208050000Y-34000000D01*
X189200000Y-34000000D02*
X189200000Y-37600000D01*
X208050000Y-34000000D02*
X189200000Y-34000000D01*
X192200000Y-50900000D02*
X192200000Y-54700000D01*
X198400000Y-50900000D02*
X192200000Y-50900000D01*
X198400000Y-54700000D02*
X198400000Y-50900000D01*
X192200000Y-54700000D02*
X198400000Y-54700000D01*
X191130000Y-37420000D02*
X191130000Y-40380000D01*
X189670000Y-40380000D02*
X189670000Y-37420000D01*
X191130000Y-40380000D02*
X189670000Y-40380000D01*
X189670000Y-37420000D02*
X191130000Y-37420000D01*
X187670000Y-37420000D02*
X189130000Y-37420000D01*
X189130000Y-40380000D02*
X187670000Y-40380000D01*
X187670000Y-40380000D02*
X187670000Y-37420000D01*
X189130000Y-37420000D02*
X189130000Y-40380000D01*
X207180000Y-47350000D02*
X205720000Y-47350000D01*
X205720000Y-44390000D02*
X207180000Y-44390000D01*
X207180000Y-44390000D02*
X207180000Y-47350000D01*
X205720000Y-47350000D02*
X205720000Y-44390000D01*
X189080000Y-42220000D02*
X189080000Y-45180000D01*
X189080000Y-45180000D02*
X187620000Y-45180000D01*
X187620000Y-42220000D02*
X189080000Y-42220000D01*
X187620000Y-45180000D02*
X187620000Y-42220000D01*
X187390000Y-57700000D02*
X187390000Y-54740000D01*
X187390000Y-54740000D02*
X188850000Y-54740000D01*
X188850000Y-57700000D02*
X187390000Y-57700000D01*
X188850000Y-54740000D02*
X188850000Y-57700000D01*
X219870000Y-42270000D02*
X219870000Y-36070000D01*
X213670000Y-36070000D02*
X213670000Y-42270000D01*
X219870000Y-36070000D02*
X213670000Y-36070000D01*
X213670000Y-42270000D02*
X219870000Y-42270000D01*
X217970000Y-35790000D02*
X217970000Y-33550000D01*
X222530000Y-33550000D02*
X222530000Y-35790000D01*
X217970000Y-33550000D02*
X222530000Y-33550000D01*
X222530000Y-35790000D02*
X217970000Y-35790000D01*
X212500000Y-43790000D02*
X215900000Y-43790000D01*
X215900000Y-45750000D02*
X212500000Y-45750000D01*
X215900000Y-43790000D02*
X215900000Y-45750000D01*
X212500000Y-45750000D02*
X212500000Y-43790000D01*
X209730000Y-38770000D02*
X209730000Y-42170000D01*
X207770000Y-38770000D02*
X209730000Y-38770000D01*
X207770000Y-42170000D02*
X207770000Y-38770000D01*
X209730000Y-42170000D02*
X207770000Y-42170000D01*
X188720000Y-53950000D02*
X188720000Y-50990000D01*
X188720000Y-50990000D02*
X190180000Y-50990000D01*
X190180000Y-50990000D02*
X190180000Y-53950000D01*
X190180000Y-53950000D02*
X188720000Y-53950000D01*
X160850000Y-50480000D02*
X160850000Y-47120000D01*
X162750000Y-50480000D02*
X160850000Y-50480000D01*
X160850000Y-47120000D02*
X162750000Y-47120000D01*
X162750000Y-47120000D02*
X162750000Y-50480000D01*
X156480000Y-32930000D02*
X153520000Y-32930000D01*
X153520000Y-31470000D02*
X156480000Y-31470000D01*
X153520000Y-32930000D02*
X153520000Y-31470000D01*
X156480000Y-31470000D02*
X156480000Y-32930000D01*
X162080000Y-41870000D02*
X162080000Y-43330000D01*
X159120000Y-41870000D02*
X162080000Y-41870000D01*
X162080000Y-43330000D02*
X159120000Y-43330000D01*
X159120000Y-43330000D02*
X159120000Y-41870000D01*
X149470000Y-48020000D02*
X150930000Y-48020000D01*
X150930000Y-50980000D02*
X149470000Y-50980000D01*
X149470000Y-50980000D02*
X149470000Y-48020000D01*
X150930000Y-48020000D02*
X150930000Y-50980000D01*
X151870000Y-50980000D02*
X151870000Y-48020000D01*
X151870000Y-48020000D02*
X153330000Y-48020000D01*
X153330000Y-48020000D02*
X153330000Y-50980000D01*
X153330000Y-50980000D02*
X151870000Y-50980000D01*
X153570000Y-51030000D02*
X153570000Y-48070000D01*
X155030000Y-48070000D02*
X155030000Y-51030000D01*
X155030000Y-51030000D02*
X153570000Y-51030000D01*
X153570000Y-48070000D02*
X155030000Y-48070000D01*
X168130000Y-27240000D02*
X168130000Y-28700000D01*
X165170000Y-28700000D02*
X165170000Y-27240000D01*
X165170000Y-27240000D02*
X168130000Y-27240000D01*
X168130000Y-28700000D02*
X165170000Y-28700000D01*
X163420000Y-33650000D02*
X163420000Y-30690000D01*
X164880000Y-30690000D02*
X164880000Y-33650000D01*
X164880000Y-33650000D02*
X163420000Y-33650000D01*
X163420000Y-30690000D02*
X164880000Y-30690000D01*
X161720000Y-30665000D02*
X163180000Y-30665000D01*
X163180000Y-30665000D02*
X163180000Y-33625000D01*
X161720000Y-33625000D02*
X161720000Y-30665000D01*
X163180000Y-33625000D02*
X161720000Y-33625000D01*
X168130000Y-29040000D02*
X168130000Y-30500000D01*
X165170000Y-29040000D02*
X168130000Y-29040000D01*
X165170000Y-30500000D02*
X165170000Y-29040000D01*
X168130000Y-30500000D02*
X165170000Y-30500000D01*
X202550000Y-42700000D02*
X202550000Y-40740000D01*
X205950000Y-42700000D02*
X202550000Y-42700000D01*
X202550000Y-40740000D02*
X205950000Y-40740000D01*
X205950000Y-40740000D02*
X205950000Y-42700000D01*
X204530000Y-61570000D02*
X202570000Y-61570000D01*
X204530000Y-58170000D02*
X204530000Y-61570000D01*
X202570000Y-58170000D02*
X204530000Y-58170000D01*
X202570000Y-61570000D02*
X202570000Y-58170000D01*
X204670000Y-61170000D02*
X204670000Y-57770000D01*
X204670000Y-57770000D02*
X206630000Y-57770000D01*
X206630000Y-57770000D02*
X206630000Y-61170000D01*
X206630000Y-61170000D02*
X204670000Y-61170000D01*
X199400000Y-56090000D02*
X199400000Y-58050000D01*
X196000000Y-56090000D02*
X199400000Y-56090000D01*
X196000000Y-58050000D02*
X196000000Y-56090000D01*
X199400000Y-58050000D02*
X196000000Y-58050000D01*
X206650000Y-50220000D02*
X200450000Y-50220000D01*
X206650000Y-56420000D02*
X206650000Y-50220000D01*
X200450000Y-50220000D02*
X200450000Y-56420000D01*
X200450000Y-56420000D02*
X206650000Y-56420000D01*
X208370000Y-36870000D02*
X208370000Y-33470000D01*
X208370000Y-33470000D02*
X210330000Y-33470000D01*
X210330000Y-36870000D02*
X208370000Y-36870000D01*
X210330000Y-33470000D02*
X210330000Y-36870000D01*
X221430000Y-35990000D02*
X224830000Y-35990000D01*
X224830000Y-35990000D02*
X224830000Y-37950000D01*
X221430000Y-37950000D02*
X221430000Y-35990000D01*
X224830000Y-37950000D02*
X221430000Y-37950000D01*
X223420000Y-54690000D02*
X224880000Y-54690000D01*
X224880000Y-57650000D02*
X223420000Y-57650000D01*
X224880000Y-54690000D02*
X224880000Y-57650000D01*
X223420000Y-57650000D02*
X223420000Y-54690000D01*
X193350000Y-66220000D02*
X193350000Y-59720000D01*
X202750000Y-66220000D02*
X193350000Y-66220000D01*
X193350000Y-59720000D02*
X202750000Y-59720000D01*
X202750000Y-59720000D02*
X202750000Y-66220000D01*
X215450000Y-24170000D02*
X201950000Y-24170000D01*
X215450000Y-33370000D02*
X215450000Y-24170000D01*
X201950000Y-24170000D02*
X201950000Y-33370000D01*
X201950000Y-33370000D02*
X215450000Y-33370000D01*
X219050000Y-66700000D02*
X219050000Y-50850000D01*
X204750000Y-66700000D02*
X204750000Y-50850000D01*
X219050000Y-50850000D02*
X204750000Y-50850000D01*
X219050000Y-66700000D02*
X204750000Y-66700000D01*
X215530000Y-33550000D02*
X215530000Y-35790000D01*
X215530000Y-35790000D02*
X210970000Y-35790000D01*
X210970000Y-33550000D02*
X215530000Y-33550000D01*
X210970000Y-35790000D02*
X210970000Y-33550000D01*
X211730000Y-38770000D02*
X211730000Y-42170000D01*
X211730000Y-42170000D02*
X209770000Y-42170000D01*
X209770000Y-38770000D02*
X211730000Y-38770000D01*
X209770000Y-42170000D02*
X209770000Y-38770000D01*
X221100000Y-43320000D02*
X221100000Y-38220000D01*
X221100000Y-38220000D02*
X224800000Y-38220000D01*
X224800000Y-43320000D02*
X221100000Y-43320000D01*
X224800000Y-38220000D02*
X224800000Y-43320000D01*
X223280000Y-57650000D02*
X221820000Y-57650000D01*
X223280000Y-54690000D02*
X223280000Y-57650000D01*
X221820000Y-57650000D02*
X221820000Y-54690000D01*
X221820000Y-54690000D02*
X223280000Y-54690000D01*
M02*
