%TF.GenerationSoftware,KiCad,Pcbnew,(7.0.0-0)*%
%TF.CreationDate,2023-05-24T17:39:11+02:00*%
%TF.ProjectId,ethersweep,65746865-7273-4776-9565-702e6b696361,2.0.1*%
%TF.SameCoordinates,Original*%
%TF.FileFunction,Copper,L4,Bot*%
%TF.FilePolarity,Positive*%
%FSLAX46Y46*%
G04 Gerber Fmt 4.6, Leading zero omitted, Abs format (unit mm)*
G04 Created by KiCad (PCBNEW (7.0.0-0)) date 2023-05-24 17:39:11*
%MOMM*%
%LPD*%
G01*
G04 APERTURE LIST*
G04 Aperture macros list*
%AMRoundRect*
0 Rectangle with rounded corners*
0 $1 Rounding radius*
0 $2 $3 $4 $5 $6 $7 $8 $9 X,Y pos of 4 corners*
0 Add a 4 corners polygon primitive as box body*
4,1,4,$2,$3,$4,$5,$6,$7,$8,$9,$2,$3,0*
0 Add four circle primitives for the rounded corners*
1,1,$1+$1,$2,$3*
1,1,$1+$1,$4,$5*
1,1,$1+$1,$6,$7*
1,1,$1+$1,$8,$9*
0 Add four rect primitives between the rounded corners*
20,1,$1+$1,$2,$3,$4,$5,0*
20,1,$1+$1,$4,$5,$6,$7,0*
20,1,$1+$1,$6,$7,$8,$9,0*
20,1,$1+$1,$8,$9,$2,$3,0*%
G04 Aperture macros list end*
%TA.AperFunction,ComponentPad*%
%ADD10R,1.398000X1.398000*%
%TD*%
%TA.AperFunction,ComponentPad*%
%ADD11C,1.398000*%
%TD*%
%TA.AperFunction,ComponentPad*%
%ADD12C,1.530000*%
%TD*%
%TA.AperFunction,ComponentPad*%
%ADD13C,2.445000*%
%TD*%
%TA.AperFunction,ComponentPad*%
%ADD14C,0.800000*%
%TD*%
%TA.AperFunction,ComponentPad*%
%ADD15C,6.400000*%
%TD*%
%TA.AperFunction,ComponentPad*%
%ADD16RoundRect,0.250000X0.600000X0.600000X-0.600000X0.600000X-0.600000X-0.600000X0.600000X-0.600000X0*%
%TD*%
%TA.AperFunction,ComponentPad*%
%ADD17C,1.700000*%
%TD*%
%TA.AperFunction,ComponentPad*%
%ADD18C,1.524000*%
%TD*%
%TA.AperFunction,ComponentPad*%
%ADD19C,1.400000*%
%TD*%
%TA.AperFunction,ComponentPad*%
%ADD20R,3.500000X3.500000*%
%TD*%
%TA.AperFunction,ComponentPad*%
%ADD21C,3.500000*%
%TD*%
%TA.AperFunction,ComponentPad*%
%ADD22R,1.700000X1.700000*%
%TD*%
%TA.AperFunction,ComponentPad*%
%ADD23O,1.700000X1.700000*%
%TD*%
%TA.AperFunction,ComponentPad*%
%ADD24RoundRect,0.250000X0.600000X0.725000X-0.600000X0.725000X-0.600000X-0.725000X0.600000X-0.725000X0*%
%TD*%
%TA.AperFunction,ComponentPad*%
%ADD25O,1.700000X1.950000*%
%TD*%
%TA.AperFunction,ComponentPad*%
%ADD26RoundRect,0.250000X-0.600000X-0.725000X0.600000X-0.725000X0.600000X0.725000X-0.600000X0.725000X0*%
%TD*%
%TA.AperFunction,ComponentPad*%
%ADD27RoundRect,0.250000X-0.600000X-0.600000X0.600000X-0.600000X0.600000X0.600000X-0.600000X0.600000X0*%
%TD*%
%TA.AperFunction,SMDPad,CuDef*%
%ADD28RoundRect,0.200000X0.200000X0.800000X-0.200000X0.800000X-0.200000X-0.800000X0.200000X-0.800000X0*%
%TD*%
%TA.AperFunction,SMDPad,CuDef*%
%ADD29R,0.600000X1.400000*%
%TD*%
%TA.AperFunction,SMDPad,CuDef*%
%ADD30C,2.000000*%
%TD*%
%TA.AperFunction,ViaPad*%
%ADD31C,0.800000*%
%TD*%
%TA.AperFunction,Conductor*%
%ADD32C,0.250000*%
%TD*%
%TA.AperFunction,Conductor*%
%ADD33C,0.200000*%
%TD*%
%TA.AperFunction,Conductor*%
%ADD34C,0.500000*%
%TD*%
%TA.AperFunction,Conductor*%
%ADD35C,0.400000*%
%TD*%
%TA.AperFunction,Conductor*%
%ADD36C,1.000000*%
%TD*%
%TA.AperFunction,Profile*%
%ADD37C,0.150000*%
%TD*%
G04 APERTURE END LIST*
D10*
X167999999Y-50149999D03*
D11*
X165460000Y-48880000D03*
X168000000Y-47610000D03*
X165460000Y-46340000D03*
X168000000Y-45070000D03*
X165460000Y-43800000D03*
X168000000Y-42530000D03*
X165460000Y-41260000D03*
D12*
X179250000Y-52325000D03*
X179250000Y-49785000D03*
X179250000Y-41615000D03*
X179250000Y-39075000D03*
D13*
X171300000Y-53445000D03*
X171300000Y-37955000D03*
D14*
X178200000Y-30200000D03*
X178902944Y-28502944D03*
X178902944Y-31897056D03*
X180600000Y-27800000D03*
D15*
X180600000Y-30200000D03*
D14*
X180600000Y-32600000D03*
X182297056Y-28502944D03*
X182297056Y-31897056D03*
X183000000Y-30200000D03*
X147200000Y-30200000D03*
X147902944Y-28502944D03*
X147902944Y-31897056D03*
X149600000Y-27800000D03*
D15*
X149600000Y-30200000D03*
D14*
X149600000Y-32600000D03*
X151297056Y-28502944D03*
X151297056Y-31897056D03*
X152000000Y-30200000D03*
X147200000Y-61200000D03*
X147902944Y-59502944D03*
X147902944Y-62897056D03*
X149600000Y-58800000D03*
D15*
X149600000Y-61200000D03*
D14*
X149600000Y-63600000D03*
X151297056Y-59502944D03*
X151297056Y-62897056D03*
X152000000Y-61200000D03*
X178200000Y-61200000D03*
X178902944Y-59502944D03*
X178902944Y-62897056D03*
X180600000Y-58800000D03*
D15*
X180600000Y-61200000D03*
D14*
X180600000Y-63600000D03*
X182297056Y-59502944D03*
X182297056Y-62897056D03*
X183000000Y-61200000D03*
X188200000Y-30200000D03*
X188902944Y-28502944D03*
X188902944Y-31897056D03*
X190600000Y-27800000D03*
D15*
X190600000Y-30200000D03*
D14*
X190600000Y-32600000D03*
X192297056Y-28502944D03*
X192297056Y-31897056D03*
X193000000Y-30200000D03*
X219200000Y-30200000D03*
X219902944Y-28502944D03*
X219902944Y-31897056D03*
X221600000Y-27800000D03*
D15*
X221600000Y-30200000D03*
D14*
X221600000Y-32600000D03*
X223297056Y-28502944D03*
X223297056Y-31897056D03*
X224000000Y-30200000D03*
X188200000Y-61200000D03*
X188902944Y-59502944D03*
X188902944Y-62897056D03*
X190600000Y-58800000D03*
D15*
X190600000Y-61200000D03*
D14*
X190600000Y-63600000D03*
X192297056Y-59502944D03*
X192297056Y-62897056D03*
X193000000Y-61200000D03*
D16*
X198600000Y-33200000D03*
D17*
X196060000Y-33200000D03*
X198600000Y-30660000D03*
X196060000Y-30660000D03*
X198600000Y-28120000D03*
X196060000Y-28120000D03*
D14*
X219200000Y-61175001D03*
X219902944Y-59477945D03*
X219902944Y-62872057D03*
X221600000Y-58775001D03*
D15*
X221600000Y-61175001D03*
D14*
X221600000Y-63575001D03*
X223297056Y-59477945D03*
X223297056Y-62872057D03*
X224000000Y-61175001D03*
D18*
X223850000Y-55315000D03*
X223850000Y-52775000D03*
X223850000Y-50235000D03*
D19*
X217400000Y-63100000D03*
X206400000Y-63100000D03*
D20*
X209399999Y-53099999D03*
D21*
X214400000Y-53100000D03*
D22*
X182717599Y-35818999D03*
D23*
X180177599Y-35818999D03*
X177637599Y-35818999D03*
X175097599Y-35818999D03*
X172557599Y-35818999D03*
X170017599Y-35818999D03*
X167477599Y-35818999D03*
D24*
X173300000Y-59787500D03*
D25*
X170799999Y-59787499D03*
X168299999Y-59787499D03*
D24*
X162050000Y-59787500D03*
D25*
X159549999Y-59787499D03*
X157049999Y-59787499D03*
D22*
X188452999Y-35818999D03*
D23*
X190992999Y-35818999D03*
X193532999Y-35818999D03*
X196072999Y-35818999D03*
X198612999Y-35818999D03*
X201152999Y-35818999D03*
X203692999Y-35818999D03*
D26*
X206050000Y-28602500D03*
D25*
X208549999Y-28602499D03*
X211049999Y-28602499D03*
X213549999Y-28602499D03*
D27*
X172600000Y-33200000D03*
D17*
X175140000Y-33200000D03*
X172600000Y-30660000D03*
X175140000Y-30660000D03*
X172600000Y-28120000D03*
X175140000Y-28120000D03*
D22*
X147599999Y-41899999D03*
D23*
X147599999Y-44439999D03*
X147599999Y-46979999D03*
X147599999Y-49519999D03*
D28*
X167250000Y-30250000D03*
X163050000Y-30250000D03*
D29*
X204194999Y-42999999D03*
X205464999Y-42999999D03*
X206734999Y-42999999D03*
X208004999Y-42999999D03*
X208004999Y-48399999D03*
X206734999Y-48399999D03*
X205464999Y-48399999D03*
X204194999Y-48399999D03*
D30*
X195850000Y-55970000D03*
X213750000Y-58970000D03*
X195850000Y-50570000D03*
X210550000Y-58963000D03*
X199550000Y-47470000D03*
X190550000Y-47470000D03*
D31*
X158000000Y-47750000D03*
X147350000Y-39870000D03*
X212450000Y-40270000D03*
X160450000Y-29870000D03*
X222200000Y-51320000D03*
X188150000Y-47445000D03*
X153400000Y-44100000D03*
X216100000Y-38195000D03*
X155560000Y-35819000D03*
X208544400Y-37165200D03*
X209408000Y-35438000D03*
X207450000Y-40070000D03*
X220965000Y-49281000D03*
X196937500Y-49282500D03*
X168550000Y-27870000D03*
X210271600Y-35438000D03*
X221350000Y-39620000D03*
X168550000Y-55570000D03*
X162150000Y-31270000D03*
X204620000Y-61230000D03*
X154085000Y-28635000D03*
X202950000Y-40870000D03*
X203825000Y-59645000D03*
X222200000Y-53670000D03*
X205850000Y-44370000D03*
X200025000Y-51920000D03*
X147150000Y-35970000D03*
X199325000Y-55920000D03*
X221325000Y-38545000D03*
X202550000Y-31670000D03*
X198400500Y-41070000D03*
X199840000Y-42730000D03*
X217350000Y-33270000D03*
X208544400Y-35438000D03*
X200075000Y-28520000D03*
X209408000Y-36301600D03*
X200200000Y-27345000D03*
X191307122Y-40527122D03*
X159300000Y-50600000D03*
X211113900Y-41073143D03*
X151350000Y-43270000D03*
X158800000Y-32220000D03*
X162550000Y-40670000D03*
X159650000Y-44070000D03*
X162529096Y-39149096D03*
X211135200Y-35438000D03*
X152800000Y-27400000D03*
X211135200Y-38028800D03*
X152131000Y-40899000D03*
X197574500Y-45170000D03*
X192610285Y-49085573D03*
X161355227Y-39909548D03*
X199747253Y-62615067D03*
X211135200Y-36301600D03*
X190625000Y-52895000D03*
X208544400Y-36301600D03*
X161297982Y-38349548D03*
X210271600Y-37165200D03*
X208857000Y-58963000D03*
X209408000Y-37165200D03*
X160450000Y-31670000D03*
X212150000Y-44370000D03*
X203925000Y-56620000D03*
X211135200Y-37165200D03*
X212350000Y-42770000D03*
X194350000Y-45170000D03*
X210271600Y-38028800D03*
X223200000Y-34995000D03*
X208544400Y-38028800D03*
X168650000Y-29970000D03*
X157600000Y-40900000D03*
X162450000Y-37570000D03*
X217150000Y-31670000D03*
X210271600Y-36301600D03*
X222200000Y-52470000D03*
X191950000Y-41470000D03*
X209408000Y-38028800D03*
X161850000Y-42570000D03*
X202100000Y-47195000D03*
X202075000Y-45845000D03*
X203775000Y-46445000D03*
X206725210Y-46255966D03*
X156300501Y-36490312D03*
X222525000Y-48895000D03*
X155250000Y-56470000D03*
X193200000Y-44670000D03*
X191050000Y-43145000D03*
X202993500Y-42970000D03*
X152050000Y-38970000D03*
X223800000Y-49045000D03*
X199875000Y-43745000D03*
X198250000Y-51420000D03*
X148750000Y-39870000D03*
X201160000Y-34260000D03*
X166425000Y-56495000D03*
X215450000Y-58970000D03*
X147750000Y-54070000D03*
X222625000Y-50220000D03*
X213065372Y-38704628D03*
X192100000Y-49945000D03*
X206700000Y-56420000D03*
X189000000Y-45645000D03*
X153900000Y-36520000D03*
X189675000Y-39045000D03*
X191975000Y-45620000D03*
X155100000Y-36750000D03*
X199100000Y-38995000D03*
X196775000Y-47395000D03*
X195875000Y-45170000D03*
X194575000Y-57570000D03*
X152488673Y-36175003D03*
X188000000Y-45870000D03*
X182500000Y-38520000D03*
X213700000Y-34170000D03*
X206000000Y-34570000D03*
X212050000Y-34270000D03*
X207650000Y-34270000D03*
X152600000Y-37950000D03*
X199800000Y-40320000D03*
X192675000Y-46820000D03*
X150900000Y-34450000D03*
X164650000Y-35470000D03*
X160800000Y-51400000D03*
X152400000Y-54000000D03*
X152800000Y-51600000D03*
X156850000Y-44270000D03*
X201900000Y-58595000D03*
X197050000Y-59495000D03*
X198425000Y-59445000D03*
X200000000Y-59520000D03*
X153350000Y-40870000D03*
X174250000Y-56270000D03*
X174650000Y-55270000D03*
X153150000Y-39750000D03*
X194450000Y-50070000D03*
X195525000Y-53970000D03*
X195325000Y-55970000D03*
X187950000Y-48470000D03*
X197450000Y-46270000D03*
X194400000Y-48895000D03*
X211980000Y-46140000D03*
X205950000Y-39970000D03*
X206250000Y-35770000D03*
X192525000Y-54395000D03*
X203800000Y-50920000D03*
X205000000Y-51770000D03*
X193575000Y-55320000D03*
X191525000Y-55070000D03*
X206250000Y-52870000D03*
X153650000Y-32670000D03*
X165350000Y-31470000D03*
D32*
X179024999Y-31775001D02*
X180600000Y-30200000D01*
D33*
X208005000Y-43000000D02*
X208005000Y-40625000D01*
X208005000Y-40625000D02*
X207450000Y-40070000D01*
X163050000Y-30250000D02*
X163050000Y-30370000D01*
X208850000Y-58970000D02*
X208857000Y-58963000D01*
X210550000Y-58963000D02*
X208857000Y-58963000D01*
X163050000Y-30370000D02*
X162150000Y-31270000D01*
X193533000Y-35819000D02*
X195559000Y-37845000D01*
X148950000Y-48330000D02*
X147600000Y-46980000D01*
X205650000Y-48585000D02*
X205465000Y-48400000D01*
X205450000Y-48385000D02*
X205465000Y-48400000D01*
X205465000Y-48400000D02*
X205465000Y-48800000D01*
X200650000Y-38970000D02*
X200650000Y-45745000D01*
X177637600Y-35819000D02*
X177637600Y-37157600D01*
X199525000Y-37845000D02*
X200650000Y-38970000D01*
X202100000Y-47820000D02*
X202100000Y-47195000D01*
X175350000Y-59270000D02*
X175350000Y-61500480D01*
X174350000Y-62500480D02*
X172870480Y-62500480D01*
X179050000Y-56870000D02*
X177750000Y-56870000D01*
X148950000Y-54170000D02*
X148950000Y-48330000D01*
X200650000Y-45745000D02*
X202100000Y-47195000D01*
X178320370Y-37840370D02*
X179521508Y-37840370D01*
X204865000Y-49400000D02*
X203680000Y-49400000D01*
X181450000Y-39768862D02*
X181450000Y-54470000D01*
X205465000Y-48400000D02*
X205465000Y-48855000D01*
X179521508Y-37840370D02*
X181450000Y-39768862D01*
X205465000Y-48800000D02*
X204865000Y-49400000D01*
X172870480Y-62500480D02*
X172870000Y-62500000D01*
X181450000Y-54470000D02*
X179050000Y-56870000D01*
X195559000Y-37845000D02*
X199525000Y-37845000D01*
X157280000Y-62500000D02*
X148950000Y-54170000D01*
X175350000Y-61500480D02*
X174350000Y-62500480D01*
X177750000Y-56870000D02*
X175350000Y-59270000D01*
X172870000Y-62500000D02*
X157280000Y-62500000D01*
X177637600Y-37157600D02*
X178320370Y-37840370D01*
X205465000Y-48855000D02*
X205450000Y-48870000D01*
X203680000Y-49400000D02*
X202100000Y-47820000D01*
X205925000Y-46445000D02*
X206735000Y-47255000D01*
X178420001Y-57699999D02*
X179449150Y-57699999D01*
X201525000Y-45295000D02*
X201525000Y-38370000D01*
X176250000Y-60220000D02*
X176800000Y-59670000D01*
X176800000Y-59670000D02*
X176800000Y-59320000D01*
X179027600Y-35582654D02*
X179027600Y-36518451D01*
X202075000Y-45845000D02*
X201525000Y-45295000D01*
X157170000Y-63470000D02*
X175050000Y-63470000D01*
X201525000Y-38370000D02*
X200123511Y-36968511D01*
X148549990Y-53270000D02*
X148549990Y-54849990D01*
X176250000Y-62270000D02*
X176250000Y-60220000D01*
X148549990Y-54849990D02*
X157170000Y-63470000D01*
X175097600Y-35819000D02*
X176247600Y-34669000D01*
X206735000Y-47255000D02*
X206735000Y-48400000D01*
X179449150Y-57699999D02*
X182679149Y-54470000D01*
X176800000Y-59320000D02*
X178420001Y-57699999D01*
X197222511Y-36968511D02*
X196073000Y-35819000D01*
X147600000Y-49520000D02*
X147600000Y-52320010D01*
X182679149Y-54470000D02*
X182679149Y-40170000D01*
X179027600Y-36518451D02*
X182679149Y-40170000D01*
X200123511Y-36968511D02*
X197222511Y-36968511D01*
X178113946Y-34669000D02*
X179027600Y-35582654D01*
X176247600Y-34669000D02*
X178113946Y-34669000D01*
X147600000Y-52320010D02*
X148549990Y-53270000D01*
X175050000Y-63470000D02*
X176250000Y-62270000D01*
X203775000Y-46445000D02*
X205925000Y-46445000D01*
X203050000Y-44145000D02*
X204195000Y-43000000D01*
X213750000Y-58970000D02*
X215450000Y-58970000D01*
X203050000Y-47255000D02*
X203050000Y-44145000D01*
X204250000Y-48345000D02*
X204250000Y-48370000D01*
X203050000Y-42970000D02*
X202993500Y-42970000D01*
X204195000Y-48400000D02*
X203050000Y-47255000D01*
X204250000Y-48345000D02*
X204250000Y-48345000D01*
D34*
X196060000Y-33200000D02*
X197359520Y-34499520D01*
D33*
X204250000Y-48345000D02*
X204250000Y-47870000D01*
X204100000Y-48495000D02*
X204125000Y-48470000D01*
X205465000Y-43000000D02*
X204195000Y-43000000D01*
D34*
X200920480Y-34499520D02*
X201160000Y-34260000D01*
D35*
X201160000Y-34260000D02*
X201402054Y-34260000D01*
D33*
X204195000Y-43000000D02*
X203080000Y-43000000D01*
X204125000Y-48470000D02*
X204150000Y-48470000D01*
X204150000Y-48470000D02*
X204150000Y-48445000D01*
X204225000Y-48370000D02*
X204195000Y-48400000D01*
X203080000Y-43000000D02*
X203050000Y-42970000D01*
X204150000Y-48445000D02*
X204195000Y-48400000D01*
X204250000Y-48455000D02*
X204195000Y-48400000D01*
X204250000Y-48370000D02*
X204225000Y-48370000D01*
D35*
X205465000Y-43000000D02*
X205465000Y-42600000D01*
D34*
X197359520Y-34499520D02*
X200920480Y-34499520D01*
D33*
X172600000Y-33200000D02*
X172578999Y-33178999D01*
X161479030Y-34249969D02*
X155585717Y-34249969D01*
X153900000Y-35935686D02*
X153900000Y-36520000D01*
X197450000Y-32050000D02*
X195520000Y-32050000D01*
X189375000Y-38020000D02*
X188500000Y-38895000D01*
X162550000Y-33178999D02*
X161479030Y-34249969D01*
X172578999Y-33178999D02*
X162550000Y-33178999D01*
X198600000Y-33200000D02*
X197450000Y-32050000D01*
X172600000Y-33200000D02*
X172179009Y-32779009D01*
X195520000Y-32050000D02*
X192383000Y-35187000D01*
X188500000Y-38895000D02*
X188500000Y-45145000D01*
X190958000Y-38020000D02*
X189375000Y-38020000D01*
X192383000Y-36595000D02*
X190958000Y-38020000D01*
X192383000Y-35187000D02*
X192383000Y-36595000D01*
X155585717Y-34249969D02*
X153900000Y-35935686D01*
X188500000Y-45145000D02*
X189000000Y-45645000D01*
X198603533Y-30660000D02*
X198600000Y-30660000D01*
X153200000Y-36809950D02*
X153200000Y-36070000D01*
X154630000Y-37220000D02*
X153610050Y-37220000D01*
X153200000Y-36070000D02*
X155420031Y-33849969D01*
X189675000Y-43320000D02*
X191975000Y-45620000D01*
X162049999Y-32778999D02*
X170481001Y-32778999D01*
X155100000Y-36750000D02*
X154630000Y-37220000D01*
X153610050Y-37220000D02*
X153200000Y-36809950D01*
X170481001Y-32778999D02*
X172600000Y-30660000D01*
X189675000Y-39045000D02*
X189675000Y-43320000D01*
X160979029Y-33849969D02*
X162049999Y-32778999D01*
X155420031Y-33849969D02*
X160979029Y-33849969D01*
X195875000Y-44809950D02*
X195875000Y-45170000D01*
X167250000Y-30250000D02*
X168430000Y-29070000D01*
X196775000Y-47395000D02*
X194910050Y-47395000D01*
X193310285Y-48994765D02*
X193310285Y-51334715D01*
X171650000Y-29070000D02*
X172600000Y-28120000D01*
X199100000Y-38995000D02*
X199100000Y-41584950D01*
X192475000Y-57570000D02*
X194575000Y-57570000D01*
X193310285Y-51334715D02*
X190825000Y-53820000D01*
X168430000Y-29070000D02*
X171650000Y-29070000D01*
X190825000Y-55920000D02*
X192475000Y-57570000D01*
X194910050Y-47395000D02*
X193310285Y-48994765D01*
X199100000Y-41584950D02*
X198794975Y-41889975D01*
X190825000Y-53820000D02*
X190825000Y-55920000D01*
X198794975Y-41889975D02*
X195875000Y-44809950D01*
X189603000Y-35166000D02*
X189603000Y-36969000D01*
X190100000Y-34669000D02*
X189603000Y-35166000D01*
X175140000Y-30660000D02*
X173990000Y-29510000D01*
X189603000Y-36969000D02*
X188000000Y-38572000D01*
X168950000Y-32378999D02*
X161821001Y-32378999D01*
X192051000Y-34669000D02*
X190100000Y-34669000D01*
X152488673Y-35995642D02*
X152488673Y-36175003D01*
X160750031Y-33449969D02*
X155034346Y-33449969D01*
X171818999Y-29510000D02*
X168950000Y-32378999D01*
X161821001Y-32378999D02*
X160750031Y-33449969D01*
X188000000Y-38572000D02*
X188000000Y-45870000D01*
X155034346Y-33449969D02*
X152488673Y-35995642D01*
X196060000Y-30660000D02*
X192051000Y-34669000D01*
X173990000Y-29510000D02*
X171818999Y-29510000D01*
X196060000Y-30660000D02*
X195294994Y-30660000D01*
X190509991Y-36290009D02*
X191000000Y-35800000D01*
X190980000Y-35720000D02*
X191000000Y-35700000D01*
X180177600Y-35819000D02*
X182500000Y-38141400D01*
X182500000Y-38141400D02*
X182500000Y-38520000D01*
D36*
X207650000Y-34270000D02*
X212050000Y-34270000D01*
X206000000Y-34570000D02*
X207350000Y-34570000D01*
X212150000Y-34170000D02*
X212050000Y-34270000D01*
X207350000Y-34570000D02*
X207650000Y-34270000D01*
X213950000Y-34170000D02*
X212150000Y-34170000D01*
D33*
X168867600Y-35342654D02*
X169541254Y-34669000D01*
X153450011Y-38800011D02*
X154980011Y-38800011D01*
X168193946Y-36969000D02*
X168867600Y-36295346D01*
X162992481Y-36969000D02*
X168193946Y-36969000D01*
X158066006Y-39720000D02*
X161059486Y-36726520D01*
X162750000Y-36726519D02*
X162992481Y-36969000D01*
X169541254Y-34669000D02*
X171407600Y-34669000D01*
X154980011Y-38800011D02*
X155900000Y-39720000D01*
X171407600Y-34669000D02*
X172557600Y-35819000D01*
X168867600Y-36295346D02*
X168867600Y-35342654D01*
X161059486Y-36726520D02*
X162750000Y-36726519D01*
X155900000Y-39720000D02*
X158066006Y-39720000D01*
X152600000Y-37950000D02*
X153450011Y-38800011D01*
D34*
X171300000Y-53445000D02*
X171300000Y-37955000D01*
D33*
X163815000Y-35819000D02*
X163307000Y-36327000D01*
X196875000Y-44705050D02*
X196875000Y-45645000D01*
X157901010Y-39319990D02*
X158100000Y-39121000D01*
X156065689Y-39319990D02*
X157901010Y-39319990D01*
X151233001Y-37153001D02*
X152966999Y-37153001D01*
X152966999Y-37153001D02*
X153300001Y-37486003D01*
X158034312Y-39186688D02*
X158100000Y-39121000D01*
X170040000Y-35191700D02*
X170040000Y-35800000D01*
X199800000Y-40320000D02*
X199800000Y-41780050D01*
X195700000Y-46820000D02*
X192675000Y-46820000D01*
X160894000Y-36327000D02*
X163307000Y-36327000D01*
X196875000Y-45645000D02*
X195700000Y-46820000D01*
X153300001Y-37486003D02*
X153300001Y-38084303D01*
X164301000Y-35819000D02*
X164650000Y-35470000D01*
X150900000Y-36820000D02*
X151233001Y-37153001D01*
X199800000Y-41780050D02*
X196875000Y-44705050D01*
X158100000Y-39121000D02*
X160894000Y-36327000D01*
X153300001Y-38084303D02*
X153615699Y-38400001D01*
X155145700Y-38400001D02*
X156065689Y-39319990D01*
X153615699Y-38400001D02*
X155145700Y-38400001D01*
X150900000Y-34450000D02*
X150900000Y-36820000D01*
X163815000Y-35819000D02*
X164301000Y-35819000D01*
X152400000Y-54000000D02*
X152400000Y-54000000D01*
D34*
X160800000Y-51400000D02*
X160600000Y-51600000D01*
X159600000Y-45200000D02*
X157780000Y-45200000D01*
X160800000Y-51400000D02*
X160800000Y-46400000D01*
X160600000Y-51600000D02*
X152800000Y-51600000D01*
X160800000Y-46400000D02*
X159600000Y-45200000D01*
X152800000Y-51600000D02*
X152800000Y-53600000D01*
X157780000Y-45200000D02*
X156850000Y-44270000D01*
X152800000Y-53600000D02*
X152400000Y-54000000D01*
D33*
X197800000Y-58745000D02*
X201750000Y-58745000D01*
X201750000Y-58745000D02*
X201900000Y-58595000D01*
X197050000Y-59495000D02*
X197800000Y-58745000D01*
X200000000Y-59520000D02*
X198500000Y-59520000D01*
X198500000Y-59520000D02*
X198425000Y-59445000D01*
X174250000Y-56270000D02*
X173220489Y-57299511D01*
X150000010Y-41515688D02*
X151365688Y-40150010D01*
X153565209Y-57299511D02*
X150000010Y-53734312D01*
X153280741Y-40870000D02*
X153350000Y-40870000D01*
X173220489Y-57299511D02*
X153565209Y-57299511D01*
X150000010Y-53734312D02*
X150000010Y-41515688D01*
X151365688Y-40150010D02*
X152560751Y-40150010D01*
X152560751Y-40150010D02*
X153280741Y-40870000D01*
X175249519Y-55869519D02*
X174650000Y-55270000D01*
X175249519Y-56635487D02*
X175249519Y-55869519D01*
X153399031Y-57699031D02*
X174185976Y-57699030D01*
X174185976Y-57699030D02*
X175249519Y-56635487D01*
X149600000Y-41350000D02*
X149600000Y-53900000D01*
X151200000Y-39750000D02*
X149600000Y-41350000D01*
X153150000Y-39750000D02*
X151200000Y-39750000D01*
X149600000Y-53900000D02*
X153399031Y-57699031D01*
X195350000Y-50070000D02*
X195850000Y-50570000D01*
X194450000Y-50070000D02*
X195350000Y-50070000D01*
X195525000Y-55770000D02*
X195525000Y-53970000D01*
X195325000Y-55970000D02*
X195525000Y-55770000D01*
X190550000Y-47470000D02*
X189550000Y-48470000D01*
X189550000Y-48470000D02*
X187950000Y-48470000D01*
X199550000Y-47470000D02*
X198350000Y-46270000D01*
X198350000Y-46270000D02*
X197450000Y-46270000D01*
X198775000Y-49395000D02*
X197750000Y-48370000D01*
X210100000Y-49195000D02*
X210100000Y-48010000D01*
X197750000Y-48370000D02*
X194925000Y-48370000D01*
X211970000Y-46140000D02*
X211980000Y-46140000D01*
X194925000Y-48370000D02*
X194400000Y-48895000D01*
X201025000Y-49895000D02*
X209400000Y-49895000D01*
X209400000Y-49895000D02*
X210100000Y-49195000D01*
X200525000Y-49395000D02*
X201025000Y-49895000D01*
X200525000Y-49395000D02*
X198775000Y-49395000D01*
X210100000Y-48010000D02*
X211970000Y-46140000D01*
X206250000Y-35770000D02*
X206050000Y-35970000D01*
X206050000Y-39870000D02*
X205950000Y-39970000D01*
X206050000Y-35970000D02*
X206050000Y-39870000D01*
X197628184Y-52223186D02*
X194171814Y-52223186D01*
X194171814Y-52223186D02*
X192525000Y-53870000D01*
X203800000Y-50920000D02*
X202100000Y-52620000D01*
X202100000Y-52620000D02*
X198025000Y-52620000D01*
X192525000Y-53870000D02*
X192525000Y-54395000D01*
X198025000Y-52620000D02*
X197628184Y-52223186D01*
X193575000Y-53395000D02*
X194346814Y-52623186D01*
X197462499Y-52623186D02*
X197859314Y-53020000D01*
X197859314Y-53020000D02*
X203750000Y-53020000D01*
X193575000Y-55320000D02*
X193575000Y-53395000D01*
X194346814Y-52623186D02*
X197462499Y-52623186D01*
X203750000Y-53020000D02*
X205000000Y-51770000D01*
X205700000Y-53420000D02*
X197693628Y-53420000D01*
X193864950Y-56020000D02*
X192475000Y-56020000D01*
X194971814Y-53023186D02*
X194525000Y-53470000D01*
X197296814Y-53023186D02*
X194971814Y-53023186D01*
X194525000Y-55359950D02*
X193864950Y-56020000D01*
X206250000Y-52870000D02*
X205700000Y-53420000D01*
X192475000Y-56020000D02*
X191525000Y-55070000D01*
X194525000Y-53470000D02*
X194525000Y-55359950D01*
X197693628Y-53420000D02*
X197296814Y-53023186D01*
X164250000Y-31978999D02*
X161620970Y-31978999D01*
X164841001Y-31978999D02*
X165350000Y-31470000D01*
X164250000Y-31978999D02*
X164841001Y-31978999D01*
X161620970Y-31978999D02*
X160550000Y-33049969D01*
X154029969Y-33049969D02*
X153650000Y-32670000D01*
X160550000Y-33049969D02*
X154029969Y-33049969D01*
D37*
X184100000Y-31800000D02*
X184100000Y-30200000D01*
X184100000Y-60700000D02*
X184100000Y-59400000D01*
X180600000Y-26700000D02*
X149600000Y-26700000D01*
X149600000Y-26700000D02*
G75*
G03*
X146100000Y-30200000I0J-3500000D01*
G01*
X184100000Y-30200000D02*
G75*
G03*
X180600000Y-26700000I-3500000J0D01*
G01*
X180600000Y-64700000D02*
G75*
G03*
X184100000Y-61200000I0J3500000D01*
G01*
X146100000Y-30200000D02*
X146100000Y-61200000D01*
X149600000Y-64700000D02*
X180600000Y-64700000D01*
X146100000Y-61200000D02*
G75*
G03*
X149600000Y-64700000I3500000J0D01*
G01*
X184100000Y-61200000D02*
X184100000Y-60700000D01*
X225100000Y-61200000D02*
X225100000Y-30200000D01*
X190600000Y-64700000D02*
X221600000Y-64700000D01*
X187100000Y-61200000D02*
G75*
G03*
X190600000Y-64700000I3500000J0D01*
G01*
X221600000Y-64700000D02*
G75*
G03*
X225100000Y-61200000I0J3500000D01*
G01*
X190600000Y-26700000D02*
G75*
G03*
X187100000Y-30200000I0J-3500000D01*
G01*
X190600000Y-26700000D02*
X221600000Y-26700000D01*
X187100000Y-30200000D02*
X187100000Y-30700000D01*
X187100000Y-61200000D02*
X187100000Y-59400000D01*
X187100000Y-31800000D02*
X187100000Y-30700000D01*
X225100000Y-30200000D02*
G75*
G03*
X221600000Y-26700000I-3500000J0D01*
G01*
X187150000Y-48970000D02*
G75*
G03*
X184150000Y-48970000I-1500000J0D01*
G01*
X187150000Y-39570000D02*
G75*
G03*
X184150000Y-39570000I-1500000J0D01*
G01*
X187100000Y-59400000D02*
G75*
G03*
X184100000Y-59400000I-1500000J30019D01*
G01*
X184150000Y-53070000D02*
X184150000Y-48970000D01*
X184150000Y-43270000D02*
X184150000Y-39570000D01*
X184150000Y-43270000D02*
G75*
G03*
X187150000Y-43270000I1500000J0D01*
G01*
X184100000Y-31800000D02*
G75*
G03*
X187100000Y-31800000I1500000J0D01*
G01*
X187150000Y-39570000D02*
X187150000Y-43270000D01*
X187150000Y-48970000D02*
X187150000Y-53070000D01*
X184150000Y-53070000D02*
G75*
G03*
X187150000Y-53070000I1500000J0D01*
G01*
M02*
