%TF.GenerationSoftware,KiCad,Pcbnew,(7.0.0-0)*%
%TF.CreationDate,2023-05-24T17:39:11+02:00*%
%TF.ProjectId,ethersweep,65746865-7273-4776-9565-702e6b696361,2.0.1*%
%TF.SameCoordinates,Original*%
%TF.FileFunction,Paste,Bot*%
%TF.FilePolarity,Positive*%
%FSLAX46Y46*%
G04 Gerber Fmt 4.6, Leading zero omitted, Abs format (unit mm)*
G04 Created by KiCad (PCBNEW (7.0.0-0)) date 2023-05-24 17:39:11*
%MOMM*%
%LPD*%
G01*
G04 APERTURE LIST*
G04 Aperture macros list*
%AMRoundRect*
0 Rectangle with rounded corners*
0 $1 Rounding radius*
0 $2 $3 $4 $5 $6 $7 $8 $9 X,Y pos of 4 corners*
0 Add a 4 corners polygon primitive as box body*
4,1,4,$2,$3,$4,$5,$6,$7,$8,$9,$2,$3,0*
0 Add four circle primitives for the rounded corners*
1,1,$1+$1,$2,$3*
1,1,$1+$1,$4,$5*
1,1,$1+$1,$6,$7*
1,1,$1+$1,$8,$9*
0 Add four rect primitives between the rounded corners*
20,1,$1+$1,$2,$3,$4,$5,0*
20,1,$1+$1,$4,$5,$6,$7,0*
20,1,$1+$1,$6,$7,$8,$9,0*
20,1,$1+$1,$8,$9,$2,$3,0*%
G04 Aperture macros list end*
%ADD10RoundRect,0.200000X0.200000X0.800000X-0.200000X0.800000X-0.200000X-0.800000X0.200000X-0.800000X0*%
%ADD11R,0.600000X1.400000*%
%TA.AperFunction,Profile*%
%ADD12C,0.150000*%
%TD*%
G04 APERTURE END LIST*
D10*
X167250000Y-30250000D03*
X163050000Y-30250000D03*
D11*
X204194999Y-42999999D03*
X205464999Y-42999999D03*
X206734999Y-42999999D03*
X208004999Y-42999999D03*
X208004999Y-48399999D03*
X206734999Y-48399999D03*
X205464999Y-48399999D03*
X204194999Y-48399999D03*
D12*
X184100000Y-31800000D02*
X184100000Y-30200000D01*
X184100000Y-60700000D02*
X184100000Y-59400000D01*
X180600000Y-26700000D02*
X149600000Y-26700000D01*
X149600000Y-26700000D02*
G75*
G03*
X146100000Y-30200000I0J-3500000D01*
G01*
X184100000Y-30200000D02*
G75*
G03*
X180600000Y-26700000I-3500000J0D01*
G01*
X180600000Y-64700000D02*
G75*
G03*
X184100000Y-61200000I0J3500000D01*
G01*
X146100000Y-30200000D02*
X146100000Y-61200000D01*
X149600000Y-64700000D02*
X180600000Y-64700000D01*
X146100000Y-61200000D02*
G75*
G03*
X149600000Y-64700000I3500000J0D01*
G01*
X184100000Y-61200000D02*
X184100000Y-60700000D01*
X225100000Y-61200000D02*
X225100000Y-30200000D01*
X190600000Y-64700000D02*
X221600000Y-64700000D01*
X187100000Y-61200000D02*
G75*
G03*
X190600000Y-64700000I3500000J0D01*
G01*
X221600000Y-64700000D02*
G75*
G03*
X225100000Y-61200000I0J3500000D01*
G01*
X190600000Y-26700000D02*
G75*
G03*
X187100000Y-30200000I0J-3500000D01*
G01*
X190600000Y-26700000D02*
X221600000Y-26700000D01*
X187100000Y-30200000D02*
X187100000Y-30700000D01*
X187100000Y-61200000D02*
X187100000Y-59400000D01*
X187100000Y-31800000D02*
X187100000Y-30700000D01*
X225100000Y-30200000D02*
G75*
G03*
X221600000Y-26700000I-3500000J0D01*
G01*
X187150000Y-48970000D02*
G75*
G03*
X184150000Y-48970000I-1500000J0D01*
G01*
X187150000Y-39570000D02*
G75*
G03*
X184150000Y-39570000I-1500000J0D01*
G01*
X187100000Y-59400000D02*
G75*
G03*
X184100000Y-59400000I-1500000J30019D01*
G01*
X184150000Y-53070000D02*
X184150000Y-48970000D01*
X184150000Y-43270000D02*
X184150000Y-39570000D01*
X184150000Y-43270000D02*
G75*
G03*
X187150000Y-43270000I1500000J0D01*
G01*
X184100000Y-31800000D02*
G75*
G03*
X187100000Y-31800000I1500000J0D01*
G01*
X187150000Y-39570000D02*
X187150000Y-43270000D01*
X187150000Y-48970000D02*
X187150000Y-53070000D01*
X184150000Y-53070000D02*
G75*
G03*
X187150000Y-53070000I1500000J0D01*
G01*
M02*
