M48
; DRILL file {KiCad (7.0.0-0)} date Wednesday, 24. May 2023 at 17:39:09
; FORMAT={-:-/ absolute / metric / decimal}
; #@! TF.CreationDate,2023-05-24T17:39:09+02:00
; #@! TF.GenerationSoftware,Kicad,Pcbnew,(7.0.0-0)
; #@! TF.FileFunction,Plated,1,4,PTH
FMAT,2
METRIC
; #@! TA.AperFunction,Plated,PTH,ViaDrill
T1C0.400
; #@! TA.AperFunction,Plated,PTH,ComponentDrill
T2C0.500
; #@! TA.AperFunction,Plated,PTH,ComponentDrill
T3C0.762
; #@! TA.AperFunction,Plated,PTH,ComponentDrill
T4C0.890
; #@! TA.AperFunction,Plated,PTH,ComponentDrill
T5C0.950
; #@! TA.AperFunction,Plated,PTH,ComponentDrill
T6C1.000
; #@! TA.AperFunction,Plated,PTH,ComponentDrill
T7C1.020
; #@! TA.AperFunction,Plated,PTH,ComponentDrill
T8C1.630
; #@! TA.AperFunction,Plated,PTH,ComponentDrill
T9C1.900
; #@! TA.AperFunction,Plated,PTH,ComponentDrill
T10C3.200
%
G90
G05
T1
X147.15Y-35.97
X147.35Y-39.87
X147.75Y-54.07
X148.75Y-39.87
X150.9Y-34.45
X151.35Y-43.27
X152.05Y-38.97
X152.131Y-40.899
X152.4Y-54.0
X152.489Y-36.175
X152.6Y-37.95
X152.8Y-27.4
X152.8Y-51.6
X153.15Y-39.75
X153.35Y-40.87
X153.4Y-44.1
X153.65Y-32.67
X153.9Y-36.52
X154.085Y-28.635
X155.1Y-36.75
X155.25Y-56.47
X155.56Y-35.819
X156.301Y-36.49
X156.85Y-44.27
X157.6Y-40.9
X158.0Y-47.75
X158.8Y-32.22
X159.3Y-50.6
X159.65Y-44.07
X160.45Y-29.87
X160.45Y-31.67
X160.8Y-51.4
X161.298Y-38.35
X161.355Y-39.91
X161.85Y-42.57
X162.15Y-31.27
X162.45Y-37.57
X162.529Y-39.149
X162.55Y-40.67
X164.65Y-35.47
X165.35Y-31.47
X166.425Y-56.495
X168.55Y-27.87
X168.55Y-55.57
X168.65Y-29.97
X174.25Y-56.27
X174.65Y-55.27
X182.5Y-38.52
X187.95Y-48.47
X188.0Y-45.87
X188.15Y-47.445
X189.0Y-45.645
X189.675Y-39.045
X190.625Y-52.895
X191.05Y-43.145
X191.307Y-40.527
X191.525Y-55.07
X191.95Y-41.47
X191.975Y-45.62
X192.1Y-49.945
X192.525Y-54.395
X192.61Y-49.086
X192.675Y-46.82
X193.2Y-44.67
X193.575Y-55.32
X194.35Y-45.17
X194.4Y-48.895
X194.45Y-50.07
X194.575Y-57.57
X195.325Y-55.97
X195.525Y-53.97
X195.875Y-45.17
X196.775Y-47.395
X196.938Y-49.282
X197.05Y-59.495
X197.45Y-46.27
X197.575Y-45.17
X198.25Y-51.42
X198.4Y-41.07
X198.425Y-59.445
X199.1Y-38.995
X199.325Y-55.92
X199.747Y-62.615
X199.8Y-40.32
X199.84Y-42.73
X199.875Y-43.745
X200.0Y-59.52
X200.025Y-51.92
X200.075Y-28.52
X200.2Y-27.345
X201.16Y-34.26
X201.9Y-58.595
X202.075Y-45.845
X202.1Y-47.195
X202.55Y-31.67
X202.95Y-40.87
X202.993Y-42.97
X203.775Y-46.445
X203.8Y-50.92
X203.825Y-59.645
X203.925Y-56.62
X204.62Y-61.23
X205.0Y-51.77
X205.85Y-44.37
X205.95Y-39.97
X206.0Y-34.57
X206.25Y-35.77
X206.25Y-52.87
X206.7Y-56.42
X206.725Y-46.256
X207.45Y-40.07
X207.65Y-34.27
X208.544Y-35.438
X208.544Y-36.302
X208.544Y-37.165
X208.544Y-38.029
X208.857Y-58.963
X209.408Y-35.438
X209.408Y-36.302
X209.408Y-37.165
X209.408Y-38.029
X210.272Y-35.438
X210.272Y-36.302
X210.272Y-37.165
X210.272Y-38.029
X211.114Y-41.073
X211.135Y-35.438
X211.135Y-36.302
X211.135Y-37.165
X211.135Y-38.029
X211.98Y-46.14
X212.05Y-34.27
X212.15Y-44.37
X212.35Y-42.77
X212.45Y-40.27
X213.065Y-38.705
X213.7Y-34.17
X215.45Y-58.97
X216.1Y-38.195
X217.15Y-31.67
X217.35Y-33.27
X220.965Y-49.281
X221.325Y-38.545
X221.35Y-39.62
X222.2Y-51.32
X222.2Y-52.47
X222.2Y-53.67
X222.525Y-48.895
X222.625Y-50.22
X223.2Y-34.995
X223.8Y-49.045
T2
X147.2Y-30.2
X147.2Y-61.2
X147.903Y-28.503
X147.903Y-31.897
X147.903Y-59.503
X147.903Y-62.897
X149.6Y-27.8
X149.6Y-32.6
X149.6Y-58.8
X149.6Y-63.6
X151.297Y-28.503
X151.297Y-31.897
X151.297Y-59.503
X151.297Y-62.897
X152.0Y-30.2
X152.0Y-61.2
X178.2Y-30.2
X178.2Y-61.2
X178.903Y-28.503
X178.903Y-31.897
X178.903Y-59.503
X178.903Y-62.897
X180.6Y-27.8
X180.6Y-32.6
X180.6Y-58.8
X180.6Y-63.6
X182.297Y-28.503
X182.297Y-31.897
X182.297Y-59.503
X182.297Y-62.897
X183.0Y-30.2
X183.0Y-61.2
X188.2Y-30.2
X188.2Y-61.2
X188.903Y-28.503
X188.903Y-31.897
X188.903Y-59.503
X188.903Y-62.897
X190.6Y-27.8
X190.6Y-32.6
X190.6Y-58.8
X190.6Y-63.6
X192.297Y-28.503
X192.297Y-31.897
X192.297Y-59.503
X192.297Y-62.897
X193.0Y-30.2
X193.0Y-61.2
X219.2Y-30.2
X219.2Y-61.175
X219.903Y-28.503
X219.903Y-31.897
X219.903Y-59.478
X219.903Y-62.872
X221.6Y-27.8
X221.6Y-32.6
X221.6Y-58.775
X221.6Y-63.575
X223.297Y-28.503
X223.297Y-31.897
X223.297Y-59.478
X223.297Y-62.872
X224.0Y-30.2
X224.0Y-61.175
T3
X223.85Y-50.235
X223.85Y-52.775
X223.85Y-55.315
T4
X165.46Y-41.26
X165.46Y-43.8
X165.46Y-46.34
X165.46Y-48.88
X168.0Y-42.53
X168.0Y-45.07
X168.0Y-47.61
X168.0Y-50.15
T5
X157.05Y-59.787
X159.55Y-59.787
X162.05Y-59.787
X168.3Y-59.787
X170.8Y-59.787
X173.3Y-59.787
X206.05Y-28.602
X208.55Y-28.602
X211.05Y-28.602
X213.55Y-28.602
T6
X147.6Y-41.9
X147.6Y-44.44
X147.6Y-46.98
X147.6Y-49.52
X167.478Y-35.819
X170.018Y-35.819
X172.558Y-35.819
X172.6Y-28.12
X172.6Y-30.66
X172.6Y-33.2
X175.098Y-35.819
X175.14Y-28.12
X175.14Y-30.66
X175.14Y-33.2
X177.638Y-35.819
X180.178Y-35.819
X182.718Y-35.819
X188.453Y-35.819
X190.993Y-35.819
X193.533Y-35.819
X196.06Y-28.12
X196.06Y-30.66
X196.06Y-33.2
X196.073Y-35.819
X198.6Y-28.12
X198.6Y-30.66
X198.6Y-33.2
X198.613Y-35.819
X201.153Y-35.819
X203.693Y-35.819
X206.4Y-63.1
X217.4Y-63.1
T7
X179.25Y-39.075
X179.25Y-41.615
X179.25Y-49.785
X179.25Y-52.325
T8
X171.3Y-37.955
X171.3Y-53.445
T9
X209.4Y-53.1
X214.4Y-53.1
T10
X149.6Y-30.2
X149.6Y-61.2
X180.6Y-30.2
X180.6Y-61.2
X190.6Y-30.2
X190.6Y-61.2
X221.6Y-30.2
X221.6Y-61.175
T0
M30
