%TF.GenerationSoftware,KiCad,Pcbnew,(7.0.0-0)*%
%TF.CreationDate,2023-05-24T17:39:12+02:00*%
%TF.ProjectId,ethersweep,65746865-7273-4776-9565-702e6b696361,2.0.1*%
%TF.SameCoordinates,Original*%
%TF.FileFunction,AssemblyDrawing,Top*%
%FSLAX46Y46*%
G04 Gerber Fmt 4.6, Leading zero omitted, Abs format (unit mm)*
G04 Created by KiCad (PCBNEW (7.0.0-0)) date 2023-05-24 17:39:12*
%MOMM*%
%LPD*%
G01*
G04 APERTURE LIST*
%ADD10C,0.080000*%
%ADD11C,0.015000*%
%ADD12C,0.150000*%
%ADD13C,0.040000*%
%ADD14C,0.060000*%
%ADD15C,0.120000*%
%ADD16C,0.100000*%
%ADD17C,0.127000*%
%ADD18C,0.300000*%
%TA.AperFunction,Profile*%
%ADD19C,0.150000*%
%TD*%
G04 APERTURE END LIST*
D10*
X160436071Y-33821428D02*
X160459880Y-33845237D01*
X160459880Y-33845237D02*
X160483690Y-33916666D01*
X160483690Y-33916666D02*
X160483690Y-33964285D01*
X160483690Y-33964285D02*
X160459880Y-34035713D01*
X160459880Y-34035713D02*
X160412261Y-34083332D01*
X160412261Y-34083332D02*
X160364642Y-34107142D01*
X160364642Y-34107142D02*
X160269404Y-34130951D01*
X160269404Y-34130951D02*
X160197976Y-34130951D01*
X160197976Y-34130951D02*
X160102738Y-34107142D01*
X160102738Y-34107142D02*
X160055119Y-34083332D01*
X160055119Y-34083332D02*
X160007500Y-34035713D01*
X160007500Y-34035713D02*
X159983690Y-33964285D01*
X159983690Y-33964285D02*
X159983690Y-33916666D01*
X159983690Y-33916666D02*
X160007500Y-33845237D01*
X160007500Y-33845237D02*
X160031309Y-33821428D01*
X160031309Y-33630951D02*
X160007500Y-33607142D01*
X160007500Y-33607142D02*
X159983690Y-33559523D01*
X159983690Y-33559523D02*
X159983690Y-33440475D01*
X159983690Y-33440475D02*
X160007500Y-33392856D01*
X160007500Y-33392856D02*
X160031309Y-33369047D01*
X160031309Y-33369047D02*
X160078928Y-33345237D01*
X160078928Y-33345237D02*
X160126547Y-33345237D01*
X160126547Y-33345237D02*
X160197976Y-33369047D01*
X160197976Y-33369047D02*
X160483690Y-33654761D01*
X160483690Y-33654761D02*
X160483690Y-33345237D01*
X159983690Y-32916666D02*
X159983690Y-33011904D01*
X159983690Y-33011904D02*
X160007500Y-33059523D01*
X160007500Y-33059523D02*
X160031309Y-33083333D01*
X160031309Y-33083333D02*
X160102738Y-33130952D01*
X160102738Y-33130952D02*
X160197976Y-33154761D01*
X160197976Y-33154761D02*
X160388452Y-33154761D01*
X160388452Y-33154761D02*
X160436071Y-33130952D01*
X160436071Y-33130952D02*
X160459880Y-33107142D01*
X160459880Y-33107142D02*
X160483690Y-33059523D01*
X160483690Y-33059523D02*
X160483690Y-32964285D01*
X160483690Y-32964285D02*
X160459880Y-32916666D01*
X160459880Y-32916666D02*
X160436071Y-32892857D01*
X160436071Y-32892857D02*
X160388452Y-32869047D01*
X160388452Y-32869047D02*
X160269404Y-32869047D01*
X160269404Y-32869047D02*
X160221785Y-32892857D01*
X160221785Y-32892857D02*
X160197976Y-32916666D01*
X160197976Y-32916666D02*
X160174166Y-32964285D01*
X160174166Y-32964285D02*
X160174166Y-33059523D01*
X160174166Y-33059523D02*
X160197976Y-33107142D01*
X160197976Y-33107142D02*
X160221785Y-33130952D01*
X160221785Y-33130952D02*
X160269404Y-33154761D01*
X150116666Y-54183690D02*
X149878571Y-54183690D01*
X149878571Y-54183690D02*
X149878571Y-53683690D01*
X150545238Y-54183690D02*
X150259524Y-54183690D01*
X150402381Y-54183690D02*
X150402381Y-53683690D01*
X150402381Y-53683690D02*
X150354762Y-53755119D01*
X150354762Y-53755119D02*
X150307143Y-53802738D01*
X150307143Y-53802738D02*
X150259524Y-53826547D01*
D11*
X177639670Y-52404898D02*
X176034607Y-52404898D01*
X176798923Y-52404898D02*
X176798923Y-51487719D01*
X177639670Y-51487719D02*
X176034607Y-51487719D01*
X177639670Y-49806224D02*
X176875354Y-50341245D01*
X177639670Y-50723403D02*
X176034607Y-50723403D01*
X176034607Y-50723403D02*
X176034607Y-50111950D01*
X176034607Y-50111950D02*
X176111039Y-49959087D01*
X176111039Y-49959087D02*
X176187470Y-49882655D01*
X176187470Y-49882655D02*
X176340333Y-49806224D01*
X176340333Y-49806224D02*
X176569628Y-49806224D01*
X176569628Y-49806224D02*
X176722491Y-49882655D01*
X176722491Y-49882655D02*
X176798923Y-49959087D01*
X176798923Y-49959087D02*
X176875354Y-50111950D01*
X176875354Y-50111950D02*
X176875354Y-50723403D01*
X177639670Y-49041908D02*
X177639670Y-48736182D01*
X177639670Y-48736182D02*
X177563238Y-48583319D01*
X177563238Y-48583319D02*
X177486807Y-48506887D01*
X177486807Y-48506887D02*
X177257512Y-48354024D01*
X177257512Y-48354024D02*
X176951786Y-48277592D01*
X176951786Y-48277592D02*
X176340333Y-48277592D01*
X176340333Y-48277592D02*
X176187470Y-48354024D01*
X176187470Y-48354024D02*
X176111039Y-48430456D01*
X176111039Y-48430456D02*
X176034607Y-48583319D01*
X176034607Y-48583319D02*
X176034607Y-48889045D01*
X176034607Y-48889045D02*
X176111039Y-49041908D01*
X176111039Y-49041908D02*
X176187470Y-49118340D01*
X176187470Y-49118340D02*
X176340333Y-49194771D01*
X176340333Y-49194771D02*
X176722491Y-49194771D01*
X176722491Y-49194771D02*
X176875354Y-49118340D01*
X176875354Y-49118340D02*
X176951786Y-49041908D01*
X176951786Y-49041908D02*
X177028217Y-48889045D01*
X177028217Y-48889045D02*
X177028217Y-48583319D01*
X177028217Y-48583319D02*
X176951786Y-48430456D01*
X176951786Y-48430456D02*
X176875354Y-48354024D01*
X176875354Y-48354024D02*
X176722491Y-48277592D01*
X177639670Y-46748961D02*
X177639670Y-47666140D01*
X177639670Y-47207551D02*
X176034607Y-47207551D01*
X176034607Y-47207551D02*
X176263902Y-47360414D01*
X176263902Y-47360414D02*
X176416765Y-47513277D01*
X176416765Y-47513277D02*
X176493196Y-47666140D01*
X177639670Y-45220330D02*
X177639670Y-46137509D01*
X177639670Y-45678920D02*
X176034607Y-45678920D01*
X176034607Y-45678920D02*
X176263902Y-45831783D01*
X176263902Y-45831783D02*
X176416765Y-45984646D01*
X176416765Y-45984646D02*
X176493196Y-46137509D01*
X177639670Y-43691699D02*
X177639670Y-44608878D01*
X177639670Y-44150289D02*
X176034607Y-44150289D01*
X176034607Y-44150289D02*
X176263902Y-44303152D01*
X176263902Y-44303152D02*
X176416765Y-44456015D01*
X176416765Y-44456015D02*
X176493196Y-44608878D01*
X176034607Y-42698089D02*
X176034607Y-42545226D01*
X176034607Y-42545226D02*
X176111039Y-42392363D01*
X176111039Y-42392363D02*
X176187470Y-42315932D01*
X176187470Y-42315932D02*
X176340333Y-42239500D01*
X176340333Y-42239500D02*
X176646060Y-42163068D01*
X176646060Y-42163068D02*
X177028217Y-42163068D01*
X177028217Y-42163068D02*
X177333944Y-42239500D01*
X177333944Y-42239500D02*
X177486807Y-42315932D01*
X177486807Y-42315932D02*
X177563238Y-42392363D01*
X177563238Y-42392363D02*
X177639670Y-42545226D01*
X177639670Y-42545226D02*
X177639670Y-42698089D01*
X177639670Y-42698089D02*
X177563238Y-42850953D01*
X177563238Y-42850953D02*
X177486807Y-42927384D01*
X177486807Y-42927384D02*
X177333944Y-43003816D01*
X177333944Y-43003816D02*
X177028217Y-43080247D01*
X177028217Y-43080247D02*
X176646060Y-43080247D01*
X176646060Y-43080247D02*
X176340333Y-43003816D01*
X176340333Y-43003816D02*
X176187470Y-42927384D01*
X176187470Y-42927384D02*
X176111039Y-42850953D01*
X176111039Y-42850953D02*
X176034607Y-42698089D01*
X176034607Y-40710869D02*
X176034607Y-41475185D01*
X176034607Y-41475185D02*
X176798923Y-41551616D01*
X176798923Y-41551616D02*
X176722491Y-41475185D01*
X176722491Y-41475185D02*
X176646060Y-41322322D01*
X176646060Y-41322322D02*
X176646060Y-40940164D01*
X176646060Y-40940164D02*
X176722491Y-40787301D01*
X176722491Y-40787301D02*
X176798923Y-40710869D01*
X176798923Y-40710869D02*
X176951786Y-40634437D01*
X176951786Y-40634437D02*
X177333944Y-40634437D01*
X177333944Y-40634437D02*
X177486807Y-40710869D01*
X177486807Y-40710869D02*
X177563238Y-40787301D01*
X177563238Y-40787301D02*
X177639670Y-40940164D01*
X177639670Y-40940164D02*
X177639670Y-41322322D01*
X177639670Y-41322322D02*
X177563238Y-41475185D01*
X177563238Y-41475185D02*
X177486807Y-41551616D01*
X177181081Y-40022985D02*
X177181081Y-39258670D01*
X177639670Y-40175848D02*
X176034607Y-39640827D01*
X176034607Y-39640827D02*
X177639670Y-39105806D01*
D12*
X180138095Y-30567380D02*
X180138095Y-29567380D01*
X180138095Y-30043571D02*
X180709523Y-30043571D01*
X180709523Y-30567380D02*
X180709523Y-29567380D01*
X181614285Y-29567380D02*
X181423809Y-29567380D01*
X181423809Y-29567380D02*
X181328571Y-29615000D01*
X181328571Y-29615000D02*
X181280952Y-29662619D01*
X181280952Y-29662619D02*
X181185714Y-29805476D01*
X181185714Y-29805476D02*
X181138095Y-29995952D01*
X181138095Y-29995952D02*
X181138095Y-30376904D01*
X181138095Y-30376904D02*
X181185714Y-30472142D01*
X181185714Y-30472142D02*
X181233333Y-30519761D01*
X181233333Y-30519761D02*
X181328571Y-30567380D01*
X181328571Y-30567380D02*
X181519047Y-30567380D01*
X181519047Y-30567380D02*
X181614285Y-30519761D01*
X181614285Y-30519761D02*
X181661904Y-30472142D01*
X181661904Y-30472142D02*
X181709523Y-30376904D01*
X181709523Y-30376904D02*
X181709523Y-30138809D01*
X181709523Y-30138809D02*
X181661904Y-30043571D01*
X181661904Y-30043571D02*
X181614285Y-29995952D01*
X181614285Y-29995952D02*
X181519047Y-29948333D01*
X181519047Y-29948333D02*
X181328571Y-29948333D01*
X181328571Y-29948333D02*
X181233333Y-29995952D01*
X181233333Y-29995952D02*
X181185714Y-30043571D01*
X181185714Y-30043571D02*
X181138095Y-30138809D01*
X149138095Y-30567380D02*
X149138095Y-29567380D01*
X149138095Y-30043571D02*
X149709523Y-30043571D01*
X149709523Y-30567380D02*
X149709523Y-29567380D01*
X150661904Y-29567380D02*
X150185714Y-29567380D01*
X150185714Y-29567380D02*
X150138095Y-30043571D01*
X150138095Y-30043571D02*
X150185714Y-29995952D01*
X150185714Y-29995952D02*
X150280952Y-29948333D01*
X150280952Y-29948333D02*
X150519047Y-29948333D01*
X150519047Y-29948333D02*
X150614285Y-29995952D01*
X150614285Y-29995952D02*
X150661904Y-30043571D01*
X150661904Y-30043571D02*
X150709523Y-30138809D01*
X150709523Y-30138809D02*
X150709523Y-30376904D01*
X150709523Y-30376904D02*
X150661904Y-30472142D01*
X150661904Y-30472142D02*
X150614285Y-30519761D01*
X150614285Y-30519761D02*
X150519047Y-30567380D01*
X150519047Y-30567380D02*
X150280952Y-30567380D01*
X150280952Y-30567380D02*
X150185714Y-30519761D01*
X150185714Y-30519761D02*
X150138095Y-30472142D01*
X149138095Y-61567380D02*
X149138095Y-60567380D01*
X149138095Y-61043571D02*
X149709523Y-61043571D01*
X149709523Y-61567380D02*
X149709523Y-60567380D01*
X150328571Y-60995952D02*
X150233333Y-60948333D01*
X150233333Y-60948333D02*
X150185714Y-60900714D01*
X150185714Y-60900714D02*
X150138095Y-60805476D01*
X150138095Y-60805476D02*
X150138095Y-60757857D01*
X150138095Y-60757857D02*
X150185714Y-60662619D01*
X150185714Y-60662619D02*
X150233333Y-60615000D01*
X150233333Y-60615000D02*
X150328571Y-60567380D01*
X150328571Y-60567380D02*
X150519047Y-60567380D01*
X150519047Y-60567380D02*
X150614285Y-60615000D01*
X150614285Y-60615000D02*
X150661904Y-60662619D01*
X150661904Y-60662619D02*
X150709523Y-60757857D01*
X150709523Y-60757857D02*
X150709523Y-60805476D01*
X150709523Y-60805476D02*
X150661904Y-60900714D01*
X150661904Y-60900714D02*
X150614285Y-60948333D01*
X150614285Y-60948333D02*
X150519047Y-60995952D01*
X150519047Y-60995952D02*
X150328571Y-60995952D01*
X150328571Y-60995952D02*
X150233333Y-61043571D01*
X150233333Y-61043571D02*
X150185714Y-61091190D01*
X150185714Y-61091190D02*
X150138095Y-61186428D01*
X150138095Y-61186428D02*
X150138095Y-61376904D01*
X150138095Y-61376904D02*
X150185714Y-61472142D01*
X150185714Y-61472142D02*
X150233333Y-61519761D01*
X150233333Y-61519761D02*
X150328571Y-61567380D01*
X150328571Y-61567380D02*
X150519047Y-61567380D01*
X150519047Y-61567380D02*
X150614285Y-61519761D01*
X150614285Y-61519761D02*
X150661904Y-61472142D01*
X150661904Y-61472142D02*
X150709523Y-61376904D01*
X150709523Y-61376904D02*
X150709523Y-61186428D01*
X150709523Y-61186428D02*
X150661904Y-61091190D01*
X150661904Y-61091190D02*
X150614285Y-61043571D01*
X150614285Y-61043571D02*
X150519047Y-60995952D01*
X180138095Y-61567380D02*
X180138095Y-60567380D01*
X180138095Y-61043571D02*
X180709523Y-61043571D01*
X180709523Y-61567380D02*
X180709523Y-60567380D01*
X181090476Y-60567380D02*
X181757142Y-60567380D01*
X181757142Y-60567380D02*
X181328571Y-61567380D01*
D13*
X161089285Y-37618035D02*
X161077381Y-37629940D01*
X161077381Y-37629940D02*
X161041666Y-37641845D01*
X161041666Y-37641845D02*
X161017857Y-37641845D01*
X161017857Y-37641845D02*
X160982143Y-37629940D01*
X160982143Y-37629940D02*
X160958333Y-37606130D01*
X160958333Y-37606130D02*
X160946428Y-37582321D01*
X160946428Y-37582321D02*
X160934524Y-37534702D01*
X160934524Y-37534702D02*
X160934524Y-37498988D01*
X160934524Y-37498988D02*
X160946428Y-37451369D01*
X160946428Y-37451369D02*
X160958333Y-37427559D01*
X160958333Y-37427559D02*
X160982143Y-37403750D01*
X160982143Y-37403750D02*
X161017857Y-37391845D01*
X161017857Y-37391845D02*
X161041666Y-37391845D01*
X161041666Y-37391845D02*
X161077381Y-37403750D01*
X161077381Y-37403750D02*
X161089285Y-37415654D01*
X161172619Y-37391845D02*
X161327381Y-37391845D01*
X161327381Y-37391845D02*
X161244047Y-37487083D01*
X161244047Y-37487083D02*
X161279762Y-37487083D01*
X161279762Y-37487083D02*
X161303571Y-37498988D01*
X161303571Y-37498988D02*
X161315476Y-37510892D01*
X161315476Y-37510892D02*
X161327381Y-37534702D01*
X161327381Y-37534702D02*
X161327381Y-37594226D01*
X161327381Y-37594226D02*
X161315476Y-37618035D01*
X161315476Y-37618035D02*
X161303571Y-37629940D01*
X161303571Y-37629940D02*
X161279762Y-37641845D01*
X161279762Y-37641845D02*
X161208333Y-37641845D01*
X161208333Y-37641845D02*
X161184524Y-37629940D01*
X161184524Y-37629940D02*
X161172619Y-37618035D01*
X161541666Y-37391845D02*
X161494047Y-37391845D01*
X161494047Y-37391845D02*
X161470238Y-37403750D01*
X161470238Y-37403750D02*
X161458333Y-37415654D01*
X161458333Y-37415654D02*
X161434523Y-37451369D01*
X161434523Y-37451369D02*
X161422619Y-37498988D01*
X161422619Y-37498988D02*
X161422619Y-37594226D01*
X161422619Y-37594226D02*
X161434523Y-37618035D01*
X161434523Y-37618035D02*
X161446428Y-37629940D01*
X161446428Y-37629940D02*
X161470238Y-37641845D01*
X161470238Y-37641845D02*
X161517857Y-37641845D01*
X161517857Y-37641845D02*
X161541666Y-37629940D01*
X161541666Y-37629940D02*
X161553571Y-37618035D01*
X161553571Y-37618035D02*
X161565476Y-37594226D01*
X161565476Y-37594226D02*
X161565476Y-37534702D01*
X161565476Y-37534702D02*
X161553571Y-37510892D01*
X161553571Y-37510892D02*
X161541666Y-37498988D01*
X161541666Y-37498988D02*
X161517857Y-37487083D01*
X161517857Y-37487083D02*
X161470238Y-37487083D01*
X161470238Y-37487083D02*
X161446428Y-37498988D01*
X161446428Y-37498988D02*
X161434523Y-37510892D01*
X161434523Y-37510892D02*
X161422619Y-37534702D01*
D10*
X147728571Y-37336071D02*
X147704762Y-37359880D01*
X147704762Y-37359880D02*
X147633333Y-37383690D01*
X147633333Y-37383690D02*
X147585714Y-37383690D01*
X147585714Y-37383690D02*
X147514286Y-37359880D01*
X147514286Y-37359880D02*
X147466667Y-37312261D01*
X147466667Y-37312261D02*
X147442857Y-37264642D01*
X147442857Y-37264642D02*
X147419048Y-37169404D01*
X147419048Y-37169404D02*
X147419048Y-37097976D01*
X147419048Y-37097976D02*
X147442857Y-37002738D01*
X147442857Y-37002738D02*
X147466667Y-36955119D01*
X147466667Y-36955119D02*
X147514286Y-36907500D01*
X147514286Y-36907500D02*
X147585714Y-36883690D01*
X147585714Y-36883690D02*
X147633333Y-36883690D01*
X147633333Y-36883690D02*
X147704762Y-36907500D01*
X147704762Y-36907500D02*
X147728571Y-36931309D01*
X147895238Y-36883690D02*
X148204762Y-36883690D01*
X148204762Y-36883690D02*
X148038095Y-37074166D01*
X148038095Y-37074166D02*
X148109524Y-37074166D01*
X148109524Y-37074166D02*
X148157143Y-37097976D01*
X148157143Y-37097976D02*
X148180952Y-37121785D01*
X148180952Y-37121785D02*
X148204762Y-37169404D01*
X148204762Y-37169404D02*
X148204762Y-37288452D01*
X148204762Y-37288452D02*
X148180952Y-37336071D01*
X148180952Y-37336071D02*
X148157143Y-37359880D01*
X148157143Y-37359880D02*
X148109524Y-37383690D01*
X148109524Y-37383690D02*
X147966667Y-37383690D01*
X147966667Y-37383690D02*
X147919048Y-37359880D01*
X147919048Y-37359880D02*
X147895238Y-37336071D01*
X148514285Y-36883690D02*
X148561904Y-36883690D01*
X148561904Y-36883690D02*
X148609523Y-36907500D01*
X148609523Y-36907500D02*
X148633333Y-36931309D01*
X148633333Y-36931309D02*
X148657142Y-36978928D01*
X148657142Y-36978928D02*
X148680952Y-37074166D01*
X148680952Y-37074166D02*
X148680952Y-37193214D01*
X148680952Y-37193214D02*
X148657142Y-37288452D01*
X148657142Y-37288452D02*
X148633333Y-37336071D01*
X148633333Y-37336071D02*
X148609523Y-37359880D01*
X148609523Y-37359880D02*
X148561904Y-37383690D01*
X148561904Y-37383690D02*
X148514285Y-37383690D01*
X148514285Y-37383690D02*
X148466666Y-37359880D01*
X148466666Y-37359880D02*
X148442857Y-37336071D01*
X148442857Y-37336071D02*
X148419047Y-37288452D01*
X148419047Y-37288452D02*
X148395238Y-37193214D01*
X148395238Y-37193214D02*
X148395238Y-37074166D01*
X148395238Y-37074166D02*
X148419047Y-36978928D01*
X148419047Y-36978928D02*
X148442857Y-36931309D01*
X148442857Y-36931309D02*
X148466666Y-36907500D01*
X148466666Y-36907500D02*
X148514285Y-36883690D01*
D13*
X161758333Y-44668035D02*
X161746429Y-44679940D01*
X161746429Y-44679940D02*
X161710714Y-44691845D01*
X161710714Y-44691845D02*
X161686905Y-44691845D01*
X161686905Y-44691845D02*
X161651191Y-44679940D01*
X161651191Y-44679940D02*
X161627381Y-44656130D01*
X161627381Y-44656130D02*
X161615476Y-44632321D01*
X161615476Y-44632321D02*
X161603572Y-44584702D01*
X161603572Y-44584702D02*
X161603572Y-44548988D01*
X161603572Y-44548988D02*
X161615476Y-44501369D01*
X161615476Y-44501369D02*
X161627381Y-44477559D01*
X161627381Y-44477559D02*
X161651191Y-44453750D01*
X161651191Y-44453750D02*
X161686905Y-44441845D01*
X161686905Y-44441845D02*
X161710714Y-44441845D01*
X161710714Y-44441845D02*
X161746429Y-44453750D01*
X161746429Y-44453750D02*
X161758333Y-44465654D01*
X161841667Y-44441845D02*
X162008333Y-44441845D01*
X162008333Y-44441845D02*
X161901191Y-44691845D01*
X161639285Y-46268035D02*
X161627381Y-46279940D01*
X161627381Y-46279940D02*
X161591666Y-46291845D01*
X161591666Y-46291845D02*
X161567857Y-46291845D01*
X161567857Y-46291845D02*
X161532143Y-46279940D01*
X161532143Y-46279940D02*
X161508333Y-46256130D01*
X161508333Y-46256130D02*
X161496428Y-46232321D01*
X161496428Y-46232321D02*
X161484524Y-46184702D01*
X161484524Y-46184702D02*
X161484524Y-46148988D01*
X161484524Y-46148988D02*
X161496428Y-46101369D01*
X161496428Y-46101369D02*
X161508333Y-46077559D01*
X161508333Y-46077559D02*
X161532143Y-46053750D01*
X161532143Y-46053750D02*
X161567857Y-46041845D01*
X161567857Y-46041845D02*
X161591666Y-46041845D01*
X161591666Y-46041845D02*
X161627381Y-46053750D01*
X161627381Y-46053750D02*
X161639285Y-46065654D01*
X161877381Y-46291845D02*
X161734524Y-46291845D01*
X161805952Y-46291845D02*
X161805952Y-46041845D01*
X161805952Y-46041845D02*
X161782143Y-46077559D01*
X161782143Y-46077559D02*
X161758333Y-46101369D01*
X161758333Y-46101369D02*
X161734524Y-46113273D01*
X161960714Y-46041845D02*
X162115476Y-46041845D01*
X162115476Y-46041845D02*
X162032142Y-46137083D01*
X162032142Y-46137083D02*
X162067857Y-46137083D01*
X162067857Y-46137083D02*
X162091666Y-46148988D01*
X162091666Y-46148988D02*
X162103571Y-46160892D01*
X162103571Y-46160892D02*
X162115476Y-46184702D01*
X162115476Y-46184702D02*
X162115476Y-46244226D01*
X162115476Y-46244226D02*
X162103571Y-46268035D01*
X162103571Y-46268035D02*
X162091666Y-46279940D01*
X162091666Y-46279940D02*
X162067857Y-46291845D01*
X162067857Y-46291845D02*
X161996428Y-46291845D01*
X161996428Y-46291845D02*
X161972619Y-46279940D01*
X161972619Y-46279940D02*
X161960714Y-46268035D01*
D12*
X190138095Y-30567380D02*
X190138095Y-29567380D01*
X190138095Y-30043571D02*
X190709523Y-30043571D01*
X190709523Y-30567380D02*
X190709523Y-29567380D01*
X191709523Y-30567380D02*
X191138095Y-30567380D01*
X191423809Y-30567380D02*
X191423809Y-29567380D01*
X191423809Y-29567380D02*
X191328571Y-29710238D01*
X191328571Y-29710238D02*
X191233333Y-29805476D01*
X191233333Y-29805476D02*
X191138095Y-29853095D01*
X221138095Y-30567380D02*
X221138095Y-29567380D01*
X221138095Y-30043571D02*
X221709523Y-30043571D01*
X221709523Y-30567380D02*
X221709523Y-29567380D01*
X222138095Y-29662619D02*
X222185714Y-29615000D01*
X222185714Y-29615000D02*
X222280952Y-29567380D01*
X222280952Y-29567380D02*
X222519047Y-29567380D01*
X222519047Y-29567380D02*
X222614285Y-29615000D01*
X222614285Y-29615000D02*
X222661904Y-29662619D01*
X222661904Y-29662619D02*
X222709523Y-29757857D01*
X222709523Y-29757857D02*
X222709523Y-29853095D01*
X222709523Y-29853095D02*
X222661904Y-29995952D01*
X222661904Y-29995952D02*
X222090476Y-30567380D01*
X222090476Y-30567380D02*
X222709523Y-30567380D01*
X190138095Y-61567380D02*
X190138095Y-60567380D01*
X190138095Y-61043571D02*
X190709523Y-61043571D01*
X190709523Y-61567380D02*
X190709523Y-60567380D01*
X191614285Y-60900714D02*
X191614285Y-61567380D01*
X191376190Y-60519761D02*
X191138095Y-61234047D01*
X191138095Y-61234047D02*
X191757142Y-61234047D01*
X221138095Y-61542381D02*
X221138095Y-60542381D01*
X221138095Y-61018572D02*
X221709523Y-61018572D01*
X221709523Y-61542381D02*
X221709523Y-60542381D01*
X222090476Y-60542381D02*
X222709523Y-60542381D01*
X222709523Y-60542381D02*
X222376190Y-60923334D01*
X222376190Y-60923334D02*
X222519047Y-60923334D01*
X222519047Y-60923334D02*
X222614285Y-60970953D01*
X222614285Y-60970953D02*
X222661904Y-61018572D01*
X222661904Y-61018572D02*
X222709523Y-61113810D01*
X222709523Y-61113810D02*
X222709523Y-61351905D01*
X222709523Y-61351905D02*
X222661904Y-61447143D01*
X222661904Y-61447143D02*
X222614285Y-61494762D01*
X222614285Y-61494762D02*
X222519047Y-61542381D01*
X222519047Y-61542381D02*
X222233333Y-61542381D01*
X222233333Y-61542381D02*
X222138095Y-61494762D01*
X222138095Y-61494762D02*
X222090476Y-61447143D01*
D14*
X205896952Y-60665237D02*
X205496952Y-60665237D01*
X205496952Y-60665237D02*
X205496952Y-60569999D01*
X205496952Y-60569999D02*
X205516000Y-60512856D01*
X205516000Y-60512856D02*
X205554095Y-60474761D01*
X205554095Y-60474761D02*
X205592190Y-60455714D01*
X205592190Y-60455714D02*
X205668380Y-60436666D01*
X205668380Y-60436666D02*
X205725523Y-60436666D01*
X205725523Y-60436666D02*
X205801714Y-60455714D01*
X205801714Y-60455714D02*
X205839809Y-60474761D01*
X205839809Y-60474761D02*
X205877904Y-60512856D01*
X205877904Y-60512856D02*
X205896952Y-60569999D01*
X205896952Y-60569999D02*
X205896952Y-60665237D01*
X205896952Y-60055714D02*
X205896952Y-60284285D01*
X205896952Y-60169999D02*
X205496952Y-60169999D01*
X205496952Y-60169999D02*
X205554095Y-60208095D01*
X205554095Y-60208095D02*
X205592190Y-60246190D01*
X205592190Y-60246190D02*
X205611238Y-60284285D01*
X205896952Y-57627142D02*
X205706476Y-57760475D01*
X205896952Y-57855713D02*
X205496952Y-57855713D01*
X205496952Y-57855713D02*
X205496952Y-57703332D01*
X205496952Y-57703332D02*
X205516000Y-57665237D01*
X205516000Y-57665237D02*
X205535047Y-57646190D01*
X205535047Y-57646190D02*
X205573142Y-57627142D01*
X205573142Y-57627142D02*
X205630285Y-57627142D01*
X205630285Y-57627142D02*
X205668380Y-57646190D01*
X205668380Y-57646190D02*
X205687428Y-57665237D01*
X205687428Y-57665237D02*
X205706476Y-57703332D01*
X205706476Y-57703332D02*
X205706476Y-57855713D01*
X205896952Y-57246190D02*
X205896952Y-57474761D01*
X205896952Y-57360475D02*
X205496952Y-57360475D01*
X205496952Y-57360475D02*
X205554095Y-57398571D01*
X205554095Y-57398571D02*
X205592190Y-57436666D01*
X205592190Y-57436666D02*
X205611238Y-57474761D01*
X205496952Y-57112857D02*
X205496952Y-56865238D01*
X205496952Y-56865238D02*
X205649333Y-56998571D01*
X205649333Y-56998571D02*
X205649333Y-56941428D01*
X205649333Y-56941428D02*
X205668380Y-56903333D01*
X205668380Y-56903333D02*
X205687428Y-56884285D01*
X205687428Y-56884285D02*
X205725523Y-56865238D01*
X205725523Y-56865238D02*
X205820761Y-56865238D01*
X205820761Y-56865238D02*
X205858857Y-56884285D01*
X205858857Y-56884285D02*
X205877904Y-56903333D01*
X205877904Y-56903333D02*
X205896952Y-56941428D01*
X205896952Y-56941428D02*
X205896952Y-57055714D01*
X205896952Y-57055714D02*
X205877904Y-57093809D01*
X205877904Y-57093809D02*
X205858857Y-57112857D01*
D13*
X161089285Y-40738035D02*
X161077381Y-40749940D01*
X161077381Y-40749940D02*
X161041666Y-40761845D01*
X161041666Y-40761845D02*
X161017857Y-40761845D01*
X161017857Y-40761845D02*
X160982143Y-40749940D01*
X160982143Y-40749940D02*
X160958333Y-40726130D01*
X160958333Y-40726130D02*
X160946428Y-40702321D01*
X160946428Y-40702321D02*
X160934524Y-40654702D01*
X160934524Y-40654702D02*
X160934524Y-40618988D01*
X160934524Y-40618988D02*
X160946428Y-40571369D01*
X160946428Y-40571369D02*
X160958333Y-40547559D01*
X160958333Y-40547559D02*
X160982143Y-40523750D01*
X160982143Y-40523750D02*
X161017857Y-40511845D01*
X161017857Y-40511845D02*
X161041666Y-40511845D01*
X161041666Y-40511845D02*
X161077381Y-40523750D01*
X161077381Y-40523750D02*
X161089285Y-40535654D01*
X161184524Y-40535654D02*
X161196428Y-40523750D01*
X161196428Y-40523750D02*
X161220238Y-40511845D01*
X161220238Y-40511845D02*
X161279762Y-40511845D01*
X161279762Y-40511845D02*
X161303571Y-40523750D01*
X161303571Y-40523750D02*
X161315476Y-40535654D01*
X161315476Y-40535654D02*
X161327381Y-40559464D01*
X161327381Y-40559464D02*
X161327381Y-40583273D01*
X161327381Y-40583273D02*
X161315476Y-40618988D01*
X161315476Y-40618988D02*
X161172619Y-40761845D01*
X161172619Y-40761845D02*
X161327381Y-40761845D01*
X161482142Y-40511845D02*
X161505952Y-40511845D01*
X161505952Y-40511845D02*
X161529761Y-40523750D01*
X161529761Y-40523750D02*
X161541666Y-40535654D01*
X161541666Y-40535654D02*
X161553571Y-40559464D01*
X161553571Y-40559464D02*
X161565476Y-40607083D01*
X161565476Y-40607083D02*
X161565476Y-40666607D01*
X161565476Y-40666607D02*
X161553571Y-40714226D01*
X161553571Y-40714226D02*
X161541666Y-40738035D01*
X161541666Y-40738035D02*
X161529761Y-40749940D01*
X161529761Y-40749940D02*
X161505952Y-40761845D01*
X161505952Y-40761845D02*
X161482142Y-40761845D01*
X161482142Y-40761845D02*
X161458333Y-40749940D01*
X161458333Y-40749940D02*
X161446428Y-40738035D01*
X161446428Y-40738035D02*
X161434523Y-40714226D01*
X161434523Y-40714226D02*
X161422619Y-40666607D01*
X161422619Y-40666607D02*
X161422619Y-40607083D01*
X161422619Y-40607083D02*
X161434523Y-40559464D01*
X161434523Y-40559464D02*
X161446428Y-40535654D01*
X161446428Y-40535654D02*
X161458333Y-40523750D01*
X161458333Y-40523750D02*
X161482142Y-40511845D01*
X158091685Y-45310435D02*
X158079781Y-45322340D01*
X158079781Y-45322340D02*
X158044066Y-45334245D01*
X158044066Y-45334245D02*
X158020257Y-45334245D01*
X158020257Y-45334245D02*
X157984543Y-45322340D01*
X157984543Y-45322340D02*
X157960733Y-45298530D01*
X157960733Y-45298530D02*
X157948828Y-45274721D01*
X157948828Y-45274721D02*
X157936924Y-45227102D01*
X157936924Y-45227102D02*
X157936924Y-45191388D01*
X157936924Y-45191388D02*
X157948828Y-45143769D01*
X157948828Y-45143769D02*
X157960733Y-45119959D01*
X157960733Y-45119959D02*
X157984543Y-45096150D01*
X157984543Y-45096150D02*
X158020257Y-45084245D01*
X158020257Y-45084245D02*
X158044066Y-45084245D01*
X158044066Y-45084245D02*
X158079781Y-45096150D01*
X158079781Y-45096150D02*
X158091685Y-45108054D01*
X158186924Y-45108054D02*
X158198828Y-45096150D01*
X158198828Y-45096150D02*
X158222638Y-45084245D01*
X158222638Y-45084245D02*
X158282162Y-45084245D01*
X158282162Y-45084245D02*
X158305971Y-45096150D01*
X158305971Y-45096150D02*
X158317876Y-45108054D01*
X158317876Y-45108054D02*
X158329781Y-45131864D01*
X158329781Y-45131864D02*
X158329781Y-45155673D01*
X158329781Y-45155673D02*
X158317876Y-45191388D01*
X158317876Y-45191388D02*
X158175019Y-45334245D01*
X158175019Y-45334245D02*
X158329781Y-45334245D01*
X158567876Y-45334245D02*
X158425019Y-45334245D01*
X158496447Y-45334245D02*
X158496447Y-45084245D01*
X158496447Y-45084245D02*
X158472638Y-45119959D01*
X158472638Y-45119959D02*
X158448828Y-45143769D01*
X158448828Y-45143769D02*
X158425019Y-45155673D01*
X203239285Y-58613035D02*
X203227381Y-58624940D01*
X203227381Y-58624940D02*
X203191666Y-58636845D01*
X203191666Y-58636845D02*
X203167857Y-58636845D01*
X203167857Y-58636845D02*
X203132143Y-58624940D01*
X203132143Y-58624940D02*
X203108333Y-58601130D01*
X203108333Y-58601130D02*
X203096428Y-58577321D01*
X203096428Y-58577321D02*
X203084524Y-58529702D01*
X203084524Y-58529702D02*
X203084524Y-58493988D01*
X203084524Y-58493988D02*
X203096428Y-58446369D01*
X203096428Y-58446369D02*
X203108333Y-58422559D01*
X203108333Y-58422559D02*
X203132143Y-58398750D01*
X203132143Y-58398750D02*
X203167857Y-58386845D01*
X203167857Y-58386845D02*
X203191666Y-58386845D01*
X203191666Y-58386845D02*
X203227381Y-58398750D01*
X203227381Y-58398750D02*
X203239285Y-58410654D01*
X203334524Y-58410654D02*
X203346428Y-58398750D01*
X203346428Y-58398750D02*
X203370238Y-58386845D01*
X203370238Y-58386845D02*
X203429762Y-58386845D01*
X203429762Y-58386845D02*
X203453571Y-58398750D01*
X203453571Y-58398750D02*
X203465476Y-58410654D01*
X203465476Y-58410654D02*
X203477381Y-58434464D01*
X203477381Y-58434464D02*
X203477381Y-58458273D01*
X203477381Y-58458273D02*
X203465476Y-58493988D01*
X203465476Y-58493988D02*
X203322619Y-58636845D01*
X203322619Y-58636845D02*
X203477381Y-58636845D01*
X203596428Y-58636845D02*
X203644047Y-58636845D01*
X203644047Y-58636845D02*
X203667857Y-58624940D01*
X203667857Y-58624940D02*
X203679761Y-58613035D01*
X203679761Y-58613035D02*
X203703571Y-58577321D01*
X203703571Y-58577321D02*
X203715476Y-58529702D01*
X203715476Y-58529702D02*
X203715476Y-58434464D01*
X203715476Y-58434464D02*
X203703571Y-58410654D01*
X203703571Y-58410654D02*
X203691666Y-58398750D01*
X203691666Y-58398750D02*
X203667857Y-58386845D01*
X203667857Y-58386845D02*
X203620238Y-58386845D01*
X203620238Y-58386845D02*
X203596428Y-58398750D01*
X203596428Y-58398750D02*
X203584523Y-58410654D01*
X203584523Y-58410654D02*
X203572619Y-58434464D01*
X203572619Y-58434464D02*
X203572619Y-58493988D01*
X203572619Y-58493988D02*
X203584523Y-58517797D01*
X203584523Y-58517797D02*
X203596428Y-58529702D01*
X203596428Y-58529702D02*
X203620238Y-58541607D01*
X203620238Y-58541607D02*
X203667857Y-58541607D01*
X203667857Y-58541607D02*
X203691666Y-58529702D01*
X203691666Y-58529702D02*
X203703571Y-58517797D01*
X203703571Y-58517797D02*
X203715476Y-58493988D01*
X188870519Y-49962142D02*
X188746709Y-50048809D01*
X188870519Y-50110714D02*
X188610519Y-50110714D01*
X188610519Y-50110714D02*
X188610519Y-50011666D01*
X188610519Y-50011666D02*
X188622900Y-49986904D01*
X188622900Y-49986904D02*
X188635280Y-49974523D01*
X188635280Y-49974523D02*
X188660042Y-49962142D01*
X188660042Y-49962142D02*
X188697185Y-49962142D01*
X188697185Y-49962142D02*
X188721947Y-49974523D01*
X188721947Y-49974523D02*
X188734328Y-49986904D01*
X188734328Y-49986904D02*
X188746709Y-50011666D01*
X188746709Y-50011666D02*
X188746709Y-50110714D01*
X188610519Y-49875476D02*
X188610519Y-49714523D01*
X188610519Y-49714523D02*
X188709566Y-49801190D01*
X188709566Y-49801190D02*
X188709566Y-49764047D01*
X188709566Y-49764047D02*
X188721947Y-49739285D01*
X188721947Y-49739285D02*
X188734328Y-49726904D01*
X188734328Y-49726904D02*
X188759090Y-49714523D01*
X188759090Y-49714523D02*
X188820995Y-49714523D01*
X188820995Y-49714523D02*
X188845757Y-49726904D01*
X188845757Y-49726904D02*
X188858138Y-49739285D01*
X188858138Y-49739285D02*
X188870519Y-49764047D01*
X188870519Y-49764047D02*
X188870519Y-49838333D01*
X188870519Y-49838333D02*
X188858138Y-49863095D01*
X188858138Y-49863095D02*
X188845757Y-49875476D01*
X188610519Y-49553571D02*
X188610519Y-49528809D01*
X188610519Y-49528809D02*
X188622900Y-49504047D01*
X188622900Y-49504047D02*
X188635280Y-49491666D01*
X188635280Y-49491666D02*
X188660042Y-49479285D01*
X188660042Y-49479285D02*
X188709566Y-49466904D01*
X188709566Y-49466904D02*
X188771471Y-49466904D01*
X188771471Y-49466904D02*
X188820995Y-49479285D01*
X188820995Y-49479285D02*
X188845757Y-49491666D01*
X188845757Y-49491666D02*
X188858138Y-49504047D01*
X188858138Y-49504047D02*
X188870519Y-49528809D01*
X188870519Y-49528809D02*
X188870519Y-49553571D01*
X188870519Y-49553571D02*
X188858138Y-49578333D01*
X188858138Y-49578333D02*
X188845757Y-49590714D01*
X188845757Y-49590714D02*
X188820995Y-49603095D01*
X188820995Y-49603095D02*
X188771471Y-49615476D01*
X188771471Y-49615476D02*
X188709566Y-49615476D01*
X188709566Y-49615476D02*
X188660042Y-49603095D01*
X188660042Y-49603095D02*
X188635280Y-49590714D01*
X188635280Y-49590714D02*
X188622900Y-49578333D01*
X188622900Y-49578333D02*
X188610519Y-49553571D01*
D14*
X217408857Y-35077142D02*
X217427904Y-35096190D01*
X217427904Y-35096190D02*
X217446952Y-35153332D01*
X217446952Y-35153332D02*
X217446952Y-35191428D01*
X217446952Y-35191428D02*
X217427904Y-35248571D01*
X217427904Y-35248571D02*
X217389809Y-35286666D01*
X217389809Y-35286666D02*
X217351714Y-35305713D01*
X217351714Y-35305713D02*
X217275523Y-35324761D01*
X217275523Y-35324761D02*
X217218380Y-35324761D01*
X217218380Y-35324761D02*
X217142190Y-35305713D01*
X217142190Y-35305713D02*
X217104095Y-35286666D01*
X217104095Y-35286666D02*
X217066000Y-35248571D01*
X217066000Y-35248571D02*
X217046952Y-35191428D01*
X217046952Y-35191428D02*
X217046952Y-35153332D01*
X217046952Y-35153332D02*
X217066000Y-35096190D01*
X217066000Y-35096190D02*
X217085047Y-35077142D01*
X217085047Y-34924761D02*
X217066000Y-34905713D01*
X217066000Y-34905713D02*
X217046952Y-34867618D01*
X217046952Y-34867618D02*
X217046952Y-34772380D01*
X217046952Y-34772380D02*
X217066000Y-34734285D01*
X217066000Y-34734285D02*
X217085047Y-34715237D01*
X217085047Y-34715237D02*
X217123142Y-34696190D01*
X217123142Y-34696190D02*
X217161238Y-34696190D01*
X217161238Y-34696190D02*
X217218380Y-34715237D01*
X217218380Y-34715237D02*
X217446952Y-34943809D01*
X217446952Y-34943809D02*
X217446952Y-34696190D01*
X217046952Y-34562857D02*
X217046952Y-34296190D01*
X217046952Y-34296190D02*
X217446952Y-34467619D01*
D13*
X203239285Y-57613035D02*
X203227381Y-57624940D01*
X203227381Y-57624940D02*
X203191666Y-57636845D01*
X203191666Y-57636845D02*
X203167857Y-57636845D01*
X203167857Y-57636845D02*
X203132143Y-57624940D01*
X203132143Y-57624940D02*
X203108333Y-57601130D01*
X203108333Y-57601130D02*
X203096428Y-57577321D01*
X203096428Y-57577321D02*
X203084524Y-57529702D01*
X203084524Y-57529702D02*
X203084524Y-57493988D01*
X203084524Y-57493988D02*
X203096428Y-57446369D01*
X203096428Y-57446369D02*
X203108333Y-57422559D01*
X203108333Y-57422559D02*
X203132143Y-57398750D01*
X203132143Y-57398750D02*
X203167857Y-57386845D01*
X203167857Y-57386845D02*
X203191666Y-57386845D01*
X203191666Y-57386845D02*
X203227381Y-57398750D01*
X203227381Y-57398750D02*
X203239285Y-57410654D01*
X203453571Y-57470178D02*
X203453571Y-57636845D01*
X203394047Y-57374940D02*
X203334524Y-57553511D01*
X203334524Y-57553511D02*
X203489285Y-57553511D01*
X203715476Y-57636845D02*
X203572619Y-57636845D01*
X203644047Y-57636845D02*
X203644047Y-57386845D01*
X203644047Y-57386845D02*
X203620238Y-57422559D01*
X203620238Y-57422559D02*
X203596428Y-57446369D01*
X203596428Y-57446369D02*
X203572619Y-57458273D01*
D12*
X194763690Y-66437380D02*
X194763690Y-67246904D01*
X194763690Y-67246904D02*
X194811309Y-67342142D01*
X194811309Y-67342142D02*
X194858928Y-67389761D01*
X194858928Y-67389761D02*
X194954166Y-67437380D01*
X194954166Y-67437380D02*
X195144642Y-67437380D01*
X195144642Y-67437380D02*
X195239880Y-67389761D01*
X195239880Y-67389761D02*
X195287499Y-67342142D01*
X195287499Y-67342142D02*
X195335118Y-67246904D01*
X195335118Y-67246904D02*
X195335118Y-66437380D01*
X195763690Y-67389761D02*
X195906547Y-67437380D01*
X195906547Y-67437380D02*
X196144642Y-67437380D01*
X196144642Y-67437380D02*
X196239880Y-67389761D01*
X196239880Y-67389761D02*
X196287499Y-67342142D01*
X196287499Y-67342142D02*
X196335118Y-67246904D01*
X196335118Y-67246904D02*
X196335118Y-67151666D01*
X196335118Y-67151666D02*
X196287499Y-67056428D01*
X196287499Y-67056428D02*
X196239880Y-67008809D01*
X196239880Y-67008809D02*
X196144642Y-66961190D01*
X196144642Y-66961190D02*
X195954166Y-66913571D01*
X195954166Y-66913571D02*
X195858928Y-66865952D01*
X195858928Y-66865952D02*
X195811309Y-66818333D01*
X195811309Y-66818333D02*
X195763690Y-66723095D01*
X195763690Y-66723095D02*
X195763690Y-66627857D01*
X195763690Y-66627857D02*
X195811309Y-66532619D01*
X195811309Y-66532619D02*
X195858928Y-66485000D01*
X195858928Y-66485000D02*
X195954166Y-66437380D01*
X195954166Y-66437380D02*
X196192261Y-66437380D01*
X196192261Y-66437380D02*
X196335118Y-66485000D01*
X197097023Y-66913571D02*
X197239880Y-66961190D01*
X197239880Y-66961190D02*
X197287499Y-67008809D01*
X197287499Y-67008809D02*
X197335118Y-67104047D01*
X197335118Y-67104047D02*
X197335118Y-67246904D01*
X197335118Y-67246904D02*
X197287499Y-67342142D01*
X197287499Y-67342142D02*
X197239880Y-67389761D01*
X197239880Y-67389761D02*
X197144642Y-67437380D01*
X197144642Y-67437380D02*
X196763690Y-67437380D01*
X196763690Y-67437380D02*
X196763690Y-66437380D01*
X196763690Y-66437380D02*
X197097023Y-66437380D01*
X197097023Y-66437380D02*
X197192261Y-66485000D01*
X197192261Y-66485000D02*
X197239880Y-66532619D01*
X197239880Y-66532619D02*
X197287499Y-66627857D01*
X197287499Y-66627857D02*
X197287499Y-66723095D01*
X197287499Y-66723095D02*
X197239880Y-66818333D01*
X197239880Y-66818333D02*
X197192261Y-66865952D01*
X197192261Y-66865952D02*
X197097023Y-66913571D01*
X197097023Y-66913571D02*
X196763690Y-66913571D01*
X197525595Y-67532619D02*
X198287499Y-67532619D01*
X198858928Y-66913571D02*
X199001785Y-66961190D01*
X199001785Y-66961190D02*
X199049404Y-67008809D01*
X199049404Y-67008809D02*
X199097023Y-67104047D01*
X199097023Y-67104047D02*
X199097023Y-67246904D01*
X199097023Y-67246904D02*
X199049404Y-67342142D01*
X199049404Y-67342142D02*
X199001785Y-67389761D01*
X199001785Y-67389761D02*
X198906547Y-67437380D01*
X198906547Y-67437380D02*
X198525595Y-67437380D01*
X198525595Y-67437380D02*
X198525595Y-66437380D01*
X198525595Y-66437380D02*
X198858928Y-66437380D01*
X198858928Y-66437380D02*
X198954166Y-66485000D01*
X198954166Y-66485000D02*
X199001785Y-66532619D01*
X199001785Y-66532619D02*
X199049404Y-66627857D01*
X199049404Y-66627857D02*
X199049404Y-66723095D01*
X199049404Y-66723095D02*
X199001785Y-66818333D01*
X199001785Y-66818333D02*
X198954166Y-66865952D01*
X198954166Y-66865952D02*
X198858928Y-66913571D01*
X198858928Y-66913571D02*
X198525595Y-66913571D01*
X199287500Y-67532619D02*
X200049404Y-67532619D01*
X200287500Y-67437380D02*
X200287500Y-66437380D01*
X200287500Y-66437380D02*
X200620833Y-67151666D01*
X200620833Y-67151666D02*
X200954166Y-66437380D01*
X200954166Y-66437380D02*
X200954166Y-67437380D01*
X201430357Y-67437380D02*
X201430357Y-66770714D01*
X201430357Y-66437380D02*
X201382738Y-66485000D01*
X201382738Y-66485000D02*
X201430357Y-66532619D01*
X201430357Y-66532619D02*
X201477976Y-66485000D01*
X201477976Y-66485000D02*
X201430357Y-66437380D01*
X201430357Y-66437380D02*
X201430357Y-66532619D01*
X202335118Y-67389761D02*
X202239880Y-67437380D01*
X202239880Y-67437380D02*
X202049404Y-67437380D01*
X202049404Y-67437380D02*
X201954166Y-67389761D01*
X201954166Y-67389761D02*
X201906547Y-67342142D01*
X201906547Y-67342142D02*
X201858928Y-67246904D01*
X201858928Y-67246904D02*
X201858928Y-66961190D01*
X201858928Y-66961190D02*
X201906547Y-66865952D01*
X201906547Y-66865952D02*
X201954166Y-66818333D01*
X201954166Y-66818333D02*
X202049404Y-66770714D01*
X202049404Y-66770714D02*
X202239880Y-66770714D01*
X202239880Y-66770714D02*
X202335118Y-66818333D01*
X202763690Y-67437380D02*
X202763690Y-66770714D01*
X202763690Y-66961190D02*
X202811309Y-66865952D01*
X202811309Y-66865952D02*
X202858928Y-66818333D01*
X202858928Y-66818333D02*
X202954166Y-66770714D01*
X202954166Y-66770714D02*
X203049404Y-66770714D01*
X203525595Y-67437380D02*
X203430357Y-67389761D01*
X203430357Y-67389761D02*
X203382738Y-67342142D01*
X203382738Y-67342142D02*
X203335119Y-67246904D01*
X203335119Y-67246904D02*
X203335119Y-66961190D01*
X203335119Y-66961190D02*
X203382738Y-66865952D01*
X203382738Y-66865952D02*
X203430357Y-66818333D01*
X203430357Y-66818333D02*
X203525595Y-66770714D01*
X203525595Y-66770714D02*
X203668452Y-66770714D01*
X203668452Y-66770714D02*
X203763690Y-66818333D01*
X203763690Y-66818333D02*
X203811309Y-66865952D01*
X203811309Y-66865952D02*
X203858928Y-66961190D01*
X203858928Y-66961190D02*
X203858928Y-67246904D01*
X203858928Y-67246904D02*
X203811309Y-67342142D01*
X203811309Y-67342142D02*
X203763690Y-67389761D01*
X203763690Y-67389761D02*
X203668452Y-67437380D01*
X203668452Y-67437380D02*
X203525595Y-67437380D01*
X198477976Y-63037380D02*
X198477976Y-63751666D01*
X198477976Y-63751666D02*
X198430357Y-63894523D01*
X198430357Y-63894523D02*
X198335119Y-63989761D01*
X198335119Y-63989761D02*
X198192262Y-64037380D01*
X198192262Y-64037380D02*
X198097024Y-64037380D01*
X199477976Y-64037380D02*
X198906548Y-64037380D01*
X199192262Y-64037380D02*
X199192262Y-63037380D01*
X199192262Y-63037380D02*
X199097024Y-63180238D01*
X199097024Y-63180238D02*
X199001786Y-63275476D01*
X199001786Y-63275476D02*
X198906548Y-63323095D01*
X200430357Y-64037380D02*
X199858929Y-64037380D01*
X200144643Y-64037380D02*
X200144643Y-63037380D01*
X200144643Y-63037380D02*
X200049405Y-63180238D01*
X200049405Y-63180238D02*
X199954167Y-63275476D01*
X199954167Y-63275476D02*
X199858929Y-63323095D01*
X174764266Y-35186380D02*
X174764266Y-35900666D01*
X174764266Y-35900666D02*
X174716647Y-36043523D01*
X174716647Y-36043523D02*
X174621409Y-36138761D01*
X174621409Y-36138761D02*
X174478552Y-36186380D01*
X174478552Y-36186380D02*
X174383314Y-36186380D01*
X175145219Y-35186380D02*
X175811885Y-35186380D01*
X175811885Y-35186380D02*
X175383314Y-36186380D01*
D13*
X200905519Y-32743332D02*
X200781709Y-32829999D01*
X200905519Y-32891904D02*
X200645519Y-32891904D01*
X200645519Y-32891904D02*
X200645519Y-32792856D01*
X200645519Y-32792856D02*
X200657900Y-32768094D01*
X200657900Y-32768094D02*
X200670280Y-32755713D01*
X200670280Y-32755713D02*
X200695042Y-32743332D01*
X200695042Y-32743332D02*
X200732185Y-32743332D01*
X200732185Y-32743332D02*
X200756947Y-32755713D01*
X200756947Y-32755713D02*
X200769328Y-32768094D01*
X200769328Y-32768094D02*
X200781709Y-32792856D01*
X200781709Y-32792856D02*
X200781709Y-32891904D01*
X200645519Y-32656666D02*
X200645519Y-32495713D01*
X200645519Y-32495713D02*
X200744566Y-32582380D01*
X200744566Y-32582380D02*
X200744566Y-32545237D01*
X200744566Y-32545237D02*
X200756947Y-32520475D01*
X200756947Y-32520475D02*
X200769328Y-32508094D01*
X200769328Y-32508094D02*
X200794090Y-32495713D01*
X200794090Y-32495713D02*
X200855995Y-32495713D01*
X200855995Y-32495713D02*
X200880757Y-32508094D01*
X200880757Y-32508094D02*
X200893138Y-32520475D01*
X200893138Y-32520475D02*
X200905519Y-32545237D01*
X200905519Y-32545237D02*
X200905519Y-32619523D01*
X200905519Y-32619523D02*
X200893138Y-32644285D01*
X200893138Y-32644285D02*
X200880757Y-32656666D01*
D12*
X170466666Y-61754880D02*
X170466666Y-62469166D01*
X170466666Y-62469166D02*
X170419047Y-62612023D01*
X170419047Y-62612023D02*
X170323809Y-62707261D01*
X170323809Y-62707261D02*
X170180952Y-62754880D01*
X170180952Y-62754880D02*
X170085714Y-62754880D01*
X171419047Y-61754880D02*
X170942857Y-61754880D01*
X170942857Y-61754880D02*
X170895238Y-62231071D01*
X170895238Y-62231071D02*
X170942857Y-62183452D01*
X170942857Y-62183452D02*
X171038095Y-62135833D01*
X171038095Y-62135833D02*
X171276190Y-62135833D01*
X171276190Y-62135833D02*
X171371428Y-62183452D01*
X171371428Y-62183452D02*
X171419047Y-62231071D01*
X171419047Y-62231071D02*
X171466666Y-62326309D01*
X171466666Y-62326309D02*
X171466666Y-62564404D01*
X171466666Y-62564404D02*
X171419047Y-62659642D01*
X171419047Y-62659642D02*
X171371428Y-62707261D01*
X171371428Y-62707261D02*
X171276190Y-62754880D01*
X171276190Y-62754880D02*
X171038095Y-62754880D01*
X171038095Y-62754880D02*
X170942857Y-62707261D01*
X170942857Y-62707261D02*
X170895238Y-62659642D01*
D15*
X215542714Y-35834285D02*
X215580809Y-35872381D01*
X215580809Y-35872381D02*
X215618904Y-35986666D01*
X215618904Y-35986666D02*
X215618904Y-36062857D01*
X215618904Y-36062857D02*
X215580809Y-36177143D01*
X215580809Y-36177143D02*
X215504619Y-36253333D01*
X215504619Y-36253333D02*
X215428428Y-36291428D01*
X215428428Y-36291428D02*
X215276047Y-36329524D01*
X215276047Y-36329524D02*
X215161761Y-36329524D01*
X215161761Y-36329524D02*
X215009380Y-36291428D01*
X215009380Y-36291428D02*
X214933190Y-36253333D01*
X214933190Y-36253333D02*
X214857000Y-36177143D01*
X214857000Y-36177143D02*
X214818904Y-36062857D01*
X214818904Y-36062857D02*
X214818904Y-35986666D01*
X214818904Y-35986666D02*
X214857000Y-35872381D01*
X214857000Y-35872381D02*
X214895095Y-35834285D01*
X215085571Y-35148571D02*
X215618904Y-35148571D01*
X214780809Y-35339047D02*
X215352238Y-35529524D01*
X215352238Y-35529524D02*
X215352238Y-35034285D01*
X214818904Y-34577142D02*
X214818904Y-34500952D01*
X214818904Y-34500952D02*
X214857000Y-34424761D01*
X214857000Y-34424761D02*
X214895095Y-34386666D01*
X214895095Y-34386666D02*
X214971285Y-34348571D01*
X214971285Y-34348571D02*
X215123666Y-34310476D01*
X215123666Y-34310476D02*
X215314142Y-34310476D01*
X215314142Y-34310476D02*
X215466523Y-34348571D01*
X215466523Y-34348571D02*
X215542714Y-34386666D01*
X215542714Y-34386666D02*
X215580809Y-34424761D01*
X215580809Y-34424761D02*
X215618904Y-34500952D01*
X215618904Y-34500952D02*
X215618904Y-34577142D01*
X215618904Y-34577142D02*
X215580809Y-34653333D01*
X215580809Y-34653333D02*
X215542714Y-34691428D01*
X215542714Y-34691428D02*
X215466523Y-34729523D01*
X215466523Y-34729523D02*
X215314142Y-34767619D01*
X215314142Y-34767619D02*
X215123666Y-34767619D01*
X215123666Y-34767619D02*
X214971285Y-34729523D01*
X214971285Y-34729523D02*
X214895095Y-34691428D01*
X214895095Y-34691428D02*
X214857000Y-34653333D01*
X214857000Y-34653333D02*
X214818904Y-34577142D01*
D12*
X159216666Y-61754880D02*
X159216666Y-62469166D01*
X159216666Y-62469166D02*
X159169047Y-62612023D01*
X159169047Y-62612023D02*
X159073809Y-62707261D01*
X159073809Y-62707261D02*
X158930952Y-62754880D01*
X158930952Y-62754880D02*
X158835714Y-62754880D01*
X160121428Y-62088214D02*
X160121428Y-62754880D01*
X159883333Y-61707261D02*
X159645238Y-62421547D01*
X159645238Y-62421547D02*
X160264285Y-62421547D01*
D13*
X204982857Y-46165519D02*
X204896190Y-46041709D01*
X204834285Y-46165519D02*
X204834285Y-45905519D01*
X204834285Y-45905519D02*
X204933333Y-45905519D01*
X204933333Y-45905519D02*
X204958095Y-45917900D01*
X204958095Y-45917900D02*
X204970476Y-45930280D01*
X204970476Y-45930280D02*
X204982857Y-45955042D01*
X204982857Y-45955042D02*
X204982857Y-45992185D01*
X204982857Y-45992185D02*
X204970476Y-46016947D01*
X204970476Y-46016947D02*
X204958095Y-46029328D01*
X204958095Y-46029328D02*
X204933333Y-46041709D01*
X204933333Y-46041709D02*
X204834285Y-46041709D01*
X205081904Y-45930280D02*
X205094285Y-45917900D01*
X205094285Y-45917900D02*
X205119047Y-45905519D01*
X205119047Y-45905519D02*
X205180952Y-45905519D01*
X205180952Y-45905519D02*
X205205714Y-45917900D01*
X205205714Y-45917900D02*
X205218095Y-45930280D01*
X205218095Y-45930280D02*
X205230476Y-45955042D01*
X205230476Y-45955042D02*
X205230476Y-45979804D01*
X205230476Y-45979804D02*
X205218095Y-46016947D01*
X205218095Y-46016947D02*
X205069523Y-46165519D01*
X205069523Y-46165519D02*
X205230476Y-46165519D01*
X205317142Y-45905519D02*
X205490476Y-45905519D01*
X205490476Y-45905519D02*
X205379047Y-46165519D01*
X203018035Y-42030714D02*
X203029940Y-42042618D01*
X203029940Y-42042618D02*
X203041845Y-42078333D01*
X203041845Y-42078333D02*
X203041845Y-42102142D01*
X203041845Y-42102142D02*
X203029940Y-42137856D01*
X203029940Y-42137856D02*
X203006130Y-42161666D01*
X203006130Y-42161666D02*
X202982321Y-42173571D01*
X202982321Y-42173571D02*
X202934702Y-42185475D01*
X202934702Y-42185475D02*
X202898988Y-42185475D01*
X202898988Y-42185475D02*
X202851369Y-42173571D01*
X202851369Y-42173571D02*
X202827559Y-42161666D01*
X202827559Y-42161666D02*
X202803750Y-42137856D01*
X202803750Y-42137856D02*
X202791845Y-42102142D01*
X202791845Y-42102142D02*
X202791845Y-42078333D01*
X202791845Y-42078333D02*
X202803750Y-42042618D01*
X202803750Y-42042618D02*
X202815654Y-42030714D01*
X203041845Y-41792618D02*
X203041845Y-41935475D01*
X203041845Y-41864047D02*
X202791845Y-41864047D01*
X202791845Y-41864047D02*
X202827559Y-41887856D01*
X202827559Y-41887856D02*
X202851369Y-41911666D01*
X202851369Y-41911666D02*
X202863273Y-41935475D01*
X202815654Y-41697380D02*
X202803750Y-41685476D01*
X202803750Y-41685476D02*
X202791845Y-41661666D01*
X202791845Y-41661666D02*
X202791845Y-41602142D01*
X202791845Y-41602142D02*
X202803750Y-41578333D01*
X202803750Y-41578333D02*
X202815654Y-41566428D01*
X202815654Y-41566428D02*
X202839464Y-41554523D01*
X202839464Y-41554523D02*
X202863273Y-41554523D01*
X202863273Y-41554523D02*
X202898988Y-41566428D01*
X202898988Y-41566428D02*
X203041845Y-41709285D01*
X203041845Y-41709285D02*
X203041845Y-41554523D01*
D12*
X195739666Y-35186380D02*
X195739666Y-35900666D01*
X195739666Y-35900666D02*
X195692047Y-36043523D01*
X195692047Y-36043523D02*
X195596809Y-36138761D01*
X195596809Y-36138761D02*
X195453952Y-36186380D01*
X195453952Y-36186380D02*
X195358714Y-36186380D01*
X196644428Y-35186380D02*
X196453952Y-35186380D01*
X196453952Y-35186380D02*
X196358714Y-35234000D01*
X196358714Y-35234000D02*
X196311095Y-35281619D01*
X196311095Y-35281619D02*
X196215857Y-35424476D01*
X196215857Y-35424476D02*
X196168238Y-35614952D01*
X196168238Y-35614952D02*
X196168238Y-35995904D01*
X196168238Y-35995904D02*
X196215857Y-36091142D01*
X196215857Y-36091142D02*
X196263476Y-36138761D01*
X196263476Y-36138761D02*
X196358714Y-36186380D01*
X196358714Y-36186380D02*
X196549190Y-36186380D01*
X196549190Y-36186380D02*
X196644428Y-36138761D01*
X196644428Y-36138761D02*
X196692047Y-36091142D01*
X196692047Y-36091142D02*
X196739666Y-35995904D01*
X196739666Y-35995904D02*
X196739666Y-35757809D01*
X196739666Y-35757809D02*
X196692047Y-35662571D01*
X196692047Y-35662571D02*
X196644428Y-35614952D01*
X196644428Y-35614952D02*
X196549190Y-35567333D01*
X196549190Y-35567333D02*
X196358714Y-35567333D01*
X196358714Y-35567333D02*
X196263476Y-35614952D01*
X196263476Y-35614952D02*
X196215857Y-35662571D01*
X196215857Y-35662571D02*
X196168238Y-35757809D01*
D13*
X200868035Y-31026714D02*
X200879940Y-31038618D01*
X200879940Y-31038618D02*
X200891845Y-31074333D01*
X200891845Y-31074333D02*
X200891845Y-31098142D01*
X200891845Y-31098142D02*
X200879940Y-31133856D01*
X200879940Y-31133856D02*
X200856130Y-31157666D01*
X200856130Y-31157666D02*
X200832321Y-31169571D01*
X200832321Y-31169571D02*
X200784702Y-31181475D01*
X200784702Y-31181475D02*
X200748988Y-31181475D01*
X200748988Y-31181475D02*
X200701369Y-31169571D01*
X200701369Y-31169571D02*
X200677559Y-31157666D01*
X200677559Y-31157666D02*
X200653750Y-31133856D01*
X200653750Y-31133856D02*
X200641845Y-31098142D01*
X200641845Y-31098142D02*
X200641845Y-31074333D01*
X200641845Y-31074333D02*
X200653750Y-31038618D01*
X200653750Y-31038618D02*
X200665654Y-31026714D01*
X200665654Y-30931475D02*
X200653750Y-30919571D01*
X200653750Y-30919571D02*
X200641845Y-30895761D01*
X200641845Y-30895761D02*
X200641845Y-30836237D01*
X200641845Y-30836237D02*
X200653750Y-30812428D01*
X200653750Y-30812428D02*
X200665654Y-30800523D01*
X200665654Y-30800523D02*
X200689464Y-30788618D01*
X200689464Y-30788618D02*
X200713273Y-30788618D01*
X200713273Y-30788618D02*
X200748988Y-30800523D01*
X200748988Y-30800523D02*
X200891845Y-30943380D01*
X200891845Y-30943380D02*
X200891845Y-30788618D01*
X200665654Y-30693380D02*
X200653750Y-30681476D01*
X200653750Y-30681476D02*
X200641845Y-30657666D01*
X200641845Y-30657666D02*
X200641845Y-30598142D01*
X200641845Y-30598142D02*
X200653750Y-30574333D01*
X200653750Y-30574333D02*
X200665654Y-30562428D01*
X200665654Y-30562428D02*
X200689464Y-30550523D01*
X200689464Y-30550523D02*
X200713273Y-30550523D01*
X200713273Y-30550523D02*
X200748988Y-30562428D01*
X200748988Y-30562428D02*
X200891845Y-30705285D01*
X200891845Y-30705285D02*
X200891845Y-30550523D01*
D12*
X194054880Y-48181904D02*
X194864404Y-48181904D01*
X194864404Y-48181904D02*
X194959642Y-48134285D01*
X194959642Y-48134285D02*
X195007261Y-48086666D01*
X195007261Y-48086666D02*
X195054880Y-47991428D01*
X195054880Y-47991428D02*
X195054880Y-47800952D01*
X195054880Y-47800952D02*
X195007261Y-47705714D01*
X195007261Y-47705714D02*
X194959642Y-47658095D01*
X194959642Y-47658095D02*
X194864404Y-47610476D01*
X194864404Y-47610476D02*
X194054880Y-47610476D01*
X194054880Y-47229523D02*
X194054880Y-46610476D01*
X194054880Y-46610476D02*
X194435833Y-46943809D01*
X194435833Y-46943809D02*
X194435833Y-46800952D01*
X194435833Y-46800952D02*
X194483452Y-46705714D01*
X194483452Y-46705714D02*
X194531071Y-46658095D01*
X194531071Y-46658095D02*
X194626309Y-46610476D01*
X194626309Y-46610476D02*
X194864404Y-46610476D01*
X194864404Y-46610476D02*
X194959642Y-46658095D01*
X194959642Y-46658095D02*
X195007261Y-46705714D01*
X195007261Y-46705714D02*
X195054880Y-46800952D01*
X195054880Y-46800952D02*
X195054880Y-47086666D01*
X195054880Y-47086666D02*
X195007261Y-47181904D01*
X195007261Y-47181904D02*
X194959642Y-47229523D01*
D13*
X204982857Y-45065519D02*
X204896190Y-44941709D01*
X204834285Y-45065519D02*
X204834285Y-44805519D01*
X204834285Y-44805519D02*
X204933333Y-44805519D01*
X204933333Y-44805519D02*
X204958095Y-44817900D01*
X204958095Y-44817900D02*
X204970476Y-44830280D01*
X204970476Y-44830280D02*
X204982857Y-44855042D01*
X204982857Y-44855042D02*
X204982857Y-44892185D01*
X204982857Y-44892185D02*
X204970476Y-44916947D01*
X204970476Y-44916947D02*
X204958095Y-44929328D01*
X204958095Y-44929328D02*
X204933333Y-44941709D01*
X204933333Y-44941709D02*
X204834285Y-44941709D01*
X205081904Y-44830280D02*
X205094285Y-44817900D01*
X205094285Y-44817900D02*
X205119047Y-44805519D01*
X205119047Y-44805519D02*
X205180952Y-44805519D01*
X205180952Y-44805519D02*
X205205714Y-44817900D01*
X205205714Y-44817900D02*
X205218095Y-44830280D01*
X205218095Y-44830280D02*
X205230476Y-44855042D01*
X205230476Y-44855042D02*
X205230476Y-44879804D01*
X205230476Y-44879804D02*
X205218095Y-44916947D01*
X205218095Y-44916947D02*
X205069523Y-45065519D01*
X205069523Y-45065519D02*
X205230476Y-45065519D01*
X205354285Y-45065519D02*
X205403809Y-45065519D01*
X205403809Y-45065519D02*
X205428571Y-45053138D01*
X205428571Y-45053138D02*
X205440952Y-45040757D01*
X205440952Y-45040757D02*
X205465714Y-45003614D01*
X205465714Y-45003614D02*
X205478095Y-44954090D01*
X205478095Y-44954090D02*
X205478095Y-44855042D01*
X205478095Y-44855042D02*
X205465714Y-44830280D01*
X205465714Y-44830280D02*
X205453333Y-44817900D01*
X205453333Y-44817900D02*
X205428571Y-44805519D01*
X205428571Y-44805519D02*
X205379047Y-44805519D01*
X205379047Y-44805519D02*
X205354285Y-44817900D01*
X205354285Y-44817900D02*
X205341904Y-44830280D01*
X205341904Y-44830280D02*
X205329523Y-44855042D01*
X205329523Y-44855042D02*
X205329523Y-44916947D01*
X205329523Y-44916947D02*
X205341904Y-44941709D01*
X205341904Y-44941709D02*
X205354285Y-44954090D01*
X205354285Y-44954090D02*
X205379047Y-44966471D01*
X205379047Y-44966471D02*
X205428571Y-44966471D01*
X205428571Y-44966471D02*
X205453333Y-44954090D01*
X205453333Y-44954090D02*
X205465714Y-44941709D01*
X205465714Y-44941709D02*
X205478095Y-44916947D01*
D12*
X198692380Y-56681904D02*
X199501904Y-56681904D01*
X199501904Y-56681904D02*
X199597142Y-56634285D01*
X199597142Y-56634285D02*
X199644761Y-56586666D01*
X199644761Y-56586666D02*
X199692380Y-56491428D01*
X199692380Y-56491428D02*
X199692380Y-56300952D01*
X199692380Y-56300952D02*
X199644761Y-56205714D01*
X199644761Y-56205714D02*
X199597142Y-56158095D01*
X199597142Y-56158095D02*
X199501904Y-56110476D01*
X199501904Y-56110476D02*
X198692380Y-56110476D01*
X198787619Y-55681904D02*
X198740000Y-55634285D01*
X198740000Y-55634285D02*
X198692380Y-55539047D01*
X198692380Y-55539047D02*
X198692380Y-55300952D01*
X198692380Y-55300952D02*
X198740000Y-55205714D01*
X198740000Y-55205714D02*
X198787619Y-55158095D01*
X198787619Y-55158095D02*
X198882857Y-55110476D01*
X198882857Y-55110476D02*
X198978095Y-55110476D01*
X198978095Y-55110476D02*
X199120952Y-55158095D01*
X199120952Y-55158095D02*
X199692380Y-55729523D01*
X199692380Y-55729523D02*
X199692380Y-55110476D01*
D13*
X199255535Y-43370714D02*
X199267440Y-43382618D01*
X199267440Y-43382618D02*
X199279345Y-43418333D01*
X199279345Y-43418333D02*
X199279345Y-43442142D01*
X199279345Y-43442142D02*
X199267440Y-43477856D01*
X199267440Y-43477856D02*
X199243630Y-43501666D01*
X199243630Y-43501666D02*
X199219821Y-43513571D01*
X199219821Y-43513571D02*
X199172202Y-43525475D01*
X199172202Y-43525475D02*
X199136488Y-43525475D01*
X199136488Y-43525475D02*
X199088869Y-43513571D01*
X199088869Y-43513571D02*
X199065059Y-43501666D01*
X199065059Y-43501666D02*
X199041250Y-43477856D01*
X199041250Y-43477856D02*
X199029345Y-43442142D01*
X199029345Y-43442142D02*
X199029345Y-43418333D01*
X199029345Y-43418333D02*
X199041250Y-43382618D01*
X199041250Y-43382618D02*
X199053154Y-43370714D01*
X199029345Y-43287380D02*
X199029345Y-43132618D01*
X199029345Y-43132618D02*
X199124583Y-43215952D01*
X199124583Y-43215952D02*
X199124583Y-43180237D01*
X199124583Y-43180237D02*
X199136488Y-43156428D01*
X199136488Y-43156428D02*
X199148392Y-43144523D01*
X199148392Y-43144523D02*
X199172202Y-43132618D01*
X199172202Y-43132618D02*
X199231726Y-43132618D01*
X199231726Y-43132618D02*
X199255535Y-43144523D01*
X199255535Y-43144523D02*
X199267440Y-43156428D01*
X199267440Y-43156428D02*
X199279345Y-43180237D01*
X199279345Y-43180237D02*
X199279345Y-43251666D01*
X199279345Y-43251666D02*
X199267440Y-43275475D01*
X199267440Y-43275475D02*
X199255535Y-43287380D01*
X199053154Y-43037380D02*
X199041250Y-43025476D01*
X199041250Y-43025476D02*
X199029345Y-43001666D01*
X199029345Y-43001666D02*
X199029345Y-42942142D01*
X199029345Y-42942142D02*
X199041250Y-42918333D01*
X199041250Y-42918333D02*
X199053154Y-42906428D01*
X199053154Y-42906428D02*
X199076964Y-42894523D01*
X199076964Y-42894523D02*
X199100773Y-42894523D01*
X199100773Y-42894523D02*
X199136488Y-42906428D01*
X199136488Y-42906428D02*
X199279345Y-43049285D01*
X199279345Y-43049285D02*
X199279345Y-42894523D01*
X150518035Y-43130714D02*
X150529940Y-43142618D01*
X150529940Y-43142618D02*
X150541845Y-43178333D01*
X150541845Y-43178333D02*
X150541845Y-43202142D01*
X150541845Y-43202142D02*
X150529940Y-43237856D01*
X150529940Y-43237856D02*
X150506130Y-43261666D01*
X150506130Y-43261666D02*
X150482321Y-43273571D01*
X150482321Y-43273571D02*
X150434702Y-43285475D01*
X150434702Y-43285475D02*
X150398988Y-43285475D01*
X150398988Y-43285475D02*
X150351369Y-43273571D01*
X150351369Y-43273571D02*
X150327559Y-43261666D01*
X150327559Y-43261666D02*
X150303750Y-43237856D01*
X150303750Y-43237856D02*
X150291845Y-43202142D01*
X150291845Y-43202142D02*
X150291845Y-43178333D01*
X150291845Y-43178333D02*
X150303750Y-43142618D01*
X150303750Y-43142618D02*
X150315654Y-43130714D01*
X150541845Y-42892618D02*
X150541845Y-43035475D01*
X150541845Y-42964047D02*
X150291845Y-42964047D01*
X150291845Y-42964047D02*
X150327559Y-42987856D01*
X150327559Y-42987856D02*
X150351369Y-43011666D01*
X150351369Y-43011666D02*
X150363273Y-43035475D01*
X150398988Y-42749761D02*
X150387083Y-42773571D01*
X150387083Y-42773571D02*
X150375178Y-42785476D01*
X150375178Y-42785476D02*
X150351369Y-42797380D01*
X150351369Y-42797380D02*
X150339464Y-42797380D01*
X150339464Y-42797380D02*
X150315654Y-42785476D01*
X150315654Y-42785476D02*
X150303750Y-42773571D01*
X150303750Y-42773571D02*
X150291845Y-42749761D01*
X150291845Y-42749761D02*
X150291845Y-42702142D01*
X150291845Y-42702142D02*
X150303750Y-42678333D01*
X150303750Y-42678333D02*
X150315654Y-42666428D01*
X150315654Y-42666428D02*
X150339464Y-42654523D01*
X150339464Y-42654523D02*
X150351369Y-42654523D01*
X150351369Y-42654523D02*
X150375178Y-42666428D01*
X150375178Y-42666428D02*
X150387083Y-42678333D01*
X150387083Y-42678333D02*
X150398988Y-42702142D01*
X150398988Y-42702142D02*
X150398988Y-42749761D01*
X150398988Y-42749761D02*
X150410892Y-42773571D01*
X150410892Y-42773571D02*
X150422797Y-42785476D01*
X150422797Y-42785476D02*
X150446607Y-42797380D01*
X150446607Y-42797380D02*
X150494226Y-42797380D01*
X150494226Y-42797380D02*
X150518035Y-42785476D01*
X150518035Y-42785476D02*
X150529940Y-42773571D01*
X150529940Y-42773571D02*
X150541845Y-42749761D01*
X150541845Y-42749761D02*
X150541845Y-42702142D01*
X150541845Y-42702142D02*
X150529940Y-42678333D01*
X150529940Y-42678333D02*
X150518035Y-42666428D01*
X150518035Y-42666428D02*
X150494226Y-42654523D01*
X150494226Y-42654523D02*
X150446607Y-42654523D01*
X150446607Y-42654523D02*
X150422797Y-42666428D01*
X150422797Y-42666428D02*
X150410892Y-42678333D01*
X150410892Y-42678333D02*
X150398988Y-42702142D01*
D14*
X213479257Y-40427142D02*
X213498304Y-40446190D01*
X213498304Y-40446190D02*
X213517352Y-40503332D01*
X213517352Y-40503332D02*
X213517352Y-40541428D01*
X213517352Y-40541428D02*
X213498304Y-40598571D01*
X213498304Y-40598571D02*
X213460209Y-40636666D01*
X213460209Y-40636666D02*
X213422114Y-40655713D01*
X213422114Y-40655713D02*
X213345923Y-40674761D01*
X213345923Y-40674761D02*
X213288780Y-40674761D01*
X213288780Y-40674761D02*
X213212590Y-40655713D01*
X213212590Y-40655713D02*
X213174495Y-40636666D01*
X213174495Y-40636666D02*
X213136400Y-40598571D01*
X213136400Y-40598571D02*
X213117352Y-40541428D01*
X213117352Y-40541428D02*
X213117352Y-40503332D01*
X213117352Y-40503332D02*
X213136400Y-40446190D01*
X213136400Y-40446190D02*
X213155447Y-40427142D01*
X213117352Y-40293809D02*
X213117352Y-40046190D01*
X213117352Y-40046190D02*
X213269733Y-40179523D01*
X213269733Y-40179523D02*
X213269733Y-40122380D01*
X213269733Y-40122380D02*
X213288780Y-40084285D01*
X213288780Y-40084285D02*
X213307828Y-40065237D01*
X213307828Y-40065237D02*
X213345923Y-40046190D01*
X213345923Y-40046190D02*
X213441161Y-40046190D01*
X213441161Y-40046190D02*
X213479257Y-40065237D01*
X213479257Y-40065237D02*
X213498304Y-40084285D01*
X213498304Y-40084285D02*
X213517352Y-40122380D01*
X213517352Y-40122380D02*
X213517352Y-40236666D01*
X213517352Y-40236666D02*
X213498304Y-40274761D01*
X213498304Y-40274761D02*
X213479257Y-40293809D01*
X213288780Y-39817619D02*
X213269733Y-39855714D01*
X213269733Y-39855714D02*
X213250685Y-39874761D01*
X213250685Y-39874761D02*
X213212590Y-39893809D01*
X213212590Y-39893809D02*
X213193542Y-39893809D01*
X213193542Y-39893809D02*
X213155447Y-39874761D01*
X213155447Y-39874761D02*
X213136400Y-39855714D01*
X213136400Y-39855714D02*
X213117352Y-39817619D01*
X213117352Y-39817619D02*
X213117352Y-39741428D01*
X213117352Y-39741428D02*
X213136400Y-39703333D01*
X213136400Y-39703333D02*
X213155447Y-39684285D01*
X213155447Y-39684285D02*
X213193542Y-39665238D01*
X213193542Y-39665238D02*
X213212590Y-39665238D01*
X213212590Y-39665238D02*
X213250685Y-39684285D01*
X213250685Y-39684285D02*
X213269733Y-39703333D01*
X213269733Y-39703333D02*
X213288780Y-39741428D01*
X213288780Y-39741428D02*
X213288780Y-39817619D01*
X213288780Y-39817619D02*
X213307828Y-39855714D01*
X213307828Y-39855714D02*
X213326876Y-39874761D01*
X213326876Y-39874761D02*
X213364971Y-39893809D01*
X213364971Y-39893809D02*
X213441161Y-39893809D01*
X213441161Y-39893809D02*
X213479257Y-39874761D01*
X213479257Y-39874761D02*
X213498304Y-39855714D01*
X213498304Y-39855714D02*
X213517352Y-39817619D01*
X213517352Y-39817619D02*
X213517352Y-39741428D01*
X213517352Y-39741428D02*
X213498304Y-39703333D01*
X213498304Y-39703333D02*
X213479257Y-39684285D01*
X213479257Y-39684285D02*
X213441161Y-39665238D01*
X213441161Y-39665238D02*
X213364971Y-39665238D01*
X213364971Y-39665238D02*
X213326876Y-39684285D01*
X213326876Y-39684285D02*
X213307828Y-39703333D01*
X213307828Y-39703333D02*
X213288780Y-39741428D01*
D13*
X190355535Y-51760714D02*
X190367440Y-51772618D01*
X190367440Y-51772618D02*
X190379345Y-51808333D01*
X190379345Y-51808333D02*
X190379345Y-51832142D01*
X190379345Y-51832142D02*
X190367440Y-51867856D01*
X190367440Y-51867856D02*
X190343630Y-51891666D01*
X190343630Y-51891666D02*
X190319821Y-51903571D01*
X190319821Y-51903571D02*
X190272202Y-51915475D01*
X190272202Y-51915475D02*
X190236488Y-51915475D01*
X190236488Y-51915475D02*
X190188869Y-51903571D01*
X190188869Y-51903571D02*
X190165059Y-51891666D01*
X190165059Y-51891666D02*
X190141250Y-51867856D01*
X190141250Y-51867856D02*
X190129345Y-51832142D01*
X190129345Y-51832142D02*
X190129345Y-51808333D01*
X190129345Y-51808333D02*
X190141250Y-51772618D01*
X190141250Y-51772618D02*
X190153154Y-51760714D01*
X190129345Y-51677380D02*
X190129345Y-51522618D01*
X190129345Y-51522618D02*
X190224583Y-51605952D01*
X190224583Y-51605952D02*
X190224583Y-51570237D01*
X190224583Y-51570237D02*
X190236488Y-51546428D01*
X190236488Y-51546428D02*
X190248392Y-51534523D01*
X190248392Y-51534523D02*
X190272202Y-51522618D01*
X190272202Y-51522618D02*
X190331726Y-51522618D01*
X190331726Y-51522618D02*
X190355535Y-51534523D01*
X190355535Y-51534523D02*
X190367440Y-51546428D01*
X190367440Y-51546428D02*
X190379345Y-51570237D01*
X190379345Y-51570237D02*
X190379345Y-51641666D01*
X190379345Y-51641666D02*
X190367440Y-51665475D01*
X190367440Y-51665475D02*
X190355535Y-51677380D01*
X190129345Y-51439285D02*
X190129345Y-51272619D01*
X190129345Y-51272619D02*
X190379345Y-51379761D01*
X188870519Y-47987142D02*
X188746709Y-48073809D01*
X188870519Y-48135714D02*
X188610519Y-48135714D01*
X188610519Y-48135714D02*
X188610519Y-48036666D01*
X188610519Y-48036666D02*
X188622900Y-48011904D01*
X188622900Y-48011904D02*
X188635280Y-47999523D01*
X188635280Y-47999523D02*
X188660042Y-47987142D01*
X188660042Y-47987142D02*
X188697185Y-47987142D01*
X188697185Y-47987142D02*
X188721947Y-47999523D01*
X188721947Y-47999523D02*
X188734328Y-48011904D01*
X188734328Y-48011904D02*
X188746709Y-48036666D01*
X188746709Y-48036666D02*
X188746709Y-48135714D01*
X188635280Y-47888095D02*
X188622900Y-47875714D01*
X188622900Y-47875714D02*
X188610519Y-47850952D01*
X188610519Y-47850952D02*
X188610519Y-47789047D01*
X188610519Y-47789047D02*
X188622900Y-47764285D01*
X188622900Y-47764285D02*
X188635280Y-47751904D01*
X188635280Y-47751904D02*
X188660042Y-47739523D01*
X188660042Y-47739523D02*
X188684804Y-47739523D01*
X188684804Y-47739523D02*
X188721947Y-47751904D01*
X188721947Y-47751904D02*
X188870519Y-47900476D01*
X188870519Y-47900476D02*
X188870519Y-47739523D01*
X188721947Y-47590952D02*
X188709566Y-47615714D01*
X188709566Y-47615714D02*
X188697185Y-47628095D01*
X188697185Y-47628095D02*
X188672423Y-47640476D01*
X188672423Y-47640476D02*
X188660042Y-47640476D01*
X188660042Y-47640476D02*
X188635280Y-47628095D01*
X188635280Y-47628095D02*
X188622900Y-47615714D01*
X188622900Y-47615714D02*
X188610519Y-47590952D01*
X188610519Y-47590952D02*
X188610519Y-47541428D01*
X188610519Y-47541428D02*
X188622900Y-47516666D01*
X188622900Y-47516666D02*
X188635280Y-47504285D01*
X188635280Y-47504285D02*
X188660042Y-47491904D01*
X188660042Y-47491904D02*
X188672423Y-47491904D01*
X188672423Y-47491904D02*
X188697185Y-47504285D01*
X188697185Y-47504285D02*
X188709566Y-47516666D01*
X188709566Y-47516666D02*
X188721947Y-47541428D01*
X188721947Y-47541428D02*
X188721947Y-47590952D01*
X188721947Y-47590952D02*
X188734328Y-47615714D01*
X188734328Y-47615714D02*
X188746709Y-47628095D01*
X188746709Y-47628095D02*
X188771471Y-47640476D01*
X188771471Y-47640476D02*
X188820995Y-47640476D01*
X188820995Y-47640476D02*
X188845757Y-47628095D01*
X188845757Y-47628095D02*
X188858138Y-47615714D01*
X188858138Y-47615714D02*
X188870519Y-47590952D01*
X188870519Y-47590952D02*
X188870519Y-47541428D01*
X188870519Y-47541428D02*
X188858138Y-47516666D01*
X188858138Y-47516666D02*
X188845757Y-47504285D01*
X188845757Y-47504285D02*
X188820995Y-47491904D01*
X188820995Y-47491904D02*
X188771471Y-47491904D01*
X188771471Y-47491904D02*
X188746709Y-47504285D01*
X188746709Y-47504285D02*
X188734328Y-47516666D01*
X188734328Y-47516666D02*
X188721947Y-47541428D01*
D14*
X148178133Y-39052057D02*
X148159085Y-39071104D01*
X148159085Y-39071104D02*
X148101943Y-39090152D01*
X148101943Y-39090152D02*
X148063847Y-39090152D01*
X148063847Y-39090152D02*
X148006704Y-39071104D01*
X148006704Y-39071104D02*
X147968609Y-39033009D01*
X147968609Y-39033009D02*
X147949562Y-38994914D01*
X147949562Y-38994914D02*
X147930514Y-38918723D01*
X147930514Y-38918723D02*
X147930514Y-38861580D01*
X147930514Y-38861580D02*
X147949562Y-38785390D01*
X147949562Y-38785390D02*
X147968609Y-38747295D01*
X147968609Y-38747295D02*
X148006704Y-38709200D01*
X148006704Y-38709200D02*
X148063847Y-38690152D01*
X148063847Y-38690152D02*
X148101943Y-38690152D01*
X148101943Y-38690152D02*
X148159085Y-38709200D01*
X148159085Y-38709200D02*
X148178133Y-38728247D01*
X148559085Y-39090152D02*
X148330514Y-39090152D01*
X148444800Y-39090152D02*
X148444800Y-38690152D01*
X148444800Y-38690152D02*
X148406704Y-38747295D01*
X148406704Y-38747295D02*
X148368609Y-38785390D01*
X148368609Y-38785390D02*
X148330514Y-38804438D01*
D13*
X161089285Y-39217131D02*
X161077381Y-39229036D01*
X161077381Y-39229036D02*
X161041666Y-39240941D01*
X161041666Y-39240941D02*
X161017857Y-39240941D01*
X161017857Y-39240941D02*
X160982143Y-39229036D01*
X160982143Y-39229036D02*
X160958333Y-39205226D01*
X160958333Y-39205226D02*
X160946428Y-39181417D01*
X160946428Y-39181417D02*
X160934524Y-39133798D01*
X160934524Y-39133798D02*
X160934524Y-39098084D01*
X160934524Y-39098084D02*
X160946428Y-39050465D01*
X160946428Y-39050465D02*
X160958333Y-39026655D01*
X160958333Y-39026655D02*
X160982143Y-39002846D01*
X160982143Y-39002846D02*
X161017857Y-38990941D01*
X161017857Y-38990941D02*
X161041666Y-38990941D01*
X161041666Y-38990941D02*
X161077381Y-39002846D01*
X161077381Y-39002846D02*
X161089285Y-39014750D01*
X161327381Y-39240941D02*
X161184524Y-39240941D01*
X161255952Y-39240941D02*
X161255952Y-38990941D01*
X161255952Y-38990941D02*
X161232143Y-39026655D01*
X161232143Y-39026655D02*
X161208333Y-39050465D01*
X161208333Y-39050465D02*
X161184524Y-39062369D01*
X161410714Y-38990941D02*
X161577380Y-38990941D01*
X161577380Y-38990941D02*
X161470238Y-39240941D01*
X195743035Y-58280714D02*
X195754940Y-58292618D01*
X195754940Y-58292618D02*
X195766845Y-58328333D01*
X195766845Y-58328333D02*
X195766845Y-58352142D01*
X195766845Y-58352142D02*
X195754940Y-58387856D01*
X195754940Y-58387856D02*
X195731130Y-58411666D01*
X195731130Y-58411666D02*
X195707321Y-58423571D01*
X195707321Y-58423571D02*
X195659702Y-58435475D01*
X195659702Y-58435475D02*
X195623988Y-58435475D01*
X195623988Y-58435475D02*
X195576369Y-58423571D01*
X195576369Y-58423571D02*
X195552559Y-58411666D01*
X195552559Y-58411666D02*
X195528750Y-58387856D01*
X195528750Y-58387856D02*
X195516845Y-58352142D01*
X195516845Y-58352142D02*
X195516845Y-58328333D01*
X195516845Y-58328333D02*
X195528750Y-58292618D01*
X195528750Y-58292618D02*
X195540654Y-58280714D01*
X195600178Y-58066428D02*
X195766845Y-58066428D01*
X195504940Y-58125952D02*
X195683511Y-58185475D01*
X195683511Y-58185475D02*
X195683511Y-58030714D01*
X195540654Y-57947380D02*
X195528750Y-57935476D01*
X195528750Y-57935476D02*
X195516845Y-57911666D01*
X195516845Y-57911666D02*
X195516845Y-57852142D01*
X195516845Y-57852142D02*
X195528750Y-57828333D01*
X195528750Y-57828333D02*
X195540654Y-57816428D01*
X195540654Y-57816428D02*
X195564464Y-57804523D01*
X195564464Y-57804523D02*
X195588273Y-57804523D01*
X195588273Y-57804523D02*
X195623988Y-57816428D01*
X195623988Y-57816428D02*
X195766845Y-57959285D01*
X195766845Y-57959285D02*
X195766845Y-57804523D01*
X204982857Y-47265519D02*
X204896190Y-47141709D01*
X204834285Y-47265519D02*
X204834285Y-47005519D01*
X204834285Y-47005519D02*
X204933333Y-47005519D01*
X204933333Y-47005519D02*
X204958095Y-47017900D01*
X204958095Y-47017900D02*
X204970476Y-47030280D01*
X204970476Y-47030280D02*
X204982857Y-47055042D01*
X204982857Y-47055042D02*
X204982857Y-47092185D01*
X204982857Y-47092185D02*
X204970476Y-47116947D01*
X204970476Y-47116947D02*
X204958095Y-47129328D01*
X204958095Y-47129328D02*
X204933333Y-47141709D01*
X204933333Y-47141709D02*
X204834285Y-47141709D01*
X205081904Y-47030280D02*
X205094285Y-47017900D01*
X205094285Y-47017900D02*
X205119047Y-47005519D01*
X205119047Y-47005519D02*
X205180952Y-47005519D01*
X205180952Y-47005519D02*
X205205714Y-47017900D01*
X205205714Y-47017900D02*
X205218095Y-47030280D01*
X205218095Y-47030280D02*
X205230476Y-47055042D01*
X205230476Y-47055042D02*
X205230476Y-47079804D01*
X205230476Y-47079804D02*
X205218095Y-47116947D01*
X205218095Y-47116947D02*
X205069523Y-47265519D01*
X205069523Y-47265519D02*
X205230476Y-47265519D01*
X205453333Y-47092185D02*
X205453333Y-47265519D01*
X205391428Y-46993138D02*
X205329523Y-47178852D01*
X205329523Y-47178852D02*
X205490476Y-47178852D01*
D16*
X159675000Y-34500000D02*
X159675000Y-32500000D01*
X160925000Y-34500000D02*
X159675000Y-34500000D01*
X159675000Y-32500000D02*
X160925000Y-32500000D01*
X160925000Y-32500000D02*
X160925000Y-34500000D01*
X149200000Y-53550000D02*
X151200000Y-53550000D01*
X149200000Y-54450000D02*
X149200000Y-53550000D01*
X151200000Y-53550000D02*
X151200000Y-54450000D01*
X151200000Y-54450000D02*
X149200000Y-54450000D01*
D17*
X185270000Y-37700000D02*
X163870000Y-37700000D01*
X163870000Y-37700000D02*
X163870000Y-53700000D01*
X185270000Y-53700000D02*
X185270000Y-37700000D01*
X163870000Y-53700000D02*
X185270000Y-53700000D01*
D18*
X168200000Y-51500000D02*
G75*
G03*
X168200000Y-51500000I-150000J0D01*
G01*
D16*
X177600000Y-56812500D02*
X176000000Y-56812500D01*
X177600000Y-55987500D02*
X177600000Y-56812500D01*
X176000000Y-56812500D02*
X176000000Y-55987500D01*
X176000000Y-55987500D02*
X177600000Y-55987500D01*
X155185000Y-28370000D02*
X155185000Y-30870000D01*
X155185000Y-29870000D02*
X156185000Y-30870000D01*
X155185000Y-30870000D02*
X158385000Y-30870000D01*
X158385000Y-28370000D02*
X155185000Y-28370000D01*
X158385000Y-30870000D02*
X158385000Y-28370000D01*
X160750000Y-37300000D02*
X161750000Y-37300000D01*
X160750000Y-37800000D02*
X160750000Y-37300000D01*
X161750000Y-37300000D02*
X161750000Y-37800000D01*
X161750000Y-37800000D02*
X160750000Y-37800000D01*
X152400000Y-42000000D02*
X151400000Y-41000000D01*
X158400000Y-42000000D02*
X152400000Y-42000000D01*
X151400000Y-41000000D02*
X151400000Y-35000000D01*
X151400000Y-35000000D02*
X158400000Y-35000000D01*
X158400000Y-35000000D02*
X158400000Y-42000000D01*
X160750000Y-36220000D02*
X161750000Y-36220000D01*
X160750000Y-36720000D02*
X160750000Y-36220000D01*
X161750000Y-36220000D02*
X161750000Y-36720000D01*
X161750000Y-36720000D02*
X160750000Y-36720000D01*
X177600000Y-55212500D02*
X176000000Y-55212500D01*
X177600000Y-54387500D02*
X177600000Y-55212500D01*
X176000000Y-55212500D02*
X176000000Y-54387500D01*
X176000000Y-54387500D02*
X177600000Y-54387500D01*
X153835000Y-30420000D02*
X153835000Y-29420000D01*
X154335000Y-30420000D02*
X153835000Y-30420000D01*
X153835000Y-29420000D02*
X154335000Y-29420000D01*
X154335000Y-29420000D02*
X154335000Y-30420000D01*
X159235000Y-30420000D02*
X159235000Y-29420000D01*
X159735000Y-30420000D02*
X159235000Y-30420000D01*
X159235000Y-29420000D02*
X159735000Y-29420000D01*
X159735000Y-29420000D02*
X159735000Y-30420000D01*
X149050000Y-37825000D02*
X147050000Y-37825000D01*
X149050000Y-36575000D02*
X149050000Y-37825000D01*
X147050000Y-37825000D02*
X147050000Y-36575000D01*
X147050000Y-36575000D02*
X149050000Y-36575000D01*
X155787500Y-50350000D02*
X155787500Y-48750000D01*
X156612500Y-50350000D02*
X155787500Y-50350000D01*
X155787500Y-48750000D02*
X156612500Y-48750000D01*
X156612500Y-48750000D02*
X156612500Y-50350000D01*
X155787500Y-47050000D02*
X155787500Y-45450000D01*
X156612500Y-47050000D02*
X155787500Y-47050000D01*
X155787500Y-45450000D02*
X156612500Y-45450000D01*
X156612500Y-45450000D02*
X156612500Y-47050000D01*
X153887500Y-47050000D02*
X153887500Y-45450000D01*
X154712500Y-47050000D02*
X153887500Y-47050000D01*
X153887500Y-45450000D02*
X154712500Y-45450000D01*
X154712500Y-45450000D02*
X154712500Y-47050000D01*
X151987500Y-47050000D02*
X151987500Y-45450000D01*
X152812500Y-47050000D02*
X151987500Y-47050000D01*
X151987500Y-45450000D02*
X152812500Y-45450000D01*
X152812500Y-45450000D02*
X152812500Y-47050000D01*
X150087500Y-47050000D02*
X150087500Y-45450000D01*
X150912500Y-47050000D02*
X150087500Y-47050000D01*
X150087500Y-45450000D02*
X150912500Y-45450000D01*
X150912500Y-45450000D02*
X150912500Y-47050000D01*
X158400000Y-48750000D02*
X158400000Y-50350000D01*
X157600000Y-48750000D02*
X158400000Y-48750000D01*
X158400000Y-50350000D02*
X157600000Y-50350000D01*
X157600000Y-50350000D02*
X157600000Y-48750000D01*
X162300000Y-44850000D02*
X161300000Y-44850000D01*
X162300000Y-44350000D02*
X162300000Y-44850000D01*
X161300000Y-44850000D02*
X161300000Y-44350000D01*
X161300000Y-44350000D02*
X162300000Y-44350000D01*
X162300000Y-46450000D02*
X161300000Y-46450000D01*
X162300000Y-45950000D02*
X162300000Y-46450000D01*
X161300000Y-46450000D02*
X161300000Y-45950000D01*
X161300000Y-45950000D02*
X162300000Y-45950000D01*
X172800000Y-56920000D02*
X169600000Y-56920000D01*
X172800000Y-55320000D02*
X172800000Y-56920000D01*
X169600000Y-56920000D02*
X169600000Y-55320000D01*
X169600000Y-55320000D02*
X172800000Y-55320000D01*
X159600000Y-49600000D02*
X159600000Y-48000000D01*
X160400000Y-49600000D02*
X159600000Y-49600000D01*
X159600000Y-48000000D02*
X160400000Y-48000000D01*
X160400000Y-48000000D02*
X160400000Y-49600000D01*
X201780000Y-37300000D02*
X200780000Y-38300000D01*
X201780000Y-32710000D02*
X200580000Y-32710000D01*
X201780000Y-23020000D02*
X201780000Y-37300000D01*
X200780000Y-38300000D02*
X192880000Y-38300000D01*
X200580000Y-37110000D02*
X194080000Y-37110000D01*
X200580000Y-32710000D02*
X200580000Y-37110000D01*
X200580000Y-28610000D02*
X201780000Y-28610000D01*
X200580000Y-28610000D02*
X200580000Y-28610000D01*
X200580000Y-24210000D02*
X200580000Y-28610000D01*
X194080000Y-37110000D02*
X194080000Y-24210000D01*
X194080000Y-24210000D02*
X200580000Y-24210000D01*
X192880000Y-38300000D02*
X192880000Y-23020000D01*
X192880000Y-23020000D02*
X201780000Y-23020000D01*
X161387500Y-49600000D02*
X161387500Y-48000000D01*
X162212500Y-49600000D02*
X161387500Y-49600000D01*
X161387500Y-48000000D02*
X162212500Y-48000000D01*
X162212500Y-48000000D02*
X162212500Y-49600000D01*
X155910000Y-32590000D02*
X154860000Y-32590000D01*
X155910000Y-32050000D02*
X155910000Y-32590000D01*
X154860000Y-32590000D02*
X154860000Y-32050000D01*
X154860000Y-32050000D02*
X155910000Y-32050000D01*
X161150000Y-42982500D02*
X159550000Y-42982500D01*
X161150000Y-42157500D02*
X161150000Y-42982500D01*
X159550000Y-42982500D02*
X159550000Y-42157500D01*
X159550000Y-42157500D02*
X161150000Y-42157500D01*
X149864300Y-50300000D02*
X149864300Y-48700000D01*
X150689300Y-50300000D02*
X149864300Y-50300000D01*
X149864300Y-48700000D02*
X150689300Y-48700000D01*
X150689300Y-48700000D02*
X150689300Y-50300000D01*
X152187500Y-50300000D02*
X152187500Y-48700000D01*
X153012500Y-50300000D02*
X152187500Y-50300000D01*
X152187500Y-48700000D02*
X153012500Y-48700000D01*
X153012500Y-48700000D02*
X153012500Y-50300000D01*
X153887500Y-50350000D02*
X153887500Y-48750000D01*
X154712500Y-50350000D02*
X153887500Y-50350000D01*
X153887500Y-48750000D02*
X154712500Y-48750000D01*
X154712500Y-48750000D02*
X154712500Y-50350000D01*
X162550000Y-29357500D02*
X164150000Y-29357500D01*
X162550000Y-30182500D02*
X162550000Y-29357500D01*
X164150000Y-29357500D02*
X164150000Y-30182500D01*
X164150000Y-30182500D02*
X162550000Y-30182500D01*
X162550000Y-27657500D02*
X164150000Y-27657500D01*
X162550000Y-28482500D02*
X162550000Y-27657500D01*
X164150000Y-27657500D02*
X164150000Y-28482500D01*
X164150000Y-28482500D02*
X162550000Y-28482500D01*
X167450000Y-29870000D02*
X167450000Y-29370000D01*
X167450000Y-29370000D02*
X165850000Y-29370000D01*
X167150000Y-30170000D02*
X167450000Y-29870000D01*
X165850000Y-30170000D02*
X167150000Y-30170000D01*
X165850000Y-29370000D02*
X165850000Y-30170000D01*
X205650000Y-61170000D02*
X206150000Y-61170000D01*
X206150000Y-61170000D02*
X206150000Y-59570000D01*
X205350000Y-60870000D02*
X205650000Y-61170000D01*
X205350000Y-59570000D02*
X205350000Y-60870000D01*
X206150000Y-59570000D02*
X205350000Y-59570000D01*
X217550000Y-64100000D02*
X216850000Y-64100000D01*
X217550000Y-62100000D02*
X216850000Y-62100000D01*
X216850000Y-66200000D02*
X216850000Y-64100000D01*
X216850000Y-66200000D02*
X206950000Y-66200000D01*
X216850000Y-62100000D02*
X216850000Y-57200000D01*
X216850000Y-57200000D02*
X206950000Y-57200000D01*
X206950000Y-66200000D02*
X206950000Y-64100000D01*
X206950000Y-64100000D02*
X206250000Y-64100000D01*
X206950000Y-62100000D02*
X206950000Y-57200000D01*
X206950000Y-62100000D02*
X206250000Y-62100000D01*
X217550000Y-64100000D02*
G75*
G03*
X217550000Y-62100000I0J1000000D01*
G01*
X206250000Y-62100000D02*
G75*
G03*
X206250000Y-64100000I0J-1000000D01*
G01*
X206162500Y-56570000D02*
X206162500Y-58170000D01*
X205337500Y-56570000D02*
X206162500Y-56570000D01*
X206162500Y-58170000D02*
X205337500Y-58170000D01*
X205337500Y-58170000D02*
X205337500Y-56570000D01*
X160750000Y-40420000D02*
X161750000Y-40420000D01*
X160750000Y-40920000D02*
X160750000Y-40420000D01*
X161750000Y-40420000D02*
X161750000Y-40920000D01*
X161750000Y-40920000D02*
X160750000Y-40920000D01*
X206200000Y-36770000D02*
X206200000Y-37770000D01*
X205700000Y-36770000D02*
X206200000Y-36770000D01*
X206200000Y-37770000D02*
X205700000Y-37770000D01*
X205700000Y-37770000D02*
X205700000Y-36770000D01*
X207348100Y-34218100D02*
X207348100Y-34218100D01*
X207348100Y-34218100D02*
X207348100Y-39221900D01*
X207348100Y-35067600D02*
X207348100Y-35067600D01*
X207348100Y-35067600D02*
X207348100Y-35372400D01*
X207348100Y-35372400D02*
X207348100Y-35067600D01*
X207348100Y-35372400D02*
X207348100Y-35372400D01*
X207348100Y-35488100D02*
X208618100Y-34218100D01*
X207348100Y-35567600D02*
X207348100Y-35567600D01*
X207348100Y-35567600D02*
X207348100Y-35872400D01*
X207348100Y-35872400D02*
X207348100Y-35567600D01*
X207348100Y-35872400D02*
X207348100Y-35872400D01*
X207348100Y-36067600D02*
X207348100Y-36067600D01*
X207348100Y-36067600D02*
X207348100Y-36372400D01*
X207348100Y-36372400D02*
X207348100Y-36067600D01*
X207348100Y-36372400D02*
X207348100Y-36372400D01*
X207348100Y-36567600D02*
X207348100Y-36567600D01*
X207348100Y-36567600D02*
X207348100Y-36872400D01*
X207348100Y-36872400D02*
X207348100Y-36567600D01*
X207348100Y-36872400D02*
X207348100Y-36872400D01*
X207348100Y-37067600D02*
X207348100Y-37067600D01*
X207348100Y-37067600D02*
X207348100Y-37372400D01*
X207348100Y-37372400D02*
X207348100Y-37067600D01*
X207348100Y-37372400D02*
X207348100Y-37372400D01*
X207348100Y-37567600D02*
X207348100Y-37567600D01*
X207348100Y-37567600D02*
X207348100Y-37872400D01*
X207348100Y-37872400D02*
X207348100Y-37567600D01*
X207348100Y-37872400D02*
X207348100Y-37872400D01*
X207348100Y-38067600D02*
X207348100Y-38067600D01*
X207348100Y-38067600D02*
X207348100Y-38372400D01*
X207348100Y-38372400D02*
X207348100Y-38067600D01*
X207348100Y-38372400D02*
X207348100Y-38372400D01*
X207348100Y-39221900D02*
X207348100Y-39221900D01*
X207348100Y-39221900D02*
X212351900Y-39221900D01*
X208197600Y-34218100D02*
X208197600Y-34218100D01*
X208197600Y-34218100D02*
X208502400Y-34218100D01*
X208197600Y-39221900D02*
X208197600Y-39221900D01*
X208197600Y-39221900D02*
X208502400Y-39221900D01*
X208502400Y-34218100D02*
X208197600Y-34218100D01*
X208502400Y-34218100D02*
X208502400Y-34218100D01*
X208502400Y-39221900D02*
X208197600Y-39221900D01*
X208502400Y-39221900D02*
X208502400Y-39221900D01*
X208697600Y-34218100D02*
X208697600Y-34218100D01*
X208697600Y-34218100D02*
X209002400Y-34218100D01*
X208697600Y-39221900D02*
X208697600Y-39221900D01*
X208697600Y-39221900D02*
X209002400Y-39221900D01*
X209002400Y-34218100D02*
X208697600Y-34218100D01*
X209002400Y-34218100D02*
X209002400Y-34218100D01*
X209002400Y-39221900D02*
X208697600Y-39221900D01*
X209002400Y-39221900D02*
X209002400Y-39221900D01*
X209197600Y-34218100D02*
X209197600Y-34218100D01*
X209197600Y-34218100D02*
X209502400Y-34218100D01*
X209197600Y-39221900D02*
X209197600Y-39221900D01*
X209197600Y-39221900D02*
X209502400Y-39221900D01*
X209502400Y-34218100D02*
X209197600Y-34218100D01*
X209502400Y-34218100D02*
X209502400Y-34218100D01*
X209502400Y-39221900D02*
X209197600Y-39221900D01*
X209502400Y-39221900D02*
X209502400Y-39221900D01*
X209697600Y-34218100D02*
X209697600Y-34218100D01*
X209697600Y-34218100D02*
X210002400Y-34218100D01*
X209697600Y-39221900D02*
X209697600Y-39221900D01*
X209697600Y-39221900D02*
X210002400Y-39221900D01*
X210002400Y-34218100D02*
X209697600Y-34218100D01*
X210002400Y-34218100D02*
X210002400Y-34218100D01*
X210002400Y-39221900D02*
X209697600Y-39221900D01*
X210002400Y-39221900D02*
X210002400Y-39221900D01*
X210197600Y-34218100D02*
X210197600Y-34218100D01*
X210197600Y-34218100D02*
X210502400Y-34218100D01*
X210197600Y-39221900D02*
X210197600Y-39221900D01*
X210197600Y-39221900D02*
X210502400Y-39221900D01*
X210502400Y-34218100D02*
X210197600Y-34218100D01*
X210502400Y-34218100D02*
X210502400Y-34218100D01*
X210502400Y-39221900D02*
X210197600Y-39221900D01*
X210502400Y-39221900D02*
X210502400Y-39221900D01*
X210697600Y-34218100D02*
X210697600Y-34218100D01*
X210697600Y-34218100D02*
X211002400Y-34218100D01*
X210697600Y-39221900D02*
X210697600Y-39221900D01*
X210697600Y-39221900D02*
X211002400Y-39221900D01*
X211002400Y-34218100D02*
X210697600Y-34218100D01*
X211002400Y-34218100D02*
X211002400Y-34218100D01*
X211002400Y-39221900D02*
X210697600Y-39221900D01*
X211002400Y-39221900D02*
X211002400Y-39221900D01*
X211197600Y-34218100D02*
X211197600Y-34218100D01*
X211197600Y-34218100D02*
X211502400Y-34218100D01*
X211197600Y-39221900D02*
X211197600Y-39221900D01*
X211197600Y-39221900D02*
X211502400Y-39221900D01*
X211502400Y-34218100D02*
X211197600Y-34218100D01*
X211502400Y-34218100D02*
X211502400Y-34218100D01*
X211502400Y-39221900D02*
X211197600Y-39221900D01*
X211502400Y-39221900D02*
X211502400Y-39221900D01*
X212351900Y-34218100D02*
X207348100Y-34218100D01*
X212351900Y-34218100D02*
X212351900Y-34218100D01*
X212351900Y-35067600D02*
X212351900Y-35067600D01*
X212351900Y-35067600D02*
X212351900Y-35372400D01*
X212351900Y-35372400D02*
X212351900Y-35067600D01*
X212351900Y-35372400D02*
X212351900Y-35372400D01*
X212351900Y-35567600D02*
X212351900Y-35567600D01*
X212351900Y-35567600D02*
X212351900Y-35872400D01*
X212351900Y-35872400D02*
X212351900Y-35567600D01*
X212351900Y-35872400D02*
X212351900Y-35872400D01*
X212351900Y-36067600D02*
X212351900Y-36067600D01*
X212351900Y-36067600D02*
X212351900Y-36372400D01*
X212351900Y-36372400D02*
X212351900Y-36067600D01*
X212351900Y-36372400D02*
X212351900Y-36372400D01*
X212351900Y-36567600D02*
X212351900Y-36567600D01*
X212351900Y-36567600D02*
X212351900Y-36872400D01*
X212351900Y-36872400D02*
X212351900Y-36567600D01*
X212351900Y-36872400D02*
X212351900Y-36872400D01*
X212351900Y-37067600D02*
X212351900Y-37067600D01*
X212351900Y-37067600D02*
X212351900Y-37372400D01*
X212351900Y-37372400D02*
X212351900Y-37067600D01*
X212351900Y-37372400D02*
X212351900Y-37372400D01*
X212351900Y-37567600D02*
X212351900Y-37567600D01*
X212351900Y-37567600D02*
X212351900Y-37872400D01*
X212351900Y-37872400D02*
X212351900Y-37567600D01*
X212351900Y-37872400D02*
X212351900Y-37872400D01*
X212351900Y-38067600D02*
X212351900Y-38067600D01*
X212351900Y-38067600D02*
X212351900Y-38372400D01*
X212351900Y-38372400D02*
X212351900Y-38067600D01*
X212351900Y-38372400D02*
X212351900Y-38372400D01*
X212351900Y-39221900D02*
X212351900Y-34218100D01*
X212351900Y-39221900D02*
X212351900Y-39221900D01*
X215400000Y-47720000D02*
X223700000Y-47720000D01*
X215400000Y-47720000D02*
X214400000Y-46720000D01*
X223700000Y-47720000D02*
X224700000Y-46720000D01*
X217850000Y-47128325D02*
X217850000Y-46128325D01*
X214400000Y-46720000D02*
X214400000Y-37420000D01*
X224700000Y-46720000D02*
X224700000Y-37420000D01*
X217350000Y-46628325D02*
X218350000Y-46628325D01*
X214400000Y-37420000D02*
X224700000Y-37420000D01*
X224550000Y-42570000D02*
G75*
G03*
X224550000Y-42570000I-5000000J0D01*
G01*
X203350000Y-30420000D02*
X208350000Y-30420000D01*
X203350000Y-32920000D02*
X203350000Y-30420000D01*
X208350000Y-30420000D02*
X208350000Y-32920000D01*
X208350000Y-32920000D02*
X203350000Y-32920000D01*
X157752400Y-44992400D02*
X158752400Y-44992400D01*
X157752400Y-45492400D02*
X157752400Y-44992400D01*
X158752400Y-44992400D02*
X158752400Y-45492400D01*
X158752400Y-45492400D02*
X157752400Y-45492400D01*
X203900000Y-58795000D02*
X202900000Y-58795000D01*
X203900000Y-58295000D02*
X203900000Y-58795000D01*
X202900000Y-58795000D02*
X202900000Y-58295000D01*
X202900000Y-58295000D02*
X203900000Y-58295000D01*
X158550000Y-34070000D02*
X158550000Y-33070000D01*
X159050000Y-34070000D02*
X158550000Y-34070000D01*
X158550000Y-33070000D02*
X159050000Y-33070000D01*
X159050000Y-33070000D02*
X159050000Y-34070000D01*
X188505000Y-50320000D02*
X188505000Y-49270000D01*
X189045000Y-50320000D02*
X188505000Y-50320000D01*
X188505000Y-49270000D02*
X189045000Y-49270000D01*
X189045000Y-49270000D02*
X189045000Y-50320000D01*
X167450000Y-28170000D02*
X167450000Y-27670000D01*
X167450000Y-27670000D02*
X165850000Y-27670000D01*
X167150000Y-28470000D02*
X167450000Y-28170000D01*
X165850000Y-28470000D02*
X167150000Y-28470000D01*
X165850000Y-27670000D02*
X165850000Y-28470000D01*
X216900000Y-35620000D02*
X216900000Y-34020000D01*
X217700000Y-35620000D02*
X216900000Y-35620000D01*
X216900000Y-34020000D02*
X217700000Y-34020000D01*
X217700000Y-34020000D02*
X217700000Y-35620000D01*
X203900000Y-57795000D02*
X202900000Y-57795000D01*
X203900000Y-57295000D02*
X203900000Y-57795000D01*
X202900000Y-57795000D02*
X202900000Y-57295000D01*
X202900000Y-57295000D02*
X203900000Y-57295000D01*
X218250000Y-48920000D02*
X219850000Y-48920000D01*
X218250000Y-49720000D02*
X218250000Y-48920000D01*
X219850000Y-48920000D02*
X219850000Y-49720000D01*
X219850000Y-49720000D02*
X218250000Y-49720000D01*
X195537500Y-60820000D02*
X203037500Y-60820000D01*
X195537500Y-65820000D02*
X195537500Y-60820000D01*
X196037500Y-65120000D02*
X202537500Y-65120000D01*
X203037500Y-60820000D02*
X203037500Y-65820000D01*
X203037500Y-65820000D02*
X195537500Y-65820000D01*
X183352600Y-34549000D02*
X183987600Y-35184000D01*
X166207600Y-34549000D02*
X183352600Y-34549000D01*
X183987600Y-35184000D02*
X183987600Y-37089000D01*
X183987600Y-37089000D02*
X166207600Y-37089000D01*
X166207600Y-37089000D02*
X166207600Y-34549000D01*
X200540000Y-33225000D02*
X200540000Y-32175000D01*
X201080000Y-33225000D02*
X200540000Y-33225000D01*
X200540000Y-32175000D02*
X201080000Y-32175000D01*
X201080000Y-32175000D02*
X201080000Y-33225000D01*
X175800000Y-66487500D02*
X165800000Y-66487500D01*
X175800000Y-58287500D02*
X175800000Y-66487500D01*
X174800000Y-60487500D02*
X174800000Y-58287500D01*
X174800000Y-58287500D02*
X175800000Y-58287500D01*
X173800000Y-60487500D02*
X173300000Y-61194607D01*
X173300000Y-61194607D02*
X172800000Y-60487500D01*
X166800000Y-60487500D02*
X174800000Y-60487500D01*
X166800000Y-58287500D02*
X166800000Y-60487500D01*
X165800000Y-66487500D02*
X165800000Y-58287500D01*
X165800000Y-58287500D02*
X166800000Y-58287500D01*
X216125000Y-33720000D02*
X216125000Y-36920000D01*
X214525000Y-33720000D02*
X216125000Y-33720000D01*
X216125000Y-36920000D02*
X214525000Y-36920000D01*
X214525000Y-36920000D02*
X214525000Y-33720000D01*
X164550000Y-66487500D02*
X154550000Y-66487500D01*
X164550000Y-58287500D02*
X164550000Y-66487500D01*
X163550000Y-60487500D02*
X163550000Y-58287500D01*
X163550000Y-58287500D02*
X164550000Y-58287500D01*
X162550000Y-60487500D02*
X162050000Y-61194607D01*
X162050000Y-61194607D02*
X161550000Y-60487500D01*
X155550000Y-60487500D02*
X163550000Y-60487500D01*
X155550000Y-58287500D02*
X155550000Y-60487500D01*
X154550000Y-66487500D02*
X154550000Y-58287500D01*
X154550000Y-58287500D02*
X155550000Y-58287500D01*
X217700000Y-52920000D02*
X220900000Y-52920000D01*
X217700000Y-54520000D02*
X217700000Y-52920000D01*
X220900000Y-52920000D02*
X220900000Y-54520000D01*
X220900000Y-54520000D02*
X217700000Y-54520000D01*
X205675000Y-46340000D02*
X204625000Y-46340000D01*
X205675000Y-45800000D02*
X205675000Y-46340000D01*
X204625000Y-46340000D02*
X204625000Y-45800000D01*
X204625000Y-45800000D02*
X205675000Y-45800000D01*
X157750000Y-44020000D02*
X158750000Y-44020000D01*
X157750000Y-44520000D02*
X157750000Y-44020000D01*
X158750000Y-44020000D02*
X158750000Y-44520000D01*
X158750000Y-44520000D02*
X157750000Y-44520000D01*
X203200000Y-41370000D02*
X203200000Y-42370000D01*
X202700000Y-41370000D02*
X203200000Y-41370000D01*
X203200000Y-42370000D02*
X202700000Y-42370000D01*
X202700000Y-42370000D02*
X202700000Y-41370000D01*
X197580000Y-41790000D02*
X196580000Y-41790000D01*
X197580000Y-41290000D02*
X197580000Y-41790000D01*
X196580000Y-41790000D02*
X196580000Y-41290000D01*
X196580000Y-41290000D02*
X197580000Y-41290000D01*
X187818000Y-37089000D02*
X187183000Y-36454000D01*
X204963000Y-37089000D02*
X187818000Y-37089000D01*
X187183000Y-36454000D02*
X187183000Y-34549000D01*
X187183000Y-34549000D02*
X204963000Y-34549000D01*
X204963000Y-34549000D02*
X204963000Y-37089000D01*
X203550000Y-21902500D02*
X216050000Y-21902500D01*
X203550000Y-30102500D02*
X203550000Y-21902500D01*
X204550000Y-27902500D02*
X204550000Y-30102500D01*
X204550000Y-30102500D02*
X203550000Y-30102500D01*
X205550000Y-27902500D02*
X206050000Y-27195393D01*
X206050000Y-27195393D02*
X206550000Y-27902500D01*
X215050000Y-27902500D02*
X204550000Y-27902500D01*
X215050000Y-30102500D02*
X215050000Y-27902500D01*
X216050000Y-21902500D02*
X216050000Y-30102500D01*
X216050000Y-30102500D02*
X215050000Y-30102500D01*
X198387500Y-51670000D02*
X199387500Y-51670000D01*
X198387500Y-52170000D02*
X198387500Y-51670000D01*
X199387500Y-51670000D02*
X199387500Y-52170000D01*
X199387500Y-52170000D02*
X198387500Y-52170000D01*
X216350000Y-32920000D02*
X211350000Y-32920000D01*
X216350000Y-30420000D02*
X216350000Y-32920000D01*
X211350000Y-32920000D02*
X211350000Y-30420000D01*
X211350000Y-30420000D02*
X216350000Y-30420000D01*
X193780000Y-41790000D02*
X192780000Y-41790000D01*
X193780000Y-41290000D02*
X193780000Y-41790000D01*
X192780000Y-41790000D02*
X192780000Y-41290000D01*
X192780000Y-41290000D02*
X193780000Y-41290000D01*
X201050000Y-30366000D02*
X201050000Y-31366000D01*
X200550000Y-30366000D02*
X201050000Y-30366000D01*
X201050000Y-31366000D02*
X200550000Y-31366000D01*
X200550000Y-31366000D02*
X200550000Y-30366000D01*
X197187500Y-43920000D02*
X198187500Y-44920000D01*
X191187500Y-43920000D02*
X197187500Y-43920000D01*
X198187500Y-44920000D02*
X198187500Y-50920000D01*
X198187500Y-50920000D02*
X191187500Y-50920000D01*
X191187500Y-50920000D02*
X191187500Y-43920000D01*
X166450000Y-57057500D02*
X168050000Y-57057500D01*
X166450000Y-57882500D02*
X166450000Y-57057500D01*
X168050000Y-57057500D02*
X168050000Y-57882500D01*
X168050000Y-57882500D02*
X166450000Y-57882500D01*
X205675000Y-45240000D02*
X204625000Y-45240000D01*
X205675000Y-44700000D02*
X205675000Y-45240000D01*
X204625000Y-45240000D02*
X204625000Y-44700000D01*
X204625000Y-44700000D02*
X205675000Y-44700000D01*
X208439400Y-41228000D02*
X211239400Y-41228000D01*
X208439400Y-43028000D02*
X208439400Y-41228000D01*
X209089400Y-42128000D02*
X209489400Y-42128000D01*
X209489400Y-42128000D02*
X209489400Y-41578000D01*
X209489400Y-42128000D02*
X209489400Y-42678000D01*
X209489400Y-42128000D02*
X210089400Y-41728000D01*
X210089400Y-41728000D02*
X210089400Y-42528000D01*
X210089400Y-42128000D02*
X210589400Y-42128000D01*
X210089400Y-42528000D02*
X209489400Y-42128000D01*
X211239400Y-41228000D02*
X211239400Y-43028000D01*
X211239400Y-43028000D02*
X208439400Y-43028000D01*
X197825000Y-58420000D02*
X196825000Y-57420000D01*
X201825000Y-58420000D02*
X197825000Y-58420000D01*
X196825000Y-57420000D02*
X196825000Y-53420000D01*
X196825000Y-53420000D02*
X201825000Y-53420000D01*
X201825000Y-53420000D02*
X201825000Y-58420000D01*
X213585000Y-56440000D02*
X212535000Y-56440000D01*
X213585000Y-55900000D02*
X213585000Y-56440000D01*
X212535000Y-56440000D02*
X212535000Y-55900000D01*
X212535000Y-55900000D02*
X213585000Y-55900000D01*
X198937500Y-43710000D02*
X198937500Y-42710000D01*
X199437500Y-43710000D02*
X198937500Y-43710000D01*
X198937500Y-42710000D02*
X199437500Y-42710000D01*
X199437500Y-42710000D02*
X199437500Y-43710000D01*
X195705000Y-41810000D02*
X194655000Y-41810000D01*
X195705000Y-41270000D02*
X195705000Y-41810000D01*
X194655000Y-41810000D02*
X194655000Y-41270000D01*
X194655000Y-41270000D02*
X195705000Y-41270000D01*
X205150000Y-37770000D02*
X205150000Y-39370000D01*
X204350000Y-37770000D02*
X205150000Y-37770000D01*
X205150000Y-39370000D02*
X204350000Y-39370000D01*
X204350000Y-39370000D02*
X204350000Y-37770000D01*
X219325000Y-34020000D02*
X222125000Y-34020000D01*
X219325000Y-35820000D02*
X219325000Y-34020000D01*
X219975000Y-34920000D02*
X220375000Y-34920000D01*
X220375000Y-34920000D02*
X220375000Y-34370000D01*
X220375000Y-34920000D02*
X220375000Y-35470000D01*
X220375000Y-34920000D02*
X220975000Y-34520000D01*
X220975000Y-34520000D02*
X220975000Y-35320000D01*
X220975000Y-34920000D02*
X221475000Y-34920000D01*
X220975000Y-35320000D02*
X220375000Y-34920000D01*
X222125000Y-34020000D02*
X222125000Y-35820000D01*
X222125000Y-35820000D02*
X219325000Y-35820000D01*
X150700000Y-42470000D02*
X150700000Y-43470000D01*
X150200000Y-42470000D02*
X150700000Y-42470000D01*
X150700000Y-43470000D02*
X150200000Y-43470000D01*
X150200000Y-43470000D02*
X150200000Y-42470000D01*
X155350000Y-57057500D02*
X156950000Y-57057500D01*
X155350000Y-57882500D02*
X155350000Y-57057500D01*
X156950000Y-57057500D02*
X156950000Y-57882500D01*
X156950000Y-57882500D02*
X155350000Y-57882500D01*
X213770400Y-39370000D02*
X213770400Y-40970000D01*
X212970400Y-39370000D02*
X213770400Y-39370000D01*
X213770400Y-40970000D02*
X212970400Y-40970000D01*
X212970400Y-40970000D02*
X212970400Y-39370000D01*
X190537500Y-51100000D02*
X190537500Y-52100000D01*
X190037500Y-51100000D02*
X190537500Y-51100000D01*
X190537500Y-52100000D02*
X190037500Y-52100000D01*
X190037500Y-52100000D02*
X190037500Y-51100000D01*
X201070000Y-27670000D02*
X201070000Y-28170000D01*
X201070000Y-28170000D02*
X202670000Y-28170000D01*
X201370000Y-27370000D02*
X201070000Y-27670000D01*
X202670000Y-27370000D02*
X201370000Y-27370000D01*
X202670000Y-28170000D02*
X202670000Y-27370000D01*
X217700000Y-50520000D02*
X220900000Y-50520000D01*
X217700000Y-52120000D02*
X217700000Y-50520000D01*
X220900000Y-50520000D02*
X220900000Y-52120000D01*
X220900000Y-52120000D02*
X217700000Y-52120000D01*
X202689600Y-29652900D02*
X201089600Y-29652900D01*
X202689600Y-28827900D02*
X202689600Y-29652900D01*
X201089600Y-29652900D02*
X201089600Y-28827900D01*
X201089600Y-28827900D02*
X202689600Y-28827900D01*
X189045000Y-47295000D02*
X189045000Y-48345000D01*
X188505000Y-47295000D02*
X189045000Y-47295000D01*
X189045000Y-48345000D02*
X188505000Y-48345000D01*
X188505000Y-48345000D02*
X188505000Y-47295000D01*
X197700000Y-40540000D02*
X197500000Y-40740000D01*
X197700000Y-38540000D02*
X196700000Y-37540000D01*
X197700000Y-37740000D02*
X197700000Y-40540000D01*
X197500000Y-40740000D02*
X192900000Y-40740000D01*
X197500000Y-37540000D02*
X197700000Y-37740000D01*
X192900000Y-40740000D02*
X192700000Y-40540000D01*
X192900000Y-37540000D02*
X197500000Y-37540000D01*
X192700000Y-40540000D02*
X192700000Y-37740000D01*
X192700000Y-37740000D02*
X192900000Y-37540000D01*
X149044800Y-39343200D02*
X147444800Y-39343200D01*
X149044800Y-38543200D02*
X149044800Y-39343200D01*
X147444800Y-39343200D02*
X147444800Y-38543200D01*
X147444800Y-38543200D02*
X149044800Y-38543200D01*
X208214400Y-43528000D02*
X211414400Y-43528000D01*
X208214400Y-45128000D02*
X208214400Y-43528000D01*
X211414400Y-43528000D02*
X211414400Y-45128000D01*
X211414400Y-45128000D02*
X208214400Y-45128000D01*
X190775000Y-42370000D02*
X190775000Y-41370000D01*
X191275000Y-42370000D02*
X190775000Y-42370000D01*
X190775000Y-41370000D02*
X191275000Y-41370000D01*
X191275000Y-41370000D02*
X191275000Y-42370000D01*
X211625000Y-56440000D02*
X210575000Y-56440000D01*
X211625000Y-55900000D02*
X211625000Y-56440000D01*
X210575000Y-56440000D02*
X210575000Y-55900000D01*
X210575000Y-55900000D02*
X211625000Y-55900000D01*
X160750000Y-38899096D02*
X161750000Y-38899096D01*
X160750000Y-39399096D02*
X160750000Y-38899096D01*
X161750000Y-38899096D02*
X161750000Y-39399096D01*
X161750000Y-39399096D02*
X160750000Y-39399096D01*
X195925000Y-57620000D02*
X195925000Y-58620000D01*
X195425000Y-57620000D02*
X195925000Y-57620000D01*
X195925000Y-58620000D02*
X195425000Y-58620000D01*
X195425000Y-58620000D02*
X195425000Y-57620000D01*
X205675000Y-47440000D02*
X204625000Y-47440000D01*
X205675000Y-46900000D02*
X205675000Y-47440000D01*
X204625000Y-47440000D02*
X204625000Y-46900000D01*
X204625000Y-46900000D02*
X205675000Y-46900000D01*
D19*
X184100000Y-31800000D02*
X184100000Y-30200000D01*
X184100000Y-60700000D02*
X184100000Y-59400000D01*
X180600000Y-26700000D02*
X149600000Y-26700000D01*
X149600000Y-26700000D02*
G75*
G03*
X146100000Y-30200000I0J-3500000D01*
G01*
X184100000Y-30200000D02*
G75*
G03*
X180600000Y-26700000I-3500000J0D01*
G01*
X180600000Y-64700000D02*
G75*
G03*
X184100000Y-61200000I0J3500000D01*
G01*
X146100000Y-30200000D02*
X146100000Y-61200000D01*
X149600000Y-64700000D02*
X180600000Y-64700000D01*
X146100000Y-61200000D02*
G75*
G03*
X149600000Y-64700000I3500000J0D01*
G01*
X184100000Y-61200000D02*
X184100000Y-60700000D01*
X225100000Y-61200000D02*
X225100000Y-30200000D01*
X190600000Y-64700000D02*
X221600000Y-64700000D01*
X187100000Y-61200000D02*
G75*
G03*
X190600000Y-64700000I3500000J0D01*
G01*
X221600000Y-64700000D02*
G75*
G03*
X225100000Y-61200000I0J3500000D01*
G01*
X190600000Y-26700000D02*
G75*
G03*
X187100000Y-30200000I0J-3500000D01*
G01*
X190600000Y-26700000D02*
X221600000Y-26700000D01*
X187100000Y-30200000D02*
X187100000Y-30700000D01*
X187100000Y-61200000D02*
X187100000Y-59400000D01*
X187100000Y-31800000D02*
X187100000Y-30700000D01*
X225100000Y-30200000D02*
G75*
G03*
X221600000Y-26700000I-3500000J0D01*
G01*
X187150000Y-48970000D02*
G75*
G03*
X184150000Y-48970000I-1500000J0D01*
G01*
X187150000Y-39570000D02*
G75*
G03*
X184150000Y-39570000I-1500000J0D01*
G01*
X187100000Y-59400000D02*
G75*
G03*
X184100000Y-59400000I-1500000J30019D01*
G01*
X184150000Y-53070000D02*
X184150000Y-48970000D01*
X184150000Y-43270000D02*
X184150000Y-39570000D01*
X184150000Y-43270000D02*
G75*
G03*
X187150000Y-43270000I1500000J0D01*
G01*
X184100000Y-31800000D02*
G75*
G03*
X187100000Y-31800000I1500000J0D01*
G01*
X187150000Y-39570000D02*
X187150000Y-43270000D01*
X187150000Y-48970000D02*
X187150000Y-53070000D01*
X184150000Y-53070000D02*
G75*
G03*
X187150000Y-53070000I1500000J0D01*
G01*
M02*
