M48
; DRILL file {KiCad (6.0.1-0)} date 2023 January 25, Wednesday 00:16:01
; FORMAT={-:-/ absolute / inch / decimal}
; #@! TF.CreationDate,2023-01-25T00:16:01+01:00
; #@! TF.GenerationSoftware,Kicad,Pcbnew,(6.0.1-0)
; #@! TF.FileFunction,Plated,1,2,PTH
FMAT,2
INCH
; #@! TA.AperFunction,Plated,PTH,ViaDrill
T1C0.0157
; #@! TA.AperFunction,Plated,PTH,ComponentDrill
T2C0.0197
; #@! TA.AperFunction,Plated,PTH,ComponentDrill
T3C0.0236
; #@! TA.AperFunction,Plated,PTH,ComponentDrill
T4C0.0300
; #@! TA.AperFunction,Plated,PTH,ComponentDrill
T5C0.0350
; #@! TA.AperFunction,Plated,PTH,ComponentDrill
T6C0.0374
; #@! TA.AperFunction,Plated,PTH,ComponentDrill
T7C0.0394
; #@! TA.AperFunction,Plated,PTH,ComponentDrill
T8C0.0402
; #@! TA.AperFunction,Plated,PTH,ComponentDrill
T9C0.0642
; #@! TA.AperFunction,Plated,PTH,ComponentDrill
T10C0.0748
; #@! TA.AperFunction,Plated,PTH,ComponentDrill
T11C0.1260
%
G90
G05
T1
X5.7874Y-1.4016
X5.7894Y-1.3327
X5.8031Y-2.0669
X5.8051Y-2.1358
X5.8091Y-2.248
X5.811Y-1.5906
X5.8602Y-1.374
X5.9094Y-2.2052
X5.9409Y-1.3563
X5.9587Y-1.7035
X5.9644Y-1.8202
X5.9894Y-1.6102
X6.0Y-2.126
X6.0079Y-1.4941
X6.0157Y-1.0787
X6.0157Y-1.2835
X6.0157Y-2.0315
X6.0217Y-1.4213
X6.0236Y-2.5177
X6.0264Y-2.1812
X6.0295Y-1.565
X6.0344Y-1.8202
X6.0374Y-1.6091
X6.0394Y-1.7362
X6.0404Y-1.8832
X6.0404Y-1.9492
X6.0472Y-2.126
X6.0512Y-1.1181
X6.0591Y-1.4378
X6.065Y-2.4311
X6.0728Y-1.4791
X6.0886Y-1.6083
X6.1024Y-2.1811
X6.1043Y-2.498
X6.1063Y-1.4469
X6.1094Y-1.8852
X6.1094Y-1.9502
X6.124Y-2.0697
X6.1244Y-1.4102
X6.1496Y-1.0787
X6.1535Y-1.4429
X6.1584Y-1.5992
X6.1732Y-2.1024
X6.1732Y-2.1811
X6.1752Y-1.7429
X6.1831Y-1.5146
X6.1844Y-1.9502
X6.187Y-1.2539
X6.2028Y-2.424
X6.2047Y-1.6102
X6.2185Y-2.0697
X6.2205Y-1.8799
X6.2205Y-2.5098
X6.2323Y-2.3059
X6.2382Y-1.7035
X6.252Y-1.2677
X6.2677Y-2.1024
X6.2677Y-2.1811
X6.2717Y-1.9921
X6.2854Y-1.735
X6.3071Y-1.0945
X6.315Y-1.2402
X6.3169Y-2.0776
X6.3209Y-2.3059
X6.3228Y-1.1732
X6.3307Y-2.0236
X6.3504Y-2.4535
X6.3543Y-2.1024
X6.3543Y-2.1811
X6.378Y-1.1575
X6.378Y-2.0394
X6.3894Y-1.7152
X6.3917Y-1.6425
X6.4035Y-1.5382
X6.4035Y-1.6012
X6.4044Y-1.4802
X6.4044Y-1.8552
X6.4252Y-2.0157
X6.4252Y-2.063
X6.4252Y-2.1024
X6.4252Y-2.1811
X6.4291Y-1.9606
X6.4311Y-1.3642
X6.4344Y-1.4802
X6.4344Y-1.5252
X6.4344Y-1.5752
X6.4344Y-1.6352
X6.4344Y-1.6852
X6.437Y-2.5079
X6.4409Y-1.0945
X6.4794Y-2.3052
X6.4882Y-2.1811
X6.4994Y-1.4552
X6.5144Y-1.3802
X6.5144Y-2.3052
X6.5276Y-1.2362
X6.5492Y-1.361
X6.5571Y-2.5098
X6.5804Y-2.1812
X6.628Y-1.361
X6.6299Y-1.0787
X6.6404Y-2.1812
X6.6744Y-2.1412
X6.6752Y-2.3157
X6.6791Y-1.3071
X6.6791Y-2.5098
X6.7028Y-1.0748
X6.7185Y-1.1476
X6.7224Y-1.2244
X6.7382Y-1.3563
X6.7664Y-2.3032
X6.8228Y-2.1484
X6.8445Y-1.4575
X6.8602Y-2.2154
X6.876Y-2.176
X6.8917Y-2.2961
X6.9016Y-2.424
X6.9311Y-1.4634
X6.9409Y-2.498
X6.9488Y-1.1575
X6.9646Y-1.2736
X6.9744Y-1.0827
X7.0138Y-1.3169
X7.0374Y-1.4724
X7.0512Y-2.128
X7.0794Y-1.7402
X7.0794Y-1.8202
X7.0794Y-1.8952
X7.0886Y-1.4862
X7.1083Y-1.5874
X7.1654Y-2.248
X7.2047Y-1.3327
X7.2047Y-2.2047
X7.2224Y-1.5185
X7.2224Y-1.7252
X7.2224Y-2.115
X7.2244Y-1.9004
X7.3944Y-1.5752
X7.3944Y-1.6952
X7.3944Y-1.8512
X7.3944Y-2.0152
X7.3944Y-2.2802
X7.3994Y-2.1452
X7.4094Y-1.3302
X7.4234Y-1.9042
X7.4444Y-2.0122
X7.4524Y-1.8692
X7.4944Y-2.1752
X7.5344Y-2.1552
X7.5344Y-2.2502
X7.5494Y-1.5152
X7.5494Y-1.5952
X7.5684Y-1.7692
X7.5744Y-1.6352
X7.5794Y-2.1952
X7.5864Y-1.6832
X7.5894Y-1.7302
X7.5894Y-2.0972
X7.6044Y-1.5002
X7.6083Y-1.5972
X7.6244Y-1.8112
X7.6244Y-1.8502
X7.6244Y-1.8952
X7.6244Y-2.0002
X7.6294Y-2.2952
X7.6332Y-1.9614
X7.6348Y-1.6356
X7.6413Y-1.0894
X7.6604Y-1.3312
X7.6624Y-1.1592
X7.6694Y-1.8452
X7.6744Y-2.1902
X7.6844Y-2.0152
X7.6994Y-1.9652
X7.7091Y-1.6827
X7.7294Y-2.0202
X7.7394Y-2.1752
X7.7394Y-2.2102
X7.7394Y-2.2452
X7.7492Y-1.8024
X7.7704Y-1.1572
X7.7776Y-2.3945
X7.7776Y-2.4831
X7.7844Y-1.9602
X7.7953Y-1.6839
X7.7994Y-1.8052
X7.8044Y-1.8652
X7.8264Y-2.1332
X7.8364Y-1.9572
X7.8563Y-2.3945
X7.8563Y-2.4831
X7.8671Y-1.6346
X7.8724Y-2.1032
X7.8728Y-1.7244
X7.8791Y-1.0957
X7.8794Y-2.1452
X7.9012Y-1.5071
X7.9039Y-1.6925
X7.9197Y-1.3488
X7.9327Y-1.572
X7.935Y-2.3945
X7.935Y-2.4831
X7.9587Y-1.2114
X7.9587Y-1.2508
X7.9587Y-1.2902
X7.9598Y-1.9705
X7.9644Y-2.1452
X7.9831Y-1.7823
X7.9929Y-2.2287
X7.9992Y-1.3528
X8.0Y-1.9268
X8.0079Y-1.585
X8.0315Y-1.0807
X8.0323Y-1.1165
X8.0327Y-1.1512
X8.0366Y-2.1638
X8.0445Y-2.0496
X8.0492Y-1.5118
X8.0494Y-1.1852
X8.0504Y-2.4132
X8.0524Y-2.2692
X8.0579Y-1.9469
X8.0624Y-2.1972
X8.0752Y-1.2488
X8.0764Y-2.0932
X8.0784Y-2.1572
X8.0862Y-1.587
X8.0866Y-1.8531
X8.1087Y-2.0551
X8.1102Y-1.361
X8.1185Y-1.4091
X8.1264Y-1.7512
X8.1378Y-1.8335
X8.1444Y-2.4052
X8.1453Y-2.1315
X8.1461Y-2.0756
X8.1504Y-2.3072
X8.1642Y-1.5819
X8.1673Y-1.1705
X8.1752Y-1.3492
X8.1776Y-2.2378
X8.1924Y-1.8352
X8.2104Y-1.3952
X8.2104Y-1.4292
X8.2104Y-1.4632
X8.2104Y-1.4972
X8.2358Y-1.5815
X8.2444Y-1.3952
X8.2444Y-1.4292
X8.2444Y-1.4632
X8.2444Y-1.4972
X8.2684Y-1.6772
X8.2744Y-1.7472
X8.2784Y-1.3952
X8.2784Y-1.4292
X8.2784Y-1.4632
X8.2784Y-1.4972
X8.2784Y-1.9292
X8.2804Y-1.8292
X8.2894Y-1.5835
X8.3124Y-1.3952
X8.3124Y-1.4292
X8.3124Y-1.4632
X8.3124Y-1.4972
X8.3124Y-2.2372
X8.3444Y-2.1302
X8.3484Y-1.3492
X8.3494Y-2.0302
X8.3583Y-1.1665
X8.3688Y-1.5508
X8.3704Y-1.8632
X8.3724Y-1.6712
X8.3724Y-1.7472
X8.3794Y-1.9752
X8.4104Y-1.6712
X8.4104Y-1.7472
X8.4124Y-2.1992
X8.4134Y-1.3453
X8.4294Y-1.9252
X8.4425Y-1.2445
X8.4544Y-1.9852
X8.4564Y-1.8612
X8.4744Y-1.1852
X8.4744Y-1.4004
X8.4844Y-1.0802
X8.4844Y-1.1152
X8.4844Y-1.1502
X8.4862Y-2.1972
X8.5118Y-1.5067
X8.5118Y-1.6484
X8.5118Y-1.739
X8.5364Y-2.2432
X8.561Y-1.2154
X8.561Y-1.2508
X8.561Y-1.2902
X8.5664Y-1.1052
X8.5866Y-2.2862
X8.5925Y-1.3217
X8.6102Y-1.6756
X8.6618Y-1.7248
X8.6921Y-1.6185
X8.6994Y-1.9402
X8.7185Y-1.4516
X8.7185Y-1.5146
X8.7185Y-1.5776
X8.7264Y-1.7941
X8.748Y-2.0205
X8.748Y-2.0657
X8.748Y-2.113
X8.7567Y-1.6823
X8.7665Y-1.85
X8.8012Y-1.3413
X8.8012Y-1.3768
X8.8012Y-1.4122
X8.8189Y-1.5079
X8.8194Y-1.5802
X8.8194Y-1.6602
X8.8194Y-1.7402
X8.8294Y-2.2752
T2
X5.7953Y-1.189
X5.7953Y-2.4094
X5.823Y-1.1222
X5.823Y-1.2558
X5.823Y-2.3426
X5.823Y-2.4763
X5.8898Y-1.0945
X5.8898Y-1.2835
X5.8898Y-2.315
X5.8898Y-2.5039
X5.9566Y-1.1222
X5.9566Y-1.2558
X5.9566Y-2.3426
X5.9566Y-2.4763
X5.9843Y-1.189
X5.9843Y-2.4094
X7.0157Y-1.189
X7.0157Y-2.4094
X7.0434Y-1.1222
X7.0434Y-1.2558
X7.0434Y-2.3426
X7.0434Y-2.4763
X7.1102Y-1.0945
X7.1102Y-1.2835
X7.1102Y-2.315
X7.1102Y-2.5039
X7.177Y-1.1222
X7.177Y-1.2558
X7.177Y-2.3426
X7.177Y-2.4763
X7.2047Y-1.189
X7.2047Y-2.4094
X7.4094Y-1.189
X7.4094Y-2.4094
X7.4371Y-1.1222
X7.4371Y-1.2558
X7.4371Y-2.3426
X7.4371Y-2.4763
X7.5039Y-1.0945
X7.5039Y-1.2835
X7.5039Y-2.315
X7.5039Y-2.5039
X7.5708Y-1.1222
X7.5708Y-1.2558
X7.5708Y-2.3426
X7.5708Y-2.4763
X7.5984Y-1.189
X7.5984Y-2.4094
X8.6299Y-1.189
X8.6299Y-2.4085
X8.6576Y-1.1222
X8.6576Y-1.2558
X8.6576Y-2.3417
X8.6576Y-2.4753
X8.7244Y-1.0945
X8.7244Y-1.2835
X8.7244Y-2.314
X8.7244Y-2.503
X8.7912Y-1.1222
X8.7912Y-1.2558
X8.7912Y-2.3417
X8.7912Y-2.4753
X8.8189Y-1.189
X8.8189Y-2.4085
T4
X8.813Y-1.9778
X8.813Y-2.0778
X8.813Y-2.1778
T5
X6.5142Y-1.6244
X6.5142Y-1.7244
X6.5142Y-1.8244
X6.5142Y-1.9244
X6.6142Y-1.6744
X6.6142Y-1.7744
X6.6142Y-1.8744
X6.6142Y-1.9744
T6
X6.1831Y-2.3538
X6.2815Y-2.3538
X6.3799Y-2.3538
X6.626Y-2.3538
X6.7244Y-2.3538
X6.8228Y-2.3538
X8.1122Y-1.1261
X8.2106Y-1.1261
X8.3091Y-1.1261
X8.4075Y-1.1261
T7
X5.811Y-1.6496
X5.811Y-1.7496
X5.811Y-1.8496
X5.811Y-1.9496
X6.5944Y-1.4102
X6.6944Y-1.4102
X6.7944Y-1.4102
X6.7953Y-1.1071
X6.7953Y-1.2071
X6.7953Y-1.3071
X6.8944Y-1.4102
X6.8953Y-1.1071
X6.8953Y-1.2071
X6.8953Y-1.3071
X6.9944Y-1.4102
X7.0944Y-1.4102
X7.5194Y-1.4102
X7.6194Y-1.4102
X7.7189Y-1.1071
X7.7189Y-1.2071
X7.7189Y-1.3071
X7.7194Y-1.4102
X7.8189Y-1.1071
X7.8189Y-1.2071
X7.8189Y-1.3071
X7.8194Y-1.4102
X7.9194Y-1.4102
X8.0194Y-1.4102
X8.126Y-2.4843
X8.5591Y-2.4843
T8
X7.0571Y-1.5384
X7.0571Y-1.6384
X7.0571Y-1.96
X7.0571Y-2.06
T9
X6.7441Y-1.4943
X6.7441Y-2.1041
T10
X8.2441Y-2.0906
X8.4409Y-2.0906
T11
X5.8898Y-1.189
X5.8898Y-2.4094
X7.1102Y-1.189
X7.1102Y-2.4094
X7.5039Y-1.189
X7.5039Y-2.4094
X8.7244Y-1.189
X8.7244Y-2.4085
T3
G00X7.6843Y-2.3174
M15
G01X7.6843Y-2.3607
M16
G05
G00X7.6843Y-2.4918
M15
G01X7.6843Y-2.5154
M16
G05
G00X8.0245Y-2.3174
M15
G01X8.0245Y-2.3607
M16
G05
G00X8.0245Y-2.4918
M15
G01X8.0245Y-2.5154
M16
G05
T0
M30
