%TF.GenerationSoftware,KiCad,Pcbnew,(5.1.8-0-10_14)*%
%TF.CreationDate,2021-08-18T13:43:01+02:00*%
%TF.ProjectId,ethersweep,65746865-7273-4776-9565-702e6b696361,2.0.1*%
%TF.SameCoordinates,Original*%
%TF.FileFunction,Paste,Top*%
%TF.FilePolarity,Positive*%
%FSLAX46Y46*%
G04 Gerber Fmt 4.6, Leading zero omitted, Abs format (unit mm)*
G04 Created by KiCad (PCBNEW (5.1.8-0-10_14)) date 2021-08-18 13:43:01*
%MOMM*%
%LPD*%
G01*
G04 APERTURE LIST*
%TA.AperFunction,Profile*%
%ADD10C,0.150000*%
%TD*%
%ADD11R,0.550000X1.600000*%
%ADD12R,1.600000X0.550000*%
%ADD13R,2.000000X2.400000*%
%ADD14R,1.400000X1.200000*%
G04 APERTURE END LIST*
D10*
X198000000Y-81000000D02*
G75*
G02*
X201500000Y-84500000I0J-3500000D01*
G01*
X160500000Y-115500000D02*
X160500000Y-113900000D01*
X163500000Y-86600000D02*
X163500000Y-85000000D01*
X163500000Y-86600000D02*
G75*
G02*
X160500000Y-86600000I-1500000J0D01*
G01*
X163500000Y-115500000D02*
X163500000Y-113900000D01*
X160500000Y-86600000D02*
X160500000Y-85000000D01*
X160500000Y-113900000D02*
G75*
G02*
X163500000Y-113900000I1500000J0D01*
G01*
X163500000Y-98000000D02*
G75*
G02*
X160500000Y-98000000I-1500000J0D01*
G01*
X160500000Y-91000000D02*
G75*
G02*
X163500000Y-91000000I1500000J0D01*
G01*
X163500000Y-98000000D02*
X163500000Y-91000000D01*
X160500000Y-109500000D02*
X160500000Y-102400000D01*
X160500000Y-102400000D02*
G75*
G02*
X163500000Y-102400000I1500000J0D01*
G01*
X160500000Y-98000000D02*
X160500000Y-91000000D01*
X163500000Y-109500000D02*
X163500000Y-102400000D01*
X163500000Y-109500000D02*
G75*
G02*
X160500000Y-109500000I-1500000J0D01*
G01*
X160500000Y-116000000D02*
X160500000Y-115500000D01*
X163500000Y-84500000D02*
X163500000Y-85000000D01*
X151100000Y-110800000D02*
G75*
G03*
X151100000Y-110800000I-1500000J0D01*
G01*
X126000000Y-119500000D02*
G75*
G02*
X122500000Y-116000000I0J3500000D01*
G01*
X126000000Y-119500000D02*
X157000000Y-119500000D01*
X167000000Y-81000000D02*
X198000000Y-81000000D01*
X163500000Y-84500000D02*
G75*
G02*
X167000000Y-81000000I3500000J0D01*
G01*
X201500000Y-115500000D02*
G75*
G02*
X198000000Y-119000000I-3500000J0D01*
G01*
X167000000Y-119000000D02*
G75*
G02*
X163500000Y-115500000I0J3500000D01*
G01*
X167000000Y-119000000D02*
X198000000Y-119000000D01*
X201500000Y-115500000D02*
X201500000Y-84500000D01*
X122500000Y-85000000D02*
X122500000Y-116000000D01*
X160500000Y-116000000D02*
G75*
G02*
X157000000Y-119500000I-3500000J0D01*
G01*
X157000000Y-81500000D02*
G75*
G02*
X160500000Y-85000000I0J-3500000D01*
G01*
X122500000Y-85000000D02*
G75*
G02*
X126000000Y-81500000I3500000J0D01*
G01*
X157000000Y-81500000D02*
X126000000Y-81500000D01*
G36*
G01*
X188800000Y-97400000D02*
X188800000Y-95400000D01*
G75*
G02*
X189050000Y-95150000I250000J0D01*
G01*
X192050000Y-95150000D01*
G75*
G02*
X192300000Y-95400000I0J-250000D01*
G01*
X192300000Y-97400000D01*
G75*
G02*
X192050000Y-97650000I-250000J0D01*
G01*
X189050000Y-97650000D01*
G75*
G02*
X188800000Y-97400000I0J250000D01*
G01*
G37*
G36*
G01*
X195300000Y-97400000D02*
X195300000Y-95400000D01*
G75*
G02*
X195550000Y-95150000I250000J0D01*
G01*
X198550000Y-95150000D01*
G75*
G02*
X198800000Y-95400000I0J-250000D01*
G01*
X198800000Y-97400000D01*
G75*
G02*
X198550000Y-97650000I-250000J0D01*
G01*
X195550000Y-97650000D01*
G75*
G02*
X195300000Y-97400000I0J250000D01*
G01*
G37*
G36*
G01*
X174700000Y-93475000D02*
X174700000Y-92525000D01*
G75*
G02*
X174950000Y-92275000I250000J0D01*
G01*
X175450000Y-92275000D01*
G75*
G02*
X175700000Y-92525000I0J-250000D01*
G01*
X175700000Y-93475000D01*
G75*
G02*
X175450000Y-93725000I-250000J0D01*
G01*
X174950000Y-93725000D01*
G75*
G02*
X174700000Y-93475000I0J250000D01*
G01*
G37*
G36*
G01*
X172800000Y-93475000D02*
X172800000Y-92525000D01*
G75*
G02*
X173050000Y-92275000I250000J0D01*
G01*
X173550000Y-92275000D01*
G75*
G02*
X173800000Y-92525000I0J-250000D01*
G01*
X173800000Y-93475000D01*
G75*
G02*
X173550000Y-93725000I-250000J0D01*
G01*
X173050000Y-93725000D01*
G75*
G02*
X172800000Y-93475000I0J250000D01*
G01*
G37*
G36*
G01*
X168070000Y-107000000D02*
X167730000Y-107000000D01*
G75*
G02*
X167590000Y-106860000I0J140000D01*
G01*
X167590000Y-106580000D01*
G75*
G02*
X167730000Y-106440000I140000J0D01*
G01*
X168070000Y-106440000D01*
G75*
G02*
X168210000Y-106580000I0J-140000D01*
G01*
X168210000Y-106860000D01*
G75*
G02*
X168070000Y-107000000I-140000J0D01*
G01*
G37*
G36*
G01*
X168070000Y-107960000D02*
X167730000Y-107960000D01*
G75*
G02*
X167590000Y-107820000I0J140000D01*
G01*
X167590000Y-107540000D01*
G75*
G02*
X167730000Y-107400000I140000J0D01*
G01*
X168070000Y-107400000D01*
G75*
G02*
X168210000Y-107540000I0J-140000D01*
G01*
X168210000Y-107820000D01*
G75*
G02*
X168070000Y-107960000I-140000J0D01*
G01*
G37*
G36*
G01*
X175330000Y-106440000D02*
X175670000Y-106440000D01*
G75*
G02*
X175810000Y-106580000I0J-140000D01*
G01*
X175810000Y-106860000D01*
G75*
G02*
X175670000Y-107000000I-140000J0D01*
G01*
X175330000Y-107000000D01*
G75*
G02*
X175190000Y-106860000I0J140000D01*
G01*
X175190000Y-106580000D01*
G75*
G02*
X175330000Y-106440000I140000J0D01*
G01*
G37*
G36*
G01*
X175330000Y-107400000D02*
X175670000Y-107400000D01*
G75*
G02*
X175810000Y-107540000I0J-140000D01*
G01*
X175810000Y-107820000D01*
G75*
G02*
X175670000Y-107960000I-140000J0D01*
G01*
X175330000Y-107960000D01*
G75*
G02*
X175190000Y-107820000I0J140000D01*
G01*
X175190000Y-107540000D01*
G75*
G02*
X175330000Y-107400000I140000J0D01*
G01*
G37*
G36*
G01*
X184450000Y-102225000D02*
X184450000Y-103175000D01*
G75*
G02*
X184200000Y-103425000I-250000J0D01*
G01*
X183700000Y-103425000D01*
G75*
G02*
X183450000Y-103175000I0J250000D01*
G01*
X183450000Y-102225000D01*
G75*
G02*
X183700000Y-101975000I250000J0D01*
G01*
X184200000Y-101975000D01*
G75*
G02*
X184450000Y-102225000I0J-250000D01*
G01*
G37*
G36*
G01*
X182550000Y-102225000D02*
X182550000Y-103175000D01*
G75*
G02*
X182300000Y-103425000I-250000J0D01*
G01*
X181800000Y-103425000D01*
G75*
G02*
X181550000Y-103175000I0J250000D01*
G01*
X181550000Y-102225000D01*
G75*
G02*
X181800000Y-101975000I250000J0D01*
G01*
X182300000Y-101975000D01*
G75*
G02*
X182550000Y-102225000I0J-250000D01*
G01*
G37*
G36*
G01*
X190175000Y-115775000D02*
X190175000Y-115225000D01*
G75*
G02*
X190375000Y-115025000I200000J0D01*
G01*
X190775000Y-115025000D01*
G75*
G02*
X190975000Y-115225000I0J-200000D01*
G01*
X190975000Y-115775000D01*
G75*
G02*
X190775000Y-115975000I-200000J0D01*
G01*
X190375000Y-115975000D01*
G75*
G02*
X190175000Y-115775000I0J200000D01*
G01*
G37*
G36*
G01*
X191825000Y-115775000D02*
X191825000Y-115225000D01*
G75*
G02*
X192025000Y-115025000I200000J0D01*
G01*
X192425000Y-115025000D01*
G75*
G02*
X192625000Y-115225000I0J-200000D01*
G01*
X192625000Y-115775000D01*
G75*
G02*
X192425000Y-115975000I-200000J0D01*
G01*
X192025000Y-115975000D01*
G75*
G02*
X191825000Y-115775000I0J200000D01*
G01*
G37*
D11*
X168700000Y-103750000D03*
X169500000Y-103750000D03*
X170300000Y-103750000D03*
X171100000Y-103750000D03*
X171900000Y-103750000D03*
X172700000Y-103750000D03*
X173500000Y-103750000D03*
X174300000Y-103750000D03*
D12*
X175750000Y-102300000D03*
X175750000Y-101500000D03*
X175750000Y-100700000D03*
X175750000Y-99900000D03*
X175750000Y-99100000D03*
X175750000Y-98300000D03*
X175750000Y-97500000D03*
X175750000Y-96700000D03*
D11*
X174300000Y-95250000D03*
X173500000Y-95250000D03*
X172700000Y-95250000D03*
X171900000Y-95250000D03*
X171100000Y-95250000D03*
X170300000Y-95250000D03*
X169500000Y-95250000D03*
X168700000Y-95250000D03*
D12*
X167250000Y-96700000D03*
X167250000Y-97500000D03*
X167250000Y-98300000D03*
X167250000Y-99100000D03*
X167250000Y-99900000D03*
X167250000Y-100700000D03*
X167250000Y-101500000D03*
X167250000Y-102300000D03*
G36*
G01*
X164475000Y-96775000D02*
X165025000Y-96775000D01*
G75*
G02*
X165225000Y-96975000I0J-200000D01*
G01*
X165225000Y-97375000D01*
G75*
G02*
X165025000Y-97575000I-200000J0D01*
G01*
X164475000Y-97575000D01*
G75*
G02*
X164275000Y-97375000I0J200000D01*
G01*
X164275000Y-96975000D01*
G75*
G02*
X164475000Y-96775000I200000J0D01*
G01*
G37*
G36*
G01*
X164475000Y-98425000D02*
X165025000Y-98425000D01*
G75*
G02*
X165225000Y-98625000I0J-200000D01*
G01*
X165225000Y-99025000D01*
G75*
G02*
X165025000Y-99225000I-200000J0D01*
G01*
X164475000Y-99225000D01*
G75*
G02*
X164275000Y-99025000I0J200000D01*
G01*
X164275000Y-98625000D01*
G75*
G02*
X164475000Y-98425000I200000J0D01*
G01*
G37*
G36*
G01*
X178925000Y-98425000D02*
X179475000Y-98425000D01*
G75*
G02*
X179675000Y-98625000I0J-200000D01*
G01*
X179675000Y-99025000D01*
G75*
G02*
X179475000Y-99225000I-200000J0D01*
G01*
X178925000Y-99225000D01*
G75*
G02*
X178725000Y-99025000I0J200000D01*
G01*
X178725000Y-98625000D01*
G75*
G02*
X178925000Y-98425000I200000J0D01*
G01*
G37*
G36*
G01*
X178925000Y-96775000D02*
X179475000Y-96775000D01*
G75*
G02*
X179675000Y-96975000I0J-200000D01*
G01*
X179675000Y-97375000D01*
G75*
G02*
X179475000Y-97575000I-200000J0D01*
G01*
X178925000Y-97575000D01*
G75*
G02*
X178725000Y-97375000I0J200000D01*
G01*
X178725000Y-96975000D01*
G75*
G02*
X178925000Y-96775000I200000J0D01*
G01*
G37*
G36*
G01*
X165075000Y-92775000D02*
X164525000Y-92775000D01*
G75*
G02*
X164325000Y-92575000I0J200000D01*
G01*
X164325000Y-92175000D01*
G75*
G02*
X164525000Y-91975000I200000J0D01*
G01*
X165075000Y-91975000D01*
G75*
G02*
X165275000Y-92175000I0J-200000D01*
G01*
X165275000Y-92575000D01*
G75*
G02*
X165075000Y-92775000I-200000J0D01*
G01*
G37*
G36*
G01*
X165075000Y-94425000D02*
X164525000Y-94425000D01*
G75*
G02*
X164325000Y-94225000I0J200000D01*
G01*
X164325000Y-93825000D01*
G75*
G02*
X164525000Y-93625000I200000J0D01*
G01*
X165075000Y-93625000D01*
G75*
G02*
X165275000Y-93825000I0J-200000D01*
G01*
X165275000Y-94225000D01*
G75*
G02*
X165075000Y-94425000I-200000J0D01*
G01*
G37*
G36*
G01*
X167075000Y-94425000D02*
X166525000Y-94425000D01*
G75*
G02*
X166325000Y-94225000I0J200000D01*
G01*
X166325000Y-93825000D01*
G75*
G02*
X166525000Y-93625000I200000J0D01*
G01*
X167075000Y-93625000D01*
G75*
G02*
X167275000Y-93825000I0J-200000D01*
G01*
X167275000Y-94225000D01*
G75*
G02*
X167075000Y-94425000I-200000J0D01*
G01*
G37*
G36*
G01*
X167075000Y-92775000D02*
X166525000Y-92775000D01*
G75*
G02*
X166325000Y-92575000I0J200000D01*
G01*
X166325000Y-92175000D01*
G75*
G02*
X166525000Y-91975000I200000J0D01*
G01*
X167075000Y-91975000D01*
G75*
G02*
X167275000Y-92175000I0J-200000D01*
G01*
X167275000Y-92575000D01*
G75*
G02*
X167075000Y-92775000I-200000J0D01*
G01*
G37*
G36*
G01*
X146275000Y-86825000D02*
X145725000Y-86825000D01*
G75*
G02*
X145525000Y-86625000I0J200000D01*
G01*
X145525000Y-86225000D01*
G75*
G02*
X145725000Y-86025000I200000J0D01*
G01*
X146275000Y-86025000D01*
G75*
G02*
X146475000Y-86225000I0J-200000D01*
G01*
X146475000Y-86625000D01*
G75*
G02*
X146275000Y-86825000I-200000J0D01*
G01*
G37*
G36*
G01*
X146275000Y-85175000D02*
X145725000Y-85175000D01*
G75*
G02*
X145525000Y-84975000I0J200000D01*
G01*
X145525000Y-84575000D01*
G75*
G02*
X145725000Y-84375000I200000J0D01*
G01*
X146275000Y-84375000D01*
G75*
G02*
X146475000Y-84575000I0J-200000D01*
G01*
X146475000Y-84975000D01*
G75*
G02*
X146275000Y-85175000I-200000J0D01*
G01*
G37*
D13*
X173550000Y-107100000D03*
X169850000Y-107100000D03*
G36*
G01*
X190180001Y-112430001D02*
X190180001Y-111880001D01*
G75*
G02*
X190380001Y-111680001I200000J0D01*
G01*
X190780001Y-111680001D01*
G75*
G02*
X190980001Y-111880001I0J-200000D01*
G01*
X190980001Y-112430001D01*
G75*
G02*
X190780001Y-112630001I-200000J0D01*
G01*
X190380001Y-112630001D01*
G75*
G02*
X190180001Y-112430001I0J200000D01*
G01*
G37*
G36*
G01*
X191830001Y-112430001D02*
X191830001Y-111880001D01*
G75*
G02*
X192030001Y-111680001I200000J0D01*
G01*
X192430001Y-111680001D01*
G75*
G02*
X192630001Y-111880001I0J-200000D01*
G01*
X192630001Y-112430001D01*
G75*
G02*
X192430001Y-112630001I-200000J0D01*
G01*
X192030001Y-112630001D01*
G75*
G02*
X191830001Y-112430001I0J200000D01*
G01*
G37*
G36*
G01*
X190975000Y-113525000D02*
X190975000Y-114075000D01*
G75*
G02*
X190775000Y-114275000I-200000J0D01*
G01*
X190375000Y-114275000D01*
G75*
G02*
X190175000Y-114075000I0J200000D01*
G01*
X190175000Y-113525000D01*
G75*
G02*
X190375000Y-113325000I200000J0D01*
G01*
X190775000Y-113325000D01*
G75*
G02*
X190975000Y-113525000I0J-200000D01*
G01*
G37*
G36*
G01*
X192625000Y-113525000D02*
X192625000Y-114075000D01*
G75*
G02*
X192425000Y-114275000I-200000J0D01*
G01*
X192025000Y-114275000D01*
G75*
G02*
X191825000Y-114075000I0J200000D01*
G01*
X191825000Y-113525000D01*
G75*
G02*
X192025000Y-113325000I200000J0D01*
G01*
X192425000Y-113325000D01*
G75*
G02*
X192625000Y-113525000I0J-200000D01*
G01*
G37*
G36*
G01*
X147125000Y-110374998D02*
X147125000Y-111625002D01*
G75*
G02*
X146875002Y-111875000I-249998J0D01*
G01*
X146249998Y-111875000D01*
G75*
G02*
X146000000Y-111625002I0J249998D01*
G01*
X146000000Y-110374998D01*
G75*
G02*
X146249998Y-110125000I249998J0D01*
G01*
X146875002Y-110125000D01*
G75*
G02*
X147125000Y-110374998I0J-249998D01*
G01*
G37*
G36*
G01*
X144200000Y-110374998D02*
X144200000Y-111625002D01*
G75*
G02*
X143950002Y-111875000I-249998J0D01*
G01*
X143324998Y-111875000D01*
G75*
G02*
X143075000Y-111625002I0J249998D01*
G01*
X143075000Y-110374998D01*
G75*
G02*
X143324998Y-110125000I249998J0D01*
G01*
X143950002Y-110125000D01*
G75*
G02*
X144200000Y-110374998I0J-249998D01*
G01*
G37*
G36*
G01*
X136575000Y-105025000D02*
X136025000Y-105025000D01*
G75*
G02*
X135825000Y-104825000I0J200000D01*
G01*
X135825000Y-104425000D01*
G75*
G02*
X136025000Y-104225000I200000J0D01*
G01*
X136575000Y-104225000D01*
G75*
G02*
X136775000Y-104425000I0J-200000D01*
G01*
X136775000Y-104825000D01*
G75*
G02*
X136575000Y-105025000I-200000J0D01*
G01*
G37*
G36*
G01*
X136575000Y-103375000D02*
X136025000Y-103375000D01*
G75*
G02*
X135825000Y-103175000I0J200000D01*
G01*
X135825000Y-102775000D01*
G75*
G02*
X136025000Y-102575000I200000J0D01*
G01*
X136575000Y-102575000D01*
G75*
G02*
X136775000Y-102775000I0J-200000D01*
G01*
X136775000Y-103175000D01*
G75*
G02*
X136575000Y-103375000I-200000J0D01*
G01*
G37*
G36*
G01*
X134150000Y-104675000D02*
X134650000Y-104675000D01*
G75*
G02*
X134875000Y-104900000I0J-225000D01*
G01*
X134875000Y-105350000D01*
G75*
G02*
X134650000Y-105575000I-225000J0D01*
G01*
X134150000Y-105575000D01*
G75*
G02*
X133925000Y-105350000I0J225000D01*
G01*
X133925000Y-104900000D01*
G75*
G02*
X134150000Y-104675000I225000J0D01*
G01*
G37*
G36*
G01*
X134150000Y-103125000D02*
X134650000Y-103125000D01*
G75*
G02*
X134875000Y-103350000I0J-225000D01*
G01*
X134875000Y-103800000D01*
G75*
G02*
X134650000Y-104025000I-225000J0D01*
G01*
X134150000Y-104025000D01*
G75*
G02*
X133925000Y-103800000I0J225000D01*
G01*
X133925000Y-103350000D01*
G75*
G02*
X134150000Y-103125000I225000J0D01*
G01*
G37*
G36*
G01*
X136740000Y-93870000D02*
X136740000Y-93530000D01*
G75*
G02*
X136880000Y-93390000I140000J0D01*
G01*
X137160000Y-93390000D01*
G75*
G02*
X137300000Y-93530000I0J-140000D01*
G01*
X137300000Y-93870000D01*
G75*
G02*
X137160000Y-94010000I-140000J0D01*
G01*
X136880000Y-94010000D01*
G75*
G02*
X136740000Y-93870000I0J140000D01*
G01*
G37*
G36*
G01*
X137700000Y-93870000D02*
X137700000Y-93530000D01*
G75*
G02*
X137840000Y-93390000I140000J0D01*
G01*
X138120000Y-93390000D01*
G75*
G02*
X138260000Y-93530000I0J-140000D01*
G01*
X138260000Y-93870000D01*
G75*
G02*
X138120000Y-94010000I-140000J0D01*
G01*
X137840000Y-94010000D01*
G75*
G02*
X137700000Y-93870000I0J140000D01*
G01*
G37*
G36*
G01*
X138600000Y-94870000D02*
X138600000Y-94530000D01*
G75*
G02*
X138740000Y-94390000I140000J0D01*
G01*
X139020000Y-94390000D01*
G75*
G02*
X139160000Y-94530000I0J-140000D01*
G01*
X139160000Y-94870000D01*
G75*
G02*
X139020000Y-95010000I-140000J0D01*
G01*
X138740000Y-95010000D01*
G75*
G02*
X138600000Y-94870000I0J140000D01*
G01*
G37*
G36*
G01*
X137640000Y-94870000D02*
X137640000Y-94530000D01*
G75*
G02*
X137780000Y-94390000I140000J0D01*
G01*
X138060000Y-94390000D01*
G75*
G02*
X138200000Y-94530000I0J-140000D01*
G01*
X138200000Y-94870000D01*
G75*
G02*
X138060000Y-95010000I-140000J0D01*
G01*
X137780000Y-95010000D01*
G75*
G02*
X137640000Y-94870000I0J140000D01*
G01*
G37*
G36*
G01*
X135270000Y-89160000D02*
X134930000Y-89160000D01*
G75*
G02*
X134790000Y-89020000I0J140000D01*
G01*
X134790000Y-88740000D01*
G75*
G02*
X134930000Y-88600000I140000J0D01*
G01*
X135270000Y-88600000D01*
G75*
G02*
X135410000Y-88740000I0J-140000D01*
G01*
X135410000Y-89020000D01*
G75*
G02*
X135270000Y-89160000I-140000J0D01*
G01*
G37*
G36*
G01*
X135270000Y-88200000D02*
X134930000Y-88200000D01*
G75*
G02*
X134790000Y-88060000I0J140000D01*
G01*
X134790000Y-87780000D01*
G75*
G02*
X134930000Y-87640000I140000J0D01*
G01*
X135270000Y-87640000D01*
G75*
G02*
X135410000Y-87780000I0J-140000D01*
G01*
X135410000Y-88060000D01*
G75*
G02*
X135270000Y-88200000I-140000J0D01*
G01*
G37*
G36*
G01*
X134800000Y-99270000D02*
X134800000Y-98930000D01*
G75*
G02*
X134940000Y-98790000I140000J0D01*
G01*
X135220000Y-98790000D01*
G75*
G02*
X135360000Y-98930000I0J-140000D01*
G01*
X135360000Y-99270000D01*
G75*
G02*
X135220000Y-99410000I-140000J0D01*
G01*
X134940000Y-99410000D01*
G75*
G02*
X134800000Y-99270000I0J140000D01*
G01*
G37*
G36*
G01*
X133840000Y-99270000D02*
X133840000Y-98930000D01*
G75*
G02*
X133980000Y-98790000I140000J0D01*
G01*
X134260000Y-98790000D01*
G75*
G02*
X134400000Y-98930000I0J-140000D01*
G01*
X134400000Y-99270000D01*
G75*
G02*
X134260000Y-99410000I-140000J0D01*
G01*
X133980000Y-99410000D01*
G75*
G02*
X133840000Y-99270000I0J140000D01*
G01*
G37*
G36*
G01*
X126730000Y-97800000D02*
X127070000Y-97800000D01*
G75*
G02*
X127210000Y-97940000I0J-140000D01*
G01*
X127210000Y-98220000D01*
G75*
G02*
X127070000Y-98360000I-140000J0D01*
G01*
X126730000Y-98360000D01*
G75*
G02*
X126590000Y-98220000I0J140000D01*
G01*
X126590000Y-97940000D01*
G75*
G02*
X126730000Y-97800000I140000J0D01*
G01*
G37*
G36*
G01*
X126730000Y-96840000D02*
X127070000Y-96840000D01*
G75*
G02*
X127210000Y-96980000I0J-140000D01*
G01*
X127210000Y-97260000D01*
G75*
G02*
X127070000Y-97400000I-140000J0D01*
G01*
X126730000Y-97400000D01*
G75*
G02*
X126590000Y-97260000I0J140000D01*
G01*
X126590000Y-96980000D01*
G75*
G02*
X126730000Y-96840000I140000J0D01*
G01*
G37*
G36*
G01*
X137700000Y-95970000D02*
X137700000Y-95630000D01*
G75*
G02*
X137840000Y-95490000I140000J0D01*
G01*
X138120000Y-95490000D01*
G75*
G02*
X138260000Y-95630000I0J-140000D01*
G01*
X138260000Y-95970000D01*
G75*
G02*
X138120000Y-96110000I-140000J0D01*
G01*
X137840000Y-96110000D01*
G75*
G02*
X137700000Y-95970000I0J140000D01*
G01*
G37*
G36*
G01*
X136740000Y-95970000D02*
X136740000Y-95630000D01*
G75*
G02*
X136880000Y-95490000I140000J0D01*
G01*
X137160000Y-95490000D01*
G75*
G02*
X137300000Y-95630000I0J-140000D01*
G01*
X137300000Y-95970000D01*
G75*
G02*
X137160000Y-96110000I-140000J0D01*
G01*
X136880000Y-96110000D01*
G75*
G02*
X136740000Y-95970000I0J140000D01*
G01*
G37*
G36*
G01*
X137175000Y-89750000D02*
X136225000Y-89750000D01*
G75*
G02*
X135975000Y-89500000I0J250000D01*
G01*
X135975000Y-89000000D01*
G75*
G02*
X136225000Y-88750000I250000J0D01*
G01*
X137175000Y-88750000D01*
G75*
G02*
X137425000Y-89000000I0J-250000D01*
G01*
X137425000Y-89500000D01*
G75*
G02*
X137175000Y-89750000I-250000J0D01*
G01*
G37*
G36*
G01*
X137175000Y-87850000D02*
X136225000Y-87850000D01*
G75*
G02*
X135975000Y-87600000I0J250000D01*
G01*
X135975000Y-87100000D01*
G75*
G02*
X136225000Y-86850000I250000J0D01*
G01*
X137175000Y-86850000D01*
G75*
G02*
X137425000Y-87100000I0J-250000D01*
G01*
X137425000Y-87600000D01*
G75*
G02*
X137175000Y-87850000I-250000J0D01*
G01*
G37*
G36*
G01*
X123950000Y-91525000D02*
X123950000Y-92475000D01*
G75*
G02*
X123700000Y-92725000I-250000J0D01*
G01*
X123200000Y-92725000D01*
G75*
G02*
X122950000Y-92475000I0J250000D01*
G01*
X122950000Y-91525000D01*
G75*
G02*
X123200000Y-91275000I250000J0D01*
G01*
X123700000Y-91275000D01*
G75*
G02*
X123950000Y-91525000I0J-250000D01*
G01*
G37*
G36*
G01*
X125850000Y-91525000D02*
X125850000Y-92475000D01*
G75*
G02*
X125600000Y-92725000I-250000J0D01*
G01*
X125100000Y-92725000D01*
G75*
G02*
X124850000Y-92475000I0J250000D01*
G01*
X124850000Y-91525000D01*
G75*
G02*
X125100000Y-91275000I250000J0D01*
G01*
X125600000Y-91275000D01*
G75*
G02*
X125850000Y-91525000I0J-250000D01*
G01*
G37*
G36*
G01*
X135670000Y-85360000D02*
X135330000Y-85360000D01*
G75*
G02*
X135190000Y-85220000I0J140000D01*
G01*
X135190000Y-84940000D01*
G75*
G02*
X135330000Y-84800000I140000J0D01*
G01*
X135670000Y-84800000D01*
G75*
G02*
X135810000Y-84940000I0J-140000D01*
G01*
X135810000Y-85220000D01*
G75*
G02*
X135670000Y-85360000I-140000J0D01*
G01*
G37*
G36*
G01*
X135670000Y-84400000D02*
X135330000Y-84400000D01*
G75*
G02*
X135190000Y-84260000I0J140000D01*
G01*
X135190000Y-83980000D01*
G75*
G02*
X135330000Y-83840000I140000J0D01*
G01*
X135670000Y-83840000D01*
G75*
G02*
X135810000Y-83980000I0J-140000D01*
G01*
X135810000Y-84260000D01*
G75*
G02*
X135670000Y-84400000I-140000J0D01*
G01*
G37*
G36*
G01*
X130270000Y-85360000D02*
X129930000Y-85360000D01*
G75*
G02*
X129790000Y-85220000I0J140000D01*
G01*
X129790000Y-84940000D01*
G75*
G02*
X129930000Y-84800000I140000J0D01*
G01*
X130270000Y-84800000D01*
G75*
G02*
X130410000Y-84940000I0J-140000D01*
G01*
X130410000Y-85220000D01*
G75*
G02*
X130270000Y-85360000I-140000J0D01*
G01*
G37*
G36*
G01*
X130270000Y-84400000D02*
X129930000Y-84400000D01*
G75*
G02*
X129790000Y-84260000I0J140000D01*
G01*
X129790000Y-83980000D01*
G75*
G02*
X129930000Y-83840000I140000J0D01*
G01*
X130270000Y-83840000D01*
G75*
G02*
X130410000Y-83980000I0J-140000D01*
G01*
X130410000Y-84260000D01*
G75*
G02*
X130270000Y-84400000I-140000J0D01*
G01*
G37*
G36*
G01*
X138425000Y-91300000D02*
X138425000Y-90800000D01*
G75*
G02*
X138650000Y-90575000I225000J0D01*
G01*
X139100000Y-90575000D01*
G75*
G02*
X139325000Y-90800000I0J-225000D01*
G01*
X139325000Y-91300000D01*
G75*
G02*
X139100000Y-91525000I-225000J0D01*
G01*
X138650000Y-91525000D01*
G75*
G02*
X138425000Y-91300000I0J225000D01*
G01*
G37*
G36*
G01*
X136875000Y-91300000D02*
X136875000Y-90800000D01*
G75*
G02*
X137100000Y-90575000I225000J0D01*
G01*
X137550000Y-90575000D01*
G75*
G02*
X137775000Y-90800000I0J-225000D01*
G01*
X137775000Y-91300000D01*
G75*
G02*
X137550000Y-91525000I-225000J0D01*
G01*
X137100000Y-91525000D01*
G75*
G02*
X136875000Y-91300000I0J225000D01*
G01*
G37*
G36*
G01*
X137720000Y-92520000D02*
X137720000Y-92180000D01*
G75*
G02*
X137860000Y-92040000I140000J0D01*
G01*
X138140000Y-92040000D01*
G75*
G02*
X138280000Y-92180000I0J-140000D01*
G01*
X138280000Y-92520000D01*
G75*
G02*
X138140000Y-92660000I-140000J0D01*
G01*
X137860000Y-92660000D01*
G75*
G02*
X137720000Y-92520000I0J140000D01*
G01*
G37*
G36*
G01*
X136760000Y-92520000D02*
X136760000Y-92180000D01*
G75*
G02*
X136900000Y-92040000I140000J0D01*
G01*
X137180000Y-92040000D01*
G75*
G02*
X137320000Y-92180000I0J-140000D01*
G01*
X137320000Y-92520000D01*
G75*
G02*
X137180000Y-92660000I-140000J0D01*
G01*
X136900000Y-92660000D01*
G75*
G02*
X136760000Y-92520000I0J140000D01*
G01*
G37*
G36*
G01*
X125100000Y-109181250D02*
X125100000Y-108418750D01*
G75*
G02*
X125318750Y-108200000I218750J0D01*
G01*
X125756250Y-108200000D01*
G75*
G02*
X125975000Y-108418750I0J-218750D01*
G01*
X125975000Y-109181250D01*
G75*
G02*
X125756250Y-109400000I-218750J0D01*
G01*
X125318750Y-109400000D01*
G75*
G02*
X125100000Y-109181250I0J218750D01*
G01*
G37*
G36*
G01*
X127225000Y-109181250D02*
X127225000Y-108418750D01*
G75*
G02*
X127443750Y-108200000I218750J0D01*
G01*
X127881250Y-108200000D01*
G75*
G02*
X128100000Y-108418750I0J-218750D01*
G01*
X128100000Y-109181250D01*
G75*
G02*
X127881250Y-109400000I-218750J0D01*
G01*
X127443750Y-109400000D01*
G75*
G02*
X127225000Y-109181250I0J218750D01*
G01*
G37*
G36*
G01*
X127350002Y-100650000D02*
X126449998Y-100650000D01*
G75*
G02*
X126200000Y-100400002I0J249998D01*
G01*
X126200000Y-99874998D01*
G75*
G02*
X126449998Y-99625000I249998J0D01*
G01*
X127350002Y-99625000D01*
G75*
G02*
X127600000Y-99874998I0J-249998D01*
G01*
X127600000Y-100400002D01*
G75*
G02*
X127350002Y-100650000I-249998J0D01*
G01*
G37*
G36*
G01*
X127350002Y-102475000D02*
X126449998Y-102475000D01*
G75*
G02*
X126200000Y-102225002I0J249998D01*
G01*
X126200000Y-101699998D01*
G75*
G02*
X126449998Y-101450000I249998J0D01*
G01*
X127350002Y-101450000D01*
G75*
G02*
X127600000Y-101699998I0J-249998D01*
G01*
X127600000Y-102225002D01*
G75*
G02*
X127350002Y-102475000I-249998J0D01*
G01*
G37*
G36*
G01*
X129250002Y-102475000D02*
X128349998Y-102475000D01*
G75*
G02*
X128100000Y-102225002I0J249998D01*
G01*
X128100000Y-101699998D01*
G75*
G02*
X128349998Y-101450000I249998J0D01*
G01*
X129250002Y-101450000D01*
G75*
G02*
X129500000Y-101699998I0J-249998D01*
G01*
X129500000Y-102225002D01*
G75*
G02*
X129250002Y-102475000I-249998J0D01*
G01*
G37*
G36*
G01*
X129250002Y-100650000D02*
X128349998Y-100650000D01*
G75*
G02*
X128100000Y-100400002I0J249998D01*
G01*
X128100000Y-99874998D01*
G75*
G02*
X128349998Y-99625000I249998J0D01*
G01*
X129250002Y-99625000D01*
G75*
G02*
X129500000Y-99874998I0J-249998D01*
G01*
X129500000Y-100400002D01*
G75*
G02*
X129250002Y-100650000I-249998J0D01*
G01*
G37*
G36*
G01*
X131150002Y-100650000D02*
X130249998Y-100650000D01*
G75*
G02*
X130000000Y-100400002I0J249998D01*
G01*
X130000000Y-99874998D01*
G75*
G02*
X130249998Y-99625000I249998J0D01*
G01*
X131150002Y-99625000D01*
G75*
G02*
X131400000Y-99874998I0J-249998D01*
G01*
X131400000Y-100400002D01*
G75*
G02*
X131150002Y-100650000I-249998J0D01*
G01*
G37*
G36*
G01*
X131150002Y-102475000D02*
X130249998Y-102475000D01*
G75*
G02*
X130000000Y-102225002I0J249998D01*
G01*
X130000000Y-101699998D01*
G75*
G02*
X130249998Y-101450000I249998J0D01*
G01*
X131150002Y-101450000D01*
G75*
G02*
X131400000Y-101699998I0J-249998D01*
G01*
X131400000Y-102225002D01*
G75*
G02*
X131150002Y-102475000I-249998J0D01*
G01*
G37*
G36*
G01*
X133050002Y-102475000D02*
X132149998Y-102475000D01*
G75*
G02*
X131900000Y-102225002I0J249998D01*
G01*
X131900000Y-101699998D01*
G75*
G02*
X132149998Y-101450000I249998J0D01*
G01*
X133050002Y-101450000D01*
G75*
G02*
X133300000Y-101699998I0J-249998D01*
G01*
X133300000Y-102225002D01*
G75*
G02*
X133050002Y-102475000I-249998J0D01*
G01*
G37*
G36*
G01*
X133050002Y-100650000D02*
X132149998Y-100650000D01*
G75*
G02*
X131900000Y-100400002I0J249998D01*
G01*
X131900000Y-99874998D01*
G75*
G02*
X132149998Y-99625000I249998J0D01*
G01*
X133050002Y-99625000D01*
G75*
G02*
X133300000Y-99874998I0J-249998D01*
G01*
X133300000Y-100400002D01*
G75*
G02*
X133050002Y-100650000I-249998J0D01*
G01*
G37*
G36*
G01*
X126875000Y-105525000D02*
X126325000Y-105525000D01*
G75*
G02*
X126125000Y-105325000I0J200000D01*
G01*
X126125000Y-104925000D01*
G75*
G02*
X126325000Y-104725000I200000J0D01*
G01*
X126875000Y-104725000D01*
G75*
G02*
X127075000Y-104925000I0J-200000D01*
G01*
X127075000Y-105325000D01*
G75*
G02*
X126875000Y-105525000I-200000J0D01*
G01*
G37*
G36*
G01*
X126875000Y-103875000D02*
X126325000Y-103875000D01*
G75*
G02*
X126125000Y-103675000I0J200000D01*
G01*
X126125000Y-103275000D01*
G75*
G02*
X126325000Y-103075000I200000J0D01*
G01*
X126875000Y-103075000D01*
G75*
G02*
X127075000Y-103275000I0J-200000D01*
G01*
X127075000Y-103675000D01*
G75*
G02*
X126875000Y-103875000I-200000J0D01*
G01*
G37*
G36*
G01*
X129275000Y-105525000D02*
X128725000Y-105525000D01*
G75*
G02*
X128525000Y-105325000I0J200000D01*
G01*
X128525000Y-104925000D01*
G75*
G02*
X128725000Y-104725000I200000J0D01*
G01*
X129275000Y-104725000D01*
G75*
G02*
X129475000Y-104925000I0J-200000D01*
G01*
X129475000Y-105325000D01*
G75*
G02*
X129275000Y-105525000I-200000J0D01*
G01*
G37*
G36*
G01*
X129275000Y-103875000D02*
X128725000Y-103875000D01*
G75*
G02*
X128525000Y-103675000I0J200000D01*
G01*
X128525000Y-103275000D01*
G75*
G02*
X128725000Y-103075000I200000J0D01*
G01*
X129275000Y-103075000D01*
G75*
G02*
X129475000Y-103275000I0J-200000D01*
G01*
X129475000Y-103675000D01*
G75*
G02*
X129275000Y-103875000I-200000J0D01*
G01*
G37*
G36*
G01*
X130975000Y-103925000D02*
X130425000Y-103925000D01*
G75*
G02*
X130225000Y-103725000I0J200000D01*
G01*
X130225000Y-103325000D01*
G75*
G02*
X130425000Y-103125000I200000J0D01*
G01*
X130975000Y-103125000D01*
G75*
G02*
X131175000Y-103325000I0J-200000D01*
G01*
X131175000Y-103725000D01*
G75*
G02*
X130975000Y-103925000I-200000J0D01*
G01*
G37*
G36*
G01*
X130975000Y-105575000D02*
X130425000Y-105575000D01*
G75*
G02*
X130225000Y-105375000I0J200000D01*
G01*
X130225000Y-104975000D01*
G75*
G02*
X130425000Y-104775000I200000J0D01*
G01*
X130975000Y-104775000D01*
G75*
G02*
X131175000Y-104975000I0J-200000D01*
G01*
X131175000Y-105375000D01*
G75*
G02*
X130975000Y-105575000I-200000J0D01*
G01*
G37*
G36*
G01*
X154425000Y-110925000D02*
X154425000Y-111475000D01*
G75*
G02*
X154225000Y-111675000I-200000J0D01*
G01*
X153825000Y-111675000D01*
G75*
G02*
X153625000Y-111475000I0J200000D01*
G01*
X153625000Y-110925000D01*
G75*
G02*
X153825000Y-110725000I200000J0D01*
G01*
X154225000Y-110725000D01*
G75*
G02*
X154425000Y-110925000I0J-200000D01*
G01*
G37*
G36*
G01*
X152775000Y-110925000D02*
X152775000Y-111475000D01*
G75*
G02*
X152575000Y-111675000I-200000J0D01*
G01*
X152175000Y-111675000D01*
G75*
G02*
X151975000Y-111475000I0J200000D01*
G01*
X151975000Y-110925000D01*
G75*
G02*
X152175000Y-110725000I200000J0D01*
G01*
X152575000Y-110725000D01*
G75*
G02*
X152775000Y-110925000I0J-200000D01*
G01*
G37*
G36*
G01*
X152775000Y-109325000D02*
X152775000Y-109875000D01*
G75*
G02*
X152575000Y-110075000I-200000J0D01*
G01*
X152175000Y-110075000D01*
G75*
G02*
X151975000Y-109875000I0J200000D01*
G01*
X151975000Y-109325000D01*
G75*
G02*
X152175000Y-109125000I200000J0D01*
G01*
X152575000Y-109125000D01*
G75*
G02*
X152775000Y-109325000I0J-200000D01*
G01*
G37*
G36*
G01*
X154425000Y-109325000D02*
X154425000Y-109875000D01*
G75*
G02*
X154225000Y-110075000I-200000J0D01*
G01*
X153825000Y-110075000D01*
G75*
G02*
X153625000Y-109875000I0J200000D01*
G01*
X153625000Y-109325000D01*
G75*
G02*
X153825000Y-109125000I200000J0D01*
G01*
X154225000Y-109125000D01*
G75*
G02*
X154425000Y-109325000I0J-200000D01*
G01*
G37*
G36*
G01*
X132875000Y-103925000D02*
X132325000Y-103925000D01*
G75*
G02*
X132125000Y-103725000I0J200000D01*
G01*
X132125000Y-103325000D01*
G75*
G02*
X132325000Y-103125000I200000J0D01*
G01*
X132875000Y-103125000D01*
G75*
G02*
X133075000Y-103325000I0J-200000D01*
G01*
X133075000Y-103725000D01*
G75*
G02*
X132875000Y-103925000I-200000J0D01*
G01*
G37*
G36*
G01*
X132875000Y-105575000D02*
X132325000Y-105575000D01*
G75*
G02*
X132125000Y-105375000I0J200000D01*
G01*
X132125000Y-104975000D01*
G75*
G02*
X132325000Y-104775000I200000J0D01*
G01*
X132875000Y-104775000D01*
G75*
G02*
X133075000Y-104975000I0J-200000D01*
G01*
X133075000Y-105375000D01*
G75*
G02*
X132875000Y-105575000I-200000J0D01*
G01*
G37*
G36*
G01*
X127800000Y-96200000D02*
X126475000Y-96200000D01*
G75*
G02*
X126400000Y-96125000I0J75000D01*
G01*
X126400000Y-95975000D01*
G75*
G02*
X126475000Y-95900000I75000J0D01*
G01*
X127800000Y-95900000D01*
G75*
G02*
X127875000Y-95975000I0J-75000D01*
G01*
X127875000Y-96125000D01*
G75*
G02*
X127800000Y-96200000I-75000J0D01*
G01*
G37*
G36*
G01*
X127800000Y-95700000D02*
X126475000Y-95700000D01*
G75*
G02*
X126400000Y-95625000I0J75000D01*
G01*
X126400000Y-95475000D01*
G75*
G02*
X126475000Y-95400000I75000J0D01*
G01*
X127800000Y-95400000D01*
G75*
G02*
X127875000Y-95475000I0J-75000D01*
G01*
X127875000Y-95625000D01*
G75*
G02*
X127800000Y-95700000I-75000J0D01*
G01*
G37*
G36*
G01*
X127800000Y-95200000D02*
X126475000Y-95200000D01*
G75*
G02*
X126400000Y-95125000I0J75000D01*
G01*
X126400000Y-94975000D01*
G75*
G02*
X126475000Y-94900000I75000J0D01*
G01*
X127800000Y-94900000D01*
G75*
G02*
X127875000Y-94975000I0J-75000D01*
G01*
X127875000Y-95125000D01*
G75*
G02*
X127800000Y-95200000I-75000J0D01*
G01*
G37*
G36*
G01*
X127800000Y-94700000D02*
X126475000Y-94700000D01*
G75*
G02*
X126400000Y-94625000I0J75000D01*
G01*
X126400000Y-94475000D01*
G75*
G02*
X126475000Y-94400000I75000J0D01*
G01*
X127800000Y-94400000D01*
G75*
G02*
X127875000Y-94475000I0J-75000D01*
G01*
X127875000Y-94625000D01*
G75*
G02*
X127800000Y-94700000I-75000J0D01*
G01*
G37*
G36*
G01*
X127800000Y-94200000D02*
X126475000Y-94200000D01*
G75*
G02*
X126400000Y-94125000I0J75000D01*
G01*
X126400000Y-93975000D01*
G75*
G02*
X126475000Y-93900000I75000J0D01*
G01*
X127800000Y-93900000D01*
G75*
G02*
X127875000Y-93975000I0J-75000D01*
G01*
X127875000Y-94125000D01*
G75*
G02*
X127800000Y-94200000I-75000J0D01*
G01*
G37*
G36*
G01*
X127800000Y-93700000D02*
X126475000Y-93700000D01*
G75*
G02*
X126400000Y-93625000I0J75000D01*
G01*
X126400000Y-93475000D01*
G75*
G02*
X126475000Y-93400000I75000J0D01*
G01*
X127800000Y-93400000D01*
G75*
G02*
X127875000Y-93475000I0J-75000D01*
G01*
X127875000Y-93625000D01*
G75*
G02*
X127800000Y-93700000I-75000J0D01*
G01*
G37*
G36*
G01*
X127800000Y-93200000D02*
X126475000Y-93200000D01*
G75*
G02*
X126400000Y-93125000I0J75000D01*
G01*
X126400000Y-92975000D01*
G75*
G02*
X126475000Y-92900000I75000J0D01*
G01*
X127800000Y-92900000D01*
G75*
G02*
X127875000Y-92975000I0J-75000D01*
G01*
X127875000Y-93125000D01*
G75*
G02*
X127800000Y-93200000I-75000J0D01*
G01*
G37*
G36*
G01*
X127800000Y-92700000D02*
X126475000Y-92700000D01*
G75*
G02*
X126400000Y-92625000I0J75000D01*
G01*
X126400000Y-92475000D01*
G75*
G02*
X126475000Y-92400000I75000J0D01*
G01*
X127800000Y-92400000D01*
G75*
G02*
X127875000Y-92475000I0J-75000D01*
G01*
X127875000Y-92625000D01*
G75*
G02*
X127800000Y-92700000I-75000J0D01*
G01*
G37*
G36*
G01*
X127800000Y-92200000D02*
X126475000Y-92200000D01*
G75*
G02*
X126400000Y-92125000I0J75000D01*
G01*
X126400000Y-91975000D01*
G75*
G02*
X126475000Y-91900000I75000J0D01*
G01*
X127800000Y-91900000D01*
G75*
G02*
X127875000Y-91975000I0J-75000D01*
G01*
X127875000Y-92125000D01*
G75*
G02*
X127800000Y-92200000I-75000J0D01*
G01*
G37*
G36*
G01*
X127800000Y-91700000D02*
X126475000Y-91700000D01*
G75*
G02*
X126400000Y-91625000I0J75000D01*
G01*
X126400000Y-91475000D01*
G75*
G02*
X126475000Y-91400000I75000J0D01*
G01*
X127800000Y-91400000D01*
G75*
G02*
X127875000Y-91475000I0J-75000D01*
G01*
X127875000Y-91625000D01*
G75*
G02*
X127800000Y-91700000I-75000J0D01*
G01*
G37*
G36*
G01*
X127800000Y-91200000D02*
X126475000Y-91200000D01*
G75*
G02*
X126400000Y-91125000I0J75000D01*
G01*
X126400000Y-90975000D01*
G75*
G02*
X126475000Y-90900000I75000J0D01*
G01*
X127800000Y-90900000D01*
G75*
G02*
X127875000Y-90975000I0J-75000D01*
G01*
X127875000Y-91125000D01*
G75*
G02*
X127800000Y-91200000I-75000J0D01*
G01*
G37*
G36*
G01*
X127800000Y-90700000D02*
X126475000Y-90700000D01*
G75*
G02*
X126400000Y-90625000I0J75000D01*
G01*
X126400000Y-90475000D01*
G75*
G02*
X126475000Y-90400000I75000J0D01*
G01*
X127800000Y-90400000D01*
G75*
G02*
X127875000Y-90475000I0J-75000D01*
G01*
X127875000Y-90625000D01*
G75*
G02*
X127800000Y-90700000I-75000J0D01*
G01*
G37*
G36*
G01*
X128625000Y-89875000D02*
X128475000Y-89875000D01*
G75*
G02*
X128400000Y-89800000I0J75000D01*
G01*
X128400000Y-88475000D01*
G75*
G02*
X128475000Y-88400000I75000J0D01*
G01*
X128625000Y-88400000D01*
G75*
G02*
X128700000Y-88475000I0J-75000D01*
G01*
X128700000Y-89800000D01*
G75*
G02*
X128625000Y-89875000I-75000J0D01*
G01*
G37*
G36*
G01*
X129125000Y-89875000D02*
X128975000Y-89875000D01*
G75*
G02*
X128900000Y-89800000I0J75000D01*
G01*
X128900000Y-88475000D01*
G75*
G02*
X128975000Y-88400000I75000J0D01*
G01*
X129125000Y-88400000D01*
G75*
G02*
X129200000Y-88475000I0J-75000D01*
G01*
X129200000Y-89800000D01*
G75*
G02*
X129125000Y-89875000I-75000J0D01*
G01*
G37*
G36*
G01*
X129625000Y-89875000D02*
X129475000Y-89875000D01*
G75*
G02*
X129400000Y-89800000I0J75000D01*
G01*
X129400000Y-88475000D01*
G75*
G02*
X129475000Y-88400000I75000J0D01*
G01*
X129625000Y-88400000D01*
G75*
G02*
X129700000Y-88475000I0J-75000D01*
G01*
X129700000Y-89800000D01*
G75*
G02*
X129625000Y-89875000I-75000J0D01*
G01*
G37*
G36*
G01*
X130125000Y-89875000D02*
X129975000Y-89875000D01*
G75*
G02*
X129900000Y-89800000I0J75000D01*
G01*
X129900000Y-88475000D01*
G75*
G02*
X129975000Y-88400000I75000J0D01*
G01*
X130125000Y-88400000D01*
G75*
G02*
X130200000Y-88475000I0J-75000D01*
G01*
X130200000Y-89800000D01*
G75*
G02*
X130125000Y-89875000I-75000J0D01*
G01*
G37*
G36*
G01*
X130625000Y-89875000D02*
X130475000Y-89875000D01*
G75*
G02*
X130400000Y-89800000I0J75000D01*
G01*
X130400000Y-88475000D01*
G75*
G02*
X130475000Y-88400000I75000J0D01*
G01*
X130625000Y-88400000D01*
G75*
G02*
X130700000Y-88475000I0J-75000D01*
G01*
X130700000Y-89800000D01*
G75*
G02*
X130625000Y-89875000I-75000J0D01*
G01*
G37*
G36*
G01*
X131125000Y-89875000D02*
X130975000Y-89875000D01*
G75*
G02*
X130900000Y-89800000I0J75000D01*
G01*
X130900000Y-88475000D01*
G75*
G02*
X130975000Y-88400000I75000J0D01*
G01*
X131125000Y-88400000D01*
G75*
G02*
X131200000Y-88475000I0J-75000D01*
G01*
X131200000Y-89800000D01*
G75*
G02*
X131125000Y-89875000I-75000J0D01*
G01*
G37*
G36*
G01*
X131625000Y-89875000D02*
X131475000Y-89875000D01*
G75*
G02*
X131400000Y-89800000I0J75000D01*
G01*
X131400000Y-88475000D01*
G75*
G02*
X131475000Y-88400000I75000J0D01*
G01*
X131625000Y-88400000D01*
G75*
G02*
X131700000Y-88475000I0J-75000D01*
G01*
X131700000Y-89800000D01*
G75*
G02*
X131625000Y-89875000I-75000J0D01*
G01*
G37*
G36*
G01*
X132125000Y-89875000D02*
X131975000Y-89875000D01*
G75*
G02*
X131900000Y-89800000I0J75000D01*
G01*
X131900000Y-88475000D01*
G75*
G02*
X131975000Y-88400000I75000J0D01*
G01*
X132125000Y-88400000D01*
G75*
G02*
X132200000Y-88475000I0J-75000D01*
G01*
X132200000Y-89800000D01*
G75*
G02*
X132125000Y-89875000I-75000J0D01*
G01*
G37*
G36*
G01*
X132625000Y-89875000D02*
X132475000Y-89875000D01*
G75*
G02*
X132400000Y-89800000I0J75000D01*
G01*
X132400000Y-88475000D01*
G75*
G02*
X132475000Y-88400000I75000J0D01*
G01*
X132625000Y-88400000D01*
G75*
G02*
X132700000Y-88475000I0J-75000D01*
G01*
X132700000Y-89800000D01*
G75*
G02*
X132625000Y-89875000I-75000J0D01*
G01*
G37*
G36*
G01*
X133125000Y-89875000D02*
X132975000Y-89875000D01*
G75*
G02*
X132900000Y-89800000I0J75000D01*
G01*
X132900000Y-88475000D01*
G75*
G02*
X132975000Y-88400000I75000J0D01*
G01*
X133125000Y-88400000D01*
G75*
G02*
X133200000Y-88475000I0J-75000D01*
G01*
X133200000Y-89800000D01*
G75*
G02*
X133125000Y-89875000I-75000J0D01*
G01*
G37*
G36*
G01*
X133625000Y-89875000D02*
X133475000Y-89875000D01*
G75*
G02*
X133400000Y-89800000I0J75000D01*
G01*
X133400000Y-88475000D01*
G75*
G02*
X133475000Y-88400000I75000J0D01*
G01*
X133625000Y-88400000D01*
G75*
G02*
X133700000Y-88475000I0J-75000D01*
G01*
X133700000Y-89800000D01*
G75*
G02*
X133625000Y-89875000I-75000J0D01*
G01*
G37*
G36*
G01*
X134125000Y-89875000D02*
X133975000Y-89875000D01*
G75*
G02*
X133900000Y-89800000I0J75000D01*
G01*
X133900000Y-88475000D01*
G75*
G02*
X133975000Y-88400000I75000J0D01*
G01*
X134125000Y-88400000D01*
G75*
G02*
X134200000Y-88475000I0J-75000D01*
G01*
X134200000Y-89800000D01*
G75*
G02*
X134125000Y-89875000I-75000J0D01*
G01*
G37*
G36*
G01*
X136125000Y-90700000D02*
X134800000Y-90700000D01*
G75*
G02*
X134725000Y-90625000I0J75000D01*
G01*
X134725000Y-90475000D01*
G75*
G02*
X134800000Y-90400000I75000J0D01*
G01*
X136125000Y-90400000D01*
G75*
G02*
X136200000Y-90475000I0J-75000D01*
G01*
X136200000Y-90625000D01*
G75*
G02*
X136125000Y-90700000I-75000J0D01*
G01*
G37*
G36*
G01*
X136125000Y-91200000D02*
X134800000Y-91200000D01*
G75*
G02*
X134725000Y-91125000I0J75000D01*
G01*
X134725000Y-90975000D01*
G75*
G02*
X134800000Y-90900000I75000J0D01*
G01*
X136125000Y-90900000D01*
G75*
G02*
X136200000Y-90975000I0J-75000D01*
G01*
X136200000Y-91125000D01*
G75*
G02*
X136125000Y-91200000I-75000J0D01*
G01*
G37*
G36*
G01*
X136125000Y-91700000D02*
X134800000Y-91700000D01*
G75*
G02*
X134725000Y-91625000I0J75000D01*
G01*
X134725000Y-91475000D01*
G75*
G02*
X134800000Y-91400000I75000J0D01*
G01*
X136125000Y-91400000D01*
G75*
G02*
X136200000Y-91475000I0J-75000D01*
G01*
X136200000Y-91625000D01*
G75*
G02*
X136125000Y-91700000I-75000J0D01*
G01*
G37*
G36*
G01*
X136125000Y-92200000D02*
X134800000Y-92200000D01*
G75*
G02*
X134725000Y-92125000I0J75000D01*
G01*
X134725000Y-91975000D01*
G75*
G02*
X134800000Y-91900000I75000J0D01*
G01*
X136125000Y-91900000D01*
G75*
G02*
X136200000Y-91975000I0J-75000D01*
G01*
X136200000Y-92125000D01*
G75*
G02*
X136125000Y-92200000I-75000J0D01*
G01*
G37*
G36*
G01*
X136125000Y-92700000D02*
X134800000Y-92700000D01*
G75*
G02*
X134725000Y-92625000I0J75000D01*
G01*
X134725000Y-92475000D01*
G75*
G02*
X134800000Y-92400000I75000J0D01*
G01*
X136125000Y-92400000D01*
G75*
G02*
X136200000Y-92475000I0J-75000D01*
G01*
X136200000Y-92625000D01*
G75*
G02*
X136125000Y-92700000I-75000J0D01*
G01*
G37*
G36*
G01*
X136125000Y-93200000D02*
X134800000Y-93200000D01*
G75*
G02*
X134725000Y-93125000I0J75000D01*
G01*
X134725000Y-92975000D01*
G75*
G02*
X134800000Y-92900000I75000J0D01*
G01*
X136125000Y-92900000D01*
G75*
G02*
X136200000Y-92975000I0J-75000D01*
G01*
X136200000Y-93125000D01*
G75*
G02*
X136125000Y-93200000I-75000J0D01*
G01*
G37*
G36*
G01*
X136125000Y-93700000D02*
X134800000Y-93700000D01*
G75*
G02*
X134725000Y-93625000I0J75000D01*
G01*
X134725000Y-93475000D01*
G75*
G02*
X134800000Y-93400000I75000J0D01*
G01*
X136125000Y-93400000D01*
G75*
G02*
X136200000Y-93475000I0J-75000D01*
G01*
X136200000Y-93625000D01*
G75*
G02*
X136125000Y-93700000I-75000J0D01*
G01*
G37*
G36*
G01*
X136125000Y-94200000D02*
X134800000Y-94200000D01*
G75*
G02*
X134725000Y-94125000I0J75000D01*
G01*
X134725000Y-93975000D01*
G75*
G02*
X134800000Y-93900000I75000J0D01*
G01*
X136125000Y-93900000D01*
G75*
G02*
X136200000Y-93975000I0J-75000D01*
G01*
X136200000Y-94125000D01*
G75*
G02*
X136125000Y-94200000I-75000J0D01*
G01*
G37*
G36*
G01*
X136125000Y-94700000D02*
X134800000Y-94700000D01*
G75*
G02*
X134725000Y-94625000I0J75000D01*
G01*
X134725000Y-94475000D01*
G75*
G02*
X134800000Y-94400000I75000J0D01*
G01*
X136125000Y-94400000D01*
G75*
G02*
X136200000Y-94475000I0J-75000D01*
G01*
X136200000Y-94625000D01*
G75*
G02*
X136125000Y-94700000I-75000J0D01*
G01*
G37*
G36*
G01*
X136125000Y-95200000D02*
X134800000Y-95200000D01*
G75*
G02*
X134725000Y-95125000I0J75000D01*
G01*
X134725000Y-94975000D01*
G75*
G02*
X134800000Y-94900000I75000J0D01*
G01*
X136125000Y-94900000D01*
G75*
G02*
X136200000Y-94975000I0J-75000D01*
G01*
X136200000Y-95125000D01*
G75*
G02*
X136125000Y-95200000I-75000J0D01*
G01*
G37*
G36*
G01*
X136125000Y-95700000D02*
X134800000Y-95700000D01*
G75*
G02*
X134725000Y-95625000I0J75000D01*
G01*
X134725000Y-95475000D01*
G75*
G02*
X134800000Y-95400000I75000J0D01*
G01*
X136125000Y-95400000D01*
G75*
G02*
X136200000Y-95475000I0J-75000D01*
G01*
X136200000Y-95625000D01*
G75*
G02*
X136125000Y-95700000I-75000J0D01*
G01*
G37*
G36*
G01*
X136125000Y-96200000D02*
X134800000Y-96200000D01*
G75*
G02*
X134725000Y-96125000I0J75000D01*
G01*
X134725000Y-95975000D01*
G75*
G02*
X134800000Y-95900000I75000J0D01*
G01*
X136125000Y-95900000D01*
G75*
G02*
X136200000Y-95975000I0J-75000D01*
G01*
X136200000Y-96125000D01*
G75*
G02*
X136125000Y-96200000I-75000J0D01*
G01*
G37*
G36*
G01*
X134125000Y-98200000D02*
X133975000Y-98200000D01*
G75*
G02*
X133900000Y-98125000I0J75000D01*
G01*
X133900000Y-96800000D01*
G75*
G02*
X133975000Y-96725000I75000J0D01*
G01*
X134125000Y-96725000D01*
G75*
G02*
X134200000Y-96800000I0J-75000D01*
G01*
X134200000Y-98125000D01*
G75*
G02*
X134125000Y-98200000I-75000J0D01*
G01*
G37*
G36*
G01*
X133625000Y-98200000D02*
X133475000Y-98200000D01*
G75*
G02*
X133400000Y-98125000I0J75000D01*
G01*
X133400000Y-96800000D01*
G75*
G02*
X133475000Y-96725000I75000J0D01*
G01*
X133625000Y-96725000D01*
G75*
G02*
X133700000Y-96800000I0J-75000D01*
G01*
X133700000Y-98125000D01*
G75*
G02*
X133625000Y-98200000I-75000J0D01*
G01*
G37*
G36*
G01*
X133125000Y-98200000D02*
X132975000Y-98200000D01*
G75*
G02*
X132900000Y-98125000I0J75000D01*
G01*
X132900000Y-96800000D01*
G75*
G02*
X132975000Y-96725000I75000J0D01*
G01*
X133125000Y-96725000D01*
G75*
G02*
X133200000Y-96800000I0J-75000D01*
G01*
X133200000Y-98125000D01*
G75*
G02*
X133125000Y-98200000I-75000J0D01*
G01*
G37*
G36*
G01*
X132625000Y-98200000D02*
X132475000Y-98200000D01*
G75*
G02*
X132400000Y-98125000I0J75000D01*
G01*
X132400000Y-96800000D01*
G75*
G02*
X132475000Y-96725000I75000J0D01*
G01*
X132625000Y-96725000D01*
G75*
G02*
X132700000Y-96800000I0J-75000D01*
G01*
X132700000Y-98125000D01*
G75*
G02*
X132625000Y-98200000I-75000J0D01*
G01*
G37*
G36*
G01*
X132125000Y-98200000D02*
X131975000Y-98200000D01*
G75*
G02*
X131900000Y-98125000I0J75000D01*
G01*
X131900000Y-96800000D01*
G75*
G02*
X131975000Y-96725000I75000J0D01*
G01*
X132125000Y-96725000D01*
G75*
G02*
X132200000Y-96800000I0J-75000D01*
G01*
X132200000Y-98125000D01*
G75*
G02*
X132125000Y-98200000I-75000J0D01*
G01*
G37*
G36*
G01*
X131625000Y-98200000D02*
X131475000Y-98200000D01*
G75*
G02*
X131400000Y-98125000I0J75000D01*
G01*
X131400000Y-96800000D01*
G75*
G02*
X131475000Y-96725000I75000J0D01*
G01*
X131625000Y-96725000D01*
G75*
G02*
X131700000Y-96800000I0J-75000D01*
G01*
X131700000Y-98125000D01*
G75*
G02*
X131625000Y-98200000I-75000J0D01*
G01*
G37*
G36*
G01*
X131125000Y-98200000D02*
X130975000Y-98200000D01*
G75*
G02*
X130900000Y-98125000I0J75000D01*
G01*
X130900000Y-96800000D01*
G75*
G02*
X130975000Y-96725000I75000J0D01*
G01*
X131125000Y-96725000D01*
G75*
G02*
X131200000Y-96800000I0J-75000D01*
G01*
X131200000Y-98125000D01*
G75*
G02*
X131125000Y-98200000I-75000J0D01*
G01*
G37*
G36*
G01*
X130625000Y-98200000D02*
X130475000Y-98200000D01*
G75*
G02*
X130400000Y-98125000I0J75000D01*
G01*
X130400000Y-96800000D01*
G75*
G02*
X130475000Y-96725000I75000J0D01*
G01*
X130625000Y-96725000D01*
G75*
G02*
X130700000Y-96800000I0J-75000D01*
G01*
X130700000Y-98125000D01*
G75*
G02*
X130625000Y-98200000I-75000J0D01*
G01*
G37*
G36*
G01*
X130125000Y-98200000D02*
X129975000Y-98200000D01*
G75*
G02*
X129900000Y-98125000I0J75000D01*
G01*
X129900000Y-96800000D01*
G75*
G02*
X129975000Y-96725000I75000J0D01*
G01*
X130125000Y-96725000D01*
G75*
G02*
X130200000Y-96800000I0J-75000D01*
G01*
X130200000Y-98125000D01*
G75*
G02*
X130125000Y-98200000I-75000J0D01*
G01*
G37*
G36*
G01*
X129625000Y-98200000D02*
X129475000Y-98200000D01*
G75*
G02*
X129400000Y-98125000I0J75000D01*
G01*
X129400000Y-96800000D01*
G75*
G02*
X129475000Y-96725000I75000J0D01*
G01*
X129625000Y-96725000D01*
G75*
G02*
X129700000Y-96800000I0J-75000D01*
G01*
X129700000Y-98125000D01*
G75*
G02*
X129625000Y-98200000I-75000J0D01*
G01*
G37*
G36*
G01*
X129125000Y-98200000D02*
X128975000Y-98200000D01*
G75*
G02*
X128900000Y-98125000I0J75000D01*
G01*
X128900000Y-96800000D01*
G75*
G02*
X128975000Y-96725000I75000J0D01*
G01*
X129125000Y-96725000D01*
G75*
G02*
X129200000Y-96800000I0J-75000D01*
G01*
X129200000Y-98125000D01*
G75*
G02*
X129125000Y-98200000I-75000J0D01*
G01*
G37*
G36*
G01*
X128625000Y-98200000D02*
X128475000Y-98200000D01*
G75*
G02*
X128400000Y-98125000I0J75000D01*
G01*
X128400000Y-96800000D01*
G75*
G02*
X128475000Y-96725000I75000J0D01*
G01*
X128625000Y-96725000D01*
G75*
G02*
X128700000Y-96800000I0J-75000D01*
G01*
X128700000Y-98125000D01*
G75*
G02*
X128625000Y-98200000I-75000J0D01*
G01*
G37*
D14*
X131700000Y-83450000D03*
X133900000Y-83450000D03*
X133900000Y-85150000D03*
X131700000Y-85150000D03*
G36*
G01*
X189150001Y-104350000D02*
X187849999Y-104350000D01*
G75*
G02*
X187600000Y-104100001I0J249999D01*
G01*
X187600000Y-103449999D01*
G75*
G02*
X187849999Y-103200000I249999J0D01*
G01*
X189150001Y-103200000D01*
G75*
G02*
X189400000Y-103449999I0J-249999D01*
G01*
X189400000Y-104100001D01*
G75*
G02*
X189150001Y-104350000I-249999J0D01*
G01*
G37*
G36*
G01*
X189150001Y-101400000D02*
X187849999Y-101400000D01*
G75*
G02*
X187600000Y-101150001I0J249999D01*
G01*
X187600000Y-100499999D01*
G75*
G02*
X187849999Y-100250000I249999J0D01*
G01*
X189150001Y-100250000D01*
G75*
G02*
X189400000Y-100499999I0J-249999D01*
G01*
X189400000Y-101150001D01*
G75*
G02*
X189150001Y-101400000I-249999J0D01*
G01*
G37*
G36*
G01*
X186575000Y-103150000D02*
X185625000Y-103150000D01*
G75*
G02*
X185375000Y-102900000I0J250000D01*
G01*
X185375000Y-102400000D01*
G75*
G02*
X185625000Y-102150000I250000J0D01*
G01*
X186575000Y-102150000D01*
G75*
G02*
X186825000Y-102400000I0J-250000D01*
G01*
X186825000Y-102900000D01*
G75*
G02*
X186575000Y-103150000I-250000J0D01*
G01*
G37*
G36*
G01*
X186575000Y-101250000D02*
X185625000Y-101250000D01*
G75*
G02*
X185375000Y-101000000I0J250000D01*
G01*
X185375000Y-100500000D01*
G75*
G02*
X185625000Y-100250000I250000J0D01*
G01*
X186575000Y-100250000D01*
G75*
G02*
X186825000Y-100500000I0J-250000D01*
G01*
X186825000Y-101000000D01*
G75*
G02*
X186575000Y-101250000I-250000J0D01*
G01*
G37*
G36*
G01*
X164375000Y-105875000D02*
X164375000Y-105325000D01*
G75*
G02*
X164575000Y-105125000I200000J0D01*
G01*
X164975000Y-105125000D01*
G75*
G02*
X165175000Y-105325000I0J-200000D01*
G01*
X165175000Y-105875000D01*
G75*
G02*
X164975000Y-106075000I-200000J0D01*
G01*
X164575000Y-106075000D01*
G75*
G02*
X164375000Y-105875000I0J200000D01*
G01*
G37*
G36*
G01*
X166025000Y-105875000D02*
X166025000Y-105325000D01*
G75*
G02*
X166225000Y-105125000I200000J0D01*
G01*
X166625000Y-105125000D01*
G75*
G02*
X166825000Y-105325000I0J-200000D01*
G01*
X166825000Y-105875000D01*
G75*
G02*
X166625000Y-106075000I-200000J0D01*
G01*
X166225000Y-106075000D01*
G75*
G02*
X166025000Y-105875000I0J200000D01*
G01*
G37*
G36*
G01*
X194650000Y-91275000D02*
X194650000Y-90325000D01*
G75*
G02*
X194900000Y-90075000I250000J0D01*
G01*
X195400000Y-90075000D01*
G75*
G02*
X195650000Y-90325000I0J-250000D01*
G01*
X195650000Y-91275000D01*
G75*
G02*
X195400000Y-91525000I-250000J0D01*
G01*
X194900000Y-91525000D01*
G75*
G02*
X194650000Y-91275000I0J250000D01*
G01*
G37*
G36*
G01*
X192750000Y-91275000D02*
X192750000Y-90325000D01*
G75*
G02*
X193000000Y-90075000I250000J0D01*
G01*
X193500000Y-90075000D01*
G75*
G02*
X193750000Y-90325000I0J-250000D01*
G01*
X193750000Y-91275000D01*
G75*
G02*
X193500000Y-91525000I-250000J0D01*
G01*
X193000000Y-91525000D01*
G75*
G02*
X192750000Y-91275000I0J250000D01*
G01*
G37*
G36*
G01*
X192750000Y-88875000D02*
X192750000Y-87925000D01*
G75*
G02*
X193000000Y-87675000I250000J0D01*
G01*
X193500000Y-87675000D01*
G75*
G02*
X193750000Y-87925000I0J-250000D01*
G01*
X193750000Y-88875000D01*
G75*
G02*
X193500000Y-89125000I-250000J0D01*
G01*
X193000000Y-89125000D01*
G75*
G02*
X192750000Y-88875000I0J250000D01*
G01*
G37*
G36*
G01*
X194650000Y-88875000D02*
X194650000Y-87925000D01*
G75*
G02*
X194900000Y-87675000I250000J0D01*
G01*
X195400000Y-87675000D01*
G75*
G02*
X195650000Y-87925000I0J-250000D01*
G01*
X195650000Y-88875000D01*
G75*
G02*
X195400000Y-89125000I-250000J0D01*
G01*
X194900000Y-89125000D01*
G75*
G02*
X194650000Y-88875000I0J250000D01*
G01*
G37*
G36*
G01*
X191050000Y-91275000D02*
X191050000Y-90325000D01*
G75*
G02*
X191300000Y-90075000I250000J0D01*
G01*
X191800000Y-90075000D01*
G75*
G02*
X192050000Y-90325000I0J-250000D01*
G01*
X192050000Y-91275000D01*
G75*
G02*
X191800000Y-91525000I-250000J0D01*
G01*
X191300000Y-91525000D01*
G75*
G02*
X191050000Y-91275000I0J250000D01*
G01*
G37*
G36*
G01*
X189150000Y-91275000D02*
X189150000Y-90325000D01*
G75*
G02*
X189400000Y-90075000I250000J0D01*
G01*
X189900000Y-90075000D01*
G75*
G02*
X190150000Y-90325000I0J-250000D01*
G01*
X190150000Y-91275000D01*
G75*
G02*
X189900000Y-91525000I-250000J0D01*
G01*
X189400000Y-91525000D01*
G75*
G02*
X189150000Y-91275000I0J250000D01*
G01*
G37*
G36*
G01*
X187325000Y-91850000D02*
X188275000Y-91850000D01*
G75*
G02*
X188525000Y-92100000I0J-250000D01*
G01*
X188525000Y-92600000D01*
G75*
G02*
X188275000Y-92850000I-250000J0D01*
G01*
X187325000Y-92850000D01*
G75*
G02*
X187075000Y-92600000I0J250000D01*
G01*
X187075000Y-92100000D01*
G75*
G02*
X187325000Y-91850000I250000J0D01*
G01*
G37*
G36*
G01*
X187325000Y-89950000D02*
X188275000Y-89950000D01*
G75*
G02*
X188525000Y-90200000I0J-250000D01*
G01*
X188525000Y-90700000D01*
G75*
G02*
X188275000Y-90950000I-250000J0D01*
G01*
X187325000Y-90950000D01*
G75*
G02*
X187075000Y-90700000I0J250000D01*
G01*
X187075000Y-90200000D01*
G75*
G02*
X187325000Y-89950000I250000J0D01*
G01*
G37*
G36*
G01*
X185125000Y-89950000D02*
X186075000Y-89950000D01*
G75*
G02*
X186325000Y-90200000I0J-250000D01*
G01*
X186325000Y-90700000D01*
G75*
G02*
X186075000Y-90950000I-250000J0D01*
G01*
X185125000Y-90950000D01*
G75*
G02*
X184875000Y-90700000I0J250000D01*
G01*
X184875000Y-90200000D01*
G75*
G02*
X185125000Y-89950000I250000J0D01*
G01*
G37*
G36*
G01*
X185125000Y-91850000D02*
X186075000Y-91850000D01*
G75*
G02*
X186325000Y-92100000I0J-250000D01*
G01*
X186325000Y-92600000D01*
G75*
G02*
X186075000Y-92850000I-250000J0D01*
G01*
X185125000Y-92850000D01*
G75*
G02*
X184875000Y-92600000I0J250000D01*
G01*
X184875000Y-92100000D01*
G75*
G02*
X185125000Y-91850000I250000J0D01*
G01*
G37*
G36*
G01*
X181700000Y-83574999D02*
X181700000Y-84825001D01*
G75*
G02*
X181450001Y-85075000I-249999J0D01*
G01*
X180824999Y-85075000D01*
G75*
G02*
X180575000Y-84825001I0J249999D01*
G01*
X180575000Y-83574999D01*
G75*
G02*
X180824999Y-83325000I249999J0D01*
G01*
X181450001Y-83325000D01*
G75*
G02*
X181700000Y-83574999I0J-249999D01*
G01*
G37*
G36*
G01*
X184625000Y-83574999D02*
X184625000Y-84825001D01*
G75*
G02*
X184375001Y-85075000I-249999J0D01*
G01*
X183749999Y-85075000D01*
G75*
G02*
X183500000Y-84825001I0J249999D01*
G01*
X183500000Y-83574999D01*
G75*
G02*
X183749999Y-83325000I249999J0D01*
G01*
X184375001Y-83325000D01*
G75*
G02*
X184625000Y-83574999I0J-249999D01*
G01*
G37*
G36*
G01*
X184619999Y-86029998D02*
X184619999Y-87280000D01*
G75*
G02*
X184370000Y-87529999I-249999J0D01*
G01*
X183744998Y-87529999D01*
G75*
G02*
X183494999Y-87280000I0J249999D01*
G01*
X183494999Y-86029998D01*
G75*
G02*
X183744998Y-85779999I249999J0D01*
G01*
X184370000Y-85779999D01*
G75*
G02*
X184619999Y-86029998I0J-249999D01*
G01*
G37*
G36*
G01*
X181694999Y-86029998D02*
X181694999Y-87280000D01*
G75*
G02*
X181445000Y-87529999I-249999J0D01*
G01*
X180819998Y-87529999D01*
G75*
G02*
X180569999Y-87280000I0J249999D01*
G01*
X180569999Y-86029998D01*
G75*
G02*
X180819998Y-85779999I249999J0D01*
G01*
X181445000Y-85779999D01*
G75*
G02*
X181694999Y-86029998I0J-249999D01*
G01*
G37*
G36*
G01*
X190265000Y-85295000D02*
X189355000Y-85295000D01*
G75*
G02*
X189105000Y-85045000I0J250000D01*
G01*
X189105000Y-84135000D01*
G75*
G02*
X189355000Y-83885000I250000J0D01*
G01*
X190265000Y-83885000D01*
G75*
G02*
X190515000Y-84135000I0J-250000D01*
G01*
X190515000Y-85045000D01*
G75*
G02*
X190265000Y-85295000I-250000J0D01*
G01*
G37*
G36*
G01*
X188645000Y-85295000D02*
X187735000Y-85295000D01*
G75*
G02*
X187485000Y-85045000I0J250000D01*
G01*
X187485000Y-84135000D01*
G75*
G02*
X187735000Y-83885000I250000J0D01*
G01*
X188645000Y-83885000D01*
G75*
G02*
X188895000Y-84135000I0J-250000D01*
G01*
X188895000Y-85045000D01*
G75*
G02*
X188645000Y-85295000I-250000J0D01*
G01*
G37*
G36*
G01*
X190265000Y-86915000D02*
X189355000Y-86915000D01*
G75*
G02*
X189105000Y-86665000I0J250000D01*
G01*
X189105000Y-85755000D01*
G75*
G02*
X189355000Y-85505000I250000J0D01*
G01*
X190265000Y-85505000D01*
G75*
G02*
X190515000Y-85755000I0J-250000D01*
G01*
X190515000Y-86665000D01*
G75*
G02*
X190265000Y-86915000I-250000J0D01*
G01*
G37*
G36*
G01*
X188645000Y-86915000D02*
X187735000Y-86915000D01*
G75*
G02*
X187485000Y-86665000I0J250000D01*
G01*
X187485000Y-85755000D01*
G75*
G02*
X187735000Y-85505000I250000J0D01*
G01*
X188645000Y-85505000D01*
G75*
G02*
X188895000Y-85755000I0J-250000D01*
G01*
X188895000Y-86665000D01*
G75*
G02*
X188645000Y-86915000I-250000J0D01*
G01*
G37*
G36*
G01*
X187062500Y-87025000D02*
X186212500Y-87025000D01*
G75*
G02*
X186150000Y-86962500I0J62500D01*
G01*
X186150000Y-86837500D01*
G75*
G02*
X186212500Y-86775000I62500J0D01*
G01*
X187062500Y-86775000D01*
G75*
G02*
X187125000Y-86837500I0J-62500D01*
G01*
X187125000Y-86962500D01*
G75*
G02*
X187062500Y-87025000I-62500J0D01*
G01*
G37*
G36*
G01*
X187062500Y-86525000D02*
X186212500Y-86525000D01*
G75*
G02*
X186150000Y-86462500I0J62500D01*
G01*
X186150000Y-86337500D01*
G75*
G02*
X186212500Y-86275000I62500J0D01*
G01*
X187062500Y-86275000D01*
G75*
G02*
X187125000Y-86337500I0J-62500D01*
G01*
X187125000Y-86462500D01*
G75*
G02*
X187062500Y-86525000I-62500J0D01*
G01*
G37*
G36*
G01*
X187062500Y-86025000D02*
X186212500Y-86025000D01*
G75*
G02*
X186150000Y-85962500I0J62500D01*
G01*
X186150000Y-85837500D01*
G75*
G02*
X186212500Y-85775000I62500J0D01*
G01*
X187062500Y-85775000D01*
G75*
G02*
X187125000Y-85837500I0J-62500D01*
G01*
X187125000Y-85962500D01*
G75*
G02*
X187062500Y-86025000I-62500J0D01*
G01*
G37*
G36*
G01*
X187062500Y-85525000D02*
X186212500Y-85525000D01*
G75*
G02*
X186150000Y-85462500I0J62500D01*
G01*
X186150000Y-85337500D01*
G75*
G02*
X186212500Y-85275000I62500J0D01*
G01*
X187062500Y-85275000D01*
G75*
G02*
X187125000Y-85337500I0J-62500D01*
G01*
X187125000Y-85462500D01*
G75*
G02*
X187062500Y-85525000I-62500J0D01*
G01*
G37*
G36*
G01*
X187062500Y-85025000D02*
X186212500Y-85025000D01*
G75*
G02*
X186150000Y-84962500I0J62500D01*
G01*
X186150000Y-84837500D01*
G75*
G02*
X186212500Y-84775000I62500J0D01*
G01*
X187062500Y-84775000D01*
G75*
G02*
X187125000Y-84837500I0J-62500D01*
G01*
X187125000Y-84962500D01*
G75*
G02*
X187062500Y-85025000I-62500J0D01*
G01*
G37*
G36*
G01*
X187062500Y-84525000D02*
X186212500Y-84525000D01*
G75*
G02*
X186150000Y-84462500I0J62500D01*
G01*
X186150000Y-84337500D01*
G75*
G02*
X186212500Y-84275000I62500J0D01*
G01*
X187062500Y-84275000D01*
G75*
G02*
X187125000Y-84337500I0J-62500D01*
G01*
X187125000Y-84462500D01*
G75*
G02*
X187062500Y-84525000I-62500J0D01*
G01*
G37*
G36*
G01*
X187062500Y-84025000D02*
X186212500Y-84025000D01*
G75*
G02*
X186150000Y-83962500I0J62500D01*
G01*
X186150000Y-83837500D01*
G75*
G02*
X186212500Y-83775000I62500J0D01*
G01*
X187062500Y-83775000D01*
G75*
G02*
X187125000Y-83837500I0J-62500D01*
G01*
X187125000Y-83962500D01*
G75*
G02*
X187062500Y-84025000I-62500J0D01*
G01*
G37*
G36*
G01*
X187562500Y-83525000D02*
X187437500Y-83525000D01*
G75*
G02*
X187375000Y-83462500I0J62500D01*
G01*
X187375000Y-82612500D01*
G75*
G02*
X187437500Y-82550000I62500J0D01*
G01*
X187562500Y-82550000D01*
G75*
G02*
X187625000Y-82612500I0J-62500D01*
G01*
X187625000Y-83462500D01*
G75*
G02*
X187562500Y-83525000I-62500J0D01*
G01*
G37*
G36*
G01*
X188062500Y-83525000D02*
X187937500Y-83525000D01*
G75*
G02*
X187875000Y-83462500I0J62500D01*
G01*
X187875000Y-82612500D01*
G75*
G02*
X187937500Y-82550000I62500J0D01*
G01*
X188062500Y-82550000D01*
G75*
G02*
X188125000Y-82612500I0J-62500D01*
G01*
X188125000Y-83462500D01*
G75*
G02*
X188062500Y-83525000I-62500J0D01*
G01*
G37*
G36*
G01*
X188562500Y-83525000D02*
X188437500Y-83525000D01*
G75*
G02*
X188375000Y-83462500I0J62500D01*
G01*
X188375000Y-82612500D01*
G75*
G02*
X188437500Y-82550000I62500J0D01*
G01*
X188562500Y-82550000D01*
G75*
G02*
X188625000Y-82612500I0J-62500D01*
G01*
X188625000Y-83462500D01*
G75*
G02*
X188562500Y-83525000I-62500J0D01*
G01*
G37*
G36*
G01*
X189062500Y-83525000D02*
X188937500Y-83525000D01*
G75*
G02*
X188875000Y-83462500I0J62500D01*
G01*
X188875000Y-82612500D01*
G75*
G02*
X188937500Y-82550000I62500J0D01*
G01*
X189062500Y-82550000D01*
G75*
G02*
X189125000Y-82612500I0J-62500D01*
G01*
X189125000Y-83462500D01*
G75*
G02*
X189062500Y-83525000I-62500J0D01*
G01*
G37*
G36*
G01*
X189562500Y-83525000D02*
X189437500Y-83525000D01*
G75*
G02*
X189375000Y-83462500I0J62500D01*
G01*
X189375000Y-82612500D01*
G75*
G02*
X189437500Y-82550000I62500J0D01*
G01*
X189562500Y-82550000D01*
G75*
G02*
X189625000Y-82612500I0J-62500D01*
G01*
X189625000Y-83462500D01*
G75*
G02*
X189562500Y-83525000I-62500J0D01*
G01*
G37*
G36*
G01*
X190062500Y-83525000D02*
X189937500Y-83525000D01*
G75*
G02*
X189875000Y-83462500I0J62500D01*
G01*
X189875000Y-82612500D01*
G75*
G02*
X189937500Y-82550000I62500J0D01*
G01*
X190062500Y-82550000D01*
G75*
G02*
X190125000Y-82612500I0J-62500D01*
G01*
X190125000Y-83462500D01*
G75*
G02*
X190062500Y-83525000I-62500J0D01*
G01*
G37*
G36*
G01*
X190562500Y-83525000D02*
X190437500Y-83525000D01*
G75*
G02*
X190375000Y-83462500I0J62500D01*
G01*
X190375000Y-82612500D01*
G75*
G02*
X190437500Y-82550000I62500J0D01*
G01*
X190562500Y-82550000D01*
G75*
G02*
X190625000Y-82612500I0J-62500D01*
G01*
X190625000Y-83462500D01*
G75*
G02*
X190562500Y-83525000I-62500J0D01*
G01*
G37*
G36*
G01*
X191787500Y-84025000D02*
X190937500Y-84025000D01*
G75*
G02*
X190875000Y-83962500I0J62500D01*
G01*
X190875000Y-83837500D01*
G75*
G02*
X190937500Y-83775000I62500J0D01*
G01*
X191787500Y-83775000D01*
G75*
G02*
X191850000Y-83837500I0J-62500D01*
G01*
X191850000Y-83962500D01*
G75*
G02*
X191787500Y-84025000I-62500J0D01*
G01*
G37*
G36*
G01*
X191787500Y-84525000D02*
X190937500Y-84525000D01*
G75*
G02*
X190875000Y-84462500I0J62500D01*
G01*
X190875000Y-84337500D01*
G75*
G02*
X190937500Y-84275000I62500J0D01*
G01*
X191787500Y-84275000D01*
G75*
G02*
X191850000Y-84337500I0J-62500D01*
G01*
X191850000Y-84462500D01*
G75*
G02*
X191787500Y-84525000I-62500J0D01*
G01*
G37*
G36*
G01*
X191787500Y-85025000D02*
X190937500Y-85025000D01*
G75*
G02*
X190875000Y-84962500I0J62500D01*
G01*
X190875000Y-84837500D01*
G75*
G02*
X190937500Y-84775000I62500J0D01*
G01*
X191787500Y-84775000D01*
G75*
G02*
X191850000Y-84837500I0J-62500D01*
G01*
X191850000Y-84962500D01*
G75*
G02*
X191787500Y-85025000I-62500J0D01*
G01*
G37*
G36*
G01*
X191787500Y-85525000D02*
X190937500Y-85525000D01*
G75*
G02*
X190875000Y-85462500I0J62500D01*
G01*
X190875000Y-85337500D01*
G75*
G02*
X190937500Y-85275000I62500J0D01*
G01*
X191787500Y-85275000D01*
G75*
G02*
X191850000Y-85337500I0J-62500D01*
G01*
X191850000Y-85462500D01*
G75*
G02*
X191787500Y-85525000I-62500J0D01*
G01*
G37*
G36*
G01*
X191787500Y-86025000D02*
X190937500Y-86025000D01*
G75*
G02*
X190875000Y-85962500I0J62500D01*
G01*
X190875000Y-85837500D01*
G75*
G02*
X190937500Y-85775000I62500J0D01*
G01*
X191787500Y-85775000D01*
G75*
G02*
X191850000Y-85837500I0J-62500D01*
G01*
X191850000Y-85962500D01*
G75*
G02*
X191787500Y-86025000I-62500J0D01*
G01*
G37*
G36*
G01*
X191787500Y-86525000D02*
X190937500Y-86525000D01*
G75*
G02*
X190875000Y-86462500I0J62500D01*
G01*
X190875000Y-86337500D01*
G75*
G02*
X190937500Y-86275000I62500J0D01*
G01*
X191787500Y-86275000D01*
G75*
G02*
X191850000Y-86337500I0J-62500D01*
G01*
X191850000Y-86462500D01*
G75*
G02*
X191787500Y-86525000I-62500J0D01*
G01*
G37*
G36*
G01*
X191787500Y-87025000D02*
X190937500Y-87025000D01*
G75*
G02*
X190875000Y-86962500I0J62500D01*
G01*
X190875000Y-86837500D01*
G75*
G02*
X190937500Y-86775000I62500J0D01*
G01*
X191787500Y-86775000D01*
G75*
G02*
X191850000Y-86837500I0J-62500D01*
G01*
X191850000Y-86962500D01*
G75*
G02*
X191787500Y-87025000I-62500J0D01*
G01*
G37*
G36*
G01*
X190562500Y-88250000D02*
X190437500Y-88250000D01*
G75*
G02*
X190375000Y-88187500I0J62500D01*
G01*
X190375000Y-87337500D01*
G75*
G02*
X190437500Y-87275000I62500J0D01*
G01*
X190562500Y-87275000D01*
G75*
G02*
X190625000Y-87337500I0J-62500D01*
G01*
X190625000Y-88187500D01*
G75*
G02*
X190562500Y-88250000I-62500J0D01*
G01*
G37*
G36*
G01*
X190062500Y-88250000D02*
X189937500Y-88250000D01*
G75*
G02*
X189875000Y-88187500I0J62500D01*
G01*
X189875000Y-87337500D01*
G75*
G02*
X189937500Y-87275000I62500J0D01*
G01*
X190062500Y-87275000D01*
G75*
G02*
X190125000Y-87337500I0J-62500D01*
G01*
X190125000Y-88187500D01*
G75*
G02*
X190062500Y-88250000I-62500J0D01*
G01*
G37*
G36*
G01*
X189562500Y-88250000D02*
X189437500Y-88250000D01*
G75*
G02*
X189375000Y-88187500I0J62500D01*
G01*
X189375000Y-87337500D01*
G75*
G02*
X189437500Y-87275000I62500J0D01*
G01*
X189562500Y-87275000D01*
G75*
G02*
X189625000Y-87337500I0J-62500D01*
G01*
X189625000Y-88187500D01*
G75*
G02*
X189562500Y-88250000I-62500J0D01*
G01*
G37*
G36*
G01*
X189062500Y-88250000D02*
X188937500Y-88250000D01*
G75*
G02*
X188875000Y-88187500I0J62500D01*
G01*
X188875000Y-87337500D01*
G75*
G02*
X188937500Y-87275000I62500J0D01*
G01*
X189062500Y-87275000D01*
G75*
G02*
X189125000Y-87337500I0J-62500D01*
G01*
X189125000Y-88187500D01*
G75*
G02*
X189062500Y-88250000I-62500J0D01*
G01*
G37*
G36*
G01*
X188562500Y-88250000D02*
X188437500Y-88250000D01*
G75*
G02*
X188375000Y-88187500I0J62500D01*
G01*
X188375000Y-87337500D01*
G75*
G02*
X188437500Y-87275000I62500J0D01*
G01*
X188562500Y-87275000D01*
G75*
G02*
X188625000Y-87337500I0J-62500D01*
G01*
X188625000Y-88187500D01*
G75*
G02*
X188562500Y-88250000I-62500J0D01*
G01*
G37*
G36*
G01*
X188062500Y-88250000D02*
X187937500Y-88250000D01*
G75*
G02*
X187875000Y-88187500I0J62500D01*
G01*
X187875000Y-87337500D01*
G75*
G02*
X187937500Y-87275000I62500J0D01*
G01*
X188062500Y-87275000D01*
G75*
G02*
X188125000Y-87337500I0J-62500D01*
G01*
X188125000Y-88187500D01*
G75*
G02*
X188062500Y-88250000I-62500J0D01*
G01*
G37*
G36*
G01*
X187562500Y-88250000D02*
X187437500Y-88250000D01*
G75*
G02*
X187375000Y-88187500I0J62500D01*
G01*
X187375000Y-87337500D01*
G75*
G02*
X187437500Y-87275000I62500J0D01*
G01*
X187562500Y-87275000D01*
G75*
G02*
X187625000Y-87337500I0J-62500D01*
G01*
X187625000Y-88187500D01*
G75*
G02*
X187562500Y-88250000I-62500J0D01*
G01*
G37*
G36*
G01*
X138525000Y-99650000D02*
X138525000Y-99150000D01*
G75*
G02*
X138750000Y-98925000I225000J0D01*
G01*
X139200000Y-98925000D01*
G75*
G02*
X139425000Y-99150000I0J-225000D01*
G01*
X139425000Y-99650000D01*
G75*
G02*
X139200000Y-99875000I-225000J0D01*
G01*
X138750000Y-99875000D01*
G75*
G02*
X138525000Y-99650000I0J225000D01*
G01*
G37*
G36*
G01*
X136975000Y-99650000D02*
X136975000Y-99150000D01*
G75*
G02*
X137200000Y-98925000I225000J0D01*
G01*
X137650000Y-98925000D01*
G75*
G02*
X137875000Y-99150000I0J-225000D01*
G01*
X137875000Y-99650000D01*
G75*
G02*
X137650000Y-99875000I-225000J0D01*
G01*
X137200000Y-99875000D01*
G75*
G02*
X136975000Y-99650000I0J225000D01*
G01*
G37*
G36*
G01*
X136975000Y-101250000D02*
X136975000Y-100750000D01*
G75*
G02*
X137200000Y-100525000I225000J0D01*
G01*
X137650000Y-100525000D01*
G75*
G02*
X137875000Y-100750000I0J-225000D01*
G01*
X137875000Y-101250000D01*
G75*
G02*
X137650000Y-101475000I-225000J0D01*
G01*
X137200000Y-101475000D01*
G75*
G02*
X136975000Y-101250000I0J225000D01*
G01*
G37*
G36*
G01*
X138525000Y-101250000D02*
X138525000Y-100750000D01*
G75*
G02*
X138750000Y-100525000I225000J0D01*
G01*
X139200000Y-100525000D01*
G75*
G02*
X139425000Y-100750000I0J-225000D01*
G01*
X139425000Y-101250000D01*
G75*
G02*
X139200000Y-101475000I-225000J0D01*
G01*
X138750000Y-101475000D01*
G75*
G02*
X138525000Y-101250000I0J225000D01*
G01*
G37*
G36*
G01*
X138650001Y-105025000D02*
X137749999Y-105025000D01*
G75*
G02*
X137500000Y-104775001I0J249999D01*
G01*
X137500000Y-104249999D01*
G75*
G02*
X137749999Y-104000000I249999J0D01*
G01*
X138650001Y-104000000D01*
G75*
G02*
X138900000Y-104249999I0J-249999D01*
G01*
X138900000Y-104775001D01*
G75*
G02*
X138650001Y-105025000I-249999J0D01*
G01*
G37*
G36*
G01*
X138650001Y-103200000D02*
X137749999Y-103200000D01*
G75*
G02*
X137500000Y-102950001I0J249999D01*
G01*
X137500000Y-102424999D01*
G75*
G02*
X137749999Y-102175000I249999J0D01*
G01*
X138650001Y-102175000D01*
G75*
G02*
X138900000Y-102424999I0J-249999D01*
G01*
X138900000Y-102950001D01*
G75*
G02*
X138650001Y-103200000I-249999J0D01*
G01*
G37*
G36*
G01*
X132625000Y-86725000D02*
X132625000Y-87275000D01*
G75*
G02*
X132425000Y-87475000I-200000J0D01*
G01*
X132025000Y-87475000D01*
G75*
G02*
X131825000Y-87275000I0J200000D01*
G01*
X131825000Y-86725000D01*
G75*
G02*
X132025000Y-86525000I200000J0D01*
G01*
X132425000Y-86525000D01*
G75*
G02*
X132625000Y-86725000I0J-200000D01*
G01*
G37*
G36*
G01*
X130975000Y-86725000D02*
X130975000Y-87275000D01*
G75*
G02*
X130775000Y-87475000I-200000J0D01*
G01*
X130375000Y-87475000D01*
G75*
G02*
X130175000Y-87275000I0J200000D01*
G01*
X130175000Y-86725000D01*
G75*
G02*
X130375000Y-86525000I200000J0D01*
G01*
X130775000Y-86525000D01*
G75*
G02*
X130975000Y-86725000I0J-200000D01*
G01*
G37*
G36*
G01*
X136575000Y-97125000D02*
X136575000Y-97675000D01*
G75*
G02*
X136375000Y-97875000I-200000J0D01*
G01*
X135975000Y-97875000D01*
G75*
G02*
X135775000Y-97675000I0J200000D01*
G01*
X135775000Y-97125000D01*
G75*
G02*
X135975000Y-96925000I200000J0D01*
G01*
X136375000Y-96925000D01*
G75*
G02*
X136575000Y-97125000I0J-200000D01*
G01*
G37*
G36*
G01*
X138225000Y-97125000D02*
X138225000Y-97675000D01*
G75*
G02*
X138025000Y-97875000I-200000J0D01*
G01*
X137625000Y-97875000D01*
G75*
G02*
X137425000Y-97675000I0J200000D01*
G01*
X137425000Y-97125000D01*
G75*
G02*
X137625000Y-96925000I200000J0D01*
G01*
X138025000Y-96925000D01*
G75*
G02*
X138225000Y-97125000I0J-200000D01*
G01*
G37*
G36*
G01*
X144025000Y-84343750D02*
X144025000Y-84856250D01*
G75*
G02*
X143806250Y-85075000I-218750J0D01*
G01*
X143368750Y-85075000D01*
G75*
G02*
X143150000Y-84856250I0J218750D01*
G01*
X143150000Y-84343750D01*
G75*
G02*
X143368750Y-84125000I218750J0D01*
G01*
X143806250Y-84125000D01*
G75*
G02*
X144025000Y-84343750I0J-218750D01*
G01*
G37*
G36*
G01*
X142450000Y-84343750D02*
X142450000Y-84856250D01*
G75*
G02*
X142231250Y-85075000I-218750J0D01*
G01*
X141793750Y-85075000D01*
G75*
G02*
X141575000Y-84856250I0J218750D01*
G01*
X141575000Y-84343750D01*
G75*
G02*
X141793750Y-84125000I218750J0D01*
G01*
X142231250Y-84125000D01*
G75*
G02*
X142450000Y-84343750I0J-218750D01*
G01*
G37*
G36*
G01*
X142450000Y-82543750D02*
X142450000Y-83056250D01*
G75*
G02*
X142231250Y-83275000I-218750J0D01*
G01*
X141793750Y-83275000D01*
G75*
G02*
X141575000Y-83056250I0J218750D01*
G01*
X141575000Y-82543750D01*
G75*
G02*
X141793750Y-82325000I218750J0D01*
G01*
X142231250Y-82325000D01*
G75*
G02*
X142450000Y-82543750I0J-218750D01*
G01*
G37*
G36*
G01*
X144025000Y-82543750D02*
X144025000Y-83056250D01*
G75*
G02*
X143806250Y-83275000I-218750J0D01*
G01*
X143368750Y-83275000D01*
G75*
G02*
X143150000Y-83056250I0J218750D01*
G01*
X143150000Y-82543750D01*
G75*
G02*
X143368750Y-82325000I218750J0D01*
G01*
X143806250Y-82325000D01*
G75*
G02*
X144025000Y-82543750I0J-218750D01*
G01*
G37*
G36*
G01*
X140875000Y-86575000D02*
X140325000Y-86575000D01*
G75*
G02*
X140125000Y-86375000I0J200000D01*
G01*
X140125000Y-85975000D01*
G75*
G02*
X140325000Y-85775000I200000J0D01*
G01*
X140875000Y-85775000D01*
G75*
G02*
X141075000Y-85975000I0J-200000D01*
G01*
X141075000Y-86375000D01*
G75*
G02*
X140875000Y-86575000I-200000J0D01*
G01*
G37*
G36*
G01*
X140875000Y-88225000D02*
X140325000Y-88225000D01*
G75*
G02*
X140125000Y-88025000I0J200000D01*
G01*
X140125000Y-87625000D01*
G75*
G02*
X140325000Y-87425000I200000J0D01*
G01*
X140875000Y-87425000D01*
G75*
G02*
X141075000Y-87625000I0J-200000D01*
G01*
X141075000Y-88025000D01*
G75*
G02*
X140875000Y-88225000I-200000J0D01*
G01*
G37*
G36*
G01*
X139075000Y-88225000D02*
X138525000Y-88225000D01*
G75*
G02*
X138325000Y-88025000I0J200000D01*
G01*
X138325000Y-87625000D01*
G75*
G02*
X138525000Y-87425000I200000J0D01*
G01*
X139075000Y-87425000D01*
G75*
G02*
X139275000Y-87625000I0J-200000D01*
G01*
X139275000Y-88025000D01*
G75*
G02*
X139075000Y-88225000I-200000J0D01*
G01*
G37*
G36*
G01*
X139075000Y-86575000D02*
X138525000Y-86575000D01*
G75*
G02*
X138325000Y-86375000I0J200000D01*
G01*
X138325000Y-85975000D01*
G75*
G02*
X138525000Y-85775000I200000J0D01*
G01*
X139075000Y-85775000D01*
G75*
G02*
X139275000Y-85975000I0J-200000D01*
G01*
X139275000Y-86375000D01*
G75*
G02*
X139075000Y-86575000I-200000J0D01*
G01*
G37*
G36*
G01*
X191750000Y-117456250D02*
X191750000Y-116943750D01*
G75*
G02*
X191968750Y-116725000I218750J0D01*
G01*
X192406250Y-116725000D01*
G75*
G02*
X192625000Y-116943750I0J-218750D01*
G01*
X192625000Y-117456250D01*
G75*
G02*
X192406250Y-117675000I-218750J0D01*
G01*
X191968750Y-117675000D01*
G75*
G02*
X191750000Y-117456250I0J218750D01*
G01*
G37*
G36*
G01*
X190175000Y-117456250D02*
X190175000Y-116943750D01*
G75*
G02*
X190393750Y-116725000I218750J0D01*
G01*
X190831250Y-116725000D01*
G75*
G02*
X191050000Y-116943750I0J-218750D01*
G01*
X191050000Y-117456250D01*
G75*
G02*
X190831250Y-117675000I-218750J0D01*
G01*
X190393750Y-117675000D01*
G75*
G02*
X190175000Y-117456250I0J218750D01*
G01*
G37*
G36*
G01*
X164375000Y-107656250D02*
X164375000Y-107143750D01*
G75*
G02*
X164593750Y-106925000I218750J0D01*
G01*
X165031250Y-106925000D01*
G75*
G02*
X165250000Y-107143750I0J-218750D01*
G01*
X165250000Y-107656250D01*
G75*
G02*
X165031250Y-107875000I-218750J0D01*
G01*
X164593750Y-107875000D01*
G75*
G02*
X164375000Y-107656250I0J218750D01*
G01*
G37*
G36*
G01*
X165950000Y-107656250D02*
X165950000Y-107143750D01*
G75*
G02*
X166168750Y-106925000I218750J0D01*
G01*
X166606250Y-106925000D01*
G75*
G02*
X166825000Y-107143750I0J-218750D01*
G01*
X166825000Y-107656250D01*
G75*
G02*
X166606250Y-107875000I-218750J0D01*
G01*
X166168750Y-107875000D01*
G75*
G02*
X165950000Y-107656250I0J218750D01*
G01*
G37*
G36*
G01*
X122950000Y-94675000D02*
X122950000Y-93725000D01*
G75*
G02*
X123200000Y-93475000I250000J0D01*
G01*
X123700000Y-93475000D01*
G75*
G02*
X123950000Y-93725000I0J-250000D01*
G01*
X123950000Y-94675000D01*
G75*
G02*
X123700000Y-94925000I-250000J0D01*
G01*
X123200000Y-94925000D01*
G75*
G02*
X122950000Y-94675000I0J250000D01*
G01*
G37*
G36*
G01*
X124850000Y-94675000D02*
X124850000Y-93725000D01*
G75*
G02*
X125100000Y-93475000I250000J0D01*
G01*
X125600000Y-93475000D01*
G75*
G02*
X125850000Y-93725000I0J-250000D01*
G01*
X125850000Y-94675000D01*
G75*
G02*
X125600000Y-94925000I-250000J0D01*
G01*
X125100000Y-94925000D01*
G75*
G02*
X124850000Y-94675000I0J250000D01*
G01*
G37*
M02*
