%TF.GenerationSoftware,KiCad,Pcbnew,(5.1.8-0-10_14)*%
%TF.CreationDate,2021-08-18T13:43:01+02:00*%
%TF.ProjectId,ethersweep,65746865-7273-4776-9565-702e6b696361,2.0.1*%
%TF.SameCoordinates,Original*%
%TF.FileFunction,Legend,Top*%
%TF.FilePolarity,Positive*%
%FSLAX46Y46*%
G04 Gerber Fmt 4.6, Leading zero omitted, Abs format (unit mm)*
G04 Created by KiCad (PCBNEW (5.1.8-0-10_14)) date 2021-08-18 13:43:01*
%MOMM*%
%LPD*%
G01*
G04 APERTURE LIST*
%ADD10C,0.250000*%
%TA.AperFunction,Profile*%
%ADD11C,0.150000*%
%TD*%
%ADD12C,0.150000*%
%ADD13C,0.120000*%
%ADD14C,0.127000*%
%ADD15C,0.300000*%
%ADD16C,0.125000*%
G04 APERTURE END LIST*
D10*
X137009523Y-85004761D02*
X137152380Y-85052380D01*
X137390476Y-85052380D01*
X137485714Y-85004761D01*
X137533333Y-84957142D01*
X137580952Y-84861904D01*
X137580952Y-84766666D01*
X137533333Y-84671428D01*
X137485714Y-84623809D01*
X137390476Y-84576190D01*
X137200000Y-84528571D01*
X137104761Y-84480952D01*
X137057142Y-84433333D01*
X137009523Y-84338095D01*
X137009523Y-84242857D01*
X137057142Y-84147619D01*
X137104761Y-84100000D01*
X137200000Y-84052380D01*
X137438095Y-84052380D01*
X137580952Y-84100000D01*
X138009523Y-85052380D02*
X138009523Y-84052380D01*
X138390476Y-84052380D01*
X138485714Y-84100000D01*
X138533333Y-84147619D01*
X138580952Y-84242857D01*
X138580952Y-84385714D01*
X138533333Y-84480952D01*
X138485714Y-84528571D01*
X138390476Y-84576190D01*
X138009523Y-84576190D01*
X139009523Y-84528571D02*
X139342857Y-84528571D01*
X139485714Y-85052380D02*
X139009523Y-85052380D01*
X139009523Y-84052380D01*
X139485714Y-84052380D01*
X139914285Y-84528571D02*
X140247619Y-84528571D01*
X140390476Y-85052380D02*
X139914285Y-85052380D01*
X139914285Y-84052380D01*
X140390476Y-84052380D01*
X140819047Y-85052380D02*
X140819047Y-84052380D01*
X141057142Y-84052380D01*
X141200000Y-84100000D01*
X141295238Y-84195238D01*
X141342857Y-84290476D01*
X141390476Y-84480952D01*
X141390476Y-84623809D01*
X141342857Y-84814285D01*
X141295238Y-84909523D01*
X141200000Y-85004761D01*
X141057142Y-85052380D01*
X140819047Y-85052380D01*
X137033333Y-83252380D02*
X137033333Y-82252380D01*
X137271428Y-82252380D01*
X137414285Y-82300000D01*
X137509523Y-82395238D01*
X137557142Y-82490476D01*
X137604761Y-82680952D01*
X137604761Y-82823809D01*
X137557142Y-83014285D01*
X137509523Y-83109523D01*
X137414285Y-83204761D01*
X137271428Y-83252380D01*
X137033333Y-83252380D01*
X138033333Y-82252380D02*
X138033333Y-83061904D01*
X138080952Y-83157142D01*
X138128571Y-83204761D01*
X138223809Y-83252380D01*
X138414285Y-83252380D01*
X138509523Y-83204761D01*
X138557142Y-83157142D01*
X138604761Y-83061904D01*
X138604761Y-82252380D01*
X139080952Y-83252380D02*
X139080952Y-82252380D01*
X139461904Y-82252380D01*
X139557142Y-82300000D01*
X139604761Y-82347619D01*
X139652380Y-82442857D01*
X139652380Y-82585714D01*
X139604761Y-82680952D01*
X139557142Y-82728571D01*
X139461904Y-82776190D01*
X139080952Y-82776190D01*
X140557142Y-83252380D02*
X140080952Y-83252380D01*
X140080952Y-82252380D01*
X140795238Y-82252380D02*
X141461904Y-83252380D01*
X141461904Y-82252380D02*
X140795238Y-83252380D01*
D11*
X198000000Y-81000000D02*
G75*
G02*
X201500000Y-84500000I0J-3500000D01*
G01*
D12*
X189800000Y-93200000D02*
X200000000Y-93200000D01*
X189800000Y-111200000D02*
X189800000Y-93200000D01*
X200000000Y-111200000D02*
X189800000Y-111200000D01*
X200000000Y-93200000D02*
X200000000Y-111200000D01*
D11*
X160500000Y-115500000D02*
X160500000Y-113900000D01*
X163500000Y-86600000D02*
X163500000Y-85000000D01*
X163500000Y-86600000D02*
G75*
G02*
X160500000Y-86600000I-1500000J0D01*
G01*
X163500000Y-115500000D02*
X163500000Y-113900000D01*
X160500000Y-86600000D02*
X160500000Y-85000000D01*
X160500000Y-113900000D02*
G75*
G02*
X163500000Y-113900000I1500000J0D01*
G01*
X163500000Y-98000000D02*
G75*
G02*
X160500000Y-98000000I-1500000J0D01*
G01*
X160500000Y-91000000D02*
G75*
G02*
X163500000Y-91000000I1500000J0D01*
G01*
X163500000Y-98000000D02*
X163500000Y-91000000D01*
X160500000Y-109500000D02*
X160500000Y-102400000D01*
X160500000Y-102400000D02*
G75*
G02*
X163500000Y-102400000I1500000J0D01*
G01*
X160500000Y-98000000D02*
X160500000Y-91000000D01*
X163500000Y-109500000D02*
X163500000Y-102400000D01*
X163500000Y-109500000D02*
G75*
G02*
X160500000Y-109500000I-1500000J0D01*
G01*
X160500000Y-116000000D02*
X160500000Y-115500000D01*
X163500000Y-84500000D02*
X163500000Y-85000000D01*
X151100000Y-110800000D02*
G75*
G03*
X151100000Y-110800000I-1500000J0D01*
G01*
X126000000Y-119500000D02*
G75*
G02*
X122500000Y-116000000I0J3500000D01*
G01*
X126000000Y-119500000D02*
X157000000Y-119500000D01*
X167000000Y-81000000D02*
X198000000Y-81000000D01*
X163500000Y-84500000D02*
G75*
G02*
X167000000Y-81000000I3500000J0D01*
G01*
X201500000Y-115500000D02*
G75*
G02*
X198000000Y-119000000I-3500000J0D01*
G01*
X167000000Y-119000000D02*
G75*
G02*
X163500000Y-115500000I0J3500000D01*
G01*
X167000000Y-119000000D02*
X198000000Y-119000000D01*
X201500000Y-115500000D02*
X201500000Y-84500000D01*
X122500000Y-85000000D02*
X122500000Y-116000000D01*
X160500000Y-116000000D02*
G75*
G02*
X157000000Y-119500000I-3500000J0D01*
G01*
X157000000Y-81500000D02*
G75*
G02*
X160500000Y-85000000I0J-3500000D01*
G01*
X122500000Y-85000000D02*
G75*
G02*
X126000000Y-81500000I3500000J0D01*
G01*
X157000000Y-81500000D02*
X126000000Y-81500000D01*
D13*
X198060000Y-100660000D02*
X198060000Y-97910000D01*
X198060000Y-92140000D02*
X198060000Y-94890000D01*
X190604437Y-92140000D02*
X198060000Y-92140000D01*
X190604437Y-100660000D02*
X198060000Y-100660000D01*
X189540000Y-99595563D02*
X189540000Y-97910000D01*
X189540000Y-93204437D02*
X189540000Y-94890000D01*
X189540000Y-93204437D02*
X190604437Y-92140000D01*
X189540000Y-99595563D02*
X190604437Y-100660000D01*
X188300000Y-93890000D02*
X189300000Y-93890000D01*
X188800000Y-93390000D02*
X188800000Y-94390000D01*
X187560000Y-120510000D02*
X177440000Y-120510000D01*
X187560000Y-111290000D02*
X177440000Y-111290000D01*
X187560000Y-116190000D02*
X187560000Y-111290000D01*
X187560000Y-120510000D02*
X187560000Y-118410000D01*
X177440000Y-116190000D02*
X177440000Y-111290000D01*
X177440000Y-116190000D02*
X176850000Y-116190000D01*
X177440000Y-118410000D02*
X176850000Y-118410000D01*
X188150000Y-118410000D02*
X187560000Y-118410000D01*
X188150000Y-116190000D02*
X187560000Y-116190000D01*
X177440000Y-120510000D02*
X177440000Y-118410000D01*
X188150000Y-116190000D02*
G75*
G02*
X188150000Y-118410000I0J-1110000D01*
G01*
X176850000Y-118410000D02*
G75*
G02*
X176850000Y-116190000I0J1110000D01*
G01*
X136690000Y-114790000D02*
X136690000Y-112590000D01*
X136690000Y-112590000D02*
X137910000Y-112590000D01*
X137910000Y-112590000D02*
X137910000Y-121010000D01*
X137910000Y-121010000D02*
X130190000Y-121010000D01*
X130190000Y-121010000D02*
X130190000Y-112590000D01*
X130190000Y-112590000D02*
X131410000Y-112590000D01*
X131410000Y-112590000D02*
X131410000Y-114790000D01*
X137910000Y-119790000D02*
X136690000Y-119790000D01*
X136690000Y-119790000D02*
X136690000Y-114790000D01*
X136690000Y-114790000D02*
X137910000Y-114790000D01*
X130190000Y-119790000D02*
X131410000Y-119790000D01*
X131410000Y-119790000D02*
X131410000Y-114790000D01*
X131410000Y-114790000D02*
X130190000Y-114790000D01*
X136690000Y-115790000D02*
X131410000Y-115790000D01*
X135300000Y-115790000D02*
X135620000Y-115790000D01*
X135620000Y-115790000D02*
X135620000Y-119210000D01*
X135620000Y-119210000D02*
X135300000Y-119290000D01*
X135300000Y-119290000D02*
X134980000Y-119210000D01*
X134980000Y-119210000D02*
X134980000Y-115790000D01*
X134980000Y-115790000D02*
X135300000Y-115790000D01*
X134130000Y-114790000D02*
X133970000Y-114790000D01*
X132800000Y-115790000D02*
X133120000Y-115790000D01*
X133120000Y-115790000D02*
X133120000Y-119210000D01*
X133120000Y-119210000D02*
X132800000Y-119290000D01*
X132800000Y-119290000D02*
X132480000Y-119210000D01*
X132480000Y-119210000D02*
X132480000Y-115790000D01*
X132480000Y-115790000D02*
X132800000Y-115790000D01*
X135300000Y-112700000D02*
X135600000Y-112100000D01*
X135600000Y-112100000D02*
X135000000Y-112100000D01*
X135000000Y-112100000D02*
X135300000Y-112700000D01*
X179680000Y-87000000D02*
X178680000Y-87500000D01*
X179680000Y-88000000D02*
X179680000Y-87000000D01*
X178680000Y-87500000D02*
X179680000Y-88000000D01*
X176980000Y-82910000D02*
X178290000Y-82910000D01*
X176980000Y-82910000D02*
X176980000Y-82910000D01*
X176980000Y-78510000D02*
X176980000Y-82910000D01*
X170480000Y-78510000D02*
X176980000Y-78510000D01*
X170480000Y-91410000D02*
X170480000Y-78510000D01*
X176980000Y-91410000D02*
X170480000Y-91410000D01*
X176980000Y-87010000D02*
X176980000Y-91410000D01*
X178290000Y-87010000D02*
X176980000Y-87010000D01*
X178290000Y-77210000D02*
X178290000Y-92710000D01*
X169170000Y-77210000D02*
X178290000Y-77210000D01*
X169170000Y-92710000D02*
X169170000Y-77210000D01*
X178290000Y-92710000D02*
X169170000Y-92710000D01*
X173988748Y-92265000D02*
X174511252Y-92265000D01*
X173988748Y-93735000D02*
X174511252Y-93735000D01*
X167540000Y-107307836D02*
X167540000Y-107092164D01*
X168260000Y-107307836D02*
X168260000Y-107092164D01*
X175140000Y-107092164D02*
X175140000Y-107307836D01*
X175860000Y-107092164D02*
X175860000Y-107307836D01*
X183261252Y-101965000D02*
X182738748Y-101965000D01*
X183261252Y-103435000D02*
X182738748Y-103435000D01*
X142900000Y-112100000D02*
X143200000Y-112700000D01*
X143500000Y-112100000D02*
X142900000Y-112100000D01*
X143200000Y-112700000D02*
X143500000Y-112100000D01*
X140380000Y-115790000D02*
X140700000Y-115790000D01*
X140380000Y-119210000D02*
X140380000Y-115790000D01*
X140700000Y-119290000D02*
X140380000Y-119210000D01*
X141020000Y-119210000D02*
X140700000Y-119290000D01*
X141020000Y-115790000D02*
X141020000Y-119210000D01*
X140700000Y-115790000D02*
X141020000Y-115790000D01*
X142030000Y-114790000D02*
X141870000Y-114790000D01*
X142880000Y-115790000D02*
X143200000Y-115790000D01*
X142880000Y-119210000D02*
X142880000Y-115790000D01*
X143200000Y-119290000D02*
X142880000Y-119210000D01*
X143520000Y-119210000D02*
X143200000Y-119290000D01*
X143520000Y-115790000D02*
X143520000Y-119210000D01*
X143200000Y-115790000D02*
X143520000Y-115790000D01*
X144590000Y-115790000D02*
X139310000Y-115790000D01*
X139310000Y-114790000D02*
X138090000Y-114790000D01*
X139310000Y-119790000D02*
X139310000Y-114790000D01*
X138090000Y-119790000D02*
X139310000Y-119790000D01*
X144590000Y-114790000D02*
X145810000Y-114790000D01*
X144590000Y-119790000D02*
X144590000Y-114790000D01*
X145810000Y-119790000D02*
X144590000Y-119790000D01*
X139310000Y-112590000D02*
X139310000Y-114790000D01*
X138090000Y-112590000D02*
X139310000Y-112590000D01*
X138090000Y-121010000D02*
X138090000Y-112590000D01*
X145810000Y-121010000D02*
X138090000Y-121010000D01*
X145810000Y-112590000D02*
X145810000Y-121010000D01*
X144590000Y-112590000D02*
X145810000Y-112590000D01*
X144590000Y-114790000D02*
X144590000Y-112590000D01*
X191162742Y-116022500D02*
X191637258Y-116022500D01*
X191162742Y-114977500D02*
X191637258Y-114977500D01*
D12*
X168100000Y-103125000D02*
X168100000Y-104550000D01*
X167875000Y-95875000D02*
X167875000Y-96200000D01*
X175125000Y-95875000D02*
X175125000Y-96200000D01*
X175125000Y-103125000D02*
X175125000Y-102800000D01*
X167875000Y-103125000D02*
X167875000Y-102800000D01*
X175125000Y-103125000D02*
X174800000Y-103125000D01*
X175125000Y-95875000D02*
X174800000Y-95875000D01*
X167875000Y-95875000D02*
X168200000Y-95875000D01*
X167875000Y-103125000D02*
X168100000Y-103125000D01*
D13*
X165272500Y-97762742D02*
X165272500Y-98237258D01*
X164227500Y-97762742D02*
X164227500Y-98237258D01*
X178677500Y-97762742D02*
X178677500Y-98237258D01*
X179722500Y-97762742D02*
X179722500Y-98237258D01*
X165322500Y-93437258D02*
X165322500Y-92962742D01*
X164277500Y-93437258D02*
X164277500Y-92962742D01*
X166277500Y-93437258D02*
X166277500Y-92962742D01*
X167322500Y-93437258D02*
X167322500Y-92962742D01*
X145477500Y-85837258D02*
X145477500Y-85362742D01*
X146522500Y-85837258D02*
X146522500Y-85362742D01*
X169000000Y-108900000D02*
X174750000Y-108900000D01*
X174750000Y-108900000D02*
X174750000Y-105300000D01*
X174750000Y-105300000D02*
X169000000Y-105300000D01*
X191167743Y-112677501D02*
X191642259Y-112677501D01*
X191167743Y-111632501D02*
X191642259Y-111632501D01*
X191637258Y-114322500D02*
X191162742Y-114322500D01*
X191637258Y-113277500D02*
X191162742Y-113277500D01*
X145827064Y-111910000D02*
X144372936Y-111910000D01*
X145827064Y-110090000D02*
X144372936Y-110090000D01*
X135777500Y-104037258D02*
X135777500Y-103562742D01*
X136822500Y-104037258D02*
X136822500Y-103562742D01*
X133890000Y-104209420D02*
X133890000Y-104490580D01*
X134910000Y-104209420D02*
X134910000Y-104490580D01*
X137392164Y-93340000D02*
X137607836Y-93340000D01*
X137392164Y-94060000D02*
X137607836Y-94060000D01*
X138292164Y-95060000D02*
X138507836Y-95060000D01*
X138292164Y-94340000D02*
X138507836Y-94340000D01*
X134740000Y-88507836D02*
X134740000Y-88292164D01*
X135460000Y-88507836D02*
X135460000Y-88292164D01*
X134492164Y-99460000D02*
X134707836Y-99460000D01*
X134492164Y-98740000D02*
X134707836Y-98740000D01*
X126540000Y-97492164D02*
X126540000Y-97707836D01*
X127260000Y-97492164D02*
X127260000Y-97707836D01*
X137392164Y-96160000D02*
X137607836Y-96160000D01*
X137392164Y-95440000D02*
X137607836Y-95440000D01*
X135965000Y-88561252D02*
X135965000Y-88038748D01*
X137435000Y-88561252D02*
X137435000Y-88038748D01*
X124661252Y-91265000D02*
X124138748Y-91265000D01*
X124661252Y-92735000D02*
X124138748Y-92735000D01*
X135140000Y-84707836D02*
X135140000Y-84492164D01*
X135860000Y-84707836D02*
X135860000Y-84492164D01*
X129740000Y-84707836D02*
X129740000Y-84492164D01*
X130460000Y-84707836D02*
X130460000Y-84492164D01*
X137959420Y-91560000D02*
X138240580Y-91560000D01*
X137959420Y-90540000D02*
X138240580Y-90540000D01*
X137412164Y-92710000D02*
X137627836Y-92710000D01*
X137412164Y-91990000D02*
X137627836Y-91990000D01*
X183970000Y-91430000D02*
X183970000Y-88770000D01*
X168670000Y-91430000D02*
X183970000Y-91430000D01*
X168670000Y-88770000D02*
X183970000Y-88770000D01*
X168670000Y-91430000D02*
X168670000Y-88770000D01*
X167400000Y-91430000D02*
X166070000Y-91430000D01*
X166070000Y-91430000D02*
X166070000Y-90100000D01*
D14*
X140270000Y-108500000D02*
X140270000Y-92500000D01*
X161670000Y-108500000D02*
X161670000Y-92500000D01*
X161670000Y-92500000D02*
X149250000Y-92500000D01*
X146150000Y-92500000D02*
X140270000Y-92500000D01*
X161670000Y-108500000D02*
X149250000Y-108500000D01*
X146150000Y-108500000D02*
X140270000Y-108500000D01*
D15*
X144600000Y-109500000D02*
G75*
G03*
X144600000Y-109500000I-150000J0D01*
G01*
D13*
X126200378Y-108240000D02*
X126999622Y-108240000D01*
X126200378Y-109360000D02*
X126999622Y-109360000D01*
X127635000Y-101277064D02*
X127635000Y-100822936D01*
X126165000Y-101277064D02*
X126165000Y-100822936D01*
X128065000Y-101277064D02*
X128065000Y-100822936D01*
X129535000Y-101277064D02*
X129535000Y-100822936D01*
X131435000Y-101277064D02*
X131435000Y-100822936D01*
X129965000Y-101277064D02*
X129965000Y-100822936D01*
X131865000Y-101277064D02*
X131865000Y-100822936D01*
X133335000Y-101277064D02*
X133335000Y-100822936D01*
X126077500Y-104537258D02*
X126077500Y-104062742D01*
X127122500Y-104537258D02*
X127122500Y-104062742D01*
X128477500Y-104537258D02*
X128477500Y-104062742D01*
X129522500Y-104537258D02*
X129522500Y-104062742D01*
X131222500Y-104587258D02*
X131222500Y-104112742D01*
X130177500Y-104587258D02*
X130177500Y-104112742D01*
X153437258Y-111722500D02*
X152962742Y-111722500D01*
X153437258Y-110677500D02*
X152962742Y-110677500D01*
X153437258Y-109077500D02*
X152962742Y-109077500D01*
X153437258Y-110122500D02*
X152962742Y-110122500D01*
X133122500Y-104587258D02*
X133122500Y-104112742D01*
X132077500Y-104587258D02*
X132077500Y-104112742D01*
X128140000Y-96910000D02*
X128140000Y-98200000D01*
X127690000Y-96910000D02*
X128140000Y-96910000D01*
X127690000Y-96460000D02*
X127690000Y-96910000D01*
X127690000Y-89690000D02*
X128140000Y-89690000D01*
X127690000Y-90140000D02*
X127690000Y-89690000D01*
X134910000Y-96910000D02*
X134460000Y-96910000D01*
X134910000Y-96460000D02*
X134910000Y-96910000D01*
X134910000Y-89690000D02*
X134460000Y-89690000D01*
X134910000Y-90140000D02*
X134910000Y-89690000D01*
X130800000Y-85950000D02*
X134800000Y-85950000D01*
X130800000Y-82650000D02*
X130800000Y-85950000D01*
X187590000Y-103011252D02*
X187590000Y-101588748D01*
X189410000Y-103011252D02*
X189410000Y-101588748D01*
X185365000Y-101961252D02*
X185365000Y-101438748D01*
X186835000Y-101961252D02*
X186835000Y-101438748D01*
X191000000Y-111300000D02*
X191000000Y-98300000D01*
X201000000Y-111300000D02*
X191000000Y-111300000D01*
X201000000Y-98300000D02*
X201000000Y-111300000D01*
X191000000Y-98300000D02*
X201000000Y-98300000D01*
X165362742Y-105077500D02*
X165837258Y-105077500D01*
X165362742Y-106122500D02*
X165837258Y-106122500D01*
X193938748Y-90065000D02*
X194461252Y-90065000D01*
X193938748Y-91535000D02*
X194461252Y-91535000D01*
X193938748Y-89135000D02*
X194461252Y-89135000D01*
X193938748Y-87665000D02*
X194461252Y-87665000D01*
X190338748Y-90065000D02*
X190861252Y-90065000D01*
X190338748Y-91535000D02*
X190861252Y-91535000D01*
X188535000Y-91138748D02*
X188535000Y-91661252D01*
X187065000Y-91138748D02*
X187065000Y-91661252D01*
X184865000Y-91138748D02*
X184865000Y-91661252D01*
X186335000Y-91138748D02*
X186335000Y-91661252D01*
X183327064Y-85110000D02*
X181872936Y-85110000D01*
X183327064Y-83290000D02*
X181872936Y-83290000D01*
X183322063Y-85744999D02*
X181867935Y-85744999D01*
X183322063Y-87564999D02*
X181867935Y-87564999D01*
X170470000Y-118825000D02*
X170470000Y-109055000D01*
X175540000Y-118825000D02*
X175540000Y-109055000D01*
X170470000Y-118825000D02*
X175540000Y-118825000D01*
X170470000Y-109055000D02*
X175540000Y-109055000D01*
X186390000Y-83515000D02*
X186390000Y-82790000D01*
X186390000Y-82790000D02*
X187115000Y-82790000D01*
X191610000Y-87285000D02*
X191610000Y-88010000D01*
X191610000Y-88010000D02*
X190885000Y-88010000D01*
X191610000Y-83515000D02*
X191610000Y-82790000D01*
X191610000Y-82790000D02*
X190885000Y-82790000D01*
X186390000Y-87285000D02*
X186390000Y-88010000D01*
X138059420Y-98890000D02*
X138340580Y-98890000D01*
X138059420Y-99910000D02*
X138340580Y-99910000D01*
X138059420Y-101510000D02*
X138340580Y-101510000D01*
X138059420Y-100490000D02*
X138340580Y-100490000D01*
X138935000Y-103827064D02*
X138935000Y-103372936D01*
X137465000Y-103827064D02*
X137465000Y-103372936D01*
X131637258Y-86477500D02*
X131162742Y-86477500D01*
X131637258Y-87522500D02*
X131162742Y-87522500D01*
X137237258Y-97922500D02*
X136762742Y-97922500D01*
X137237258Y-96877500D02*
X136762742Y-96877500D01*
X144285000Y-83865000D02*
X142000000Y-83865000D01*
X144285000Y-85335000D02*
X144285000Y-83865000D01*
X142000000Y-85335000D02*
X144285000Y-85335000D01*
X142000000Y-83535000D02*
X144285000Y-83535000D01*
X144285000Y-83535000D02*
X144285000Y-82065000D01*
X144285000Y-82065000D02*
X142000000Y-82065000D01*
X140077500Y-87237258D02*
X140077500Y-86762742D01*
X141122500Y-87237258D02*
X141122500Y-86762742D01*
X139322500Y-87237258D02*
X139322500Y-86762742D01*
X138277500Y-87237258D02*
X138277500Y-86762742D01*
X192200000Y-116465000D02*
X189915000Y-116465000D01*
X189915000Y-116465000D02*
X189915000Y-117935000D01*
X189915000Y-117935000D02*
X192200000Y-117935000D01*
X164115000Y-108135000D02*
X166400000Y-108135000D01*
X164115000Y-106665000D02*
X164115000Y-108135000D01*
X166400000Y-106665000D02*
X164115000Y-106665000D01*
X124138748Y-94935000D02*
X124661252Y-94935000D01*
X124138748Y-93465000D02*
X124661252Y-93465000D01*
D16*
X198778571Y-94321428D02*
X198802380Y-94345238D01*
X198826190Y-94416666D01*
X198826190Y-94464285D01*
X198802380Y-94535714D01*
X198754761Y-94583333D01*
X198707142Y-94607142D01*
X198611904Y-94630952D01*
X198540476Y-94630952D01*
X198445238Y-94607142D01*
X198397619Y-94583333D01*
X198350000Y-94535714D01*
X198326190Y-94464285D01*
X198326190Y-94416666D01*
X198350000Y-94345238D01*
X198373809Y-94321428D01*
X198373809Y-94130952D02*
X198350000Y-94107142D01*
X198326190Y-94059523D01*
X198326190Y-93940476D01*
X198350000Y-93892857D01*
X198373809Y-93869047D01*
X198421428Y-93845238D01*
X198469047Y-93845238D01*
X198540476Y-93869047D01*
X198826190Y-94154761D01*
X198826190Y-93845238D01*
X198326190Y-93535714D02*
X198326190Y-93488095D01*
X198350000Y-93440476D01*
X198373809Y-93416666D01*
X198421428Y-93392857D01*
X198516666Y-93369047D01*
X198635714Y-93369047D01*
X198730952Y-93392857D01*
X198778571Y-93416666D01*
X198802380Y-93440476D01*
X198826190Y-93488095D01*
X198826190Y-93535714D01*
X198802380Y-93583333D01*
X198778571Y-93607142D01*
X198730952Y-93630952D01*
X198635714Y-93654761D01*
X198516666Y-93654761D01*
X198421428Y-93630952D01*
X198373809Y-93607142D01*
X198350000Y-93583333D01*
X198326190Y-93535714D01*
X178033333Y-111726190D02*
X178033333Y-112083333D01*
X178009523Y-112154761D01*
X177961904Y-112202380D01*
X177890476Y-112226190D01*
X177842857Y-112226190D01*
X178247619Y-111773809D02*
X178271428Y-111750000D01*
X178319047Y-111726190D01*
X178438095Y-111726190D01*
X178485714Y-111750000D01*
X178509523Y-111773809D01*
X178533333Y-111821428D01*
X178533333Y-111869047D01*
X178509523Y-111940476D01*
X178223809Y-112226190D01*
X178533333Y-112226190D01*
D12*
X179428571Y-104507142D02*
X180571428Y-104507142D01*
X184428571Y-104507142D02*
X185571428Y-104507142D01*
X185000000Y-105078571D02*
X185000000Y-103935714D01*
D16*
X133633333Y-112726190D02*
X133633333Y-113083333D01*
X133609523Y-113154761D01*
X133561904Y-113202380D01*
X133490476Y-113226190D01*
X133442857Y-113226190D01*
X134109523Y-112726190D02*
X133871428Y-112726190D01*
X133847619Y-112964285D01*
X133871428Y-112940476D01*
X133919047Y-112916666D01*
X134038095Y-112916666D01*
X134085714Y-112940476D01*
X134109523Y-112964285D01*
X134133333Y-113011904D01*
X134133333Y-113130952D01*
X134109523Y-113178571D01*
X134085714Y-113202380D01*
X134038095Y-113226190D01*
X133919047Y-113226190D01*
X133871428Y-113202380D01*
X133847619Y-113178571D01*
X176233333Y-81326190D02*
X176233333Y-81683333D01*
X176209523Y-81754761D01*
X176161904Y-81802380D01*
X176090476Y-81826190D01*
X176042857Y-81826190D01*
X176733333Y-81826190D02*
X176447619Y-81826190D01*
X176590476Y-81826190D02*
X176590476Y-81326190D01*
X176542857Y-81397619D01*
X176495238Y-81445238D01*
X176447619Y-81469047D01*
X172066666Y-93578571D02*
X172042857Y-93602380D01*
X171971428Y-93626190D01*
X171923809Y-93626190D01*
X171852380Y-93602380D01*
X171804761Y-93554761D01*
X171780952Y-93507142D01*
X171757142Y-93411904D01*
X171757142Y-93340476D01*
X171780952Y-93245238D01*
X171804761Y-93197619D01*
X171852380Y-93150000D01*
X171923809Y-93126190D01*
X171971428Y-93126190D01*
X172042857Y-93150000D01*
X172066666Y-93173809D01*
X172542857Y-93626190D02*
X172257142Y-93626190D01*
X172400000Y-93626190D02*
X172400000Y-93126190D01*
X172352380Y-93197619D01*
X172304761Y-93245238D01*
X172257142Y-93269047D01*
X167816666Y-108728571D02*
X167792857Y-108752380D01*
X167721428Y-108776190D01*
X167673809Y-108776190D01*
X167602380Y-108752380D01*
X167554761Y-108704761D01*
X167530952Y-108657142D01*
X167507142Y-108561904D01*
X167507142Y-108490476D01*
X167530952Y-108395238D01*
X167554761Y-108347619D01*
X167602380Y-108300000D01*
X167673809Y-108276190D01*
X167721428Y-108276190D01*
X167792857Y-108300000D01*
X167816666Y-108323809D01*
X168102380Y-108490476D02*
X168054761Y-108466666D01*
X168030952Y-108442857D01*
X168007142Y-108395238D01*
X168007142Y-108371428D01*
X168030952Y-108323809D01*
X168054761Y-108300000D01*
X168102380Y-108276190D01*
X168197619Y-108276190D01*
X168245238Y-108300000D01*
X168269047Y-108323809D01*
X168292857Y-108371428D01*
X168292857Y-108395238D01*
X168269047Y-108442857D01*
X168245238Y-108466666D01*
X168197619Y-108490476D01*
X168102380Y-108490476D01*
X168054761Y-108514285D01*
X168030952Y-108538095D01*
X168007142Y-108585714D01*
X168007142Y-108680952D01*
X168030952Y-108728571D01*
X168054761Y-108752380D01*
X168102380Y-108776190D01*
X168197619Y-108776190D01*
X168245238Y-108752380D01*
X168269047Y-108728571D01*
X168292857Y-108680952D01*
X168292857Y-108585714D01*
X168269047Y-108538095D01*
X168245238Y-108514285D01*
X168197619Y-108490476D01*
X175328571Y-108728571D02*
X175304761Y-108752380D01*
X175233333Y-108776190D01*
X175185714Y-108776190D01*
X175114285Y-108752380D01*
X175066666Y-108704761D01*
X175042857Y-108657142D01*
X175019047Y-108561904D01*
X175019047Y-108490476D01*
X175042857Y-108395238D01*
X175066666Y-108347619D01*
X175114285Y-108300000D01*
X175185714Y-108276190D01*
X175233333Y-108276190D01*
X175304761Y-108300000D01*
X175328571Y-108323809D01*
X175804761Y-108776190D02*
X175519047Y-108776190D01*
X175661904Y-108776190D02*
X175661904Y-108276190D01*
X175614285Y-108347619D01*
X175566666Y-108395238D01*
X175519047Y-108419047D01*
X176114285Y-108276190D02*
X176161904Y-108276190D01*
X176209523Y-108300000D01*
X176233333Y-108323809D01*
X176257142Y-108371428D01*
X176280952Y-108466666D01*
X176280952Y-108585714D01*
X176257142Y-108680952D01*
X176233333Y-108728571D01*
X176209523Y-108752380D01*
X176161904Y-108776190D01*
X176114285Y-108776190D01*
X176066666Y-108752380D01*
X176042857Y-108728571D01*
X176019047Y-108680952D01*
X175995238Y-108585714D01*
X175995238Y-108466666D01*
X176019047Y-108371428D01*
X176042857Y-108323809D01*
X176066666Y-108300000D01*
X176114285Y-108276190D01*
X181678571Y-101578571D02*
X181654761Y-101602380D01*
X181583333Y-101626190D01*
X181535714Y-101626190D01*
X181464285Y-101602380D01*
X181416666Y-101554761D01*
X181392857Y-101507142D01*
X181369047Y-101411904D01*
X181369047Y-101340476D01*
X181392857Y-101245238D01*
X181416666Y-101197619D01*
X181464285Y-101150000D01*
X181535714Y-101126190D01*
X181583333Y-101126190D01*
X181654761Y-101150000D01*
X181678571Y-101173809D01*
X182154761Y-101626190D02*
X181869047Y-101626190D01*
X182011904Y-101626190D02*
X182011904Y-101126190D01*
X181964285Y-101197619D01*
X181916666Y-101245238D01*
X181869047Y-101269047D01*
X182345238Y-101173809D02*
X182369047Y-101150000D01*
X182416666Y-101126190D01*
X182535714Y-101126190D01*
X182583333Y-101150000D01*
X182607142Y-101173809D01*
X182630952Y-101221428D01*
X182630952Y-101269047D01*
X182607142Y-101340476D01*
X182321428Y-101626190D01*
X182630952Y-101626190D01*
X141633333Y-112726190D02*
X141633333Y-113083333D01*
X141609523Y-113154761D01*
X141561904Y-113202380D01*
X141490476Y-113226190D01*
X141442857Y-113226190D01*
X142085714Y-112892857D02*
X142085714Y-113226190D01*
X141966666Y-112702380D02*
X141847619Y-113059523D01*
X142157142Y-113059523D01*
X193328571Y-115776190D02*
X193161904Y-115538095D01*
X193042857Y-115776190D02*
X193042857Y-115276190D01*
X193233333Y-115276190D01*
X193280952Y-115300000D01*
X193304761Y-115323809D01*
X193328571Y-115371428D01*
X193328571Y-115442857D01*
X193304761Y-115490476D01*
X193280952Y-115514285D01*
X193233333Y-115538095D01*
X193042857Y-115538095D01*
X193804761Y-115776190D02*
X193519047Y-115776190D01*
X193661904Y-115776190D02*
X193661904Y-115276190D01*
X193614285Y-115347619D01*
X193566666Y-115395238D01*
X193519047Y-115419047D01*
X193971428Y-115276190D02*
X194280952Y-115276190D01*
X194114285Y-115466666D01*
X194185714Y-115466666D01*
X194233333Y-115490476D01*
X194257142Y-115514285D01*
X194280952Y-115561904D01*
X194280952Y-115680952D01*
X194257142Y-115728571D01*
X194233333Y-115752380D01*
X194185714Y-115776190D01*
X194042857Y-115776190D01*
X193995238Y-115752380D01*
X193971428Y-115728571D01*
X175219047Y-95126190D02*
X175219047Y-95530952D01*
X175242857Y-95578571D01*
X175266666Y-95602380D01*
X175314285Y-95626190D01*
X175409523Y-95626190D01*
X175457142Y-95602380D01*
X175480952Y-95578571D01*
X175504761Y-95530952D01*
X175504761Y-95126190D01*
X175719047Y-95173809D02*
X175742857Y-95150000D01*
X175790476Y-95126190D01*
X175909523Y-95126190D01*
X175957142Y-95150000D01*
X175980952Y-95173809D01*
X176004761Y-95221428D01*
X176004761Y-95269047D01*
X175980952Y-95340476D01*
X175695238Y-95626190D01*
X176004761Y-95626190D01*
X164378571Y-100126190D02*
X164211904Y-99888095D01*
X164092857Y-100126190D02*
X164092857Y-99626190D01*
X164283333Y-99626190D01*
X164330952Y-99650000D01*
X164354761Y-99673809D01*
X164378571Y-99721428D01*
X164378571Y-99792857D01*
X164354761Y-99840476D01*
X164330952Y-99864285D01*
X164283333Y-99888095D01*
X164092857Y-99888095D01*
X164854761Y-100126190D02*
X164569047Y-100126190D01*
X164711904Y-100126190D02*
X164711904Y-99626190D01*
X164664285Y-99697619D01*
X164616666Y-99745238D01*
X164569047Y-99769047D01*
X165283333Y-99792857D02*
X165283333Y-100126190D01*
X165164285Y-99602380D02*
X165045238Y-99959523D01*
X165354761Y-99959523D01*
X178878571Y-96426190D02*
X178711904Y-96188095D01*
X178592857Y-96426190D02*
X178592857Y-95926190D01*
X178783333Y-95926190D01*
X178830952Y-95950000D01*
X178854761Y-95973809D01*
X178878571Y-96021428D01*
X178878571Y-96092857D01*
X178854761Y-96140476D01*
X178830952Y-96164285D01*
X178783333Y-96188095D01*
X178592857Y-96188095D01*
X179354761Y-96426190D02*
X179069047Y-96426190D01*
X179211904Y-96426190D02*
X179211904Y-95926190D01*
X179164285Y-95997619D01*
X179116666Y-96045238D01*
X179069047Y-96069047D01*
X179807142Y-95926190D02*
X179569047Y-95926190D01*
X179545238Y-96164285D01*
X179569047Y-96140476D01*
X179616666Y-96116666D01*
X179735714Y-96116666D01*
X179783333Y-96140476D01*
X179807142Y-96164285D01*
X179830952Y-96211904D01*
X179830952Y-96330952D01*
X179807142Y-96378571D01*
X179783333Y-96402380D01*
X179735714Y-96426190D01*
X179616666Y-96426190D01*
X179569047Y-96402380D01*
X179545238Y-96378571D01*
X164466666Y-95276190D02*
X164300000Y-95038095D01*
X164180952Y-95276190D02*
X164180952Y-94776190D01*
X164371428Y-94776190D01*
X164419047Y-94800000D01*
X164442857Y-94823809D01*
X164466666Y-94871428D01*
X164466666Y-94942857D01*
X164442857Y-94990476D01*
X164419047Y-95014285D01*
X164371428Y-95038095D01*
X164180952Y-95038095D01*
X164942857Y-95276190D02*
X164657142Y-95276190D01*
X164800000Y-95276190D02*
X164800000Y-94776190D01*
X164752380Y-94847619D01*
X164704761Y-94895238D01*
X164657142Y-94919047D01*
X166466666Y-95276190D02*
X166300000Y-95038095D01*
X166180952Y-95276190D02*
X166180952Y-94776190D01*
X166371428Y-94776190D01*
X166419047Y-94800000D01*
X166442857Y-94823809D01*
X166466666Y-94871428D01*
X166466666Y-94942857D01*
X166442857Y-94990476D01*
X166419047Y-95014285D01*
X166371428Y-95038095D01*
X166180952Y-95038095D01*
X166657142Y-94823809D02*
X166680952Y-94800000D01*
X166728571Y-94776190D01*
X166847619Y-94776190D01*
X166895238Y-94800000D01*
X166919047Y-94823809D01*
X166942857Y-94871428D01*
X166942857Y-94919047D01*
X166919047Y-94990476D01*
X166633333Y-95276190D01*
X166942857Y-95276190D01*
X146226190Y-83633333D02*
X145988095Y-83800000D01*
X146226190Y-83919047D02*
X145726190Y-83919047D01*
X145726190Y-83728571D01*
X145750000Y-83680952D01*
X145773809Y-83657142D01*
X145821428Y-83633333D01*
X145892857Y-83633333D01*
X145940476Y-83657142D01*
X145964285Y-83680952D01*
X145988095Y-83728571D01*
X145988095Y-83919047D01*
X145726190Y-83466666D02*
X145726190Y-83157142D01*
X145916666Y-83323809D01*
X145916666Y-83252380D01*
X145940476Y-83204761D01*
X145964285Y-83180952D01*
X146011904Y-83157142D01*
X146130952Y-83157142D01*
X146178571Y-83180952D01*
X146202380Y-83204761D01*
X146226190Y-83252380D01*
X146226190Y-83395238D01*
X146202380Y-83442857D01*
X146178571Y-83466666D01*
X169011904Y-109388095D02*
X169011904Y-109626190D01*
X168845238Y-109126190D02*
X169011904Y-109388095D01*
X169178571Y-109126190D01*
X169297619Y-109126190D02*
X169607142Y-109126190D01*
X169440476Y-109316666D01*
X169511904Y-109316666D01*
X169559523Y-109340476D01*
X169583333Y-109364285D01*
X169607142Y-109411904D01*
X169607142Y-109530952D01*
X169583333Y-109578571D01*
X169559523Y-109602380D01*
X169511904Y-109626190D01*
X169369047Y-109626190D01*
X169321428Y-109602380D01*
X169297619Y-109578571D01*
X193328571Y-112426190D02*
X193161904Y-112188095D01*
X193042857Y-112426190D02*
X193042857Y-111926190D01*
X193233333Y-111926190D01*
X193280952Y-111950000D01*
X193304761Y-111973809D01*
X193328571Y-112021428D01*
X193328571Y-112092857D01*
X193304761Y-112140476D01*
X193280952Y-112164285D01*
X193233333Y-112188095D01*
X193042857Y-112188095D01*
X193804761Y-112426190D02*
X193519047Y-112426190D01*
X193661904Y-112426190D02*
X193661904Y-111926190D01*
X193614285Y-111997619D01*
X193566666Y-112045238D01*
X193519047Y-112069047D01*
X194233333Y-111926190D02*
X194138095Y-111926190D01*
X194090476Y-111950000D01*
X194066666Y-111973809D01*
X194019047Y-112045238D01*
X193995238Y-112140476D01*
X193995238Y-112330952D01*
X194019047Y-112378571D01*
X194042857Y-112402380D01*
X194090476Y-112426190D01*
X194185714Y-112426190D01*
X194233333Y-112402380D01*
X194257142Y-112378571D01*
X194280952Y-112330952D01*
X194280952Y-112211904D01*
X194257142Y-112164285D01*
X194233333Y-112140476D01*
X194185714Y-112116666D01*
X194090476Y-112116666D01*
X194042857Y-112140476D01*
X194019047Y-112164285D01*
X193995238Y-112211904D01*
X193328571Y-114076190D02*
X193161904Y-113838095D01*
X193042857Y-114076190D02*
X193042857Y-113576190D01*
X193233333Y-113576190D01*
X193280952Y-113600000D01*
X193304761Y-113623809D01*
X193328571Y-113671428D01*
X193328571Y-113742857D01*
X193304761Y-113790476D01*
X193280952Y-113814285D01*
X193233333Y-113838095D01*
X193042857Y-113838095D01*
X193804761Y-114076190D02*
X193519047Y-114076190D01*
X193661904Y-114076190D02*
X193661904Y-113576190D01*
X193614285Y-113647619D01*
X193566666Y-113695238D01*
X193519047Y-113719047D01*
X193971428Y-113576190D02*
X194304761Y-113576190D01*
X194090476Y-114076190D01*
X146466666Y-112728571D02*
X146442857Y-112752380D01*
X146371428Y-112776190D01*
X146323809Y-112776190D01*
X146252380Y-112752380D01*
X146204761Y-112704761D01*
X146180952Y-112657142D01*
X146157142Y-112561904D01*
X146157142Y-112490476D01*
X146180952Y-112395238D01*
X146204761Y-112347619D01*
X146252380Y-112300000D01*
X146323809Y-112276190D01*
X146371428Y-112276190D01*
X146442857Y-112300000D01*
X146466666Y-112323809D01*
X146633333Y-112276190D02*
X146942857Y-112276190D01*
X146776190Y-112466666D01*
X146847619Y-112466666D01*
X146895238Y-112490476D01*
X146919047Y-112514285D01*
X146942857Y-112561904D01*
X146942857Y-112680952D01*
X146919047Y-112728571D01*
X146895238Y-112752380D01*
X146847619Y-112776190D01*
X146704761Y-112776190D01*
X146657142Y-112752380D01*
X146633333Y-112728571D01*
X136316666Y-105778571D02*
X136292857Y-105802380D01*
X136221428Y-105826190D01*
X136173809Y-105826190D01*
X136102380Y-105802380D01*
X136054761Y-105754761D01*
X136030952Y-105707142D01*
X136007142Y-105611904D01*
X136007142Y-105540476D01*
X136030952Y-105445238D01*
X136054761Y-105397619D01*
X136102380Y-105350000D01*
X136173809Y-105326190D01*
X136221428Y-105326190D01*
X136292857Y-105350000D01*
X136316666Y-105373809D01*
X136745238Y-105492857D02*
X136745238Y-105826190D01*
X136626190Y-105302380D02*
X136507142Y-105659523D01*
X136816666Y-105659523D01*
X134316666Y-106428571D02*
X134292857Y-106452380D01*
X134221428Y-106476190D01*
X134173809Y-106476190D01*
X134102380Y-106452380D01*
X134054761Y-106404761D01*
X134030952Y-106357142D01*
X134007142Y-106261904D01*
X134007142Y-106190476D01*
X134030952Y-106095238D01*
X134054761Y-106047619D01*
X134102380Y-106000000D01*
X134173809Y-105976190D01*
X134221428Y-105976190D01*
X134292857Y-106000000D01*
X134316666Y-106023809D01*
X134769047Y-105976190D02*
X134530952Y-105976190D01*
X134507142Y-106214285D01*
X134530952Y-106190476D01*
X134578571Y-106166666D01*
X134697619Y-106166666D01*
X134745238Y-106190476D01*
X134769047Y-106214285D01*
X134792857Y-106261904D01*
X134792857Y-106380952D01*
X134769047Y-106428571D01*
X134745238Y-106452380D01*
X134697619Y-106476190D01*
X134578571Y-106476190D01*
X134530952Y-106452380D01*
X134507142Y-106428571D01*
X138878571Y-93878571D02*
X138854761Y-93902380D01*
X138783333Y-93926190D01*
X138735714Y-93926190D01*
X138664285Y-93902380D01*
X138616666Y-93854761D01*
X138592857Y-93807142D01*
X138569047Y-93711904D01*
X138569047Y-93640476D01*
X138592857Y-93545238D01*
X138616666Y-93497619D01*
X138664285Y-93450000D01*
X138735714Y-93426190D01*
X138783333Y-93426190D01*
X138854761Y-93450000D01*
X138878571Y-93473809D01*
X139354761Y-93926190D02*
X139069047Y-93926190D01*
X139211904Y-93926190D02*
X139211904Y-93426190D01*
X139164285Y-93497619D01*
X139116666Y-93545238D01*
X139069047Y-93569047D01*
X139783333Y-93592857D02*
X139783333Y-93926190D01*
X139664285Y-93402380D02*
X139545238Y-93759523D01*
X139854761Y-93759523D01*
X136678571Y-94978571D02*
X136654761Y-95002380D01*
X136583333Y-95026190D01*
X136535714Y-95026190D01*
X136464285Y-95002380D01*
X136416666Y-94954761D01*
X136392857Y-94907142D01*
X136369047Y-94811904D01*
X136369047Y-94740476D01*
X136392857Y-94645238D01*
X136416666Y-94597619D01*
X136464285Y-94550000D01*
X136535714Y-94526190D01*
X136583333Y-94526190D01*
X136654761Y-94550000D01*
X136678571Y-94573809D01*
X137154761Y-95026190D02*
X136869047Y-95026190D01*
X137011904Y-95026190D02*
X137011904Y-94526190D01*
X136964285Y-94597619D01*
X136916666Y-94645238D01*
X136869047Y-94669047D01*
X137607142Y-94526190D02*
X137369047Y-94526190D01*
X137345238Y-94764285D01*
X137369047Y-94740476D01*
X137416666Y-94716666D01*
X137535714Y-94716666D01*
X137583333Y-94740476D01*
X137607142Y-94764285D01*
X137630952Y-94811904D01*
X137630952Y-94930952D01*
X137607142Y-94978571D01*
X137583333Y-95002380D01*
X137535714Y-95026190D01*
X137416666Y-95026190D01*
X137369047Y-95002380D01*
X137345238Y-94978571D01*
X135328571Y-87071428D02*
X135352380Y-87095238D01*
X135376190Y-87166666D01*
X135376190Y-87214285D01*
X135352380Y-87285714D01*
X135304761Y-87333333D01*
X135257142Y-87357142D01*
X135161904Y-87380952D01*
X135090476Y-87380952D01*
X134995238Y-87357142D01*
X134947619Y-87333333D01*
X134900000Y-87285714D01*
X134876190Y-87214285D01*
X134876190Y-87166666D01*
X134900000Y-87095238D01*
X134923809Y-87071428D01*
X135376190Y-86595238D02*
X135376190Y-86880952D01*
X135376190Y-86738095D02*
X134876190Y-86738095D01*
X134947619Y-86785714D01*
X134995238Y-86833333D01*
X135019047Y-86880952D01*
X134876190Y-86166666D02*
X134876190Y-86261904D01*
X134900000Y-86309523D01*
X134923809Y-86333333D01*
X134995238Y-86380952D01*
X135090476Y-86404761D01*
X135280952Y-86404761D01*
X135328571Y-86380952D01*
X135352380Y-86357142D01*
X135376190Y-86309523D01*
X135376190Y-86214285D01*
X135352380Y-86166666D01*
X135328571Y-86142857D01*
X135280952Y-86119047D01*
X135161904Y-86119047D01*
X135114285Y-86142857D01*
X135090476Y-86166666D01*
X135066666Y-86214285D01*
X135066666Y-86309523D01*
X135090476Y-86357142D01*
X135114285Y-86380952D01*
X135161904Y-86404761D01*
X134278571Y-100178571D02*
X134254761Y-100202380D01*
X134183333Y-100226190D01*
X134135714Y-100226190D01*
X134064285Y-100202380D01*
X134016666Y-100154761D01*
X133992857Y-100107142D01*
X133969047Y-100011904D01*
X133969047Y-99940476D01*
X133992857Y-99845238D01*
X134016666Y-99797619D01*
X134064285Y-99750000D01*
X134135714Y-99726190D01*
X134183333Y-99726190D01*
X134254761Y-99750000D01*
X134278571Y-99773809D01*
X134754761Y-100226190D02*
X134469047Y-100226190D01*
X134611904Y-100226190D02*
X134611904Y-99726190D01*
X134564285Y-99797619D01*
X134516666Y-99845238D01*
X134469047Y-99869047D01*
X134921428Y-99726190D02*
X135254761Y-99726190D01*
X135040476Y-100226190D01*
X126228571Y-97921428D02*
X126252380Y-97945238D01*
X126276190Y-98016666D01*
X126276190Y-98064285D01*
X126252380Y-98135714D01*
X126204761Y-98183333D01*
X126157142Y-98207142D01*
X126061904Y-98230952D01*
X125990476Y-98230952D01*
X125895238Y-98207142D01*
X125847619Y-98183333D01*
X125800000Y-98135714D01*
X125776190Y-98064285D01*
X125776190Y-98016666D01*
X125800000Y-97945238D01*
X125823809Y-97921428D01*
X125823809Y-97730952D02*
X125800000Y-97707142D01*
X125776190Y-97659523D01*
X125776190Y-97540476D01*
X125800000Y-97492857D01*
X125823809Y-97469047D01*
X125871428Y-97445238D01*
X125919047Y-97445238D01*
X125990476Y-97469047D01*
X126276190Y-97754761D01*
X126276190Y-97445238D01*
X125942857Y-97016666D02*
X126276190Y-97016666D01*
X125752380Y-97135714D02*
X126109523Y-97254761D01*
X126109523Y-96945238D01*
X138878571Y-95978571D02*
X138854761Y-96002380D01*
X138783333Y-96026190D01*
X138735714Y-96026190D01*
X138664285Y-96002380D01*
X138616666Y-95954761D01*
X138592857Y-95907142D01*
X138569047Y-95811904D01*
X138569047Y-95740476D01*
X138592857Y-95645238D01*
X138616666Y-95597619D01*
X138664285Y-95550000D01*
X138735714Y-95526190D01*
X138783333Y-95526190D01*
X138854761Y-95550000D01*
X138878571Y-95573809D01*
X139069047Y-95573809D02*
X139092857Y-95550000D01*
X139140476Y-95526190D01*
X139259523Y-95526190D01*
X139307142Y-95550000D01*
X139330952Y-95573809D01*
X139354761Y-95621428D01*
X139354761Y-95669047D01*
X139330952Y-95740476D01*
X139045238Y-96026190D01*
X139354761Y-96026190D01*
X139807142Y-95526190D02*
X139569047Y-95526190D01*
X139545238Y-95764285D01*
X139569047Y-95740476D01*
X139616666Y-95716666D01*
X139735714Y-95716666D01*
X139783333Y-95740476D01*
X139807142Y-95764285D01*
X139830952Y-95811904D01*
X139830952Y-95930952D01*
X139807142Y-95978571D01*
X139783333Y-96002380D01*
X139735714Y-96026190D01*
X139616666Y-96026190D01*
X139569047Y-96002380D01*
X139545238Y-95978571D01*
X136278571Y-86378571D02*
X136254761Y-86402380D01*
X136183333Y-86426190D01*
X136135714Y-86426190D01*
X136064285Y-86402380D01*
X136016666Y-86354761D01*
X135992857Y-86307142D01*
X135969047Y-86211904D01*
X135969047Y-86140476D01*
X135992857Y-86045238D01*
X136016666Y-85997619D01*
X136064285Y-85950000D01*
X136135714Y-85926190D01*
X136183333Y-85926190D01*
X136254761Y-85950000D01*
X136278571Y-85973809D01*
X136469047Y-85973809D02*
X136492857Y-85950000D01*
X136540476Y-85926190D01*
X136659523Y-85926190D01*
X136707142Y-85950000D01*
X136730952Y-85973809D01*
X136754761Y-86021428D01*
X136754761Y-86069047D01*
X136730952Y-86140476D01*
X136445238Y-86426190D01*
X136754761Y-86426190D01*
X137183333Y-85926190D02*
X137088095Y-85926190D01*
X137040476Y-85950000D01*
X137016666Y-85973809D01*
X136969047Y-86045238D01*
X136945238Y-86140476D01*
X136945238Y-86330952D01*
X136969047Y-86378571D01*
X136992857Y-86402380D01*
X137040476Y-86426190D01*
X137135714Y-86426190D01*
X137183333Y-86402380D01*
X137207142Y-86378571D01*
X137230952Y-86330952D01*
X137230952Y-86211904D01*
X137207142Y-86164285D01*
X137183333Y-86140476D01*
X137135714Y-86116666D01*
X137040476Y-86116666D01*
X136992857Y-86140476D01*
X136969047Y-86164285D01*
X136945238Y-86211904D01*
X123278571Y-90878571D02*
X123254761Y-90902380D01*
X123183333Y-90926190D01*
X123135714Y-90926190D01*
X123064285Y-90902380D01*
X123016666Y-90854761D01*
X122992857Y-90807142D01*
X122969047Y-90711904D01*
X122969047Y-90640476D01*
X122992857Y-90545238D01*
X123016666Y-90497619D01*
X123064285Y-90450000D01*
X123135714Y-90426190D01*
X123183333Y-90426190D01*
X123254761Y-90450000D01*
X123278571Y-90473809D01*
X123445238Y-90426190D02*
X123754761Y-90426190D01*
X123588095Y-90616666D01*
X123659523Y-90616666D01*
X123707142Y-90640476D01*
X123730952Y-90664285D01*
X123754761Y-90711904D01*
X123754761Y-90830952D01*
X123730952Y-90878571D01*
X123707142Y-90902380D01*
X123659523Y-90926190D01*
X123516666Y-90926190D01*
X123469047Y-90902380D01*
X123445238Y-90878571D01*
X124064285Y-90426190D02*
X124111904Y-90426190D01*
X124159523Y-90450000D01*
X124183333Y-90473809D01*
X124207142Y-90521428D01*
X124230952Y-90616666D01*
X124230952Y-90735714D01*
X124207142Y-90830952D01*
X124183333Y-90878571D01*
X124159523Y-90902380D01*
X124111904Y-90926190D01*
X124064285Y-90926190D01*
X124016666Y-90902380D01*
X123992857Y-90878571D01*
X123969047Y-90830952D01*
X123945238Y-90735714D01*
X123945238Y-90616666D01*
X123969047Y-90521428D01*
X123992857Y-90473809D01*
X124016666Y-90450000D01*
X124064285Y-90426190D01*
X135678571Y-83221428D02*
X135702380Y-83245238D01*
X135726190Y-83316666D01*
X135726190Y-83364285D01*
X135702380Y-83435714D01*
X135654761Y-83483333D01*
X135607142Y-83507142D01*
X135511904Y-83530952D01*
X135440476Y-83530952D01*
X135345238Y-83507142D01*
X135297619Y-83483333D01*
X135250000Y-83435714D01*
X135226190Y-83364285D01*
X135226190Y-83316666D01*
X135250000Y-83245238D01*
X135273809Y-83221428D01*
X135226190Y-83054761D02*
X135226190Y-82745238D01*
X135416666Y-82911904D01*
X135416666Y-82840476D01*
X135440476Y-82792857D01*
X135464285Y-82769047D01*
X135511904Y-82745238D01*
X135630952Y-82745238D01*
X135678571Y-82769047D01*
X135702380Y-82792857D01*
X135726190Y-82840476D01*
X135726190Y-82983333D01*
X135702380Y-83030952D01*
X135678571Y-83054761D01*
X135226190Y-82578571D02*
X135226190Y-82269047D01*
X135416666Y-82435714D01*
X135416666Y-82364285D01*
X135440476Y-82316666D01*
X135464285Y-82292857D01*
X135511904Y-82269047D01*
X135630952Y-82269047D01*
X135678571Y-82292857D01*
X135702380Y-82316666D01*
X135726190Y-82364285D01*
X135726190Y-82507142D01*
X135702380Y-82554761D01*
X135678571Y-82578571D01*
X130278571Y-83271428D02*
X130302380Y-83295238D01*
X130326190Y-83366666D01*
X130326190Y-83414285D01*
X130302380Y-83485714D01*
X130254761Y-83533333D01*
X130207142Y-83557142D01*
X130111904Y-83580952D01*
X130040476Y-83580952D01*
X129945238Y-83557142D01*
X129897619Y-83533333D01*
X129850000Y-83485714D01*
X129826190Y-83414285D01*
X129826190Y-83366666D01*
X129850000Y-83295238D01*
X129873809Y-83271428D01*
X129826190Y-83104761D02*
X129826190Y-82795238D01*
X130016666Y-82961904D01*
X130016666Y-82890476D01*
X130040476Y-82842857D01*
X130064285Y-82819047D01*
X130111904Y-82795238D01*
X130230952Y-82795238D01*
X130278571Y-82819047D01*
X130302380Y-82842857D01*
X130326190Y-82890476D01*
X130326190Y-83033333D01*
X130302380Y-83080952D01*
X130278571Y-83104761D01*
X129992857Y-82366666D02*
X130326190Y-82366666D01*
X129802380Y-82485714D02*
X130159523Y-82604761D01*
X130159523Y-82295238D01*
X138878571Y-92578571D02*
X138854761Y-92602380D01*
X138783333Y-92626190D01*
X138735714Y-92626190D01*
X138664285Y-92602380D01*
X138616666Y-92554761D01*
X138592857Y-92507142D01*
X138569047Y-92411904D01*
X138569047Y-92340476D01*
X138592857Y-92245238D01*
X138616666Y-92197619D01*
X138664285Y-92150000D01*
X138735714Y-92126190D01*
X138783333Y-92126190D01*
X138854761Y-92150000D01*
X138878571Y-92173809D01*
X139045238Y-92126190D02*
X139354761Y-92126190D01*
X139188095Y-92316666D01*
X139259523Y-92316666D01*
X139307142Y-92340476D01*
X139330952Y-92364285D01*
X139354761Y-92411904D01*
X139354761Y-92530952D01*
X139330952Y-92578571D01*
X139307142Y-92602380D01*
X139259523Y-92626190D01*
X139116666Y-92626190D01*
X139069047Y-92602380D01*
X139045238Y-92578571D01*
X139807142Y-92126190D02*
X139569047Y-92126190D01*
X139545238Y-92364285D01*
X139569047Y-92340476D01*
X139616666Y-92316666D01*
X139735714Y-92316666D01*
X139783333Y-92340476D01*
X139807142Y-92364285D01*
X139830952Y-92411904D01*
X139830952Y-92530952D01*
X139807142Y-92578571D01*
X139783333Y-92602380D01*
X139735714Y-92626190D01*
X139616666Y-92626190D01*
X139569047Y-92602380D01*
X139545238Y-92578571D01*
X138578571Y-90128571D02*
X138554761Y-90152380D01*
X138483333Y-90176190D01*
X138435714Y-90176190D01*
X138364285Y-90152380D01*
X138316666Y-90104761D01*
X138292857Y-90057142D01*
X138269047Y-89961904D01*
X138269047Y-89890476D01*
X138292857Y-89795238D01*
X138316666Y-89747619D01*
X138364285Y-89700000D01*
X138435714Y-89676190D01*
X138483333Y-89676190D01*
X138554761Y-89700000D01*
X138578571Y-89723809D01*
X138745238Y-89676190D02*
X139054761Y-89676190D01*
X138888095Y-89866666D01*
X138959523Y-89866666D01*
X139007142Y-89890476D01*
X139030952Y-89914285D01*
X139054761Y-89961904D01*
X139054761Y-90080952D01*
X139030952Y-90128571D01*
X139007142Y-90152380D01*
X138959523Y-90176190D01*
X138816666Y-90176190D01*
X138769047Y-90152380D01*
X138745238Y-90128571D01*
X139483333Y-89676190D02*
X139388095Y-89676190D01*
X139340476Y-89700000D01*
X139316666Y-89723809D01*
X139269047Y-89795238D01*
X139245238Y-89890476D01*
X139245238Y-90080952D01*
X139269047Y-90128571D01*
X139292857Y-90152380D01*
X139340476Y-90176190D01*
X139435714Y-90176190D01*
X139483333Y-90152380D01*
X139507142Y-90128571D01*
X139530952Y-90080952D01*
X139530952Y-89961904D01*
X139507142Y-89914285D01*
X139483333Y-89890476D01*
X139435714Y-89866666D01*
X139340476Y-89866666D01*
X139292857Y-89890476D01*
X139269047Y-89914285D01*
X139245238Y-89961904D01*
X166283333Y-88576190D02*
X166283333Y-88933333D01*
X166259523Y-89004761D01*
X166211904Y-89052380D01*
X166140476Y-89076190D01*
X166092857Y-89076190D01*
X166735714Y-88576190D02*
X166640476Y-88576190D01*
X166592857Y-88600000D01*
X166569047Y-88623809D01*
X166521428Y-88695238D01*
X166497619Y-88790476D01*
X166497619Y-88980952D01*
X166521428Y-89028571D01*
X166545238Y-89052380D01*
X166592857Y-89076190D01*
X166688095Y-89076190D01*
X166735714Y-89052380D01*
X166759523Y-89028571D01*
X166783333Y-88980952D01*
X166783333Y-88861904D01*
X166759523Y-88814285D01*
X166735714Y-88790476D01*
X166688095Y-88766666D01*
X166592857Y-88766666D01*
X166545238Y-88790476D01*
X166521428Y-88814285D01*
X166497619Y-88861904D01*
X140795238Y-92926190D02*
X140795238Y-93283333D01*
X140771428Y-93354761D01*
X140723809Y-93402380D01*
X140652380Y-93426190D01*
X140604761Y-93426190D01*
X141295238Y-93426190D02*
X141009523Y-93426190D01*
X141152380Y-93426190D02*
X141152380Y-92926190D01*
X141104761Y-92997619D01*
X141057142Y-93045238D01*
X141009523Y-93069047D01*
X141604761Y-92926190D02*
X141652380Y-92926190D01*
X141700000Y-92950000D01*
X141723809Y-92973809D01*
X141747619Y-93021428D01*
X141771428Y-93116666D01*
X141771428Y-93235714D01*
X141747619Y-93330952D01*
X141723809Y-93378571D01*
X141700000Y-93402380D01*
X141652380Y-93426190D01*
X141604761Y-93426190D01*
X141557142Y-93402380D01*
X141533333Y-93378571D01*
X141509523Y-93330952D01*
X141485714Y-93235714D01*
X141485714Y-93116666D01*
X141509523Y-93021428D01*
X141533333Y-92973809D01*
X141557142Y-92950000D01*
X141604761Y-92926190D01*
X127566666Y-110326190D02*
X127328571Y-110326190D01*
X127328571Y-109826190D01*
X127995238Y-110326190D02*
X127709523Y-110326190D01*
X127852380Y-110326190D02*
X127852380Y-109826190D01*
X127804761Y-109897619D01*
X127757142Y-109945238D01*
X127709523Y-109969047D01*
X126916666Y-99276190D02*
X126750000Y-99038095D01*
X126630952Y-99276190D02*
X126630952Y-98776190D01*
X126821428Y-98776190D01*
X126869047Y-98800000D01*
X126892857Y-98823809D01*
X126916666Y-98871428D01*
X126916666Y-98942857D01*
X126892857Y-98990476D01*
X126869047Y-99014285D01*
X126821428Y-99038095D01*
X126630952Y-99038095D01*
X127345238Y-98942857D02*
X127345238Y-99276190D01*
X127226190Y-98752380D02*
X127107142Y-99109523D01*
X127416666Y-99109523D01*
X128816666Y-99276190D02*
X128650000Y-99038095D01*
X128530952Y-99276190D02*
X128530952Y-98776190D01*
X128721428Y-98776190D01*
X128769047Y-98800000D01*
X128792857Y-98823809D01*
X128816666Y-98871428D01*
X128816666Y-98942857D01*
X128792857Y-98990476D01*
X128769047Y-99014285D01*
X128721428Y-99038095D01*
X128530952Y-99038095D01*
X129269047Y-98776190D02*
X129030952Y-98776190D01*
X129007142Y-99014285D01*
X129030952Y-98990476D01*
X129078571Y-98966666D01*
X129197619Y-98966666D01*
X129245238Y-98990476D01*
X129269047Y-99014285D01*
X129292857Y-99061904D01*
X129292857Y-99180952D01*
X129269047Y-99228571D01*
X129245238Y-99252380D01*
X129197619Y-99276190D01*
X129078571Y-99276190D01*
X129030952Y-99252380D01*
X129007142Y-99228571D01*
X130666666Y-99276190D02*
X130500000Y-99038095D01*
X130380952Y-99276190D02*
X130380952Y-98776190D01*
X130571428Y-98776190D01*
X130619047Y-98800000D01*
X130642857Y-98823809D01*
X130666666Y-98871428D01*
X130666666Y-98942857D01*
X130642857Y-98990476D01*
X130619047Y-99014285D01*
X130571428Y-99038095D01*
X130380952Y-99038095D01*
X131095238Y-98776190D02*
X131000000Y-98776190D01*
X130952380Y-98800000D01*
X130928571Y-98823809D01*
X130880952Y-98895238D01*
X130857142Y-98990476D01*
X130857142Y-99180952D01*
X130880952Y-99228571D01*
X130904761Y-99252380D01*
X130952380Y-99276190D01*
X131047619Y-99276190D01*
X131095238Y-99252380D01*
X131119047Y-99228571D01*
X131142857Y-99180952D01*
X131142857Y-99061904D01*
X131119047Y-99014285D01*
X131095238Y-98990476D01*
X131047619Y-98966666D01*
X130952380Y-98966666D01*
X130904761Y-98990476D01*
X130880952Y-99014285D01*
X130857142Y-99061904D01*
X132566666Y-99276190D02*
X132400000Y-99038095D01*
X132280952Y-99276190D02*
X132280952Y-98776190D01*
X132471428Y-98776190D01*
X132519047Y-98800000D01*
X132542857Y-98823809D01*
X132566666Y-98871428D01*
X132566666Y-98942857D01*
X132542857Y-98990476D01*
X132519047Y-99014285D01*
X132471428Y-99038095D01*
X132280952Y-99038095D01*
X132733333Y-98776190D02*
X133066666Y-98776190D01*
X132852380Y-99276190D01*
X126516666Y-106426190D02*
X126350000Y-106188095D01*
X126230952Y-106426190D02*
X126230952Y-105926190D01*
X126421428Y-105926190D01*
X126469047Y-105950000D01*
X126492857Y-105973809D01*
X126516666Y-106021428D01*
X126516666Y-106092857D01*
X126492857Y-106140476D01*
X126469047Y-106164285D01*
X126421428Y-106188095D01*
X126230952Y-106188095D01*
X126754761Y-106426190D02*
X126850000Y-106426190D01*
X126897619Y-106402380D01*
X126921428Y-106378571D01*
X126969047Y-106307142D01*
X126992857Y-106211904D01*
X126992857Y-106021428D01*
X126969047Y-105973809D01*
X126945238Y-105950000D01*
X126897619Y-105926190D01*
X126802380Y-105926190D01*
X126754761Y-105950000D01*
X126730952Y-105973809D01*
X126707142Y-106021428D01*
X126707142Y-106140476D01*
X126730952Y-106188095D01*
X126754761Y-106211904D01*
X126802380Y-106235714D01*
X126897619Y-106235714D01*
X126945238Y-106211904D01*
X126969047Y-106188095D01*
X126992857Y-106140476D01*
X128678571Y-106426190D02*
X128511904Y-106188095D01*
X128392857Y-106426190D02*
X128392857Y-105926190D01*
X128583333Y-105926190D01*
X128630952Y-105950000D01*
X128654761Y-105973809D01*
X128678571Y-106021428D01*
X128678571Y-106092857D01*
X128654761Y-106140476D01*
X128630952Y-106164285D01*
X128583333Y-106188095D01*
X128392857Y-106188095D01*
X129154761Y-106426190D02*
X128869047Y-106426190D01*
X129011904Y-106426190D02*
X129011904Y-105926190D01*
X128964285Y-105997619D01*
X128916666Y-106045238D01*
X128869047Y-106069047D01*
X129464285Y-105926190D02*
X129511904Y-105926190D01*
X129559523Y-105950000D01*
X129583333Y-105973809D01*
X129607142Y-106021428D01*
X129630952Y-106116666D01*
X129630952Y-106235714D01*
X129607142Y-106330952D01*
X129583333Y-106378571D01*
X129559523Y-106402380D01*
X129511904Y-106426190D01*
X129464285Y-106426190D01*
X129416666Y-106402380D01*
X129392857Y-106378571D01*
X129369047Y-106330952D01*
X129345238Y-106235714D01*
X129345238Y-106116666D01*
X129369047Y-106021428D01*
X129392857Y-105973809D01*
X129416666Y-105950000D01*
X129464285Y-105926190D01*
X130378571Y-106476190D02*
X130211904Y-106238095D01*
X130092857Y-106476190D02*
X130092857Y-105976190D01*
X130283333Y-105976190D01*
X130330952Y-106000000D01*
X130354761Y-106023809D01*
X130378571Y-106071428D01*
X130378571Y-106142857D01*
X130354761Y-106190476D01*
X130330952Y-106214285D01*
X130283333Y-106238095D01*
X130092857Y-106238095D01*
X130854761Y-106476190D02*
X130569047Y-106476190D01*
X130711904Y-106476190D02*
X130711904Y-105976190D01*
X130664285Y-106047619D01*
X130616666Y-106095238D01*
X130569047Y-106119047D01*
X131140476Y-106190476D02*
X131092857Y-106166666D01*
X131069047Y-106142857D01*
X131045238Y-106095238D01*
X131045238Y-106071428D01*
X131069047Y-106023809D01*
X131092857Y-106000000D01*
X131140476Y-105976190D01*
X131235714Y-105976190D01*
X131283333Y-106000000D01*
X131307142Y-106023809D01*
X131330952Y-106071428D01*
X131330952Y-106095238D01*
X131307142Y-106142857D01*
X131283333Y-106166666D01*
X131235714Y-106190476D01*
X131140476Y-106190476D01*
X131092857Y-106214285D01*
X131069047Y-106238095D01*
X131045238Y-106285714D01*
X131045238Y-106380952D01*
X131069047Y-106428571D01*
X131092857Y-106452380D01*
X131140476Y-106476190D01*
X131235714Y-106476190D01*
X131283333Y-106452380D01*
X131307142Y-106428571D01*
X131330952Y-106380952D01*
X131330952Y-106285714D01*
X131307142Y-106238095D01*
X131283333Y-106214285D01*
X131235714Y-106190476D01*
X155028571Y-109826190D02*
X154861904Y-109588095D01*
X154742857Y-109826190D02*
X154742857Y-109326190D01*
X154933333Y-109326190D01*
X154980952Y-109350000D01*
X155004761Y-109373809D01*
X155028571Y-109421428D01*
X155028571Y-109492857D01*
X155004761Y-109540476D01*
X154980952Y-109564285D01*
X154933333Y-109588095D01*
X154742857Y-109588095D01*
X155504761Y-109826190D02*
X155219047Y-109826190D01*
X155361904Y-109826190D02*
X155361904Y-109326190D01*
X155314285Y-109397619D01*
X155266666Y-109445238D01*
X155219047Y-109469047D01*
X155742857Y-109826190D02*
X155838095Y-109826190D01*
X155885714Y-109802380D01*
X155909523Y-109778571D01*
X155957142Y-109707142D01*
X155980952Y-109611904D01*
X155980952Y-109421428D01*
X155957142Y-109373809D01*
X155933333Y-109350000D01*
X155885714Y-109326190D01*
X155790476Y-109326190D01*
X155742857Y-109350000D01*
X155719047Y-109373809D01*
X155695238Y-109421428D01*
X155695238Y-109540476D01*
X155719047Y-109588095D01*
X155742857Y-109611904D01*
X155790476Y-109635714D01*
X155885714Y-109635714D01*
X155933333Y-109611904D01*
X155957142Y-109588095D01*
X155980952Y-109540476D01*
X155128571Y-111376190D02*
X154961904Y-111138095D01*
X154842857Y-111376190D02*
X154842857Y-110876190D01*
X155033333Y-110876190D01*
X155080952Y-110900000D01*
X155104761Y-110923809D01*
X155128571Y-110971428D01*
X155128571Y-111042857D01*
X155104761Y-111090476D01*
X155080952Y-111114285D01*
X155033333Y-111138095D01*
X154842857Y-111138095D01*
X155319047Y-110923809D02*
X155342857Y-110900000D01*
X155390476Y-110876190D01*
X155509523Y-110876190D01*
X155557142Y-110900000D01*
X155580952Y-110923809D01*
X155604761Y-110971428D01*
X155604761Y-111019047D01*
X155580952Y-111090476D01*
X155295238Y-111376190D01*
X155604761Y-111376190D01*
X155914285Y-110876190D02*
X155961904Y-110876190D01*
X156009523Y-110900000D01*
X156033333Y-110923809D01*
X156057142Y-110971428D01*
X156080952Y-111066666D01*
X156080952Y-111185714D01*
X156057142Y-111280952D01*
X156033333Y-111328571D01*
X156009523Y-111352380D01*
X155961904Y-111376190D01*
X155914285Y-111376190D01*
X155866666Y-111352380D01*
X155842857Y-111328571D01*
X155819047Y-111280952D01*
X155795238Y-111185714D01*
X155795238Y-111066666D01*
X155819047Y-110971428D01*
X155842857Y-110923809D01*
X155866666Y-110900000D01*
X155914285Y-110876190D01*
X132228571Y-106476190D02*
X132061904Y-106238095D01*
X131942857Y-106476190D02*
X131942857Y-105976190D01*
X132133333Y-105976190D01*
X132180952Y-106000000D01*
X132204761Y-106023809D01*
X132228571Y-106071428D01*
X132228571Y-106142857D01*
X132204761Y-106190476D01*
X132180952Y-106214285D01*
X132133333Y-106238095D01*
X131942857Y-106238095D01*
X132419047Y-106023809D02*
X132442857Y-106000000D01*
X132490476Y-105976190D01*
X132609523Y-105976190D01*
X132657142Y-106000000D01*
X132680952Y-106023809D01*
X132704761Y-106071428D01*
X132704761Y-106119047D01*
X132680952Y-106190476D01*
X132395238Y-106476190D01*
X132704761Y-106476190D01*
X132871428Y-105976190D02*
X133180952Y-105976190D01*
X133014285Y-106166666D01*
X133085714Y-106166666D01*
X133133333Y-106190476D01*
X133157142Y-106214285D01*
X133180952Y-106261904D01*
X133180952Y-106380952D01*
X133157142Y-106428571D01*
X133133333Y-106452380D01*
X133085714Y-106476190D01*
X132942857Y-106476190D01*
X132895238Y-106452380D01*
X132871428Y-106428571D01*
X126319047Y-89576190D02*
X126319047Y-89980952D01*
X126342857Y-90028571D01*
X126366666Y-90052380D01*
X126414285Y-90076190D01*
X126509523Y-90076190D01*
X126557142Y-90052380D01*
X126580952Y-90028571D01*
X126604761Y-89980952D01*
X126604761Y-89576190D01*
X127057142Y-89576190D02*
X126961904Y-89576190D01*
X126914285Y-89600000D01*
X126890476Y-89623809D01*
X126842857Y-89695238D01*
X126819047Y-89790476D01*
X126819047Y-89980952D01*
X126842857Y-90028571D01*
X126866666Y-90052380D01*
X126914285Y-90076190D01*
X127009523Y-90076190D01*
X127057142Y-90052380D01*
X127080952Y-90028571D01*
X127104761Y-89980952D01*
X127104761Y-89861904D01*
X127080952Y-89814285D01*
X127057142Y-89790476D01*
X127009523Y-89766666D01*
X126914285Y-89766666D01*
X126866666Y-89790476D01*
X126842857Y-89814285D01*
X126819047Y-89861904D01*
X134061904Y-82238095D02*
X134061904Y-82476190D01*
X133895238Y-81976190D02*
X134061904Y-82238095D01*
X134228571Y-81976190D01*
X134371428Y-82023809D02*
X134395238Y-82000000D01*
X134442857Y-81976190D01*
X134561904Y-81976190D01*
X134609523Y-82000000D01*
X134633333Y-82023809D01*
X134657142Y-82071428D01*
X134657142Y-82119047D01*
X134633333Y-82190476D01*
X134347619Y-82476190D01*
X134657142Y-82476190D01*
X188266666Y-99828571D02*
X188242857Y-99852380D01*
X188171428Y-99876190D01*
X188123809Y-99876190D01*
X188052380Y-99852380D01*
X188004761Y-99804761D01*
X187980952Y-99757142D01*
X187957142Y-99661904D01*
X187957142Y-99590476D01*
X187980952Y-99495238D01*
X188004761Y-99447619D01*
X188052380Y-99400000D01*
X188123809Y-99376190D01*
X188171428Y-99376190D01*
X188242857Y-99400000D01*
X188266666Y-99423809D01*
X188457142Y-99423809D02*
X188480952Y-99400000D01*
X188528571Y-99376190D01*
X188647619Y-99376190D01*
X188695238Y-99400000D01*
X188719047Y-99423809D01*
X188742857Y-99471428D01*
X188742857Y-99519047D01*
X188719047Y-99590476D01*
X188433333Y-99876190D01*
X188742857Y-99876190D01*
X186016666Y-99778571D02*
X185992857Y-99802380D01*
X185921428Y-99826190D01*
X185873809Y-99826190D01*
X185802380Y-99802380D01*
X185754761Y-99754761D01*
X185730952Y-99707142D01*
X185707142Y-99611904D01*
X185707142Y-99540476D01*
X185730952Y-99445238D01*
X185754761Y-99397619D01*
X185802380Y-99350000D01*
X185873809Y-99326190D01*
X185921428Y-99326190D01*
X185992857Y-99350000D01*
X186016666Y-99373809D01*
X186445238Y-99326190D02*
X186350000Y-99326190D01*
X186302380Y-99350000D01*
X186278571Y-99373809D01*
X186230952Y-99445238D01*
X186207142Y-99540476D01*
X186207142Y-99730952D01*
X186230952Y-99778571D01*
X186254761Y-99802380D01*
X186302380Y-99826190D01*
X186397619Y-99826190D01*
X186445238Y-99802380D01*
X186469047Y-99778571D01*
X186492857Y-99730952D01*
X186492857Y-99611904D01*
X186469047Y-99564285D01*
X186445238Y-99540476D01*
X186397619Y-99516666D01*
X186302380Y-99516666D01*
X186254761Y-99540476D01*
X186230952Y-99564285D01*
X186207142Y-99611904D01*
X191619047Y-98726190D02*
X191619047Y-99130952D01*
X191642857Y-99178571D01*
X191666666Y-99202380D01*
X191714285Y-99226190D01*
X191809523Y-99226190D01*
X191857142Y-99202380D01*
X191880952Y-99178571D01*
X191904761Y-99130952D01*
X191904761Y-98726190D01*
X192404761Y-99226190D02*
X192119047Y-99226190D01*
X192261904Y-99226190D02*
X192261904Y-98726190D01*
X192214285Y-98797619D01*
X192166666Y-98845238D01*
X192119047Y-98869047D01*
X166078571Y-104826190D02*
X165911904Y-104588095D01*
X165792857Y-104826190D02*
X165792857Y-104326190D01*
X165983333Y-104326190D01*
X166030952Y-104350000D01*
X166054761Y-104373809D01*
X166078571Y-104421428D01*
X166078571Y-104492857D01*
X166054761Y-104540476D01*
X166030952Y-104564285D01*
X165983333Y-104588095D01*
X165792857Y-104588095D01*
X166269047Y-104373809D02*
X166292857Y-104350000D01*
X166340476Y-104326190D01*
X166459523Y-104326190D01*
X166507142Y-104350000D01*
X166530952Y-104373809D01*
X166554761Y-104421428D01*
X166554761Y-104469047D01*
X166530952Y-104540476D01*
X166245238Y-104826190D01*
X166554761Y-104826190D01*
X166983333Y-104492857D02*
X166983333Y-104826190D01*
X166864285Y-104302380D02*
X166745238Y-104659523D01*
X167054761Y-104659523D01*
X196316666Y-90978571D02*
X196292857Y-91002380D01*
X196221428Y-91026190D01*
X196173809Y-91026190D01*
X196102380Y-91002380D01*
X196054761Y-90954761D01*
X196030952Y-90907142D01*
X196007142Y-90811904D01*
X196007142Y-90740476D01*
X196030952Y-90645238D01*
X196054761Y-90597619D01*
X196102380Y-90550000D01*
X196173809Y-90526190D01*
X196221428Y-90526190D01*
X196292857Y-90550000D01*
X196316666Y-90573809D01*
X196554761Y-91026190D02*
X196650000Y-91026190D01*
X196697619Y-91002380D01*
X196721428Y-90978571D01*
X196769047Y-90907142D01*
X196792857Y-90811904D01*
X196792857Y-90621428D01*
X196769047Y-90573809D01*
X196745238Y-90550000D01*
X196697619Y-90526190D01*
X196602380Y-90526190D01*
X196554761Y-90550000D01*
X196530952Y-90573809D01*
X196507142Y-90621428D01*
X196507142Y-90740476D01*
X196530952Y-90788095D01*
X196554761Y-90811904D01*
X196602380Y-90835714D01*
X196697619Y-90835714D01*
X196745238Y-90811904D01*
X196769047Y-90788095D01*
X196792857Y-90740476D01*
X196278571Y-88578571D02*
X196254761Y-88602380D01*
X196183333Y-88626190D01*
X196135714Y-88626190D01*
X196064285Y-88602380D01*
X196016666Y-88554761D01*
X195992857Y-88507142D01*
X195969047Y-88411904D01*
X195969047Y-88340476D01*
X195992857Y-88245238D01*
X196016666Y-88197619D01*
X196064285Y-88150000D01*
X196135714Y-88126190D01*
X196183333Y-88126190D01*
X196254761Y-88150000D01*
X196278571Y-88173809D01*
X196754761Y-88626190D02*
X196469047Y-88626190D01*
X196611904Y-88626190D02*
X196611904Y-88126190D01*
X196564285Y-88197619D01*
X196516666Y-88245238D01*
X196469047Y-88269047D01*
X197230952Y-88626190D02*
X196945238Y-88626190D01*
X197088095Y-88626190D02*
X197088095Y-88126190D01*
X197040476Y-88197619D01*
X196992857Y-88245238D01*
X196945238Y-88269047D01*
X189478571Y-89778571D02*
X189454761Y-89802380D01*
X189383333Y-89826190D01*
X189335714Y-89826190D01*
X189264285Y-89802380D01*
X189216666Y-89754761D01*
X189192857Y-89707142D01*
X189169047Y-89611904D01*
X189169047Y-89540476D01*
X189192857Y-89445238D01*
X189216666Y-89397619D01*
X189264285Y-89350000D01*
X189335714Y-89326190D01*
X189383333Y-89326190D01*
X189454761Y-89350000D01*
X189478571Y-89373809D01*
X189954761Y-89826190D02*
X189669047Y-89826190D01*
X189811904Y-89826190D02*
X189811904Y-89326190D01*
X189764285Y-89397619D01*
X189716666Y-89445238D01*
X189669047Y-89469047D01*
X190240476Y-89540476D02*
X190192857Y-89516666D01*
X190169047Y-89492857D01*
X190145238Y-89445238D01*
X190145238Y-89421428D01*
X190169047Y-89373809D01*
X190192857Y-89350000D01*
X190240476Y-89326190D01*
X190335714Y-89326190D01*
X190383333Y-89350000D01*
X190407142Y-89373809D01*
X190430952Y-89421428D01*
X190430952Y-89445238D01*
X190407142Y-89492857D01*
X190383333Y-89516666D01*
X190335714Y-89540476D01*
X190240476Y-89540476D01*
X190192857Y-89564285D01*
X190169047Y-89588095D01*
X190145238Y-89635714D01*
X190145238Y-89730952D01*
X190169047Y-89778571D01*
X190192857Y-89802380D01*
X190240476Y-89826190D01*
X190335714Y-89826190D01*
X190383333Y-89802380D01*
X190407142Y-89778571D01*
X190430952Y-89730952D01*
X190430952Y-89635714D01*
X190407142Y-89588095D01*
X190383333Y-89564285D01*
X190335714Y-89540476D01*
X187478571Y-93778571D02*
X187454761Y-93802380D01*
X187383333Y-93826190D01*
X187335714Y-93826190D01*
X187264285Y-93802380D01*
X187216666Y-93754761D01*
X187192857Y-93707142D01*
X187169047Y-93611904D01*
X187169047Y-93540476D01*
X187192857Y-93445238D01*
X187216666Y-93397619D01*
X187264285Y-93350000D01*
X187335714Y-93326190D01*
X187383333Y-93326190D01*
X187454761Y-93350000D01*
X187478571Y-93373809D01*
X187669047Y-93373809D02*
X187692857Y-93350000D01*
X187740476Y-93326190D01*
X187859523Y-93326190D01*
X187907142Y-93350000D01*
X187930952Y-93373809D01*
X187954761Y-93421428D01*
X187954761Y-93469047D01*
X187930952Y-93540476D01*
X187645238Y-93826190D01*
X187954761Y-93826190D01*
X188145238Y-93373809D02*
X188169047Y-93350000D01*
X188216666Y-93326190D01*
X188335714Y-93326190D01*
X188383333Y-93350000D01*
X188407142Y-93373809D01*
X188430952Y-93421428D01*
X188430952Y-93469047D01*
X188407142Y-93540476D01*
X188121428Y-93826190D01*
X188430952Y-93826190D01*
X185278571Y-93778571D02*
X185254761Y-93802380D01*
X185183333Y-93826190D01*
X185135714Y-93826190D01*
X185064285Y-93802380D01*
X185016666Y-93754761D01*
X184992857Y-93707142D01*
X184969047Y-93611904D01*
X184969047Y-93540476D01*
X184992857Y-93445238D01*
X185016666Y-93397619D01*
X185064285Y-93350000D01*
X185135714Y-93326190D01*
X185183333Y-93326190D01*
X185254761Y-93350000D01*
X185278571Y-93373809D01*
X185469047Y-93373809D02*
X185492857Y-93350000D01*
X185540476Y-93326190D01*
X185659523Y-93326190D01*
X185707142Y-93350000D01*
X185730952Y-93373809D01*
X185754761Y-93421428D01*
X185754761Y-93469047D01*
X185730952Y-93540476D01*
X185445238Y-93826190D01*
X185754761Y-93826190D01*
X185921428Y-93326190D02*
X186230952Y-93326190D01*
X186064285Y-93516666D01*
X186135714Y-93516666D01*
X186183333Y-93540476D01*
X186207142Y-93564285D01*
X186230952Y-93611904D01*
X186230952Y-93730952D01*
X186207142Y-93778571D01*
X186183333Y-93802380D01*
X186135714Y-93826190D01*
X185992857Y-93826190D01*
X185945238Y-93802380D01*
X185921428Y-93778571D01*
X180678571Y-82826190D02*
X180511904Y-82588095D01*
X180392857Y-82826190D02*
X180392857Y-82326190D01*
X180583333Y-82326190D01*
X180630952Y-82350000D01*
X180654761Y-82373809D01*
X180678571Y-82421428D01*
X180678571Y-82492857D01*
X180654761Y-82540476D01*
X180630952Y-82564285D01*
X180583333Y-82588095D01*
X180392857Y-82588095D01*
X181154761Y-82826190D02*
X180869047Y-82826190D01*
X181011904Y-82826190D02*
X181011904Y-82326190D01*
X180964285Y-82397619D01*
X180916666Y-82445238D01*
X180869047Y-82469047D01*
X181630952Y-82826190D02*
X181345238Y-82826190D01*
X181488095Y-82826190D02*
X181488095Y-82326190D01*
X181440476Y-82397619D01*
X181392857Y-82445238D01*
X181345238Y-82469047D01*
X180678571Y-88426190D02*
X180511904Y-88188095D01*
X180392857Y-88426190D02*
X180392857Y-87926190D01*
X180583333Y-87926190D01*
X180630952Y-87950000D01*
X180654761Y-87973809D01*
X180678571Y-88021428D01*
X180678571Y-88092857D01*
X180654761Y-88140476D01*
X180630952Y-88164285D01*
X180583333Y-88188095D01*
X180392857Y-88188095D01*
X181154761Y-88426190D02*
X180869047Y-88426190D01*
X181011904Y-88426190D02*
X181011904Y-87926190D01*
X180964285Y-87997619D01*
X180916666Y-88045238D01*
X180869047Y-88069047D01*
X181345238Y-87973809D02*
X181369047Y-87950000D01*
X181416666Y-87926190D01*
X181535714Y-87926190D01*
X181583333Y-87950000D01*
X181607142Y-87973809D01*
X181630952Y-88021428D01*
X181630952Y-88069047D01*
X181607142Y-88140476D01*
X181321428Y-88426190D01*
X181630952Y-88426190D01*
X170902380Y-109826190D02*
X170735714Y-109588095D01*
X170616666Y-109826190D02*
X170616666Y-109326190D01*
X170807142Y-109326190D01*
X170854761Y-109350000D01*
X170878571Y-109373809D01*
X170902380Y-109421428D01*
X170902380Y-109492857D01*
X170878571Y-109540476D01*
X170854761Y-109564285D01*
X170807142Y-109588095D01*
X170616666Y-109588095D01*
X171045238Y-109326190D02*
X171211904Y-109826190D01*
X171378571Y-109326190D01*
X171807142Y-109826190D02*
X171521428Y-109826190D01*
X171664285Y-109826190D02*
X171664285Y-109326190D01*
X171616666Y-109397619D01*
X171569047Y-109445238D01*
X171521428Y-109469047D01*
X186219047Y-81526190D02*
X186219047Y-81930952D01*
X186242857Y-81978571D01*
X186266666Y-82002380D01*
X186314285Y-82026190D01*
X186409523Y-82026190D01*
X186457142Y-82002380D01*
X186480952Y-81978571D01*
X186504761Y-81930952D01*
X186504761Y-81526190D01*
X186695238Y-81526190D02*
X187004761Y-81526190D01*
X186838095Y-81716666D01*
X186909523Y-81716666D01*
X186957142Y-81740476D01*
X186980952Y-81764285D01*
X187004761Y-81811904D01*
X187004761Y-81930952D01*
X186980952Y-81978571D01*
X186957142Y-82002380D01*
X186909523Y-82026190D01*
X186766666Y-82026190D01*
X186719047Y-82002380D01*
X186695238Y-81978571D01*
X136316666Y-99578571D02*
X136292857Y-99602380D01*
X136221428Y-99626190D01*
X136173809Y-99626190D01*
X136102380Y-99602380D01*
X136054761Y-99554761D01*
X136030952Y-99507142D01*
X136007142Y-99411904D01*
X136007142Y-99340476D01*
X136030952Y-99245238D01*
X136054761Y-99197619D01*
X136102380Y-99150000D01*
X136173809Y-99126190D01*
X136221428Y-99126190D01*
X136292857Y-99150000D01*
X136316666Y-99173809D01*
X136483333Y-99126190D02*
X136816666Y-99126190D01*
X136602380Y-99626190D01*
X135678571Y-101178571D02*
X135654761Y-101202380D01*
X135583333Y-101226190D01*
X135535714Y-101226190D01*
X135464285Y-101202380D01*
X135416666Y-101154761D01*
X135392857Y-101107142D01*
X135369047Y-101011904D01*
X135369047Y-100940476D01*
X135392857Y-100845238D01*
X135416666Y-100797619D01*
X135464285Y-100750000D01*
X135535714Y-100726190D01*
X135583333Y-100726190D01*
X135654761Y-100750000D01*
X135678571Y-100773809D01*
X136154761Y-101226190D02*
X135869047Y-101226190D01*
X136011904Y-101226190D02*
X136011904Y-100726190D01*
X135964285Y-100797619D01*
X135916666Y-100845238D01*
X135869047Y-100869047D01*
X136321428Y-100726190D02*
X136630952Y-100726190D01*
X136464285Y-100916666D01*
X136535714Y-100916666D01*
X136583333Y-100940476D01*
X136607142Y-100964285D01*
X136630952Y-101011904D01*
X136630952Y-101130952D01*
X136607142Y-101178571D01*
X136583333Y-101202380D01*
X136535714Y-101226190D01*
X136392857Y-101226190D01*
X136345238Y-101202380D01*
X136321428Y-101178571D01*
X138116666Y-105826190D02*
X137950000Y-105588095D01*
X137830952Y-105826190D02*
X137830952Y-105326190D01*
X138021428Y-105326190D01*
X138069047Y-105350000D01*
X138092857Y-105373809D01*
X138116666Y-105421428D01*
X138116666Y-105492857D01*
X138092857Y-105540476D01*
X138069047Y-105564285D01*
X138021428Y-105588095D01*
X137830952Y-105588095D01*
X138402380Y-105540476D02*
X138354761Y-105516666D01*
X138330952Y-105492857D01*
X138307142Y-105445238D01*
X138307142Y-105421428D01*
X138330952Y-105373809D01*
X138354761Y-105350000D01*
X138402380Y-105326190D01*
X138497619Y-105326190D01*
X138545238Y-105350000D01*
X138569047Y-105373809D01*
X138592857Y-105421428D01*
X138592857Y-105445238D01*
X138569047Y-105492857D01*
X138545238Y-105516666D01*
X138497619Y-105540476D01*
X138402380Y-105540476D01*
X138354761Y-105564285D01*
X138330952Y-105588095D01*
X138307142Y-105635714D01*
X138307142Y-105730952D01*
X138330952Y-105778571D01*
X138354761Y-105802380D01*
X138402380Y-105826190D01*
X138497619Y-105826190D01*
X138545238Y-105802380D01*
X138569047Y-105778571D01*
X138592857Y-105730952D01*
X138592857Y-105635714D01*
X138569047Y-105588095D01*
X138545238Y-105564285D01*
X138497619Y-105540476D01*
X133626190Y-87321428D02*
X133388095Y-87488095D01*
X133626190Y-87607142D02*
X133126190Y-87607142D01*
X133126190Y-87416666D01*
X133150000Y-87369047D01*
X133173809Y-87345238D01*
X133221428Y-87321428D01*
X133292857Y-87321428D01*
X133340476Y-87345238D01*
X133364285Y-87369047D01*
X133388095Y-87416666D01*
X133388095Y-87607142D01*
X133173809Y-87130952D02*
X133150000Y-87107142D01*
X133126190Y-87059523D01*
X133126190Y-86940476D01*
X133150000Y-86892857D01*
X133173809Y-86869047D01*
X133221428Y-86845238D01*
X133269047Y-86845238D01*
X133340476Y-86869047D01*
X133626190Y-87154761D01*
X133626190Y-86845238D01*
X133626190Y-86369047D02*
X133626190Y-86654761D01*
X133626190Y-86511904D02*
X133126190Y-86511904D01*
X133197619Y-86559523D01*
X133245238Y-86607142D01*
X133269047Y-86654761D01*
X139226190Y-97721428D02*
X138988095Y-97888095D01*
X139226190Y-98007142D02*
X138726190Y-98007142D01*
X138726190Y-97816666D01*
X138750000Y-97769047D01*
X138773809Y-97745238D01*
X138821428Y-97721428D01*
X138892857Y-97721428D01*
X138940476Y-97745238D01*
X138964285Y-97769047D01*
X138988095Y-97816666D01*
X138988095Y-98007142D01*
X138773809Y-97530952D02*
X138750000Y-97507142D01*
X138726190Y-97459523D01*
X138726190Y-97340476D01*
X138750000Y-97292857D01*
X138773809Y-97269047D01*
X138821428Y-97245238D01*
X138869047Y-97245238D01*
X138940476Y-97269047D01*
X139226190Y-97554761D01*
X139226190Y-97245238D01*
X138773809Y-97054761D02*
X138750000Y-97030952D01*
X138726190Y-96983333D01*
X138726190Y-96864285D01*
X138750000Y-96816666D01*
X138773809Y-96792857D01*
X138821428Y-96769047D01*
X138869047Y-96769047D01*
X138940476Y-96792857D01*
X139226190Y-97078571D01*
X139226190Y-96769047D01*
X145026190Y-84969047D02*
X144526190Y-84969047D01*
X144526190Y-84850000D01*
X144550000Y-84778571D01*
X144597619Y-84730952D01*
X144645238Y-84707142D01*
X144740476Y-84683333D01*
X144811904Y-84683333D01*
X144907142Y-84707142D01*
X144954761Y-84730952D01*
X145002380Y-84778571D01*
X145026190Y-84850000D01*
X145026190Y-84969047D01*
X144526190Y-84516666D02*
X144526190Y-84207142D01*
X144716666Y-84373809D01*
X144716666Y-84302380D01*
X144740476Y-84254761D01*
X144764285Y-84230952D01*
X144811904Y-84207142D01*
X144930952Y-84207142D01*
X144978571Y-84230952D01*
X145002380Y-84254761D01*
X145026190Y-84302380D01*
X145026190Y-84445238D01*
X145002380Y-84492857D01*
X144978571Y-84516666D01*
X145026190Y-83169047D02*
X144526190Y-83169047D01*
X144526190Y-83050000D01*
X144550000Y-82978571D01*
X144597619Y-82930952D01*
X144645238Y-82907142D01*
X144740476Y-82883333D01*
X144811904Y-82883333D01*
X144907142Y-82907142D01*
X144954761Y-82930952D01*
X145002380Y-82978571D01*
X145026190Y-83050000D01*
X145026190Y-83169047D01*
X144692857Y-82454761D02*
X145026190Y-82454761D01*
X144502380Y-82573809D02*
X144859523Y-82692857D01*
X144859523Y-82383333D01*
X140278571Y-89026190D02*
X140111904Y-88788095D01*
X139992857Y-89026190D02*
X139992857Y-88526190D01*
X140183333Y-88526190D01*
X140230952Y-88550000D01*
X140254761Y-88573809D01*
X140278571Y-88621428D01*
X140278571Y-88692857D01*
X140254761Y-88740476D01*
X140230952Y-88764285D01*
X140183333Y-88788095D01*
X139992857Y-88788095D01*
X140469047Y-88573809D02*
X140492857Y-88550000D01*
X140540476Y-88526190D01*
X140659523Y-88526190D01*
X140707142Y-88550000D01*
X140730952Y-88573809D01*
X140754761Y-88621428D01*
X140754761Y-88669047D01*
X140730952Y-88740476D01*
X140445238Y-89026190D01*
X140754761Y-89026190D01*
X141207142Y-88526190D02*
X140969047Y-88526190D01*
X140945238Y-88764285D01*
X140969047Y-88740476D01*
X141016666Y-88716666D01*
X141135714Y-88716666D01*
X141183333Y-88740476D01*
X141207142Y-88764285D01*
X141230952Y-88811904D01*
X141230952Y-88930952D01*
X141207142Y-88978571D01*
X141183333Y-89002380D01*
X141135714Y-89026190D01*
X141016666Y-89026190D01*
X140969047Y-89002380D01*
X140945238Y-88978571D01*
X138478571Y-89026190D02*
X138311904Y-88788095D01*
X138192857Y-89026190D02*
X138192857Y-88526190D01*
X138383333Y-88526190D01*
X138430952Y-88550000D01*
X138454761Y-88573809D01*
X138478571Y-88621428D01*
X138478571Y-88692857D01*
X138454761Y-88740476D01*
X138430952Y-88764285D01*
X138383333Y-88788095D01*
X138192857Y-88788095D01*
X138669047Y-88573809D02*
X138692857Y-88550000D01*
X138740476Y-88526190D01*
X138859523Y-88526190D01*
X138907142Y-88550000D01*
X138930952Y-88573809D01*
X138954761Y-88621428D01*
X138954761Y-88669047D01*
X138930952Y-88740476D01*
X138645238Y-89026190D01*
X138954761Y-89026190D01*
X139383333Y-88526190D02*
X139288095Y-88526190D01*
X139240476Y-88550000D01*
X139216666Y-88573809D01*
X139169047Y-88645238D01*
X139145238Y-88740476D01*
X139145238Y-88930952D01*
X139169047Y-88978571D01*
X139192857Y-89002380D01*
X139240476Y-89026190D01*
X139335714Y-89026190D01*
X139383333Y-89002380D01*
X139407142Y-88978571D01*
X139430952Y-88930952D01*
X139430952Y-88811904D01*
X139407142Y-88764285D01*
X139383333Y-88740476D01*
X139335714Y-88716666D01*
X139240476Y-88716666D01*
X139192857Y-88740476D01*
X139169047Y-88764285D01*
X139145238Y-88811904D01*
X193030952Y-117426190D02*
X193030952Y-116926190D01*
X193150000Y-116926190D01*
X193221428Y-116950000D01*
X193269047Y-116997619D01*
X193292857Y-117045238D01*
X193316666Y-117140476D01*
X193316666Y-117211904D01*
X193292857Y-117307142D01*
X193269047Y-117354761D01*
X193221428Y-117402380D01*
X193150000Y-117426190D01*
X193030952Y-117426190D01*
X193792857Y-117426190D02*
X193507142Y-117426190D01*
X193650000Y-117426190D02*
X193650000Y-116926190D01*
X193602380Y-116997619D01*
X193554761Y-117045238D01*
X193507142Y-117069047D01*
X166230952Y-108626190D02*
X166230952Y-108126190D01*
X166350000Y-108126190D01*
X166421428Y-108150000D01*
X166469047Y-108197619D01*
X166492857Y-108245238D01*
X166516666Y-108340476D01*
X166516666Y-108411904D01*
X166492857Y-108507142D01*
X166469047Y-108554761D01*
X166421428Y-108602380D01*
X166350000Y-108626190D01*
X166230952Y-108626190D01*
X166707142Y-108173809D02*
X166730952Y-108150000D01*
X166778571Y-108126190D01*
X166897619Y-108126190D01*
X166945238Y-108150000D01*
X166969047Y-108173809D01*
X166992857Y-108221428D01*
X166992857Y-108269047D01*
X166969047Y-108340476D01*
X166683333Y-108626190D01*
X166992857Y-108626190D01*
X123278571Y-95578571D02*
X123254761Y-95602380D01*
X123183333Y-95626190D01*
X123135714Y-95626190D01*
X123064285Y-95602380D01*
X123016666Y-95554761D01*
X122992857Y-95507142D01*
X122969047Y-95411904D01*
X122969047Y-95340476D01*
X122992857Y-95245238D01*
X123016666Y-95197619D01*
X123064285Y-95150000D01*
X123135714Y-95126190D01*
X123183333Y-95126190D01*
X123254761Y-95150000D01*
X123278571Y-95173809D01*
X123754761Y-95626190D02*
X123469047Y-95626190D01*
X123611904Y-95626190D02*
X123611904Y-95126190D01*
X123564285Y-95197619D01*
X123516666Y-95245238D01*
X123469047Y-95269047D01*
X123992857Y-95626190D02*
X124088095Y-95626190D01*
X124135714Y-95602380D01*
X124159523Y-95578571D01*
X124207142Y-95507142D01*
X124230952Y-95411904D01*
X124230952Y-95221428D01*
X124207142Y-95173809D01*
X124183333Y-95150000D01*
X124135714Y-95126190D01*
X124040476Y-95126190D01*
X123992857Y-95150000D01*
X123969047Y-95173809D01*
X123945238Y-95221428D01*
X123945238Y-95340476D01*
X123969047Y-95388095D01*
X123992857Y-95411904D01*
X124040476Y-95435714D01*
X124135714Y-95435714D01*
X124183333Y-95411904D01*
X124207142Y-95388095D01*
X124230952Y-95340476D01*
M02*
