M48
; DRILL file {KiCad (5.1.8-0-10_14)} date Wednesday, August 18, 2021 at 01:43:08 PM
; FORMAT={-:-/ absolute / inch / decimal}
; #@! TF.CreationDate,2021-08-18T13:43:08+02:00
; #@! TF.GenerationSoftware,Kicad,Pcbnew,(5.1.8-0-10_14)
; #@! TF.FileFunction,Plated,1,2,PTH
FMAT,2
INCH
T1C0.0079
T2C0.0157
T3C0.0197
T4C0.0300
T5C0.0315
T6C0.0350
T7C0.0394
T8C0.0402
T9C0.0642
T10C0.0748
T11C0.1260
%
G90
G05
T1
X7.3868Y-3.3081
X7.3868Y-3.3622
X7.3868Y-3.4163
X7.4409Y-3.3081
X7.4409Y-3.3622
X7.4409Y-3.4163
X7.4951Y-3.3081
X7.4951Y-3.3622
X7.4951Y-3.4163
T2
X4.8583Y-3.5591
X4.8602Y-3.4902
X4.874Y-4.2244
X4.876Y-4.2933
X4.8799Y-4.4055
X4.8819Y-3.748
X4.9311Y-3.5315
X4.9783Y-4.3504
X5.0118Y-3.5138
X5.0197Y-3.872
X5.0709Y-4.2835
X5.0787Y-3.6516
X5.0787Y-4.3307
X5.0866Y-3.2362
X5.0866Y-3.4409
X5.0866Y-4.189
X5.0925Y-3.5787
X5.0945Y-4.6752
X5.1004Y-3.7224
X5.1083Y-3.7598
X5.1102Y-3.8937
X5.1181Y-4.2835
X5.1181Y-4.3701
X5.122Y-3.2756
X5.1299Y-3.6043
X5.1358Y-4.5886
X5.1437Y-3.6417
X5.1535Y-4.4685
X5.1594Y-3.7657
X5.1732Y-4.3386
X5.1752Y-4.6555
X5.1772Y-3.6043
X5.1811Y-4.2205
X5.187Y-3.565
X5.2047Y-4.3858
X5.2205Y-3.2362
X5.2244Y-3.6004
X5.2441Y-4.2598
X5.2441Y-4.3386
X5.2579Y-3.4114
X5.2638Y-3.6634
X5.2677Y-4.5906
X5.2756Y-3.7677
X5.2756Y-3.9449
X5.2913Y-4.0374
X5.2913Y-4.2205
X5.2913Y-4.3858
X5.2913Y-4.6673
X5.315Y-3.8583
X5.3228Y-3.4252
X5.3228Y-4.0157
X5.3386Y-4.2598
X5.3386Y-4.3386
X5.3425Y-4.1496
X5.3543Y-3.8917
X5.3543Y-3.937
X5.378Y-3.252
X5.3858Y-3.3976
X5.3858Y-4.2205
X5.3858Y-4.3858
X5.3917Y-3.7323
X5.3917Y-4.4921
X5.3937Y-3.3307
X5.3976Y-4.5945
X5.4016Y-4.1811
X5.4252Y-4.2598
X5.4252Y-4.3386
X5.4331Y-4.4567
X5.4488Y-3.315
X5.4488Y-4.1969
X5.4488Y-4.3858
X5.4646Y-4.5039
X5.4665Y-3.685
X5.4665Y-3.7736
X5.4685Y-3.6417
X5.4764Y-4.4488
X5.4783Y-3.8346
X5.4921Y-3.5315
X5.4941Y-4.4035
X5.4961Y-4.0394
X5.4961Y-4.1732
X5.4961Y-4.2205
X5.4961Y-4.2598
X5.4961Y-4.3386
X5.498Y-3.622
X5.5Y-4.1181
X5.502Y-3.5217
X5.5079Y-3.7283
X5.5079Y-4.6654
X5.5118Y-3.252
X5.5433Y-4.3858
X5.5591Y-4.3386
X5.5984Y-3.3937
X5.5984Y-4.3071
X5.6063Y-4.374
X5.628Y-4.6673
X5.6299Y-3.5138
X5.7008Y-3.2362
X5.7126Y-4.3701
X5.7165Y-3.6142
X5.7303Y-4.502
X5.75Y-3.4646
X5.75Y-4.6673
X5.7736Y-3.2323
X5.7894Y-3.3051
X5.7933Y-3.3819
X5.8031Y-4.498
X5.8091Y-3.5138
X5.8248Y-4.4075
X5.8996Y-4.6535
X5.9508Y-4.4134
X5.9626Y-4.3307
X5.9961Y-4.5591
X6.0118Y-4.6555
X6.0197Y-3.315
X6.0354Y-3.4311
X6.0453Y-3.2402
X6.0846Y-3.4744
X6.1004Y-3.9193
X6.1083Y-3.6299
X6.1083Y-4.0394
X6.122Y-4.2854
X6.1358Y-3.9823
X6.1378Y-3.8799
X6.1594Y-3.6437
X6.2362Y-4.4055
X6.2756Y-3.4902
X6.2756Y-4.1594
X6.2756Y-4.3622
X6.2776Y-3.5453
X6.2815Y-3.7106
X6.2815Y-4.0374
X6.2835Y-3.9232
X6.4646Y-3.937
X6.4724Y-3.4724
X6.4724Y-3.9921
X6.4764Y-3.7598
X6.4961Y-3.5236
X6.5Y-4.0866
X6.5118Y-3.9449
X6.5157Y-3.748
X6.5157Y-4.3898
X6.5236Y-4.0433
X6.5945Y-4.3898
X6.6142Y-4.1732
X6.6496Y-4.0197
X6.6732Y-3.8976
X6.6732Y-3.8976
X6.685Y-3.8386
X6.6929Y-3.6811
X6.6949Y-4.0
X6.7008Y-3.4331
X6.7028Y-4.2992
X6.7126Y-3.2185
X6.7126Y-3.622
X6.7126Y-3.937
X6.7323Y-3.2677
X6.7323Y-3.6811
X6.7362Y-3.9921
X6.7376Y-3.6457
X6.7382Y-4.4528
X6.7402Y-3.8071
X6.7402Y-3.8819
X6.7402Y-4.5118
X6.7441Y-4.5787
X6.7559Y-4.2205
X6.7697Y-3.8346
X6.7717Y-3.9685
X6.7717Y-4.0157
X6.7795Y-3.6535
X6.7913Y-3.622
X6.7953Y-3.8819
X6.8031Y-4.3228
X6.811Y-4.0157
X6.813Y-3.9685
X6.8327Y-3.3937
X6.8583Y-3.8268
X6.8701Y-4.6378
X6.872Y-4.4409
X6.8898Y-4.3228
X6.8996Y-3.7106
X6.9035Y-4.5591
X6.9055Y-4.1614
X6.9094Y-3.6024
X6.9173Y-4.4764
X6.9232Y-4.1083
X6.937Y-4.3425
X6.9449Y-4.2717
X6.9459Y-4.1348
X6.9685Y-3.6024
X6.9764Y-4.0669
X6.9783Y-3.3031
X6.9843Y-3.4134
X6.9882Y-3.2283
X7.0079Y-3.9291
X7.0197Y-4.0394
X7.0354Y-4.4488
X7.0421Y-4.3673
X7.0531Y-4.5453
X7.0551Y-3.3622
X7.0551Y-3.748
X7.0551Y-3.9291
X7.0559Y-4.3811
X7.0591Y-3.4843
X7.063Y-4.6024
X7.0669Y-3.2283
X7.0669Y-3.6142
X7.0669Y-4.063
X7.0768Y-4.3248
X7.11Y-3.7797
X7.1102Y-3.4646
X7.1102Y-3.8898
X7.1102Y-4.0866
X7.1181Y-3.6378
X7.1181Y-4.3425
X7.1339Y-3.2205
X7.1496Y-3.748
X7.1496Y-4.4646
X7.1516Y-4.6378
X7.1732Y-3.4882
X7.1811Y-3.6299
X7.1811Y-4.1102
X7.189Y-3.2205
X7.1929Y-4.5669
X7.2126Y-3.7638
X7.2205Y-3.937
X7.2244Y-4.3386
X7.2559Y-4.1102
X7.2677Y-3.2598
X7.2795Y-4.3465
X7.2913Y-3.5118
X7.2972Y-4.622
X7.2992Y-3.3386
X7.2992Y-3.378
X7.2992Y-3.7559
X7.2992Y-4.4764
X7.315Y-3.2598
X7.3228Y-3.8504
X7.3287Y-3.4587
X7.3386Y-3.7559
X7.3425Y-4.3504
X7.3465Y-3.9055
X7.3543Y-3.2441
X7.3543Y-3.5906
X7.3543Y-4.5669
X7.3622Y-3.4803
X7.378Y-3.5118
X7.3858Y-3.8346
X7.3937Y-4.4449
X7.4134Y-4.2402
X7.4213Y-4.4173
X7.4409Y-3.2126
X7.4409Y-3.9055
X7.4567Y-4.374
X7.4587Y-4.4921
X7.4803Y-4.0157
X7.4882Y-4.2441
X7.4961Y-3.6378
X7.5Y-4.3543
X7.5369Y-3.2692
X7.5512Y-3.4882
X7.5591Y-3.2362
X7.5669Y-3.6299
X7.5669Y-4.2362
X7.5827Y-3.2835
X7.5827Y-3.4252
X7.5984Y-3.3937
X7.5984Y-3.937
X7.5984Y-4.0787
X7.6063Y-3.2441
X7.6063Y-3.3228
X7.6063Y-4.3622
X7.6142Y-3.3622
X7.6299Y-4.252
X7.6299Y-4.5197
X7.6457Y-4.4409
X7.6614Y-3.7953
X7.6772Y-3.2205
X7.6772Y-4.6535
X7.7087Y-4.252
X7.7165Y-4.0157
X7.7323Y-3.9213
X7.7638Y-4.0866
X7.7795Y-3.7008
X7.7953Y-3.5591
X7.811Y-3.4882
X7.8268Y-3.622
X7.8425Y-3.5276
X7.8819Y-4.1181
X7.8819Y-4.2283
X7.8819Y-4.4016
X7.8898Y-3.6929
X7.8898Y-3.9055
X7.8976Y-3.5591
T3
X6.4803Y-4.5472
X6.508Y-4.4804
X6.508Y-4.6141
X6.5748Y-4.4528
X6.5748Y-4.6417
X6.6416Y-4.4804
X6.6416Y-4.6141
X6.6693Y-4.5472
X7.7008Y-4.5463
X7.7285Y-4.4794
X7.7285Y-4.6131
X7.7953Y-4.4518
X7.7953Y-4.6407
X7.8621Y-4.4794
X7.8621Y-4.6131
X7.8898Y-4.5463
X4.8661Y-4.5669
X4.8938Y-4.5001
X4.8938Y-4.6337
X4.9606Y-4.4724
X4.9606Y-4.6614
X5.0274Y-4.5001
X5.0274Y-4.6337
X5.0551Y-4.5669
X6.0866Y-3.3465
X6.1143Y-3.2796
X6.1143Y-3.4133
X6.1811Y-3.252
X6.1811Y-3.4409
X6.2479Y-3.2796
X6.2479Y-3.4133
X6.2756Y-3.3465
X7.7008Y-3.3268
X7.7285Y-3.26
X7.7285Y-3.3936
X7.7953Y-3.2323
X7.7953Y-3.4213
X7.8621Y-3.26
X7.8621Y-3.3936
X7.8898Y-3.3268
X6.4803Y-3.3268
X6.508Y-3.26
X6.508Y-3.3936
X6.5748Y-3.2323
X6.5748Y-3.4213
X6.6416Y-3.26
X6.6416Y-3.3936
X6.6693Y-3.3268
X6.0866Y-4.5669
X6.1143Y-4.5001
X6.1143Y-4.6337
X6.1811Y-4.4724
X6.1811Y-4.6614
X6.2479Y-4.5001
X6.2479Y-4.6337
X6.2756Y-4.5669
X4.8661Y-3.3465
X4.8938Y-3.2796
X4.8938Y-3.4133
X4.9606Y-3.252
X4.9606Y-3.4409
X5.0274Y-3.2796
X5.0274Y-3.4133
X5.0551Y-3.3465
T4
X7.5634Y-4.3201
X7.6634Y-4.3201
X7.7634Y-4.3201
X7.8634Y-4.3201
T5
X6.811Y-4.3858
X6.811Y-4.4858
X6.811Y-4.5858
T6
X5.585Y-3.7819
X5.585Y-3.8819
X5.585Y-3.9819
X5.585Y-4.0819
X5.685Y-3.8319
X5.685Y-3.9319
X5.685Y-4.0319
X5.685Y-4.1319
T7
X6.7898Y-3.2449
X6.7898Y-3.3449
X6.7898Y-3.4449
X6.8898Y-3.2449
X6.8898Y-3.3449
X6.8898Y-3.4449
X5.8661Y-3.2646
X5.8661Y-3.3646
X5.8661Y-3.4646
X5.9661Y-3.2646
X5.9661Y-3.3646
X5.9661Y-3.4646
X5.2283Y-4.4961
X5.3268Y-4.4961
X6.9685Y-4.6181
X7.4016Y-4.6181
X5.5654Y-3.5669
X5.6654Y-3.5669
X5.7654Y-3.5669
X5.8654Y-3.5669
X5.9654Y-3.5669
X6.0654Y-3.5669
X6.1654Y-3.5669
X6.5906Y-3.5472
X6.6906Y-3.5472
X6.7906Y-3.5472
X6.8906Y-3.5472
X6.9906Y-3.5472
X7.0906Y-3.5472
X7.1906Y-3.5472
X4.8819Y-3.8071
X4.8819Y-3.9071
X4.8819Y-4.0071
X4.8819Y-4.1071
X5.5394Y-4.4961
X5.6378Y-4.4961
T8
X6.128Y-3.6959
X6.128Y-3.7959
X6.128Y-4.1175
X6.128Y-4.2175
T9
X5.815Y-3.6518
X5.815Y-4.2616
T10
X7.0866Y-4.2244
X7.2835Y-4.2244
T11
X6.5748Y-3.3268
X6.1811Y-4.5669
X4.9606Y-3.3465
X6.5748Y-4.5472
X7.7953Y-4.5463
X4.9606Y-4.5669
X6.1811Y-3.3465
X7.7953Y-3.3268
T0
M30
