%TF.GenerationSoftware,KiCad,Pcbnew,(5.0.1-3-g963ef8bb5)*%
%TF.CreationDate,2020-02-23T21:28:53+01:00*%
%TF.ProjectId,ethersweep,657468657273776565702E6B69636164,rev?*%
%TF.SameCoordinates,Original*%
%TF.FileFunction,Copper,L1,Top,Signal*%
%TF.FilePolarity,Positive*%
%FSLAX46Y46*%
G04 Gerber Fmt 4.6, Leading zero omitted, Abs format (unit mm)*
G04 Created by KiCad (PCBNEW (5.0.1-3-g963ef8bb5)) date 2020 February 23, Sunday 21:28:53*
%MOMM*%
%LPD*%
G01*
G04 APERTURE LIST*
%ADD10C,0.150000*%
%ADD11C,0.200000*%
%ADD12O,1.600000X1.600000*%
%ADD13R,1.600000X1.600000*%
%ADD14C,1.879600*%
%ADD15R,2.000000X1.600000*%
%ADD16C,1.600000*%
%ADD17R,1.600000X1.000000*%
%ADD18C,0.800000*%
%ADD19C,7.000000*%
%ADD20R,6.200000X3.900000*%
%ADD21R,4.400000X3.300000*%
%ADD22O,1.700000X1.700000*%
%ADD23R,1.700000X1.700000*%
%ADD24R,1.500000X1.300000*%
%ADD25C,0.500000*%
%ADD26C,1.000000*%
%ADD27C,0.250000*%
%ADD28C,0.254000*%
G04 APERTURE END LIST*
D10*
X84500000Y-72500000D02*
G75*
G02X87500000Y-69500000I3000000J0D01*
G01*
X87500000Y-129500000D02*
G75*
G02X84500000Y-126500000I0J3000000D01*
G01*
X144500000Y-126500000D02*
G75*
G02X141500000Y-129500000I-3000000J0D01*
G01*
X141500000Y-69500000D02*
G75*
G02X144500000Y-72500000I0J-3000000D01*
G01*
D11*
X84500000Y-126500000D02*
X84500000Y-72500000D01*
X141500000Y-129500000D02*
X87500000Y-129500000D01*
X144500000Y-72500000D02*
X144500000Y-126500000D01*
X87500000Y-69500000D02*
X141500000Y-69500000D01*
D12*
X122000000Y-106300000D03*
X139780000Y-119000000D03*
X124540000Y-106300000D03*
X137240000Y-119000000D03*
X127080000Y-106300000D03*
X134700000Y-119000000D03*
X129620000Y-106300000D03*
X132160000Y-119000000D03*
X132160000Y-106300000D03*
X129620000Y-119000000D03*
X134700000Y-106300000D03*
X127080000Y-119000000D03*
X137240000Y-106300000D03*
X124540000Y-119000000D03*
X139780000Y-106300000D03*
D13*
X122000000Y-119000000D03*
D14*
X89800000Y-126620000D03*
X92340000Y-126620000D03*
X94880000Y-126620000D03*
X97420000Y-126620000D03*
X99960000Y-126620000D03*
X102500000Y-126620000D03*
X105040000Y-126620000D03*
X107580000Y-126620000D03*
X110120000Y-126620000D03*
X112660000Y-126620000D03*
X115200000Y-126620000D03*
X117740000Y-126620000D03*
X117740000Y-111380000D03*
X115200000Y-111380000D03*
X112660000Y-111380000D03*
X110120000Y-111380000D03*
X107580000Y-111380000D03*
X105040000Y-111380000D03*
X102500000Y-111380000D03*
X99960000Y-111380000D03*
X97420000Y-111380000D03*
X94880000Y-111380000D03*
X92340000Y-111380000D03*
X89800000Y-111380000D03*
X111548750Y-114237500D03*
X109008750Y-114237500D03*
X98531250Y-114237500D03*
X101071250Y-114237500D03*
X87260000Y-125350000D03*
X87260000Y-122810000D03*
X87260000Y-120270000D03*
X87260000Y-117730000D03*
X87260000Y-115190000D03*
X87260000Y-112650000D03*
D15*
X141000000Y-87000000D03*
X137000000Y-87000000D03*
D16*
X134245001Y-93524999D03*
D13*
X134245001Y-97324999D03*
X106500000Y-103000000D03*
D16*
X110300000Y-103000000D03*
X125500000Y-92500000D03*
D13*
X125500000Y-95000000D03*
X106600001Y-94375001D03*
D16*
X109100001Y-94375001D03*
D17*
X136475001Y-80395001D03*
X136475001Y-83595001D03*
X141475001Y-80395001D03*
X141475001Y-83595001D03*
D18*
X142356155Y-71643845D03*
X140500000Y-70875000D03*
X138643845Y-71643845D03*
X137875000Y-73500000D03*
X138643845Y-75356155D03*
X140500000Y-76125000D03*
X142356155Y-75356155D03*
X143125000Y-73500000D03*
D19*
X140500000Y-73500000D03*
X140500000Y-125500000D03*
D18*
X143125000Y-125500000D03*
X142356155Y-127356155D03*
X140500000Y-128125000D03*
X138643845Y-127356155D03*
X137875000Y-125500000D03*
X138643845Y-123643845D03*
X140500000Y-122875000D03*
X142356155Y-123643845D03*
X90356155Y-71643845D03*
X88500000Y-70875000D03*
X86643845Y-71643845D03*
X85875000Y-73500000D03*
X86643845Y-75356155D03*
X88500000Y-76125000D03*
X90356155Y-75356155D03*
X91125000Y-73500000D03*
D19*
X88500000Y-73500000D03*
D20*
X91800000Y-105450000D03*
X91800000Y-92550000D03*
D21*
X100800000Y-99700000D03*
D22*
X107500000Y-72500000D03*
X110040000Y-72500000D03*
X112580000Y-72500000D03*
X115120000Y-72500000D03*
X117660000Y-72500000D03*
X120200000Y-72500000D03*
X122740000Y-72500000D03*
D23*
X125280000Y-72500000D03*
X125280000Y-87500000D03*
D22*
X122740000Y-87500000D03*
X120200000Y-87500000D03*
X117660000Y-87500000D03*
X115120000Y-87500000D03*
X112580000Y-87500000D03*
X110040000Y-87500000D03*
X107500000Y-87500000D03*
D23*
X141500000Y-93500000D03*
D22*
X141500000Y-96040000D03*
X141500000Y-98580000D03*
X141500000Y-101120000D03*
X132120000Y-126500000D03*
X129580000Y-126500000D03*
X127040000Y-126500000D03*
D23*
X124500000Y-126500000D03*
D24*
X97650000Y-121000000D03*
X100350000Y-121000000D03*
X94850000Y-121000000D03*
X92150000Y-121000000D03*
D18*
X109000000Y-109500000D03*
X104000000Y-106000000D03*
X113500000Y-123500000D03*
X139000000Y-113500000D03*
X139000000Y-113500000D03*
X139000000Y-113500000D03*
X129500000Y-111500000D03*
X133000000Y-116500000D03*
X135000000Y-109500000D03*
X127000000Y-114000000D03*
X128500000Y-115500000D03*
X124500000Y-122500000D03*
X128500000Y-122500000D03*
X131000000Y-122500000D03*
X133500000Y-122500000D03*
X136500000Y-122500000D03*
X136000000Y-128000000D03*
X121000000Y-128000000D03*
X121000000Y-128000000D03*
X121000000Y-128000000D03*
X121500000Y-125000000D03*
X122000000Y-122500000D03*
X140000000Y-116500000D03*
X140000000Y-116500000D03*
X140000000Y-116500000D03*
X141000000Y-110500000D03*
X98000000Y-118000000D03*
X98000000Y-118000000D03*
X98000000Y-118000000D03*
X90000000Y-116500000D03*
X94000000Y-114000000D03*
X90500000Y-123500000D03*
X98500000Y-124000000D03*
X107000000Y-120500000D03*
X115000000Y-114000000D03*
X104500000Y-114000000D03*
X87000000Y-105500000D03*
X87000000Y-109000000D03*
X95500000Y-101000000D03*
X100000000Y-92500000D03*
X86500000Y-92500000D03*
X96000000Y-92000000D03*
X90500000Y-82000000D03*
X99500000Y-75500000D03*
X101000000Y-86000000D03*
X108500000Y-83500000D03*
X122000000Y-84000000D03*
X111000000Y-75500000D03*
X111000000Y-75500000D03*
X111000000Y-75500000D03*
X115500000Y-75500000D03*
X121500000Y-75500000D03*
X125000000Y-77500000D03*
X132000000Y-73000000D03*
X136000000Y-77500000D03*
X104500000Y-92000000D03*
X100000000Y-104500000D03*
X116500000Y-99000000D03*
X119500000Y-99000000D03*
X120000000Y-92500000D03*
X116500000Y-92500000D03*
X105500000Y-117500000D03*
X119000000Y-119000000D03*
X115000000Y-119000000D03*
X111000000Y-118000000D03*
X127500000Y-99000000D03*
X127500000Y-99000000D03*
X127500000Y-99000000D03*
X129000000Y-90000000D03*
X133000000Y-90500000D03*
X133000000Y-99500000D03*
X137500000Y-104000000D03*
X140500000Y-104000000D03*
X141500000Y-108500000D03*
X135500000Y-117000000D03*
X136000000Y-120500000D03*
X137500000Y-120500000D03*
X130500000Y-115000000D03*
X129500000Y-113000000D03*
X109000000Y-118500000D03*
X119500000Y-107000000D03*
X116500000Y-106500000D03*
X115000000Y-107710923D03*
X113000000Y-106500000D03*
D25*
X112580000Y-72500000D02*
X115120000Y-72500000D01*
X115120000Y-72500000D02*
X117660000Y-72500000D01*
X117660000Y-72500000D02*
X120200000Y-72500000D01*
D26*
X134245001Y-95524999D02*
X134245001Y-97324999D01*
X133720002Y-95000000D02*
X134245001Y-95524999D01*
X125500000Y-95000000D02*
X133720002Y-95000000D01*
D25*
X140215001Y-97324999D02*
X141500000Y-96040000D01*
X134245001Y-97324999D02*
X140215001Y-97324999D01*
X135545001Y-97324999D02*
X134245001Y-97324999D01*
X137000000Y-95870000D02*
X135545001Y-97324999D01*
X137000000Y-87000000D02*
X137000000Y-95870000D01*
X136800000Y-87000000D02*
X137000000Y-87000000D01*
X125280000Y-75480000D02*
X136800000Y-87000000D01*
X125280000Y-72500000D02*
X125280000Y-75480000D01*
X137000000Y-85700000D02*
X137000000Y-87000000D01*
X138500000Y-84200000D02*
X137000000Y-85700000D01*
X138500000Y-83420000D02*
X138500000Y-84200000D01*
X136475001Y-81395001D02*
X138500000Y-83420000D01*
X136475001Y-80395001D02*
X136475001Y-81395001D01*
X122740000Y-72500000D02*
X125280000Y-72500000D01*
D27*
X130500000Y-115000000D02*
X130500000Y-115000000D01*
X101293750Y-117000000D02*
X98531250Y-114237500D01*
X103293750Y-119000000D02*
X101293750Y-117000000D01*
X108500000Y-117000000D02*
X106500000Y-119000000D01*
X128500000Y-117000000D02*
X108500000Y-117000000D01*
X106500000Y-119000000D02*
X103293750Y-119000000D01*
X130500000Y-115000000D02*
X128500000Y-117000000D01*
X102336051Y-115502301D02*
X126997699Y-115502301D01*
X101071250Y-114237500D02*
X102336051Y-115502301D01*
X126997699Y-115502301D02*
X129500000Y-113000000D01*
X129500000Y-113000000D02*
X129500000Y-113000000D01*
D26*
X106500000Y-104800000D02*
X106500000Y-103000000D01*
X111440199Y-109740199D02*
X106500000Y-104800000D01*
X130520199Y-109740199D02*
X111440199Y-109740199D01*
X139780000Y-119000000D02*
X130520199Y-109740199D01*
X104100000Y-103000000D02*
X100800000Y-99700000D01*
X106500000Y-103000000D02*
X104100000Y-103000000D01*
X106600001Y-102899999D02*
X106500000Y-103000000D01*
X106600001Y-94375001D02*
X106600001Y-102899999D01*
X90739799Y-110440201D02*
X89800000Y-111380000D01*
X91439801Y-109740199D02*
X90739799Y-110440201D01*
X97959801Y-109740199D02*
X91439801Y-109740199D01*
X104700000Y-103000000D02*
X97959801Y-109740199D01*
X106500000Y-103000000D02*
X104700000Y-103000000D01*
D27*
X92150000Y-113730000D02*
X89800000Y-111380000D01*
X92150000Y-121000000D02*
X92150000Y-113730000D01*
X123740001Y-119799999D02*
X124540000Y-119000000D01*
X123414999Y-120125001D02*
X123740001Y-119799999D01*
X110625001Y-120125001D02*
X123414999Y-120125001D01*
X109000000Y-118500000D02*
X110625001Y-120125001D01*
X141475001Y-81145001D02*
X141475001Y-80395001D01*
X143500000Y-103500000D02*
X142675001Y-102675001D01*
X142675001Y-120324999D02*
X142675001Y-109500000D01*
X142675001Y-82345001D02*
X141475001Y-81145001D01*
X142675001Y-102675001D02*
X142675001Y-82345001D01*
X143500000Y-108675001D02*
X143500000Y-103500000D01*
X142675001Y-109500000D02*
X143500000Y-108675001D01*
X109985001Y-121674999D02*
X138770003Y-121674999D01*
X142000000Y-121000000D02*
X142675001Y-120324999D01*
X139445002Y-121000000D02*
X142000000Y-121000000D01*
X138770003Y-121674999D02*
X139445002Y-121000000D01*
X105040000Y-126620000D02*
X109985001Y-121674999D01*
X121375001Y-105124999D02*
X119899999Y-106600001D01*
X121375001Y-86935999D02*
X121375001Y-105124999D01*
X119899999Y-106600001D02*
X119500000Y-107000000D01*
X120764001Y-86324999D02*
X121375001Y-86935999D01*
X111215001Y-86324999D02*
X120764001Y-86324999D01*
X110040000Y-87500000D02*
X111215001Y-86324999D01*
X115120000Y-105120000D02*
X116500000Y-106500000D01*
X115120000Y-87500000D02*
X115120000Y-105120000D01*
X117660000Y-88702081D02*
X117660000Y-87500000D01*
X118225001Y-89267082D02*
X117660000Y-88702081D01*
X118225001Y-107348001D02*
X118225001Y-89267082D01*
X117848001Y-107725001D02*
X118225001Y-107348001D01*
X116225001Y-107725001D02*
X117848001Y-107725001D01*
X116210923Y-107710923D02*
X115000000Y-107710923D01*
X116225001Y-107725001D02*
X116210923Y-107710923D01*
X113000000Y-87920000D02*
X112580000Y-87500000D01*
X113000000Y-106500000D02*
X113000000Y-87920000D01*
X94850000Y-120100000D02*
X94850000Y-121000000D01*
X94850000Y-116046844D02*
X94850000Y-120100000D01*
X97924145Y-112972699D02*
X94850000Y-116046844D01*
X106414872Y-112972699D02*
X97924145Y-112972699D01*
X107679673Y-114237500D02*
X106414872Y-112972699D01*
X109008750Y-114237500D02*
X107679673Y-114237500D01*
X94850000Y-121000000D02*
X97650000Y-121000000D01*
D28*
G36*
X137722293Y-70542688D02*
X140500000Y-73320395D01*
X140514143Y-73306253D01*
X140693748Y-73485858D01*
X140679605Y-73500000D01*
X143457312Y-76277707D01*
X143765000Y-76041969D01*
X143765001Y-102690199D01*
X143435001Y-102360200D01*
X143435001Y-82419847D01*
X143449889Y-82345000D01*
X143435001Y-82270153D01*
X143435001Y-82270149D01*
X143390905Y-82048464D01*
X143222930Y-81797072D01*
X143159474Y-81754672D01*
X142742744Y-81337943D01*
X142873158Y-81142766D01*
X142922441Y-80895001D01*
X142922441Y-79895001D01*
X142873158Y-79647236D01*
X142732810Y-79437192D01*
X142522766Y-79296844D01*
X142275001Y-79247561D01*
X140675001Y-79247561D01*
X140427236Y-79296844D01*
X140217192Y-79437192D01*
X140076844Y-79647236D01*
X140027561Y-79895001D01*
X140027561Y-80895001D01*
X140076844Y-81142766D01*
X140217192Y-81352810D01*
X140427236Y-81493158D01*
X140675001Y-81542441D01*
X140826519Y-81542441D01*
X140927072Y-81692930D01*
X140990531Y-81735332D01*
X141737975Y-82482777D01*
X141602001Y-82618751D01*
X141602001Y-83468001D01*
X141622001Y-83468001D01*
X141622001Y-83722001D01*
X141602001Y-83722001D01*
X141602001Y-84571251D01*
X141760751Y-84730001D01*
X141915002Y-84730001D01*
X141915002Y-85565000D01*
X141285750Y-85565000D01*
X141127000Y-85723750D01*
X141127000Y-86873000D01*
X141147000Y-86873000D01*
X141147000Y-87127000D01*
X141127000Y-87127000D01*
X141127000Y-88276250D01*
X141285750Y-88435000D01*
X141915002Y-88435000D01*
X141915002Y-92015000D01*
X141785750Y-92015000D01*
X141627000Y-92173750D01*
X141627000Y-93373000D01*
X141647000Y-93373000D01*
X141647000Y-93627000D01*
X141627000Y-93627000D01*
X141627000Y-93647000D01*
X141373000Y-93647000D01*
X141373000Y-93627000D01*
X140173750Y-93627000D01*
X140015000Y-93785750D01*
X140015000Y-94476310D01*
X140111673Y-94709699D01*
X140290302Y-94888327D01*
X140451033Y-94954904D01*
X140429375Y-94969375D01*
X140101161Y-95460582D01*
X139985908Y-96040000D01*
X140029462Y-96258960D01*
X139848423Y-96439999D01*
X137683519Y-96439999D01*
X137833652Y-96215310D01*
X137885000Y-95957165D01*
X137885000Y-95957161D01*
X137902337Y-95870001D01*
X137885000Y-95782841D01*
X137885000Y-92523690D01*
X140015000Y-92523690D01*
X140015000Y-93214250D01*
X140173750Y-93373000D01*
X141373000Y-93373000D01*
X141373000Y-92173750D01*
X141214250Y-92015000D01*
X140523691Y-92015000D01*
X140290302Y-92111673D01*
X140111673Y-92290301D01*
X140015000Y-92523690D01*
X137885000Y-92523690D01*
X137885000Y-88447440D01*
X138000000Y-88447440D01*
X138247765Y-88398157D01*
X138457809Y-88257809D01*
X138598157Y-88047765D01*
X138647440Y-87800000D01*
X138647440Y-87285750D01*
X139365000Y-87285750D01*
X139365000Y-87926310D01*
X139461673Y-88159699D01*
X139640302Y-88338327D01*
X139873691Y-88435000D01*
X140714250Y-88435000D01*
X140873000Y-88276250D01*
X140873000Y-87127000D01*
X139523750Y-87127000D01*
X139365000Y-87285750D01*
X138647440Y-87285750D01*
X138647440Y-86200000D01*
X138622316Y-86073690D01*
X139365000Y-86073690D01*
X139365000Y-86714250D01*
X139523750Y-86873000D01*
X140873000Y-86873000D01*
X140873000Y-85723750D01*
X140714250Y-85565000D01*
X139873691Y-85565000D01*
X139640302Y-85661673D01*
X139461673Y-85840301D01*
X139365000Y-86073690D01*
X138622316Y-86073690D01*
X138598157Y-85952235D01*
X138457809Y-85742191D01*
X138308892Y-85642687D01*
X139064156Y-84887423D01*
X139138049Y-84838049D01*
X139333652Y-84545310D01*
X139385000Y-84287165D01*
X139385000Y-84287161D01*
X139402337Y-84200001D01*
X139385000Y-84112841D01*
X139385000Y-83880751D01*
X140040001Y-83880751D01*
X140040001Y-84221311D01*
X140136674Y-84454700D01*
X140315303Y-84633328D01*
X140548692Y-84730001D01*
X141189251Y-84730001D01*
X141348001Y-84571251D01*
X141348001Y-83722001D01*
X140198751Y-83722001D01*
X140040001Y-83880751D01*
X139385000Y-83880751D01*
X139385000Y-83507159D01*
X139402337Y-83419999D01*
X139385000Y-83332840D01*
X139385000Y-83332835D01*
X139333652Y-83074690D01*
X139262826Y-82968691D01*
X140040001Y-82968691D01*
X140040001Y-83309251D01*
X140198751Y-83468001D01*
X141348001Y-83468001D01*
X141348001Y-82618751D01*
X141189251Y-82460001D01*
X140548692Y-82460001D01*
X140315303Y-82556674D01*
X140136674Y-82735302D01*
X140040001Y-82968691D01*
X139262826Y-82968691D01*
X139138049Y-82781951D01*
X139064156Y-82732577D01*
X137703783Y-81372205D01*
X137732810Y-81352810D01*
X137873158Y-81142766D01*
X137922441Y-80895001D01*
X137922441Y-79895001D01*
X137873158Y-79647236D01*
X137732810Y-79437192D01*
X137522766Y-79296844D01*
X137275001Y-79247561D01*
X135675001Y-79247561D01*
X135427236Y-79296844D01*
X135217192Y-79437192D01*
X135076844Y-79647236D01*
X135027561Y-79895001D01*
X135027561Y-80895001D01*
X135076844Y-81142766D01*
X135217192Y-81352810D01*
X135427236Y-81493158D01*
X135598983Y-81527320D01*
X135641349Y-81740310D01*
X135787577Y-81959155D01*
X135787579Y-81959157D01*
X135836953Y-82033050D01*
X135910846Y-82082424D01*
X136275983Y-82447561D01*
X135675001Y-82447561D01*
X135427236Y-82496844D01*
X135217192Y-82637192D01*
X135076844Y-82847236D01*
X135027561Y-83095001D01*
X135027561Y-83975982D01*
X127508891Y-76457312D01*
X137722293Y-76457312D01*
X138125762Y-76983924D01*
X139639730Y-77627307D01*
X141284666Y-77642346D01*
X142810145Y-77026750D01*
X142874238Y-76983924D01*
X143277707Y-76457312D01*
X140500000Y-73679605D01*
X137722293Y-76457312D01*
X127508891Y-76457312D01*
X126165000Y-75113422D01*
X126165000Y-74284666D01*
X136357654Y-74284666D01*
X136973250Y-75810145D01*
X137016076Y-75874238D01*
X137542688Y-76277707D01*
X140320395Y-73500000D01*
X137542688Y-70722293D01*
X137016076Y-71125762D01*
X136372693Y-72639730D01*
X136357654Y-74284666D01*
X126165000Y-74284666D01*
X126165000Y-73990478D01*
X126377765Y-73948157D01*
X126587809Y-73807809D01*
X126728157Y-73597765D01*
X126777440Y-73350000D01*
X126777440Y-71650000D01*
X126728157Y-71402235D01*
X126587809Y-71192191D01*
X126377765Y-71051843D01*
X126130000Y-71002560D01*
X124430000Y-71002560D01*
X124182235Y-71051843D01*
X123972191Y-71192191D01*
X123831843Y-71402235D01*
X123822816Y-71447619D01*
X123810625Y-71429375D01*
X123319418Y-71101161D01*
X122886256Y-71015000D01*
X122593744Y-71015000D01*
X122160582Y-71101161D01*
X121669375Y-71429375D01*
X121456157Y-71748478D01*
X121395183Y-71618642D01*
X120966924Y-71228355D01*
X120556890Y-71058524D01*
X120327000Y-71179845D01*
X120327000Y-72373000D01*
X120347000Y-72373000D01*
X120347000Y-72627000D01*
X120327000Y-72627000D01*
X120327000Y-73820155D01*
X120556890Y-73941476D01*
X120966924Y-73771645D01*
X121395183Y-73381358D01*
X121456157Y-73251522D01*
X121669375Y-73570625D01*
X122160582Y-73898839D01*
X122593744Y-73985000D01*
X122886256Y-73985000D01*
X123319418Y-73898839D01*
X123810625Y-73570625D01*
X123822816Y-73552381D01*
X123831843Y-73597765D01*
X123972191Y-73807809D01*
X124182235Y-73948157D01*
X124395001Y-73990478D01*
X124395001Y-75392835D01*
X124377663Y-75480000D01*
X124446348Y-75825309D01*
X124592576Y-76044154D01*
X124592578Y-76044156D01*
X124641952Y-76118049D01*
X124715845Y-76167423D01*
X135352560Y-86804139D01*
X135352560Y-87800000D01*
X135401843Y-88047765D01*
X135542191Y-88257809D01*
X135752235Y-88398157D01*
X136000000Y-88447440D01*
X136115000Y-88447440D01*
X136115001Y-95503420D01*
X135522205Y-96096217D01*
X135502810Y-96067190D01*
X135380001Y-95985131D01*
X135380001Y-95636782D01*
X135402236Y-95524999D01*
X135314147Y-95082144D01*
X135284869Y-95038327D01*
X135063290Y-94706710D01*
X135027868Y-94683042D01*
X135073140Y-94532744D01*
X134245001Y-93704604D01*
X134230859Y-93718747D01*
X134051254Y-93539142D01*
X134065396Y-93524999D01*
X134424606Y-93524999D01*
X135252746Y-94353138D01*
X135498865Y-94279004D01*
X135691966Y-93741776D01*
X135664779Y-93171545D01*
X135498865Y-92770994D01*
X135252746Y-92696860D01*
X134424606Y-93524999D01*
X134065396Y-93524999D01*
X133237256Y-92696860D01*
X132991137Y-92770994D01*
X132798036Y-93308222D01*
X132824582Y-93865000D01*
X126839868Y-93865000D01*
X126757809Y-93742191D01*
X126547765Y-93601843D01*
X126313813Y-93555307D01*
X126328139Y-93507745D01*
X125500000Y-92679605D01*
X124671861Y-93507745D01*
X124686187Y-93555307D01*
X124452235Y-93601843D01*
X124242191Y-93742191D01*
X124101843Y-93952235D01*
X124052560Y-94200000D01*
X124052560Y-95800000D01*
X124101843Y-96047765D01*
X124242191Y-96257809D01*
X124452235Y-96398157D01*
X124700000Y-96447440D01*
X126300000Y-96447440D01*
X126547765Y-96398157D01*
X126757809Y-96257809D01*
X126839868Y-96135000D01*
X132941882Y-96135000D01*
X132846844Y-96277234D01*
X132797561Y-96524999D01*
X132797561Y-98124999D01*
X132846844Y-98372764D01*
X132987192Y-98582808D01*
X133197236Y-98723156D01*
X133445001Y-98772439D01*
X135045001Y-98772439D01*
X135292766Y-98723156D01*
X135502810Y-98582808D01*
X135643158Y-98372764D01*
X135675534Y-98209999D01*
X140059506Y-98209999D01*
X139985908Y-98580000D01*
X140101161Y-99159418D01*
X140429375Y-99650625D01*
X140727761Y-99850000D01*
X140429375Y-100049375D01*
X140101161Y-100540582D01*
X139985908Y-101120000D01*
X140101161Y-101699418D01*
X140429375Y-102190625D01*
X140920582Y-102518839D01*
X141353744Y-102605000D01*
X141646256Y-102605000D01*
X141915001Y-102551543D01*
X141915001Y-102600154D01*
X141900113Y-102675001D01*
X141915001Y-102749848D01*
X141915001Y-102749852D01*
X141959097Y-102971537D01*
X142127072Y-103222930D01*
X142190531Y-103265332D01*
X142740001Y-103814803D01*
X142740000Y-108360199D01*
X142190529Y-108909671D01*
X142127073Y-108952071D01*
X142084673Y-109015527D01*
X142084672Y-109015528D01*
X141959098Y-109203463D01*
X141900113Y-109500000D01*
X141915002Y-109574852D01*
X141915001Y-120010197D01*
X141685199Y-120240000D01*
X140507140Y-120240000D01*
X140814577Y-120034577D01*
X141131740Y-119559909D01*
X141243113Y-119000000D01*
X141131740Y-118440091D01*
X140814577Y-117965423D01*
X140339909Y-117648260D01*
X139957283Y-117572151D01*
X131401812Y-109016681D01*
X131338488Y-108921910D01*
X130963054Y-108671053D01*
X130631982Y-108605199D01*
X130520199Y-108582964D01*
X130408416Y-108605199D01*
X115545612Y-108605199D01*
X115586280Y-108588354D01*
X115703711Y-108470923D01*
X116079374Y-108470923D01*
X116150149Y-108485001D01*
X116150153Y-108485001D01*
X116225000Y-108499889D01*
X116299847Y-108485001D01*
X117773154Y-108485001D01*
X117848001Y-108499889D01*
X117922848Y-108485001D01*
X117922853Y-108485001D01*
X118144538Y-108440905D01*
X118395930Y-108272930D01*
X118438332Y-108209471D01*
X118709471Y-107938332D01*
X118772930Y-107895930D01*
X118836732Y-107800443D01*
X118913720Y-107877431D01*
X119294126Y-108035000D01*
X119705874Y-108035000D01*
X120086280Y-107877431D01*
X120377431Y-107586280D01*
X120535000Y-107205874D01*
X120535000Y-107039801D01*
X120674949Y-106899852D01*
X120965423Y-107334577D01*
X121440091Y-107651740D01*
X121858667Y-107735000D01*
X122141333Y-107735000D01*
X122559909Y-107651740D01*
X123034577Y-107334577D01*
X123270000Y-106982242D01*
X123505423Y-107334577D01*
X123980091Y-107651740D01*
X124398667Y-107735000D01*
X124681333Y-107735000D01*
X125099909Y-107651740D01*
X125574577Y-107334577D01*
X125810000Y-106982242D01*
X126045423Y-107334577D01*
X126520091Y-107651740D01*
X126938667Y-107735000D01*
X127221333Y-107735000D01*
X127639909Y-107651740D01*
X128114577Y-107334577D01*
X128350000Y-106982242D01*
X128585423Y-107334577D01*
X129060091Y-107651740D01*
X129478667Y-107735000D01*
X129761333Y-107735000D01*
X130179909Y-107651740D01*
X130654577Y-107334577D01*
X130890000Y-106982242D01*
X131125423Y-107334577D01*
X131600091Y-107651740D01*
X132018667Y-107735000D01*
X132301333Y-107735000D01*
X132719909Y-107651740D01*
X133194577Y-107334577D01*
X133430000Y-106982242D01*
X133665423Y-107334577D01*
X134140091Y-107651740D01*
X134558667Y-107735000D01*
X134841333Y-107735000D01*
X135259909Y-107651740D01*
X135734577Y-107334577D01*
X135970000Y-106982242D01*
X136205423Y-107334577D01*
X136680091Y-107651740D01*
X137098667Y-107735000D01*
X137381333Y-107735000D01*
X137799909Y-107651740D01*
X138274577Y-107334577D01*
X138510000Y-106982242D01*
X138745423Y-107334577D01*
X139220091Y-107651740D01*
X139638667Y-107735000D01*
X139921333Y-107735000D01*
X140339909Y-107651740D01*
X140814577Y-107334577D01*
X141131740Y-106859909D01*
X141243113Y-106300000D01*
X141131740Y-105740091D01*
X140814577Y-105265423D01*
X140339909Y-104948260D01*
X139921333Y-104865000D01*
X139638667Y-104865000D01*
X139220091Y-104948260D01*
X138745423Y-105265423D01*
X138510000Y-105617758D01*
X138274577Y-105265423D01*
X137799909Y-104948260D01*
X137381333Y-104865000D01*
X137098667Y-104865000D01*
X136680091Y-104948260D01*
X136205423Y-105265423D01*
X135970000Y-105617758D01*
X135734577Y-105265423D01*
X135259909Y-104948260D01*
X134841333Y-104865000D01*
X134558667Y-104865000D01*
X134140091Y-104948260D01*
X133665423Y-105265423D01*
X133430000Y-105617758D01*
X133194577Y-105265423D01*
X132719909Y-104948260D01*
X132301333Y-104865000D01*
X132018667Y-104865000D01*
X131600091Y-104948260D01*
X131125423Y-105265423D01*
X130890000Y-105617758D01*
X130654577Y-105265423D01*
X130179909Y-104948260D01*
X129761333Y-104865000D01*
X129478667Y-104865000D01*
X129060091Y-104948260D01*
X128585423Y-105265423D01*
X128350000Y-105617758D01*
X128114577Y-105265423D01*
X127639909Y-104948260D01*
X127221333Y-104865000D01*
X126938667Y-104865000D01*
X126520091Y-104948260D01*
X126045423Y-105265423D01*
X125810000Y-105617758D01*
X125574577Y-105265423D01*
X125099909Y-104948260D01*
X124681333Y-104865000D01*
X124398667Y-104865000D01*
X123980091Y-104948260D01*
X123505423Y-105265423D01*
X123270000Y-105617758D01*
X123034577Y-105265423D01*
X122559909Y-104948260D01*
X122141333Y-104865000D01*
X122135001Y-104865000D01*
X122135001Y-92283223D01*
X124053035Y-92283223D01*
X124080222Y-92853454D01*
X124246136Y-93254005D01*
X124492255Y-93328139D01*
X125320395Y-92500000D01*
X125679605Y-92500000D01*
X126507745Y-93328139D01*
X126753864Y-93254005D01*
X126946965Y-92716777D01*
X126937453Y-92517254D01*
X133416862Y-92517254D01*
X134245001Y-93345394D01*
X135073140Y-92517254D01*
X134999006Y-92271135D01*
X134461778Y-92078034D01*
X133891547Y-92105221D01*
X133490996Y-92271135D01*
X133416862Y-92517254D01*
X126937453Y-92517254D01*
X126919778Y-92146546D01*
X126753864Y-91745995D01*
X126507745Y-91671861D01*
X125679605Y-92500000D01*
X125320395Y-92500000D01*
X124492255Y-91671861D01*
X124246136Y-91745995D01*
X124053035Y-92283223D01*
X122135001Y-92283223D01*
X122135001Y-91492255D01*
X124671861Y-91492255D01*
X125500000Y-92320395D01*
X126328139Y-91492255D01*
X126254005Y-91246136D01*
X125716777Y-91053035D01*
X125146546Y-91080222D01*
X124745995Y-91246136D01*
X124671861Y-91492255D01*
X122135001Y-91492255D01*
X122135001Y-88881746D01*
X122160582Y-88898839D01*
X122593744Y-88985000D01*
X122886256Y-88985000D01*
X123319418Y-88898839D01*
X123810625Y-88570625D01*
X123822816Y-88552381D01*
X123831843Y-88597765D01*
X123972191Y-88807809D01*
X124182235Y-88948157D01*
X124430000Y-88997440D01*
X126130000Y-88997440D01*
X126377765Y-88948157D01*
X126587809Y-88807809D01*
X126728157Y-88597765D01*
X126777440Y-88350000D01*
X126777440Y-86650000D01*
X126728157Y-86402235D01*
X126587809Y-86192191D01*
X126377765Y-86051843D01*
X126130000Y-86002560D01*
X124430000Y-86002560D01*
X124182235Y-86051843D01*
X123972191Y-86192191D01*
X123831843Y-86402235D01*
X123822816Y-86447619D01*
X123810625Y-86429375D01*
X123319418Y-86101161D01*
X122886256Y-86015000D01*
X122593744Y-86015000D01*
X122160582Y-86101161D01*
X121833509Y-86319704D01*
X121354331Y-85840528D01*
X121311930Y-85777070D01*
X121060538Y-85609095D01*
X120838853Y-85564999D01*
X120838848Y-85564999D01*
X120764001Y-85550111D01*
X120689154Y-85564999D01*
X111289847Y-85564999D01*
X111215000Y-85550111D01*
X111140153Y-85564999D01*
X111140149Y-85564999D01*
X110918464Y-85609095D01*
X110855903Y-85650897D01*
X110730527Y-85734670D01*
X110730525Y-85734672D01*
X110667072Y-85777070D01*
X110624674Y-85840523D01*
X110406407Y-86058791D01*
X110186256Y-86015000D01*
X109893744Y-86015000D01*
X109460582Y-86101161D01*
X108969375Y-86429375D01*
X108770000Y-86727761D01*
X108570625Y-86429375D01*
X108079418Y-86101161D01*
X107646256Y-86015000D01*
X107353744Y-86015000D01*
X106920582Y-86101161D01*
X106429375Y-86429375D01*
X106101161Y-86920582D01*
X105985908Y-87500000D01*
X106101161Y-88079418D01*
X106429375Y-88570625D01*
X106920582Y-88898839D01*
X107353744Y-88985000D01*
X107646256Y-88985000D01*
X108079418Y-88898839D01*
X108570625Y-88570625D01*
X108770000Y-88272239D01*
X108969375Y-88570625D01*
X109460582Y-88898839D01*
X109893744Y-88985000D01*
X110186256Y-88985000D01*
X110619418Y-88898839D01*
X111110625Y-88570625D01*
X111310000Y-88272239D01*
X111509375Y-88570625D01*
X112000582Y-88898839D01*
X112240001Y-88946462D01*
X112240000Y-105796289D01*
X112122569Y-105913720D01*
X111965000Y-106294126D01*
X111965000Y-106705874D01*
X112122569Y-107086280D01*
X112413720Y-107377431D01*
X112794126Y-107535000D01*
X113205874Y-107535000D01*
X113586280Y-107377431D01*
X113877431Y-107086280D01*
X114035000Y-106705874D01*
X114035000Y-106294126D01*
X113877431Y-105913720D01*
X113760000Y-105796289D01*
X113760000Y-88406934D01*
X113850000Y-88272239D01*
X114049375Y-88570625D01*
X114360000Y-88778178D01*
X114360001Y-105045148D01*
X114345112Y-105120000D01*
X114360001Y-105194852D01*
X114404097Y-105416537D01*
X114572072Y-105667929D01*
X114635528Y-105710329D01*
X115465000Y-106539802D01*
X115465000Y-106705874D01*
X115503691Y-106799283D01*
X115205874Y-106675923D01*
X114794126Y-106675923D01*
X114413720Y-106833492D01*
X114122569Y-107124643D01*
X113965000Y-107505049D01*
X113965000Y-107916797D01*
X114122569Y-108297203D01*
X114413720Y-108588354D01*
X114454388Y-108605199D01*
X111910331Y-108605199D01*
X107640994Y-104335863D01*
X107757809Y-104257809D01*
X107898157Y-104047765D01*
X107906117Y-104007745D01*
X109471861Y-104007745D01*
X109545995Y-104253864D01*
X110083223Y-104446965D01*
X110653454Y-104419778D01*
X111054005Y-104253864D01*
X111128139Y-104007745D01*
X110300000Y-103179605D01*
X109471861Y-104007745D01*
X107906117Y-104007745D01*
X107947440Y-103800000D01*
X107947440Y-102783223D01*
X108853035Y-102783223D01*
X108880222Y-103353454D01*
X109046136Y-103754005D01*
X109292255Y-103828139D01*
X110120395Y-103000000D01*
X110479605Y-103000000D01*
X111307745Y-103828139D01*
X111553864Y-103754005D01*
X111746965Y-103216777D01*
X111719778Y-102646546D01*
X111553864Y-102245995D01*
X111307745Y-102171861D01*
X110479605Y-103000000D01*
X110120395Y-103000000D01*
X109292255Y-102171861D01*
X109046136Y-102245995D01*
X108853035Y-102783223D01*
X107947440Y-102783223D01*
X107947440Y-102200000D01*
X107906118Y-101992255D01*
X109471861Y-101992255D01*
X110300000Y-102820395D01*
X111128139Y-101992255D01*
X111054005Y-101746136D01*
X110516777Y-101553035D01*
X109946546Y-101580222D01*
X109545995Y-101746136D01*
X109471861Y-101992255D01*
X107906118Y-101992255D01*
X107898157Y-101952235D01*
X107757809Y-101742191D01*
X107735001Y-101726951D01*
X107735001Y-95714869D01*
X107857810Y-95632810D01*
X107998158Y-95422766D01*
X108006118Y-95382746D01*
X108271862Y-95382746D01*
X108345996Y-95628865D01*
X108883224Y-95821966D01*
X109453455Y-95794779D01*
X109854006Y-95628865D01*
X109928140Y-95382746D01*
X109100001Y-94554606D01*
X108271862Y-95382746D01*
X108006118Y-95382746D01*
X108044694Y-95188814D01*
X108092256Y-95203140D01*
X108920396Y-94375001D01*
X109279606Y-94375001D01*
X110107746Y-95203140D01*
X110353865Y-95129006D01*
X110546966Y-94591778D01*
X110519779Y-94021547D01*
X110353865Y-93620996D01*
X110107746Y-93546862D01*
X109279606Y-94375001D01*
X108920396Y-94375001D01*
X108092256Y-93546862D01*
X108044694Y-93561188D01*
X108006119Y-93367256D01*
X108271862Y-93367256D01*
X109100001Y-94195396D01*
X109928140Y-93367256D01*
X109854006Y-93121137D01*
X109316778Y-92928036D01*
X108746547Y-92955223D01*
X108345996Y-93121137D01*
X108271862Y-93367256D01*
X108006119Y-93367256D01*
X107998158Y-93327236D01*
X107857810Y-93117192D01*
X107647766Y-92976844D01*
X107400001Y-92927561D01*
X105800001Y-92927561D01*
X105552236Y-92976844D01*
X105342192Y-93117192D01*
X105201844Y-93327236D01*
X105152561Y-93575001D01*
X105152561Y-95175001D01*
X105201844Y-95422766D01*
X105342192Y-95632810D01*
X105465001Y-95714869D01*
X105465002Y-101599304D01*
X105452235Y-101601843D01*
X105242191Y-101742191D01*
X105160132Y-101865000D01*
X104811783Y-101865000D01*
X104700000Y-101842765D01*
X104588217Y-101865000D01*
X104570132Y-101865000D01*
X103647440Y-100942308D01*
X103647440Y-98050000D01*
X103598157Y-97802235D01*
X103457809Y-97592191D01*
X103247765Y-97451843D01*
X103000000Y-97402560D01*
X98600000Y-97402560D01*
X98352235Y-97451843D01*
X98142191Y-97592191D01*
X98001843Y-97802235D01*
X97952560Y-98050000D01*
X97952560Y-101350000D01*
X98001843Y-101597765D01*
X98142191Y-101807809D01*
X98352235Y-101948157D01*
X98600000Y-101997440D01*
X101492309Y-101997440D01*
X102794868Y-103300000D01*
X97489670Y-108605199D01*
X91551582Y-108605199D01*
X91439800Y-108582964D01*
X91328018Y-108605199D01*
X90996946Y-108671053D01*
X90621512Y-108921910D01*
X90558188Y-109016681D01*
X90016280Y-109558589D01*
X90016274Y-109558593D01*
X89769667Y-109805200D01*
X89486753Y-109805200D01*
X88907948Y-110044949D01*
X88464949Y-110487948D01*
X88225200Y-111066753D01*
X88225200Y-111388097D01*
X88152052Y-111314949D01*
X87573247Y-111075200D01*
X86946753Y-111075200D01*
X86367948Y-111314949D01*
X85924949Y-111757948D01*
X85685200Y-112336753D01*
X85685200Y-112963247D01*
X85924949Y-113542052D01*
X86302897Y-113920000D01*
X85924949Y-114297948D01*
X85685200Y-114876753D01*
X85685200Y-115503247D01*
X85924949Y-116082052D01*
X86302897Y-116460000D01*
X85924949Y-116837948D01*
X85685200Y-117416753D01*
X85685200Y-118043247D01*
X85924949Y-118622052D01*
X86302897Y-119000000D01*
X85924949Y-119377948D01*
X85685200Y-119956753D01*
X85685200Y-120583247D01*
X85924949Y-121162052D01*
X86302897Y-121540000D01*
X85924949Y-121917948D01*
X85685200Y-122496753D01*
X85685200Y-123123247D01*
X85924949Y-123702052D01*
X86302897Y-124080000D01*
X85924949Y-124457948D01*
X85685200Y-125036753D01*
X85685200Y-125663247D01*
X85924949Y-126242052D01*
X86367948Y-126685051D01*
X86946753Y-126924800D01*
X87573247Y-126924800D01*
X88152052Y-126685051D01*
X88225200Y-126611903D01*
X88225200Y-126933247D01*
X88464949Y-127512052D01*
X88907948Y-127955051D01*
X89486753Y-128194800D01*
X90113247Y-128194800D01*
X90692052Y-127955051D01*
X91070000Y-127577103D01*
X91447948Y-127955051D01*
X92026753Y-128194800D01*
X92653247Y-128194800D01*
X93232052Y-127955051D01*
X93610000Y-127577103D01*
X93987948Y-127955051D01*
X94566753Y-128194800D01*
X95193247Y-128194800D01*
X95772052Y-127955051D01*
X96150000Y-127577103D01*
X96527948Y-127955051D01*
X97106753Y-128194800D01*
X97733247Y-128194800D01*
X98312052Y-127955051D01*
X98690000Y-127577103D01*
X99067948Y-127955051D01*
X99646753Y-128194800D01*
X100273247Y-128194800D01*
X100852052Y-127955051D01*
X101230000Y-127577103D01*
X101607948Y-127955051D01*
X102186753Y-128194800D01*
X102813247Y-128194800D01*
X103392052Y-127955051D01*
X103770000Y-127577103D01*
X104147948Y-127955051D01*
X104726753Y-128194800D01*
X105353247Y-128194800D01*
X105932052Y-127955051D01*
X106310000Y-127577103D01*
X106687948Y-127955051D01*
X107266753Y-128194800D01*
X107893247Y-128194800D01*
X108472052Y-127955051D01*
X108850000Y-127577103D01*
X109227948Y-127955051D01*
X109806753Y-128194800D01*
X110433247Y-128194800D01*
X111012052Y-127955051D01*
X111390000Y-127577103D01*
X111767948Y-127955051D01*
X112346753Y-128194800D01*
X112973247Y-128194800D01*
X113552052Y-127955051D01*
X113930000Y-127577103D01*
X114307948Y-127955051D01*
X114886753Y-128194800D01*
X115513247Y-128194800D01*
X116092052Y-127955051D01*
X116470000Y-127577103D01*
X116847948Y-127955051D01*
X117426753Y-128194800D01*
X118053247Y-128194800D01*
X118632052Y-127955051D01*
X119075051Y-127512052D01*
X119314800Y-126933247D01*
X119314800Y-126306753D01*
X119075051Y-125727948D01*
X118997103Y-125650000D01*
X123002560Y-125650000D01*
X123002560Y-127350000D01*
X123051843Y-127597765D01*
X123192191Y-127807809D01*
X123402235Y-127948157D01*
X123650000Y-127997440D01*
X125350000Y-127997440D01*
X125597765Y-127948157D01*
X125807809Y-127807809D01*
X125948157Y-127597765D01*
X125957184Y-127552381D01*
X125969375Y-127570625D01*
X126460582Y-127898839D01*
X126893744Y-127985000D01*
X127186256Y-127985000D01*
X127619418Y-127898839D01*
X128110625Y-127570625D01*
X128310000Y-127272239D01*
X128509375Y-127570625D01*
X129000582Y-127898839D01*
X129433744Y-127985000D01*
X129726256Y-127985000D01*
X130159418Y-127898839D01*
X130650625Y-127570625D01*
X130850000Y-127272239D01*
X131049375Y-127570625D01*
X131540582Y-127898839D01*
X131973744Y-127985000D01*
X132266256Y-127985000D01*
X132699418Y-127898839D01*
X133190625Y-127570625D01*
X133518839Y-127079418D01*
X133634092Y-126500000D01*
X133591260Y-126284666D01*
X136357654Y-126284666D01*
X136973250Y-127810145D01*
X137016076Y-127874238D01*
X137542688Y-128277707D01*
X140320395Y-125500000D01*
X137542688Y-122722293D01*
X137016076Y-123125762D01*
X136372693Y-124639730D01*
X136357654Y-126284666D01*
X133591260Y-126284666D01*
X133518839Y-125920582D01*
X133190625Y-125429375D01*
X132699418Y-125101161D01*
X132266256Y-125015000D01*
X131973744Y-125015000D01*
X131540582Y-125101161D01*
X131049375Y-125429375D01*
X130850000Y-125727761D01*
X130650625Y-125429375D01*
X130159418Y-125101161D01*
X129726256Y-125015000D01*
X129433744Y-125015000D01*
X129000582Y-125101161D01*
X128509375Y-125429375D01*
X128310000Y-125727761D01*
X128110625Y-125429375D01*
X127619418Y-125101161D01*
X127186256Y-125015000D01*
X126893744Y-125015000D01*
X126460582Y-125101161D01*
X125969375Y-125429375D01*
X125957184Y-125447619D01*
X125948157Y-125402235D01*
X125807809Y-125192191D01*
X125597765Y-125051843D01*
X125350000Y-125002560D01*
X123650000Y-125002560D01*
X123402235Y-125051843D01*
X123192191Y-125192191D01*
X123051843Y-125402235D01*
X123002560Y-125650000D01*
X118997103Y-125650000D01*
X118632052Y-125284949D01*
X118053247Y-125045200D01*
X117426753Y-125045200D01*
X116847948Y-125284949D01*
X116470000Y-125662897D01*
X116092052Y-125284949D01*
X115513247Y-125045200D01*
X114886753Y-125045200D01*
X114307948Y-125284949D01*
X113930000Y-125662897D01*
X113552052Y-125284949D01*
X112973247Y-125045200D01*
X112346753Y-125045200D01*
X111767948Y-125284949D01*
X111390000Y-125662897D01*
X111012052Y-125284949D01*
X110433247Y-125045200D01*
X109806753Y-125045200D01*
X109227948Y-125284949D01*
X108850000Y-125662897D01*
X108472052Y-125284949D01*
X107893247Y-125045200D01*
X107689602Y-125045200D01*
X110299804Y-122434999D01*
X137804800Y-122434999D01*
X137722293Y-122542688D01*
X140500000Y-125320395D01*
X143277707Y-122542688D01*
X142874238Y-122016076D01*
X142208909Y-121733334D01*
X142296537Y-121715904D01*
X142547929Y-121547929D01*
X142590331Y-121484470D01*
X143159474Y-120915328D01*
X143222930Y-120872928D01*
X143390905Y-120621536D01*
X143435001Y-120399851D01*
X143435001Y-120399847D01*
X143449889Y-120324999D01*
X143435001Y-120250151D01*
X143435001Y-109814801D01*
X143765001Y-109484802D01*
X143765001Y-122958032D01*
X143457312Y-122722293D01*
X140679605Y-125500000D01*
X140693748Y-125514143D01*
X140514143Y-125693748D01*
X140500000Y-125679605D01*
X137722293Y-128457312D01*
X137958031Y-128765000D01*
X87427612Y-128765000D01*
X87390365Y-128772409D01*
X86974292Y-128723900D01*
X86476788Y-128543315D01*
X86034166Y-128253118D01*
X85670177Y-127868884D01*
X85404342Y-127411216D01*
X85248108Y-126895371D01*
X85224150Y-126626933D01*
X85235000Y-126572388D01*
X85235000Y-103500000D01*
X88052560Y-103500000D01*
X88052560Y-107400000D01*
X88101843Y-107647765D01*
X88242191Y-107857809D01*
X88452235Y-107998157D01*
X88700000Y-108047440D01*
X94900000Y-108047440D01*
X95147765Y-107998157D01*
X95357809Y-107857809D01*
X95498157Y-107647765D01*
X95547440Y-107400000D01*
X95547440Y-103500000D01*
X95498157Y-103252235D01*
X95357809Y-103042191D01*
X95147765Y-102901843D01*
X94900000Y-102852560D01*
X88700000Y-102852560D01*
X88452235Y-102901843D01*
X88242191Y-103042191D01*
X88101843Y-103252235D01*
X88052560Y-103500000D01*
X85235000Y-103500000D01*
X85235000Y-98674778D01*
X86365000Y-98674778D01*
X86365000Y-99325222D01*
X86613914Y-99926153D01*
X87073847Y-100386086D01*
X87674778Y-100635000D01*
X88325222Y-100635000D01*
X88926153Y-100386086D01*
X89386086Y-99926153D01*
X89635000Y-99325222D01*
X89635000Y-98674778D01*
X89386086Y-98073847D01*
X88926153Y-97613914D01*
X88325222Y-97365000D01*
X87674778Y-97365000D01*
X87073847Y-97613914D01*
X86613914Y-98073847D01*
X86365000Y-98674778D01*
X85235000Y-98674778D01*
X85235000Y-92835750D01*
X88065000Y-92835750D01*
X88065000Y-94626309D01*
X88161673Y-94859698D01*
X88340301Y-95038327D01*
X88573690Y-95135000D01*
X91514250Y-95135000D01*
X91673000Y-94976250D01*
X91673000Y-92677000D01*
X91927000Y-92677000D01*
X91927000Y-94976250D01*
X92085750Y-95135000D01*
X95026310Y-95135000D01*
X95259699Y-95038327D01*
X95438327Y-94859698D01*
X95535000Y-94626309D01*
X95535000Y-92835750D01*
X95376250Y-92677000D01*
X91927000Y-92677000D01*
X91673000Y-92677000D01*
X88223750Y-92677000D01*
X88065000Y-92835750D01*
X85235000Y-92835750D01*
X85235000Y-90473691D01*
X88065000Y-90473691D01*
X88065000Y-92264250D01*
X88223750Y-92423000D01*
X91673000Y-92423000D01*
X91673000Y-90123750D01*
X91927000Y-90123750D01*
X91927000Y-92423000D01*
X95376250Y-92423000D01*
X95535000Y-92264250D01*
X95535000Y-90473691D01*
X95438327Y-90240302D01*
X95259699Y-90061673D01*
X95026310Y-89965000D01*
X92085750Y-89965000D01*
X91927000Y-90123750D01*
X91673000Y-90123750D01*
X91514250Y-89965000D01*
X88573690Y-89965000D01*
X88340301Y-90061673D01*
X88161673Y-90240302D01*
X88065000Y-90473691D01*
X85235000Y-90473691D01*
X85235000Y-76457312D01*
X85722293Y-76457312D01*
X86125762Y-76983924D01*
X87639730Y-77627307D01*
X89284666Y-77642346D01*
X90810145Y-77026750D01*
X90874238Y-76983924D01*
X91277707Y-76457312D01*
X88500000Y-73679605D01*
X85722293Y-76457312D01*
X85235000Y-76457312D01*
X85235000Y-76041969D01*
X85542688Y-76277707D01*
X88320395Y-73500000D01*
X88679605Y-73500000D01*
X91457312Y-76277707D01*
X91983924Y-75874238D01*
X92627307Y-74360270D01*
X92642346Y-72715334D01*
X92555450Y-72500000D01*
X105985908Y-72500000D01*
X106101161Y-73079418D01*
X106429375Y-73570625D01*
X106920582Y-73898839D01*
X107353744Y-73985000D01*
X107646256Y-73985000D01*
X108079418Y-73898839D01*
X108570625Y-73570625D01*
X108770000Y-73272239D01*
X108969375Y-73570625D01*
X109460582Y-73898839D01*
X109893744Y-73985000D01*
X110186256Y-73985000D01*
X110619418Y-73898839D01*
X111110625Y-73570625D01*
X111323843Y-73251522D01*
X111384817Y-73381358D01*
X111813076Y-73771645D01*
X112223110Y-73941476D01*
X112453000Y-73820155D01*
X112453000Y-72627000D01*
X112707000Y-72627000D01*
X112707000Y-73820155D01*
X112936890Y-73941476D01*
X113346924Y-73771645D01*
X113775183Y-73381358D01*
X113850000Y-73222046D01*
X113924817Y-73381358D01*
X114353076Y-73771645D01*
X114763110Y-73941476D01*
X114993000Y-73820155D01*
X114993000Y-72627000D01*
X115247000Y-72627000D01*
X115247000Y-73820155D01*
X115476890Y-73941476D01*
X115886924Y-73771645D01*
X116315183Y-73381358D01*
X116390000Y-73222046D01*
X116464817Y-73381358D01*
X116893076Y-73771645D01*
X117303110Y-73941476D01*
X117533000Y-73820155D01*
X117533000Y-72627000D01*
X117787000Y-72627000D01*
X117787000Y-73820155D01*
X118016890Y-73941476D01*
X118426924Y-73771645D01*
X118855183Y-73381358D01*
X118930000Y-73222046D01*
X119004817Y-73381358D01*
X119433076Y-73771645D01*
X119843110Y-73941476D01*
X120073000Y-73820155D01*
X120073000Y-72627000D01*
X117787000Y-72627000D01*
X117533000Y-72627000D01*
X115247000Y-72627000D01*
X114993000Y-72627000D01*
X112707000Y-72627000D01*
X112453000Y-72627000D01*
X112433000Y-72627000D01*
X112433000Y-72373000D01*
X112453000Y-72373000D01*
X112453000Y-71179845D01*
X112707000Y-71179845D01*
X112707000Y-72373000D01*
X114993000Y-72373000D01*
X114993000Y-71179845D01*
X115247000Y-71179845D01*
X115247000Y-72373000D01*
X117533000Y-72373000D01*
X117533000Y-71179845D01*
X117787000Y-71179845D01*
X117787000Y-72373000D01*
X120073000Y-72373000D01*
X120073000Y-71179845D01*
X119843110Y-71058524D01*
X119433076Y-71228355D01*
X119004817Y-71618642D01*
X118930000Y-71777954D01*
X118855183Y-71618642D01*
X118426924Y-71228355D01*
X118016890Y-71058524D01*
X117787000Y-71179845D01*
X117533000Y-71179845D01*
X117303110Y-71058524D01*
X116893076Y-71228355D01*
X116464817Y-71618642D01*
X116390000Y-71777954D01*
X116315183Y-71618642D01*
X115886924Y-71228355D01*
X115476890Y-71058524D01*
X115247000Y-71179845D01*
X114993000Y-71179845D01*
X114763110Y-71058524D01*
X114353076Y-71228355D01*
X113924817Y-71618642D01*
X113850000Y-71777954D01*
X113775183Y-71618642D01*
X113346924Y-71228355D01*
X112936890Y-71058524D01*
X112707000Y-71179845D01*
X112453000Y-71179845D01*
X112223110Y-71058524D01*
X111813076Y-71228355D01*
X111384817Y-71618642D01*
X111323843Y-71748478D01*
X111110625Y-71429375D01*
X110619418Y-71101161D01*
X110186256Y-71015000D01*
X109893744Y-71015000D01*
X109460582Y-71101161D01*
X108969375Y-71429375D01*
X108770000Y-71727761D01*
X108570625Y-71429375D01*
X108079418Y-71101161D01*
X107646256Y-71015000D01*
X107353744Y-71015000D01*
X106920582Y-71101161D01*
X106429375Y-71429375D01*
X106101161Y-71920582D01*
X105985908Y-72500000D01*
X92555450Y-72500000D01*
X92026750Y-71189855D01*
X91983924Y-71125762D01*
X91457312Y-70722293D01*
X88679605Y-73500000D01*
X88320395Y-73500000D01*
X88306253Y-73485858D01*
X88485858Y-73306253D01*
X88500000Y-73320395D01*
X91277707Y-70542688D01*
X91041969Y-70235000D01*
X137958031Y-70235000D01*
X137722293Y-70542688D01*
X137722293Y-70542688D01*
G37*
X137722293Y-70542688D02*
X140500000Y-73320395D01*
X140514143Y-73306253D01*
X140693748Y-73485858D01*
X140679605Y-73500000D01*
X143457312Y-76277707D01*
X143765000Y-76041969D01*
X143765001Y-102690199D01*
X143435001Y-102360200D01*
X143435001Y-82419847D01*
X143449889Y-82345000D01*
X143435001Y-82270153D01*
X143435001Y-82270149D01*
X143390905Y-82048464D01*
X143222930Y-81797072D01*
X143159474Y-81754672D01*
X142742744Y-81337943D01*
X142873158Y-81142766D01*
X142922441Y-80895001D01*
X142922441Y-79895001D01*
X142873158Y-79647236D01*
X142732810Y-79437192D01*
X142522766Y-79296844D01*
X142275001Y-79247561D01*
X140675001Y-79247561D01*
X140427236Y-79296844D01*
X140217192Y-79437192D01*
X140076844Y-79647236D01*
X140027561Y-79895001D01*
X140027561Y-80895001D01*
X140076844Y-81142766D01*
X140217192Y-81352810D01*
X140427236Y-81493158D01*
X140675001Y-81542441D01*
X140826519Y-81542441D01*
X140927072Y-81692930D01*
X140990531Y-81735332D01*
X141737975Y-82482777D01*
X141602001Y-82618751D01*
X141602001Y-83468001D01*
X141622001Y-83468001D01*
X141622001Y-83722001D01*
X141602001Y-83722001D01*
X141602001Y-84571251D01*
X141760751Y-84730001D01*
X141915002Y-84730001D01*
X141915002Y-85565000D01*
X141285750Y-85565000D01*
X141127000Y-85723750D01*
X141127000Y-86873000D01*
X141147000Y-86873000D01*
X141147000Y-87127000D01*
X141127000Y-87127000D01*
X141127000Y-88276250D01*
X141285750Y-88435000D01*
X141915002Y-88435000D01*
X141915002Y-92015000D01*
X141785750Y-92015000D01*
X141627000Y-92173750D01*
X141627000Y-93373000D01*
X141647000Y-93373000D01*
X141647000Y-93627000D01*
X141627000Y-93627000D01*
X141627000Y-93647000D01*
X141373000Y-93647000D01*
X141373000Y-93627000D01*
X140173750Y-93627000D01*
X140015000Y-93785750D01*
X140015000Y-94476310D01*
X140111673Y-94709699D01*
X140290302Y-94888327D01*
X140451033Y-94954904D01*
X140429375Y-94969375D01*
X140101161Y-95460582D01*
X139985908Y-96040000D01*
X140029462Y-96258960D01*
X139848423Y-96439999D01*
X137683519Y-96439999D01*
X137833652Y-96215310D01*
X137885000Y-95957165D01*
X137885000Y-95957161D01*
X137902337Y-95870001D01*
X137885000Y-95782841D01*
X137885000Y-92523690D01*
X140015000Y-92523690D01*
X140015000Y-93214250D01*
X140173750Y-93373000D01*
X141373000Y-93373000D01*
X141373000Y-92173750D01*
X141214250Y-92015000D01*
X140523691Y-92015000D01*
X140290302Y-92111673D01*
X140111673Y-92290301D01*
X140015000Y-92523690D01*
X137885000Y-92523690D01*
X137885000Y-88447440D01*
X138000000Y-88447440D01*
X138247765Y-88398157D01*
X138457809Y-88257809D01*
X138598157Y-88047765D01*
X138647440Y-87800000D01*
X138647440Y-87285750D01*
X139365000Y-87285750D01*
X139365000Y-87926310D01*
X139461673Y-88159699D01*
X139640302Y-88338327D01*
X139873691Y-88435000D01*
X140714250Y-88435000D01*
X140873000Y-88276250D01*
X140873000Y-87127000D01*
X139523750Y-87127000D01*
X139365000Y-87285750D01*
X138647440Y-87285750D01*
X138647440Y-86200000D01*
X138622316Y-86073690D01*
X139365000Y-86073690D01*
X139365000Y-86714250D01*
X139523750Y-86873000D01*
X140873000Y-86873000D01*
X140873000Y-85723750D01*
X140714250Y-85565000D01*
X139873691Y-85565000D01*
X139640302Y-85661673D01*
X139461673Y-85840301D01*
X139365000Y-86073690D01*
X138622316Y-86073690D01*
X138598157Y-85952235D01*
X138457809Y-85742191D01*
X138308892Y-85642687D01*
X139064156Y-84887423D01*
X139138049Y-84838049D01*
X139333652Y-84545310D01*
X139385000Y-84287165D01*
X139385000Y-84287161D01*
X139402337Y-84200001D01*
X139385000Y-84112841D01*
X139385000Y-83880751D01*
X140040001Y-83880751D01*
X140040001Y-84221311D01*
X140136674Y-84454700D01*
X140315303Y-84633328D01*
X140548692Y-84730001D01*
X141189251Y-84730001D01*
X141348001Y-84571251D01*
X141348001Y-83722001D01*
X140198751Y-83722001D01*
X140040001Y-83880751D01*
X139385000Y-83880751D01*
X139385000Y-83507159D01*
X139402337Y-83419999D01*
X139385000Y-83332840D01*
X139385000Y-83332835D01*
X139333652Y-83074690D01*
X139262826Y-82968691D01*
X140040001Y-82968691D01*
X140040001Y-83309251D01*
X140198751Y-83468001D01*
X141348001Y-83468001D01*
X141348001Y-82618751D01*
X141189251Y-82460001D01*
X140548692Y-82460001D01*
X140315303Y-82556674D01*
X140136674Y-82735302D01*
X140040001Y-82968691D01*
X139262826Y-82968691D01*
X139138049Y-82781951D01*
X139064156Y-82732577D01*
X137703783Y-81372205D01*
X137732810Y-81352810D01*
X137873158Y-81142766D01*
X137922441Y-80895001D01*
X137922441Y-79895001D01*
X137873158Y-79647236D01*
X137732810Y-79437192D01*
X137522766Y-79296844D01*
X137275001Y-79247561D01*
X135675001Y-79247561D01*
X135427236Y-79296844D01*
X135217192Y-79437192D01*
X135076844Y-79647236D01*
X135027561Y-79895001D01*
X135027561Y-80895001D01*
X135076844Y-81142766D01*
X135217192Y-81352810D01*
X135427236Y-81493158D01*
X135598983Y-81527320D01*
X135641349Y-81740310D01*
X135787577Y-81959155D01*
X135787579Y-81959157D01*
X135836953Y-82033050D01*
X135910846Y-82082424D01*
X136275983Y-82447561D01*
X135675001Y-82447561D01*
X135427236Y-82496844D01*
X135217192Y-82637192D01*
X135076844Y-82847236D01*
X135027561Y-83095001D01*
X135027561Y-83975982D01*
X127508891Y-76457312D01*
X137722293Y-76457312D01*
X138125762Y-76983924D01*
X139639730Y-77627307D01*
X141284666Y-77642346D01*
X142810145Y-77026750D01*
X142874238Y-76983924D01*
X143277707Y-76457312D01*
X140500000Y-73679605D01*
X137722293Y-76457312D01*
X127508891Y-76457312D01*
X126165000Y-75113422D01*
X126165000Y-74284666D01*
X136357654Y-74284666D01*
X136973250Y-75810145D01*
X137016076Y-75874238D01*
X137542688Y-76277707D01*
X140320395Y-73500000D01*
X137542688Y-70722293D01*
X137016076Y-71125762D01*
X136372693Y-72639730D01*
X136357654Y-74284666D01*
X126165000Y-74284666D01*
X126165000Y-73990478D01*
X126377765Y-73948157D01*
X126587809Y-73807809D01*
X126728157Y-73597765D01*
X126777440Y-73350000D01*
X126777440Y-71650000D01*
X126728157Y-71402235D01*
X126587809Y-71192191D01*
X126377765Y-71051843D01*
X126130000Y-71002560D01*
X124430000Y-71002560D01*
X124182235Y-71051843D01*
X123972191Y-71192191D01*
X123831843Y-71402235D01*
X123822816Y-71447619D01*
X123810625Y-71429375D01*
X123319418Y-71101161D01*
X122886256Y-71015000D01*
X122593744Y-71015000D01*
X122160582Y-71101161D01*
X121669375Y-71429375D01*
X121456157Y-71748478D01*
X121395183Y-71618642D01*
X120966924Y-71228355D01*
X120556890Y-71058524D01*
X120327000Y-71179845D01*
X120327000Y-72373000D01*
X120347000Y-72373000D01*
X120347000Y-72627000D01*
X120327000Y-72627000D01*
X120327000Y-73820155D01*
X120556890Y-73941476D01*
X120966924Y-73771645D01*
X121395183Y-73381358D01*
X121456157Y-73251522D01*
X121669375Y-73570625D01*
X122160582Y-73898839D01*
X122593744Y-73985000D01*
X122886256Y-73985000D01*
X123319418Y-73898839D01*
X123810625Y-73570625D01*
X123822816Y-73552381D01*
X123831843Y-73597765D01*
X123972191Y-73807809D01*
X124182235Y-73948157D01*
X124395001Y-73990478D01*
X124395001Y-75392835D01*
X124377663Y-75480000D01*
X124446348Y-75825309D01*
X124592576Y-76044154D01*
X124592578Y-76044156D01*
X124641952Y-76118049D01*
X124715845Y-76167423D01*
X135352560Y-86804139D01*
X135352560Y-87800000D01*
X135401843Y-88047765D01*
X135542191Y-88257809D01*
X135752235Y-88398157D01*
X136000000Y-88447440D01*
X136115000Y-88447440D01*
X136115001Y-95503420D01*
X135522205Y-96096217D01*
X135502810Y-96067190D01*
X135380001Y-95985131D01*
X135380001Y-95636782D01*
X135402236Y-95524999D01*
X135314147Y-95082144D01*
X135284869Y-95038327D01*
X135063290Y-94706710D01*
X135027868Y-94683042D01*
X135073140Y-94532744D01*
X134245001Y-93704604D01*
X134230859Y-93718747D01*
X134051254Y-93539142D01*
X134065396Y-93524999D01*
X134424606Y-93524999D01*
X135252746Y-94353138D01*
X135498865Y-94279004D01*
X135691966Y-93741776D01*
X135664779Y-93171545D01*
X135498865Y-92770994D01*
X135252746Y-92696860D01*
X134424606Y-93524999D01*
X134065396Y-93524999D01*
X133237256Y-92696860D01*
X132991137Y-92770994D01*
X132798036Y-93308222D01*
X132824582Y-93865000D01*
X126839868Y-93865000D01*
X126757809Y-93742191D01*
X126547765Y-93601843D01*
X126313813Y-93555307D01*
X126328139Y-93507745D01*
X125500000Y-92679605D01*
X124671861Y-93507745D01*
X124686187Y-93555307D01*
X124452235Y-93601843D01*
X124242191Y-93742191D01*
X124101843Y-93952235D01*
X124052560Y-94200000D01*
X124052560Y-95800000D01*
X124101843Y-96047765D01*
X124242191Y-96257809D01*
X124452235Y-96398157D01*
X124700000Y-96447440D01*
X126300000Y-96447440D01*
X126547765Y-96398157D01*
X126757809Y-96257809D01*
X126839868Y-96135000D01*
X132941882Y-96135000D01*
X132846844Y-96277234D01*
X132797561Y-96524999D01*
X132797561Y-98124999D01*
X132846844Y-98372764D01*
X132987192Y-98582808D01*
X133197236Y-98723156D01*
X133445001Y-98772439D01*
X135045001Y-98772439D01*
X135292766Y-98723156D01*
X135502810Y-98582808D01*
X135643158Y-98372764D01*
X135675534Y-98209999D01*
X140059506Y-98209999D01*
X139985908Y-98580000D01*
X140101161Y-99159418D01*
X140429375Y-99650625D01*
X140727761Y-99850000D01*
X140429375Y-100049375D01*
X140101161Y-100540582D01*
X139985908Y-101120000D01*
X140101161Y-101699418D01*
X140429375Y-102190625D01*
X140920582Y-102518839D01*
X141353744Y-102605000D01*
X141646256Y-102605000D01*
X141915001Y-102551543D01*
X141915001Y-102600154D01*
X141900113Y-102675001D01*
X141915001Y-102749848D01*
X141915001Y-102749852D01*
X141959097Y-102971537D01*
X142127072Y-103222930D01*
X142190531Y-103265332D01*
X142740001Y-103814803D01*
X142740000Y-108360199D01*
X142190529Y-108909671D01*
X142127073Y-108952071D01*
X142084673Y-109015527D01*
X142084672Y-109015528D01*
X141959098Y-109203463D01*
X141900113Y-109500000D01*
X141915002Y-109574852D01*
X141915001Y-120010197D01*
X141685199Y-120240000D01*
X140507140Y-120240000D01*
X140814577Y-120034577D01*
X141131740Y-119559909D01*
X141243113Y-119000000D01*
X141131740Y-118440091D01*
X140814577Y-117965423D01*
X140339909Y-117648260D01*
X139957283Y-117572151D01*
X131401812Y-109016681D01*
X131338488Y-108921910D01*
X130963054Y-108671053D01*
X130631982Y-108605199D01*
X130520199Y-108582964D01*
X130408416Y-108605199D01*
X115545612Y-108605199D01*
X115586280Y-108588354D01*
X115703711Y-108470923D01*
X116079374Y-108470923D01*
X116150149Y-108485001D01*
X116150153Y-108485001D01*
X116225000Y-108499889D01*
X116299847Y-108485001D01*
X117773154Y-108485001D01*
X117848001Y-108499889D01*
X117922848Y-108485001D01*
X117922853Y-108485001D01*
X118144538Y-108440905D01*
X118395930Y-108272930D01*
X118438332Y-108209471D01*
X118709471Y-107938332D01*
X118772930Y-107895930D01*
X118836732Y-107800443D01*
X118913720Y-107877431D01*
X119294126Y-108035000D01*
X119705874Y-108035000D01*
X120086280Y-107877431D01*
X120377431Y-107586280D01*
X120535000Y-107205874D01*
X120535000Y-107039801D01*
X120674949Y-106899852D01*
X120965423Y-107334577D01*
X121440091Y-107651740D01*
X121858667Y-107735000D01*
X122141333Y-107735000D01*
X122559909Y-107651740D01*
X123034577Y-107334577D01*
X123270000Y-106982242D01*
X123505423Y-107334577D01*
X123980091Y-107651740D01*
X124398667Y-107735000D01*
X124681333Y-107735000D01*
X125099909Y-107651740D01*
X125574577Y-107334577D01*
X125810000Y-106982242D01*
X126045423Y-107334577D01*
X126520091Y-107651740D01*
X126938667Y-107735000D01*
X127221333Y-107735000D01*
X127639909Y-107651740D01*
X128114577Y-107334577D01*
X128350000Y-106982242D01*
X128585423Y-107334577D01*
X129060091Y-107651740D01*
X129478667Y-107735000D01*
X129761333Y-107735000D01*
X130179909Y-107651740D01*
X130654577Y-107334577D01*
X130890000Y-106982242D01*
X131125423Y-107334577D01*
X131600091Y-107651740D01*
X132018667Y-107735000D01*
X132301333Y-107735000D01*
X132719909Y-107651740D01*
X133194577Y-107334577D01*
X133430000Y-106982242D01*
X133665423Y-107334577D01*
X134140091Y-107651740D01*
X134558667Y-107735000D01*
X134841333Y-107735000D01*
X135259909Y-107651740D01*
X135734577Y-107334577D01*
X135970000Y-106982242D01*
X136205423Y-107334577D01*
X136680091Y-107651740D01*
X137098667Y-107735000D01*
X137381333Y-107735000D01*
X137799909Y-107651740D01*
X138274577Y-107334577D01*
X138510000Y-106982242D01*
X138745423Y-107334577D01*
X139220091Y-107651740D01*
X139638667Y-107735000D01*
X139921333Y-107735000D01*
X140339909Y-107651740D01*
X140814577Y-107334577D01*
X141131740Y-106859909D01*
X141243113Y-106300000D01*
X141131740Y-105740091D01*
X140814577Y-105265423D01*
X140339909Y-104948260D01*
X139921333Y-104865000D01*
X139638667Y-104865000D01*
X139220091Y-104948260D01*
X138745423Y-105265423D01*
X138510000Y-105617758D01*
X138274577Y-105265423D01*
X137799909Y-104948260D01*
X137381333Y-104865000D01*
X137098667Y-104865000D01*
X136680091Y-104948260D01*
X136205423Y-105265423D01*
X135970000Y-105617758D01*
X135734577Y-105265423D01*
X135259909Y-104948260D01*
X134841333Y-104865000D01*
X134558667Y-104865000D01*
X134140091Y-104948260D01*
X133665423Y-105265423D01*
X133430000Y-105617758D01*
X133194577Y-105265423D01*
X132719909Y-104948260D01*
X132301333Y-104865000D01*
X132018667Y-104865000D01*
X131600091Y-104948260D01*
X131125423Y-105265423D01*
X130890000Y-105617758D01*
X130654577Y-105265423D01*
X130179909Y-104948260D01*
X129761333Y-104865000D01*
X129478667Y-104865000D01*
X129060091Y-104948260D01*
X128585423Y-105265423D01*
X128350000Y-105617758D01*
X128114577Y-105265423D01*
X127639909Y-104948260D01*
X127221333Y-104865000D01*
X126938667Y-104865000D01*
X126520091Y-104948260D01*
X126045423Y-105265423D01*
X125810000Y-105617758D01*
X125574577Y-105265423D01*
X125099909Y-104948260D01*
X124681333Y-104865000D01*
X124398667Y-104865000D01*
X123980091Y-104948260D01*
X123505423Y-105265423D01*
X123270000Y-105617758D01*
X123034577Y-105265423D01*
X122559909Y-104948260D01*
X122141333Y-104865000D01*
X122135001Y-104865000D01*
X122135001Y-92283223D01*
X124053035Y-92283223D01*
X124080222Y-92853454D01*
X124246136Y-93254005D01*
X124492255Y-93328139D01*
X125320395Y-92500000D01*
X125679605Y-92500000D01*
X126507745Y-93328139D01*
X126753864Y-93254005D01*
X126946965Y-92716777D01*
X126937453Y-92517254D01*
X133416862Y-92517254D01*
X134245001Y-93345394D01*
X135073140Y-92517254D01*
X134999006Y-92271135D01*
X134461778Y-92078034D01*
X133891547Y-92105221D01*
X133490996Y-92271135D01*
X133416862Y-92517254D01*
X126937453Y-92517254D01*
X126919778Y-92146546D01*
X126753864Y-91745995D01*
X126507745Y-91671861D01*
X125679605Y-92500000D01*
X125320395Y-92500000D01*
X124492255Y-91671861D01*
X124246136Y-91745995D01*
X124053035Y-92283223D01*
X122135001Y-92283223D01*
X122135001Y-91492255D01*
X124671861Y-91492255D01*
X125500000Y-92320395D01*
X126328139Y-91492255D01*
X126254005Y-91246136D01*
X125716777Y-91053035D01*
X125146546Y-91080222D01*
X124745995Y-91246136D01*
X124671861Y-91492255D01*
X122135001Y-91492255D01*
X122135001Y-88881746D01*
X122160582Y-88898839D01*
X122593744Y-88985000D01*
X122886256Y-88985000D01*
X123319418Y-88898839D01*
X123810625Y-88570625D01*
X123822816Y-88552381D01*
X123831843Y-88597765D01*
X123972191Y-88807809D01*
X124182235Y-88948157D01*
X124430000Y-88997440D01*
X126130000Y-88997440D01*
X126377765Y-88948157D01*
X126587809Y-88807809D01*
X126728157Y-88597765D01*
X126777440Y-88350000D01*
X126777440Y-86650000D01*
X126728157Y-86402235D01*
X126587809Y-86192191D01*
X126377765Y-86051843D01*
X126130000Y-86002560D01*
X124430000Y-86002560D01*
X124182235Y-86051843D01*
X123972191Y-86192191D01*
X123831843Y-86402235D01*
X123822816Y-86447619D01*
X123810625Y-86429375D01*
X123319418Y-86101161D01*
X122886256Y-86015000D01*
X122593744Y-86015000D01*
X122160582Y-86101161D01*
X121833509Y-86319704D01*
X121354331Y-85840528D01*
X121311930Y-85777070D01*
X121060538Y-85609095D01*
X120838853Y-85564999D01*
X120838848Y-85564999D01*
X120764001Y-85550111D01*
X120689154Y-85564999D01*
X111289847Y-85564999D01*
X111215000Y-85550111D01*
X111140153Y-85564999D01*
X111140149Y-85564999D01*
X110918464Y-85609095D01*
X110855903Y-85650897D01*
X110730527Y-85734670D01*
X110730525Y-85734672D01*
X110667072Y-85777070D01*
X110624674Y-85840523D01*
X110406407Y-86058791D01*
X110186256Y-86015000D01*
X109893744Y-86015000D01*
X109460582Y-86101161D01*
X108969375Y-86429375D01*
X108770000Y-86727761D01*
X108570625Y-86429375D01*
X108079418Y-86101161D01*
X107646256Y-86015000D01*
X107353744Y-86015000D01*
X106920582Y-86101161D01*
X106429375Y-86429375D01*
X106101161Y-86920582D01*
X105985908Y-87500000D01*
X106101161Y-88079418D01*
X106429375Y-88570625D01*
X106920582Y-88898839D01*
X107353744Y-88985000D01*
X107646256Y-88985000D01*
X108079418Y-88898839D01*
X108570625Y-88570625D01*
X108770000Y-88272239D01*
X108969375Y-88570625D01*
X109460582Y-88898839D01*
X109893744Y-88985000D01*
X110186256Y-88985000D01*
X110619418Y-88898839D01*
X111110625Y-88570625D01*
X111310000Y-88272239D01*
X111509375Y-88570625D01*
X112000582Y-88898839D01*
X112240001Y-88946462D01*
X112240000Y-105796289D01*
X112122569Y-105913720D01*
X111965000Y-106294126D01*
X111965000Y-106705874D01*
X112122569Y-107086280D01*
X112413720Y-107377431D01*
X112794126Y-107535000D01*
X113205874Y-107535000D01*
X113586280Y-107377431D01*
X113877431Y-107086280D01*
X114035000Y-106705874D01*
X114035000Y-106294126D01*
X113877431Y-105913720D01*
X113760000Y-105796289D01*
X113760000Y-88406934D01*
X113850000Y-88272239D01*
X114049375Y-88570625D01*
X114360000Y-88778178D01*
X114360001Y-105045148D01*
X114345112Y-105120000D01*
X114360001Y-105194852D01*
X114404097Y-105416537D01*
X114572072Y-105667929D01*
X114635528Y-105710329D01*
X115465000Y-106539802D01*
X115465000Y-106705874D01*
X115503691Y-106799283D01*
X115205874Y-106675923D01*
X114794126Y-106675923D01*
X114413720Y-106833492D01*
X114122569Y-107124643D01*
X113965000Y-107505049D01*
X113965000Y-107916797D01*
X114122569Y-108297203D01*
X114413720Y-108588354D01*
X114454388Y-108605199D01*
X111910331Y-108605199D01*
X107640994Y-104335863D01*
X107757809Y-104257809D01*
X107898157Y-104047765D01*
X107906117Y-104007745D01*
X109471861Y-104007745D01*
X109545995Y-104253864D01*
X110083223Y-104446965D01*
X110653454Y-104419778D01*
X111054005Y-104253864D01*
X111128139Y-104007745D01*
X110300000Y-103179605D01*
X109471861Y-104007745D01*
X107906117Y-104007745D01*
X107947440Y-103800000D01*
X107947440Y-102783223D01*
X108853035Y-102783223D01*
X108880222Y-103353454D01*
X109046136Y-103754005D01*
X109292255Y-103828139D01*
X110120395Y-103000000D01*
X110479605Y-103000000D01*
X111307745Y-103828139D01*
X111553864Y-103754005D01*
X111746965Y-103216777D01*
X111719778Y-102646546D01*
X111553864Y-102245995D01*
X111307745Y-102171861D01*
X110479605Y-103000000D01*
X110120395Y-103000000D01*
X109292255Y-102171861D01*
X109046136Y-102245995D01*
X108853035Y-102783223D01*
X107947440Y-102783223D01*
X107947440Y-102200000D01*
X107906118Y-101992255D01*
X109471861Y-101992255D01*
X110300000Y-102820395D01*
X111128139Y-101992255D01*
X111054005Y-101746136D01*
X110516777Y-101553035D01*
X109946546Y-101580222D01*
X109545995Y-101746136D01*
X109471861Y-101992255D01*
X107906118Y-101992255D01*
X107898157Y-101952235D01*
X107757809Y-101742191D01*
X107735001Y-101726951D01*
X107735001Y-95714869D01*
X107857810Y-95632810D01*
X107998158Y-95422766D01*
X108006118Y-95382746D01*
X108271862Y-95382746D01*
X108345996Y-95628865D01*
X108883224Y-95821966D01*
X109453455Y-95794779D01*
X109854006Y-95628865D01*
X109928140Y-95382746D01*
X109100001Y-94554606D01*
X108271862Y-95382746D01*
X108006118Y-95382746D01*
X108044694Y-95188814D01*
X108092256Y-95203140D01*
X108920396Y-94375001D01*
X109279606Y-94375001D01*
X110107746Y-95203140D01*
X110353865Y-95129006D01*
X110546966Y-94591778D01*
X110519779Y-94021547D01*
X110353865Y-93620996D01*
X110107746Y-93546862D01*
X109279606Y-94375001D01*
X108920396Y-94375001D01*
X108092256Y-93546862D01*
X108044694Y-93561188D01*
X108006119Y-93367256D01*
X108271862Y-93367256D01*
X109100001Y-94195396D01*
X109928140Y-93367256D01*
X109854006Y-93121137D01*
X109316778Y-92928036D01*
X108746547Y-92955223D01*
X108345996Y-93121137D01*
X108271862Y-93367256D01*
X108006119Y-93367256D01*
X107998158Y-93327236D01*
X107857810Y-93117192D01*
X107647766Y-92976844D01*
X107400001Y-92927561D01*
X105800001Y-92927561D01*
X105552236Y-92976844D01*
X105342192Y-93117192D01*
X105201844Y-93327236D01*
X105152561Y-93575001D01*
X105152561Y-95175001D01*
X105201844Y-95422766D01*
X105342192Y-95632810D01*
X105465001Y-95714869D01*
X105465002Y-101599304D01*
X105452235Y-101601843D01*
X105242191Y-101742191D01*
X105160132Y-101865000D01*
X104811783Y-101865000D01*
X104700000Y-101842765D01*
X104588217Y-101865000D01*
X104570132Y-101865000D01*
X103647440Y-100942308D01*
X103647440Y-98050000D01*
X103598157Y-97802235D01*
X103457809Y-97592191D01*
X103247765Y-97451843D01*
X103000000Y-97402560D01*
X98600000Y-97402560D01*
X98352235Y-97451843D01*
X98142191Y-97592191D01*
X98001843Y-97802235D01*
X97952560Y-98050000D01*
X97952560Y-101350000D01*
X98001843Y-101597765D01*
X98142191Y-101807809D01*
X98352235Y-101948157D01*
X98600000Y-101997440D01*
X101492309Y-101997440D01*
X102794868Y-103300000D01*
X97489670Y-108605199D01*
X91551582Y-108605199D01*
X91439800Y-108582964D01*
X91328018Y-108605199D01*
X90996946Y-108671053D01*
X90621512Y-108921910D01*
X90558188Y-109016681D01*
X90016280Y-109558589D01*
X90016274Y-109558593D01*
X89769667Y-109805200D01*
X89486753Y-109805200D01*
X88907948Y-110044949D01*
X88464949Y-110487948D01*
X88225200Y-111066753D01*
X88225200Y-111388097D01*
X88152052Y-111314949D01*
X87573247Y-111075200D01*
X86946753Y-111075200D01*
X86367948Y-111314949D01*
X85924949Y-111757948D01*
X85685200Y-112336753D01*
X85685200Y-112963247D01*
X85924949Y-113542052D01*
X86302897Y-113920000D01*
X85924949Y-114297948D01*
X85685200Y-114876753D01*
X85685200Y-115503247D01*
X85924949Y-116082052D01*
X86302897Y-116460000D01*
X85924949Y-116837948D01*
X85685200Y-117416753D01*
X85685200Y-118043247D01*
X85924949Y-118622052D01*
X86302897Y-119000000D01*
X85924949Y-119377948D01*
X85685200Y-119956753D01*
X85685200Y-120583247D01*
X85924949Y-121162052D01*
X86302897Y-121540000D01*
X85924949Y-121917948D01*
X85685200Y-122496753D01*
X85685200Y-123123247D01*
X85924949Y-123702052D01*
X86302897Y-124080000D01*
X85924949Y-124457948D01*
X85685200Y-125036753D01*
X85685200Y-125663247D01*
X85924949Y-126242052D01*
X86367948Y-126685051D01*
X86946753Y-126924800D01*
X87573247Y-126924800D01*
X88152052Y-126685051D01*
X88225200Y-126611903D01*
X88225200Y-126933247D01*
X88464949Y-127512052D01*
X88907948Y-127955051D01*
X89486753Y-128194800D01*
X90113247Y-128194800D01*
X90692052Y-127955051D01*
X91070000Y-127577103D01*
X91447948Y-127955051D01*
X92026753Y-128194800D01*
X92653247Y-128194800D01*
X93232052Y-127955051D01*
X93610000Y-127577103D01*
X93987948Y-127955051D01*
X94566753Y-128194800D01*
X95193247Y-128194800D01*
X95772052Y-127955051D01*
X96150000Y-127577103D01*
X96527948Y-127955051D01*
X97106753Y-128194800D01*
X97733247Y-128194800D01*
X98312052Y-127955051D01*
X98690000Y-127577103D01*
X99067948Y-127955051D01*
X99646753Y-128194800D01*
X100273247Y-128194800D01*
X100852052Y-127955051D01*
X101230000Y-127577103D01*
X101607948Y-127955051D01*
X102186753Y-128194800D01*
X102813247Y-128194800D01*
X103392052Y-127955051D01*
X103770000Y-127577103D01*
X104147948Y-127955051D01*
X104726753Y-128194800D01*
X105353247Y-128194800D01*
X105932052Y-127955051D01*
X106310000Y-127577103D01*
X106687948Y-127955051D01*
X107266753Y-128194800D01*
X107893247Y-128194800D01*
X108472052Y-127955051D01*
X108850000Y-127577103D01*
X109227948Y-127955051D01*
X109806753Y-128194800D01*
X110433247Y-128194800D01*
X111012052Y-127955051D01*
X111390000Y-127577103D01*
X111767948Y-127955051D01*
X112346753Y-128194800D01*
X112973247Y-128194800D01*
X113552052Y-127955051D01*
X113930000Y-127577103D01*
X114307948Y-127955051D01*
X114886753Y-128194800D01*
X115513247Y-128194800D01*
X116092052Y-127955051D01*
X116470000Y-127577103D01*
X116847948Y-127955051D01*
X117426753Y-128194800D01*
X118053247Y-128194800D01*
X118632052Y-127955051D01*
X119075051Y-127512052D01*
X119314800Y-126933247D01*
X119314800Y-126306753D01*
X119075051Y-125727948D01*
X118997103Y-125650000D01*
X123002560Y-125650000D01*
X123002560Y-127350000D01*
X123051843Y-127597765D01*
X123192191Y-127807809D01*
X123402235Y-127948157D01*
X123650000Y-127997440D01*
X125350000Y-127997440D01*
X125597765Y-127948157D01*
X125807809Y-127807809D01*
X125948157Y-127597765D01*
X125957184Y-127552381D01*
X125969375Y-127570625D01*
X126460582Y-127898839D01*
X126893744Y-127985000D01*
X127186256Y-127985000D01*
X127619418Y-127898839D01*
X128110625Y-127570625D01*
X128310000Y-127272239D01*
X128509375Y-127570625D01*
X129000582Y-127898839D01*
X129433744Y-127985000D01*
X129726256Y-127985000D01*
X130159418Y-127898839D01*
X130650625Y-127570625D01*
X130850000Y-127272239D01*
X131049375Y-127570625D01*
X131540582Y-127898839D01*
X131973744Y-127985000D01*
X132266256Y-127985000D01*
X132699418Y-127898839D01*
X133190625Y-127570625D01*
X133518839Y-127079418D01*
X133634092Y-126500000D01*
X133591260Y-126284666D01*
X136357654Y-126284666D01*
X136973250Y-127810145D01*
X137016076Y-127874238D01*
X137542688Y-128277707D01*
X140320395Y-125500000D01*
X137542688Y-122722293D01*
X137016076Y-123125762D01*
X136372693Y-124639730D01*
X136357654Y-126284666D01*
X133591260Y-126284666D01*
X133518839Y-125920582D01*
X133190625Y-125429375D01*
X132699418Y-125101161D01*
X132266256Y-125015000D01*
X131973744Y-125015000D01*
X131540582Y-125101161D01*
X131049375Y-125429375D01*
X130850000Y-125727761D01*
X130650625Y-125429375D01*
X130159418Y-125101161D01*
X129726256Y-125015000D01*
X129433744Y-125015000D01*
X129000582Y-125101161D01*
X128509375Y-125429375D01*
X128310000Y-125727761D01*
X128110625Y-125429375D01*
X127619418Y-125101161D01*
X127186256Y-125015000D01*
X126893744Y-125015000D01*
X126460582Y-125101161D01*
X125969375Y-125429375D01*
X125957184Y-125447619D01*
X125948157Y-125402235D01*
X125807809Y-125192191D01*
X125597765Y-125051843D01*
X125350000Y-125002560D01*
X123650000Y-125002560D01*
X123402235Y-125051843D01*
X123192191Y-125192191D01*
X123051843Y-125402235D01*
X123002560Y-125650000D01*
X118997103Y-125650000D01*
X118632052Y-125284949D01*
X118053247Y-125045200D01*
X117426753Y-125045200D01*
X116847948Y-125284949D01*
X116470000Y-125662897D01*
X116092052Y-125284949D01*
X115513247Y-125045200D01*
X114886753Y-125045200D01*
X114307948Y-125284949D01*
X113930000Y-125662897D01*
X113552052Y-125284949D01*
X112973247Y-125045200D01*
X112346753Y-125045200D01*
X111767948Y-125284949D01*
X111390000Y-125662897D01*
X111012052Y-125284949D01*
X110433247Y-125045200D01*
X109806753Y-125045200D01*
X109227948Y-125284949D01*
X108850000Y-125662897D01*
X108472052Y-125284949D01*
X107893247Y-125045200D01*
X107689602Y-125045200D01*
X110299804Y-122434999D01*
X137804800Y-122434999D01*
X137722293Y-122542688D01*
X140500000Y-125320395D01*
X143277707Y-122542688D01*
X142874238Y-122016076D01*
X142208909Y-121733334D01*
X142296537Y-121715904D01*
X142547929Y-121547929D01*
X142590331Y-121484470D01*
X143159474Y-120915328D01*
X143222930Y-120872928D01*
X143390905Y-120621536D01*
X143435001Y-120399851D01*
X143435001Y-120399847D01*
X143449889Y-120324999D01*
X143435001Y-120250151D01*
X143435001Y-109814801D01*
X143765001Y-109484802D01*
X143765001Y-122958032D01*
X143457312Y-122722293D01*
X140679605Y-125500000D01*
X140693748Y-125514143D01*
X140514143Y-125693748D01*
X140500000Y-125679605D01*
X137722293Y-128457312D01*
X137958031Y-128765000D01*
X87427612Y-128765000D01*
X87390365Y-128772409D01*
X86974292Y-128723900D01*
X86476788Y-128543315D01*
X86034166Y-128253118D01*
X85670177Y-127868884D01*
X85404342Y-127411216D01*
X85248108Y-126895371D01*
X85224150Y-126626933D01*
X85235000Y-126572388D01*
X85235000Y-103500000D01*
X88052560Y-103500000D01*
X88052560Y-107400000D01*
X88101843Y-107647765D01*
X88242191Y-107857809D01*
X88452235Y-107998157D01*
X88700000Y-108047440D01*
X94900000Y-108047440D01*
X95147765Y-107998157D01*
X95357809Y-107857809D01*
X95498157Y-107647765D01*
X95547440Y-107400000D01*
X95547440Y-103500000D01*
X95498157Y-103252235D01*
X95357809Y-103042191D01*
X95147765Y-102901843D01*
X94900000Y-102852560D01*
X88700000Y-102852560D01*
X88452235Y-102901843D01*
X88242191Y-103042191D01*
X88101843Y-103252235D01*
X88052560Y-103500000D01*
X85235000Y-103500000D01*
X85235000Y-98674778D01*
X86365000Y-98674778D01*
X86365000Y-99325222D01*
X86613914Y-99926153D01*
X87073847Y-100386086D01*
X87674778Y-100635000D01*
X88325222Y-100635000D01*
X88926153Y-100386086D01*
X89386086Y-99926153D01*
X89635000Y-99325222D01*
X89635000Y-98674778D01*
X89386086Y-98073847D01*
X88926153Y-97613914D01*
X88325222Y-97365000D01*
X87674778Y-97365000D01*
X87073847Y-97613914D01*
X86613914Y-98073847D01*
X86365000Y-98674778D01*
X85235000Y-98674778D01*
X85235000Y-92835750D01*
X88065000Y-92835750D01*
X88065000Y-94626309D01*
X88161673Y-94859698D01*
X88340301Y-95038327D01*
X88573690Y-95135000D01*
X91514250Y-95135000D01*
X91673000Y-94976250D01*
X91673000Y-92677000D01*
X91927000Y-92677000D01*
X91927000Y-94976250D01*
X92085750Y-95135000D01*
X95026310Y-95135000D01*
X95259699Y-95038327D01*
X95438327Y-94859698D01*
X95535000Y-94626309D01*
X95535000Y-92835750D01*
X95376250Y-92677000D01*
X91927000Y-92677000D01*
X91673000Y-92677000D01*
X88223750Y-92677000D01*
X88065000Y-92835750D01*
X85235000Y-92835750D01*
X85235000Y-90473691D01*
X88065000Y-90473691D01*
X88065000Y-92264250D01*
X88223750Y-92423000D01*
X91673000Y-92423000D01*
X91673000Y-90123750D01*
X91927000Y-90123750D01*
X91927000Y-92423000D01*
X95376250Y-92423000D01*
X95535000Y-92264250D01*
X95535000Y-90473691D01*
X95438327Y-90240302D01*
X95259699Y-90061673D01*
X95026310Y-89965000D01*
X92085750Y-89965000D01*
X91927000Y-90123750D01*
X91673000Y-90123750D01*
X91514250Y-89965000D01*
X88573690Y-89965000D01*
X88340301Y-90061673D01*
X88161673Y-90240302D01*
X88065000Y-90473691D01*
X85235000Y-90473691D01*
X85235000Y-76457312D01*
X85722293Y-76457312D01*
X86125762Y-76983924D01*
X87639730Y-77627307D01*
X89284666Y-77642346D01*
X90810145Y-77026750D01*
X90874238Y-76983924D01*
X91277707Y-76457312D01*
X88500000Y-73679605D01*
X85722293Y-76457312D01*
X85235000Y-76457312D01*
X85235000Y-76041969D01*
X85542688Y-76277707D01*
X88320395Y-73500000D01*
X88679605Y-73500000D01*
X91457312Y-76277707D01*
X91983924Y-75874238D01*
X92627307Y-74360270D01*
X92642346Y-72715334D01*
X92555450Y-72500000D01*
X105985908Y-72500000D01*
X106101161Y-73079418D01*
X106429375Y-73570625D01*
X106920582Y-73898839D01*
X107353744Y-73985000D01*
X107646256Y-73985000D01*
X108079418Y-73898839D01*
X108570625Y-73570625D01*
X108770000Y-73272239D01*
X108969375Y-73570625D01*
X109460582Y-73898839D01*
X109893744Y-73985000D01*
X110186256Y-73985000D01*
X110619418Y-73898839D01*
X111110625Y-73570625D01*
X111323843Y-73251522D01*
X111384817Y-73381358D01*
X111813076Y-73771645D01*
X112223110Y-73941476D01*
X112453000Y-73820155D01*
X112453000Y-72627000D01*
X112707000Y-72627000D01*
X112707000Y-73820155D01*
X112936890Y-73941476D01*
X113346924Y-73771645D01*
X113775183Y-73381358D01*
X113850000Y-73222046D01*
X113924817Y-73381358D01*
X114353076Y-73771645D01*
X114763110Y-73941476D01*
X114993000Y-73820155D01*
X114993000Y-72627000D01*
X115247000Y-72627000D01*
X115247000Y-73820155D01*
X115476890Y-73941476D01*
X115886924Y-73771645D01*
X116315183Y-73381358D01*
X116390000Y-73222046D01*
X116464817Y-73381358D01*
X116893076Y-73771645D01*
X117303110Y-73941476D01*
X117533000Y-73820155D01*
X117533000Y-72627000D01*
X117787000Y-72627000D01*
X117787000Y-73820155D01*
X118016890Y-73941476D01*
X118426924Y-73771645D01*
X118855183Y-73381358D01*
X118930000Y-73222046D01*
X119004817Y-73381358D01*
X119433076Y-73771645D01*
X119843110Y-73941476D01*
X120073000Y-73820155D01*
X120073000Y-72627000D01*
X117787000Y-72627000D01*
X117533000Y-72627000D01*
X115247000Y-72627000D01*
X114993000Y-72627000D01*
X112707000Y-72627000D01*
X112453000Y-72627000D01*
X112433000Y-72627000D01*
X112433000Y-72373000D01*
X112453000Y-72373000D01*
X112453000Y-71179845D01*
X112707000Y-71179845D01*
X112707000Y-72373000D01*
X114993000Y-72373000D01*
X114993000Y-71179845D01*
X115247000Y-71179845D01*
X115247000Y-72373000D01*
X117533000Y-72373000D01*
X117533000Y-71179845D01*
X117787000Y-71179845D01*
X117787000Y-72373000D01*
X120073000Y-72373000D01*
X120073000Y-71179845D01*
X119843110Y-71058524D01*
X119433076Y-71228355D01*
X119004817Y-71618642D01*
X118930000Y-71777954D01*
X118855183Y-71618642D01*
X118426924Y-71228355D01*
X118016890Y-71058524D01*
X117787000Y-71179845D01*
X117533000Y-71179845D01*
X117303110Y-71058524D01*
X116893076Y-71228355D01*
X116464817Y-71618642D01*
X116390000Y-71777954D01*
X116315183Y-71618642D01*
X115886924Y-71228355D01*
X115476890Y-71058524D01*
X115247000Y-71179845D01*
X114993000Y-71179845D01*
X114763110Y-71058524D01*
X114353076Y-71228355D01*
X113924817Y-71618642D01*
X113850000Y-71777954D01*
X113775183Y-71618642D01*
X113346924Y-71228355D01*
X112936890Y-71058524D01*
X112707000Y-71179845D01*
X112453000Y-71179845D01*
X112223110Y-71058524D01*
X111813076Y-71228355D01*
X111384817Y-71618642D01*
X111323843Y-71748478D01*
X111110625Y-71429375D01*
X110619418Y-71101161D01*
X110186256Y-71015000D01*
X109893744Y-71015000D01*
X109460582Y-71101161D01*
X108969375Y-71429375D01*
X108770000Y-71727761D01*
X108570625Y-71429375D01*
X108079418Y-71101161D01*
X107646256Y-71015000D01*
X107353744Y-71015000D01*
X106920582Y-71101161D01*
X106429375Y-71429375D01*
X106101161Y-71920582D01*
X105985908Y-72500000D01*
X92555450Y-72500000D01*
X92026750Y-71189855D01*
X91983924Y-71125762D01*
X91457312Y-70722293D01*
X88679605Y-73500000D01*
X88320395Y-73500000D01*
X88306253Y-73485858D01*
X88485858Y-73306253D01*
X88500000Y-73320395D01*
X91277707Y-70542688D01*
X91041969Y-70235000D01*
X137958031Y-70235000D01*
X137722293Y-70542688D01*
G36*
X88907948Y-112715051D02*
X89486753Y-112954800D01*
X90113247Y-112954800D01*
X90245300Y-112900102D01*
X91390001Y-114044803D01*
X91390000Y-119704549D01*
X91152235Y-119751843D01*
X90942191Y-119892191D01*
X90801843Y-120102235D01*
X90752560Y-120350000D01*
X90752560Y-121650000D01*
X90801843Y-121897765D01*
X90942191Y-122107809D01*
X91152235Y-122248157D01*
X91400000Y-122297440D01*
X92900000Y-122297440D01*
X93147765Y-122248157D01*
X93357809Y-122107809D01*
X93498157Y-121897765D01*
X93500000Y-121888500D01*
X93501843Y-121897765D01*
X93642191Y-122107809D01*
X93852235Y-122248157D01*
X94100000Y-122297440D01*
X95600000Y-122297440D01*
X95847765Y-122248157D01*
X96057809Y-122107809D01*
X96198157Y-121897765D01*
X96225560Y-121760000D01*
X96274440Y-121760000D01*
X96301843Y-121897765D01*
X96442191Y-122107809D01*
X96652235Y-122248157D01*
X96900000Y-122297440D01*
X98400000Y-122297440D01*
X98647765Y-122248157D01*
X98857809Y-122107809D01*
X98998157Y-121897765D01*
X99003721Y-121869791D01*
X99061673Y-122009699D01*
X99240302Y-122188327D01*
X99473691Y-122285000D01*
X100064250Y-122285000D01*
X100223000Y-122126250D01*
X100223000Y-121127000D01*
X100477000Y-121127000D01*
X100477000Y-122126250D01*
X100635750Y-122285000D01*
X101226309Y-122285000D01*
X101459698Y-122188327D01*
X101638327Y-122009699D01*
X101735000Y-121776310D01*
X101735000Y-121285750D01*
X101576250Y-121127000D01*
X100477000Y-121127000D01*
X100223000Y-121127000D01*
X100203000Y-121127000D01*
X100203000Y-120873000D01*
X100223000Y-120873000D01*
X100223000Y-119873750D01*
X100477000Y-119873750D01*
X100477000Y-120873000D01*
X101576250Y-120873000D01*
X101735000Y-120714250D01*
X101735000Y-120223690D01*
X101638327Y-119990301D01*
X101459698Y-119811673D01*
X101226309Y-119715000D01*
X100635750Y-119715000D01*
X100477000Y-119873750D01*
X100223000Y-119873750D01*
X100064250Y-119715000D01*
X99473691Y-119715000D01*
X99240302Y-119811673D01*
X99061673Y-119990301D01*
X99003721Y-120130209D01*
X98998157Y-120102235D01*
X98857809Y-119892191D01*
X98647765Y-119751843D01*
X98400000Y-119702560D01*
X96900000Y-119702560D01*
X96652235Y-119751843D01*
X96442191Y-119892191D01*
X96301843Y-120102235D01*
X96274440Y-120240000D01*
X96225560Y-120240000D01*
X96198157Y-120102235D01*
X96057809Y-119892191D01*
X95847765Y-119751843D01*
X95610000Y-119704549D01*
X95610000Y-116361645D01*
X97092484Y-114879162D01*
X97196199Y-115129552D01*
X97639198Y-115572551D01*
X98218003Y-115812300D01*
X98844497Y-115812300D01*
X98976550Y-115757602D01*
X100809277Y-117590329D01*
X100809280Y-117590331D01*
X102703421Y-119484473D01*
X102745821Y-119547929D01*
X102997213Y-119715904D01*
X103218898Y-119760000D01*
X103218902Y-119760000D01*
X103293749Y-119774888D01*
X103368596Y-119760000D01*
X106425153Y-119760000D01*
X106500000Y-119774888D01*
X106574847Y-119760000D01*
X106574852Y-119760000D01*
X106796537Y-119715904D01*
X107047929Y-119547929D01*
X107090331Y-119484470D01*
X107965000Y-118609801D01*
X107965000Y-118705874D01*
X108122569Y-119086280D01*
X108413720Y-119377431D01*
X108794126Y-119535000D01*
X108960198Y-119535000D01*
X110034674Y-120609477D01*
X110077072Y-120672930D01*
X110140525Y-120715328D01*
X110140527Y-120715330D01*
X110265903Y-120799103D01*
X110328464Y-120840905D01*
X110550149Y-120885001D01*
X110550153Y-120885001D01*
X110625000Y-120899889D01*
X110699847Y-120885001D01*
X123340152Y-120885001D01*
X123414999Y-120899889D01*
X123489846Y-120885001D01*
X123489851Y-120885001D01*
X123711536Y-120840905D01*
X123962928Y-120672930D01*
X124005330Y-120609471D01*
X124216113Y-120398688D01*
X124398667Y-120435000D01*
X124681333Y-120435000D01*
X125099909Y-120351740D01*
X125574577Y-120034577D01*
X125810000Y-119682242D01*
X126045423Y-120034577D01*
X126520091Y-120351740D01*
X126938667Y-120435000D01*
X127221333Y-120435000D01*
X127639909Y-120351740D01*
X128114577Y-120034577D01*
X128350000Y-119682242D01*
X128585423Y-120034577D01*
X129060091Y-120351740D01*
X129478667Y-120435000D01*
X129761333Y-120435000D01*
X130179909Y-120351740D01*
X130654577Y-120034577D01*
X130890000Y-119682242D01*
X131125423Y-120034577D01*
X131600091Y-120351740D01*
X132018667Y-120435000D01*
X132301333Y-120435000D01*
X132719909Y-120351740D01*
X133194577Y-120034577D01*
X133430000Y-119682242D01*
X133665423Y-120034577D01*
X134140091Y-120351740D01*
X134558667Y-120435000D01*
X134841333Y-120435000D01*
X135259909Y-120351740D01*
X135734577Y-120034577D01*
X135990947Y-119650892D01*
X136087611Y-119855134D01*
X136502577Y-120231041D01*
X136890961Y-120391904D01*
X137113000Y-120269915D01*
X137113000Y-119127000D01*
X137093000Y-119127000D01*
X137093000Y-118873000D01*
X137113000Y-118873000D01*
X137113000Y-118853000D01*
X137367000Y-118853000D01*
X137367000Y-118873000D01*
X137387000Y-118873000D01*
X137387000Y-119127000D01*
X137367000Y-119127000D01*
X137367000Y-120269915D01*
X137589039Y-120391904D01*
X137977423Y-120231041D01*
X138392389Y-119855134D01*
X138489053Y-119650892D01*
X138745423Y-120034577D01*
X139133659Y-120293988D01*
X138989478Y-120390328D01*
X138897073Y-120452071D01*
X138854673Y-120515527D01*
X138455202Y-120914999D01*
X110059847Y-120914999D01*
X109985000Y-120900111D01*
X109910153Y-120914999D01*
X109910149Y-120914999D01*
X109688464Y-120959095D01*
X109688462Y-120959096D01*
X109688463Y-120959096D01*
X109500527Y-121084670D01*
X109500525Y-121084672D01*
X109437072Y-121127070D01*
X109394674Y-121190523D01*
X105485300Y-125099898D01*
X105353247Y-125045200D01*
X104726753Y-125045200D01*
X104147948Y-125284949D01*
X103770000Y-125662897D01*
X103392052Y-125284949D01*
X102813247Y-125045200D01*
X102186753Y-125045200D01*
X101607948Y-125284949D01*
X101230000Y-125662897D01*
X100852052Y-125284949D01*
X100273247Y-125045200D01*
X99646753Y-125045200D01*
X99067948Y-125284949D01*
X98690000Y-125662897D01*
X98312052Y-125284949D01*
X97733247Y-125045200D01*
X97106753Y-125045200D01*
X96527948Y-125284949D01*
X96150000Y-125662897D01*
X95772052Y-125284949D01*
X95193247Y-125045200D01*
X94566753Y-125045200D01*
X93987948Y-125284949D01*
X93610000Y-125662897D01*
X93232052Y-125284949D01*
X92653247Y-125045200D01*
X92026753Y-125045200D01*
X91447948Y-125284949D01*
X91070000Y-125662897D01*
X90692052Y-125284949D01*
X90113247Y-125045200D01*
X89486753Y-125045200D01*
X88907948Y-125284949D01*
X88834800Y-125358097D01*
X88834800Y-125036753D01*
X88595051Y-124457948D01*
X88217103Y-124080000D01*
X88595051Y-123702052D01*
X88834800Y-123123247D01*
X88834800Y-122496753D01*
X88595051Y-121917948D01*
X88217103Y-121540000D01*
X88595051Y-121162052D01*
X88834800Y-120583247D01*
X88834800Y-119956753D01*
X88595051Y-119377948D01*
X88217103Y-119000000D01*
X88595051Y-118622052D01*
X88834800Y-118043247D01*
X88834800Y-117416753D01*
X88595051Y-116837948D01*
X88217103Y-116460000D01*
X88595051Y-116082052D01*
X88834800Y-115503247D01*
X88834800Y-114876753D01*
X88595051Y-114297948D01*
X88217103Y-113920000D01*
X88595051Y-113542052D01*
X88834800Y-112963247D01*
X88834800Y-112641903D01*
X88907948Y-112715051D01*
X88907948Y-112715051D01*
G37*
X88907948Y-112715051D02*
X89486753Y-112954800D01*
X90113247Y-112954800D01*
X90245300Y-112900102D01*
X91390001Y-114044803D01*
X91390000Y-119704549D01*
X91152235Y-119751843D01*
X90942191Y-119892191D01*
X90801843Y-120102235D01*
X90752560Y-120350000D01*
X90752560Y-121650000D01*
X90801843Y-121897765D01*
X90942191Y-122107809D01*
X91152235Y-122248157D01*
X91400000Y-122297440D01*
X92900000Y-122297440D01*
X93147765Y-122248157D01*
X93357809Y-122107809D01*
X93498157Y-121897765D01*
X93500000Y-121888500D01*
X93501843Y-121897765D01*
X93642191Y-122107809D01*
X93852235Y-122248157D01*
X94100000Y-122297440D01*
X95600000Y-122297440D01*
X95847765Y-122248157D01*
X96057809Y-122107809D01*
X96198157Y-121897765D01*
X96225560Y-121760000D01*
X96274440Y-121760000D01*
X96301843Y-121897765D01*
X96442191Y-122107809D01*
X96652235Y-122248157D01*
X96900000Y-122297440D01*
X98400000Y-122297440D01*
X98647765Y-122248157D01*
X98857809Y-122107809D01*
X98998157Y-121897765D01*
X99003721Y-121869791D01*
X99061673Y-122009699D01*
X99240302Y-122188327D01*
X99473691Y-122285000D01*
X100064250Y-122285000D01*
X100223000Y-122126250D01*
X100223000Y-121127000D01*
X100477000Y-121127000D01*
X100477000Y-122126250D01*
X100635750Y-122285000D01*
X101226309Y-122285000D01*
X101459698Y-122188327D01*
X101638327Y-122009699D01*
X101735000Y-121776310D01*
X101735000Y-121285750D01*
X101576250Y-121127000D01*
X100477000Y-121127000D01*
X100223000Y-121127000D01*
X100203000Y-121127000D01*
X100203000Y-120873000D01*
X100223000Y-120873000D01*
X100223000Y-119873750D01*
X100477000Y-119873750D01*
X100477000Y-120873000D01*
X101576250Y-120873000D01*
X101735000Y-120714250D01*
X101735000Y-120223690D01*
X101638327Y-119990301D01*
X101459698Y-119811673D01*
X101226309Y-119715000D01*
X100635750Y-119715000D01*
X100477000Y-119873750D01*
X100223000Y-119873750D01*
X100064250Y-119715000D01*
X99473691Y-119715000D01*
X99240302Y-119811673D01*
X99061673Y-119990301D01*
X99003721Y-120130209D01*
X98998157Y-120102235D01*
X98857809Y-119892191D01*
X98647765Y-119751843D01*
X98400000Y-119702560D01*
X96900000Y-119702560D01*
X96652235Y-119751843D01*
X96442191Y-119892191D01*
X96301843Y-120102235D01*
X96274440Y-120240000D01*
X96225560Y-120240000D01*
X96198157Y-120102235D01*
X96057809Y-119892191D01*
X95847765Y-119751843D01*
X95610000Y-119704549D01*
X95610000Y-116361645D01*
X97092484Y-114879162D01*
X97196199Y-115129552D01*
X97639198Y-115572551D01*
X98218003Y-115812300D01*
X98844497Y-115812300D01*
X98976550Y-115757602D01*
X100809277Y-117590329D01*
X100809280Y-117590331D01*
X102703421Y-119484473D01*
X102745821Y-119547929D01*
X102997213Y-119715904D01*
X103218898Y-119760000D01*
X103218902Y-119760000D01*
X103293749Y-119774888D01*
X103368596Y-119760000D01*
X106425153Y-119760000D01*
X106500000Y-119774888D01*
X106574847Y-119760000D01*
X106574852Y-119760000D01*
X106796537Y-119715904D01*
X107047929Y-119547929D01*
X107090331Y-119484470D01*
X107965000Y-118609801D01*
X107965000Y-118705874D01*
X108122569Y-119086280D01*
X108413720Y-119377431D01*
X108794126Y-119535000D01*
X108960198Y-119535000D01*
X110034674Y-120609477D01*
X110077072Y-120672930D01*
X110140525Y-120715328D01*
X110140527Y-120715330D01*
X110265903Y-120799103D01*
X110328464Y-120840905D01*
X110550149Y-120885001D01*
X110550153Y-120885001D01*
X110625000Y-120899889D01*
X110699847Y-120885001D01*
X123340152Y-120885001D01*
X123414999Y-120899889D01*
X123489846Y-120885001D01*
X123489851Y-120885001D01*
X123711536Y-120840905D01*
X123962928Y-120672930D01*
X124005330Y-120609471D01*
X124216113Y-120398688D01*
X124398667Y-120435000D01*
X124681333Y-120435000D01*
X125099909Y-120351740D01*
X125574577Y-120034577D01*
X125810000Y-119682242D01*
X126045423Y-120034577D01*
X126520091Y-120351740D01*
X126938667Y-120435000D01*
X127221333Y-120435000D01*
X127639909Y-120351740D01*
X128114577Y-120034577D01*
X128350000Y-119682242D01*
X128585423Y-120034577D01*
X129060091Y-120351740D01*
X129478667Y-120435000D01*
X129761333Y-120435000D01*
X130179909Y-120351740D01*
X130654577Y-120034577D01*
X130890000Y-119682242D01*
X131125423Y-120034577D01*
X131600091Y-120351740D01*
X132018667Y-120435000D01*
X132301333Y-120435000D01*
X132719909Y-120351740D01*
X133194577Y-120034577D01*
X133430000Y-119682242D01*
X133665423Y-120034577D01*
X134140091Y-120351740D01*
X134558667Y-120435000D01*
X134841333Y-120435000D01*
X135259909Y-120351740D01*
X135734577Y-120034577D01*
X135990947Y-119650892D01*
X136087611Y-119855134D01*
X136502577Y-120231041D01*
X136890961Y-120391904D01*
X137113000Y-120269915D01*
X137113000Y-119127000D01*
X137093000Y-119127000D01*
X137093000Y-118873000D01*
X137113000Y-118873000D01*
X137113000Y-118853000D01*
X137367000Y-118853000D01*
X137367000Y-118873000D01*
X137387000Y-118873000D01*
X137387000Y-119127000D01*
X137367000Y-119127000D01*
X137367000Y-120269915D01*
X137589039Y-120391904D01*
X137977423Y-120231041D01*
X138392389Y-119855134D01*
X138489053Y-119650892D01*
X138745423Y-120034577D01*
X139133659Y-120293988D01*
X138989478Y-120390328D01*
X138897073Y-120452071D01*
X138854673Y-120515527D01*
X138455202Y-120914999D01*
X110059847Y-120914999D01*
X109985000Y-120900111D01*
X109910153Y-120914999D01*
X109910149Y-120914999D01*
X109688464Y-120959095D01*
X109688462Y-120959096D01*
X109688463Y-120959096D01*
X109500527Y-121084670D01*
X109500525Y-121084672D01*
X109437072Y-121127070D01*
X109394674Y-121190523D01*
X105485300Y-125099898D01*
X105353247Y-125045200D01*
X104726753Y-125045200D01*
X104147948Y-125284949D01*
X103770000Y-125662897D01*
X103392052Y-125284949D01*
X102813247Y-125045200D01*
X102186753Y-125045200D01*
X101607948Y-125284949D01*
X101230000Y-125662897D01*
X100852052Y-125284949D01*
X100273247Y-125045200D01*
X99646753Y-125045200D01*
X99067948Y-125284949D01*
X98690000Y-125662897D01*
X98312052Y-125284949D01*
X97733247Y-125045200D01*
X97106753Y-125045200D01*
X96527948Y-125284949D01*
X96150000Y-125662897D01*
X95772052Y-125284949D01*
X95193247Y-125045200D01*
X94566753Y-125045200D01*
X93987948Y-125284949D01*
X93610000Y-125662897D01*
X93232052Y-125284949D01*
X92653247Y-125045200D01*
X92026753Y-125045200D01*
X91447948Y-125284949D01*
X91070000Y-125662897D01*
X90692052Y-125284949D01*
X90113247Y-125045200D01*
X89486753Y-125045200D01*
X88907948Y-125284949D01*
X88834800Y-125358097D01*
X88834800Y-125036753D01*
X88595051Y-124457948D01*
X88217103Y-124080000D01*
X88595051Y-123702052D01*
X88834800Y-123123247D01*
X88834800Y-122496753D01*
X88595051Y-121917948D01*
X88217103Y-121540000D01*
X88595051Y-121162052D01*
X88834800Y-120583247D01*
X88834800Y-119956753D01*
X88595051Y-119377948D01*
X88217103Y-119000000D01*
X88595051Y-118622052D01*
X88834800Y-118043247D01*
X88834800Y-117416753D01*
X88595051Y-116837948D01*
X88217103Y-116460000D01*
X88595051Y-116082052D01*
X88834800Y-115503247D01*
X88834800Y-114876753D01*
X88595051Y-114297948D01*
X88217103Y-113920000D01*
X88595051Y-113542052D01*
X88834800Y-112963247D01*
X88834800Y-112641903D01*
X88907948Y-112715051D01*
G36*
X92533748Y-111365858D02*
X92519605Y-111380000D01*
X93448968Y-112309363D01*
X93547683Y-112274786D01*
X93987948Y-112715051D01*
X94566753Y-112954800D01*
X95193247Y-112954800D01*
X95772052Y-112715051D01*
X96150000Y-112337103D01*
X96527948Y-112715051D01*
X96937393Y-112884649D01*
X94365530Y-115456513D01*
X94302071Y-115498915D01*
X94134096Y-115750308D01*
X94090000Y-115971993D01*
X94090000Y-115971997D01*
X94075112Y-116046844D01*
X94090000Y-116121691D01*
X94090001Y-119704549D01*
X93852235Y-119751843D01*
X93642191Y-119892191D01*
X93501843Y-120102235D01*
X93500000Y-120111500D01*
X93498157Y-120102235D01*
X93357809Y-119892191D01*
X93147765Y-119751843D01*
X92910000Y-119704549D01*
X92910000Y-113804847D01*
X92924888Y-113730000D01*
X92910000Y-113655153D01*
X92910000Y-113655148D01*
X92865904Y-113433463D01*
X92697929Y-113182071D01*
X92634473Y-113139671D01*
X92446601Y-112951799D01*
X92715828Y-112941049D01*
X93178077Y-112749580D01*
X93269363Y-112488968D01*
X92340000Y-111559605D01*
X92325858Y-111573748D01*
X92146253Y-111394143D01*
X92160395Y-111380000D01*
X92146253Y-111365858D01*
X92325858Y-111186253D01*
X92340000Y-111200395D01*
X92354143Y-111186253D01*
X92533748Y-111365858D01*
X92533748Y-111365858D01*
G37*
X92533748Y-111365858D02*
X92519605Y-111380000D01*
X93448968Y-112309363D01*
X93547683Y-112274786D01*
X93987948Y-112715051D01*
X94566753Y-112954800D01*
X95193247Y-112954800D01*
X95772052Y-112715051D01*
X96150000Y-112337103D01*
X96527948Y-112715051D01*
X96937393Y-112884649D01*
X94365530Y-115456513D01*
X94302071Y-115498915D01*
X94134096Y-115750308D01*
X94090000Y-115971993D01*
X94090000Y-115971997D01*
X94075112Y-116046844D01*
X94090000Y-116121691D01*
X94090001Y-119704549D01*
X93852235Y-119751843D01*
X93642191Y-119892191D01*
X93501843Y-120102235D01*
X93500000Y-120111500D01*
X93498157Y-120102235D01*
X93357809Y-119892191D01*
X93147765Y-119751843D01*
X92910000Y-119704549D01*
X92910000Y-113804847D01*
X92924888Y-113730000D01*
X92910000Y-113655153D01*
X92910000Y-113655148D01*
X92865904Y-113433463D01*
X92697929Y-113182071D01*
X92634473Y-113139671D01*
X92446601Y-112951799D01*
X92715828Y-112941049D01*
X93178077Y-112749580D01*
X93269363Y-112488968D01*
X92340000Y-111559605D01*
X92325858Y-111573748D01*
X92146253Y-111394143D01*
X92160395Y-111380000D01*
X92146253Y-111365858D01*
X92325858Y-111186253D01*
X92340000Y-111200395D01*
X92354143Y-111186253D01*
X92533748Y-111365858D01*
G36*
X120661673Y-117840302D02*
X120565000Y-118073691D01*
X120565000Y-118714250D01*
X120723750Y-118873000D01*
X121873000Y-118873000D01*
X121873000Y-118853000D01*
X122127000Y-118853000D01*
X122127000Y-118873000D01*
X122147000Y-118873000D01*
X122147000Y-119127000D01*
X122127000Y-119127000D01*
X122127000Y-119147000D01*
X121873000Y-119147000D01*
X121873000Y-119127000D01*
X120723750Y-119127000D01*
X120565000Y-119285750D01*
X120565000Y-119365001D01*
X110939804Y-119365001D01*
X110035000Y-118460198D01*
X110035000Y-118294126D01*
X109877431Y-117913720D01*
X109723711Y-117760000D01*
X120741975Y-117760000D01*
X120661673Y-117840302D01*
X120661673Y-117840302D01*
G37*
X120661673Y-117840302D02*
X120565000Y-118073691D01*
X120565000Y-118714250D01*
X120723750Y-118873000D01*
X121873000Y-118873000D01*
X121873000Y-118853000D01*
X122127000Y-118853000D01*
X122127000Y-118873000D01*
X122147000Y-118873000D01*
X122147000Y-119127000D01*
X122127000Y-119127000D01*
X122127000Y-119147000D01*
X121873000Y-119147000D01*
X121873000Y-119127000D01*
X120723750Y-119127000D01*
X120565000Y-119285750D01*
X120565000Y-119365001D01*
X110939804Y-119365001D01*
X110035000Y-118460198D01*
X110035000Y-118294126D01*
X109877431Y-117913720D01*
X109723711Y-117760000D01*
X120741975Y-117760000D01*
X120661673Y-117840302D01*
G36*
X136814594Y-117639726D02*
X136502577Y-117768959D01*
X136087611Y-118144866D01*
X135990947Y-118349108D01*
X135734577Y-117965423D01*
X135259909Y-117648260D01*
X134841333Y-117565000D01*
X134558667Y-117565000D01*
X134140091Y-117648260D01*
X133665423Y-117965423D01*
X133430000Y-118317758D01*
X133194577Y-117965423D01*
X132719909Y-117648260D01*
X132301333Y-117565000D01*
X132018667Y-117565000D01*
X131600091Y-117648260D01*
X131125423Y-117965423D01*
X130890000Y-118317758D01*
X130654577Y-117965423D01*
X130179909Y-117648260D01*
X129761333Y-117565000D01*
X129478667Y-117565000D01*
X129060091Y-117648260D01*
X128585423Y-117965423D01*
X128350000Y-118317758D01*
X128114577Y-117965423D01*
X127807140Y-117760000D01*
X128425153Y-117760000D01*
X128500000Y-117774888D01*
X128574847Y-117760000D01*
X128574852Y-117760000D01*
X128796537Y-117715904D01*
X129047929Y-117547929D01*
X129090331Y-117484470D01*
X130539802Y-116035000D01*
X130705874Y-116035000D01*
X131086280Y-115877431D01*
X131377431Y-115586280D01*
X131535000Y-115205874D01*
X131535000Y-114794126D01*
X131377431Y-114413720D01*
X131086280Y-114122569D01*
X130705874Y-113965000D01*
X130294126Y-113965000D01*
X129913720Y-114122569D01*
X129622569Y-114413720D01*
X129465000Y-114794126D01*
X129465000Y-114960198D01*
X128185199Y-116240000D01*
X127184665Y-116240000D01*
X127294236Y-116218205D01*
X127545628Y-116050230D01*
X127588030Y-115986771D01*
X129539802Y-114035000D01*
X129705874Y-114035000D01*
X130086280Y-113877431D01*
X130377431Y-113586280D01*
X130535000Y-113205874D01*
X130535000Y-112794126D01*
X130377431Y-112413720D01*
X130086280Y-112122569D01*
X129705874Y-111965000D01*
X129294126Y-111965000D01*
X128913720Y-112122569D01*
X128622569Y-112413720D01*
X128465000Y-112794126D01*
X128465000Y-112960198D01*
X126682898Y-114742301D01*
X113044206Y-114742301D01*
X113123550Y-114550747D01*
X113123550Y-113924253D01*
X112883801Y-113345448D01*
X112493153Y-112954800D01*
X112973247Y-112954800D01*
X113552052Y-112715051D01*
X113930000Y-112337103D01*
X114307948Y-112715051D01*
X114886753Y-112954800D01*
X115513247Y-112954800D01*
X116092052Y-112715051D01*
X116470000Y-112337103D01*
X116847948Y-112715051D01*
X117426753Y-112954800D01*
X118053247Y-112954800D01*
X118632052Y-112715051D01*
X119075051Y-112272052D01*
X119314800Y-111693247D01*
X119314800Y-111066753D01*
X119235456Y-110875199D01*
X130050068Y-110875199D01*
X136814594Y-117639726D01*
X136814594Y-117639726D01*
G37*
X136814594Y-117639726D02*
X136502577Y-117768959D01*
X136087611Y-118144866D01*
X135990947Y-118349108D01*
X135734577Y-117965423D01*
X135259909Y-117648260D01*
X134841333Y-117565000D01*
X134558667Y-117565000D01*
X134140091Y-117648260D01*
X133665423Y-117965423D01*
X133430000Y-118317758D01*
X133194577Y-117965423D01*
X132719909Y-117648260D01*
X132301333Y-117565000D01*
X132018667Y-117565000D01*
X131600091Y-117648260D01*
X131125423Y-117965423D01*
X130890000Y-118317758D01*
X130654577Y-117965423D01*
X130179909Y-117648260D01*
X129761333Y-117565000D01*
X129478667Y-117565000D01*
X129060091Y-117648260D01*
X128585423Y-117965423D01*
X128350000Y-118317758D01*
X128114577Y-117965423D01*
X127807140Y-117760000D01*
X128425153Y-117760000D01*
X128500000Y-117774888D01*
X128574847Y-117760000D01*
X128574852Y-117760000D01*
X128796537Y-117715904D01*
X129047929Y-117547929D01*
X129090331Y-117484470D01*
X130539802Y-116035000D01*
X130705874Y-116035000D01*
X131086280Y-115877431D01*
X131377431Y-115586280D01*
X131535000Y-115205874D01*
X131535000Y-114794126D01*
X131377431Y-114413720D01*
X131086280Y-114122569D01*
X130705874Y-113965000D01*
X130294126Y-113965000D01*
X129913720Y-114122569D01*
X129622569Y-114413720D01*
X129465000Y-114794126D01*
X129465000Y-114960198D01*
X128185199Y-116240000D01*
X127184665Y-116240000D01*
X127294236Y-116218205D01*
X127545628Y-116050230D01*
X127588030Y-115986771D01*
X129539802Y-114035000D01*
X129705874Y-114035000D01*
X130086280Y-113877431D01*
X130377431Y-113586280D01*
X130535000Y-113205874D01*
X130535000Y-112794126D01*
X130377431Y-112413720D01*
X130086280Y-112122569D01*
X129705874Y-111965000D01*
X129294126Y-111965000D01*
X128913720Y-112122569D01*
X128622569Y-112413720D01*
X128465000Y-112794126D01*
X128465000Y-112960198D01*
X126682898Y-114742301D01*
X113044206Y-114742301D01*
X113123550Y-114550747D01*
X113123550Y-113924253D01*
X112883801Y-113345448D01*
X112493153Y-112954800D01*
X112973247Y-112954800D01*
X113552052Y-112715051D01*
X113930000Y-112337103D01*
X114307948Y-112715051D01*
X114886753Y-112954800D01*
X115513247Y-112954800D01*
X116092052Y-112715051D01*
X116470000Y-112337103D01*
X116847948Y-112715051D01*
X117426753Y-112954800D01*
X118053247Y-112954800D01*
X118632052Y-112715051D01*
X119075051Y-112272052D01*
X119314800Y-111693247D01*
X119314800Y-111066753D01*
X119235456Y-110875199D01*
X130050068Y-110875199D01*
X136814594Y-117639726D01*
G36*
X101745722Y-115986774D02*
X101788122Y-116050230D01*
X101851578Y-116092630D01*
X102039513Y-116218205D01*
X102087656Y-116227781D01*
X102261199Y-116262301D01*
X102261203Y-116262301D01*
X102336051Y-116277189D01*
X102410899Y-116262301D01*
X108313034Y-116262301D01*
X108203463Y-116284096D01*
X107952071Y-116452071D01*
X107909671Y-116515527D01*
X106185199Y-118240000D01*
X103608552Y-118240000D01*
X101884081Y-116515530D01*
X101884079Y-116515527D01*
X101180852Y-115812300D01*
X101384497Y-115812300D01*
X101516550Y-115757602D01*
X101745722Y-115986774D01*
X101745722Y-115986774D01*
G37*
X101745722Y-115986774D02*
X101788122Y-116050230D01*
X101851578Y-116092630D01*
X102039513Y-116218205D01*
X102087656Y-116227781D01*
X102261199Y-116262301D01*
X102261203Y-116262301D01*
X102336051Y-116277189D01*
X102410899Y-116262301D01*
X108313034Y-116262301D01*
X108203463Y-116284096D01*
X107952071Y-116452071D01*
X107909671Y-116515527D01*
X106185199Y-118240000D01*
X103608552Y-118240000D01*
X101884081Y-116515530D01*
X101884079Y-116515527D01*
X101180852Y-115812300D01*
X101384497Y-115812300D01*
X101516550Y-115757602D01*
X101745722Y-115986774D01*
G36*
X107089343Y-114721972D02*
X107102927Y-114742301D01*
X102650853Y-114742301D01*
X102591352Y-114682800D01*
X102646050Y-114550747D01*
X102646050Y-113924253D01*
X102566706Y-113732699D01*
X106100071Y-113732699D01*
X107089343Y-114721972D01*
X107089343Y-114721972D01*
G37*
X107089343Y-114721972D02*
X107102927Y-114742301D01*
X102650853Y-114742301D01*
X102591352Y-114682800D01*
X102646050Y-114550747D01*
X102646050Y-113924253D01*
X102566706Y-113732699D01*
X106100071Y-113732699D01*
X107089343Y-114721972D01*
G36*
X105242191Y-104257809D02*
X105365000Y-104339868D01*
X105365000Y-104688216D01*
X105342765Y-104800000D01*
X105365000Y-104911782D01*
X105430854Y-105242854D01*
X105681711Y-105618289D01*
X105776482Y-105681613D01*
X109900068Y-109805200D01*
X109806753Y-109805200D01*
X109227948Y-110044949D01*
X108850000Y-110422897D01*
X108472052Y-110044949D01*
X107893247Y-109805200D01*
X107266753Y-109805200D01*
X106687948Y-110044949D01*
X106310000Y-110422897D01*
X105932052Y-110044949D01*
X105353247Y-109805200D01*
X104726753Y-109805200D01*
X104147948Y-110044949D01*
X103770000Y-110422897D01*
X103392052Y-110044949D01*
X102813247Y-109805200D01*
X102186753Y-109805200D01*
X101607948Y-110044949D01*
X101230000Y-110422897D01*
X100852052Y-110044949D01*
X100273247Y-109805200D01*
X99646753Y-109805200D01*
X99396112Y-109909019D01*
X105164137Y-104140994D01*
X105242191Y-104257809D01*
X105242191Y-104257809D01*
G37*
X105242191Y-104257809D02*
X105365000Y-104339868D01*
X105365000Y-104688216D01*
X105342765Y-104800000D01*
X105365000Y-104911782D01*
X105430854Y-105242854D01*
X105681711Y-105618289D01*
X105776482Y-105681613D01*
X109900068Y-109805200D01*
X109806753Y-109805200D01*
X109227948Y-110044949D01*
X108850000Y-110422897D01*
X108472052Y-110044949D01*
X107893247Y-109805200D01*
X107266753Y-109805200D01*
X106687948Y-110044949D01*
X106310000Y-110422897D01*
X105932052Y-110044949D01*
X105353247Y-109805200D01*
X104726753Y-109805200D01*
X104147948Y-110044949D01*
X103770000Y-110422897D01*
X103392052Y-110044949D01*
X102813247Y-109805200D01*
X102186753Y-109805200D01*
X101607948Y-110044949D01*
X101230000Y-110422897D01*
X100852052Y-110044949D01*
X100273247Y-109805200D01*
X99646753Y-109805200D01*
X99396112Y-109909019D01*
X105164137Y-104140994D01*
X105242191Y-104257809D01*
G36*
X116589375Y-88570625D02*
X116900286Y-88778369D01*
X116944096Y-88998617D01*
X117112071Y-89250010D01*
X117175530Y-89292412D01*
X117465002Y-89581885D01*
X117465001Y-106125133D01*
X117377431Y-105913720D01*
X117086280Y-105622569D01*
X116705874Y-105465000D01*
X116539802Y-105465000D01*
X115880000Y-104805199D01*
X115880000Y-88778178D01*
X116190625Y-88570625D01*
X116390000Y-88272239D01*
X116589375Y-88570625D01*
X116589375Y-88570625D01*
G37*
X116589375Y-88570625D02*
X116900286Y-88778369D01*
X116944096Y-88998617D01*
X117112071Y-89250010D01*
X117175530Y-89292412D01*
X117465002Y-89581885D01*
X117465001Y-106125133D01*
X117377431Y-105913720D01*
X117086280Y-105622569D01*
X116705874Y-105465000D01*
X116539802Y-105465000D01*
X115880000Y-104805199D01*
X115880000Y-88778178D01*
X116190625Y-88570625D01*
X116390000Y-88272239D01*
X116589375Y-88570625D01*
G36*
X119129375Y-88570625D02*
X119620582Y-88898839D01*
X120053744Y-88985000D01*
X120346256Y-88985000D01*
X120615001Y-88931543D01*
X120615002Y-104810196D01*
X119460199Y-105965000D01*
X119294126Y-105965000D01*
X118985001Y-106093044D01*
X118985001Y-89341928D01*
X118999889Y-89267081D01*
X118985001Y-89192234D01*
X118985001Y-89192230D01*
X118940905Y-88970545D01*
X118772930Y-88719153D01*
X118709474Y-88676753D01*
X118654327Y-88621606D01*
X118730625Y-88570625D01*
X118930000Y-88272239D01*
X119129375Y-88570625D01*
X119129375Y-88570625D01*
G37*
X119129375Y-88570625D02*
X119620582Y-88898839D01*
X120053744Y-88985000D01*
X120346256Y-88985000D01*
X120615001Y-88931543D01*
X120615002Y-104810196D01*
X119460199Y-105965000D01*
X119294126Y-105965000D01*
X118985001Y-106093044D01*
X118985001Y-89341928D01*
X118999889Y-89267081D01*
X118985001Y-89192234D01*
X118985001Y-89192230D01*
X118940905Y-88970545D01*
X118772930Y-88719153D01*
X118709474Y-88676753D01*
X118654327Y-88621606D01*
X118730625Y-88570625D01*
X118930000Y-88272239D01*
X119129375Y-88570625D01*
M02*
