%TF.GenerationSoftware,KiCad,Pcbnew,(5.0.1-3-g963ef8bb5)*%
%TF.CreationDate,2020-02-23T21:28:54+01:00*%
%TF.ProjectId,ethersweep,657468657273776565702E6B69636164,rev?*%
%TF.SameCoordinates,Original*%
%TF.FileFunction,Soldermask,Bot*%
%TF.FilePolarity,Negative*%
%FSLAX46Y46*%
G04 Gerber Fmt 4.6, Leading zero omitted, Abs format (unit mm)*
G04 Created by KiCad (PCBNEW (5.0.1-3-g963ef8bb5)) date 2020 February 23, Sunday 21:28:54*
%MOMM*%
%LPD*%
G01*
G04 APERTURE LIST*
%ADD10C,0.150000*%
%ADD11C,0.200000*%
%ADD12C,0.100000*%
G04 APERTURE END LIST*
D10*
X84500000Y-72500000D02*
G75*
G02X87500000Y-69500000I3000000J0D01*
G01*
X87500000Y-129500000D02*
G75*
G02X84500000Y-126500000I0J3000000D01*
G01*
X144500000Y-126500000D02*
G75*
G02X141500000Y-129500000I-3000000J0D01*
G01*
X141500000Y-69500000D02*
G75*
G02X144500000Y-72500000I0J-3000000D01*
G01*
D11*
X84500000Y-126500000D02*
X84500000Y-72500000D01*
X141500000Y-129500000D02*
X87500000Y-129500000D01*
X144500000Y-72500000D02*
X144500000Y-126500000D01*
X87500000Y-69500000D02*
X141500000Y-69500000D01*
D12*
G36*
X141535786Y-122085462D02*
X141535788Y-122085463D01*
X141535789Y-122085463D01*
X142182029Y-122353144D01*
X142643323Y-122661371D01*
X142763634Y-122741760D01*
X143258240Y-123236366D01*
X143258242Y-123236369D01*
X143646856Y-123817971D01*
X143914537Y-124464211D01*
X143914538Y-124464214D01*
X144051000Y-125150256D01*
X144051000Y-125849744D01*
X143917198Y-126522415D01*
X143914537Y-126535789D01*
X143646856Y-127182029D01*
X143306551Y-127691332D01*
X143258240Y-127763634D01*
X142763634Y-128258240D01*
X142763631Y-128258242D01*
X142182029Y-128646856D01*
X141535789Y-128914537D01*
X141535788Y-128914537D01*
X141535786Y-128914538D01*
X140849744Y-129051000D01*
X140150256Y-129051000D01*
X139464214Y-128914538D01*
X139464212Y-128914537D01*
X139464211Y-128914537D01*
X138817971Y-128646856D01*
X138236369Y-128258242D01*
X138236366Y-128258240D01*
X137741760Y-127763634D01*
X137693449Y-127691332D01*
X137353144Y-127182029D01*
X137085463Y-126535789D01*
X137082803Y-126522415D01*
X136949000Y-125849744D01*
X136949000Y-125150256D01*
X137085462Y-124464214D01*
X137085463Y-124464211D01*
X137353144Y-123817971D01*
X137741758Y-123236369D01*
X137741760Y-123236366D01*
X138236366Y-122741760D01*
X138356677Y-122661371D01*
X138817971Y-122353144D01*
X139464211Y-122085463D01*
X139464212Y-122085463D01*
X139464214Y-122085462D01*
X140150256Y-121949000D01*
X140849744Y-121949000D01*
X141535786Y-122085462D01*
X141535786Y-122085462D01*
G37*
G36*
X118029003Y-125667275D02*
X118029005Y-125667276D01*
X118029006Y-125667276D01*
X118209320Y-125741964D01*
X118369410Y-125848933D01*
X118371601Y-125850397D01*
X118509603Y-125988399D01*
X118509605Y-125988402D01*
X118618036Y-126150680D01*
X118689567Y-126323373D01*
X118692725Y-126330997D01*
X118730800Y-126522413D01*
X118730800Y-126717585D01*
X118692724Y-126909006D01*
X118618036Y-127089320D01*
X118511067Y-127249410D01*
X118509603Y-127251601D01*
X118371601Y-127389603D01*
X118371598Y-127389605D01*
X118209320Y-127498036D01*
X118029006Y-127572724D01*
X118029005Y-127572724D01*
X118029003Y-127572725D01*
X117837587Y-127610800D01*
X117642413Y-127610800D01*
X117450997Y-127572725D01*
X117450995Y-127572724D01*
X117450994Y-127572724D01*
X117270680Y-127498036D01*
X117108402Y-127389605D01*
X117108399Y-127389603D01*
X116970397Y-127251601D01*
X116968933Y-127249410D01*
X116861964Y-127089320D01*
X116787276Y-126909006D01*
X116749200Y-126717585D01*
X116749200Y-126522413D01*
X116787275Y-126330997D01*
X116790433Y-126323373D01*
X116861964Y-126150680D01*
X116970395Y-125988402D01*
X116970397Y-125988399D01*
X117108399Y-125850397D01*
X117110590Y-125848933D01*
X117270680Y-125741964D01*
X117450994Y-125667276D01*
X117450995Y-125667276D01*
X117450997Y-125667275D01*
X117642413Y-125629200D01*
X117837587Y-125629200D01*
X118029003Y-125667275D01*
X118029003Y-125667275D01*
G37*
G36*
X115489003Y-125667275D02*
X115489005Y-125667276D01*
X115489006Y-125667276D01*
X115669320Y-125741964D01*
X115829410Y-125848933D01*
X115831601Y-125850397D01*
X115969603Y-125988399D01*
X115969605Y-125988402D01*
X116078036Y-126150680D01*
X116149567Y-126323373D01*
X116152725Y-126330997D01*
X116190800Y-126522413D01*
X116190800Y-126717585D01*
X116152724Y-126909006D01*
X116078036Y-127089320D01*
X115971067Y-127249410D01*
X115969603Y-127251601D01*
X115831601Y-127389603D01*
X115831598Y-127389605D01*
X115669320Y-127498036D01*
X115489006Y-127572724D01*
X115489005Y-127572724D01*
X115489003Y-127572725D01*
X115297587Y-127610800D01*
X115102413Y-127610800D01*
X114910997Y-127572725D01*
X114910995Y-127572724D01*
X114910994Y-127572724D01*
X114730680Y-127498036D01*
X114568402Y-127389605D01*
X114568399Y-127389603D01*
X114430397Y-127251601D01*
X114428933Y-127249410D01*
X114321964Y-127089320D01*
X114247276Y-126909006D01*
X114209200Y-126717585D01*
X114209200Y-126522413D01*
X114247275Y-126330997D01*
X114250433Y-126323373D01*
X114321964Y-126150680D01*
X114430395Y-125988402D01*
X114430397Y-125988399D01*
X114568399Y-125850397D01*
X114570590Y-125848933D01*
X114730680Y-125741964D01*
X114910994Y-125667276D01*
X114910995Y-125667276D01*
X114910997Y-125667275D01*
X115102413Y-125629200D01*
X115297587Y-125629200D01*
X115489003Y-125667275D01*
X115489003Y-125667275D01*
G37*
G36*
X112949003Y-125667275D02*
X112949005Y-125667276D01*
X112949006Y-125667276D01*
X113129320Y-125741964D01*
X113289410Y-125848933D01*
X113291601Y-125850397D01*
X113429603Y-125988399D01*
X113429605Y-125988402D01*
X113538036Y-126150680D01*
X113609567Y-126323373D01*
X113612725Y-126330997D01*
X113650800Y-126522413D01*
X113650800Y-126717585D01*
X113612724Y-126909006D01*
X113538036Y-127089320D01*
X113431067Y-127249410D01*
X113429603Y-127251601D01*
X113291601Y-127389603D01*
X113291598Y-127389605D01*
X113129320Y-127498036D01*
X112949006Y-127572724D01*
X112949005Y-127572724D01*
X112949003Y-127572725D01*
X112757587Y-127610800D01*
X112562413Y-127610800D01*
X112370997Y-127572725D01*
X112370995Y-127572724D01*
X112370994Y-127572724D01*
X112190680Y-127498036D01*
X112028402Y-127389605D01*
X112028399Y-127389603D01*
X111890397Y-127251601D01*
X111888933Y-127249410D01*
X111781964Y-127089320D01*
X111707276Y-126909006D01*
X111669200Y-126717585D01*
X111669200Y-126522413D01*
X111707275Y-126330997D01*
X111710433Y-126323373D01*
X111781964Y-126150680D01*
X111890395Y-125988402D01*
X111890397Y-125988399D01*
X112028399Y-125850397D01*
X112030590Y-125848933D01*
X112190680Y-125741964D01*
X112370994Y-125667276D01*
X112370995Y-125667276D01*
X112370997Y-125667275D01*
X112562413Y-125629200D01*
X112757587Y-125629200D01*
X112949003Y-125667275D01*
X112949003Y-125667275D01*
G37*
G36*
X110409003Y-125667275D02*
X110409005Y-125667276D01*
X110409006Y-125667276D01*
X110589320Y-125741964D01*
X110749410Y-125848933D01*
X110751601Y-125850397D01*
X110889603Y-125988399D01*
X110889605Y-125988402D01*
X110998036Y-126150680D01*
X111069567Y-126323373D01*
X111072725Y-126330997D01*
X111110800Y-126522413D01*
X111110800Y-126717585D01*
X111072724Y-126909006D01*
X110998036Y-127089320D01*
X110891067Y-127249410D01*
X110889603Y-127251601D01*
X110751601Y-127389603D01*
X110751598Y-127389605D01*
X110589320Y-127498036D01*
X110409006Y-127572724D01*
X110409005Y-127572724D01*
X110409003Y-127572725D01*
X110217587Y-127610800D01*
X110022413Y-127610800D01*
X109830997Y-127572725D01*
X109830995Y-127572724D01*
X109830994Y-127572724D01*
X109650680Y-127498036D01*
X109488402Y-127389605D01*
X109488399Y-127389603D01*
X109350397Y-127251601D01*
X109348933Y-127249410D01*
X109241964Y-127089320D01*
X109167276Y-126909006D01*
X109129200Y-126717585D01*
X109129200Y-126522413D01*
X109167275Y-126330997D01*
X109170433Y-126323373D01*
X109241964Y-126150680D01*
X109350395Y-125988402D01*
X109350397Y-125988399D01*
X109488399Y-125850397D01*
X109490590Y-125848933D01*
X109650680Y-125741964D01*
X109830994Y-125667276D01*
X109830995Y-125667276D01*
X109830997Y-125667275D01*
X110022413Y-125629200D01*
X110217587Y-125629200D01*
X110409003Y-125667275D01*
X110409003Y-125667275D01*
G37*
G36*
X107869003Y-125667275D02*
X107869005Y-125667276D01*
X107869006Y-125667276D01*
X108049320Y-125741964D01*
X108209410Y-125848933D01*
X108211601Y-125850397D01*
X108349603Y-125988399D01*
X108349605Y-125988402D01*
X108458036Y-126150680D01*
X108529567Y-126323373D01*
X108532725Y-126330997D01*
X108570800Y-126522413D01*
X108570800Y-126717585D01*
X108532724Y-126909006D01*
X108458036Y-127089320D01*
X108351067Y-127249410D01*
X108349603Y-127251601D01*
X108211601Y-127389603D01*
X108211598Y-127389605D01*
X108049320Y-127498036D01*
X107869006Y-127572724D01*
X107869005Y-127572724D01*
X107869003Y-127572725D01*
X107677587Y-127610800D01*
X107482413Y-127610800D01*
X107290997Y-127572725D01*
X107290995Y-127572724D01*
X107290994Y-127572724D01*
X107110680Y-127498036D01*
X106948402Y-127389605D01*
X106948399Y-127389603D01*
X106810397Y-127251601D01*
X106808933Y-127249410D01*
X106701964Y-127089320D01*
X106627276Y-126909006D01*
X106589200Y-126717585D01*
X106589200Y-126522413D01*
X106627275Y-126330997D01*
X106630433Y-126323373D01*
X106701964Y-126150680D01*
X106810395Y-125988402D01*
X106810397Y-125988399D01*
X106948399Y-125850397D01*
X106950590Y-125848933D01*
X107110680Y-125741964D01*
X107290994Y-125667276D01*
X107290995Y-125667276D01*
X107290997Y-125667275D01*
X107482413Y-125629200D01*
X107677587Y-125629200D01*
X107869003Y-125667275D01*
X107869003Y-125667275D01*
G37*
G36*
X105329003Y-125667275D02*
X105329005Y-125667276D01*
X105329006Y-125667276D01*
X105509320Y-125741964D01*
X105669410Y-125848933D01*
X105671601Y-125850397D01*
X105809603Y-125988399D01*
X105809605Y-125988402D01*
X105918036Y-126150680D01*
X105989567Y-126323373D01*
X105992725Y-126330997D01*
X106030800Y-126522413D01*
X106030800Y-126717585D01*
X105992724Y-126909006D01*
X105918036Y-127089320D01*
X105811067Y-127249410D01*
X105809603Y-127251601D01*
X105671601Y-127389603D01*
X105671598Y-127389605D01*
X105509320Y-127498036D01*
X105329006Y-127572724D01*
X105329005Y-127572724D01*
X105329003Y-127572725D01*
X105137587Y-127610800D01*
X104942413Y-127610800D01*
X104750997Y-127572725D01*
X104750995Y-127572724D01*
X104750994Y-127572724D01*
X104570680Y-127498036D01*
X104408402Y-127389605D01*
X104408399Y-127389603D01*
X104270397Y-127251601D01*
X104268933Y-127249410D01*
X104161964Y-127089320D01*
X104087276Y-126909006D01*
X104049200Y-126717585D01*
X104049200Y-126522413D01*
X104087275Y-126330997D01*
X104090433Y-126323373D01*
X104161964Y-126150680D01*
X104270395Y-125988402D01*
X104270397Y-125988399D01*
X104408399Y-125850397D01*
X104410590Y-125848933D01*
X104570680Y-125741964D01*
X104750994Y-125667276D01*
X104750995Y-125667276D01*
X104750997Y-125667275D01*
X104942413Y-125629200D01*
X105137587Y-125629200D01*
X105329003Y-125667275D01*
X105329003Y-125667275D01*
G37*
G36*
X102789003Y-125667275D02*
X102789005Y-125667276D01*
X102789006Y-125667276D01*
X102969320Y-125741964D01*
X103129410Y-125848933D01*
X103131601Y-125850397D01*
X103269603Y-125988399D01*
X103269605Y-125988402D01*
X103378036Y-126150680D01*
X103449567Y-126323373D01*
X103452725Y-126330997D01*
X103490800Y-126522413D01*
X103490800Y-126717585D01*
X103452724Y-126909006D01*
X103378036Y-127089320D01*
X103271067Y-127249410D01*
X103269603Y-127251601D01*
X103131601Y-127389603D01*
X103131598Y-127389605D01*
X102969320Y-127498036D01*
X102789006Y-127572724D01*
X102789005Y-127572724D01*
X102789003Y-127572725D01*
X102597587Y-127610800D01*
X102402413Y-127610800D01*
X102210997Y-127572725D01*
X102210995Y-127572724D01*
X102210994Y-127572724D01*
X102030680Y-127498036D01*
X101868402Y-127389605D01*
X101868399Y-127389603D01*
X101730397Y-127251601D01*
X101728933Y-127249410D01*
X101621964Y-127089320D01*
X101547276Y-126909006D01*
X101509200Y-126717585D01*
X101509200Y-126522413D01*
X101547275Y-126330997D01*
X101550433Y-126323373D01*
X101621964Y-126150680D01*
X101730395Y-125988402D01*
X101730397Y-125988399D01*
X101868399Y-125850397D01*
X101870590Y-125848933D01*
X102030680Y-125741964D01*
X102210994Y-125667276D01*
X102210995Y-125667276D01*
X102210997Y-125667275D01*
X102402413Y-125629200D01*
X102597587Y-125629200D01*
X102789003Y-125667275D01*
X102789003Y-125667275D01*
G37*
G36*
X100249003Y-125667275D02*
X100249005Y-125667276D01*
X100249006Y-125667276D01*
X100429320Y-125741964D01*
X100589410Y-125848933D01*
X100591601Y-125850397D01*
X100729603Y-125988399D01*
X100729605Y-125988402D01*
X100838036Y-126150680D01*
X100909567Y-126323373D01*
X100912725Y-126330997D01*
X100950800Y-126522413D01*
X100950800Y-126717585D01*
X100912724Y-126909006D01*
X100838036Y-127089320D01*
X100731067Y-127249410D01*
X100729603Y-127251601D01*
X100591601Y-127389603D01*
X100591598Y-127389605D01*
X100429320Y-127498036D01*
X100249006Y-127572724D01*
X100249005Y-127572724D01*
X100249003Y-127572725D01*
X100057587Y-127610800D01*
X99862413Y-127610800D01*
X99670997Y-127572725D01*
X99670995Y-127572724D01*
X99670994Y-127572724D01*
X99490680Y-127498036D01*
X99328402Y-127389605D01*
X99328399Y-127389603D01*
X99190397Y-127251601D01*
X99188933Y-127249410D01*
X99081964Y-127089320D01*
X99007276Y-126909006D01*
X98969200Y-126717585D01*
X98969200Y-126522413D01*
X99007275Y-126330997D01*
X99010433Y-126323373D01*
X99081964Y-126150680D01*
X99190395Y-125988402D01*
X99190397Y-125988399D01*
X99328399Y-125850397D01*
X99330590Y-125848933D01*
X99490680Y-125741964D01*
X99670994Y-125667276D01*
X99670995Y-125667276D01*
X99670997Y-125667275D01*
X99862413Y-125629200D01*
X100057587Y-125629200D01*
X100249003Y-125667275D01*
X100249003Y-125667275D01*
G37*
G36*
X97709003Y-125667275D02*
X97709005Y-125667276D01*
X97709006Y-125667276D01*
X97889320Y-125741964D01*
X98049410Y-125848933D01*
X98051601Y-125850397D01*
X98189603Y-125988399D01*
X98189605Y-125988402D01*
X98298036Y-126150680D01*
X98369567Y-126323373D01*
X98372725Y-126330997D01*
X98410800Y-126522413D01*
X98410800Y-126717585D01*
X98372724Y-126909006D01*
X98298036Y-127089320D01*
X98191067Y-127249410D01*
X98189603Y-127251601D01*
X98051601Y-127389603D01*
X98051598Y-127389605D01*
X97889320Y-127498036D01*
X97709006Y-127572724D01*
X97709005Y-127572724D01*
X97709003Y-127572725D01*
X97517587Y-127610800D01*
X97322413Y-127610800D01*
X97130997Y-127572725D01*
X97130995Y-127572724D01*
X97130994Y-127572724D01*
X96950680Y-127498036D01*
X96788402Y-127389605D01*
X96788399Y-127389603D01*
X96650397Y-127251601D01*
X96648933Y-127249410D01*
X96541964Y-127089320D01*
X96467276Y-126909006D01*
X96429200Y-126717585D01*
X96429200Y-126522413D01*
X96467275Y-126330997D01*
X96470433Y-126323373D01*
X96541964Y-126150680D01*
X96650395Y-125988402D01*
X96650397Y-125988399D01*
X96788399Y-125850397D01*
X96790590Y-125848933D01*
X96950680Y-125741964D01*
X97130994Y-125667276D01*
X97130995Y-125667276D01*
X97130997Y-125667275D01*
X97322413Y-125629200D01*
X97517587Y-125629200D01*
X97709003Y-125667275D01*
X97709003Y-125667275D01*
G37*
G36*
X95169003Y-125667275D02*
X95169005Y-125667276D01*
X95169006Y-125667276D01*
X95349320Y-125741964D01*
X95509410Y-125848933D01*
X95511601Y-125850397D01*
X95649603Y-125988399D01*
X95649605Y-125988402D01*
X95758036Y-126150680D01*
X95829567Y-126323373D01*
X95832725Y-126330997D01*
X95870800Y-126522413D01*
X95870800Y-126717585D01*
X95832724Y-126909006D01*
X95758036Y-127089320D01*
X95651067Y-127249410D01*
X95649603Y-127251601D01*
X95511601Y-127389603D01*
X95511598Y-127389605D01*
X95349320Y-127498036D01*
X95169006Y-127572724D01*
X95169005Y-127572724D01*
X95169003Y-127572725D01*
X94977587Y-127610800D01*
X94782413Y-127610800D01*
X94590997Y-127572725D01*
X94590995Y-127572724D01*
X94590994Y-127572724D01*
X94410680Y-127498036D01*
X94248402Y-127389605D01*
X94248399Y-127389603D01*
X94110397Y-127251601D01*
X94108933Y-127249410D01*
X94001964Y-127089320D01*
X93927276Y-126909006D01*
X93889200Y-126717585D01*
X93889200Y-126522413D01*
X93927275Y-126330997D01*
X93930433Y-126323373D01*
X94001964Y-126150680D01*
X94110395Y-125988402D01*
X94110397Y-125988399D01*
X94248399Y-125850397D01*
X94250590Y-125848933D01*
X94410680Y-125741964D01*
X94590994Y-125667276D01*
X94590995Y-125667276D01*
X94590997Y-125667275D01*
X94782413Y-125629200D01*
X94977587Y-125629200D01*
X95169003Y-125667275D01*
X95169003Y-125667275D01*
G37*
G36*
X92629003Y-125667275D02*
X92629005Y-125667276D01*
X92629006Y-125667276D01*
X92809320Y-125741964D01*
X92969410Y-125848933D01*
X92971601Y-125850397D01*
X93109603Y-125988399D01*
X93109605Y-125988402D01*
X93218036Y-126150680D01*
X93289567Y-126323373D01*
X93292725Y-126330997D01*
X93330800Y-126522413D01*
X93330800Y-126717585D01*
X93292724Y-126909006D01*
X93218036Y-127089320D01*
X93111067Y-127249410D01*
X93109603Y-127251601D01*
X92971601Y-127389603D01*
X92971598Y-127389605D01*
X92809320Y-127498036D01*
X92629006Y-127572724D01*
X92629005Y-127572724D01*
X92629003Y-127572725D01*
X92437587Y-127610800D01*
X92242413Y-127610800D01*
X92050997Y-127572725D01*
X92050995Y-127572724D01*
X92050994Y-127572724D01*
X91870680Y-127498036D01*
X91708402Y-127389605D01*
X91708399Y-127389603D01*
X91570397Y-127251601D01*
X91568933Y-127249410D01*
X91461964Y-127089320D01*
X91387276Y-126909006D01*
X91349200Y-126717585D01*
X91349200Y-126522413D01*
X91387275Y-126330997D01*
X91390433Y-126323373D01*
X91461964Y-126150680D01*
X91570395Y-125988402D01*
X91570397Y-125988399D01*
X91708399Y-125850397D01*
X91710590Y-125848933D01*
X91870680Y-125741964D01*
X92050994Y-125667276D01*
X92050995Y-125667276D01*
X92050997Y-125667275D01*
X92242413Y-125629200D01*
X92437587Y-125629200D01*
X92629003Y-125667275D01*
X92629003Y-125667275D01*
G37*
G36*
X90089003Y-125667275D02*
X90089005Y-125667276D01*
X90089006Y-125667276D01*
X90269320Y-125741964D01*
X90429410Y-125848933D01*
X90431601Y-125850397D01*
X90569603Y-125988399D01*
X90569605Y-125988402D01*
X90678036Y-126150680D01*
X90749567Y-126323373D01*
X90752725Y-126330997D01*
X90790800Y-126522413D01*
X90790800Y-126717585D01*
X90752724Y-126909006D01*
X90678036Y-127089320D01*
X90571067Y-127249410D01*
X90569603Y-127251601D01*
X90431601Y-127389603D01*
X90431598Y-127389605D01*
X90269320Y-127498036D01*
X90089006Y-127572724D01*
X90089005Y-127572724D01*
X90089003Y-127572725D01*
X89897587Y-127610800D01*
X89702413Y-127610800D01*
X89510997Y-127572725D01*
X89510995Y-127572724D01*
X89510994Y-127572724D01*
X89330680Y-127498036D01*
X89168402Y-127389605D01*
X89168399Y-127389603D01*
X89030397Y-127251601D01*
X89028933Y-127249410D01*
X88921964Y-127089320D01*
X88847276Y-126909006D01*
X88809200Y-126717585D01*
X88809200Y-126522413D01*
X88847275Y-126330997D01*
X88850433Y-126323373D01*
X88921964Y-126150680D01*
X89030395Y-125988402D01*
X89030397Y-125988399D01*
X89168399Y-125850397D01*
X89170590Y-125848933D01*
X89330680Y-125741964D01*
X89510994Y-125667276D01*
X89510995Y-125667276D01*
X89510997Y-125667275D01*
X89702413Y-125629200D01*
X89897587Y-125629200D01*
X90089003Y-125667275D01*
X90089003Y-125667275D01*
G37*
G36*
X125401000Y-127401000D02*
X123599000Y-127401000D01*
X123599000Y-125599000D01*
X125401000Y-125599000D01*
X125401000Y-127401000D01*
X125401000Y-127401000D01*
G37*
G36*
X127150443Y-125605519D02*
X127216627Y-125612037D01*
X127280959Y-125631552D01*
X127386467Y-125663557D01*
X127525087Y-125737652D01*
X127542991Y-125747222D01*
X127578729Y-125776552D01*
X127680186Y-125859814D01*
X127755019Y-125951000D01*
X127792778Y-125997009D01*
X127792779Y-125997011D01*
X127876443Y-126153533D01*
X127876443Y-126153534D01*
X127927963Y-126323373D01*
X127945359Y-126500000D01*
X127927963Y-126676627D01*
X127915538Y-126717587D01*
X127876443Y-126846467D01*
X127835809Y-126922487D01*
X127792778Y-127002991D01*
X127763448Y-127038729D01*
X127680186Y-127140186D01*
X127578729Y-127223448D01*
X127542991Y-127252778D01*
X127542989Y-127252779D01*
X127386467Y-127336443D01*
X127329853Y-127353616D01*
X127216627Y-127387963D01*
X127150443Y-127394481D01*
X127084260Y-127401000D01*
X126995740Y-127401000D01*
X126929557Y-127394481D01*
X126863373Y-127387963D01*
X126750147Y-127353616D01*
X126693533Y-127336443D01*
X126537011Y-127252779D01*
X126537009Y-127252778D01*
X126501271Y-127223448D01*
X126399814Y-127140186D01*
X126316552Y-127038729D01*
X126287222Y-127002991D01*
X126244191Y-126922487D01*
X126203557Y-126846467D01*
X126164462Y-126717587D01*
X126152037Y-126676627D01*
X126134641Y-126500000D01*
X126152037Y-126323373D01*
X126203557Y-126153534D01*
X126203557Y-126153533D01*
X126287221Y-125997011D01*
X126287222Y-125997009D01*
X126324981Y-125951000D01*
X126399814Y-125859814D01*
X126501271Y-125776552D01*
X126537009Y-125747222D01*
X126554913Y-125737652D01*
X126693533Y-125663557D01*
X126799041Y-125631552D01*
X126863373Y-125612037D01*
X126929557Y-125605519D01*
X126995740Y-125599000D01*
X127084260Y-125599000D01*
X127150443Y-125605519D01*
X127150443Y-125605519D01*
G37*
G36*
X129690443Y-125605519D02*
X129756627Y-125612037D01*
X129820959Y-125631552D01*
X129926467Y-125663557D01*
X130065087Y-125737652D01*
X130082991Y-125747222D01*
X130118729Y-125776552D01*
X130220186Y-125859814D01*
X130295019Y-125951000D01*
X130332778Y-125997009D01*
X130332779Y-125997011D01*
X130416443Y-126153533D01*
X130416443Y-126153534D01*
X130467963Y-126323373D01*
X130485359Y-126500000D01*
X130467963Y-126676627D01*
X130455538Y-126717587D01*
X130416443Y-126846467D01*
X130375809Y-126922487D01*
X130332778Y-127002991D01*
X130303448Y-127038729D01*
X130220186Y-127140186D01*
X130118729Y-127223448D01*
X130082991Y-127252778D01*
X130082989Y-127252779D01*
X129926467Y-127336443D01*
X129869853Y-127353616D01*
X129756627Y-127387963D01*
X129690443Y-127394481D01*
X129624260Y-127401000D01*
X129535740Y-127401000D01*
X129469557Y-127394481D01*
X129403373Y-127387963D01*
X129290147Y-127353616D01*
X129233533Y-127336443D01*
X129077011Y-127252779D01*
X129077009Y-127252778D01*
X129041271Y-127223448D01*
X128939814Y-127140186D01*
X128856552Y-127038729D01*
X128827222Y-127002991D01*
X128784191Y-126922487D01*
X128743557Y-126846467D01*
X128704462Y-126717587D01*
X128692037Y-126676627D01*
X128674641Y-126500000D01*
X128692037Y-126323373D01*
X128743557Y-126153534D01*
X128743557Y-126153533D01*
X128827221Y-125997011D01*
X128827222Y-125997009D01*
X128864981Y-125951000D01*
X128939814Y-125859814D01*
X129041271Y-125776552D01*
X129077009Y-125747222D01*
X129094913Y-125737652D01*
X129233533Y-125663557D01*
X129339041Y-125631552D01*
X129403373Y-125612037D01*
X129469557Y-125605519D01*
X129535740Y-125599000D01*
X129624260Y-125599000D01*
X129690443Y-125605519D01*
X129690443Y-125605519D01*
G37*
G36*
X132230443Y-125605519D02*
X132296627Y-125612037D01*
X132360959Y-125631552D01*
X132466467Y-125663557D01*
X132605087Y-125737652D01*
X132622991Y-125747222D01*
X132658729Y-125776552D01*
X132760186Y-125859814D01*
X132835019Y-125951000D01*
X132872778Y-125997009D01*
X132872779Y-125997011D01*
X132956443Y-126153533D01*
X132956443Y-126153534D01*
X133007963Y-126323373D01*
X133025359Y-126500000D01*
X133007963Y-126676627D01*
X132995538Y-126717587D01*
X132956443Y-126846467D01*
X132915809Y-126922487D01*
X132872778Y-127002991D01*
X132843448Y-127038729D01*
X132760186Y-127140186D01*
X132658729Y-127223448D01*
X132622991Y-127252778D01*
X132622989Y-127252779D01*
X132466467Y-127336443D01*
X132409853Y-127353616D01*
X132296627Y-127387963D01*
X132230443Y-127394481D01*
X132164260Y-127401000D01*
X132075740Y-127401000D01*
X132009557Y-127394481D01*
X131943373Y-127387963D01*
X131830147Y-127353616D01*
X131773533Y-127336443D01*
X131617011Y-127252779D01*
X131617009Y-127252778D01*
X131581271Y-127223448D01*
X131479814Y-127140186D01*
X131396552Y-127038729D01*
X131367222Y-127002991D01*
X131324191Y-126922487D01*
X131283557Y-126846467D01*
X131244462Y-126717587D01*
X131232037Y-126676627D01*
X131214641Y-126500000D01*
X131232037Y-126323373D01*
X131283557Y-126153534D01*
X131283557Y-126153533D01*
X131367221Y-125997011D01*
X131367222Y-125997009D01*
X131404981Y-125951000D01*
X131479814Y-125859814D01*
X131581271Y-125776552D01*
X131617009Y-125747222D01*
X131634913Y-125737652D01*
X131773533Y-125663557D01*
X131879041Y-125631552D01*
X131943373Y-125612037D01*
X132009557Y-125605519D01*
X132075740Y-125599000D01*
X132164260Y-125599000D01*
X132230443Y-125605519D01*
X132230443Y-125605519D01*
G37*
G36*
X87549003Y-124397275D02*
X87549005Y-124397276D01*
X87549006Y-124397276D01*
X87729320Y-124471964D01*
X87729321Y-124471965D01*
X87891601Y-124580397D01*
X88029603Y-124718399D01*
X88029605Y-124718402D01*
X88138036Y-124880680D01*
X88207756Y-125049000D01*
X88212725Y-125060997D01*
X88250800Y-125252413D01*
X88250800Y-125447587D01*
X88218089Y-125612037D01*
X88212724Y-125639006D01*
X88138036Y-125819320D01*
X88110978Y-125859815D01*
X88029603Y-125981601D01*
X87891601Y-126119603D01*
X87891598Y-126119605D01*
X87729320Y-126228036D01*
X87549006Y-126302724D01*
X87549005Y-126302724D01*
X87549003Y-126302725D01*
X87357587Y-126340800D01*
X87162413Y-126340800D01*
X86970997Y-126302725D01*
X86970995Y-126302724D01*
X86970994Y-126302724D01*
X86790680Y-126228036D01*
X86628402Y-126119605D01*
X86628399Y-126119603D01*
X86490397Y-125981601D01*
X86409022Y-125859815D01*
X86381964Y-125819320D01*
X86307276Y-125639006D01*
X86301912Y-125612037D01*
X86269200Y-125447587D01*
X86269200Y-125252413D01*
X86307275Y-125060997D01*
X86312244Y-125049000D01*
X86381964Y-124880680D01*
X86490395Y-124718402D01*
X86490397Y-124718399D01*
X86628399Y-124580397D01*
X86790679Y-124471965D01*
X86790680Y-124471964D01*
X86970994Y-124397276D01*
X86970995Y-124397276D01*
X86970997Y-124397275D01*
X87162413Y-124359200D01*
X87357587Y-124359200D01*
X87549003Y-124397275D01*
X87549003Y-124397275D01*
G37*
G36*
X87549003Y-121857275D02*
X87549005Y-121857276D01*
X87549006Y-121857276D01*
X87729320Y-121931964D01*
X87729321Y-121931965D01*
X87891601Y-122040397D01*
X88029603Y-122178399D01*
X88029605Y-122178402D01*
X88138036Y-122340680D01*
X88143199Y-122353145D01*
X88212725Y-122520997D01*
X88250800Y-122712413D01*
X88250800Y-122907587D01*
X88214789Y-123088629D01*
X88212724Y-123099006D01*
X88138036Y-123279320D01*
X88138035Y-123279321D01*
X88029603Y-123441601D01*
X87891601Y-123579603D01*
X87891598Y-123579605D01*
X87729320Y-123688036D01*
X87549006Y-123762724D01*
X87549005Y-123762724D01*
X87549003Y-123762725D01*
X87357587Y-123800800D01*
X87162413Y-123800800D01*
X86970997Y-123762725D01*
X86970995Y-123762724D01*
X86970994Y-123762724D01*
X86790680Y-123688036D01*
X86628402Y-123579605D01*
X86628399Y-123579603D01*
X86490397Y-123441601D01*
X86381965Y-123279321D01*
X86381964Y-123279320D01*
X86307276Y-123099006D01*
X86305212Y-123088629D01*
X86269200Y-122907587D01*
X86269200Y-122712413D01*
X86307275Y-122520997D01*
X86376801Y-122353145D01*
X86381964Y-122340680D01*
X86490395Y-122178402D01*
X86490397Y-122178399D01*
X86628399Y-122040397D01*
X86790679Y-121931965D01*
X86790680Y-121931964D01*
X86970994Y-121857276D01*
X86970995Y-121857276D01*
X86970997Y-121857275D01*
X87162413Y-121819200D01*
X87357587Y-121819200D01*
X87549003Y-121857275D01*
X87549003Y-121857275D01*
G37*
G36*
X87549003Y-119317275D02*
X87549005Y-119317276D01*
X87549006Y-119317276D01*
X87729320Y-119391964D01*
X87889410Y-119498933D01*
X87891601Y-119500397D01*
X88029603Y-119638399D01*
X88029605Y-119638402D01*
X88138036Y-119800680D01*
X88212724Y-119980994D01*
X88250800Y-120172415D01*
X88250800Y-120367585D01*
X88212724Y-120559006D01*
X88138036Y-120739320D01*
X88138035Y-120739321D01*
X88029603Y-120901601D01*
X87891601Y-121039603D01*
X87891598Y-121039605D01*
X87729320Y-121148036D01*
X87549006Y-121222724D01*
X87549005Y-121222724D01*
X87549003Y-121222725D01*
X87357587Y-121260800D01*
X87162413Y-121260800D01*
X86970997Y-121222725D01*
X86970995Y-121222724D01*
X86970994Y-121222724D01*
X86790680Y-121148036D01*
X86628402Y-121039605D01*
X86628399Y-121039603D01*
X86490397Y-120901601D01*
X86381965Y-120739321D01*
X86381964Y-120739320D01*
X86307276Y-120559006D01*
X86269200Y-120367585D01*
X86269200Y-120172415D01*
X86307276Y-119980994D01*
X86381964Y-119800680D01*
X86490395Y-119638402D01*
X86490397Y-119638399D01*
X86628399Y-119500397D01*
X86630590Y-119498933D01*
X86790680Y-119391964D01*
X86970994Y-119317276D01*
X86970995Y-119317276D01*
X86970997Y-119317275D01*
X87162413Y-119279200D01*
X87357587Y-119279200D01*
X87549003Y-119317275D01*
X87549003Y-119317275D01*
G37*
G36*
X139946821Y-118161313D02*
X139946824Y-118161314D01*
X139946825Y-118161314D01*
X140107239Y-118209975D01*
X140107241Y-118209976D01*
X140107244Y-118209977D01*
X140255078Y-118288995D01*
X140384659Y-118395341D01*
X140491005Y-118524922D01*
X140570023Y-118672756D01*
X140570024Y-118672759D01*
X140570025Y-118672761D01*
X140584597Y-118720800D01*
X140618687Y-118833179D01*
X140635117Y-119000000D01*
X140618687Y-119166821D01*
X140618686Y-119166824D01*
X140618686Y-119166825D01*
X140573048Y-119317275D01*
X140570023Y-119327244D01*
X140491005Y-119475078D01*
X140384659Y-119604659D01*
X140255078Y-119711005D01*
X140107244Y-119790023D01*
X140107241Y-119790024D01*
X140107239Y-119790025D01*
X139946825Y-119838686D01*
X139946824Y-119838686D01*
X139946821Y-119838687D01*
X139821804Y-119851000D01*
X139738196Y-119851000D01*
X139613179Y-119838687D01*
X139613176Y-119838686D01*
X139613175Y-119838686D01*
X139452761Y-119790025D01*
X139452759Y-119790024D01*
X139452756Y-119790023D01*
X139304922Y-119711005D01*
X139175341Y-119604659D01*
X139068995Y-119475078D01*
X138989977Y-119327244D01*
X138986953Y-119317275D01*
X138941314Y-119166825D01*
X138941314Y-119166824D01*
X138941313Y-119166821D01*
X138924883Y-119000000D01*
X138941313Y-118833179D01*
X138975403Y-118720800D01*
X138989975Y-118672761D01*
X138989976Y-118672759D01*
X138989977Y-118672756D01*
X139068995Y-118524922D01*
X139175341Y-118395341D01*
X139304922Y-118288995D01*
X139452756Y-118209977D01*
X139452759Y-118209976D01*
X139452761Y-118209975D01*
X139613175Y-118161314D01*
X139613176Y-118161314D01*
X139613179Y-118161313D01*
X139738196Y-118149000D01*
X139821804Y-118149000D01*
X139946821Y-118161313D01*
X139946821Y-118161313D01*
G37*
G36*
X137406821Y-118161313D02*
X137406824Y-118161314D01*
X137406825Y-118161314D01*
X137567239Y-118209975D01*
X137567241Y-118209976D01*
X137567244Y-118209977D01*
X137715078Y-118288995D01*
X137844659Y-118395341D01*
X137951005Y-118524922D01*
X138030023Y-118672756D01*
X138030024Y-118672759D01*
X138030025Y-118672761D01*
X138044597Y-118720800D01*
X138078687Y-118833179D01*
X138095117Y-119000000D01*
X138078687Y-119166821D01*
X138078686Y-119166824D01*
X138078686Y-119166825D01*
X138033048Y-119317275D01*
X138030023Y-119327244D01*
X137951005Y-119475078D01*
X137844659Y-119604659D01*
X137715078Y-119711005D01*
X137567244Y-119790023D01*
X137567241Y-119790024D01*
X137567239Y-119790025D01*
X137406825Y-119838686D01*
X137406824Y-119838686D01*
X137406821Y-119838687D01*
X137281804Y-119851000D01*
X137198196Y-119851000D01*
X137073179Y-119838687D01*
X137073176Y-119838686D01*
X137073175Y-119838686D01*
X136912761Y-119790025D01*
X136912759Y-119790024D01*
X136912756Y-119790023D01*
X136764922Y-119711005D01*
X136635341Y-119604659D01*
X136528995Y-119475078D01*
X136449977Y-119327244D01*
X136446953Y-119317275D01*
X136401314Y-119166825D01*
X136401314Y-119166824D01*
X136401313Y-119166821D01*
X136384883Y-119000000D01*
X136401313Y-118833179D01*
X136435403Y-118720800D01*
X136449975Y-118672761D01*
X136449976Y-118672759D01*
X136449977Y-118672756D01*
X136528995Y-118524922D01*
X136635341Y-118395341D01*
X136764922Y-118288995D01*
X136912756Y-118209977D01*
X136912759Y-118209976D01*
X136912761Y-118209975D01*
X137073175Y-118161314D01*
X137073176Y-118161314D01*
X137073179Y-118161313D01*
X137198196Y-118149000D01*
X137281804Y-118149000D01*
X137406821Y-118161313D01*
X137406821Y-118161313D01*
G37*
G36*
X134866821Y-118161313D02*
X134866824Y-118161314D01*
X134866825Y-118161314D01*
X135027239Y-118209975D01*
X135027241Y-118209976D01*
X135027244Y-118209977D01*
X135175078Y-118288995D01*
X135304659Y-118395341D01*
X135411005Y-118524922D01*
X135490023Y-118672756D01*
X135490024Y-118672759D01*
X135490025Y-118672761D01*
X135504597Y-118720800D01*
X135538687Y-118833179D01*
X135555117Y-119000000D01*
X135538687Y-119166821D01*
X135538686Y-119166824D01*
X135538686Y-119166825D01*
X135493048Y-119317275D01*
X135490023Y-119327244D01*
X135411005Y-119475078D01*
X135304659Y-119604659D01*
X135175078Y-119711005D01*
X135027244Y-119790023D01*
X135027241Y-119790024D01*
X135027239Y-119790025D01*
X134866825Y-119838686D01*
X134866824Y-119838686D01*
X134866821Y-119838687D01*
X134741804Y-119851000D01*
X134658196Y-119851000D01*
X134533179Y-119838687D01*
X134533176Y-119838686D01*
X134533175Y-119838686D01*
X134372761Y-119790025D01*
X134372759Y-119790024D01*
X134372756Y-119790023D01*
X134224922Y-119711005D01*
X134095341Y-119604659D01*
X133988995Y-119475078D01*
X133909977Y-119327244D01*
X133906953Y-119317275D01*
X133861314Y-119166825D01*
X133861314Y-119166824D01*
X133861313Y-119166821D01*
X133844883Y-119000000D01*
X133861313Y-118833179D01*
X133895403Y-118720800D01*
X133909975Y-118672761D01*
X133909976Y-118672759D01*
X133909977Y-118672756D01*
X133988995Y-118524922D01*
X134095341Y-118395341D01*
X134224922Y-118288995D01*
X134372756Y-118209977D01*
X134372759Y-118209976D01*
X134372761Y-118209975D01*
X134533175Y-118161314D01*
X134533176Y-118161314D01*
X134533179Y-118161313D01*
X134658196Y-118149000D01*
X134741804Y-118149000D01*
X134866821Y-118161313D01*
X134866821Y-118161313D01*
G37*
G36*
X132326821Y-118161313D02*
X132326824Y-118161314D01*
X132326825Y-118161314D01*
X132487239Y-118209975D01*
X132487241Y-118209976D01*
X132487244Y-118209977D01*
X132635078Y-118288995D01*
X132764659Y-118395341D01*
X132871005Y-118524922D01*
X132950023Y-118672756D01*
X132950024Y-118672759D01*
X132950025Y-118672761D01*
X132964597Y-118720800D01*
X132998687Y-118833179D01*
X133015117Y-119000000D01*
X132998687Y-119166821D01*
X132998686Y-119166824D01*
X132998686Y-119166825D01*
X132953048Y-119317275D01*
X132950023Y-119327244D01*
X132871005Y-119475078D01*
X132764659Y-119604659D01*
X132635078Y-119711005D01*
X132487244Y-119790023D01*
X132487241Y-119790024D01*
X132487239Y-119790025D01*
X132326825Y-119838686D01*
X132326824Y-119838686D01*
X132326821Y-119838687D01*
X132201804Y-119851000D01*
X132118196Y-119851000D01*
X131993179Y-119838687D01*
X131993176Y-119838686D01*
X131993175Y-119838686D01*
X131832761Y-119790025D01*
X131832759Y-119790024D01*
X131832756Y-119790023D01*
X131684922Y-119711005D01*
X131555341Y-119604659D01*
X131448995Y-119475078D01*
X131369977Y-119327244D01*
X131366953Y-119317275D01*
X131321314Y-119166825D01*
X131321314Y-119166824D01*
X131321313Y-119166821D01*
X131304883Y-119000000D01*
X131321313Y-118833179D01*
X131355403Y-118720800D01*
X131369975Y-118672761D01*
X131369976Y-118672759D01*
X131369977Y-118672756D01*
X131448995Y-118524922D01*
X131555341Y-118395341D01*
X131684922Y-118288995D01*
X131832756Y-118209977D01*
X131832759Y-118209976D01*
X131832761Y-118209975D01*
X131993175Y-118161314D01*
X131993176Y-118161314D01*
X131993179Y-118161313D01*
X132118196Y-118149000D01*
X132201804Y-118149000D01*
X132326821Y-118161313D01*
X132326821Y-118161313D01*
G37*
G36*
X129786821Y-118161313D02*
X129786824Y-118161314D01*
X129786825Y-118161314D01*
X129947239Y-118209975D01*
X129947241Y-118209976D01*
X129947244Y-118209977D01*
X130095078Y-118288995D01*
X130224659Y-118395341D01*
X130331005Y-118524922D01*
X130410023Y-118672756D01*
X130410024Y-118672759D01*
X130410025Y-118672761D01*
X130424597Y-118720800D01*
X130458687Y-118833179D01*
X130475117Y-119000000D01*
X130458687Y-119166821D01*
X130458686Y-119166824D01*
X130458686Y-119166825D01*
X130413048Y-119317275D01*
X130410023Y-119327244D01*
X130331005Y-119475078D01*
X130224659Y-119604659D01*
X130095078Y-119711005D01*
X129947244Y-119790023D01*
X129947241Y-119790024D01*
X129947239Y-119790025D01*
X129786825Y-119838686D01*
X129786824Y-119838686D01*
X129786821Y-119838687D01*
X129661804Y-119851000D01*
X129578196Y-119851000D01*
X129453179Y-119838687D01*
X129453176Y-119838686D01*
X129453175Y-119838686D01*
X129292761Y-119790025D01*
X129292759Y-119790024D01*
X129292756Y-119790023D01*
X129144922Y-119711005D01*
X129015341Y-119604659D01*
X128908995Y-119475078D01*
X128829977Y-119327244D01*
X128826953Y-119317275D01*
X128781314Y-119166825D01*
X128781314Y-119166824D01*
X128781313Y-119166821D01*
X128764883Y-119000000D01*
X128781313Y-118833179D01*
X128815403Y-118720800D01*
X128829975Y-118672761D01*
X128829976Y-118672759D01*
X128829977Y-118672756D01*
X128908995Y-118524922D01*
X129015341Y-118395341D01*
X129144922Y-118288995D01*
X129292756Y-118209977D01*
X129292759Y-118209976D01*
X129292761Y-118209975D01*
X129453175Y-118161314D01*
X129453176Y-118161314D01*
X129453179Y-118161313D01*
X129578196Y-118149000D01*
X129661804Y-118149000D01*
X129786821Y-118161313D01*
X129786821Y-118161313D01*
G37*
G36*
X127246821Y-118161313D02*
X127246824Y-118161314D01*
X127246825Y-118161314D01*
X127407239Y-118209975D01*
X127407241Y-118209976D01*
X127407244Y-118209977D01*
X127555078Y-118288995D01*
X127684659Y-118395341D01*
X127791005Y-118524922D01*
X127870023Y-118672756D01*
X127870024Y-118672759D01*
X127870025Y-118672761D01*
X127884597Y-118720800D01*
X127918687Y-118833179D01*
X127935117Y-119000000D01*
X127918687Y-119166821D01*
X127918686Y-119166824D01*
X127918686Y-119166825D01*
X127873048Y-119317275D01*
X127870023Y-119327244D01*
X127791005Y-119475078D01*
X127684659Y-119604659D01*
X127555078Y-119711005D01*
X127407244Y-119790023D01*
X127407241Y-119790024D01*
X127407239Y-119790025D01*
X127246825Y-119838686D01*
X127246824Y-119838686D01*
X127246821Y-119838687D01*
X127121804Y-119851000D01*
X127038196Y-119851000D01*
X126913179Y-119838687D01*
X126913176Y-119838686D01*
X126913175Y-119838686D01*
X126752761Y-119790025D01*
X126752759Y-119790024D01*
X126752756Y-119790023D01*
X126604922Y-119711005D01*
X126475341Y-119604659D01*
X126368995Y-119475078D01*
X126289977Y-119327244D01*
X126286953Y-119317275D01*
X126241314Y-119166825D01*
X126241314Y-119166824D01*
X126241313Y-119166821D01*
X126224883Y-119000000D01*
X126241313Y-118833179D01*
X126275403Y-118720800D01*
X126289975Y-118672761D01*
X126289976Y-118672759D01*
X126289977Y-118672756D01*
X126368995Y-118524922D01*
X126475341Y-118395341D01*
X126604922Y-118288995D01*
X126752756Y-118209977D01*
X126752759Y-118209976D01*
X126752761Y-118209975D01*
X126913175Y-118161314D01*
X126913176Y-118161314D01*
X126913179Y-118161313D01*
X127038196Y-118149000D01*
X127121804Y-118149000D01*
X127246821Y-118161313D01*
X127246821Y-118161313D01*
G37*
G36*
X124706821Y-118161313D02*
X124706824Y-118161314D01*
X124706825Y-118161314D01*
X124867239Y-118209975D01*
X124867241Y-118209976D01*
X124867244Y-118209977D01*
X125015078Y-118288995D01*
X125144659Y-118395341D01*
X125251005Y-118524922D01*
X125330023Y-118672756D01*
X125330024Y-118672759D01*
X125330025Y-118672761D01*
X125344597Y-118720800D01*
X125378687Y-118833179D01*
X125395117Y-119000000D01*
X125378687Y-119166821D01*
X125378686Y-119166824D01*
X125378686Y-119166825D01*
X125333048Y-119317275D01*
X125330023Y-119327244D01*
X125251005Y-119475078D01*
X125144659Y-119604659D01*
X125015078Y-119711005D01*
X124867244Y-119790023D01*
X124867241Y-119790024D01*
X124867239Y-119790025D01*
X124706825Y-119838686D01*
X124706824Y-119838686D01*
X124706821Y-119838687D01*
X124581804Y-119851000D01*
X124498196Y-119851000D01*
X124373179Y-119838687D01*
X124373176Y-119838686D01*
X124373175Y-119838686D01*
X124212761Y-119790025D01*
X124212759Y-119790024D01*
X124212756Y-119790023D01*
X124064922Y-119711005D01*
X123935341Y-119604659D01*
X123828995Y-119475078D01*
X123749977Y-119327244D01*
X123746953Y-119317275D01*
X123701314Y-119166825D01*
X123701314Y-119166824D01*
X123701313Y-119166821D01*
X123684883Y-119000000D01*
X123701313Y-118833179D01*
X123735403Y-118720800D01*
X123749975Y-118672761D01*
X123749976Y-118672759D01*
X123749977Y-118672756D01*
X123828995Y-118524922D01*
X123935341Y-118395341D01*
X124064922Y-118288995D01*
X124212756Y-118209977D01*
X124212759Y-118209976D01*
X124212761Y-118209975D01*
X124373175Y-118161314D01*
X124373176Y-118161314D01*
X124373179Y-118161313D01*
X124498196Y-118149000D01*
X124581804Y-118149000D01*
X124706821Y-118161313D01*
X124706821Y-118161313D01*
G37*
G36*
X122851000Y-119851000D02*
X121149000Y-119851000D01*
X121149000Y-118149000D01*
X122851000Y-118149000D01*
X122851000Y-119851000D01*
X122851000Y-119851000D01*
G37*
G36*
X87549003Y-116777275D02*
X87549005Y-116777276D01*
X87549006Y-116777276D01*
X87729320Y-116851964D01*
X87729321Y-116851965D01*
X87891601Y-116960397D01*
X88029603Y-117098399D01*
X88029605Y-117098402D01*
X88138036Y-117260680D01*
X88212724Y-117440994D01*
X88250800Y-117632415D01*
X88250800Y-117827585D01*
X88212724Y-118019006D01*
X88138036Y-118199320D01*
X88130915Y-118209977D01*
X88029603Y-118361601D01*
X87891601Y-118499603D01*
X87891598Y-118499605D01*
X87729320Y-118608036D01*
X87549006Y-118682724D01*
X87549005Y-118682724D01*
X87549003Y-118682725D01*
X87357587Y-118720800D01*
X87162413Y-118720800D01*
X86970997Y-118682725D01*
X86970995Y-118682724D01*
X86970994Y-118682724D01*
X86790680Y-118608036D01*
X86628402Y-118499605D01*
X86628399Y-118499603D01*
X86490397Y-118361601D01*
X86389085Y-118209977D01*
X86381964Y-118199320D01*
X86307276Y-118019006D01*
X86269200Y-117827585D01*
X86269200Y-117632415D01*
X86307276Y-117440994D01*
X86381964Y-117260680D01*
X86490395Y-117098402D01*
X86490397Y-117098399D01*
X86628399Y-116960397D01*
X86790679Y-116851965D01*
X86790680Y-116851964D01*
X86970994Y-116777276D01*
X86970995Y-116777276D01*
X86970997Y-116777275D01*
X87162413Y-116739200D01*
X87357587Y-116739200D01*
X87549003Y-116777275D01*
X87549003Y-116777275D01*
G37*
G36*
X87549003Y-114237275D02*
X87549005Y-114237276D01*
X87549006Y-114237276D01*
X87729320Y-114311964D01*
X87729321Y-114311965D01*
X87891601Y-114420397D01*
X88029603Y-114558399D01*
X88029605Y-114558402D01*
X88138036Y-114720680D01*
X88212724Y-114900994D01*
X88212725Y-114900997D01*
X88233831Y-115007105D01*
X88250800Y-115092415D01*
X88250800Y-115287585D01*
X88212724Y-115479006D01*
X88138036Y-115659320D01*
X88138035Y-115659321D01*
X88029603Y-115821601D01*
X87891601Y-115959603D01*
X87891598Y-115959605D01*
X87729320Y-116068036D01*
X87549006Y-116142724D01*
X87549005Y-116142724D01*
X87549003Y-116142725D01*
X87357587Y-116180800D01*
X87162413Y-116180800D01*
X86970997Y-116142725D01*
X86970995Y-116142724D01*
X86970994Y-116142724D01*
X86790680Y-116068036D01*
X86628402Y-115959605D01*
X86628399Y-115959603D01*
X86490397Y-115821601D01*
X86381965Y-115659321D01*
X86381964Y-115659320D01*
X86307276Y-115479006D01*
X86269200Y-115287585D01*
X86269200Y-115092415D01*
X86286169Y-115007105D01*
X86307275Y-114900997D01*
X86307276Y-114900994D01*
X86381964Y-114720680D01*
X86490395Y-114558402D01*
X86490397Y-114558399D01*
X86628399Y-114420397D01*
X86790679Y-114311965D01*
X86790680Y-114311964D01*
X86970994Y-114237276D01*
X86970995Y-114237276D01*
X86970997Y-114237275D01*
X87162413Y-114199200D01*
X87357587Y-114199200D01*
X87549003Y-114237275D01*
X87549003Y-114237275D01*
G37*
G36*
X111837753Y-113284775D02*
X111837755Y-113284776D01*
X111837756Y-113284776D01*
X112018070Y-113359464D01*
X112018071Y-113359465D01*
X112180351Y-113467897D01*
X112318353Y-113605899D01*
X112318355Y-113605902D01*
X112426786Y-113768180D01*
X112501474Y-113948494D01*
X112501475Y-113948497D01*
X112539550Y-114139913D01*
X112539550Y-114335087D01*
X112522581Y-114420397D01*
X112501474Y-114526506D01*
X112426786Y-114706820D01*
X112417525Y-114720680D01*
X112318353Y-114869101D01*
X112180351Y-115007103D01*
X112180348Y-115007105D01*
X112018070Y-115115536D01*
X111837756Y-115190224D01*
X111837755Y-115190224D01*
X111837753Y-115190225D01*
X111646337Y-115228300D01*
X111451163Y-115228300D01*
X111259747Y-115190225D01*
X111259745Y-115190224D01*
X111259744Y-115190224D01*
X111079430Y-115115536D01*
X110917152Y-115007105D01*
X110917149Y-115007103D01*
X110779147Y-114869101D01*
X110679975Y-114720680D01*
X110670714Y-114706820D01*
X110596026Y-114526506D01*
X110574920Y-114420397D01*
X110557950Y-114335087D01*
X110557950Y-114139913D01*
X110596025Y-113948497D01*
X110596026Y-113948494D01*
X110670714Y-113768180D01*
X110779145Y-113605902D01*
X110779147Y-113605899D01*
X110917149Y-113467897D01*
X111079429Y-113359465D01*
X111079430Y-113359464D01*
X111259744Y-113284776D01*
X111259745Y-113284776D01*
X111259747Y-113284775D01*
X111451163Y-113246700D01*
X111646337Y-113246700D01*
X111837753Y-113284775D01*
X111837753Y-113284775D01*
G37*
G36*
X109297753Y-113284775D02*
X109297755Y-113284776D01*
X109297756Y-113284776D01*
X109478070Y-113359464D01*
X109478071Y-113359465D01*
X109640351Y-113467897D01*
X109778353Y-113605899D01*
X109778355Y-113605902D01*
X109886786Y-113768180D01*
X109961474Y-113948494D01*
X109961475Y-113948497D01*
X109999550Y-114139913D01*
X109999550Y-114335087D01*
X109982581Y-114420397D01*
X109961474Y-114526506D01*
X109886786Y-114706820D01*
X109877525Y-114720680D01*
X109778353Y-114869101D01*
X109640351Y-115007103D01*
X109640348Y-115007105D01*
X109478070Y-115115536D01*
X109297756Y-115190224D01*
X109297755Y-115190224D01*
X109297753Y-115190225D01*
X109106337Y-115228300D01*
X108911163Y-115228300D01*
X108719747Y-115190225D01*
X108719745Y-115190224D01*
X108719744Y-115190224D01*
X108539430Y-115115536D01*
X108377152Y-115007105D01*
X108377149Y-115007103D01*
X108239147Y-114869101D01*
X108139975Y-114720680D01*
X108130714Y-114706820D01*
X108056026Y-114526506D01*
X108034920Y-114420397D01*
X108017950Y-114335087D01*
X108017950Y-114139913D01*
X108056025Y-113948497D01*
X108056026Y-113948494D01*
X108130714Y-113768180D01*
X108239145Y-113605902D01*
X108239147Y-113605899D01*
X108377149Y-113467897D01*
X108539429Y-113359465D01*
X108539430Y-113359464D01*
X108719744Y-113284776D01*
X108719745Y-113284776D01*
X108719747Y-113284775D01*
X108911163Y-113246700D01*
X109106337Y-113246700D01*
X109297753Y-113284775D01*
X109297753Y-113284775D01*
G37*
G36*
X101360253Y-113284775D02*
X101360255Y-113284776D01*
X101360256Y-113284776D01*
X101540570Y-113359464D01*
X101540571Y-113359465D01*
X101702851Y-113467897D01*
X101840853Y-113605899D01*
X101840855Y-113605902D01*
X101949286Y-113768180D01*
X102023974Y-113948494D01*
X102023975Y-113948497D01*
X102062050Y-114139913D01*
X102062050Y-114335087D01*
X102045081Y-114420397D01*
X102023974Y-114526506D01*
X101949286Y-114706820D01*
X101940025Y-114720680D01*
X101840853Y-114869101D01*
X101702851Y-115007103D01*
X101702848Y-115007105D01*
X101540570Y-115115536D01*
X101360256Y-115190224D01*
X101360255Y-115190224D01*
X101360253Y-115190225D01*
X101168837Y-115228300D01*
X100973663Y-115228300D01*
X100782247Y-115190225D01*
X100782245Y-115190224D01*
X100782244Y-115190224D01*
X100601930Y-115115536D01*
X100439652Y-115007105D01*
X100439649Y-115007103D01*
X100301647Y-114869101D01*
X100202475Y-114720680D01*
X100193214Y-114706820D01*
X100118526Y-114526506D01*
X100097420Y-114420397D01*
X100080450Y-114335087D01*
X100080450Y-114139913D01*
X100118525Y-113948497D01*
X100118526Y-113948494D01*
X100193214Y-113768180D01*
X100301645Y-113605902D01*
X100301647Y-113605899D01*
X100439649Y-113467897D01*
X100601929Y-113359465D01*
X100601930Y-113359464D01*
X100782244Y-113284776D01*
X100782245Y-113284776D01*
X100782247Y-113284775D01*
X100973663Y-113246700D01*
X101168837Y-113246700D01*
X101360253Y-113284775D01*
X101360253Y-113284775D01*
G37*
G36*
X98820253Y-113284775D02*
X98820255Y-113284776D01*
X98820256Y-113284776D01*
X99000570Y-113359464D01*
X99000571Y-113359465D01*
X99162851Y-113467897D01*
X99300853Y-113605899D01*
X99300855Y-113605902D01*
X99409286Y-113768180D01*
X99483974Y-113948494D01*
X99483975Y-113948497D01*
X99522050Y-114139913D01*
X99522050Y-114335087D01*
X99505081Y-114420397D01*
X99483974Y-114526506D01*
X99409286Y-114706820D01*
X99400025Y-114720680D01*
X99300853Y-114869101D01*
X99162851Y-115007103D01*
X99162848Y-115007105D01*
X99000570Y-115115536D01*
X98820256Y-115190224D01*
X98820255Y-115190224D01*
X98820253Y-115190225D01*
X98628837Y-115228300D01*
X98433663Y-115228300D01*
X98242247Y-115190225D01*
X98242245Y-115190224D01*
X98242244Y-115190224D01*
X98061930Y-115115536D01*
X97899652Y-115007105D01*
X97899649Y-115007103D01*
X97761647Y-114869101D01*
X97662475Y-114720680D01*
X97653214Y-114706820D01*
X97578526Y-114526506D01*
X97557420Y-114420397D01*
X97540450Y-114335087D01*
X97540450Y-114139913D01*
X97578525Y-113948497D01*
X97578526Y-113948494D01*
X97653214Y-113768180D01*
X97761645Y-113605902D01*
X97761647Y-113605899D01*
X97899649Y-113467897D01*
X98061929Y-113359465D01*
X98061930Y-113359464D01*
X98242244Y-113284776D01*
X98242245Y-113284776D01*
X98242247Y-113284775D01*
X98433663Y-113246700D01*
X98628837Y-113246700D01*
X98820253Y-113284775D01*
X98820253Y-113284775D01*
G37*
G36*
X87549003Y-111697275D02*
X87549005Y-111697276D01*
X87549006Y-111697276D01*
X87729320Y-111771964D01*
X87889410Y-111878933D01*
X87891601Y-111880397D01*
X88029603Y-112018399D01*
X88029605Y-112018402D01*
X88138036Y-112180680D01*
X88212724Y-112360994D01*
X88250800Y-112552415D01*
X88250800Y-112747585D01*
X88212724Y-112939006D01*
X88138036Y-113119320D01*
X88138035Y-113119321D01*
X88029603Y-113281601D01*
X87891601Y-113419603D01*
X87891598Y-113419605D01*
X87729320Y-113528036D01*
X87549006Y-113602724D01*
X87549005Y-113602724D01*
X87549003Y-113602725D01*
X87357587Y-113640800D01*
X87162413Y-113640800D01*
X86970997Y-113602725D01*
X86970995Y-113602724D01*
X86970994Y-113602724D01*
X86790680Y-113528036D01*
X86628402Y-113419605D01*
X86628399Y-113419603D01*
X86490397Y-113281601D01*
X86381965Y-113119321D01*
X86381964Y-113119320D01*
X86307276Y-112939006D01*
X86269200Y-112747585D01*
X86269200Y-112552415D01*
X86307276Y-112360994D01*
X86381964Y-112180680D01*
X86490395Y-112018402D01*
X86490397Y-112018399D01*
X86628399Y-111880397D01*
X86630590Y-111878933D01*
X86790680Y-111771964D01*
X86970994Y-111697276D01*
X86970995Y-111697276D01*
X86970997Y-111697275D01*
X87162413Y-111659200D01*
X87357587Y-111659200D01*
X87549003Y-111697275D01*
X87549003Y-111697275D01*
G37*
G36*
X107869003Y-110427275D02*
X107869005Y-110427276D01*
X107869006Y-110427276D01*
X108049320Y-110501964D01*
X108049321Y-110501965D01*
X108211601Y-110610397D01*
X108349603Y-110748399D01*
X108349605Y-110748402D01*
X108458036Y-110910680D01*
X108532724Y-111090994D01*
X108570800Y-111282415D01*
X108570800Y-111477585D01*
X108532724Y-111669006D01*
X108458036Y-111849320D01*
X108458035Y-111849321D01*
X108349603Y-112011601D01*
X108211601Y-112149603D01*
X108211598Y-112149605D01*
X108049320Y-112258036D01*
X107869006Y-112332724D01*
X107869005Y-112332724D01*
X107869003Y-112332725D01*
X107677587Y-112370800D01*
X107482413Y-112370800D01*
X107290997Y-112332725D01*
X107290995Y-112332724D01*
X107290994Y-112332724D01*
X107110680Y-112258036D01*
X106948402Y-112149605D01*
X106948399Y-112149603D01*
X106810397Y-112011601D01*
X106701965Y-111849321D01*
X106701964Y-111849320D01*
X106627276Y-111669006D01*
X106589200Y-111477585D01*
X106589200Y-111282415D01*
X106627276Y-111090994D01*
X106701964Y-110910680D01*
X106810395Y-110748402D01*
X106810397Y-110748399D01*
X106948399Y-110610397D01*
X107110679Y-110501965D01*
X107110680Y-110501964D01*
X107290994Y-110427276D01*
X107290995Y-110427276D01*
X107290997Y-110427275D01*
X107482413Y-110389200D01*
X107677587Y-110389200D01*
X107869003Y-110427275D01*
X107869003Y-110427275D01*
G37*
G36*
X105329003Y-110427275D02*
X105329005Y-110427276D01*
X105329006Y-110427276D01*
X105509320Y-110501964D01*
X105509321Y-110501965D01*
X105671601Y-110610397D01*
X105809603Y-110748399D01*
X105809605Y-110748402D01*
X105918036Y-110910680D01*
X105992724Y-111090994D01*
X106030800Y-111282415D01*
X106030800Y-111477585D01*
X105992724Y-111669006D01*
X105918036Y-111849320D01*
X105918035Y-111849321D01*
X105809603Y-112011601D01*
X105671601Y-112149603D01*
X105671598Y-112149605D01*
X105509320Y-112258036D01*
X105329006Y-112332724D01*
X105329005Y-112332724D01*
X105329003Y-112332725D01*
X105137587Y-112370800D01*
X104942413Y-112370800D01*
X104750997Y-112332725D01*
X104750995Y-112332724D01*
X104750994Y-112332724D01*
X104570680Y-112258036D01*
X104408402Y-112149605D01*
X104408399Y-112149603D01*
X104270397Y-112011601D01*
X104161965Y-111849321D01*
X104161964Y-111849320D01*
X104087276Y-111669006D01*
X104049200Y-111477585D01*
X104049200Y-111282415D01*
X104087276Y-111090994D01*
X104161964Y-110910680D01*
X104270395Y-110748402D01*
X104270397Y-110748399D01*
X104408399Y-110610397D01*
X104570679Y-110501965D01*
X104570680Y-110501964D01*
X104750994Y-110427276D01*
X104750995Y-110427276D01*
X104750997Y-110427275D01*
X104942413Y-110389200D01*
X105137587Y-110389200D01*
X105329003Y-110427275D01*
X105329003Y-110427275D01*
G37*
G36*
X102789003Y-110427275D02*
X102789005Y-110427276D01*
X102789006Y-110427276D01*
X102969320Y-110501964D01*
X102969321Y-110501965D01*
X103131601Y-110610397D01*
X103269603Y-110748399D01*
X103269605Y-110748402D01*
X103378036Y-110910680D01*
X103452724Y-111090994D01*
X103490800Y-111282415D01*
X103490800Y-111477585D01*
X103452724Y-111669006D01*
X103378036Y-111849320D01*
X103378035Y-111849321D01*
X103269603Y-112011601D01*
X103131601Y-112149603D01*
X103131598Y-112149605D01*
X102969320Y-112258036D01*
X102789006Y-112332724D01*
X102789005Y-112332724D01*
X102789003Y-112332725D01*
X102597587Y-112370800D01*
X102402413Y-112370800D01*
X102210997Y-112332725D01*
X102210995Y-112332724D01*
X102210994Y-112332724D01*
X102030680Y-112258036D01*
X101868402Y-112149605D01*
X101868399Y-112149603D01*
X101730397Y-112011601D01*
X101621965Y-111849321D01*
X101621964Y-111849320D01*
X101547276Y-111669006D01*
X101509200Y-111477585D01*
X101509200Y-111282415D01*
X101547276Y-111090994D01*
X101621964Y-110910680D01*
X101730395Y-110748402D01*
X101730397Y-110748399D01*
X101868399Y-110610397D01*
X102030679Y-110501965D01*
X102030680Y-110501964D01*
X102210994Y-110427276D01*
X102210995Y-110427276D01*
X102210997Y-110427275D01*
X102402413Y-110389200D01*
X102597587Y-110389200D01*
X102789003Y-110427275D01*
X102789003Y-110427275D01*
G37*
G36*
X100249003Y-110427275D02*
X100249005Y-110427276D01*
X100249006Y-110427276D01*
X100429320Y-110501964D01*
X100429321Y-110501965D01*
X100591601Y-110610397D01*
X100729603Y-110748399D01*
X100729605Y-110748402D01*
X100838036Y-110910680D01*
X100912724Y-111090994D01*
X100950800Y-111282415D01*
X100950800Y-111477585D01*
X100912724Y-111669006D01*
X100838036Y-111849320D01*
X100838035Y-111849321D01*
X100729603Y-112011601D01*
X100591601Y-112149603D01*
X100591598Y-112149605D01*
X100429320Y-112258036D01*
X100249006Y-112332724D01*
X100249005Y-112332724D01*
X100249003Y-112332725D01*
X100057587Y-112370800D01*
X99862413Y-112370800D01*
X99670997Y-112332725D01*
X99670995Y-112332724D01*
X99670994Y-112332724D01*
X99490680Y-112258036D01*
X99328402Y-112149605D01*
X99328399Y-112149603D01*
X99190397Y-112011601D01*
X99081965Y-111849321D01*
X99081964Y-111849320D01*
X99007276Y-111669006D01*
X98969200Y-111477585D01*
X98969200Y-111282415D01*
X99007276Y-111090994D01*
X99081964Y-110910680D01*
X99190395Y-110748402D01*
X99190397Y-110748399D01*
X99328399Y-110610397D01*
X99490679Y-110501965D01*
X99490680Y-110501964D01*
X99670994Y-110427276D01*
X99670995Y-110427276D01*
X99670997Y-110427275D01*
X99862413Y-110389200D01*
X100057587Y-110389200D01*
X100249003Y-110427275D01*
X100249003Y-110427275D01*
G37*
G36*
X110409003Y-110427275D02*
X110409005Y-110427276D01*
X110409006Y-110427276D01*
X110589320Y-110501964D01*
X110589321Y-110501965D01*
X110751601Y-110610397D01*
X110889603Y-110748399D01*
X110889605Y-110748402D01*
X110998036Y-110910680D01*
X111072724Y-111090994D01*
X111110800Y-111282415D01*
X111110800Y-111477585D01*
X111072724Y-111669006D01*
X110998036Y-111849320D01*
X110998035Y-111849321D01*
X110889603Y-112011601D01*
X110751601Y-112149603D01*
X110751598Y-112149605D01*
X110589320Y-112258036D01*
X110409006Y-112332724D01*
X110409005Y-112332724D01*
X110409003Y-112332725D01*
X110217587Y-112370800D01*
X110022413Y-112370800D01*
X109830997Y-112332725D01*
X109830995Y-112332724D01*
X109830994Y-112332724D01*
X109650680Y-112258036D01*
X109488402Y-112149605D01*
X109488399Y-112149603D01*
X109350397Y-112011601D01*
X109241965Y-111849321D01*
X109241964Y-111849320D01*
X109167276Y-111669006D01*
X109129200Y-111477585D01*
X109129200Y-111282415D01*
X109167276Y-111090994D01*
X109241964Y-110910680D01*
X109350395Y-110748402D01*
X109350397Y-110748399D01*
X109488399Y-110610397D01*
X109650679Y-110501965D01*
X109650680Y-110501964D01*
X109830994Y-110427276D01*
X109830995Y-110427276D01*
X109830997Y-110427275D01*
X110022413Y-110389200D01*
X110217587Y-110389200D01*
X110409003Y-110427275D01*
X110409003Y-110427275D01*
G37*
G36*
X97709003Y-110427275D02*
X97709005Y-110427276D01*
X97709006Y-110427276D01*
X97889320Y-110501964D01*
X97889321Y-110501965D01*
X98051601Y-110610397D01*
X98189603Y-110748399D01*
X98189605Y-110748402D01*
X98298036Y-110910680D01*
X98372724Y-111090994D01*
X98410800Y-111282415D01*
X98410800Y-111477585D01*
X98372724Y-111669006D01*
X98298036Y-111849320D01*
X98298035Y-111849321D01*
X98189603Y-112011601D01*
X98051601Y-112149603D01*
X98051598Y-112149605D01*
X97889320Y-112258036D01*
X97709006Y-112332724D01*
X97709005Y-112332724D01*
X97709003Y-112332725D01*
X97517587Y-112370800D01*
X97322413Y-112370800D01*
X97130997Y-112332725D01*
X97130995Y-112332724D01*
X97130994Y-112332724D01*
X96950680Y-112258036D01*
X96788402Y-112149605D01*
X96788399Y-112149603D01*
X96650397Y-112011601D01*
X96541965Y-111849321D01*
X96541964Y-111849320D01*
X96467276Y-111669006D01*
X96429200Y-111477585D01*
X96429200Y-111282415D01*
X96467276Y-111090994D01*
X96541964Y-110910680D01*
X96650395Y-110748402D01*
X96650397Y-110748399D01*
X96788399Y-110610397D01*
X96950679Y-110501965D01*
X96950680Y-110501964D01*
X97130994Y-110427276D01*
X97130995Y-110427276D01*
X97130997Y-110427275D01*
X97322413Y-110389200D01*
X97517587Y-110389200D01*
X97709003Y-110427275D01*
X97709003Y-110427275D01*
G37*
G36*
X95169003Y-110427275D02*
X95169005Y-110427276D01*
X95169006Y-110427276D01*
X95349320Y-110501964D01*
X95349321Y-110501965D01*
X95511601Y-110610397D01*
X95649603Y-110748399D01*
X95649605Y-110748402D01*
X95758036Y-110910680D01*
X95832724Y-111090994D01*
X95870800Y-111282415D01*
X95870800Y-111477585D01*
X95832724Y-111669006D01*
X95758036Y-111849320D01*
X95758035Y-111849321D01*
X95649603Y-112011601D01*
X95511601Y-112149603D01*
X95511598Y-112149605D01*
X95349320Y-112258036D01*
X95169006Y-112332724D01*
X95169005Y-112332724D01*
X95169003Y-112332725D01*
X94977587Y-112370800D01*
X94782413Y-112370800D01*
X94590997Y-112332725D01*
X94590995Y-112332724D01*
X94590994Y-112332724D01*
X94410680Y-112258036D01*
X94248402Y-112149605D01*
X94248399Y-112149603D01*
X94110397Y-112011601D01*
X94001965Y-111849321D01*
X94001964Y-111849320D01*
X93927276Y-111669006D01*
X93889200Y-111477585D01*
X93889200Y-111282415D01*
X93927276Y-111090994D01*
X94001964Y-110910680D01*
X94110395Y-110748402D01*
X94110397Y-110748399D01*
X94248399Y-110610397D01*
X94410679Y-110501965D01*
X94410680Y-110501964D01*
X94590994Y-110427276D01*
X94590995Y-110427276D01*
X94590997Y-110427275D01*
X94782413Y-110389200D01*
X94977587Y-110389200D01*
X95169003Y-110427275D01*
X95169003Y-110427275D01*
G37*
G36*
X90089003Y-110427275D02*
X90089005Y-110427276D01*
X90089006Y-110427276D01*
X90269320Y-110501964D01*
X90269321Y-110501965D01*
X90431601Y-110610397D01*
X90569603Y-110748399D01*
X90569605Y-110748402D01*
X90678036Y-110910680D01*
X90752724Y-111090994D01*
X90790800Y-111282415D01*
X90790800Y-111477585D01*
X90752724Y-111669006D01*
X90678036Y-111849320D01*
X90678035Y-111849321D01*
X90569603Y-112011601D01*
X90431601Y-112149603D01*
X90431598Y-112149605D01*
X90269320Y-112258036D01*
X90089006Y-112332724D01*
X90089005Y-112332724D01*
X90089003Y-112332725D01*
X89897587Y-112370800D01*
X89702413Y-112370800D01*
X89510997Y-112332725D01*
X89510995Y-112332724D01*
X89510994Y-112332724D01*
X89330680Y-112258036D01*
X89168402Y-112149605D01*
X89168399Y-112149603D01*
X89030397Y-112011601D01*
X88921965Y-111849321D01*
X88921964Y-111849320D01*
X88847276Y-111669006D01*
X88809200Y-111477585D01*
X88809200Y-111282415D01*
X88847276Y-111090994D01*
X88921964Y-110910680D01*
X89030395Y-110748402D01*
X89030397Y-110748399D01*
X89168399Y-110610397D01*
X89330679Y-110501965D01*
X89330680Y-110501964D01*
X89510994Y-110427276D01*
X89510995Y-110427276D01*
X89510997Y-110427275D01*
X89702413Y-110389200D01*
X89897587Y-110389200D01*
X90089003Y-110427275D01*
X90089003Y-110427275D01*
G37*
G36*
X112949003Y-110427275D02*
X112949005Y-110427276D01*
X112949006Y-110427276D01*
X113129320Y-110501964D01*
X113129321Y-110501965D01*
X113291601Y-110610397D01*
X113429603Y-110748399D01*
X113429605Y-110748402D01*
X113538036Y-110910680D01*
X113612724Y-111090994D01*
X113650800Y-111282415D01*
X113650800Y-111477585D01*
X113612724Y-111669006D01*
X113538036Y-111849320D01*
X113538035Y-111849321D01*
X113429603Y-112011601D01*
X113291601Y-112149603D01*
X113291598Y-112149605D01*
X113129320Y-112258036D01*
X112949006Y-112332724D01*
X112949005Y-112332724D01*
X112949003Y-112332725D01*
X112757587Y-112370800D01*
X112562413Y-112370800D01*
X112370997Y-112332725D01*
X112370995Y-112332724D01*
X112370994Y-112332724D01*
X112190680Y-112258036D01*
X112028402Y-112149605D01*
X112028399Y-112149603D01*
X111890397Y-112011601D01*
X111781965Y-111849321D01*
X111781964Y-111849320D01*
X111707276Y-111669006D01*
X111669200Y-111477585D01*
X111669200Y-111282415D01*
X111707276Y-111090994D01*
X111781964Y-110910680D01*
X111890395Y-110748402D01*
X111890397Y-110748399D01*
X112028399Y-110610397D01*
X112190679Y-110501965D01*
X112190680Y-110501964D01*
X112370994Y-110427276D01*
X112370995Y-110427276D01*
X112370997Y-110427275D01*
X112562413Y-110389200D01*
X112757587Y-110389200D01*
X112949003Y-110427275D01*
X112949003Y-110427275D01*
G37*
G36*
X115489003Y-110427275D02*
X115489005Y-110427276D01*
X115489006Y-110427276D01*
X115669320Y-110501964D01*
X115669321Y-110501965D01*
X115831601Y-110610397D01*
X115969603Y-110748399D01*
X115969605Y-110748402D01*
X116078036Y-110910680D01*
X116152724Y-111090994D01*
X116190800Y-111282415D01*
X116190800Y-111477585D01*
X116152724Y-111669006D01*
X116078036Y-111849320D01*
X116078035Y-111849321D01*
X115969603Y-112011601D01*
X115831601Y-112149603D01*
X115831598Y-112149605D01*
X115669320Y-112258036D01*
X115489006Y-112332724D01*
X115489005Y-112332724D01*
X115489003Y-112332725D01*
X115297587Y-112370800D01*
X115102413Y-112370800D01*
X114910997Y-112332725D01*
X114910995Y-112332724D01*
X114910994Y-112332724D01*
X114730680Y-112258036D01*
X114568402Y-112149605D01*
X114568399Y-112149603D01*
X114430397Y-112011601D01*
X114321965Y-111849321D01*
X114321964Y-111849320D01*
X114247276Y-111669006D01*
X114209200Y-111477585D01*
X114209200Y-111282415D01*
X114247276Y-111090994D01*
X114321964Y-110910680D01*
X114430395Y-110748402D01*
X114430397Y-110748399D01*
X114568399Y-110610397D01*
X114730679Y-110501965D01*
X114730680Y-110501964D01*
X114910994Y-110427276D01*
X114910995Y-110427276D01*
X114910997Y-110427275D01*
X115102413Y-110389200D01*
X115297587Y-110389200D01*
X115489003Y-110427275D01*
X115489003Y-110427275D01*
G37*
G36*
X118029003Y-110427275D02*
X118029005Y-110427276D01*
X118029006Y-110427276D01*
X118209320Y-110501964D01*
X118209321Y-110501965D01*
X118371601Y-110610397D01*
X118509603Y-110748399D01*
X118509605Y-110748402D01*
X118618036Y-110910680D01*
X118692724Y-111090994D01*
X118730800Y-111282415D01*
X118730800Y-111477585D01*
X118692724Y-111669006D01*
X118618036Y-111849320D01*
X118618035Y-111849321D01*
X118509603Y-112011601D01*
X118371601Y-112149603D01*
X118371598Y-112149605D01*
X118209320Y-112258036D01*
X118029006Y-112332724D01*
X118029005Y-112332724D01*
X118029003Y-112332725D01*
X117837587Y-112370800D01*
X117642413Y-112370800D01*
X117450997Y-112332725D01*
X117450995Y-112332724D01*
X117450994Y-112332724D01*
X117270680Y-112258036D01*
X117108402Y-112149605D01*
X117108399Y-112149603D01*
X116970397Y-112011601D01*
X116861965Y-111849321D01*
X116861964Y-111849320D01*
X116787276Y-111669006D01*
X116749200Y-111477585D01*
X116749200Y-111282415D01*
X116787276Y-111090994D01*
X116861964Y-110910680D01*
X116970395Y-110748402D01*
X116970397Y-110748399D01*
X117108399Y-110610397D01*
X117270679Y-110501965D01*
X117270680Y-110501964D01*
X117450994Y-110427276D01*
X117450995Y-110427276D01*
X117450997Y-110427275D01*
X117642413Y-110389200D01*
X117837587Y-110389200D01*
X118029003Y-110427275D01*
X118029003Y-110427275D01*
G37*
G36*
X92629003Y-110427275D02*
X92629005Y-110427276D01*
X92629006Y-110427276D01*
X92809320Y-110501964D01*
X92809321Y-110501965D01*
X92971601Y-110610397D01*
X93109603Y-110748399D01*
X93109605Y-110748402D01*
X93218036Y-110910680D01*
X93292724Y-111090994D01*
X93330800Y-111282415D01*
X93330800Y-111477585D01*
X93292724Y-111669006D01*
X93218036Y-111849320D01*
X93218035Y-111849321D01*
X93109603Y-112011601D01*
X92971601Y-112149603D01*
X92971598Y-112149605D01*
X92809320Y-112258036D01*
X92629006Y-112332724D01*
X92629005Y-112332724D01*
X92629003Y-112332725D01*
X92437587Y-112370800D01*
X92242413Y-112370800D01*
X92050997Y-112332725D01*
X92050995Y-112332724D01*
X92050994Y-112332724D01*
X91870680Y-112258036D01*
X91708402Y-112149605D01*
X91708399Y-112149603D01*
X91570397Y-112011601D01*
X91461965Y-111849321D01*
X91461964Y-111849320D01*
X91387276Y-111669006D01*
X91349200Y-111477585D01*
X91349200Y-111282415D01*
X91387276Y-111090994D01*
X91461964Y-110910680D01*
X91570395Y-110748402D01*
X91570397Y-110748399D01*
X91708399Y-110610397D01*
X91870679Y-110501965D01*
X91870680Y-110501964D01*
X92050994Y-110427276D01*
X92050995Y-110427276D01*
X92050997Y-110427275D01*
X92242413Y-110389200D01*
X92437587Y-110389200D01*
X92629003Y-110427275D01*
X92629003Y-110427275D01*
G37*
G36*
X137406821Y-105461313D02*
X137406824Y-105461314D01*
X137406825Y-105461314D01*
X137567239Y-105509975D01*
X137567241Y-105509976D01*
X137567244Y-105509977D01*
X137715078Y-105588995D01*
X137844659Y-105695341D01*
X137951005Y-105824922D01*
X138030023Y-105972756D01*
X138078687Y-106133179D01*
X138095117Y-106300000D01*
X138078687Y-106466821D01*
X138030023Y-106627244D01*
X137951005Y-106775078D01*
X137844659Y-106904659D01*
X137715078Y-107011005D01*
X137567244Y-107090023D01*
X137567241Y-107090024D01*
X137567239Y-107090025D01*
X137406825Y-107138686D01*
X137406824Y-107138686D01*
X137406821Y-107138687D01*
X137281804Y-107151000D01*
X137198196Y-107151000D01*
X137073179Y-107138687D01*
X137073176Y-107138686D01*
X137073175Y-107138686D01*
X136912761Y-107090025D01*
X136912759Y-107090024D01*
X136912756Y-107090023D01*
X136764922Y-107011005D01*
X136635341Y-106904659D01*
X136528995Y-106775078D01*
X136449977Y-106627244D01*
X136401313Y-106466821D01*
X136384883Y-106300000D01*
X136401313Y-106133179D01*
X136449977Y-105972756D01*
X136528995Y-105824922D01*
X136635341Y-105695341D01*
X136764922Y-105588995D01*
X136912756Y-105509977D01*
X136912759Y-105509976D01*
X136912761Y-105509975D01*
X137073175Y-105461314D01*
X137073176Y-105461314D01*
X137073179Y-105461313D01*
X137198196Y-105449000D01*
X137281804Y-105449000D01*
X137406821Y-105461313D01*
X137406821Y-105461313D01*
G37*
G36*
X129786821Y-105461313D02*
X129786824Y-105461314D01*
X129786825Y-105461314D01*
X129947239Y-105509975D01*
X129947241Y-105509976D01*
X129947244Y-105509977D01*
X130095078Y-105588995D01*
X130224659Y-105695341D01*
X130331005Y-105824922D01*
X130410023Y-105972756D01*
X130458687Y-106133179D01*
X130475117Y-106300000D01*
X130458687Y-106466821D01*
X130410023Y-106627244D01*
X130331005Y-106775078D01*
X130224659Y-106904659D01*
X130095078Y-107011005D01*
X129947244Y-107090023D01*
X129947241Y-107090024D01*
X129947239Y-107090025D01*
X129786825Y-107138686D01*
X129786824Y-107138686D01*
X129786821Y-107138687D01*
X129661804Y-107151000D01*
X129578196Y-107151000D01*
X129453179Y-107138687D01*
X129453176Y-107138686D01*
X129453175Y-107138686D01*
X129292761Y-107090025D01*
X129292759Y-107090024D01*
X129292756Y-107090023D01*
X129144922Y-107011005D01*
X129015341Y-106904659D01*
X128908995Y-106775078D01*
X128829977Y-106627244D01*
X128781313Y-106466821D01*
X128764883Y-106300000D01*
X128781313Y-106133179D01*
X128829977Y-105972756D01*
X128908995Y-105824922D01*
X129015341Y-105695341D01*
X129144922Y-105588995D01*
X129292756Y-105509977D01*
X129292759Y-105509976D01*
X129292761Y-105509975D01*
X129453175Y-105461314D01*
X129453176Y-105461314D01*
X129453179Y-105461313D01*
X129578196Y-105449000D01*
X129661804Y-105449000D01*
X129786821Y-105461313D01*
X129786821Y-105461313D01*
G37*
G36*
X122166821Y-105461313D02*
X122166824Y-105461314D01*
X122166825Y-105461314D01*
X122327239Y-105509975D01*
X122327241Y-105509976D01*
X122327244Y-105509977D01*
X122475078Y-105588995D01*
X122604659Y-105695341D01*
X122711005Y-105824922D01*
X122790023Y-105972756D01*
X122838687Y-106133179D01*
X122855117Y-106300000D01*
X122838687Y-106466821D01*
X122790023Y-106627244D01*
X122711005Y-106775078D01*
X122604659Y-106904659D01*
X122475078Y-107011005D01*
X122327244Y-107090023D01*
X122327241Y-107090024D01*
X122327239Y-107090025D01*
X122166825Y-107138686D01*
X122166824Y-107138686D01*
X122166821Y-107138687D01*
X122041804Y-107151000D01*
X121958196Y-107151000D01*
X121833179Y-107138687D01*
X121833176Y-107138686D01*
X121833175Y-107138686D01*
X121672761Y-107090025D01*
X121672759Y-107090024D01*
X121672756Y-107090023D01*
X121524922Y-107011005D01*
X121395341Y-106904659D01*
X121288995Y-106775078D01*
X121209977Y-106627244D01*
X121161313Y-106466821D01*
X121144883Y-106300000D01*
X121161313Y-106133179D01*
X121209977Y-105972756D01*
X121288995Y-105824922D01*
X121395341Y-105695341D01*
X121524922Y-105588995D01*
X121672756Y-105509977D01*
X121672759Y-105509976D01*
X121672761Y-105509975D01*
X121833175Y-105461314D01*
X121833176Y-105461314D01*
X121833179Y-105461313D01*
X121958196Y-105449000D01*
X122041804Y-105449000D01*
X122166821Y-105461313D01*
X122166821Y-105461313D01*
G37*
G36*
X124706821Y-105461313D02*
X124706824Y-105461314D01*
X124706825Y-105461314D01*
X124867239Y-105509975D01*
X124867241Y-105509976D01*
X124867244Y-105509977D01*
X125015078Y-105588995D01*
X125144659Y-105695341D01*
X125251005Y-105824922D01*
X125330023Y-105972756D01*
X125378687Y-106133179D01*
X125395117Y-106300000D01*
X125378687Y-106466821D01*
X125330023Y-106627244D01*
X125251005Y-106775078D01*
X125144659Y-106904659D01*
X125015078Y-107011005D01*
X124867244Y-107090023D01*
X124867241Y-107090024D01*
X124867239Y-107090025D01*
X124706825Y-107138686D01*
X124706824Y-107138686D01*
X124706821Y-107138687D01*
X124581804Y-107151000D01*
X124498196Y-107151000D01*
X124373179Y-107138687D01*
X124373176Y-107138686D01*
X124373175Y-107138686D01*
X124212761Y-107090025D01*
X124212759Y-107090024D01*
X124212756Y-107090023D01*
X124064922Y-107011005D01*
X123935341Y-106904659D01*
X123828995Y-106775078D01*
X123749977Y-106627244D01*
X123701313Y-106466821D01*
X123684883Y-106300000D01*
X123701313Y-106133179D01*
X123749977Y-105972756D01*
X123828995Y-105824922D01*
X123935341Y-105695341D01*
X124064922Y-105588995D01*
X124212756Y-105509977D01*
X124212759Y-105509976D01*
X124212761Y-105509975D01*
X124373175Y-105461314D01*
X124373176Y-105461314D01*
X124373179Y-105461313D01*
X124498196Y-105449000D01*
X124581804Y-105449000D01*
X124706821Y-105461313D01*
X124706821Y-105461313D01*
G37*
G36*
X127246821Y-105461313D02*
X127246824Y-105461314D01*
X127246825Y-105461314D01*
X127407239Y-105509975D01*
X127407241Y-105509976D01*
X127407244Y-105509977D01*
X127555078Y-105588995D01*
X127684659Y-105695341D01*
X127791005Y-105824922D01*
X127870023Y-105972756D01*
X127918687Y-106133179D01*
X127935117Y-106300000D01*
X127918687Y-106466821D01*
X127870023Y-106627244D01*
X127791005Y-106775078D01*
X127684659Y-106904659D01*
X127555078Y-107011005D01*
X127407244Y-107090023D01*
X127407241Y-107090024D01*
X127407239Y-107090025D01*
X127246825Y-107138686D01*
X127246824Y-107138686D01*
X127246821Y-107138687D01*
X127121804Y-107151000D01*
X127038196Y-107151000D01*
X126913179Y-107138687D01*
X126913176Y-107138686D01*
X126913175Y-107138686D01*
X126752761Y-107090025D01*
X126752759Y-107090024D01*
X126752756Y-107090023D01*
X126604922Y-107011005D01*
X126475341Y-106904659D01*
X126368995Y-106775078D01*
X126289977Y-106627244D01*
X126241313Y-106466821D01*
X126224883Y-106300000D01*
X126241313Y-106133179D01*
X126289977Y-105972756D01*
X126368995Y-105824922D01*
X126475341Y-105695341D01*
X126604922Y-105588995D01*
X126752756Y-105509977D01*
X126752759Y-105509976D01*
X126752761Y-105509975D01*
X126913175Y-105461314D01*
X126913176Y-105461314D01*
X126913179Y-105461313D01*
X127038196Y-105449000D01*
X127121804Y-105449000D01*
X127246821Y-105461313D01*
X127246821Y-105461313D01*
G37*
G36*
X132326821Y-105461313D02*
X132326824Y-105461314D01*
X132326825Y-105461314D01*
X132487239Y-105509975D01*
X132487241Y-105509976D01*
X132487244Y-105509977D01*
X132635078Y-105588995D01*
X132764659Y-105695341D01*
X132871005Y-105824922D01*
X132950023Y-105972756D01*
X132998687Y-106133179D01*
X133015117Y-106300000D01*
X132998687Y-106466821D01*
X132950023Y-106627244D01*
X132871005Y-106775078D01*
X132764659Y-106904659D01*
X132635078Y-107011005D01*
X132487244Y-107090023D01*
X132487241Y-107090024D01*
X132487239Y-107090025D01*
X132326825Y-107138686D01*
X132326824Y-107138686D01*
X132326821Y-107138687D01*
X132201804Y-107151000D01*
X132118196Y-107151000D01*
X131993179Y-107138687D01*
X131993176Y-107138686D01*
X131993175Y-107138686D01*
X131832761Y-107090025D01*
X131832759Y-107090024D01*
X131832756Y-107090023D01*
X131684922Y-107011005D01*
X131555341Y-106904659D01*
X131448995Y-106775078D01*
X131369977Y-106627244D01*
X131321313Y-106466821D01*
X131304883Y-106300000D01*
X131321313Y-106133179D01*
X131369977Y-105972756D01*
X131448995Y-105824922D01*
X131555341Y-105695341D01*
X131684922Y-105588995D01*
X131832756Y-105509977D01*
X131832759Y-105509976D01*
X131832761Y-105509975D01*
X131993175Y-105461314D01*
X131993176Y-105461314D01*
X131993179Y-105461313D01*
X132118196Y-105449000D01*
X132201804Y-105449000D01*
X132326821Y-105461313D01*
X132326821Y-105461313D01*
G37*
G36*
X134866821Y-105461313D02*
X134866824Y-105461314D01*
X134866825Y-105461314D01*
X135027239Y-105509975D01*
X135027241Y-105509976D01*
X135027244Y-105509977D01*
X135175078Y-105588995D01*
X135304659Y-105695341D01*
X135411005Y-105824922D01*
X135490023Y-105972756D01*
X135538687Y-106133179D01*
X135555117Y-106300000D01*
X135538687Y-106466821D01*
X135490023Y-106627244D01*
X135411005Y-106775078D01*
X135304659Y-106904659D01*
X135175078Y-107011005D01*
X135027244Y-107090023D01*
X135027241Y-107090024D01*
X135027239Y-107090025D01*
X134866825Y-107138686D01*
X134866824Y-107138686D01*
X134866821Y-107138687D01*
X134741804Y-107151000D01*
X134658196Y-107151000D01*
X134533179Y-107138687D01*
X134533176Y-107138686D01*
X134533175Y-107138686D01*
X134372761Y-107090025D01*
X134372759Y-107090024D01*
X134372756Y-107090023D01*
X134224922Y-107011005D01*
X134095341Y-106904659D01*
X133988995Y-106775078D01*
X133909977Y-106627244D01*
X133861313Y-106466821D01*
X133844883Y-106300000D01*
X133861313Y-106133179D01*
X133909977Y-105972756D01*
X133988995Y-105824922D01*
X134095341Y-105695341D01*
X134224922Y-105588995D01*
X134372756Y-105509977D01*
X134372759Y-105509976D01*
X134372761Y-105509975D01*
X134533175Y-105461314D01*
X134533176Y-105461314D01*
X134533179Y-105461313D01*
X134658196Y-105449000D01*
X134741804Y-105449000D01*
X134866821Y-105461313D01*
X134866821Y-105461313D01*
G37*
G36*
X139946821Y-105461313D02*
X139946824Y-105461314D01*
X139946825Y-105461314D01*
X140107239Y-105509975D01*
X140107241Y-105509976D01*
X140107244Y-105509977D01*
X140255078Y-105588995D01*
X140384659Y-105695341D01*
X140491005Y-105824922D01*
X140570023Y-105972756D01*
X140618687Y-106133179D01*
X140635117Y-106300000D01*
X140618687Y-106466821D01*
X140570023Y-106627244D01*
X140491005Y-106775078D01*
X140384659Y-106904659D01*
X140255078Y-107011005D01*
X140107244Y-107090023D01*
X140107241Y-107090024D01*
X140107239Y-107090025D01*
X139946825Y-107138686D01*
X139946824Y-107138686D01*
X139946821Y-107138687D01*
X139821804Y-107151000D01*
X139738196Y-107151000D01*
X139613179Y-107138687D01*
X139613176Y-107138686D01*
X139613175Y-107138686D01*
X139452761Y-107090025D01*
X139452759Y-107090024D01*
X139452756Y-107090023D01*
X139304922Y-107011005D01*
X139175341Y-106904659D01*
X139068995Y-106775078D01*
X138989977Y-106627244D01*
X138941313Y-106466821D01*
X138924883Y-106300000D01*
X138941313Y-106133179D01*
X138989977Y-105972756D01*
X139068995Y-105824922D01*
X139175341Y-105695341D01*
X139304922Y-105588995D01*
X139452756Y-105509977D01*
X139452759Y-105509976D01*
X139452761Y-105509975D01*
X139613175Y-105461314D01*
X139613176Y-105461314D01*
X139613179Y-105461313D01*
X139738196Y-105449000D01*
X139821804Y-105449000D01*
X139946821Y-105461313D01*
X139946821Y-105461313D01*
G37*
G36*
X107351000Y-103851000D02*
X105649000Y-103851000D01*
X105649000Y-102149000D01*
X107351000Y-102149000D01*
X107351000Y-103851000D01*
X107351000Y-103851000D01*
G37*
G36*
X110548228Y-102181703D02*
X110703100Y-102245853D01*
X110842481Y-102338985D01*
X110961015Y-102457519D01*
X111054147Y-102596900D01*
X111118297Y-102751772D01*
X111151000Y-102916184D01*
X111151000Y-103083816D01*
X111118297Y-103248228D01*
X111054147Y-103403100D01*
X110961015Y-103542481D01*
X110842481Y-103661015D01*
X110703100Y-103754147D01*
X110548228Y-103818297D01*
X110383816Y-103851000D01*
X110216184Y-103851000D01*
X110051772Y-103818297D01*
X109896900Y-103754147D01*
X109757519Y-103661015D01*
X109638985Y-103542481D01*
X109545853Y-103403100D01*
X109481703Y-103248228D01*
X109449000Y-103083816D01*
X109449000Y-102916184D01*
X109481703Y-102751772D01*
X109545853Y-102596900D01*
X109638985Y-102457519D01*
X109757519Y-102338985D01*
X109896900Y-102245853D01*
X110051772Y-102181703D01*
X110216184Y-102149000D01*
X110383816Y-102149000D01*
X110548228Y-102181703D01*
X110548228Y-102181703D01*
G37*
G36*
X141610443Y-100225519D02*
X141676627Y-100232037D01*
X141789853Y-100266384D01*
X141846467Y-100283557D01*
X141985087Y-100357652D01*
X142002991Y-100367222D01*
X142038729Y-100396552D01*
X142140186Y-100479814D01*
X142223448Y-100581271D01*
X142252778Y-100617009D01*
X142252779Y-100617011D01*
X142336443Y-100773533D01*
X142336443Y-100773534D01*
X142387963Y-100943373D01*
X142405359Y-101120000D01*
X142387963Y-101296627D01*
X142353616Y-101409853D01*
X142336443Y-101466467D01*
X142262348Y-101605087D01*
X142252778Y-101622991D01*
X142223448Y-101658729D01*
X142140186Y-101760186D01*
X142038729Y-101843448D01*
X142002991Y-101872778D01*
X142002989Y-101872779D01*
X141846467Y-101956443D01*
X141789853Y-101973616D01*
X141676627Y-102007963D01*
X141610442Y-102014482D01*
X141544260Y-102021000D01*
X141455740Y-102021000D01*
X141389557Y-102014481D01*
X141323373Y-102007963D01*
X141210147Y-101973616D01*
X141153533Y-101956443D01*
X140997011Y-101872779D01*
X140997009Y-101872778D01*
X140961271Y-101843448D01*
X140859814Y-101760186D01*
X140776552Y-101658729D01*
X140747222Y-101622991D01*
X140737652Y-101605087D01*
X140663557Y-101466467D01*
X140646384Y-101409853D01*
X140612037Y-101296627D01*
X140594641Y-101120000D01*
X140612037Y-100943373D01*
X140663557Y-100773534D01*
X140663557Y-100773533D01*
X140747221Y-100617011D01*
X140747222Y-100617009D01*
X140776552Y-100581271D01*
X140859814Y-100479814D01*
X140961271Y-100396552D01*
X140997009Y-100367222D01*
X141014913Y-100357652D01*
X141153533Y-100283557D01*
X141210147Y-100266384D01*
X141323373Y-100232037D01*
X141389557Y-100225519D01*
X141455740Y-100219000D01*
X141544260Y-100219000D01*
X141610443Y-100225519D01*
X141610443Y-100225519D01*
G37*
G36*
X88306565Y-97989389D02*
X88497834Y-98068615D01*
X88669976Y-98183637D01*
X88816363Y-98330024D01*
X88931385Y-98502166D01*
X89010611Y-98693435D01*
X89051000Y-98896484D01*
X89051000Y-99103516D01*
X89010611Y-99306565D01*
X88931385Y-99497834D01*
X88816363Y-99669976D01*
X88669976Y-99816363D01*
X88497834Y-99931385D01*
X88306565Y-100010611D01*
X88103516Y-100051000D01*
X87896484Y-100051000D01*
X87693435Y-100010611D01*
X87502166Y-99931385D01*
X87330024Y-99816363D01*
X87183637Y-99669976D01*
X87068615Y-99497834D01*
X86989389Y-99306565D01*
X86949000Y-99103516D01*
X86949000Y-98896484D01*
X86989389Y-98693435D01*
X87068615Y-98502166D01*
X87183637Y-98330024D01*
X87330024Y-98183637D01*
X87502166Y-98068615D01*
X87693435Y-97989389D01*
X87896484Y-97949000D01*
X88103516Y-97949000D01*
X88306565Y-97989389D01*
X88306565Y-97989389D01*
G37*
G36*
X141610442Y-97685518D02*
X141676627Y-97692037D01*
X141789853Y-97726384D01*
X141846467Y-97743557D01*
X141985087Y-97817652D01*
X142002991Y-97827222D01*
X142038729Y-97856552D01*
X142140186Y-97939814D01*
X142223448Y-98041271D01*
X142252778Y-98077009D01*
X142252779Y-98077011D01*
X142336443Y-98233533D01*
X142336443Y-98233534D01*
X142387963Y-98403373D01*
X142405359Y-98580000D01*
X142387963Y-98756627D01*
X142353616Y-98869853D01*
X142336443Y-98926467D01*
X142262348Y-99065087D01*
X142252778Y-99082991D01*
X142235935Y-99103514D01*
X142140186Y-99220186D01*
X142038729Y-99303448D01*
X142002991Y-99332778D01*
X142002989Y-99332779D01*
X141846467Y-99416443D01*
X141789853Y-99433616D01*
X141676627Y-99467963D01*
X141610443Y-99474481D01*
X141544260Y-99481000D01*
X141455740Y-99481000D01*
X141389557Y-99474481D01*
X141323373Y-99467963D01*
X141210147Y-99433616D01*
X141153533Y-99416443D01*
X140997011Y-99332779D01*
X140997009Y-99332778D01*
X140961271Y-99303448D01*
X140859814Y-99220186D01*
X140764065Y-99103514D01*
X140747222Y-99082991D01*
X140737652Y-99065087D01*
X140663557Y-98926467D01*
X140646384Y-98869853D01*
X140612037Y-98756627D01*
X140594641Y-98580000D01*
X140612037Y-98403373D01*
X140663557Y-98233534D01*
X140663557Y-98233533D01*
X140747221Y-98077011D01*
X140747222Y-98077009D01*
X140776552Y-98041271D01*
X140859814Y-97939814D01*
X140961271Y-97856552D01*
X140997009Y-97827222D01*
X141014913Y-97817652D01*
X141153533Y-97743557D01*
X141210147Y-97726384D01*
X141323373Y-97692037D01*
X141389558Y-97685518D01*
X141455740Y-97679000D01*
X141544260Y-97679000D01*
X141610442Y-97685518D01*
X141610442Y-97685518D01*
G37*
G36*
X135096001Y-98175999D02*
X133394001Y-98175999D01*
X133394001Y-96473999D01*
X135096001Y-96473999D01*
X135096001Y-98175999D01*
X135096001Y-98175999D01*
G37*
G36*
X141610443Y-95145519D02*
X141676627Y-95152037D01*
X141789853Y-95186384D01*
X141846467Y-95203557D01*
X141985087Y-95277652D01*
X142002991Y-95287222D01*
X142038729Y-95316552D01*
X142140186Y-95399814D01*
X142223448Y-95501271D01*
X142252778Y-95537009D01*
X142252779Y-95537011D01*
X142336443Y-95693533D01*
X142336443Y-95693534D01*
X142387963Y-95863373D01*
X142405359Y-96040000D01*
X142387963Y-96216627D01*
X142353616Y-96329853D01*
X142336443Y-96386467D01*
X142289655Y-96473999D01*
X142252778Y-96542991D01*
X142223448Y-96578729D01*
X142140186Y-96680186D01*
X142038729Y-96763448D01*
X142002991Y-96792778D01*
X142002989Y-96792779D01*
X141846467Y-96876443D01*
X141789853Y-96893616D01*
X141676627Y-96927963D01*
X141610442Y-96934482D01*
X141544260Y-96941000D01*
X141455740Y-96941000D01*
X141389558Y-96934482D01*
X141323373Y-96927963D01*
X141210147Y-96893616D01*
X141153533Y-96876443D01*
X140997011Y-96792779D01*
X140997009Y-96792778D01*
X140961271Y-96763448D01*
X140859814Y-96680186D01*
X140776552Y-96578729D01*
X140747222Y-96542991D01*
X140710345Y-96473999D01*
X140663557Y-96386467D01*
X140646384Y-96329853D01*
X140612037Y-96216627D01*
X140594641Y-96040000D01*
X140612037Y-95863373D01*
X140663557Y-95693534D01*
X140663557Y-95693533D01*
X140747221Y-95537011D01*
X140747222Y-95537009D01*
X140776552Y-95501271D01*
X140859814Y-95399814D01*
X140961271Y-95316552D01*
X140997009Y-95287222D01*
X141014913Y-95277652D01*
X141153533Y-95203557D01*
X141210147Y-95186384D01*
X141323373Y-95152037D01*
X141389557Y-95145519D01*
X141455740Y-95139000D01*
X141544260Y-95139000D01*
X141610443Y-95145519D01*
X141610443Y-95145519D01*
G37*
G36*
X126351000Y-95851000D02*
X124649000Y-95851000D01*
X124649000Y-94149000D01*
X126351000Y-94149000D01*
X126351000Y-95851000D01*
X126351000Y-95851000D01*
G37*
G36*
X107451001Y-95226001D02*
X105749001Y-95226001D01*
X105749001Y-93524001D01*
X107451001Y-93524001D01*
X107451001Y-95226001D01*
X107451001Y-95226001D01*
G37*
G36*
X109348229Y-93556704D02*
X109503101Y-93620854D01*
X109642482Y-93713986D01*
X109761016Y-93832520D01*
X109854148Y-93971901D01*
X109918298Y-94126773D01*
X109951001Y-94291185D01*
X109951001Y-94458817D01*
X109918298Y-94623229D01*
X109854148Y-94778101D01*
X109761016Y-94917482D01*
X109642482Y-95036016D01*
X109503101Y-95129148D01*
X109348229Y-95193298D01*
X109183817Y-95226001D01*
X109016185Y-95226001D01*
X108851773Y-95193298D01*
X108696901Y-95129148D01*
X108557520Y-95036016D01*
X108438986Y-94917482D01*
X108345854Y-94778101D01*
X108281704Y-94623229D01*
X108249001Y-94458817D01*
X108249001Y-94291185D01*
X108281704Y-94126773D01*
X108345854Y-93971901D01*
X108438986Y-93832520D01*
X108557520Y-93713986D01*
X108696901Y-93620854D01*
X108851773Y-93556704D01*
X109016185Y-93524001D01*
X109183817Y-93524001D01*
X109348229Y-93556704D01*
X109348229Y-93556704D01*
G37*
G36*
X142401000Y-94401000D02*
X140599000Y-94401000D01*
X140599000Y-92599000D01*
X142401000Y-92599000D01*
X142401000Y-94401000D01*
X142401000Y-94401000D01*
G37*
G36*
X134493229Y-92706702D02*
X134648101Y-92770852D01*
X134787482Y-92863984D01*
X134906016Y-92982518D01*
X134999148Y-93121899D01*
X135063298Y-93276771D01*
X135096001Y-93441183D01*
X135096001Y-93608815D01*
X135063298Y-93773227D01*
X134999148Y-93928099D01*
X134906016Y-94067480D01*
X134787482Y-94186014D01*
X134648101Y-94279146D01*
X134493229Y-94343296D01*
X134328817Y-94375999D01*
X134161185Y-94375999D01*
X133996773Y-94343296D01*
X133841901Y-94279146D01*
X133702520Y-94186014D01*
X133583986Y-94067480D01*
X133490854Y-93928099D01*
X133426704Y-93773227D01*
X133394001Y-93608815D01*
X133394001Y-93441183D01*
X133426704Y-93276771D01*
X133490854Y-93121899D01*
X133583986Y-92982518D01*
X133702520Y-92863984D01*
X133841901Y-92770852D01*
X133996773Y-92706702D01*
X134161185Y-92673999D01*
X134328817Y-92673999D01*
X134493229Y-92706702D01*
X134493229Y-92706702D01*
G37*
G36*
X125748228Y-91681703D02*
X125903100Y-91745853D01*
X126042481Y-91838985D01*
X126161015Y-91957519D01*
X126254147Y-92096900D01*
X126318297Y-92251772D01*
X126351000Y-92416184D01*
X126351000Y-92583816D01*
X126318297Y-92748228D01*
X126254147Y-92903100D01*
X126161015Y-93042481D01*
X126042481Y-93161015D01*
X125903100Y-93254147D01*
X125748228Y-93318297D01*
X125583816Y-93351000D01*
X125416184Y-93351000D01*
X125251772Y-93318297D01*
X125096900Y-93254147D01*
X124957519Y-93161015D01*
X124838985Y-93042481D01*
X124745853Y-92903100D01*
X124681703Y-92748228D01*
X124649000Y-92583816D01*
X124649000Y-92416184D01*
X124681703Y-92251772D01*
X124745853Y-92096900D01*
X124838985Y-91957519D01*
X124957519Y-91838985D01*
X125096900Y-91745853D01*
X125251772Y-91681703D01*
X125416184Y-91649000D01*
X125583816Y-91649000D01*
X125748228Y-91681703D01*
X125748228Y-91681703D01*
G37*
G36*
X122850442Y-86605518D02*
X122916627Y-86612037D01*
X123029853Y-86646384D01*
X123086467Y-86663557D01*
X123225087Y-86737652D01*
X123242991Y-86747222D01*
X123278729Y-86776552D01*
X123380186Y-86859814D01*
X123463448Y-86961271D01*
X123492778Y-86997009D01*
X123492779Y-86997011D01*
X123576443Y-87153533D01*
X123576443Y-87153534D01*
X123627963Y-87323373D01*
X123645359Y-87500000D01*
X123627963Y-87676627D01*
X123593616Y-87789853D01*
X123576443Y-87846467D01*
X123502348Y-87985087D01*
X123492778Y-88002991D01*
X123463448Y-88038729D01*
X123380186Y-88140186D01*
X123278729Y-88223448D01*
X123242991Y-88252778D01*
X123242989Y-88252779D01*
X123086467Y-88336443D01*
X123029853Y-88353616D01*
X122916627Y-88387963D01*
X122850443Y-88394481D01*
X122784260Y-88401000D01*
X122695740Y-88401000D01*
X122629557Y-88394481D01*
X122563373Y-88387963D01*
X122450147Y-88353616D01*
X122393533Y-88336443D01*
X122237011Y-88252779D01*
X122237009Y-88252778D01*
X122201271Y-88223448D01*
X122099814Y-88140186D01*
X122016552Y-88038729D01*
X121987222Y-88002991D01*
X121977652Y-87985087D01*
X121903557Y-87846467D01*
X121886384Y-87789853D01*
X121852037Y-87676627D01*
X121834641Y-87500000D01*
X121852037Y-87323373D01*
X121903557Y-87153534D01*
X121903557Y-87153533D01*
X121987221Y-86997011D01*
X121987222Y-86997009D01*
X122016552Y-86961271D01*
X122099814Y-86859814D01*
X122201271Y-86776552D01*
X122237009Y-86747222D01*
X122254913Y-86737652D01*
X122393533Y-86663557D01*
X122450147Y-86646384D01*
X122563373Y-86612037D01*
X122629558Y-86605518D01*
X122695740Y-86599000D01*
X122784260Y-86599000D01*
X122850442Y-86605518D01*
X122850442Y-86605518D01*
G37*
G36*
X120310442Y-86605518D02*
X120376627Y-86612037D01*
X120489853Y-86646384D01*
X120546467Y-86663557D01*
X120685087Y-86737652D01*
X120702991Y-86747222D01*
X120738729Y-86776552D01*
X120840186Y-86859814D01*
X120923448Y-86961271D01*
X120952778Y-86997009D01*
X120952779Y-86997011D01*
X121036443Y-87153533D01*
X121036443Y-87153534D01*
X121087963Y-87323373D01*
X121105359Y-87500000D01*
X121087963Y-87676627D01*
X121053616Y-87789853D01*
X121036443Y-87846467D01*
X120962348Y-87985087D01*
X120952778Y-88002991D01*
X120923448Y-88038729D01*
X120840186Y-88140186D01*
X120738729Y-88223448D01*
X120702991Y-88252778D01*
X120702989Y-88252779D01*
X120546467Y-88336443D01*
X120489853Y-88353616D01*
X120376627Y-88387963D01*
X120310443Y-88394481D01*
X120244260Y-88401000D01*
X120155740Y-88401000D01*
X120089557Y-88394481D01*
X120023373Y-88387963D01*
X119910147Y-88353616D01*
X119853533Y-88336443D01*
X119697011Y-88252779D01*
X119697009Y-88252778D01*
X119661271Y-88223448D01*
X119559814Y-88140186D01*
X119476552Y-88038729D01*
X119447222Y-88002991D01*
X119437652Y-87985087D01*
X119363557Y-87846467D01*
X119346384Y-87789853D01*
X119312037Y-87676627D01*
X119294641Y-87500000D01*
X119312037Y-87323373D01*
X119363557Y-87153534D01*
X119363557Y-87153533D01*
X119447221Y-86997011D01*
X119447222Y-86997009D01*
X119476552Y-86961271D01*
X119559814Y-86859814D01*
X119661271Y-86776552D01*
X119697009Y-86747222D01*
X119714913Y-86737652D01*
X119853533Y-86663557D01*
X119910147Y-86646384D01*
X120023373Y-86612037D01*
X120089558Y-86605518D01*
X120155740Y-86599000D01*
X120244260Y-86599000D01*
X120310442Y-86605518D01*
X120310442Y-86605518D01*
G37*
G36*
X117770442Y-86605518D02*
X117836627Y-86612037D01*
X117949853Y-86646384D01*
X118006467Y-86663557D01*
X118145087Y-86737652D01*
X118162991Y-86747222D01*
X118198729Y-86776552D01*
X118300186Y-86859814D01*
X118383448Y-86961271D01*
X118412778Y-86997009D01*
X118412779Y-86997011D01*
X118496443Y-87153533D01*
X118496443Y-87153534D01*
X118547963Y-87323373D01*
X118565359Y-87500000D01*
X118547963Y-87676627D01*
X118513616Y-87789853D01*
X118496443Y-87846467D01*
X118422348Y-87985087D01*
X118412778Y-88002991D01*
X118383448Y-88038729D01*
X118300186Y-88140186D01*
X118198729Y-88223448D01*
X118162991Y-88252778D01*
X118162989Y-88252779D01*
X118006467Y-88336443D01*
X117949853Y-88353616D01*
X117836627Y-88387963D01*
X117770443Y-88394481D01*
X117704260Y-88401000D01*
X117615740Y-88401000D01*
X117549557Y-88394481D01*
X117483373Y-88387963D01*
X117370147Y-88353616D01*
X117313533Y-88336443D01*
X117157011Y-88252779D01*
X117157009Y-88252778D01*
X117121271Y-88223448D01*
X117019814Y-88140186D01*
X116936552Y-88038729D01*
X116907222Y-88002991D01*
X116897652Y-87985087D01*
X116823557Y-87846467D01*
X116806384Y-87789853D01*
X116772037Y-87676627D01*
X116754641Y-87500000D01*
X116772037Y-87323373D01*
X116823557Y-87153534D01*
X116823557Y-87153533D01*
X116907221Y-86997011D01*
X116907222Y-86997009D01*
X116936552Y-86961271D01*
X117019814Y-86859814D01*
X117121271Y-86776552D01*
X117157009Y-86747222D01*
X117174913Y-86737652D01*
X117313533Y-86663557D01*
X117370147Y-86646384D01*
X117483373Y-86612037D01*
X117549558Y-86605518D01*
X117615740Y-86599000D01*
X117704260Y-86599000D01*
X117770442Y-86605518D01*
X117770442Y-86605518D01*
G37*
G36*
X115230442Y-86605518D02*
X115296627Y-86612037D01*
X115409853Y-86646384D01*
X115466467Y-86663557D01*
X115605087Y-86737652D01*
X115622991Y-86747222D01*
X115658729Y-86776552D01*
X115760186Y-86859814D01*
X115843448Y-86961271D01*
X115872778Y-86997009D01*
X115872779Y-86997011D01*
X115956443Y-87153533D01*
X115956443Y-87153534D01*
X116007963Y-87323373D01*
X116025359Y-87500000D01*
X116007963Y-87676627D01*
X115973616Y-87789853D01*
X115956443Y-87846467D01*
X115882348Y-87985087D01*
X115872778Y-88002991D01*
X115843448Y-88038729D01*
X115760186Y-88140186D01*
X115658729Y-88223448D01*
X115622991Y-88252778D01*
X115622989Y-88252779D01*
X115466467Y-88336443D01*
X115409853Y-88353616D01*
X115296627Y-88387963D01*
X115230443Y-88394481D01*
X115164260Y-88401000D01*
X115075740Y-88401000D01*
X115009557Y-88394481D01*
X114943373Y-88387963D01*
X114830147Y-88353616D01*
X114773533Y-88336443D01*
X114617011Y-88252779D01*
X114617009Y-88252778D01*
X114581271Y-88223448D01*
X114479814Y-88140186D01*
X114396552Y-88038729D01*
X114367222Y-88002991D01*
X114357652Y-87985087D01*
X114283557Y-87846467D01*
X114266384Y-87789853D01*
X114232037Y-87676627D01*
X114214641Y-87500000D01*
X114232037Y-87323373D01*
X114283557Y-87153534D01*
X114283557Y-87153533D01*
X114367221Y-86997011D01*
X114367222Y-86997009D01*
X114396552Y-86961271D01*
X114479814Y-86859814D01*
X114581271Y-86776552D01*
X114617009Y-86747222D01*
X114634913Y-86737652D01*
X114773533Y-86663557D01*
X114830147Y-86646384D01*
X114943373Y-86612037D01*
X115009558Y-86605518D01*
X115075740Y-86599000D01*
X115164260Y-86599000D01*
X115230442Y-86605518D01*
X115230442Y-86605518D01*
G37*
G36*
X126181000Y-88401000D02*
X124379000Y-88401000D01*
X124379000Y-86599000D01*
X126181000Y-86599000D01*
X126181000Y-88401000D01*
X126181000Y-88401000D01*
G37*
G36*
X107610442Y-86605518D02*
X107676627Y-86612037D01*
X107789853Y-86646384D01*
X107846467Y-86663557D01*
X107985087Y-86737652D01*
X108002991Y-86747222D01*
X108038729Y-86776552D01*
X108140186Y-86859814D01*
X108223448Y-86961271D01*
X108252778Y-86997009D01*
X108252779Y-86997011D01*
X108336443Y-87153533D01*
X108336443Y-87153534D01*
X108387963Y-87323373D01*
X108405359Y-87500000D01*
X108387963Y-87676627D01*
X108353616Y-87789853D01*
X108336443Y-87846467D01*
X108262348Y-87985087D01*
X108252778Y-88002991D01*
X108223448Y-88038729D01*
X108140186Y-88140186D01*
X108038729Y-88223448D01*
X108002991Y-88252778D01*
X108002989Y-88252779D01*
X107846467Y-88336443D01*
X107789853Y-88353616D01*
X107676627Y-88387963D01*
X107610443Y-88394481D01*
X107544260Y-88401000D01*
X107455740Y-88401000D01*
X107389557Y-88394481D01*
X107323373Y-88387963D01*
X107210147Y-88353616D01*
X107153533Y-88336443D01*
X106997011Y-88252779D01*
X106997009Y-88252778D01*
X106961271Y-88223448D01*
X106859814Y-88140186D01*
X106776552Y-88038729D01*
X106747222Y-88002991D01*
X106737652Y-87985087D01*
X106663557Y-87846467D01*
X106646384Y-87789853D01*
X106612037Y-87676627D01*
X106594641Y-87500000D01*
X106612037Y-87323373D01*
X106663557Y-87153534D01*
X106663557Y-87153533D01*
X106747221Y-86997011D01*
X106747222Y-86997009D01*
X106776552Y-86961271D01*
X106859814Y-86859814D01*
X106961271Y-86776552D01*
X106997009Y-86747222D01*
X107014913Y-86737652D01*
X107153533Y-86663557D01*
X107210147Y-86646384D01*
X107323373Y-86612037D01*
X107389558Y-86605518D01*
X107455740Y-86599000D01*
X107544260Y-86599000D01*
X107610442Y-86605518D01*
X107610442Y-86605518D01*
G37*
G36*
X110150442Y-86605518D02*
X110216627Y-86612037D01*
X110329853Y-86646384D01*
X110386467Y-86663557D01*
X110525087Y-86737652D01*
X110542991Y-86747222D01*
X110578729Y-86776552D01*
X110680186Y-86859814D01*
X110763448Y-86961271D01*
X110792778Y-86997009D01*
X110792779Y-86997011D01*
X110876443Y-87153533D01*
X110876443Y-87153534D01*
X110927963Y-87323373D01*
X110945359Y-87500000D01*
X110927963Y-87676627D01*
X110893616Y-87789853D01*
X110876443Y-87846467D01*
X110802348Y-87985087D01*
X110792778Y-88002991D01*
X110763448Y-88038729D01*
X110680186Y-88140186D01*
X110578729Y-88223448D01*
X110542991Y-88252778D01*
X110542989Y-88252779D01*
X110386467Y-88336443D01*
X110329853Y-88353616D01*
X110216627Y-88387963D01*
X110150443Y-88394481D01*
X110084260Y-88401000D01*
X109995740Y-88401000D01*
X109929557Y-88394481D01*
X109863373Y-88387963D01*
X109750147Y-88353616D01*
X109693533Y-88336443D01*
X109537011Y-88252779D01*
X109537009Y-88252778D01*
X109501271Y-88223448D01*
X109399814Y-88140186D01*
X109316552Y-88038729D01*
X109287222Y-88002991D01*
X109277652Y-87985087D01*
X109203557Y-87846467D01*
X109186384Y-87789853D01*
X109152037Y-87676627D01*
X109134641Y-87500000D01*
X109152037Y-87323373D01*
X109203557Y-87153534D01*
X109203557Y-87153533D01*
X109287221Y-86997011D01*
X109287222Y-86997009D01*
X109316552Y-86961271D01*
X109399814Y-86859814D01*
X109501271Y-86776552D01*
X109537009Y-86747222D01*
X109554913Y-86737652D01*
X109693533Y-86663557D01*
X109750147Y-86646384D01*
X109863373Y-86612037D01*
X109929558Y-86605518D01*
X109995740Y-86599000D01*
X110084260Y-86599000D01*
X110150442Y-86605518D01*
X110150442Y-86605518D01*
G37*
G36*
X112690442Y-86605518D02*
X112756627Y-86612037D01*
X112869853Y-86646384D01*
X112926467Y-86663557D01*
X113065087Y-86737652D01*
X113082991Y-86747222D01*
X113118729Y-86776552D01*
X113220186Y-86859814D01*
X113303448Y-86961271D01*
X113332778Y-86997009D01*
X113332779Y-86997011D01*
X113416443Y-87153533D01*
X113416443Y-87153534D01*
X113467963Y-87323373D01*
X113485359Y-87500000D01*
X113467963Y-87676627D01*
X113433616Y-87789853D01*
X113416443Y-87846467D01*
X113342348Y-87985087D01*
X113332778Y-88002991D01*
X113303448Y-88038729D01*
X113220186Y-88140186D01*
X113118729Y-88223448D01*
X113082991Y-88252778D01*
X113082989Y-88252779D01*
X112926467Y-88336443D01*
X112869853Y-88353616D01*
X112756627Y-88387963D01*
X112690443Y-88394481D01*
X112624260Y-88401000D01*
X112535740Y-88401000D01*
X112469557Y-88394481D01*
X112403373Y-88387963D01*
X112290147Y-88353616D01*
X112233533Y-88336443D01*
X112077011Y-88252779D01*
X112077009Y-88252778D01*
X112041271Y-88223448D01*
X111939814Y-88140186D01*
X111856552Y-88038729D01*
X111827222Y-88002991D01*
X111817652Y-87985087D01*
X111743557Y-87846467D01*
X111726384Y-87789853D01*
X111692037Y-87676627D01*
X111674641Y-87500000D01*
X111692037Y-87323373D01*
X111743557Y-87153534D01*
X111743557Y-87153533D01*
X111827221Y-86997011D01*
X111827222Y-86997009D01*
X111856552Y-86961271D01*
X111939814Y-86859814D01*
X112041271Y-86776552D01*
X112077009Y-86747222D01*
X112094913Y-86737652D01*
X112233533Y-86663557D01*
X112290147Y-86646384D01*
X112403373Y-86612037D01*
X112469558Y-86605518D01*
X112535740Y-86599000D01*
X112624260Y-86599000D01*
X112690442Y-86605518D01*
X112690442Y-86605518D01*
G37*
G36*
X89535786Y-70085462D02*
X89535788Y-70085463D01*
X89535789Y-70085463D01*
X90182029Y-70353144D01*
X90643323Y-70661371D01*
X90763634Y-70741760D01*
X91258240Y-71236366D01*
X91258242Y-71236369D01*
X91646856Y-71817971D01*
X91856200Y-72323373D01*
X91914538Y-72464214D01*
X92051000Y-73150256D01*
X92051000Y-73849744D01*
X92034307Y-73933668D01*
X91914537Y-74535789D01*
X91646856Y-75182029D01*
X91306551Y-75691332D01*
X91258240Y-75763634D01*
X90763634Y-76258240D01*
X90763631Y-76258242D01*
X90182029Y-76646856D01*
X89535789Y-76914537D01*
X89535788Y-76914537D01*
X89535786Y-76914538D01*
X88849744Y-77051000D01*
X88150256Y-77051000D01*
X87464214Y-76914538D01*
X87464212Y-76914537D01*
X87464211Y-76914537D01*
X86817971Y-76646856D01*
X86236369Y-76258242D01*
X86236366Y-76258240D01*
X85741760Y-75763634D01*
X85693449Y-75691332D01*
X85353144Y-75182029D01*
X85085463Y-74535789D01*
X84965694Y-73933668D01*
X84949000Y-73849744D01*
X84949000Y-73150256D01*
X85085462Y-72464214D01*
X85143800Y-72323373D01*
X85353144Y-71817971D01*
X85741758Y-71236369D01*
X85741760Y-71236366D01*
X86236366Y-70741760D01*
X86356677Y-70661371D01*
X86817971Y-70353144D01*
X87464211Y-70085463D01*
X87464212Y-70085463D01*
X87464214Y-70085462D01*
X88150256Y-69949000D01*
X88849744Y-69949000D01*
X89535786Y-70085462D01*
X89535786Y-70085462D01*
G37*
G36*
X141535786Y-70085462D02*
X141535788Y-70085463D01*
X141535789Y-70085463D01*
X142182029Y-70353144D01*
X142643323Y-70661371D01*
X142763634Y-70741760D01*
X143258240Y-71236366D01*
X143258242Y-71236369D01*
X143646856Y-71817971D01*
X143856200Y-72323373D01*
X143914538Y-72464214D01*
X144051000Y-73150256D01*
X144051000Y-73849744D01*
X144034307Y-73933668D01*
X143914537Y-74535789D01*
X143646856Y-75182029D01*
X143306551Y-75691332D01*
X143258240Y-75763634D01*
X142763634Y-76258240D01*
X142763631Y-76258242D01*
X142182029Y-76646856D01*
X141535789Y-76914537D01*
X141535788Y-76914537D01*
X141535786Y-76914538D01*
X140849744Y-77051000D01*
X140150256Y-77051000D01*
X139464214Y-76914538D01*
X139464212Y-76914537D01*
X139464211Y-76914537D01*
X138817971Y-76646856D01*
X138236369Y-76258242D01*
X138236366Y-76258240D01*
X137741760Y-75763634D01*
X137693449Y-75691332D01*
X137353144Y-75182029D01*
X137085463Y-74535789D01*
X136965694Y-73933668D01*
X136949000Y-73849744D01*
X136949000Y-73150256D01*
X137085462Y-72464214D01*
X137143800Y-72323373D01*
X137353144Y-71817971D01*
X137741758Y-71236369D01*
X137741760Y-71236366D01*
X138236366Y-70741760D01*
X138356677Y-70661371D01*
X138817971Y-70353144D01*
X139464211Y-70085463D01*
X139464212Y-70085463D01*
X139464214Y-70085462D01*
X140150256Y-69949000D01*
X140849744Y-69949000D01*
X141535786Y-70085462D01*
X141535786Y-70085462D01*
G37*
G36*
X115230443Y-71605519D02*
X115296627Y-71612037D01*
X115409853Y-71646384D01*
X115466467Y-71663557D01*
X115605087Y-71737652D01*
X115622991Y-71747222D01*
X115657322Y-71775397D01*
X115760186Y-71859814D01*
X115843448Y-71961271D01*
X115872778Y-71997009D01*
X115872779Y-71997011D01*
X115956443Y-72153533D01*
X115956443Y-72153534D01*
X116007963Y-72323373D01*
X116025359Y-72500000D01*
X116007963Y-72676627D01*
X115973616Y-72789853D01*
X115956443Y-72846467D01*
X115882348Y-72985087D01*
X115872778Y-73002991D01*
X115843448Y-73038729D01*
X115760186Y-73140186D01*
X115672065Y-73212504D01*
X115622991Y-73252778D01*
X115622989Y-73252779D01*
X115466467Y-73336443D01*
X115409853Y-73353616D01*
X115296627Y-73387963D01*
X115230443Y-73394481D01*
X115164260Y-73401000D01*
X115075740Y-73401000D01*
X115009557Y-73394481D01*
X114943373Y-73387963D01*
X114830147Y-73353616D01*
X114773533Y-73336443D01*
X114617011Y-73252779D01*
X114617009Y-73252778D01*
X114567935Y-73212504D01*
X114479814Y-73140186D01*
X114396552Y-73038729D01*
X114367222Y-73002991D01*
X114357652Y-72985087D01*
X114283557Y-72846467D01*
X114266384Y-72789853D01*
X114232037Y-72676627D01*
X114214641Y-72500000D01*
X114232037Y-72323373D01*
X114283557Y-72153534D01*
X114283557Y-72153533D01*
X114367221Y-71997011D01*
X114367222Y-71997009D01*
X114396552Y-71961271D01*
X114479814Y-71859814D01*
X114582678Y-71775397D01*
X114617009Y-71747222D01*
X114634913Y-71737652D01*
X114773533Y-71663557D01*
X114830147Y-71646384D01*
X114943373Y-71612037D01*
X115009557Y-71605519D01*
X115075740Y-71599000D01*
X115164260Y-71599000D01*
X115230443Y-71605519D01*
X115230443Y-71605519D01*
G37*
G36*
X107610443Y-71605519D02*
X107676627Y-71612037D01*
X107789853Y-71646384D01*
X107846467Y-71663557D01*
X107985087Y-71737652D01*
X108002991Y-71747222D01*
X108037322Y-71775397D01*
X108140186Y-71859814D01*
X108223448Y-71961271D01*
X108252778Y-71997009D01*
X108252779Y-71997011D01*
X108336443Y-72153533D01*
X108336443Y-72153534D01*
X108387963Y-72323373D01*
X108405359Y-72500000D01*
X108387963Y-72676627D01*
X108353616Y-72789853D01*
X108336443Y-72846467D01*
X108262348Y-72985087D01*
X108252778Y-73002991D01*
X108223448Y-73038729D01*
X108140186Y-73140186D01*
X108052065Y-73212504D01*
X108002991Y-73252778D01*
X108002989Y-73252779D01*
X107846467Y-73336443D01*
X107789853Y-73353616D01*
X107676627Y-73387963D01*
X107610443Y-73394481D01*
X107544260Y-73401000D01*
X107455740Y-73401000D01*
X107389557Y-73394481D01*
X107323373Y-73387963D01*
X107210147Y-73353616D01*
X107153533Y-73336443D01*
X106997011Y-73252779D01*
X106997009Y-73252778D01*
X106947935Y-73212504D01*
X106859814Y-73140186D01*
X106776552Y-73038729D01*
X106747222Y-73002991D01*
X106737652Y-72985087D01*
X106663557Y-72846467D01*
X106646384Y-72789853D01*
X106612037Y-72676627D01*
X106594641Y-72500000D01*
X106612037Y-72323373D01*
X106663557Y-72153534D01*
X106663557Y-72153533D01*
X106747221Y-71997011D01*
X106747222Y-71997009D01*
X106776552Y-71961271D01*
X106859814Y-71859814D01*
X106962678Y-71775397D01*
X106997009Y-71747222D01*
X107014913Y-71737652D01*
X107153533Y-71663557D01*
X107210147Y-71646384D01*
X107323373Y-71612037D01*
X107389557Y-71605519D01*
X107455740Y-71599000D01*
X107544260Y-71599000D01*
X107610443Y-71605519D01*
X107610443Y-71605519D01*
G37*
G36*
X110150443Y-71605519D02*
X110216627Y-71612037D01*
X110329853Y-71646384D01*
X110386467Y-71663557D01*
X110525087Y-71737652D01*
X110542991Y-71747222D01*
X110577322Y-71775397D01*
X110680186Y-71859814D01*
X110763448Y-71961271D01*
X110792778Y-71997009D01*
X110792779Y-71997011D01*
X110876443Y-72153533D01*
X110876443Y-72153534D01*
X110927963Y-72323373D01*
X110945359Y-72500000D01*
X110927963Y-72676627D01*
X110893616Y-72789853D01*
X110876443Y-72846467D01*
X110802348Y-72985087D01*
X110792778Y-73002991D01*
X110763448Y-73038729D01*
X110680186Y-73140186D01*
X110592065Y-73212504D01*
X110542991Y-73252778D01*
X110542989Y-73252779D01*
X110386467Y-73336443D01*
X110329853Y-73353616D01*
X110216627Y-73387963D01*
X110150443Y-73394481D01*
X110084260Y-73401000D01*
X109995740Y-73401000D01*
X109929557Y-73394481D01*
X109863373Y-73387963D01*
X109750147Y-73353616D01*
X109693533Y-73336443D01*
X109537011Y-73252779D01*
X109537009Y-73252778D01*
X109487935Y-73212504D01*
X109399814Y-73140186D01*
X109316552Y-73038729D01*
X109287222Y-73002991D01*
X109277652Y-72985087D01*
X109203557Y-72846467D01*
X109186384Y-72789853D01*
X109152037Y-72676627D01*
X109134641Y-72500000D01*
X109152037Y-72323373D01*
X109203557Y-72153534D01*
X109203557Y-72153533D01*
X109287221Y-71997011D01*
X109287222Y-71997009D01*
X109316552Y-71961271D01*
X109399814Y-71859814D01*
X109502678Y-71775397D01*
X109537009Y-71747222D01*
X109554913Y-71737652D01*
X109693533Y-71663557D01*
X109750147Y-71646384D01*
X109863373Y-71612037D01*
X109929557Y-71605519D01*
X109995740Y-71599000D01*
X110084260Y-71599000D01*
X110150443Y-71605519D01*
X110150443Y-71605519D01*
G37*
G36*
X112690443Y-71605519D02*
X112756627Y-71612037D01*
X112869853Y-71646384D01*
X112926467Y-71663557D01*
X113065087Y-71737652D01*
X113082991Y-71747222D01*
X113117322Y-71775397D01*
X113220186Y-71859814D01*
X113303448Y-71961271D01*
X113332778Y-71997009D01*
X113332779Y-71997011D01*
X113416443Y-72153533D01*
X113416443Y-72153534D01*
X113467963Y-72323373D01*
X113485359Y-72500000D01*
X113467963Y-72676627D01*
X113433616Y-72789853D01*
X113416443Y-72846467D01*
X113342348Y-72985087D01*
X113332778Y-73002991D01*
X113303448Y-73038729D01*
X113220186Y-73140186D01*
X113132065Y-73212504D01*
X113082991Y-73252778D01*
X113082989Y-73252779D01*
X112926467Y-73336443D01*
X112869853Y-73353616D01*
X112756627Y-73387963D01*
X112690443Y-73394481D01*
X112624260Y-73401000D01*
X112535740Y-73401000D01*
X112469557Y-73394481D01*
X112403373Y-73387963D01*
X112290147Y-73353616D01*
X112233533Y-73336443D01*
X112077011Y-73252779D01*
X112077009Y-73252778D01*
X112027935Y-73212504D01*
X111939814Y-73140186D01*
X111856552Y-73038729D01*
X111827222Y-73002991D01*
X111817652Y-72985087D01*
X111743557Y-72846467D01*
X111726384Y-72789853D01*
X111692037Y-72676627D01*
X111674641Y-72500000D01*
X111692037Y-72323373D01*
X111743557Y-72153534D01*
X111743557Y-72153533D01*
X111827221Y-71997011D01*
X111827222Y-71997009D01*
X111856552Y-71961271D01*
X111939814Y-71859814D01*
X112042678Y-71775397D01*
X112077009Y-71747222D01*
X112094913Y-71737652D01*
X112233533Y-71663557D01*
X112290147Y-71646384D01*
X112403373Y-71612037D01*
X112469557Y-71605519D01*
X112535740Y-71599000D01*
X112624260Y-71599000D01*
X112690443Y-71605519D01*
X112690443Y-71605519D01*
G37*
G36*
X117770443Y-71605519D02*
X117836627Y-71612037D01*
X117949853Y-71646384D01*
X118006467Y-71663557D01*
X118145087Y-71737652D01*
X118162991Y-71747222D01*
X118197322Y-71775397D01*
X118300186Y-71859814D01*
X118383448Y-71961271D01*
X118412778Y-71997009D01*
X118412779Y-71997011D01*
X118496443Y-72153533D01*
X118496443Y-72153534D01*
X118547963Y-72323373D01*
X118565359Y-72500000D01*
X118547963Y-72676627D01*
X118513616Y-72789853D01*
X118496443Y-72846467D01*
X118422348Y-72985087D01*
X118412778Y-73002991D01*
X118383448Y-73038729D01*
X118300186Y-73140186D01*
X118212065Y-73212504D01*
X118162991Y-73252778D01*
X118162989Y-73252779D01*
X118006467Y-73336443D01*
X117949853Y-73353616D01*
X117836627Y-73387963D01*
X117770443Y-73394481D01*
X117704260Y-73401000D01*
X117615740Y-73401000D01*
X117549557Y-73394481D01*
X117483373Y-73387963D01*
X117370147Y-73353616D01*
X117313533Y-73336443D01*
X117157011Y-73252779D01*
X117157009Y-73252778D01*
X117107935Y-73212504D01*
X117019814Y-73140186D01*
X116936552Y-73038729D01*
X116907222Y-73002991D01*
X116897652Y-72985087D01*
X116823557Y-72846467D01*
X116806384Y-72789853D01*
X116772037Y-72676627D01*
X116754641Y-72500000D01*
X116772037Y-72323373D01*
X116823557Y-72153534D01*
X116823557Y-72153533D01*
X116907221Y-71997011D01*
X116907222Y-71997009D01*
X116936552Y-71961271D01*
X117019814Y-71859814D01*
X117122678Y-71775397D01*
X117157009Y-71747222D01*
X117174913Y-71737652D01*
X117313533Y-71663557D01*
X117370147Y-71646384D01*
X117483373Y-71612037D01*
X117549557Y-71605519D01*
X117615740Y-71599000D01*
X117704260Y-71599000D01*
X117770443Y-71605519D01*
X117770443Y-71605519D01*
G37*
G36*
X120310443Y-71605519D02*
X120376627Y-71612037D01*
X120489853Y-71646384D01*
X120546467Y-71663557D01*
X120685087Y-71737652D01*
X120702991Y-71747222D01*
X120737322Y-71775397D01*
X120840186Y-71859814D01*
X120923448Y-71961271D01*
X120952778Y-71997009D01*
X120952779Y-71997011D01*
X121036443Y-72153533D01*
X121036443Y-72153534D01*
X121087963Y-72323373D01*
X121105359Y-72500000D01*
X121087963Y-72676627D01*
X121053616Y-72789853D01*
X121036443Y-72846467D01*
X120962348Y-72985087D01*
X120952778Y-73002991D01*
X120923448Y-73038729D01*
X120840186Y-73140186D01*
X120752065Y-73212504D01*
X120702991Y-73252778D01*
X120702989Y-73252779D01*
X120546467Y-73336443D01*
X120489853Y-73353616D01*
X120376627Y-73387963D01*
X120310443Y-73394481D01*
X120244260Y-73401000D01*
X120155740Y-73401000D01*
X120089557Y-73394481D01*
X120023373Y-73387963D01*
X119910147Y-73353616D01*
X119853533Y-73336443D01*
X119697011Y-73252779D01*
X119697009Y-73252778D01*
X119647935Y-73212504D01*
X119559814Y-73140186D01*
X119476552Y-73038729D01*
X119447222Y-73002991D01*
X119437652Y-72985087D01*
X119363557Y-72846467D01*
X119346384Y-72789853D01*
X119312037Y-72676627D01*
X119294641Y-72500000D01*
X119312037Y-72323373D01*
X119363557Y-72153534D01*
X119363557Y-72153533D01*
X119447221Y-71997011D01*
X119447222Y-71997009D01*
X119476552Y-71961271D01*
X119559814Y-71859814D01*
X119662678Y-71775397D01*
X119697009Y-71747222D01*
X119714913Y-71737652D01*
X119853533Y-71663557D01*
X119910147Y-71646384D01*
X120023373Y-71612037D01*
X120089557Y-71605519D01*
X120155740Y-71599000D01*
X120244260Y-71599000D01*
X120310443Y-71605519D01*
X120310443Y-71605519D01*
G37*
G36*
X122850443Y-71605519D02*
X122916627Y-71612037D01*
X123029853Y-71646384D01*
X123086467Y-71663557D01*
X123225087Y-71737652D01*
X123242991Y-71747222D01*
X123277322Y-71775397D01*
X123380186Y-71859814D01*
X123463448Y-71961271D01*
X123492778Y-71997009D01*
X123492779Y-71997011D01*
X123576443Y-72153533D01*
X123576443Y-72153534D01*
X123627963Y-72323373D01*
X123645359Y-72500000D01*
X123627963Y-72676627D01*
X123593616Y-72789853D01*
X123576443Y-72846467D01*
X123502348Y-72985087D01*
X123492778Y-73002991D01*
X123463448Y-73038729D01*
X123380186Y-73140186D01*
X123292065Y-73212504D01*
X123242991Y-73252778D01*
X123242989Y-73252779D01*
X123086467Y-73336443D01*
X123029853Y-73353616D01*
X122916627Y-73387963D01*
X122850443Y-73394481D01*
X122784260Y-73401000D01*
X122695740Y-73401000D01*
X122629557Y-73394481D01*
X122563373Y-73387963D01*
X122450147Y-73353616D01*
X122393533Y-73336443D01*
X122237011Y-73252779D01*
X122237009Y-73252778D01*
X122187935Y-73212504D01*
X122099814Y-73140186D01*
X122016552Y-73038729D01*
X121987222Y-73002991D01*
X121977652Y-72985087D01*
X121903557Y-72846467D01*
X121886384Y-72789853D01*
X121852037Y-72676627D01*
X121834641Y-72500000D01*
X121852037Y-72323373D01*
X121903557Y-72153534D01*
X121903557Y-72153533D01*
X121987221Y-71997011D01*
X121987222Y-71997009D01*
X122016552Y-71961271D01*
X122099814Y-71859814D01*
X122202678Y-71775397D01*
X122237009Y-71747222D01*
X122254913Y-71737652D01*
X122393533Y-71663557D01*
X122450147Y-71646384D01*
X122563373Y-71612037D01*
X122629557Y-71605519D01*
X122695740Y-71599000D01*
X122784260Y-71599000D01*
X122850443Y-71605519D01*
X122850443Y-71605519D01*
G37*
G36*
X126181000Y-73401000D02*
X124379000Y-73401000D01*
X124379000Y-71599000D01*
X126181000Y-71599000D01*
X126181000Y-73401000D01*
X126181000Y-73401000D01*
G37*
M02*
