%TF.GenerationSoftware,KiCad,Pcbnew,(5.0.1-3-g963ef8bb5)*%
%TF.CreationDate,2020-02-23T21:28:54+01:00*%
%TF.ProjectId,ethersweep,657468657273776565702E6B69636164,rev?*%
%TF.SameCoordinates,Original*%
%TF.FileFunction,Other,User*%
%FSLAX46Y46*%
G04 Gerber Fmt 4.6, Leading zero omitted, Abs format (unit mm)*
G04 Created by KiCad (PCBNEW (5.0.1-3-g963ef8bb5)) date 2020 February 23, Sunday 21:28:54*
%MOMM*%
%LPD*%
G01*
G04 APERTURE LIST*
%ADD10C,0.150000*%
%ADD11C,0.200000*%
%ADD12C,0.050000*%
G04 APERTURE END LIST*
D10*
X84500000Y-72500000D02*
G75*
G02X87500000Y-69500000I3000000J0D01*
G01*
X87500000Y-129500000D02*
G75*
G02X84500000Y-126500000I0J3000000D01*
G01*
X144500000Y-126500000D02*
G75*
G02X141500000Y-129500000I-3000000J0D01*
G01*
X141500000Y-69500000D02*
G75*
G02X144500000Y-72500000I0J-3000000D01*
G01*
D11*
X84500000Y-126500000D02*
X84500000Y-72500000D01*
X141500000Y-129500000D02*
X87500000Y-129500000D01*
X144500000Y-72500000D02*
X144500000Y-126500000D01*
X87500000Y-69500000D02*
X141500000Y-69500000D01*
D12*
X141300000Y-104790000D02*
X141300000Y-120530000D01*
X141300000Y-104790000D02*
X120480000Y-104790000D01*
X120480000Y-120530000D02*
X141300000Y-120530000D01*
X120480000Y-120530000D02*
X120480000Y-104790000D01*
X142250000Y-88050000D02*
X135750000Y-88050000D01*
X142250000Y-88050000D02*
X142250000Y-85950000D01*
X135750000Y-85950000D02*
X135750000Y-88050000D01*
X135750000Y-85950000D02*
X142250000Y-85950000D01*
X129895001Y-91074999D02*
X129895001Y-99774999D01*
X138595001Y-91074999D02*
X129895001Y-91074999D01*
X138595001Y-99774999D02*
X138595001Y-91074999D01*
X129895001Y-99774999D02*
X138595001Y-99774999D01*
X104050000Y-98650000D02*
X104050000Y-107350000D01*
X104050000Y-107350000D02*
X112750000Y-107350000D01*
X112750000Y-107350000D02*
X112750000Y-98650000D01*
X112750000Y-98650000D02*
X104050000Y-98650000D01*
X122650000Y-90900000D02*
X122650000Y-96600000D01*
X128350000Y-90900000D02*
X122650000Y-90900000D01*
X128350000Y-96600000D02*
X128350000Y-90900000D01*
X122650000Y-96600000D02*
X128350000Y-96600000D01*
X105000001Y-91525001D02*
X105000001Y-97225001D01*
X105000001Y-97225001D02*
X110700001Y-97225001D01*
X110700001Y-97225001D02*
X110700001Y-91525001D01*
X110700001Y-91525001D02*
X105000001Y-91525001D01*
X135225001Y-79145001D02*
X135225001Y-84845001D01*
X135225001Y-84845001D02*
X142725001Y-84845001D01*
X142725001Y-84845001D02*
X142725001Y-79145001D01*
X142725001Y-79145001D02*
X135225001Y-79145001D01*
X144250000Y-73500000D02*
G75*
G03X144250000Y-73500000I-3750000J0D01*
G01*
X144250000Y-125500000D02*
G75*
G03X144250000Y-125500000I-3750000J0D01*
G01*
X92250000Y-73500000D02*
G75*
G03X92250000Y-73500000I-3750000J0D01*
G01*
X103500000Y-107900000D02*
X103500000Y-90100000D01*
X84500000Y-107900000D02*
X103500000Y-107900000D01*
X84500000Y-90100000D02*
X84500000Y-107900000D01*
X103500000Y-90100000D02*
X84500000Y-90100000D01*
X127080000Y-74300000D02*
X127080000Y-70700000D01*
X105730000Y-74300000D02*
X127080000Y-74300000D01*
X105730000Y-70700000D02*
X105730000Y-74300000D01*
X127080000Y-70700000D02*
X105730000Y-70700000D01*
X127080000Y-85700000D02*
X105730000Y-85700000D01*
X105730000Y-85700000D02*
X105730000Y-89300000D01*
X105730000Y-89300000D02*
X127080000Y-89300000D01*
X127080000Y-89300000D02*
X127080000Y-85700000D01*
X139700000Y-91700000D02*
X139700000Y-102900000D01*
X139700000Y-102900000D02*
X143300000Y-102900000D01*
X143300000Y-102900000D02*
X143300000Y-91700000D01*
X143300000Y-91700000D02*
X139700000Y-91700000D01*
X122700000Y-124700000D02*
X122700000Y-128300000D01*
X133900000Y-124700000D02*
X122700000Y-124700000D01*
X133900000Y-128300000D02*
X133900000Y-124700000D01*
X122700000Y-128300000D02*
X133900000Y-128300000D01*
X96650000Y-120100000D02*
X101350000Y-120100000D01*
X96650000Y-120100000D02*
X96650000Y-121900000D01*
X101350000Y-121900000D02*
X101350000Y-120100000D01*
X101350000Y-121900000D02*
X96650000Y-121900000D01*
X95850000Y-121900000D02*
X91150000Y-121900000D01*
X95850000Y-121900000D02*
X95850000Y-120100000D01*
X91150000Y-120100000D02*
X91150000Y-121900000D01*
X91150000Y-120100000D02*
X95850000Y-120100000D01*
M02*
