%TF.GenerationSoftware,KiCad,Pcbnew,(5.0.1-3-g963ef8bb5)*%
%TF.CreationDate,2020-02-23T21:28:54+01:00*%
%TF.ProjectId,ethersweep,657468657273776565702E6B69636164,rev?*%
%TF.SameCoordinates,Original*%
%TF.FileFunction,Other,Fab,Top*%
%FSLAX46Y46*%
G04 Gerber Fmt 4.6, Leading zero omitted, Abs format (unit mm)*
G04 Created by KiCad (PCBNEW (5.0.1-3-g963ef8bb5)) date 2020 February 23, Sunday 21:28:54*
%MOMM*%
%LPD*%
G01*
G04 APERTURE LIST*
%ADD10C,0.150000*%
%ADD11C,0.200000*%
%ADD12C,0.100000*%
%ADD13C,0.127000*%
%ADD14C,0.015000*%
%ADD15C,0.075000*%
G04 APERTURE END LIST*
D10*
X84500000Y-72500000D02*
G75*
G02X87500000Y-69500000I3000000J0D01*
G01*
X87500000Y-129500000D02*
G75*
G02X84500000Y-126500000I0J3000000D01*
G01*
X144500000Y-126500000D02*
G75*
G02X141500000Y-129500000I-3000000J0D01*
G01*
X141500000Y-69500000D02*
G75*
G02X144500000Y-72500000I0J-3000000D01*
G01*
D11*
X84500000Y-126500000D02*
X84500000Y-72500000D01*
X141500000Y-129500000D02*
X87500000Y-129500000D01*
X144500000Y-72500000D02*
X144500000Y-126500000D01*
X87500000Y-69500000D02*
X141500000Y-69500000D01*
D12*
X141050000Y-120270000D02*
X122000000Y-120270000D01*
X141050000Y-105030000D02*
X141050000Y-120270000D01*
X120730000Y-105030000D02*
X141050000Y-105030000D01*
X120730000Y-119000000D02*
X120730000Y-105030000D01*
X122000000Y-120270000D02*
X120730000Y-119000000D01*
D13*
X85990000Y-127890000D02*
X119010000Y-127890000D01*
X119010000Y-127890000D02*
X119010000Y-110110000D01*
X119010000Y-110110000D02*
X85990000Y-110110000D01*
X85990000Y-110110000D02*
X85990000Y-127890000D01*
D12*
X137400000Y-86200000D02*
X140600000Y-86200000D01*
X140600000Y-86200000D02*
X140600000Y-87800000D01*
X140600000Y-87800000D02*
X137400000Y-87800000D01*
X137400000Y-87800000D02*
X137400000Y-86200000D01*
X133595001Y-98924999D02*
X134895001Y-98924999D01*
X134245001Y-99524999D02*
X134245001Y-98324999D01*
X138245001Y-95424999D02*
G75*
G03X138245001Y-95424999I-4000000J0D01*
G01*
X112400000Y-103000000D02*
G75*
G03X112400000Y-103000000I-4000000J0D01*
G01*
X104300000Y-103000000D02*
X105500000Y-103000000D01*
X104900000Y-102350000D02*
X104900000Y-103650000D01*
X124850000Y-96600000D02*
X126150000Y-96600000D01*
X125500000Y-97200000D02*
X125500000Y-96000000D01*
X128000000Y-93750000D02*
G75*
G03X128000000Y-93750000I-2500000J0D01*
G01*
X110350001Y-94375001D02*
G75*
G03X110350001Y-94375001I-2500000J0D01*
G01*
X104400001Y-94375001D02*
X105600001Y-94375001D01*
X105000001Y-93725001D02*
X105000001Y-95025001D01*
X140975001Y-81995001D02*
G75*
G03X140975001Y-81995001I-2000000J0D01*
G01*
X141475001Y-79495001D02*
X136475001Y-79495001D01*
X141475001Y-84495001D02*
X141475001Y-79495001D01*
X136475001Y-84495001D02*
X141475001Y-84495001D01*
X136475001Y-79495001D02*
X136475001Y-84495001D01*
X141475001Y-83495001D02*
X140475001Y-84495001D01*
X97500000Y-103100000D02*
X99500000Y-103100000D01*
X97500000Y-103500000D02*
X97500000Y-103100000D01*
X85000000Y-103500000D02*
X97500000Y-103500000D01*
X85000000Y-94500000D02*
X85000000Y-103500000D01*
X97500000Y-94500000D02*
X85000000Y-94500000D01*
X97500000Y-94900000D02*
X97500000Y-94500000D01*
X99500000Y-94900000D02*
X97500000Y-94900000D01*
X99500000Y-103100000D02*
X99500000Y-94900000D01*
X125915000Y-71230000D02*
X126550000Y-71865000D01*
X106230000Y-71230000D02*
X125915000Y-71230000D01*
X106230000Y-73770000D02*
X106230000Y-71230000D01*
X126550000Y-73770000D02*
X106230000Y-73770000D01*
X126550000Y-71865000D02*
X126550000Y-73770000D01*
X126550000Y-86865000D02*
X126550000Y-88770000D01*
X126550000Y-88770000D02*
X106230000Y-88770000D01*
X106230000Y-88770000D02*
X106230000Y-86230000D01*
X106230000Y-86230000D02*
X125915000Y-86230000D01*
X125915000Y-86230000D02*
X126550000Y-86865000D01*
X140865000Y-92230000D02*
X142770000Y-92230000D01*
X142770000Y-92230000D02*
X142770000Y-102390000D01*
X142770000Y-102390000D02*
X140230000Y-102390000D01*
X140230000Y-102390000D02*
X140230000Y-92865000D01*
X140230000Y-92865000D02*
X140865000Y-92230000D01*
X123865000Y-127770000D02*
X123230000Y-127135000D01*
X133390000Y-127770000D02*
X123865000Y-127770000D01*
X133390000Y-125230000D02*
X133390000Y-127770000D01*
X123230000Y-125230000D02*
X133390000Y-125230000D01*
X123230000Y-127135000D02*
X123230000Y-125230000D01*
X98000000Y-121620000D02*
X98000000Y-120380000D01*
X100000000Y-121620000D02*
X98000000Y-121620000D01*
X100000000Y-120380000D02*
X100000000Y-121620000D01*
X98000000Y-120380000D02*
X100000000Y-120380000D01*
X92500000Y-120380000D02*
X94500000Y-120380000D01*
X94500000Y-120380000D02*
X94500000Y-121620000D01*
X94500000Y-121620000D02*
X92500000Y-121620000D01*
X92500000Y-121620000D02*
X92500000Y-120380000D01*
D10*
X142622380Y-122173809D02*
X141622380Y-122173809D01*
X141622380Y-121792857D01*
X141670000Y-121697619D01*
X141717619Y-121650000D01*
X141812857Y-121602380D01*
X141955714Y-121602380D01*
X142050952Y-121650000D01*
X142098571Y-121697619D01*
X142146190Y-121792857D01*
X142146190Y-122173809D01*
X142622380Y-121030952D02*
X142574761Y-121126190D01*
X142527142Y-121173809D01*
X142431904Y-121221428D01*
X142146190Y-121221428D01*
X142050952Y-121173809D01*
X142003333Y-121126190D01*
X141955714Y-121030952D01*
X141955714Y-120888095D01*
X142003333Y-120792857D01*
X142050952Y-120745238D01*
X142146190Y-120697619D01*
X142431904Y-120697619D01*
X142527142Y-120745238D01*
X142574761Y-120792857D01*
X142622380Y-120888095D01*
X142622380Y-121030952D01*
X142622380Y-120126190D02*
X142574761Y-120221428D01*
X142479523Y-120269047D01*
X141622380Y-120269047D01*
X142622380Y-119602380D02*
X142574761Y-119697619D01*
X142527142Y-119745238D01*
X142431904Y-119792857D01*
X142146190Y-119792857D01*
X142050952Y-119745238D01*
X142003333Y-119697619D01*
X141955714Y-119602380D01*
X141955714Y-119459523D01*
X142003333Y-119364285D01*
X142050952Y-119316666D01*
X142146190Y-119269047D01*
X142431904Y-119269047D01*
X142527142Y-119316666D01*
X142574761Y-119364285D01*
X142622380Y-119459523D01*
X142622380Y-119602380D01*
X142622380Y-118697619D02*
X142574761Y-118792857D01*
X142479523Y-118840476D01*
X141622380Y-118840476D01*
X141955714Y-117888095D02*
X142622380Y-117888095D01*
X141955714Y-118316666D02*
X142479523Y-118316666D01*
X142574761Y-118269047D01*
X142622380Y-118173809D01*
X142622380Y-118030952D01*
X142574761Y-117935714D01*
X142527142Y-117888095D01*
X142717619Y-117650000D02*
X142717619Y-116888095D01*
X142098571Y-116316666D02*
X142146190Y-116173809D01*
X142193809Y-116126190D01*
X142289047Y-116078571D01*
X142431904Y-116078571D01*
X142527142Y-116126190D01*
X142574761Y-116173809D01*
X142622380Y-116269047D01*
X142622380Y-116650000D01*
X141622380Y-116650000D01*
X141622380Y-116316666D01*
X141670000Y-116221428D01*
X141717619Y-116173809D01*
X141812857Y-116126190D01*
X141908095Y-116126190D01*
X142003333Y-116173809D01*
X142050952Y-116221428D01*
X142098571Y-116316666D01*
X142098571Y-116650000D01*
X142622380Y-115650000D02*
X141955714Y-115650000D01*
X142146190Y-115650000D02*
X142050952Y-115602380D01*
X142003333Y-115554761D01*
X141955714Y-115459523D01*
X141955714Y-115364285D01*
X142574761Y-114650000D02*
X142622380Y-114745238D01*
X142622380Y-114935714D01*
X142574761Y-115030952D01*
X142479523Y-115078571D01*
X142098571Y-115078571D01*
X142003333Y-115030952D01*
X141955714Y-114935714D01*
X141955714Y-114745238D01*
X142003333Y-114650000D01*
X142098571Y-114602380D01*
X142193809Y-114602380D01*
X142289047Y-115078571D01*
X142622380Y-113745238D02*
X142098571Y-113745238D01*
X142003333Y-113792857D01*
X141955714Y-113888095D01*
X141955714Y-114078571D01*
X142003333Y-114173809D01*
X142574761Y-113745238D02*
X142622380Y-113840476D01*
X142622380Y-114078571D01*
X142574761Y-114173809D01*
X142479523Y-114221428D01*
X142384285Y-114221428D01*
X142289047Y-114173809D01*
X142241428Y-114078571D01*
X142241428Y-113840476D01*
X142193809Y-113745238D01*
X142622380Y-113269047D02*
X141622380Y-113269047D01*
X142241428Y-113173809D02*
X142622380Y-112888095D01*
X141955714Y-112888095D02*
X142336666Y-113269047D01*
X142622380Y-112316666D02*
X142574761Y-112411904D01*
X142527142Y-112459523D01*
X142431904Y-112507142D01*
X142146190Y-112507142D01*
X142050952Y-112459523D01*
X142003333Y-112411904D01*
X141955714Y-112316666D01*
X141955714Y-112173809D01*
X142003333Y-112078571D01*
X142050952Y-112030952D01*
X142146190Y-111983333D01*
X142431904Y-111983333D01*
X142527142Y-112030952D01*
X142574761Y-112078571D01*
X142622380Y-112173809D01*
X142622380Y-112316666D01*
X141955714Y-111126190D02*
X142622380Y-111126190D01*
X141955714Y-111554761D02*
X142479523Y-111554761D01*
X142574761Y-111507142D01*
X142622380Y-111411904D01*
X142622380Y-111269047D01*
X142574761Y-111173809D01*
X142527142Y-111126190D01*
X141955714Y-110792857D02*
X141955714Y-110411904D01*
X141622380Y-110650000D02*
X142479523Y-110650000D01*
X142574761Y-110602380D01*
X142622380Y-110507142D01*
X142622380Y-110411904D01*
X142717619Y-110316666D02*
X142717619Y-109554761D01*
X142622380Y-109316666D02*
X141622380Y-109316666D01*
X141622380Y-109078571D01*
X141670000Y-108935714D01*
X141765238Y-108840476D01*
X141860476Y-108792857D01*
X142050952Y-108745238D01*
X142193809Y-108745238D01*
X142384285Y-108792857D01*
X142479523Y-108840476D01*
X142574761Y-108935714D01*
X142622380Y-109078571D01*
X142622380Y-109316666D01*
X142622380Y-107745238D02*
X142146190Y-108078571D01*
X142622380Y-108316666D02*
X141622380Y-108316666D01*
X141622380Y-107935714D01*
X141670000Y-107840476D01*
X141717619Y-107792857D01*
X141812857Y-107745238D01*
X141955714Y-107745238D01*
X142050952Y-107792857D01*
X142098571Y-107840476D01*
X142146190Y-107935714D01*
X142146190Y-108316666D01*
X141622380Y-107459523D02*
X142622380Y-107126190D01*
X141622380Y-106792857D01*
X142050952Y-106316666D02*
X142003333Y-106411904D01*
X141955714Y-106459523D01*
X141860476Y-106507142D01*
X141812857Y-106507142D01*
X141717619Y-106459523D01*
X141670000Y-106411904D01*
X141622380Y-106316666D01*
X141622380Y-106126190D01*
X141670000Y-106030952D01*
X141717619Y-105983333D01*
X141812857Y-105935714D01*
X141860476Y-105935714D01*
X141955714Y-105983333D01*
X142003333Y-106030952D01*
X142050952Y-106126190D01*
X142050952Y-106316666D01*
X142098571Y-106411904D01*
X142146190Y-106459523D01*
X142241428Y-106507142D01*
X142431904Y-106507142D01*
X142527142Y-106459523D01*
X142574761Y-106411904D01*
X142622380Y-106316666D01*
X142622380Y-106126190D01*
X142574761Y-106030952D01*
X142527142Y-105983333D01*
X142431904Y-105935714D01*
X142241428Y-105935714D01*
X142146190Y-105983333D01*
X142098571Y-106030952D01*
X142050952Y-106126190D01*
X142050952Y-105364285D02*
X142003333Y-105459523D01*
X141955714Y-105507142D01*
X141860476Y-105554761D01*
X141812857Y-105554761D01*
X141717619Y-105507142D01*
X141670000Y-105459523D01*
X141622380Y-105364285D01*
X141622380Y-105173809D01*
X141670000Y-105078571D01*
X141717619Y-105030952D01*
X141812857Y-104983333D01*
X141860476Y-104983333D01*
X141955714Y-105030952D01*
X142003333Y-105078571D01*
X142050952Y-105173809D01*
X142050952Y-105364285D01*
X142098571Y-105459523D01*
X142146190Y-105507142D01*
X142241428Y-105554761D01*
X142431904Y-105554761D01*
X142527142Y-105507142D01*
X142574761Y-105459523D01*
X142622380Y-105364285D01*
X142622380Y-105173809D01*
X142574761Y-105078571D01*
X142527142Y-105030952D01*
X142431904Y-104983333D01*
X142241428Y-104983333D01*
X142146190Y-105030952D01*
X142098571Y-105078571D01*
X142050952Y-105173809D01*
X141717619Y-104602380D02*
X141670000Y-104554761D01*
X141622380Y-104459523D01*
X141622380Y-104221428D01*
X141670000Y-104126190D01*
X141717619Y-104078571D01*
X141812857Y-104030952D01*
X141908095Y-104030952D01*
X142050952Y-104078571D01*
X142622380Y-104650000D01*
X142622380Y-104030952D01*
X141622380Y-103126190D02*
X141622380Y-103602380D01*
X142098571Y-103650000D01*
X142050952Y-103602380D01*
X142003333Y-103507142D01*
X142003333Y-103269047D01*
X142050952Y-103173809D01*
X142098571Y-103126190D01*
X142193809Y-103078571D01*
X142431904Y-103078571D01*
X142527142Y-103126190D01*
X142574761Y-103173809D01*
X142622380Y-103269047D01*
X142622380Y-103507142D01*
X142574761Y-103602380D01*
X142527142Y-103650000D01*
X122166666Y-113364285D02*
X122166666Y-112888095D01*
X122452380Y-113459523D02*
X121452380Y-113126190D01*
X122452380Y-112792857D01*
X122452380Y-111935714D02*
X122452380Y-112507142D01*
X122452380Y-112221428D02*
X121452380Y-112221428D01*
X121595238Y-112316666D01*
X121690476Y-112411904D01*
X121738095Y-112507142D01*
D14*
X119775800Y-122314285D02*
X119775800Y-122085714D01*
X119912942Y-122360000D02*
X119432942Y-122200000D01*
X119912942Y-122040000D01*
X119912942Y-121605714D02*
X119684371Y-121765714D01*
X119912942Y-121880000D02*
X119432942Y-121880000D01*
X119432942Y-121697142D01*
X119455800Y-121651428D01*
X119478657Y-121628571D01*
X119524371Y-121605714D01*
X119592942Y-121605714D01*
X119638657Y-121628571D01*
X119661514Y-121651428D01*
X119684371Y-121697142D01*
X119684371Y-121880000D01*
X119912942Y-121400000D02*
X119432942Y-121400000D01*
X119432942Y-121285714D01*
X119455800Y-121217142D01*
X119501514Y-121171428D01*
X119547228Y-121148571D01*
X119638657Y-121125714D01*
X119707228Y-121125714D01*
X119798657Y-121148571D01*
X119844371Y-121171428D01*
X119890085Y-121217142D01*
X119912942Y-121285714D01*
X119912942Y-121400000D01*
X119432942Y-120920000D02*
X119821514Y-120920000D01*
X119867228Y-120897142D01*
X119890085Y-120874285D01*
X119912942Y-120828571D01*
X119912942Y-120737142D01*
X119890085Y-120691428D01*
X119867228Y-120668571D01*
X119821514Y-120645714D01*
X119432942Y-120645714D01*
X119912942Y-120417142D02*
X119432942Y-120417142D01*
X119912942Y-120188571D02*
X119432942Y-120188571D01*
X119912942Y-119914285D01*
X119432942Y-119914285D01*
X119432942Y-119594285D02*
X119432942Y-119502857D01*
X119455800Y-119457142D01*
X119501514Y-119411428D01*
X119592942Y-119388571D01*
X119752942Y-119388571D01*
X119844371Y-119411428D01*
X119890085Y-119457142D01*
X119912942Y-119502857D01*
X119912942Y-119594285D01*
X119890085Y-119640000D01*
X119844371Y-119685714D01*
X119752942Y-119708571D01*
X119592942Y-119708571D01*
X119501514Y-119685714D01*
X119455800Y-119640000D01*
X119432942Y-119594285D01*
X119958657Y-119297142D02*
X119958657Y-118931428D01*
X119912942Y-118817142D02*
X119432942Y-118817142D01*
X119432942Y-118634285D01*
X119455800Y-118588571D01*
X119478657Y-118565714D01*
X119524371Y-118542857D01*
X119592942Y-118542857D01*
X119638657Y-118565714D01*
X119661514Y-118588571D01*
X119684371Y-118634285D01*
X119684371Y-118817142D01*
X119912942Y-118062857D02*
X119684371Y-118222857D01*
X119912942Y-118337142D02*
X119432942Y-118337142D01*
X119432942Y-118154285D01*
X119455800Y-118108571D01*
X119478657Y-118085714D01*
X119524371Y-118062857D01*
X119592942Y-118062857D01*
X119638657Y-118085714D01*
X119661514Y-118108571D01*
X119684371Y-118154285D01*
X119684371Y-118337142D01*
X119432942Y-117765714D02*
X119432942Y-117674285D01*
X119455800Y-117628571D01*
X119501514Y-117582857D01*
X119592942Y-117560000D01*
X119752942Y-117560000D01*
X119844371Y-117582857D01*
X119890085Y-117628571D01*
X119912942Y-117674285D01*
X119912942Y-117765714D01*
X119890085Y-117811428D01*
X119844371Y-117857142D01*
X119752942Y-117880000D01*
X119592942Y-117880000D01*
X119501514Y-117857142D01*
X119455800Y-117811428D01*
X119432942Y-117765714D01*
X119958657Y-117468571D02*
X119958657Y-117102857D01*
X119912942Y-116988571D02*
X119432942Y-116988571D01*
X119775800Y-116828571D01*
X119432942Y-116668571D01*
X119912942Y-116668571D01*
X119912942Y-116440000D02*
X119432942Y-116440000D01*
X119912942Y-116211428D02*
X119432942Y-116211428D01*
X119912942Y-115937142D01*
X119432942Y-115937142D01*
X119912942Y-115708571D02*
X119432942Y-115708571D01*
D10*
X139309523Y-89357142D02*
X139261904Y-89404761D01*
X139119047Y-89452380D01*
X139023809Y-89452380D01*
X138880952Y-89404761D01*
X138785714Y-89309523D01*
X138738095Y-89214285D01*
X138690476Y-89023809D01*
X138690476Y-88880952D01*
X138738095Y-88690476D01*
X138785714Y-88595238D01*
X138880952Y-88500000D01*
X139023809Y-88452380D01*
X139119047Y-88452380D01*
X139261904Y-88500000D01*
X139309523Y-88547619D01*
X136523809Y-85607142D02*
X136476190Y-85654761D01*
X136333333Y-85702380D01*
X136238095Y-85702380D01*
X136095238Y-85654761D01*
X136000000Y-85559523D01*
X135952380Y-85464285D01*
X135904761Y-85273809D01*
X135904761Y-85130952D01*
X135952380Y-84940476D01*
X136000000Y-84845238D01*
X136095238Y-84750000D01*
X136238095Y-84702380D01*
X136333333Y-84702380D01*
X136476190Y-84750000D01*
X136523809Y-84797619D01*
X137476190Y-85702380D02*
X136904761Y-85702380D01*
X137190476Y-85702380D02*
X137190476Y-84702380D01*
X137095238Y-84845238D01*
X137000000Y-84940476D01*
X136904761Y-84988095D01*
X138095238Y-84702380D02*
X138190476Y-84702380D01*
X138285714Y-84750000D01*
X138333333Y-84797619D01*
X138380952Y-84892857D01*
X138428571Y-85083333D01*
X138428571Y-85321428D01*
X138380952Y-85511904D01*
X138333333Y-85607142D01*
X138285714Y-85654761D01*
X138190476Y-85702380D01*
X138095238Y-85702380D01*
X138000000Y-85654761D01*
X137952380Y-85607142D01*
X137904761Y-85511904D01*
X137857142Y-85321428D01*
X137857142Y-85083333D01*
X137904761Y-84892857D01*
X137952380Y-84797619D01*
X138000000Y-84750000D01*
X138095238Y-84702380D01*
X139047619Y-84702380D02*
X139142857Y-84702380D01*
X139238095Y-84750000D01*
X139285714Y-84797619D01*
X139333333Y-84892857D01*
X139380952Y-85083333D01*
X139380952Y-85321428D01*
X139333333Y-85511904D01*
X139285714Y-85607142D01*
X139238095Y-85654761D01*
X139142857Y-85702380D01*
X139047619Y-85702380D01*
X138952380Y-85654761D01*
X138904761Y-85607142D01*
X138857142Y-85511904D01*
X138809523Y-85321428D01*
X138809523Y-85083333D01*
X138857142Y-84892857D01*
X138904761Y-84797619D01*
X138952380Y-84750000D01*
X139047619Y-84702380D01*
X139809523Y-85035714D02*
X139809523Y-85702380D01*
X139809523Y-85130952D02*
X139857142Y-85083333D01*
X139952380Y-85035714D01*
X140095238Y-85035714D01*
X140190476Y-85083333D01*
X140238095Y-85178571D01*
X140238095Y-85702380D01*
X141047619Y-85178571D02*
X140714285Y-85178571D01*
X140714285Y-85702380D02*
X140714285Y-84702380D01*
X141190476Y-84702380D01*
X142095238Y-85702380D02*
X141523809Y-85702380D01*
X141809523Y-85702380D02*
X141809523Y-84702380D01*
X141714285Y-84845238D01*
X141619047Y-84940476D01*
X141523809Y-84988095D01*
X139912143Y-95615475D02*
X139959762Y-95663094D01*
X140007381Y-95805951D01*
X140007381Y-95901189D01*
X139959762Y-96044046D01*
X139864524Y-96139284D01*
X139769286Y-96186903D01*
X139578810Y-96234522D01*
X139435953Y-96234522D01*
X139245477Y-96186903D01*
X139150239Y-96139284D01*
X139055001Y-96044046D01*
X139007381Y-95901189D01*
X139007381Y-95805951D01*
X139055001Y-95663094D01*
X139102620Y-95615475D01*
X140007381Y-95186903D02*
X139007381Y-95186903D01*
X139007381Y-94805951D01*
X139055001Y-94710713D01*
X139102620Y-94663094D01*
X139197858Y-94615475D01*
X139340715Y-94615475D01*
X139435953Y-94663094D01*
X139483572Y-94710713D01*
X139531191Y-94805951D01*
X139531191Y-95186903D01*
X134602143Y-98758332D02*
X134649762Y-98805951D01*
X134697381Y-98948808D01*
X134697381Y-99044046D01*
X134649762Y-99186903D01*
X134554524Y-99282141D01*
X134459286Y-99329760D01*
X134268810Y-99377379D01*
X134125953Y-99377379D01*
X133935477Y-99329760D01*
X133840239Y-99282141D01*
X133745001Y-99186903D01*
X133697381Y-99044046D01*
X133697381Y-98948808D01*
X133745001Y-98805951D01*
X133792620Y-98758332D01*
X134697381Y-97805951D02*
X134697381Y-98377379D01*
X134697381Y-98091665D02*
X133697381Y-98091665D01*
X133840239Y-98186903D01*
X133935477Y-98282141D01*
X133983096Y-98377379D01*
X134792620Y-97615475D02*
X134792620Y-96853570D01*
X134697381Y-96091665D02*
X134697381Y-96663094D01*
X134697381Y-96377379D02*
X133697381Y-96377379D01*
X133840239Y-96472618D01*
X133935477Y-96567856D01*
X133983096Y-96663094D01*
X133697381Y-95472618D02*
X133697381Y-95377379D01*
X133745001Y-95282141D01*
X133792620Y-95234522D01*
X133887858Y-95186903D01*
X134078334Y-95139284D01*
X134316429Y-95139284D01*
X134506905Y-95186903D01*
X134602143Y-95234522D01*
X134649762Y-95282141D01*
X134697381Y-95377379D01*
X134697381Y-95472618D01*
X134649762Y-95567856D01*
X134602143Y-95615475D01*
X134506905Y-95663094D01*
X134316429Y-95710713D01*
X134078334Y-95710713D01*
X133887858Y-95663094D01*
X133792620Y-95615475D01*
X133745001Y-95567856D01*
X133697381Y-95472618D01*
X133697381Y-94520237D02*
X133697381Y-94424999D01*
X133745001Y-94329760D01*
X133792620Y-94282141D01*
X133887858Y-94234522D01*
X134078334Y-94186903D01*
X134316429Y-94186903D01*
X134506905Y-94234522D01*
X134602143Y-94282141D01*
X134649762Y-94329760D01*
X134697381Y-94424999D01*
X134697381Y-94520237D01*
X134649762Y-94615475D01*
X134602143Y-94663094D01*
X134506905Y-94710713D01*
X134316429Y-94758332D01*
X134078334Y-94758332D01*
X133887858Y-94710713D01*
X133792620Y-94663094D01*
X133745001Y-94615475D01*
X133697381Y-94520237D01*
X134030715Y-93329760D02*
X134697381Y-93329760D01*
X134030715Y-93758332D02*
X134554524Y-93758332D01*
X134649762Y-93710713D01*
X134697381Y-93615475D01*
X134697381Y-93472618D01*
X134649762Y-93377379D01*
X134602143Y-93329760D01*
X134173572Y-92520237D02*
X134173572Y-92853570D01*
X134697381Y-92853570D02*
X133697381Y-92853570D01*
X133697381Y-92377379D01*
X134697381Y-91472618D02*
X134697381Y-92044046D01*
X134697381Y-91758332D02*
X133697381Y-91758332D01*
X133840239Y-91853570D01*
X133935477Y-91948808D01*
X133983096Y-92044046D01*
X108209523Y-108667142D02*
X108161904Y-108714761D01*
X108019047Y-108762380D01*
X107923809Y-108762380D01*
X107780952Y-108714761D01*
X107685714Y-108619523D01*
X107638095Y-108524285D01*
X107590476Y-108333809D01*
X107590476Y-108190952D01*
X107638095Y-108000476D01*
X107685714Y-107905238D01*
X107780952Y-107810000D01*
X107923809Y-107762380D01*
X108019047Y-107762380D01*
X108161904Y-107810000D01*
X108209523Y-107857619D01*
X108638095Y-108762380D02*
X108638095Y-107762380D01*
X109019047Y-107762380D01*
X109114285Y-107810000D01*
X109161904Y-107857619D01*
X109209523Y-107952857D01*
X109209523Y-108095714D01*
X109161904Y-108190952D01*
X109114285Y-108238571D01*
X109019047Y-108286190D01*
X108638095Y-108286190D01*
X105066666Y-103357142D02*
X105019047Y-103404761D01*
X104876190Y-103452380D01*
X104780952Y-103452380D01*
X104638095Y-103404761D01*
X104542857Y-103309523D01*
X104495238Y-103214285D01*
X104447619Y-103023809D01*
X104447619Y-102880952D01*
X104495238Y-102690476D01*
X104542857Y-102595238D01*
X104638095Y-102500000D01*
X104780952Y-102452380D01*
X104876190Y-102452380D01*
X105019047Y-102500000D01*
X105066666Y-102547619D01*
X106019047Y-103452380D02*
X105447619Y-103452380D01*
X105733333Y-103452380D02*
X105733333Y-102452380D01*
X105638095Y-102595238D01*
X105542857Y-102690476D01*
X105447619Y-102738095D01*
X106209523Y-103547619D02*
X106971428Y-103547619D01*
X107733333Y-103452380D02*
X107161904Y-103452380D01*
X107447619Y-103452380D02*
X107447619Y-102452380D01*
X107352380Y-102595238D01*
X107257142Y-102690476D01*
X107161904Y-102738095D01*
X108352380Y-102452380D02*
X108447619Y-102452380D01*
X108542857Y-102500000D01*
X108590476Y-102547619D01*
X108638095Y-102642857D01*
X108685714Y-102833333D01*
X108685714Y-103071428D01*
X108638095Y-103261904D01*
X108590476Y-103357142D01*
X108542857Y-103404761D01*
X108447619Y-103452380D01*
X108352380Y-103452380D01*
X108257142Y-103404761D01*
X108209523Y-103357142D01*
X108161904Y-103261904D01*
X108114285Y-103071428D01*
X108114285Y-102833333D01*
X108161904Y-102642857D01*
X108209523Y-102547619D01*
X108257142Y-102500000D01*
X108352380Y-102452380D01*
X109304761Y-102452380D02*
X109400000Y-102452380D01*
X109495238Y-102500000D01*
X109542857Y-102547619D01*
X109590476Y-102642857D01*
X109638095Y-102833333D01*
X109638095Y-103071428D01*
X109590476Y-103261904D01*
X109542857Y-103357142D01*
X109495238Y-103404761D01*
X109400000Y-103452380D01*
X109304761Y-103452380D01*
X109209523Y-103404761D01*
X109161904Y-103357142D01*
X109114285Y-103261904D01*
X109066666Y-103071428D01*
X109066666Y-102833333D01*
X109114285Y-102642857D01*
X109161904Y-102547619D01*
X109209523Y-102500000D01*
X109304761Y-102452380D01*
X110495238Y-102785714D02*
X110495238Y-103452380D01*
X110066666Y-102785714D02*
X110066666Y-103309523D01*
X110114285Y-103404761D01*
X110209523Y-103452380D01*
X110352380Y-103452380D01*
X110447619Y-103404761D01*
X110495238Y-103357142D01*
X111304761Y-102928571D02*
X110971428Y-102928571D01*
X110971428Y-103452380D02*
X110971428Y-102452380D01*
X111447619Y-102452380D01*
X111780952Y-102547619D02*
X111828571Y-102500000D01*
X111923809Y-102452380D01*
X112161904Y-102452380D01*
X112257142Y-102500000D01*
X112304761Y-102547619D01*
X112352380Y-102642857D01*
X112352380Y-102738095D01*
X112304761Y-102880952D01*
X111733333Y-103452380D01*
X112352380Y-103452380D01*
X129667142Y-93940476D02*
X129714761Y-93988095D01*
X129762380Y-94130952D01*
X129762380Y-94226190D01*
X129714761Y-94369047D01*
X129619523Y-94464285D01*
X129524285Y-94511904D01*
X129333809Y-94559523D01*
X129190952Y-94559523D01*
X129000476Y-94511904D01*
X128905238Y-94464285D01*
X128810000Y-94369047D01*
X128762380Y-94226190D01*
X128762380Y-94130952D01*
X128810000Y-93988095D01*
X128857619Y-93940476D01*
X129762380Y-93511904D02*
X128762380Y-93511904D01*
X128762380Y-93130952D01*
X128810000Y-93035714D01*
X128857619Y-92988095D01*
X128952857Y-92940476D01*
X129095714Y-92940476D01*
X129190952Y-92988095D01*
X129238571Y-93035714D01*
X129286190Y-93130952D01*
X129286190Y-93511904D01*
X125857142Y-96130952D02*
X125904761Y-96178571D01*
X125952380Y-96321428D01*
X125952380Y-96416666D01*
X125904761Y-96559523D01*
X125809523Y-96654761D01*
X125714285Y-96702380D01*
X125523809Y-96750000D01*
X125380952Y-96750000D01*
X125190476Y-96702380D01*
X125095238Y-96654761D01*
X125000000Y-96559523D01*
X124952380Y-96416666D01*
X124952380Y-96321428D01*
X125000000Y-96178571D01*
X125047619Y-96130952D01*
X125047619Y-95750000D02*
X125000000Y-95702380D01*
X124952380Y-95607142D01*
X124952380Y-95369047D01*
X125000000Y-95273809D01*
X125047619Y-95226190D01*
X125142857Y-95178571D01*
X125238095Y-95178571D01*
X125380952Y-95226190D01*
X125952380Y-95797619D01*
X125952380Y-95178571D01*
X126047619Y-94988095D02*
X126047619Y-94226190D01*
X125952380Y-93464285D02*
X125952380Y-94035714D01*
X125952380Y-93750000D02*
X124952380Y-93750000D01*
X125095238Y-93845238D01*
X125190476Y-93940476D01*
X125238095Y-94035714D01*
X125285714Y-92607142D02*
X125952380Y-92607142D01*
X125285714Y-93035714D02*
X125809523Y-93035714D01*
X125904761Y-92988095D01*
X125952380Y-92892857D01*
X125952380Y-92750000D01*
X125904761Y-92654761D01*
X125857142Y-92607142D01*
X125428571Y-91797619D02*
X125428571Y-92130952D01*
X125952380Y-92130952D02*
X124952380Y-92130952D01*
X124952380Y-91654761D01*
X125952380Y-90750000D02*
X125952380Y-91321428D01*
X125952380Y-91035714D02*
X124952380Y-91035714D01*
X125095238Y-91130952D01*
X125190476Y-91226190D01*
X125238095Y-91321428D01*
X107659524Y-98542143D02*
X107611905Y-98589762D01*
X107469048Y-98637381D01*
X107373810Y-98637381D01*
X107230953Y-98589762D01*
X107135715Y-98494524D01*
X107088096Y-98399286D01*
X107040477Y-98208810D01*
X107040477Y-98065953D01*
X107088096Y-97875477D01*
X107135715Y-97780239D01*
X107230953Y-97685001D01*
X107373810Y-97637381D01*
X107469048Y-97637381D01*
X107611905Y-97685001D01*
X107659524Y-97732620D01*
X108088096Y-98637381D02*
X108088096Y-97637381D01*
X108469048Y-97637381D01*
X108564286Y-97685001D01*
X108611905Y-97732620D01*
X108659524Y-97827858D01*
X108659524Y-97970715D01*
X108611905Y-98065953D01*
X108564286Y-98113572D01*
X108469048Y-98161191D01*
X108088096Y-98161191D01*
X105469048Y-94732143D02*
X105421429Y-94779762D01*
X105278572Y-94827381D01*
X105183334Y-94827381D01*
X105040477Y-94779762D01*
X104945239Y-94684524D01*
X104897620Y-94589286D01*
X104850001Y-94398810D01*
X104850001Y-94255953D01*
X104897620Y-94065477D01*
X104945239Y-93970239D01*
X105040477Y-93875001D01*
X105183334Y-93827381D01*
X105278572Y-93827381D01*
X105421429Y-93875001D01*
X105469048Y-93922620D01*
X105850001Y-93922620D02*
X105897620Y-93875001D01*
X105992858Y-93827381D01*
X106230953Y-93827381D01*
X106326191Y-93875001D01*
X106373810Y-93922620D01*
X106421429Y-94017858D01*
X106421429Y-94113096D01*
X106373810Y-94255953D01*
X105802381Y-94827381D01*
X106421429Y-94827381D01*
X106611905Y-94922620D02*
X107373810Y-94922620D01*
X108135715Y-94827381D02*
X107564286Y-94827381D01*
X107850001Y-94827381D02*
X107850001Y-93827381D01*
X107754762Y-93970239D01*
X107659524Y-94065477D01*
X107564286Y-94113096D01*
X108992858Y-94160715D02*
X108992858Y-94827381D01*
X108564286Y-94160715D02*
X108564286Y-94684524D01*
X108611905Y-94779762D01*
X108707143Y-94827381D01*
X108850001Y-94827381D01*
X108945239Y-94779762D01*
X108992858Y-94732143D01*
X109802381Y-94303572D02*
X109469048Y-94303572D01*
X109469048Y-94827381D02*
X109469048Y-93827381D01*
X109945239Y-93827381D01*
X110278572Y-93922620D02*
X110326191Y-93875001D01*
X110421429Y-93827381D01*
X110659524Y-93827381D01*
X110754762Y-93875001D01*
X110802381Y-93922620D01*
X110850001Y-94017858D01*
X110850001Y-94113096D01*
X110802381Y-94255953D01*
X110230953Y-94827381D01*
X110850001Y-94827381D01*
X135665477Y-85447381D02*
X135903572Y-86447381D01*
X136094048Y-85733096D01*
X136284524Y-86447381D01*
X136522620Y-85447381D01*
X136855953Y-86399762D02*
X136998810Y-86447381D01*
X137236905Y-86447381D01*
X137332143Y-86399762D01*
X137379762Y-86352143D01*
X137427381Y-86256905D01*
X137427381Y-86161667D01*
X137379762Y-86066429D01*
X137332143Y-86018810D01*
X137236905Y-85971191D01*
X137046429Y-85923572D01*
X136951191Y-85875953D01*
X136903572Y-85828334D01*
X136855953Y-85733096D01*
X136855953Y-85637858D01*
X136903572Y-85542620D01*
X136951191Y-85495001D01*
X137046429Y-85447381D01*
X137284524Y-85447381D01*
X137427381Y-85495001D01*
X137808334Y-85542620D02*
X137855953Y-85495001D01*
X137951191Y-85447381D01*
X138189286Y-85447381D01*
X138284524Y-85495001D01*
X138332143Y-85542620D01*
X138379762Y-85637858D01*
X138379762Y-85733096D01*
X138332143Y-85875953D01*
X137760715Y-86447381D01*
X138379762Y-86447381D01*
X138951191Y-85875953D02*
X138855953Y-85828334D01*
X138808334Y-85780715D01*
X138760715Y-85685477D01*
X138760715Y-85637858D01*
X138808334Y-85542620D01*
X138855953Y-85495001D01*
X138951191Y-85447381D01*
X139141667Y-85447381D01*
X139236905Y-85495001D01*
X139284524Y-85542620D01*
X139332143Y-85637858D01*
X139332143Y-85685477D01*
X139284524Y-85780715D01*
X139236905Y-85828334D01*
X139141667Y-85875953D01*
X138951191Y-85875953D01*
X138855953Y-85923572D01*
X138808334Y-85971191D01*
X138760715Y-86066429D01*
X138760715Y-86256905D01*
X138808334Y-86352143D01*
X138855953Y-86399762D01*
X138951191Y-86447381D01*
X139141667Y-86447381D01*
X139236905Y-86399762D01*
X139284524Y-86352143D01*
X139332143Y-86256905D01*
X139332143Y-86066429D01*
X139284524Y-85971191D01*
X139236905Y-85923572D01*
X139141667Y-85875953D01*
X140284524Y-86447381D02*
X139713096Y-86447381D01*
X139998810Y-86447381D02*
X139998810Y-85447381D01*
X139903572Y-85590239D01*
X139808334Y-85685477D01*
X139713096Y-85733096D01*
X140665477Y-85542620D02*
X140713096Y-85495001D01*
X140808334Y-85447381D01*
X141046429Y-85447381D01*
X141141667Y-85495001D01*
X141189286Y-85542620D01*
X141236905Y-85637858D01*
X141236905Y-85733096D01*
X141189286Y-85875953D01*
X140617858Y-86447381D01*
X141236905Y-86447381D01*
X141998810Y-85923572D02*
X142141667Y-85971191D01*
X142189286Y-86018810D01*
X142236905Y-86114048D01*
X142236905Y-86256905D01*
X142189286Y-86352143D01*
X142141667Y-86399762D01*
X142046429Y-86447381D01*
X141665477Y-86447381D01*
X141665477Y-85447381D01*
X141998810Y-85447381D01*
X142094048Y-85495001D01*
X142141667Y-85542620D01*
X142189286Y-85637858D01*
X142189286Y-85733096D01*
X142141667Y-85828334D01*
X142094048Y-85875953D01*
X141998810Y-85923572D01*
X141665477Y-85923572D01*
X138523809Y-78452380D02*
X138523809Y-77452380D01*
X138857142Y-78166666D01*
X139190476Y-77452380D01*
X139190476Y-78452380D01*
X139809523Y-78452380D02*
X139714285Y-78404761D01*
X139666666Y-78357142D01*
X139619047Y-78261904D01*
X139619047Y-77976190D01*
X139666666Y-77880952D01*
X139714285Y-77833333D01*
X139809523Y-77785714D01*
X139952380Y-77785714D01*
X140047619Y-77833333D01*
X140095238Y-77880952D01*
X140142857Y-77976190D01*
X140142857Y-78261904D01*
X140095238Y-78357142D01*
X140047619Y-78404761D01*
X139952380Y-78452380D01*
X139809523Y-78452380D01*
X141000000Y-77785714D02*
X141000000Y-78452380D01*
X140571428Y-77785714D02*
X140571428Y-78309523D01*
X140619047Y-78404761D01*
X140714285Y-78452380D01*
X140857142Y-78452380D01*
X140952380Y-78404761D01*
X141000000Y-78357142D01*
X141476190Y-77785714D02*
X141476190Y-78452380D01*
X141476190Y-77880952D02*
X141523809Y-77833333D01*
X141619047Y-77785714D01*
X141761904Y-77785714D01*
X141857142Y-77833333D01*
X141904761Y-77928571D01*
X141904761Y-78452380D01*
X142238095Y-77785714D02*
X142619047Y-77785714D01*
X142380952Y-77452380D02*
X142380952Y-78309523D01*
X142428571Y-78404761D01*
X142523809Y-78452380D01*
X142619047Y-78452380D01*
X140038095Y-73952380D02*
X140038095Y-72952380D01*
X140038095Y-73428571D02*
X140609523Y-73428571D01*
X140609523Y-73952380D02*
X140609523Y-72952380D01*
X141609523Y-73952380D02*
X141038095Y-73952380D01*
X141323809Y-73952380D02*
X141323809Y-72952380D01*
X141228571Y-73095238D01*
X141133333Y-73190476D01*
X141038095Y-73238095D01*
X138023809Y-121452380D02*
X138023809Y-120452380D01*
X138357142Y-121166666D01*
X138690476Y-120452380D01*
X138690476Y-121452380D01*
X139309523Y-121452380D02*
X139214285Y-121404761D01*
X139166666Y-121357142D01*
X139119047Y-121261904D01*
X139119047Y-120976190D01*
X139166666Y-120880952D01*
X139214285Y-120833333D01*
X139309523Y-120785714D01*
X139452380Y-120785714D01*
X139547619Y-120833333D01*
X139595238Y-120880952D01*
X139642857Y-120976190D01*
X139642857Y-121261904D01*
X139595238Y-121357142D01*
X139547619Y-121404761D01*
X139452380Y-121452380D01*
X139309523Y-121452380D01*
X140500000Y-120785714D02*
X140500000Y-121452380D01*
X140071428Y-120785714D02*
X140071428Y-121309523D01*
X140119047Y-121404761D01*
X140214285Y-121452380D01*
X140357142Y-121452380D01*
X140452380Y-121404761D01*
X140500000Y-121357142D01*
X140976190Y-120785714D02*
X140976190Y-121452380D01*
X140976190Y-120880952D02*
X141023809Y-120833333D01*
X141119047Y-120785714D01*
X141261904Y-120785714D01*
X141357142Y-120833333D01*
X141404761Y-120928571D01*
X141404761Y-121452380D01*
X141738095Y-120785714D02*
X142119047Y-120785714D01*
X141880952Y-120452380D02*
X141880952Y-121309523D01*
X141928571Y-121404761D01*
X142023809Y-121452380D01*
X142119047Y-121452380D01*
X140038095Y-125952380D02*
X140038095Y-124952380D01*
X140038095Y-125428571D02*
X140609523Y-125428571D01*
X140609523Y-125952380D02*
X140609523Y-124952380D01*
X141038095Y-125047619D02*
X141085714Y-125000000D01*
X141180952Y-124952380D01*
X141419047Y-124952380D01*
X141514285Y-125000000D01*
X141561904Y-125047619D01*
X141609523Y-125142857D01*
X141609523Y-125238095D01*
X141561904Y-125380952D01*
X140990476Y-125952380D01*
X141609523Y-125952380D01*
X86523809Y-78452380D02*
X86523809Y-77452380D01*
X86857142Y-78166666D01*
X87190476Y-77452380D01*
X87190476Y-78452380D01*
X87809523Y-78452380D02*
X87714285Y-78404761D01*
X87666666Y-78357142D01*
X87619047Y-78261904D01*
X87619047Y-77976190D01*
X87666666Y-77880952D01*
X87714285Y-77833333D01*
X87809523Y-77785714D01*
X87952380Y-77785714D01*
X88047619Y-77833333D01*
X88095238Y-77880952D01*
X88142857Y-77976190D01*
X88142857Y-78261904D01*
X88095238Y-78357142D01*
X88047619Y-78404761D01*
X87952380Y-78452380D01*
X87809523Y-78452380D01*
X89000000Y-77785714D02*
X89000000Y-78452380D01*
X88571428Y-77785714D02*
X88571428Y-78309523D01*
X88619047Y-78404761D01*
X88714285Y-78452380D01*
X88857142Y-78452380D01*
X88952380Y-78404761D01*
X89000000Y-78357142D01*
X89476190Y-77785714D02*
X89476190Y-78452380D01*
X89476190Y-77880952D02*
X89523809Y-77833333D01*
X89619047Y-77785714D01*
X89761904Y-77785714D01*
X89857142Y-77833333D01*
X89904761Y-77928571D01*
X89904761Y-78452380D01*
X90238095Y-77785714D02*
X90619047Y-77785714D01*
X90380952Y-77452380D02*
X90380952Y-78309523D01*
X90428571Y-78404761D01*
X90523809Y-78452380D01*
X90619047Y-78452380D01*
X88038095Y-73952380D02*
X88038095Y-72952380D01*
X88038095Y-73428571D02*
X88609523Y-73428571D01*
X88609523Y-73952380D02*
X88609523Y-72952380D01*
X88990476Y-72952380D02*
X89609523Y-72952380D01*
X89276190Y-73333333D01*
X89419047Y-73333333D01*
X89514285Y-73380952D01*
X89561904Y-73428571D01*
X89609523Y-73523809D01*
X89609523Y-73761904D01*
X89561904Y-73857142D01*
X89514285Y-73904761D01*
X89419047Y-73952380D01*
X89133333Y-73952380D01*
X89038095Y-73904761D01*
X88990476Y-73857142D01*
X85452380Y-101761904D02*
X86166666Y-101761904D01*
X86309523Y-101809523D01*
X86404761Y-101904761D01*
X86452380Y-102047619D01*
X86452380Y-102142857D01*
X86452380Y-100857142D02*
X85928571Y-100857142D01*
X85833333Y-100904761D01*
X85785714Y-101000000D01*
X85785714Y-101190476D01*
X85833333Y-101285714D01*
X86404761Y-100857142D02*
X86452380Y-100952380D01*
X86452380Y-101190476D01*
X86404761Y-101285714D01*
X86309523Y-101333333D01*
X86214285Y-101333333D01*
X86119047Y-101285714D01*
X86071428Y-101190476D01*
X86071428Y-100952380D01*
X86023809Y-100857142D01*
X86404761Y-99952380D02*
X86452380Y-100047619D01*
X86452380Y-100238095D01*
X86404761Y-100333333D01*
X86357142Y-100380952D01*
X86261904Y-100428571D01*
X85976190Y-100428571D01*
X85880952Y-100380952D01*
X85833333Y-100333333D01*
X85785714Y-100238095D01*
X85785714Y-100047619D01*
X85833333Y-99952380D01*
X86452380Y-99523809D02*
X85452380Y-99523809D01*
X86071428Y-99428571D02*
X86452380Y-99142857D01*
X85785714Y-99142857D02*
X86166666Y-99523809D01*
X86071428Y-98714285D02*
X86071428Y-97952380D01*
X86452380Y-97476190D02*
X85452380Y-97476190D01*
X85452380Y-97238095D01*
X85500000Y-97095238D01*
X85595238Y-97000000D01*
X85690476Y-96952380D01*
X85880952Y-96904761D01*
X86023809Y-96904761D01*
X86214285Y-96952380D01*
X86309523Y-97000000D01*
X86404761Y-97095238D01*
X86452380Y-97238095D01*
X86452380Y-97476190D01*
X86357142Y-95904761D02*
X86404761Y-95952380D01*
X86452380Y-96095238D01*
X86452380Y-96190476D01*
X86404761Y-96333333D01*
X86309523Y-96428571D01*
X86214285Y-96476190D01*
X86023809Y-96523809D01*
X85880952Y-96523809D01*
X85690476Y-96476190D01*
X85595238Y-96428571D01*
X85500000Y-96333333D01*
X85452380Y-96190476D01*
X85452380Y-96095238D01*
X85500000Y-95952380D01*
X85547619Y-95904761D01*
X94452380Y-99333333D02*
X95166666Y-99333333D01*
X95309523Y-99380952D01*
X95404761Y-99476190D01*
X95452380Y-99619047D01*
X95452380Y-99714285D01*
X95452380Y-98333333D02*
X95452380Y-98904761D01*
X95452380Y-98619047D02*
X94452380Y-98619047D01*
X94595238Y-98714285D01*
X94690476Y-98809523D01*
X94738095Y-98904761D01*
X105098571Y-75666666D02*
X105098571Y-75333333D01*
X105622380Y-75190476D02*
X105622380Y-75666666D01*
X104622380Y-75666666D01*
X104622380Y-75190476D01*
X104622380Y-74904761D02*
X104622380Y-74333333D01*
X105622380Y-74619047D02*
X104622380Y-74619047D01*
X105622380Y-74000000D02*
X104622380Y-74000000D01*
X105098571Y-74000000D02*
X105098571Y-73428571D01*
X105622380Y-73428571D02*
X104622380Y-73428571D01*
X105717619Y-73190476D02*
X105717619Y-72428571D01*
X105622380Y-71714285D02*
X105622380Y-72190476D01*
X104622380Y-72190476D01*
X105098571Y-71380952D02*
X105098571Y-71047619D01*
X105622380Y-70904761D02*
X105622380Y-71380952D01*
X104622380Y-71380952D01*
X104622380Y-70904761D01*
X105098571Y-70142857D02*
X105098571Y-70476190D01*
X105622380Y-70476190D02*
X104622380Y-70476190D01*
X104622380Y-70000000D01*
X104622380Y-69761904D02*
X104622380Y-69190476D01*
X105622380Y-69476190D02*
X104622380Y-69476190D01*
X116056666Y-71952380D02*
X116056666Y-72666666D01*
X116009047Y-72809523D01*
X115913809Y-72904761D01*
X115770952Y-72952380D01*
X115675714Y-72952380D01*
X116485238Y-72047619D02*
X116532857Y-72000000D01*
X116628095Y-71952380D01*
X116866190Y-71952380D01*
X116961428Y-72000000D01*
X117009047Y-72047619D01*
X117056666Y-72142857D01*
X117056666Y-72238095D01*
X117009047Y-72380952D01*
X116437619Y-72952380D01*
X117056666Y-72952380D01*
X105098571Y-91142857D02*
X105098571Y-90809523D01*
X105622380Y-90666666D02*
X105622380Y-91142857D01*
X104622380Y-91142857D01*
X104622380Y-90666666D01*
X104622380Y-90380952D02*
X104622380Y-89809523D01*
X105622380Y-90095238D02*
X104622380Y-90095238D01*
X105622380Y-89476190D02*
X104622380Y-89476190D01*
X105098571Y-89476190D02*
X105098571Y-88904761D01*
X105622380Y-88904761D02*
X104622380Y-88904761D01*
X105717619Y-88666666D02*
X105717619Y-87904761D01*
X105622380Y-87095238D02*
X105146190Y-87428571D01*
X105622380Y-87666666D02*
X104622380Y-87666666D01*
X104622380Y-87285714D01*
X104670000Y-87190476D01*
X104717619Y-87142857D01*
X104812857Y-87095238D01*
X104955714Y-87095238D01*
X105050952Y-87142857D01*
X105098571Y-87190476D01*
X105146190Y-87285714D01*
X105146190Y-87666666D01*
X105622380Y-86666666D02*
X104622380Y-86666666D01*
X104670000Y-85666666D02*
X104622380Y-85761904D01*
X104622380Y-85904761D01*
X104670000Y-86047619D01*
X104765238Y-86142857D01*
X104860476Y-86190476D01*
X105050952Y-86238095D01*
X105193809Y-86238095D01*
X105384285Y-86190476D01*
X105479523Y-86142857D01*
X105574761Y-86047619D01*
X105622380Y-85904761D01*
X105622380Y-85809523D01*
X105574761Y-85666666D01*
X105527142Y-85619047D01*
X105193809Y-85619047D01*
X105193809Y-85809523D01*
X105622380Y-85190476D02*
X104622380Y-85190476D01*
X105098571Y-85190476D02*
X105098571Y-84619047D01*
X105622380Y-84619047D02*
X104622380Y-84619047D01*
X104622380Y-84285714D02*
X104622380Y-83714285D01*
X105622380Y-84000000D02*
X104622380Y-84000000D01*
X116056666Y-86952380D02*
X116056666Y-87666666D01*
X116009047Y-87809523D01*
X115913809Y-87904761D01*
X115770952Y-87952380D01*
X115675714Y-87952380D01*
X116437619Y-86952380D02*
X117056666Y-86952380D01*
X116723333Y-87333333D01*
X116866190Y-87333333D01*
X116961428Y-87380952D01*
X117009047Y-87428571D01*
X117056666Y-87523809D01*
X117056666Y-87761904D01*
X117009047Y-87857142D01*
X116961428Y-87904761D01*
X116866190Y-87952380D01*
X116580476Y-87952380D01*
X116485238Y-87904761D01*
X116437619Y-87857142D01*
X124714285Y-101357142D02*
X124666666Y-101404761D01*
X124523809Y-101452380D01*
X124428571Y-101452380D01*
X124285714Y-101404761D01*
X124190476Y-101309523D01*
X124142857Y-101214285D01*
X124095238Y-101023809D01*
X124095238Y-100880952D01*
X124142857Y-100690476D01*
X124190476Y-100595238D01*
X124285714Y-100500000D01*
X124428571Y-100452380D01*
X124523809Y-100452380D01*
X124666666Y-100500000D01*
X124714285Y-100547619D01*
X125285714Y-101452380D02*
X125190476Y-101404761D01*
X125142857Y-101357142D01*
X125095238Y-101261904D01*
X125095238Y-100976190D01*
X125142857Y-100880952D01*
X125190476Y-100833333D01*
X125285714Y-100785714D01*
X125428571Y-100785714D01*
X125523809Y-100833333D01*
X125571428Y-100880952D01*
X125619047Y-100976190D01*
X125619047Y-101261904D01*
X125571428Y-101357142D01*
X125523809Y-101404761D01*
X125428571Y-101452380D01*
X125285714Y-101452380D01*
X126047619Y-100785714D02*
X126047619Y-101452380D01*
X126047619Y-100880952D02*
X126095238Y-100833333D01*
X126190476Y-100785714D01*
X126333333Y-100785714D01*
X126428571Y-100833333D01*
X126476190Y-100928571D01*
X126476190Y-101452380D01*
X126952380Y-100785714D02*
X126952380Y-101452380D01*
X126952380Y-100880952D02*
X127000000Y-100833333D01*
X127095238Y-100785714D01*
X127238095Y-100785714D01*
X127333333Y-100833333D01*
X127380952Y-100928571D01*
X127380952Y-101452380D01*
X127619047Y-101547619D02*
X128380952Y-101547619D01*
X128809523Y-100452380D02*
X128904761Y-100452380D01*
X129000000Y-100500000D01*
X129047619Y-100547619D01*
X129095238Y-100642857D01*
X129142857Y-100833333D01*
X129142857Y-101071428D01*
X129095238Y-101261904D01*
X129047619Y-101357142D01*
X129000000Y-101404761D01*
X128904761Y-101452380D01*
X128809523Y-101452380D01*
X128714285Y-101404761D01*
X128666666Y-101357142D01*
X128619047Y-101261904D01*
X128571428Y-101071428D01*
X128571428Y-100833333D01*
X128619047Y-100642857D01*
X128666666Y-100547619D01*
X128714285Y-100500000D01*
X128809523Y-100452380D01*
X130095238Y-101452380D02*
X129523809Y-101452380D01*
X129809523Y-101452380D02*
X129809523Y-100452380D01*
X129714285Y-100595238D01*
X129619047Y-100690476D01*
X129523809Y-100738095D01*
X130428571Y-101452380D02*
X130952380Y-100785714D01*
X130428571Y-100785714D02*
X130952380Y-101452380D01*
X131523809Y-100452380D02*
X131619047Y-100452380D01*
X131714285Y-100500000D01*
X131761904Y-100547619D01*
X131809523Y-100642857D01*
X131857142Y-100833333D01*
X131857142Y-101071428D01*
X131809523Y-101261904D01*
X131761904Y-101357142D01*
X131714285Y-101404761D01*
X131619047Y-101452380D01*
X131523809Y-101452380D01*
X131428571Y-101404761D01*
X131380952Y-101357142D01*
X131333333Y-101261904D01*
X131285714Y-101071428D01*
X131285714Y-100833333D01*
X131333333Y-100642857D01*
X131380952Y-100547619D01*
X131428571Y-100500000D01*
X131523809Y-100452380D01*
X132714285Y-100785714D02*
X132714285Y-101452380D01*
X132476190Y-100404761D02*
X132238095Y-101119047D01*
X132857142Y-101119047D01*
X133000000Y-101547619D02*
X133761904Y-101547619D01*
X134333333Y-100928571D02*
X134000000Y-100928571D01*
X134000000Y-101452380D02*
X134000000Y-100452380D01*
X134476190Y-100452380D01*
X135238095Y-101404761D02*
X135142857Y-101452380D01*
X134952380Y-101452380D01*
X134857142Y-101404761D01*
X134809523Y-101309523D01*
X134809523Y-100928571D01*
X134857142Y-100833333D01*
X134952380Y-100785714D01*
X135142857Y-100785714D01*
X135238095Y-100833333D01*
X135285714Y-100928571D01*
X135285714Y-101023809D01*
X134809523Y-101119047D01*
X135714285Y-101452380D02*
X135714285Y-100785714D01*
X135714285Y-100880952D02*
X135761904Y-100833333D01*
X135857142Y-100785714D01*
X136000000Y-100785714D01*
X136095238Y-100833333D01*
X136142857Y-100928571D01*
X136142857Y-101452380D01*
X136142857Y-100928571D02*
X136190476Y-100833333D01*
X136285714Y-100785714D01*
X136428571Y-100785714D01*
X136523809Y-100833333D01*
X136571428Y-100928571D01*
X136571428Y-101452380D01*
X137476190Y-101452380D02*
X137476190Y-100928571D01*
X137428571Y-100833333D01*
X137333333Y-100785714D01*
X137142857Y-100785714D01*
X137047619Y-100833333D01*
X137476190Y-101404761D02*
X137380952Y-101452380D01*
X137142857Y-101452380D01*
X137047619Y-101404761D01*
X137000000Y-101309523D01*
X137000000Y-101214285D01*
X137047619Y-101119047D01*
X137142857Y-101071428D01*
X137380952Y-101071428D01*
X137476190Y-101023809D01*
X138095238Y-101452380D02*
X138000000Y-101404761D01*
X137952380Y-101309523D01*
X137952380Y-100452380D01*
X138857142Y-101404761D02*
X138761904Y-101452380D01*
X138571428Y-101452380D01*
X138476190Y-101404761D01*
X138428571Y-101309523D01*
X138428571Y-100928571D01*
X138476190Y-100833333D01*
X138571428Y-100785714D01*
X138761904Y-100785714D01*
X138857142Y-100833333D01*
X138904761Y-100928571D01*
X138904761Y-101023809D01*
X138428571Y-101119047D01*
X140952380Y-97643333D02*
X141666666Y-97643333D01*
X141809523Y-97690952D01*
X141904761Y-97786190D01*
X141952380Y-97929047D01*
X141952380Y-98024285D01*
X140952380Y-96690952D02*
X140952380Y-97167142D01*
X141428571Y-97214761D01*
X141380952Y-97167142D01*
X141333333Y-97071904D01*
X141333333Y-96833809D01*
X141380952Y-96738571D01*
X141428571Y-96690952D01*
X141523809Y-96643333D01*
X141761904Y-96643333D01*
X141857142Y-96690952D01*
X141904761Y-96738571D01*
X141952380Y-96833809D01*
X141952380Y-97071904D01*
X141904761Y-97167142D01*
X141857142Y-97214761D01*
X120404761Y-123404761D02*
X120547619Y-123452380D01*
X120785714Y-123452380D01*
X120880952Y-123404761D01*
X120928571Y-123357142D01*
X120976190Y-123261904D01*
X120976190Y-123166666D01*
X120928571Y-123071428D01*
X120880952Y-123023809D01*
X120785714Y-122976190D01*
X120595238Y-122928571D01*
X120500000Y-122880952D01*
X120452380Y-122833333D01*
X120404761Y-122738095D01*
X120404761Y-122642857D01*
X120452380Y-122547619D01*
X120500000Y-122500000D01*
X120595238Y-122452380D01*
X120833333Y-122452380D01*
X120976190Y-122500000D01*
X121261904Y-122785714D02*
X121642857Y-122785714D01*
X121404761Y-122452380D02*
X121404761Y-123309523D01*
X121452380Y-123404761D01*
X121547619Y-123452380D01*
X121642857Y-123452380D01*
X122357142Y-123404761D02*
X122261904Y-123452380D01*
X122071428Y-123452380D01*
X121976190Y-123404761D01*
X121928571Y-123309523D01*
X121928571Y-122928571D01*
X121976190Y-122833333D01*
X122071428Y-122785714D01*
X122261904Y-122785714D01*
X122357142Y-122833333D01*
X122404761Y-122928571D01*
X122404761Y-123023809D01*
X121928571Y-123119047D01*
X122833333Y-122785714D02*
X122833333Y-123785714D01*
X122833333Y-122833333D02*
X122928571Y-122785714D01*
X123119047Y-122785714D01*
X123214285Y-122833333D01*
X123261904Y-122880952D01*
X123309523Y-122976190D01*
X123309523Y-123261904D01*
X123261904Y-123357142D01*
X123214285Y-123404761D01*
X123119047Y-123452380D01*
X122928571Y-123452380D01*
X122833333Y-123404761D01*
X123738095Y-122785714D02*
X123738095Y-123785714D01*
X123738095Y-122833333D02*
X123833333Y-122785714D01*
X124023809Y-122785714D01*
X124119047Y-122833333D01*
X124166666Y-122880952D01*
X124214285Y-122976190D01*
X124214285Y-123261904D01*
X124166666Y-123357142D01*
X124119047Y-123404761D01*
X124023809Y-123452380D01*
X123833333Y-123452380D01*
X123738095Y-123404761D01*
X125023809Y-123404761D02*
X124928571Y-123452380D01*
X124738095Y-123452380D01*
X124642857Y-123404761D01*
X124595238Y-123309523D01*
X124595238Y-122928571D01*
X124642857Y-122833333D01*
X124738095Y-122785714D01*
X124928571Y-122785714D01*
X125023809Y-122833333D01*
X125071428Y-122928571D01*
X125071428Y-123023809D01*
X124595238Y-123119047D01*
X125500000Y-123452380D02*
X125500000Y-122785714D01*
X125500000Y-122976190D02*
X125547619Y-122880952D01*
X125595238Y-122833333D01*
X125690476Y-122785714D01*
X125785714Y-122785714D01*
X125880952Y-123547619D02*
X126642857Y-123547619D01*
X126880952Y-123452380D02*
X126880952Y-122452380D01*
X127214285Y-123166666D01*
X127547619Y-122452380D01*
X127547619Y-123452380D01*
X128166666Y-123452380D02*
X128071428Y-123404761D01*
X128023809Y-123357142D01*
X127976190Y-123261904D01*
X127976190Y-122976190D01*
X128023809Y-122880952D01*
X128071428Y-122833333D01*
X128166666Y-122785714D01*
X128309523Y-122785714D01*
X128404761Y-122833333D01*
X128452380Y-122880952D01*
X128500000Y-122976190D01*
X128500000Y-123261904D01*
X128452380Y-123357142D01*
X128404761Y-123404761D01*
X128309523Y-123452380D01*
X128166666Y-123452380D01*
X128785714Y-122785714D02*
X129166666Y-122785714D01*
X128928571Y-122452380D02*
X128928571Y-123309523D01*
X128976190Y-123404761D01*
X129071428Y-123452380D01*
X129166666Y-123452380D01*
X129642857Y-123452380D02*
X129547619Y-123404761D01*
X129500000Y-123357142D01*
X129452380Y-123261904D01*
X129452380Y-122976190D01*
X129500000Y-122880952D01*
X129547619Y-122833333D01*
X129642857Y-122785714D01*
X129785714Y-122785714D01*
X129880952Y-122833333D01*
X129928571Y-122880952D01*
X129976190Y-122976190D01*
X129976190Y-123261904D01*
X129928571Y-123357142D01*
X129880952Y-123404761D01*
X129785714Y-123452380D01*
X129642857Y-123452380D01*
X130404761Y-123452380D02*
X130404761Y-122785714D01*
X130404761Y-122976190D02*
X130452380Y-122880952D01*
X130500000Y-122833333D01*
X130595238Y-122785714D01*
X130690476Y-122785714D01*
X130785714Y-123547619D02*
X131547619Y-123547619D01*
X131785714Y-123452380D02*
X131785714Y-122452380D01*
X131785714Y-122833333D02*
X131880952Y-122785714D01*
X132071428Y-122785714D01*
X132166666Y-122833333D01*
X132214285Y-122880952D01*
X132261904Y-122976190D01*
X132261904Y-123261904D01*
X132214285Y-123357142D01*
X132166666Y-123404761D01*
X132071428Y-123452380D01*
X131880952Y-123452380D01*
X131785714Y-123404761D01*
X132690476Y-123452380D02*
X132690476Y-122785714D01*
X132690476Y-122452380D02*
X132642857Y-122500000D01*
X132690476Y-122547619D01*
X132738095Y-122500000D01*
X132690476Y-122452380D01*
X132690476Y-122547619D01*
X133166666Y-122785714D02*
X133166666Y-123785714D01*
X133166666Y-122833333D02*
X133261904Y-122785714D01*
X133452380Y-122785714D01*
X133547619Y-122833333D01*
X133595238Y-122880952D01*
X133642857Y-122976190D01*
X133642857Y-123261904D01*
X133595238Y-123357142D01*
X133547619Y-123404761D01*
X133452380Y-123452380D01*
X133261904Y-123452380D01*
X133166666Y-123404761D01*
X134214285Y-123452380D02*
X134119047Y-123404761D01*
X134071428Y-123357142D01*
X134023809Y-123261904D01*
X134023809Y-122976190D01*
X134071428Y-122880952D01*
X134119047Y-122833333D01*
X134214285Y-122785714D01*
X134357142Y-122785714D01*
X134452380Y-122833333D01*
X134500000Y-122880952D01*
X134547619Y-122976190D01*
X134547619Y-123261904D01*
X134500000Y-123357142D01*
X134452380Y-123404761D01*
X134357142Y-123452380D01*
X134214285Y-123452380D01*
X135119047Y-123452380D02*
X135023809Y-123404761D01*
X134976190Y-123309523D01*
X134976190Y-122452380D01*
X135928571Y-123452380D02*
X135928571Y-122928571D01*
X135880952Y-122833333D01*
X135785714Y-122785714D01*
X135595238Y-122785714D01*
X135500000Y-122833333D01*
X135928571Y-123404761D02*
X135833333Y-123452380D01*
X135595238Y-123452380D01*
X135500000Y-123404761D01*
X135452380Y-123309523D01*
X135452380Y-123214285D01*
X135500000Y-123119047D01*
X135595238Y-123071428D01*
X135833333Y-123071428D01*
X135928571Y-123023809D01*
X136404761Y-123452380D02*
X136404761Y-122785714D01*
X136404761Y-122976190D02*
X136452380Y-122880952D01*
X136500000Y-122833333D01*
X136595238Y-122785714D01*
X136690476Y-122785714D01*
X127500476Y-126952380D02*
X127500476Y-125952380D01*
X127833809Y-126666666D01*
X128167142Y-125952380D01*
X128167142Y-126952380D01*
X129167142Y-126952380D02*
X128595714Y-126952380D01*
X128881428Y-126952380D02*
X128881428Y-125952380D01*
X128786190Y-126095238D01*
X128690952Y-126190476D01*
X128595714Y-126238095D01*
X99309523Y-123202380D02*
X98976190Y-122726190D01*
X98738095Y-123202380D02*
X98738095Y-122202380D01*
X99119047Y-122202380D01*
X99214285Y-122250000D01*
X99261904Y-122297619D01*
X99309523Y-122392857D01*
X99309523Y-122535714D01*
X99261904Y-122630952D01*
X99214285Y-122678571D01*
X99119047Y-122726190D01*
X98738095Y-122726190D01*
D15*
X97880952Y-121226190D02*
X97714285Y-120988095D01*
X97595238Y-121226190D02*
X97595238Y-120726190D01*
X97785714Y-120726190D01*
X97833333Y-120750000D01*
X97857142Y-120773809D01*
X97880952Y-120821428D01*
X97880952Y-120892857D01*
X97857142Y-120940476D01*
X97833333Y-120964285D01*
X97785714Y-120988095D01*
X97595238Y-120988095D01*
X98357142Y-121226190D02*
X98071428Y-121226190D01*
X98214285Y-121226190D02*
X98214285Y-120726190D01*
X98166666Y-120797619D01*
X98119047Y-120845238D01*
X98071428Y-120869047D01*
X98571428Y-121178571D02*
X98595238Y-121202380D01*
X98571428Y-121226190D01*
X98547619Y-121202380D01*
X98571428Y-121178571D01*
X98571428Y-121226190D01*
X99023809Y-120726190D02*
X98928571Y-120726190D01*
X98880952Y-120750000D01*
X98857142Y-120773809D01*
X98809523Y-120845238D01*
X98785714Y-120940476D01*
X98785714Y-121130952D01*
X98809523Y-121178571D01*
X98833333Y-121202380D01*
X98880952Y-121226190D01*
X98976190Y-121226190D01*
X99023809Y-121202380D01*
X99047619Y-121178571D01*
X99071428Y-121130952D01*
X99071428Y-121011904D01*
X99047619Y-120964285D01*
X99023809Y-120940476D01*
X98976190Y-120916666D01*
X98880952Y-120916666D01*
X98833333Y-120940476D01*
X98809523Y-120964285D01*
X98785714Y-121011904D01*
X99500000Y-120726190D02*
X99404761Y-120726190D01*
X99357142Y-120750000D01*
X99333333Y-120773809D01*
X99285714Y-120845238D01*
X99261904Y-120940476D01*
X99261904Y-121130952D01*
X99285714Y-121178571D01*
X99309523Y-121202380D01*
X99357142Y-121226190D01*
X99452380Y-121226190D01*
X99500000Y-121202380D01*
X99523809Y-121178571D01*
X99547619Y-121130952D01*
X99547619Y-121011904D01*
X99523809Y-120964285D01*
X99500000Y-120940476D01*
X99452380Y-120916666D01*
X99357142Y-120916666D01*
X99309523Y-120940476D01*
X99285714Y-120964285D01*
X99261904Y-121011904D01*
X99761904Y-121226190D02*
X99761904Y-120726190D01*
X99809523Y-121035714D02*
X99952380Y-121226190D01*
X99952380Y-120892857D02*
X99761904Y-121083333D01*
X100428571Y-121226190D02*
X100142857Y-121226190D01*
X100285714Y-121226190D02*
X100285714Y-120726190D01*
X100238095Y-120797619D01*
X100190476Y-120845238D01*
X100142857Y-120869047D01*
D10*
X93809523Y-123202380D02*
X93476190Y-122726190D01*
X93238095Y-123202380D02*
X93238095Y-122202380D01*
X93619047Y-122202380D01*
X93714285Y-122250000D01*
X93761904Y-122297619D01*
X93809523Y-122392857D01*
X93809523Y-122535714D01*
X93761904Y-122630952D01*
X93714285Y-122678571D01*
X93619047Y-122726190D01*
X93238095Y-122726190D01*
D15*
X92976190Y-121226190D02*
X92809523Y-120988095D01*
X92690476Y-121226190D02*
X92690476Y-120726190D01*
X92880952Y-120726190D01*
X92928571Y-120750000D01*
X92952380Y-120773809D01*
X92976190Y-120821428D01*
X92976190Y-120892857D01*
X92952380Y-120940476D01*
X92928571Y-120964285D01*
X92880952Y-120988095D01*
X92690476Y-120988095D01*
X93428571Y-120726190D02*
X93190476Y-120726190D01*
X93166666Y-120964285D01*
X93190476Y-120940476D01*
X93238095Y-120916666D01*
X93357142Y-120916666D01*
X93404761Y-120940476D01*
X93428571Y-120964285D01*
X93452380Y-121011904D01*
X93452380Y-121130952D01*
X93428571Y-121178571D01*
X93404761Y-121202380D01*
X93357142Y-121226190D01*
X93238095Y-121226190D01*
X93190476Y-121202380D01*
X93166666Y-121178571D01*
X93666666Y-121226190D02*
X93666666Y-120726190D01*
X93714285Y-121035714D02*
X93857142Y-121226190D01*
X93857142Y-120892857D02*
X93666666Y-121083333D01*
X94333333Y-121226190D02*
X94047619Y-121226190D01*
X94190476Y-121226190D02*
X94190476Y-120726190D01*
X94142857Y-120797619D01*
X94095238Y-120845238D01*
X94047619Y-120869047D01*
M02*
