M48
;DRILL file {KiCad (5.0.1-3-g963ef8bb5)} date 2020 February 23, Sunday 21:28:30
;FORMAT={-:-/ absolute / inch / decimal}
FMAT,2
INCH,TZ
T1C0.0157
T2C0.0197
T3C0.0315
T4C0.0394
T5C0.0400
T6C0.1378
%
G90
G05
M72
T1
X3.4055Y-3.6417
X3.4252Y-4.1535
X3.4252Y-4.2913
X3.5433Y-4.5866
X3.563Y-3.2283
X3.563Y-4.8622
X3.7008Y-4.4882
X3.7598Y-3.9764
X3.7795Y-3.622
X3.8583Y-4.6457
X3.8583Y-4.6457
X3.8583Y-4.6457
X3.878Y-4.8819
X3.9173Y-2.9724
X3.937Y-3.6417
X3.937Y-4.1142
X3.9764Y-3.3858
X4.0945Y-4.1732
X4.1142Y-3.622
X4.1142Y-4.4882
X4.1535Y-4.626
X4.2126Y-4.7441
X4.2717Y-3.2874
X4.2913Y-4.311
X4.2913Y-4.6654
X4.3701Y-2.9724
X4.3701Y-2.9724
X4.3701Y-2.9724
X4.3701Y-4.6457
X4.4488Y-4.1929
X4.4685Y-4.8622
X4.5276Y-4.2406
X4.5276Y-4.4882
X4.5276Y-4.685
X4.5472Y-2.9724
X4.5866Y-3.6417
X4.5866Y-3.8976
X4.5866Y-4.1929
X4.685Y-4.685
X4.7047Y-3.8976
X4.7047Y-4.2126
X4.7244Y-3.6417
X4.7638Y-5.0394
X4.7638Y-5.0394
X4.7638Y-5.0394
X4.7835Y-2.9724
X4.7835Y-4.9213
X4.8031Y-3.3071
X4.8031Y-4.8228
X4.9016Y-4.8228
X4.9213Y-3.0512
X5.Y-4.4882
X5.0197Y-3.8976
X5.0197Y-3.8976
X5.0197Y-3.8976
X5.0591Y-4.5472
X5.0591Y-4.8228
X5.0787Y-3.5433
X5.0984Y-4.3898
X5.0984Y-4.4488
X5.1378Y-4.5276
X5.1575Y-4.8228
X5.1969Y-2.874
X5.2362Y-3.563
X5.2362Y-3.9173
X5.2362Y-4.5866
X5.2559Y-4.8228
X5.315Y-4.311
X5.3346Y-4.6063
X5.3543Y-3.0512
X5.3543Y-4.7441
X5.3543Y-5.0394
X5.374Y-4.8228
X5.4134Y-4.0945
X5.4134Y-4.7441
X5.4724Y-4.4685
X5.4724Y-4.4685
X5.4724Y-4.4685
X5.5118Y-4.5866
X5.5118Y-4.5866
X5.5118Y-4.5866
X5.5315Y-4.0945
X5.5512Y-4.3504
X5.5709Y-4.2717
T2
X5.4281Y-2.8937
X5.4584Y-2.8206
X5.4584Y-2.9668
X5.5315Y-2.7904
X5.5315Y-2.997
X5.6046Y-2.8206
X5.6046Y-2.9668
X5.6348Y-2.8937
X3.3809Y-2.8937
X3.4112Y-2.8206
X3.4112Y-2.9668
X3.4843Y-2.7904
X3.4843Y-2.997
X3.5573Y-2.8206
X3.5573Y-2.9668
X3.5876Y-2.8937
X5.4281Y-4.9409
X5.4584Y-4.8679
X5.4584Y-5.014
X5.5315Y-4.8376
X5.5315Y-5.0443
X5.6046Y-4.8679
X5.6046Y-5.014
X5.6348Y-4.9409
T3
X4.1929Y-4.0551
X4.3425Y-4.0551
X4.9409Y-3.6417
X4.9409Y-3.7402
X5.2852Y-3.6821
X5.2852Y-3.8317
X4.1969Y-3.7156
X4.2953Y-3.7156
X4.8031Y-4.185
X4.8031Y-4.685
X4.9031Y-4.185
X4.9031Y-4.685
X5.0031Y-4.185
X5.0031Y-4.685
X5.1031Y-4.185
X5.1031Y-4.685
X5.2031Y-4.185
X5.2031Y-4.685
X5.3031Y-4.185
X5.3031Y-4.685
X5.4031Y-4.185
X5.4031Y-4.685
X5.5031Y-4.185
X5.5031Y-4.685
T4
X4.2323Y-2.8543
X4.3323Y-2.8543
X4.4323Y-2.8543
X4.5323Y-2.8543
X4.6323Y-2.8543
X4.7323Y-2.8543
X4.8323Y-2.8543
X4.9323Y-2.8543
X4.9016Y-4.9803
X5.0016Y-4.9803
X5.1016Y-4.9803
X5.2016Y-4.9803
X4.2323Y-3.4449
X4.3323Y-3.4449
X4.4323Y-3.4449
X4.5323Y-3.4449
X4.6323Y-3.4449
X4.7323Y-3.4449
X4.8323Y-3.4449
X4.9323Y-3.4449
X5.5709Y-3.6811
X5.5709Y-3.7811
X5.5709Y-3.8811
X5.5709Y-3.9811
T5
X3.4354Y-4.435
X3.4354Y-4.535
X3.4354Y-4.635
X3.4354Y-4.735
X3.4354Y-4.835
X3.4354Y-4.935
X3.5354Y-4.385
X3.5354Y-4.985
X3.6354Y-4.385
X3.6354Y-4.985
X3.7354Y-4.385
X3.7354Y-4.985
X3.8354Y-4.385
X3.8354Y-4.985
X3.8792Y-4.4975
X3.9354Y-4.385
X3.9354Y-4.985
X3.9792Y-4.4975
X4.0354Y-4.385
X4.0354Y-4.985
X4.1354Y-4.385
X4.1354Y-4.985
X4.2354Y-4.385
X4.2354Y-4.985
X4.2917Y-4.4975
X4.3354Y-4.385
X4.3354Y-4.985
X4.3917Y-4.4975
X4.4354Y-4.385
X4.4354Y-4.985
X4.5354Y-4.385
X4.5354Y-4.985
X4.6354Y-4.385
X4.6354Y-4.985
T6
X5.5315Y-4.9409
X5.5315Y-2.8937
X3.4843Y-2.8937
T0
M30
