%TF.GenerationSoftware,KiCad,Pcbnew,(6.0.1-0)*%
%TF.CreationDate,2023-01-25T00:15:57+01:00*%
%TF.ProjectId,ethersweep,65746865-7273-4776-9565-702e6b696361,2.0.1*%
%TF.SameCoordinates,Original*%
%TF.FileFunction,Legend,Bot*%
%TF.FilePolarity,Positive*%
%FSLAX46Y46*%
G04 Gerber Fmt 4.6, Leading zero omitted, Abs format (unit mm)*
G04 Created by KiCad (PCBNEW (6.0.1-0)) date 2023-01-25 00:15:57*
%MOMM*%
%LPD*%
G01*
G04 APERTURE LIST*
%TA.AperFunction,Profile*%
%ADD10C,0.150000*%
%TD*%
%ADD11C,0.150000*%
%ADD12C,0.250000*%
%ADD13C,0.125000*%
%ADD14C,0.120000*%
%ADD15C,0.127000*%
G04 APERTURE END LIST*
D10*
X187150000Y-39570000D02*
X187150000Y-43270000D01*
X184150000Y-43270000D02*
X184150000Y-39570000D01*
X184150000Y-53070000D02*
X184150000Y-48970000D01*
X187150000Y-48970000D02*
X187150000Y-53070000D01*
X187150000Y-39570000D02*
G75*
G03*
X184150000Y-39570000I-1500000J0D01*
G01*
X184150000Y-43270000D02*
G75*
G03*
X187150000Y-43270000I1500000J0D01*
G01*
X184150000Y-53070000D02*
G75*
G03*
X187150000Y-53070000I1500000J0D01*
G01*
X187150000Y-48970000D02*
G75*
G03*
X184150000Y-48970000I-1500000J0D01*
G01*
X184100000Y-31800000D02*
G75*
G03*
X187100000Y-31800000I1500000J0D01*
G01*
X187100000Y-59370000D02*
G75*
G03*
X184100000Y-59370000I-1500000J0D01*
G01*
D11*
X184400000Y-39400000D02*
X145600000Y-39400000D01*
X145600000Y-39400000D02*
X145600000Y-51900000D01*
X145600000Y-51900000D02*
X184400000Y-51900000D01*
X184400000Y-51900000D02*
X184400000Y-39400000D01*
D10*
X184100000Y-31800000D02*
X184100000Y-30200000D01*
X184100000Y-60700000D02*
X184100000Y-59400000D01*
X180600000Y-26700000D02*
X149600000Y-26700000D01*
X149600000Y-26700000D02*
G75*
G03*
X146100000Y-30200000I-1J-3499999D01*
G01*
X184100000Y-30200000D02*
G75*
G03*
X180600000Y-26700000I-3499999J1D01*
G01*
X180600000Y-64700000D02*
G75*
G03*
X184100000Y-61200000I1J3499999D01*
G01*
X146100000Y-30200000D02*
X146100000Y-61200000D01*
X149600000Y-64700000D02*
X180600000Y-64700000D01*
X146100000Y-61200000D02*
G75*
G03*
X149600000Y-64700000I3499999J-1D01*
G01*
X184100000Y-61200000D02*
X184100000Y-60700000D01*
X225100000Y-61200000D02*
X225100000Y-30200000D01*
X190600000Y-64700000D02*
X221600000Y-64700000D01*
X187100000Y-61200000D02*
G75*
G03*
X190600000Y-64700000I3499999J-1D01*
G01*
X221600000Y-64700000D02*
G75*
G03*
X225100000Y-61200000I1J3499999D01*
G01*
X190600000Y-26700000D02*
G75*
G03*
X187100000Y-30200000I-1J-3499999D01*
G01*
X190600000Y-26700000D02*
X221600000Y-26700000D01*
X187100000Y-30200000D02*
X187100000Y-30700000D01*
X187100000Y-61200000D02*
X187100000Y-59400000D01*
X187100000Y-31800000D02*
X187100000Y-30700000D01*
X225100000Y-30200000D02*
G75*
G03*
X221600000Y-26700000I-3499999J1D01*
G01*
D12*
X163771023Y-27365619D02*
X163437690Y-27841809D01*
X163199595Y-27365619D02*
X163199595Y-28365619D01*
X163580547Y-28365619D01*
X163675785Y-28318000D01*
X163723404Y-28270380D01*
X163771023Y-28175142D01*
X163771023Y-28032285D01*
X163723404Y-27937047D01*
X163675785Y-27889428D01*
X163580547Y-27841809D01*
X163199595Y-27841809D01*
X164199595Y-27889428D02*
X164532928Y-27889428D01*
X164675785Y-27365619D02*
X164199595Y-27365619D01*
X164199595Y-28365619D01*
X164675785Y-28365619D01*
X165056738Y-27413238D02*
X165199595Y-27365619D01*
X165437690Y-27365619D01*
X165532928Y-27413238D01*
X165580547Y-27460857D01*
X165628166Y-27556095D01*
X165628166Y-27651333D01*
X165580547Y-27746571D01*
X165532928Y-27794190D01*
X165437690Y-27841809D01*
X165247214Y-27889428D01*
X165151976Y-27937047D01*
X165104357Y-27984666D01*
X165056738Y-28079904D01*
X165056738Y-28175142D01*
X165104357Y-28270380D01*
X165151976Y-28318000D01*
X165247214Y-28365619D01*
X165485309Y-28365619D01*
X165628166Y-28318000D01*
X166056738Y-27889428D02*
X166390071Y-27889428D01*
X166532928Y-27365619D02*
X166056738Y-27365619D01*
X166056738Y-28365619D01*
X166532928Y-28365619D01*
X166818642Y-28365619D02*
X167390071Y-28365619D01*
X167104357Y-27365619D02*
X167104357Y-28365619D01*
X213101571Y-34441595D02*
X213101571Y-34774928D01*
X213625380Y-34917785D02*
X213625380Y-34441595D01*
X212625380Y-34441595D01*
X212625380Y-34917785D01*
X212625380Y-35203500D02*
X212625380Y-35774928D01*
X213625380Y-35489214D02*
X212625380Y-35489214D01*
X213625380Y-36108261D02*
X212625380Y-36108261D01*
X213101571Y-36108261D02*
X213101571Y-36679690D01*
X213625380Y-36679690D02*
X212625380Y-36679690D01*
X213101571Y-37155880D02*
X213101571Y-37489214D01*
X213625380Y-37632071D02*
X213625380Y-37155880D01*
X212625380Y-37155880D01*
X212625380Y-37632071D01*
X213625380Y-38632071D02*
X213149190Y-38298738D01*
X213625380Y-38060642D02*
X212625380Y-38060642D01*
X212625380Y-38441595D01*
X212673000Y-38536833D01*
X212720619Y-38584452D01*
X212815857Y-38632071D01*
X212958714Y-38632071D01*
X213053952Y-38584452D01*
X213101571Y-38536833D01*
X213149190Y-38441595D01*
X213149190Y-38060642D01*
X213577761Y-39013023D02*
X213625380Y-39155880D01*
X213625380Y-39393976D01*
X213577761Y-39489214D01*
X213530142Y-39536833D01*
X213434904Y-39584452D01*
X213339666Y-39584452D01*
X213244428Y-39536833D01*
X213196809Y-39489214D01*
X213149190Y-39393976D01*
X213101571Y-39203500D01*
X213053952Y-39108261D01*
X213006333Y-39060642D01*
X212911095Y-39013023D01*
X212815857Y-39013023D01*
X212720619Y-39060642D01*
X212673000Y-39108261D01*
X212625380Y-39203500D01*
X212625380Y-39441595D01*
X212673000Y-39584452D01*
X212625380Y-39917785D02*
X213625380Y-40155880D01*
X212911095Y-40346357D01*
X213625380Y-40536833D01*
X212625380Y-40774928D01*
X213101571Y-41155880D02*
X213101571Y-41489214D01*
X213625380Y-41632071D02*
X213625380Y-41155880D01*
X212625380Y-41155880D01*
X212625380Y-41632071D01*
X213101571Y-42060642D02*
X213101571Y-42393976D01*
X213625380Y-42536833D02*
X213625380Y-42060642D01*
X212625380Y-42060642D01*
X212625380Y-42536833D01*
X213625380Y-42965404D02*
X212625380Y-42965404D01*
X212625380Y-43346357D01*
X212673000Y-43441595D01*
X212720619Y-43489214D01*
X212815857Y-43536833D01*
X212958714Y-43536833D01*
X213053952Y-43489214D01*
X213101571Y-43441595D01*
X213149190Y-43346357D01*
X213149190Y-42965404D01*
X214330619Y-34393976D02*
X214283000Y-34441595D01*
X214235380Y-34536833D01*
X214235380Y-34774928D01*
X214283000Y-34870166D01*
X214330619Y-34917785D01*
X214425857Y-34965404D01*
X214521095Y-34965404D01*
X214663952Y-34917785D01*
X215235380Y-34346357D01*
X215235380Y-34965404D01*
X214235380Y-35584452D02*
X214235380Y-35679690D01*
X214283000Y-35774928D01*
X214330619Y-35822547D01*
X214425857Y-35870166D01*
X214616333Y-35917785D01*
X214854428Y-35917785D01*
X215044904Y-35870166D01*
X215140142Y-35822547D01*
X215187761Y-35774928D01*
X215235380Y-35679690D01*
X215235380Y-35584452D01*
X215187761Y-35489214D01*
X215140142Y-35441595D01*
X215044904Y-35393976D01*
X214854428Y-35346357D01*
X214616333Y-35346357D01*
X214425857Y-35393976D01*
X214330619Y-35441595D01*
X214283000Y-35489214D01*
X214235380Y-35584452D01*
X214330619Y-36298738D02*
X214283000Y-36346357D01*
X214235380Y-36441595D01*
X214235380Y-36679690D01*
X214283000Y-36774928D01*
X214330619Y-36822547D01*
X214425857Y-36870166D01*
X214521095Y-36870166D01*
X214663952Y-36822547D01*
X215235380Y-36251119D01*
X215235380Y-36870166D01*
X214235380Y-37203500D02*
X214235380Y-37822547D01*
X214616333Y-37489214D01*
X214616333Y-37632071D01*
X214663952Y-37727309D01*
X214711571Y-37774928D01*
X214806809Y-37822547D01*
X215044904Y-37822547D01*
X215140142Y-37774928D01*
X215187761Y-37727309D01*
X215235380Y-37632071D01*
X215235380Y-37346357D01*
X215187761Y-37251119D01*
X215140142Y-37203500D01*
X214854428Y-38251119D02*
X214854428Y-39013023D01*
X214235380Y-39679690D02*
X214235380Y-39774928D01*
X214283000Y-39870166D01*
X214330619Y-39917785D01*
X214425857Y-39965404D01*
X214616333Y-40013023D01*
X214854428Y-40013023D01*
X215044904Y-39965404D01*
X215140142Y-39917785D01*
X215187761Y-39870166D01*
X215235380Y-39774928D01*
X215235380Y-39679690D01*
X215187761Y-39584452D01*
X215140142Y-39536833D01*
X215044904Y-39489214D01*
X214854428Y-39441595D01*
X214616333Y-39441595D01*
X214425857Y-39489214D01*
X214330619Y-39536833D01*
X214283000Y-39584452D01*
X214235380Y-39679690D01*
X215235380Y-40965404D02*
X215235380Y-40393976D01*
X215235380Y-40679690D02*
X214235380Y-40679690D01*
X214378238Y-40584452D01*
X214473476Y-40489214D01*
X214521095Y-40393976D01*
X214854428Y-41393976D02*
X214854428Y-42155880D01*
X214330619Y-42584452D02*
X214283000Y-42632071D01*
X214235380Y-42727309D01*
X214235380Y-42965404D01*
X214283000Y-43060642D01*
X214330619Y-43108261D01*
X214425857Y-43155880D01*
X214521095Y-43155880D01*
X214663952Y-43108261D01*
X215235380Y-42536833D01*
X215235380Y-43155880D01*
X214568714Y-44013023D02*
X215235380Y-44013023D01*
X214187761Y-43774928D02*
X214902047Y-43536833D01*
X214902047Y-44155880D01*
X216845380Y-34441595D02*
X216178714Y-34441595D01*
X216369190Y-34441595D02*
X216273952Y-34489214D01*
X216226333Y-34536833D01*
X216178714Y-34632071D01*
X216178714Y-34727309D01*
X216797761Y-35441595D02*
X216845380Y-35346357D01*
X216845380Y-35155880D01*
X216797761Y-35060642D01*
X216702523Y-35013023D01*
X216321571Y-35013023D01*
X216226333Y-35060642D01*
X216178714Y-35155880D01*
X216178714Y-35346357D01*
X216226333Y-35441595D01*
X216321571Y-35489214D01*
X216416809Y-35489214D01*
X216512047Y-35013023D01*
X216178714Y-35822547D02*
X216845380Y-36060642D01*
X216178714Y-36298738D01*
X216750142Y-36679690D02*
X216797761Y-36727309D01*
X216845380Y-36679690D01*
X216797761Y-36632071D01*
X216750142Y-36679690D01*
X216845380Y-36679690D01*
X217788714Y-34870166D02*
X218455380Y-34870166D01*
X217407761Y-34632071D02*
X218122047Y-34393976D01*
X218122047Y-35013023D01*
X218360142Y-35393976D02*
X218407761Y-35441595D01*
X218455380Y-35393976D01*
X218407761Y-35346357D01*
X218360142Y-35393976D01*
X218455380Y-35393976D01*
X217455380Y-36060642D02*
X217455380Y-36155880D01*
X217503000Y-36251119D01*
X217550619Y-36298738D01*
X217645857Y-36346357D01*
X217836333Y-36393976D01*
X218074428Y-36393976D01*
X218264904Y-36346357D01*
X218360142Y-36298738D01*
X218407761Y-36251119D01*
X218455380Y-36155880D01*
X218455380Y-36060642D01*
X218407761Y-35965404D01*
X218360142Y-35917785D01*
X218264904Y-35870166D01*
X218074428Y-35822547D01*
X217836333Y-35822547D01*
X217645857Y-35870166D01*
X217550619Y-35917785D01*
X217503000Y-35965404D01*
X217455380Y-36060642D01*
X218360142Y-36822547D02*
X218407761Y-36870166D01*
X218455380Y-36822547D01*
X218407761Y-36774928D01*
X218360142Y-36822547D01*
X218455380Y-36822547D01*
X218455380Y-37822547D02*
X218455380Y-37251119D01*
X218455380Y-37536833D02*
X217455380Y-37536833D01*
X217598238Y-37441595D01*
X217693476Y-37346357D01*
X217741095Y-37251119D01*
X219398714Y-34870166D02*
X220208238Y-34870166D01*
X220303476Y-34822547D01*
X220351095Y-34774928D01*
X220398714Y-34679690D01*
X220398714Y-34536833D01*
X220351095Y-34441595D01*
X220017761Y-34870166D02*
X220065380Y-34774928D01*
X220065380Y-34584452D01*
X220017761Y-34489214D01*
X219970142Y-34441595D01*
X219874904Y-34393976D01*
X219589190Y-34393976D01*
X219493952Y-34441595D01*
X219446333Y-34489214D01*
X219398714Y-34584452D01*
X219398714Y-34774928D01*
X219446333Y-34870166D01*
X220065380Y-35346357D02*
X219398714Y-35346357D01*
X219065380Y-35346357D02*
X219113000Y-35298738D01*
X219160619Y-35346357D01*
X219113000Y-35393976D01*
X219065380Y-35346357D01*
X219160619Y-35346357D01*
X219398714Y-35679690D02*
X219398714Y-36060642D01*
X219065380Y-35822547D02*
X219922523Y-35822547D01*
X220017761Y-35870166D01*
X220065380Y-35965404D01*
X220065380Y-36060642D01*
X220065380Y-36393976D02*
X219065380Y-36393976D01*
X220065380Y-36822547D02*
X219541571Y-36822547D01*
X219446333Y-36774928D01*
X219398714Y-36679690D01*
X219398714Y-36536833D01*
X219446333Y-36441595D01*
X219493952Y-36393976D01*
X219398714Y-37727309D02*
X220065380Y-37727309D01*
X219398714Y-37298738D02*
X219922523Y-37298738D01*
X220017761Y-37346357D01*
X220065380Y-37441595D01*
X220065380Y-37584452D01*
X220017761Y-37679690D01*
X219970142Y-37727309D01*
X220065380Y-38203500D02*
X219065380Y-38203500D01*
X219446333Y-38203500D02*
X219398714Y-38298738D01*
X219398714Y-38489214D01*
X219446333Y-38584452D01*
X219493952Y-38632071D01*
X219589190Y-38679690D01*
X219874904Y-38679690D01*
X219970142Y-38632071D01*
X220017761Y-38584452D01*
X220065380Y-38489214D01*
X220065380Y-38298738D01*
X220017761Y-38203500D01*
X219970142Y-39108261D02*
X220017761Y-39155880D01*
X220065380Y-39108261D01*
X220017761Y-39060642D01*
X219970142Y-39108261D01*
X220065380Y-39108261D01*
X220017761Y-40013023D02*
X220065380Y-39917785D01*
X220065380Y-39727309D01*
X220017761Y-39632071D01*
X219970142Y-39584452D01*
X219874904Y-39536833D01*
X219589190Y-39536833D01*
X219493952Y-39584452D01*
X219446333Y-39632071D01*
X219398714Y-39727309D01*
X219398714Y-39917785D01*
X219446333Y-40013023D01*
X220065380Y-40584452D02*
X220017761Y-40489214D01*
X219970142Y-40441595D01*
X219874904Y-40393976D01*
X219589190Y-40393976D01*
X219493952Y-40441595D01*
X219446333Y-40489214D01*
X219398714Y-40584452D01*
X219398714Y-40727309D01*
X219446333Y-40822547D01*
X219493952Y-40870166D01*
X219589190Y-40917785D01*
X219874904Y-40917785D01*
X219970142Y-40870166D01*
X220017761Y-40822547D01*
X220065380Y-40727309D01*
X220065380Y-40584452D01*
X220065380Y-41346357D02*
X219398714Y-41346357D01*
X219493952Y-41346357D02*
X219446333Y-41393976D01*
X219398714Y-41489214D01*
X219398714Y-41632071D01*
X219446333Y-41727309D01*
X219541571Y-41774928D01*
X220065380Y-41774928D01*
X219541571Y-41774928D02*
X219446333Y-41822547D01*
X219398714Y-41917785D01*
X219398714Y-42060642D01*
X219446333Y-42155880D01*
X219541571Y-42203500D01*
X220065380Y-42203500D01*
X219017761Y-43393976D02*
X220303476Y-42536833D01*
X219398714Y-43727309D02*
X220065380Y-43727309D01*
X219493952Y-43727309D02*
X219446333Y-43774928D01*
X219398714Y-43870166D01*
X219398714Y-44013023D01*
X219446333Y-44108261D01*
X219541571Y-44155880D01*
X220065380Y-44155880D01*
X220017761Y-45013023D02*
X220065380Y-44917785D01*
X220065380Y-44727309D01*
X220017761Y-44632071D01*
X219922523Y-44584452D01*
X219541571Y-44584452D01*
X219446333Y-44632071D01*
X219398714Y-44727309D01*
X219398714Y-44917785D01*
X219446333Y-45013023D01*
X219541571Y-45060642D01*
X219636809Y-45060642D01*
X219732047Y-44584452D01*
X219398714Y-45917785D02*
X220065380Y-45917785D01*
X219398714Y-45489214D02*
X219922523Y-45489214D01*
X220017761Y-45536833D01*
X220065380Y-45632071D01*
X220065380Y-45774928D01*
X220017761Y-45870166D01*
X219970142Y-45917785D01*
X220065380Y-46393976D02*
X219398714Y-46393976D01*
X219493952Y-46393976D02*
X219446333Y-46441595D01*
X219398714Y-46536833D01*
X219398714Y-46679690D01*
X219446333Y-46774928D01*
X219541571Y-46822547D01*
X220065380Y-46822547D01*
X219541571Y-46822547D02*
X219446333Y-46870166D01*
X219398714Y-46965404D01*
X219398714Y-47108261D01*
X219446333Y-47203499D01*
X219541571Y-47251119D01*
X220065380Y-47251119D01*
X220065380Y-47727309D02*
X219398714Y-47727309D01*
X219065380Y-47727309D02*
X219113000Y-47679690D01*
X219160619Y-47727309D01*
X219113000Y-47774928D01*
X219065380Y-47727309D01*
X219160619Y-47727309D01*
X219017761Y-48917785D02*
X220303476Y-48060642D01*
X220017761Y-49632071D02*
X220065380Y-49536833D01*
X220065380Y-49346357D01*
X220017761Y-49251119D01*
X219922523Y-49203499D01*
X219541571Y-49203499D01*
X219446333Y-49251119D01*
X219398714Y-49346357D01*
X219398714Y-49536833D01*
X219446333Y-49632071D01*
X219541571Y-49679690D01*
X219636809Y-49679690D01*
X219732047Y-49203499D01*
X219398714Y-49965404D02*
X219398714Y-50346357D01*
X219065380Y-50108261D02*
X219922523Y-50108261D01*
X220017761Y-50155880D01*
X220065380Y-50251119D01*
X220065380Y-50346357D01*
X220065380Y-50679690D02*
X219065380Y-50679690D01*
X220065380Y-51108261D02*
X219541571Y-51108261D01*
X219446333Y-51060642D01*
X219398714Y-50965404D01*
X219398714Y-50822547D01*
X219446333Y-50727309D01*
X219493952Y-50679690D01*
X220017761Y-51965404D02*
X220065380Y-51870166D01*
X220065380Y-51679690D01*
X220017761Y-51584452D01*
X219922523Y-51536833D01*
X219541571Y-51536833D01*
X219446333Y-51584452D01*
X219398714Y-51679690D01*
X219398714Y-51870166D01*
X219446333Y-51965404D01*
X219541571Y-52013023D01*
X219636809Y-52013023D01*
X219732047Y-51536833D01*
X220065380Y-52441595D02*
X219398714Y-52441595D01*
X219589190Y-52441595D02*
X219493952Y-52489214D01*
X219446333Y-52536833D01*
X219398714Y-52632071D01*
X219398714Y-52727309D01*
X220017761Y-53013023D02*
X220065380Y-53108261D01*
X220065380Y-53298738D01*
X220017761Y-53393976D01*
X219922523Y-53441595D01*
X219874904Y-53441595D01*
X219779666Y-53393976D01*
X219732047Y-53298738D01*
X219732047Y-53155880D01*
X219684428Y-53060642D01*
X219589190Y-53013023D01*
X219541571Y-53013023D01*
X219446333Y-53060642D01*
X219398714Y-53155880D01*
X219398714Y-53298738D01*
X219446333Y-53393976D01*
X219398714Y-53774928D02*
X220065380Y-53965404D01*
X219589190Y-54155880D01*
X220065380Y-54346357D01*
X219398714Y-54536833D01*
X220017761Y-55298738D02*
X220065380Y-55203499D01*
X220065380Y-55013023D01*
X220017761Y-54917785D01*
X219922523Y-54870166D01*
X219541571Y-54870166D01*
X219446333Y-54917785D01*
X219398714Y-55013023D01*
X219398714Y-55203499D01*
X219446333Y-55298738D01*
X219541571Y-55346357D01*
X219636809Y-55346357D01*
X219732047Y-54870166D01*
X220017761Y-56155880D02*
X220065380Y-56060642D01*
X220065380Y-55870166D01*
X220017761Y-55774928D01*
X219922523Y-55727309D01*
X219541571Y-55727309D01*
X219446333Y-55774928D01*
X219398714Y-55870166D01*
X219398714Y-56060642D01*
X219446333Y-56155880D01*
X219541571Y-56203499D01*
X219636809Y-56203499D01*
X219732047Y-55727309D01*
X219398714Y-56632071D02*
X220398714Y-56632071D01*
X219446333Y-56632071D02*
X219398714Y-56727309D01*
X219398714Y-56917785D01*
X219446333Y-57013023D01*
X219493952Y-57060642D01*
X219589190Y-57108261D01*
X219874904Y-57108261D01*
X219970142Y-57060642D01*
X220017761Y-57013023D01*
X220065380Y-56917785D01*
X220065380Y-56727309D01*
X220017761Y-56632071D01*
X191171357Y-42589619D02*
X191790404Y-42589619D01*
X191457071Y-42208666D01*
X191599928Y-42208666D01*
X191695166Y-42161047D01*
X191742785Y-42113428D01*
X191790404Y-42018190D01*
X191790404Y-41780095D01*
X191742785Y-41684857D01*
X191695166Y-41637238D01*
X191599928Y-41589619D01*
X191314214Y-41589619D01*
X191218976Y-41637238D01*
X191171357Y-41684857D01*
X192218976Y-41684857D02*
X192266595Y-41637238D01*
X192218976Y-41589619D01*
X192171357Y-41637238D01*
X192218976Y-41684857D01*
X192218976Y-41589619D01*
X192599928Y-42589619D02*
X193218976Y-42589619D01*
X192885642Y-42208666D01*
X193028500Y-42208666D01*
X193123738Y-42161047D01*
X193171357Y-42113428D01*
X193218976Y-42018190D01*
X193218976Y-41780095D01*
X193171357Y-41684857D01*
X193123738Y-41637238D01*
X193028500Y-41589619D01*
X192742785Y-41589619D01*
X192647547Y-41637238D01*
X192599928Y-41684857D01*
X193504690Y-42589619D02*
X193838023Y-41589619D01*
X194171357Y-42589619D01*
X191599928Y-49225428D02*
X191742785Y-49177809D01*
X191790404Y-49130190D01*
X191838023Y-49034952D01*
X191838023Y-48892095D01*
X191790404Y-48796857D01*
X191742785Y-48749238D01*
X191647547Y-48701619D01*
X191266595Y-48701619D01*
X191266595Y-49701619D01*
X191599928Y-49701619D01*
X191695166Y-49654000D01*
X191742785Y-49606380D01*
X191790404Y-49511142D01*
X191790404Y-49415904D01*
X191742785Y-49320666D01*
X191695166Y-49273047D01*
X191599928Y-49225428D01*
X191266595Y-49225428D01*
X192457071Y-49701619D02*
X192647547Y-49701619D01*
X192742785Y-49654000D01*
X192838023Y-49558761D01*
X192885642Y-49368285D01*
X192885642Y-49034952D01*
X192838023Y-48844476D01*
X192742785Y-48749238D01*
X192647547Y-48701619D01*
X192457071Y-48701619D01*
X192361833Y-48749238D01*
X192266595Y-48844476D01*
X192218976Y-49034952D01*
X192218976Y-49368285D01*
X192266595Y-49558761D01*
X192361833Y-49654000D01*
X192457071Y-49701619D01*
X193504690Y-49701619D02*
X193695166Y-49701619D01*
X193790404Y-49654000D01*
X193885642Y-49558761D01*
X193933261Y-49368285D01*
X193933261Y-49034952D01*
X193885642Y-48844476D01*
X193790404Y-48749238D01*
X193695166Y-48701619D01*
X193504690Y-48701619D01*
X193409452Y-48749238D01*
X193314214Y-48844476D01*
X193266595Y-49034952D01*
X193266595Y-49368285D01*
X193314214Y-49558761D01*
X193409452Y-49654000D01*
X193504690Y-49701619D01*
X194218976Y-49701619D02*
X194790404Y-49701619D01*
X194504690Y-48701619D02*
X194504690Y-49701619D01*
X194885642Y-48606380D02*
X195647547Y-48606380D01*
X196076119Y-49701619D02*
X196171357Y-49701619D01*
X196266595Y-49654000D01*
X196314214Y-49606380D01*
X196361833Y-49511142D01*
X196409452Y-49320666D01*
X196409452Y-49082571D01*
X196361833Y-48892095D01*
X196314214Y-48796857D01*
X196266595Y-48749238D01*
X196171357Y-48701619D01*
X196076119Y-48701619D01*
X195980880Y-48749238D01*
X195933261Y-48796857D01*
X195885642Y-48892095D01*
X195838023Y-49082571D01*
X195838023Y-49320666D01*
X195885642Y-49511142D01*
X195933261Y-49606380D01*
X195980880Y-49654000D01*
X196076119Y-49701619D01*
X201539804Y-62677980D02*
X201539804Y-63487504D01*
X201492185Y-63582742D01*
X201444566Y-63630361D01*
X201349328Y-63677980D01*
X201158852Y-63677980D01*
X201063614Y-63630361D01*
X201015995Y-63582742D01*
X200968376Y-63487504D01*
X200968376Y-62677980D01*
X200539804Y-63630361D02*
X200396947Y-63677980D01*
X200158852Y-63677980D01*
X200063614Y-63630361D01*
X200015995Y-63582742D01*
X199968376Y-63487504D01*
X199968376Y-63392266D01*
X200015995Y-63297028D01*
X200063614Y-63249409D01*
X200158852Y-63201790D01*
X200349328Y-63154171D01*
X200444566Y-63106552D01*
X200492185Y-63058933D01*
X200539804Y-62963695D01*
X200539804Y-62868457D01*
X200492185Y-62773219D01*
X200444566Y-62725600D01*
X200349328Y-62677980D01*
X200111233Y-62677980D01*
X199968376Y-62725600D01*
X199206471Y-63154171D02*
X199063614Y-63201790D01*
X199015995Y-63249409D01*
X198968376Y-63344647D01*
X198968376Y-63487504D01*
X199015995Y-63582742D01*
X199063614Y-63630361D01*
X199158852Y-63677980D01*
X199539804Y-63677980D01*
X199539804Y-62677980D01*
X199206471Y-62677980D01*
X199111233Y-62725600D01*
X199063614Y-62773219D01*
X199015995Y-62868457D01*
X199015995Y-62963695D01*
X199063614Y-63058933D01*
X199111233Y-63106552D01*
X199206471Y-63154171D01*
X199539804Y-63154171D01*
X197206471Y-63582742D02*
X197254090Y-63630361D01*
X197396947Y-63677980D01*
X197492185Y-63677980D01*
X197635042Y-63630361D01*
X197730280Y-63535123D01*
X197777900Y-63439885D01*
X197825519Y-63249409D01*
X197825519Y-63106552D01*
X197777900Y-62916076D01*
X197730280Y-62820838D01*
X197635042Y-62725600D01*
X197492185Y-62677980D01*
X197396947Y-62677980D01*
X197254090Y-62725600D01*
X197206471Y-62773219D01*
X207624195Y-30413619D02*
X207624195Y-31413619D01*
X207957528Y-30699333D01*
X208290861Y-31413619D01*
X208290861Y-30413619D01*
X208957528Y-31413619D02*
X209148004Y-31413619D01*
X209243242Y-31366000D01*
X209338480Y-31270761D01*
X209386100Y-31080285D01*
X209386100Y-30746952D01*
X209338480Y-30556476D01*
X209243242Y-30461238D01*
X209148004Y-30413619D01*
X208957528Y-30413619D01*
X208862290Y-30461238D01*
X208767052Y-30556476D01*
X208719433Y-30746952D01*
X208719433Y-31080285D01*
X208767052Y-31270761D01*
X208862290Y-31366000D01*
X208957528Y-31413619D01*
X209671814Y-31413619D02*
X210243242Y-31413619D01*
X209957528Y-30413619D02*
X209957528Y-31413619D01*
X210767052Y-31413619D02*
X210957528Y-31413619D01*
X211052766Y-31366000D01*
X211148004Y-31270761D01*
X211195623Y-31080285D01*
X211195623Y-30746952D01*
X211148004Y-30556476D01*
X211052766Y-30461238D01*
X210957528Y-30413619D01*
X210767052Y-30413619D01*
X210671814Y-30461238D01*
X210576576Y-30556476D01*
X210528957Y-30746952D01*
X210528957Y-31080285D01*
X210576576Y-31270761D01*
X210671814Y-31366000D01*
X210767052Y-31413619D01*
X212195623Y-30413619D02*
X211862290Y-30889809D01*
X211624195Y-30413619D02*
X211624195Y-31413619D01*
X212005147Y-31413619D01*
X212100385Y-31366000D01*
X212148004Y-31318380D01*
X212195623Y-31223142D01*
X212195623Y-31080285D01*
X212148004Y-30985047D01*
X212100385Y-30937428D01*
X212005147Y-30889809D01*
X211624195Y-30889809D01*
X190799738Y-56813619D02*
X191371166Y-56813619D01*
X191085452Y-55813619D02*
X191085452Y-56813619D01*
X191609261Y-56813619D02*
X192275928Y-55813619D01*
X192275928Y-56813619D02*
X191609261Y-55813619D01*
X191790404Y-38986000D02*
X191695166Y-39033619D01*
X191552309Y-39033619D01*
X191409452Y-38986000D01*
X191314214Y-38890761D01*
X191266595Y-38795523D01*
X191218976Y-38605047D01*
X191218976Y-38462190D01*
X191266595Y-38271714D01*
X191314214Y-38176476D01*
X191409452Y-38081238D01*
X191552309Y-38033619D01*
X191647547Y-38033619D01*
X191790404Y-38081238D01*
X191838023Y-38128857D01*
X191838023Y-38462190D01*
X191647547Y-38462190D01*
X192266595Y-38033619D02*
X192266595Y-39033619D01*
X192838023Y-38033619D01*
X192838023Y-39033619D01*
X193314214Y-38033619D02*
X193314214Y-39033619D01*
X193552309Y-39033619D01*
X193695166Y-38986000D01*
X193790404Y-38890761D01*
X193838023Y-38795523D01*
X193885642Y-38605047D01*
X193885642Y-38462190D01*
X193838023Y-38271714D01*
X193790404Y-38176476D01*
X193695166Y-38081238D01*
X193552309Y-38033619D01*
X193314214Y-38033619D01*
X191838023Y-52257619D02*
X191504690Y-52733809D01*
X191266595Y-52257619D02*
X191266595Y-53257619D01*
X191647547Y-53257619D01*
X191742785Y-53210000D01*
X191790404Y-53162380D01*
X191838023Y-53067142D01*
X191838023Y-52924285D01*
X191790404Y-52829047D01*
X191742785Y-52781428D01*
X191647547Y-52733809D01*
X191266595Y-52733809D01*
X192171357Y-53257619D02*
X192838023Y-52257619D01*
X192838023Y-53257619D02*
X192171357Y-52257619D01*
X214525614Y-62677980D02*
X215001804Y-62677980D01*
X215049423Y-63154171D01*
X215001804Y-63106552D01*
X214906566Y-63058933D01*
X214668471Y-63058933D01*
X214573233Y-63106552D01*
X214525614Y-63154171D01*
X214477995Y-63249409D01*
X214477995Y-63487504D01*
X214525614Y-63582742D01*
X214573233Y-63630361D01*
X214668471Y-63677980D01*
X214906566Y-63677980D01*
X215001804Y-63630361D01*
X215049423Y-63582742D01*
X214049423Y-63582742D02*
X214001804Y-63630361D01*
X214049423Y-63677980D01*
X214097042Y-63630361D01*
X214049423Y-63582742D01*
X214049423Y-63677980D01*
X213097042Y-62677980D02*
X213573233Y-62677980D01*
X213620852Y-63154171D01*
X213573233Y-63106552D01*
X213477995Y-63058933D01*
X213239900Y-63058933D01*
X213144661Y-63106552D01*
X213097042Y-63154171D01*
X213049423Y-63249409D01*
X213049423Y-63487504D01*
X213097042Y-63582742D01*
X213144661Y-63630361D01*
X213239900Y-63677980D01*
X213477995Y-63677980D01*
X213573233Y-63630361D01*
X213620852Y-63582742D01*
X212620852Y-63582742D02*
X212573233Y-63630361D01*
X212620852Y-63677980D01*
X212668471Y-63630361D01*
X212620852Y-63582742D01*
X212620852Y-63677980D01*
X212144661Y-63582742D02*
X212097042Y-63630361D01*
X212144661Y-63677980D01*
X212192280Y-63630361D01*
X212144661Y-63582742D01*
X212144661Y-63677980D01*
X211668471Y-63582742D02*
X211620852Y-63630361D01*
X211668471Y-63677980D01*
X211716090Y-63630361D01*
X211668471Y-63582742D01*
X211668471Y-63677980D01*
X211239900Y-62773219D02*
X211192280Y-62725600D01*
X211097042Y-62677980D01*
X210858947Y-62677980D01*
X210763709Y-62725600D01*
X210716090Y-62773219D01*
X210668471Y-62868457D01*
X210668471Y-62963695D01*
X210716090Y-63106552D01*
X211287519Y-63677980D01*
X210668471Y-63677980D01*
X210097042Y-63106552D02*
X210192280Y-63058933D01*
X210239900Y-63011314D01*
X210287519Y-62916076D01*
X210287519Y-62868457D01*
X210239900Y-62773219D01*
X210192280Y-62725600D01*
X210097042Y-62677980D01*
X209906566Y-62677980D01*
X209811328Y-62725600D01*
X209763709Y-62773219D01*
X209716090Y-62868457D01*
X209716090Y-62916076D01*
X209763709Y-63011314D01*
X209811328Y-63058933D01*
X209906566Y-63106552D01*
X210097042Y-63106552D01*
X210192280Y-63154171D01*
X210239900Y-63201790D01*
X210287519Y-63297028D01*
X210287519Y-63487504D01*
X210239900Y-63582742D01*
X210192280Y-63630361D01*
X210097042Y-63677980D01*
X209906566Y-63677980D01*
X209811328Y-63630361D01*
X209763709Y-63582742D01*
X209716090Y-63487504D01*
X209716090Y-63297028D01*
X209763709Y-63201790D01*
X209811328Y-63154171D01*
X209906566Y-63106552D01*
X209430376Y-62677980D02*
X209097042Y-63677980D01*
X208763709Y-62677980D01*
X191599928Y-45669428D02*
X191742785Y-45621809D01*
X191790404Y-45574190D01*
X191838023Y-45478952D01*
X191838023Y-45336095D01*
X191790404Y-45240857D01*
X191742785Y-45193238D01*
X191647547Y-45145619D01*
X191266595Y-45145619D01*
X191266595Y-46145619D01*
X191599928Y-46145619D01*
X191695166Y-46098000D01*
X191742785Y-46050380D01*
X191790404Y-45955142D01*
X191790404Y-45859904D01*
X191742785Y-45764666D01*
X191695166Y-45717047D01*
X191599928Y-45669428D01*
X191266595Y-45669428D01*
X192457071Y-46145619D02*
X192647547Y-46145619D01*
X192742785Y-46098000D01*
X192838023Y-46002761D01*
X192885642Y-45812285D01*
X192885642Y-45478952D01*
X192838023Y-45288476D01*
X192742785Y-45193238D01*
X192647547Y-45145619D01*
X192457071Y-45145619D01*
X192361833Y-45193238D01*
X192266595Y-45288476D01*
X192218976Y-45478952D01*
X192218976Y-45812285D01*
X192266595Y-46002761D01*
X192361833Y-46098000D01*
X192457071Y-46145619D01*
X193504690Y-46145619D02*
X193695166Y-46145619D01*
X193790404Y-46098000D01*
X193885642Y-46002761D01*
X193933261Y-45812285D01*
X193933261Y-45478952D01*
X193885642Y-45288476D01*
X193790404Y-45193238D01*
X193695166Y-45145619D01*
X193504690Y-45145619D01*
X193409452Y-45193238D01*
X193314214Y-45288476D01*
X193266595Y-45478952D01*
X193266595Y-45812285D01*
X193314214Y-46002761D01*
X193409452Y-46098000D01*
X193504690Y-46145619D01*
X194218976Y-46145619D02*
X194790404Y-46145619D01*
X194504690Y-45145619D02*
X194504690Y-46145619D01*
X194885642Y-45050380D02*
X195647547Y-45050380D01*
X196409452Y-45145619D02*
X195838023Y-45145619D01*
X196123738Y-45145619D02*
X196123738Y-46145619D01*
X196028500Y-46002761D01*
X195933261Y-45907523D01*
X195838023Y-45859904D01*
D11*
X146352380Y-39866666D02*
X147066666Y-39866666D01*
X147209523Y-39819047D01*
X147304761Y-39723809D01*
X147352380Y-39580952D01*
X147352380Y-39485714D01*
X146352380Y-40247619D02*
X146352380Y-40866666D01*
X146733333Y-40533333D01*
X146733333Y-40676190D01*
X146780952Y-40771428D01*
X146828571Y-40819047D01*
X146923809Y-40866666D01*
X147161904Y-40866666D01*
X147257142Y-40819047D01*
X147304761Y-40771428D01*
X147352380Y-40676190D01*
X147352380Y-40390476D01*
X147304761Y-40295238D01*
X147257142Y-40247619D01*
X166483333Y-31654761D02*
X166340476Y-31702380D01*
X166102380Y-31702380D01*
X166007142Y-31654761D01*
X165959523Y-31607142D01*
X165911904Y-31511904D01*
X165911904Y-31416666D01*
X165959523Y-31321428D01*
X166007142Y-31273809D01*
X166102380Y-31226190D01*
X166292857Y-31178571D01*
X166388095Y-31130952D01*
X166435714Y-31083333D01*
X166483333Y-30988095D01*
X166483333Y-30892857D01*
X166435714Y-30797619D01*
X166388095Y-30750000D01*
X166292857Y-30702380D01*
X166054761Y-30702380D01*
X165911904Y-30750000D01*
X165578571Y-30702380D02*
X165340476Y-31702380D01*
X165150000Y-30988095D01*
X164959523Y-31702380D01*
X164721428Y-30702380D01*
X163816666Y-31702380D02*
X164388095Y-31702380D01*
X164102380Y-31702380D02*
X164102380Y-30702380D01*
X164197619Y-30845238D01*
X164292857Y-30940476D01*
X164388095Y-30988095D01*
D13*
X203438952Y-43800190D02*
X203438952Y-44204952D01*
X203415142Y-44252571D01*
X203391333Y-44276380D01*
X203343714Y-44300190D01*
X203248476Y-44300190D01*
X203200857Y-44276380D01*
X203177047Y-44252571D01*
X203153238Y-44204952D01*
X203153238Y-43800190D01*
X202677047Y-43800190D02*
X202915142Y-43800190D01*
X202938952Y-44038285D01*
X202915142Y-44014476D01*
X202867523Y-43990666D01*
X202748476Y-43990666D01*
X202700857Y-44014476D01*
X202677047Y-44038285D01*
X202653238Y-44085904D01*
X202653238Y-44204952D01*
X202677047Y-44252571D01*
X202700857Y-44276380D01*
X202748476Y-44300190D01*
X202867523Y-44300190D01*
X202915142Y-44276380D01*
X202938952Y-44252571D01*
D14*
X170620000Y-37110000D02*
X177120000Y-37110000D01*
X169310000Y-38410000D02*
X178430000Y-38410000D01*
X170620000Y-32710000D02*
X170620000Y-37110000D01*
X177120000Y-37110000D02*
X177120000Y-24210000D01*
X169310000Y-22910000D02*
X169310000Y-38410000D01*
X168920000Y-33200000D02*
X167920000Y-33700000D01*
X170620000Y-28610000D02*
X170620000Y-28610000D01*
X177120000Y-24210000D02*
X170620000Y-24210000D01*
X178430000Y-38410000D02*
X178430000Y-22910000D01*
X167920000Y-33700000D02*
X167920000Y-32700000D01*
X167920000Y-32700000D02*
X168920000Y-33200000D01*
X178430000Y-22910000D02*
X169310000Y-22910000D01*
X170620000Y-28610000D02*
X169310000Y-28610000D01*
X170620000Y-24210000D02*
X170620000Y-28610000D01*
X169310000Y-32710000D02*
X170620000Y-32710000D01*
X148930000Y-43170000D02*
X146270000Y-43170000D01*
X146270000Y-43170000D02*
X146270000Y-50850000D01*
X148930000Y-43170000D02*
X148930000Y-50850000D01*
X148930000Y-40570000D02*
X147600000Y-40570000D01*
X148930000Y-50850000D02*
X146270000Y-50850000D01*
X148930000Y-41900000D02*
X148930000Y-40570000D01*
X163080000Y-31520000D02*
X163080000Y-31820000D01*
X167220000Y-28680000D02*
X163080000Y-28680000D01*
X163080000Y-28680000D02*
X163080000Y-28980000D01*
X163080000Y-31820000D02*
X167220000Y-31820000D01*
X167220000Y-28980000D02*
X167220000Y-28680000D01*
X167220000Y-31820000D02*
X167220000Y-31520000D01*
D15*
X208600000Y-47700000D02*
X208600000Y-43700000D01*
X203600000Y-43700000D02*
X203600000Y-47700000D01*
D14*
X190542000Y-52710000D02*
G75*
G03*
X190542000Y-52710000I-1200000J0D01*
G01*
X190542000Y-42042000D02*
G75*
G03*
X190542000Y-42042000I-1200000J0D01*
G01*
X190542000Y-56266000D02*
G75*
G03*
X190542000Y-56266000I-1200000J0D01*
G01*
X190542000Y-38486000D02*
G75*
G03*
X190542000Y-38486000I-1200000J0D01*
G01*
X190542000Y-49154000D02*
G75*
G03*
X190542000Y-49154000I-1200000J0D01*
G01*
X190542000Y-45598000D02*
G75*
G03*
X190542000Y-45598000I-1200000J0D01*
G01*
M02*
