%TF.GenerationSoftware,KiCad,Pcbnew,(6.0.1-0)*%
%TF.CreationDate,2023-01-25T00:15:58+01:00*%
%TF.ProjectId,ethersweep,65746865-7273-4776-9565-702e6b696361,2.0.1*%
%TF.SameCoordinates,Original*%
%TF.FileFunction,AssemblyDrawing,Top*%
%FSLAX46Y46*%
G04 Gerber Fmt 4.6, Leading zero omitted, Abs format (unit mm)*
G04 Created by KiCad (PCBNEW (6.0.1-0)) date 2023-01-25 00:15:58*
%MOMM*%
%LPD*%
G01*
G04 APERTURE LIST*
%TA.AperFunction,Profile*%
%ADD10C,0.150000*%
%TD*%
%ADD11C,0.080000*%
%ADD12C,0.015000*%
%ADD13C,0.150000*%
%ADD14C,0.040000*%
%ADD15C,0.060000*%
%ADD16C,0.120000*%
%ADD17C,0.100000*%
%ADD18C,0.127000*%
%ADD19C,0.300000*%
G04 APERTURE END LIST*
D10*
X187150000Y-39570000D02*
X187150000Y-43270000D01*
X184150000Y-43270000D02*
X184150000Y-39570000D01*
X184150000Y-53070000D02*
X184150000Y-48970000D01*
X187150000Y-48970000D02*
X187150000Y-53070000D01*
X187150000Y-39570000D02*
G75*
G03*
X184150000Y-39570000I-1500000J0D01*
G01*
X184150000Y-43270000D02*
G75*
G03*
X187150000Y-43270000I1500000J0D01*
G01*
X184150000Y-53070000D02*
G75*
G03*
X187150000Y-53070000I1500000J0D01*
G01*
X187150000Y-48970000D02*
G75*
G03*
X184150000Y-48970000I-1500000J0D01*
G01*
X184100000Y-31800000D02*
G75*
G03*
X187100000Y-31800000I1500000J0D01*
G01*
X187100000Y-59370000D02*
G75*
G03*
X184100000Y-59370000I-1500000J0D01*
G01*
X184100000Y-31800000D02*
X184100000Y-30200000D01*
X184100000Y-60700000D02*
X184100000Y-59400000D01*
X180600000Y-26700000D02*
X149600000Y-26700000D01*
X149600000Y-26700000D02*
G75*
G03*
X146100000Y-30200000I-1J-3499999D01*
G01*
X184100000Y-30200000D02*
G75*
G03*
X180600000Y-26700000I-3499999J1D01*
G01*
X180600000Y-64700000D02*
G75*
G03*
X184100000Y-61200000I1J3499999D01*
G01*
X146100000Y-30200000D02*
X146100000Y-61200000D01*
X149600000Y-64700000D02*
X180600000Y-64700000D01*
X146100000Y-61200000D02*
G75*
G03*
X149600000Y-64700000I3499999J-1D01*
G01*
X184100000Y-61200000D02*
X184100000Y-60700000D01*
X225100000Y-61200000D02*
X225100000Y-30200000D01*
X190600000Y-64700000D02*
X221600000Y-64700000D01*
X187100000Y-61200000D02*
G75*
G03*
X190600000Y-64700000I3499999J-1D01*
G01*
X221600000Y-64700000D02*
G75*
G03*
X225100000Y-61200000I1J3499999D01*
G01*
X190600000Y-26700000D02*
G75*
G03*
X187100000Y-30200000I-1J-3499999D01*
G01*
X190600000Y-26700000D02*
X221600000Y-26700000D01*
X187100000Y-30200000D02*
X187100000Y-30700000D01*
X187100000Y-61200000D02*
X187100000Y-59400000D01*
X187100000Y-31800000D02*
X187100000Y-30700000D01*
X225100000Y-30200000D02*
G75*
G03*
X221600000Y-26700000I-3499999J1D01*
G01*
D11*
X160478571Y-33821428D02*
X160502380Y-33845238D01*
X160526190Y-33916666D01*
X160526190Y-33964285D01*
X160502380Y-34035714D01*
X160454761Y-34083333D01*
X160407142Y-34107142D01*
X160311904Y-34130952D01*
X160240476Y-34130952D01*
X160145238Y-34107142D01*
X160097619Y-34083333D01*
X160050000Y-34035714D01*
X160026190Y-33964285D01*
X160026190Y-33916666D01*
X160050000Y-33845238D01*
X160073809Y-33821428D01*
X160073809Y-33630952D02*
X160050000Y-33607142D01*
X160026190Y-33559523D01*
X160026190Y-33440476D01*
X160050000Y-33392857D01*
X160073809Y-33369047D01*
X160121428Y-33345238D01*
X160169047Y-33345238D01*
X160240476Y-33369047D01*
X160526190Y-33654761D01*
X160526190Y-33345238D01*
X160026190Y-32916666D02*
X160026190Y-33011904D01*
X160050000Y-33059523D01*
X160073809Y-33083333D01*
X160145238Y-33130952D01*
X160240476Y-33154761D01*
X160430952Y-33154761D01*
X160478571Y-33130952D01*
X160502380Y-33107142D01*
X160526190Y-33059523D01*
X160526190Y-32964285D01*
X160502380Y-32916666D01*
X160478571Y-32892857D01*
X160430952Y-32869047D01*
X160311904Y-32869047D01*
X160264285Y-32892857D01*
X160240476Y-32916666D01*
X160216666Y-32964285D01*
X160216666Y-33059523D01*
X160240476Y-33107142D01*
X160264285Y-33130952D01*
X160311904Y-33154761D01*
X150116666Y-54226190D02*
X149878571Y-54226190D01*
X149878571Y-53726190D01*
X150545238Y-54226190D02*
X150259523Y-54226190D01*
X150402380Y-54226190D02*
X150402380Y-53726190D01*
X150354761Y-53797619D01*
X150307142Y-53845238D01*
X150259523Y-53869047D01*
D12*
X177776099Y-52404899D02*
X176171036Y-52404899D01*
X176935352Y-52404899D02*
X176935352Y-51487720D01*
X177776099Y-51487720D02*
X176171036Y-51487720D01*
X177776099Y-49806225D02*
X177011784Y-50341246D01*
X177776099Y-50723404D02*
X176171036Y-50723404D01*
X176171036Y-50111952D01*
X176247468Y-49959089D01*
X176323900Y-49882657D01*
X176476763Y-49806225D01*
X176706057Y-49806225D01*
X176858921Y-49882657D01*
X176935352Y-49959089D01*
X177011784Y-50111952D01*
X177011784Y-50723404D01*
X177776099Y-49041910D02*
X177776099Y-48736183D01*
X177699668Y-48583320D01*
X177623236Y-48506889D01*
X177393942Y-48354026D01*
X177088215Y-48277594D01*
X176476763Y-48277594D01*
X176323900Y-48354026D01*
X176247468Y-48430457D01*
X176171036Y-48583320D01*
X176171036Y-48889047D01*
X176247468Y-49041910D01*
X176323900Y-49118341D01*
X176476763Y-49194773D01*
X176858921Y-49194773D01*
X177011784Y-49118341D01*
X177088215Y-49041910D01*
X177164647Y-48889047D01*
X177164647Y-48583320D01*
X177088215Y-48430457D01*
X177011784Y-48354026D01*
X176858921Y-48277594D01*
X177776099Y-46748963D02*
X177776099Y-47666141D01*
X177776099Y-47207552D02*
X176171036Y-47207552D01*
X176400331Y-47360415D01*
X176553194Y-47513278D01*
X176629626Y-47666141D01*
X177776099Y-45220331D02*
X177776099Y-46137510D01*
X177776099Y-45678921D02*
X176171036Y-45678921D01*
X176400331Y-45831784D01*
X176553194Y-45984647D01*
X176629626Y-46137510D01*
X177776099Y-43691700D02*
X177776099Y-44608879D01*
X177776099Y-44150289D02*
X176171036Y-44150289D01*
X176400331Y-44303152D01*
X176553194Y-44456015D01*
X176629626Y-44608879D01*
X176171036Y-42698089D02*
X176171036Y-42545226D01*
X176247468Y-42392363D01*
X176323900Y-42315931D01*
X176476763Y-42239500D01*
X176782489Y-42163068D01*
X177164647Y-42163068D01*
X177470373Y-42239500D01*
X177623236Y-42315931D01*
X177699668Y-42392363D01*
X177776099Y-42545226D01*
X177776099Y-42698089D01*
X177699668Y-42850952D01*
X177623236Y-42927384D01*
X177470373Y-43003816D01*
X177164647Y-43080247D01*
X176782489Y-43080247D01*
X176476763Y-43003816D01*
X176323900Y-42927384D01*
X176247468Y-42850952D01*
X176171036Y-42698089D01*
X176171036Y-40710868D02*
X176171036Y-41475184D01*
X176935352Y-41551616D01*
X176858921Y-41475184D01*
X176782489Y-41322321D01*
X176782489Y-40940163D01*
X176858921Y-40787300D01*
X176935352Y-40710868D01*
X177088215Y-40634437D01*
X177470373Y-40634437D01*
X177623236Y-40710868D01*
X177699668Y-40787300D01*
X177776099Y-40940163D01*
X177776099Y-41322321D01*
X177699668Y-41475184D01*
X177623236Y-41551616D01*
X177317510Y-40022984D02*
X177317510Y-39258669D01*
X177776099Y-40175847D02*
X176171036Y-39640826D01*
X177776099Y-39105805D01*
D13*
X180138095Y-30652380D02*
X180138095Y-29652380D01*
X180138095Y-30128571D02*
X180709523Y-30128571D01*
X180709523Y-30652380D02*
X180709523Y-29652380D01*
X181614285Y-29652380D02*
X181423809Y-29652380D01*
X181328571Y-29700000D01*
X181280952Y-29747619D01*
X181185714Y-29890476D01*
X181138095Y-30080952D01*
X181138095Y-30461904D01*
X181185714Y-30557142D01*
X181233333Y-30604761D01*
X181328571Y-30652380D01*
X181519047Y-30652380D01*
X181614285Y-30604761D01*
X181661904Y-30557142D01*
X181709523Y-30461904D01*
X181709523Y-30223809D01*
X181661904Y-30128571D01*
X181614285Y-30080952D01*
X181519047Y-30033333D01*
X181328571Y-30033333D01*
X181233333Y-30080952D01*
X181185714Y-30128571D01*
X181138095Y-30223809D01*
X149138095Y-30652380D02*
X149138095Y-29652380D01*
X149138095Y-30128571D02*
X149709523Y-30128571D01*
X149709523Y-30652380D02*
X149709523Y-29652380D01*
X150661904Y-29652380D02*
X150185714Y-29652380D01*
X150138095Y-30128571D01*
X150185714Y-30080952D01*
X150280952Y-30033333D01*
X150519047Y-30033333D01*
X150614285Y-30080952D01*
X150661904Y-30128571D01*
X150709523Y-30223809D01*
X150709523Y-30461904D01*
X150661904Y-30557142D01*
X150614285Y-30604761D01*
X150519047Y-30652380D01*
X150280952Y-30652380D01*
X150185714Y-30604761D01*
X150138095Y-30557142D01*
X149138095Y-61652380D02*
X149138095Y-60652380D01*
X149138095Y-61128571D02*
X149709523Y-61128571D01*
X149709523Y-61652380D02*
X149709523Y-60652380D01*
X150328571Y-61080952D02*
X150233333Y-61033333D01*
X150185714Y-60985714D01*
X150138095Y-60890476D01*
X150138095Y-60842857D01*
X150185714Y-60747619D01*
X150233333Y-60700000D01*
X150328571Y-60652380D01*
X150519047Y-60652380D01*
X150614285Y-60700000D01*
X150661904Y-60747619D01*
X150709523Y-60842857D01*
X150709523Y-60890476D01*
X150661904Y-60985714D01*
X150614285Y-61033333D01*
X150519047Y-61080952D01*
X150328571Y-61080952D01*
X150233333Y-61128571D01*
X150185714Y-61176190D01*
X150138095Y-61271428D01*
X150138095Y-61461904D01*
X150185714Y-61557142D01*
X150233333Y-61604761D01*
X150328571Y-61652380D01*
X150519047Y-61652380D01*
X150614285Y-61604761D01*
X150661904Y-61557142D01*
X150709523Y-61461904D01*
X150709523Y-61271428D01*
X150661904Y-61176190D01*
X150614285Y-61128571D01*
X150519047Y-61080952D01*
X180138095Y-61652380D02*
X180138095Y-60652380D01*
X180138095Y-61128571D02*
X180709523Y-61128571D01*
X180709523Y-61652380D02*
X180709523Y-60652380D01*
X181090476Y-60652380D02*
X181757142Y-60652380D01*
X181328571Y-61652380D01*
D14*
X161089285Y-37639285D02*
X161077380Y-37651190D01*
X161041666Y-37663095D01*
X161017857Y-37663095D01*
X160982142Y-37651190D01*
X160958333Y-37627380D01*
X160946428Y-37603571D01*
X160934523Y-37555952D01*
X160934523Y-37520238D01*
X160946428Y-37472619D01*
X160958333Y-37448809D01*
X160982142Y-37425000D01*
X161017857Y-37413095D01*
X161041666Y-37413095D01*
X161077380Y-37425000D01*
X161089285Y-37436904D01*
X161172619Y-37413095D02*
X161327380Y-37413095D01*
X161244047Y-37508333D01*
X161279761Y-37508333D01*
X161303571Y-37520238D01*
X161315476Y-37532142D01*
X161327380Y-37555952D01*
X161327380Y-37615476D01*
X161315476Y-37639285D01*
X161303571Y-37651190D01*
X161279761Y-37663095D01*
X161208333Y-37663095D01*
X161184523Y-37651190D01*
X161172619Y-37639285D01*
X161541666Y-37413095D02*
X161494047Y-37413095D01*
X161470238Y-37425000D01*
X161458333Y-37436904D01*
X161434523Y-37472619D01*
X161422619Y-37520238D01*
X161422619Y-37615476D01*
X161434523Y-37639285D01*
X161446428Y-37651190D01*
X161470238Y-37663095D01*
X161517857Y-37663095D01*
X161541666Y-37651190D01*
X161553571Y-37639285D01*
X161565476Y-37615476D01*
X161565476Y-37555952D01*
X161553571Y-37532142D01*
X161541666Y-37520238D01*
X161517857Y-37508333D01*
X161470238Y-37508333D01*
X161446428Y-37520238D01*
X161434523Y-37532142D01*
X161422619Y-37555952D01*
D11*
X147728571Y-37378571D02*
X147704761Y-37402380D01*
X147633333Y-37426190D01*
X147585714Y-37426190D01*
X147514285Y-37402380D01*
X147466666Y-37354761D01*
X147442857Y-37307142D01*
X147419047Y-37211904D01*
X147419047Y-37140476D01*
X147442857Y-37045238D01*
X147466666Y-36997619D01*
X147514285Y-36950000D01*
X147585714Y-36926190D01*
X147633333Y-36926190D01*
X147704761Y-36950000D01*
X147728571Y-36973809D01*
X147895238Y-36926190D02*
X148204761Y-36926190D01*
X148038095Y-37116666D01*
X148109523Y-37116666D01*
X148157142Y-37140476D01*
X148180952Y-37164285D01*
X148204761Y-37211904D01*
X148204761Y-37330952D01*
X148180952Y-37378571D01*
X148157142Y-37402380D01*
X148109523Y-37426190D01*
X147966666Y-37426190D01*
X147919047Y-37402380D01*
X147895238Y-37378571D01*
X148514285Y-36926190D02*
X148561904Y-36926190D01*
X148609523Y-36950000D01*
X148633333Y-36973809D01*
X148657142Y-37021428D01*
X148680952Y-37116666D01*
X148680952Y-37235714D01*
X148657142Y-37330952D01*
X148633333Y-37378571D01*
X148609523Y-37402380D01*
X148561904Y-37426190D01*
X148514285Y-37426190D01*
X148466666Y-37402380D01*
X148442857Y-37378571D01*
X148419047Y-37330952D01*
X148395238Y-37235714D01*
X148395238Y-37116666D01*
X148419047Y-37021428D01*
X148442857Y-36973809D01*
X148466666Y-36950000D01*
X148514285Y-36926190D01*
D14*
X161758333Y-44689285D02*
X161746428Y-44701190D01*
X161710714Y-44713095D01*
X161686904Y-44713095D01*
X161651190Y-44701190D01*
X161627380Y-44677380D01*
X161615476Y-44653571D01*
X161603571Y-44605952D01*
X161603571Y-44570238D01*
X161615476Y-44522619D01*
X161627380Y-44498809D01*
X161651190Y-44475000D01*
X161686904Y-44463095D01*
X161710714Y-44463095D01*
X161746428Y-44475000D01*
X161758333Y-44486904D01*
X161841666Y-44463095D02*
X162008333Y-44463095D01*
X161901190Y-44713095D01*
X161639285Y-46289285D02*
X161627380Y-46301190D01*
X161591666Y-46313095D01*
X161567857Y-46313095D01*
X161532142Y-46301190D01*
X161508333Y-46277380D01*
X161496428Y-46253571D01*
X161484523Y-46205952D01*
X161484523Y-46170238D01*
X161496428Y-46122619D01*
X161508333Y-46098809D01*
X161532142Y-46075000D01*
X161567857Y-46063095D01*
X161591666Y-46063095D01*
X161627380Y-46075000D01*
X161639285Y-46086904D01*
X161877380Y-46313095D02*
X161734523Y-46313095D01*
X161805952Y-46313095D02*
X161805952Y-46063095D01*
X161782142Y-46098809D01*
X161758333Y-46122619D01*
X161734523Y-46134523D01*
X161960714Y-46063095D02*
X162115476Y-46063095D01*
X162032142Y-46158333D01*
X162067857Y-46158333D01*
X162091666Y-46170238D01*
X162103571Y-46182142D01*
X162115476Y-46205952D01*
X162115476Y-46265476D01*
X162103571Y-46289285D01*
X162091666Y-46301190D01*
X162067857Y-46313095D01*
X161996428Y-46313095D01*
X161972619Y-46301190D01*
X161960714Y-46289285D01*
D13*
X190138095Y-30652380D02*
X190138095Y-29652380D01*
X190138095Y-30128571D02*
X190709523Y-30128571D01*
X190709523Y-30652380D02*
X190709523Y-29652380D01*
X191709523Y-30652380D02*
X191138095Y-30652380D01*
X191423809Y-30652380D02*
X191423809Y-29652380D01*
X191328571Y-29795238D01*
X191233333Y-29890476D01*
X191138095Y-29938095D01*
X221138095Y-30652380D02*
X221138095Y-29652380D01*
X221138095Y-30128571D02*
X221709523Y-30128571D01*
X221709523Y-30652380D02*
X221709523Y-29652380D01*
X222138095Y-29747619D02*
X222185714Y-29700000D01*
X222280952Y-29652380D01*
X222519047Y-29652380D01*
X222614285Y-29700000D01*
X222661904Y-29747619D01*
X222709523Y-29842857D01*
X222709523Y-29938095D01*
X222661904Y-30080952D01*
X222090476Y-30652380D01*
X222709523Y-30652380D01*
X190138095Y-61652380D02*
X190138095Y-60652380D01*
X190138095Y-61128571D02*
X190709523Y-61128571D01*
X190709523Y-61652380D02*
X190709523Y-60652380D01*
X191614285Y-60985714D02*
X191614285Y-61652380D01*
X191376190Y-60604761D02*
X191138095Y-61319047D01*
X191757142Y-61319047D01*
X221138095Y-61627381D02*
X221138095Y-60627381D01*
X221138095Y-61103572D02*
X221709523Y-61103572D01*
X221709523Y-61627381D02*
X221709523Y-60627381D01*
X222090476Y-60627381D02*
X222709523Y-60627381D01*
X222376190Y-61008334D01*
X222519047Y-61008334D01*
X222614285Y-61055953D01*
X222661904Y-61103572D01*
X222709523Y-61198810D01*
X222709523Y-61436905D01*
X222661904Y-61532143D01*
X222614285Y-61579762D01*
X222519047Y-61627381D01*
X222233333Y-61627381D01*
X222138095Y-61579762D01*
X222090476Y-61532143D01*
D15*
X205930952Y-60665238D02*
X205530952Y-60665238D01*
X205530952Y-60570000D01*
X205550000Y-60512857D01*
X205588095Y-60474761D01*
X205626190Y-60455714D01*
X205702380Y-60436666D01*
X205759523Y-60436666D01*
X205835714Y-60455714D01*
X205873809Y-60474761D01*
X205911904Y-60512857D01*
X205930952Y-60570000D01*
X205930952Y-60665238D01*
X205930952Y-60055714D02*
X205930952Y-60284285D01*
X205930952Y-60170000D02*
X205530952Y-60170000D01*
X205588095Y-60208095D01*
X205626190Y-60246190D01*
X205645238Y-60284285D01*
X205930952Y-57627142D02*
X205740476Y-57760476D01*
X205930952Y-57855714D02*
X205530952Y-57855714D01*
X205530952Y-57703333D01*
X205550000Y-57665238D01*
X205569047Y-57646190D01*
X205607142Y-57627142D01*
X205664285Y-57627142D01*
X205702380Y-57646190D01*
X205721428Y-57665238D01*
X205740476Y-57703333D01*
X205740476Y-57855714D01*
X205930952Y-57246190D02*
X205930952Y-57474761D01*
X205930952Y-57360476D02*
X205530952Y-57360476D01*
X205588095Y-57398571D01*
X205626190Y-57436666D01*
X205645238Y-57474761D01*
X205530952Y-57112857D02*
X205530952Y-56865238D01*
X205683333Y-56998571D01*
X205683333Y-56941428D01*
X205702380Y-56903333D01*
X205721428Y-56884285D01*
X205759523Y-56865238D01*
X205854761Y-56865238D01*
X205892857Y-56884285D01*
X205911904Y-56903333D01*
X205930952Y-56941428D01*
X205930952Y-57055714D01*
X205911904Y-57093809D01*
X205892857Y-57112857D01*
D14*
X161089285Y-40759285D02*
X161077380Y-40771190D01*
X161041666Y-40783095D01*
X161017857Y-40783095D01*
X160982142Y-40771190D01*
X160958333Y-40747380D01*
X160946428Y-40723571D01*
X160934523Y-40675952D01*
X160934523Y-40640238D01*
X160946428Y-40592619D01*
X160958333Y-40568809D01*
X160982142Y-40545000D01*
X161017857Y-40533095D01*
X161041666Y-40533095D01*
X161077380Y-40545000D01*
X161089285Y-40556904D01*
X161184523Y-40556904D02*
X161196428Y-40545000D01*
X161220238Y-40533095D01*
X161279761Y-40533095D01*
X161303571Y-40545000D01*
X161315476Y-40556904D01*
X161327380Y-40580714D01*
X161327380Y-40604523D01*
X161315476Y-40640238D01*
X161172619Y-40783095D01*
X161327380Y-40783095D01*
X161482142Y-40533095D02*
X161505952Y-40533095D01*
X161529761Y-40545000D01*
X161541666Y-40556904D01*
X161553571Y-40580714D01*
X161565476Y-40628333D01*
X161565476Y-40687857D01*
X161553571Y-40735476D01*
X161541666Y-40759285D01*
X161529761Y-40771190D01*
X161505952Y-40783095D01*
X161482142Y-40783095D01*
X161458333Y-40771190D01*
X161446428Y-40759285D01*
X161434523Y-40735476D01*
X161422619Y-40687857D01*
X161422619Y-40628333D01*
X161434523Y-40580714D01*
X161446428Y-40556904D01*
X161458333Y-40545000D01*
X161482142Y-40533095D01*
X158091685Y-45331685D02*
X158079780Y-45343590D01*
X158044066Y-45355495D01*
X158020257Y-45355495D01*
X157984542Y-45343590D01*
X157960733Y-45319780D01*
X157948828Y-45295971D01*
X157936923Y-45248352D01*
X157936923Y-45212638D01*
X157948828Y-45165019D01*
X157960733Y-45141209D01*
X157984542Y-45117400D01*
X158020257Y-45105495D01*
X158044066Y-45105495D01*
X158079780Y-45117400D01*
X158091685Y-45129304D01*
X158186923Y-45129304D02*
X158198828Y-45117400D01*
X158222638Y-45105495D01*
X158282161Y-45105495D01*
X158305971Y-45117400D01*
X158317876Y-45129304D01*
X158329780Y-45153114D01*
X158329780Y-45176923D01*
X158317876Y-45212638D01*
X158175019Y-45355495D01*
X158329780Y-45355495D01*
X158567876Y-45355495D02*
X158425019Y-45355495D01*
X158496447Y-45355495D02*
X158496447Y-45105495D01*
X158472638Y-45141209D01*
X158448828Y-45165019D01*
X158425019Y-45176923D01*
D13*
X173514666Y-35271380D02*
X173514666Y-35985666D01*
X173467047Y-36128523D01*
X173371809Y-36223761D01*
X173228952Y-36271380D01*
X173133714Y-36271380D01*
X173895619Y-35271380D02*
X174562285Y-35271380D01*
X174133714Y-36271380D01*
D14*
X190417619Y-50007142D02*
X190293809Y-50093809D01*
X190417619Y-50155714D02*
X190157619Y-50155714D01*
X190157619Y-50056666D01*
X190170000Y-50031904D01*
X190182380Y-50019523D01*
X190207142Y-50007142D01*
X190244285Y-50007142D01*
X190269047Y-50019523D01*
X190281428Y-50031904D01*
X190293809Y-50056666D01*
X190293809Y-50155714D01*
X190157619Y-49920476D02*
X190157619Y-49759523D01*
X190256666Y-49846190D01*
X190256666Y-49809047D01*
X190269047Y-49784285D01*
X190281428Y-49771904D01*
X190306190Y-49759523D01*
X190368095Y-49759523D01*
X190392857Y-49771904D01*
X190405238Y-49784285D01*
X190417619Y-49809047D01*
X190417619Y-49883333D01*
X190405238Y-49908095D01*
X190392857Y-49920476D01*
X190157619Y-49598571D02*
X190157619Y-49573809D01*
X190170000Y-49549047D01*
X190182380Y-49536666D01*
X190207142Y-49524285D01*
X190256666Y-49511904D01*
X190318571Y-49511904D01*
X190368095Y-49524285D01*
X190392857Y-49536666D01*
X190405238Y-49549047D01*
X190417619Y-49573809D01*
X190417619Y-49598571D01*
X190405238Y-49623333D01*
X190392857Y-49635714D01*
X190368095Y-49648095D01*
X190318571Y-49660476D01*
X190256666Y-49660476D01*
X190207142Y-49648095D01*
X190182380Y-49635714D01*
X190170000Y-49623333D01*
X190157619Y-49598571D01*
D15*
X217442857Y-35077142D02*
X217461904Y-35096190D01*
X217480952Y-35153333D01*
X217480952Y-35191428D01*
X217461904Y-35248571D01*
X217423809Y-35286666D01*
X217385714Y-35305714D01*
X217309523Y-35324761D01*
X217252380Y-35324761D01*
X217176190Y-35305714D01*
X217138095Y-35286666D01*
X217100000Y-35248571D01*
X217080952Y-35191428D01*
X217080952Y-35153333D01*
X217100000Y-35096190D01*
X217119047Y-35077142D01*
X217119047Y-34924761D02*
X217100000Y-34905714D01*
X217080952Y-34867619D01*
X217080952Y-34772380D01*
X217100000Y-34734285D01*
X217119047Y-34715238D01*
X217157142Y-34696190D01*
X217195238Y-34696190D01*
X217252380Y-34715238D01*
X217480952Y-34943809D01*
X217480952Y-34696190D01*
X217080952Y-34562857D02*
X217080952Y-34296190D01*
X217480952Y-34467619D01*
D14*
X200927619Y-32743333D02*
X200803809Y-32830000D01*
X200927619Y-32891904D02*
X200667619Y-32891904D01*
X200667619Y-32792857D01*
X200680000Y-32768095D01*
X200692380Y-32755714D01*
X200717142Y-32743333D01*
X200754285Y-32743333D01*
X200779047Y-32755714D01*
X200791428Y-32768095D01*
X200803809Y-32792857D01*
X200803809Y-32891904D01*
X200667619Y-32656666D02*
X200667619Y-32495714D01*
X200766666Y-32582380D01*
X200766666Y-32545238D01*
X200779047Y-32520476D01*
X200791428Y-32508095D01*
X200816190Y-32495714D01*
X200878095Y-32495714D01*
X200902857Y-32508095D01*
X200915238Y-32520476D01*
X200927619Y-32545238D01*
X200927619Y-32619523D01*
X200915238Y-32644285D01*
X200902857Y-32656666D01*
D13*
X170466666Y-61839880D02*
X170466666Y-62554166D01*
X170419047Y-62697023D01*
X170323809Y-62792261D01*
X170180952Y-62839880D01*
X170085714Y-62839880D01*
X171419047Y-61839880D02*
X170942857Y-61839880D01*
X170895238Y-62316071D01*
X170942857Y-62268452D01*
X171038095Y-62220833D01*
X171276190Y-62220833D01*
X171371428Y-62268452D01*
X171419047Y-62316071D01*
X171466666Y-62411309D01*
X171466666Y-62649404D01*
X171419047Y-62744642D01*
X171371428Y-62792261D01*
X171276190Y-62839880D01*
X171038095Y-62839880D01*
X170942857Y-62792261D01*
X170895238Y-62744642D01*
D16*
X215610714Y-35834285D02*
X215648809Y-35872380D01*
X215686904Y-35986666D01*
X215686904Y-36062857D01*
X215648809Y-36177142D01*
X215572619Y-36253333D01*
X215496428Y-36291428D01*
X215344047Y-36329523D01*
X215229761Y-36329523D01*
X215077380Y-36291428D01*
X215001190Y-36253333D01*
X214925000Y-36177142D01*
X214886904Y-36062857D01*
X214886904Y-35986666D01*
X214925000Y-35872380D01*
X214963095Y-35834285D01*
X215153571Y-35148571D02*
X215686904Y-35148571D01*
X214848809Y-35339047D02*
X215420238Y-35529523D01*
X215420238Y-35034285D01*
X214886904Y-34577142D02*
X214886904Y-34500952D01*
X214925000Y-34424761D01*
X214963095Y-34386666D01*
X215039285Y-34348571D01*
X215191666Y-34310476D01*
X215382142Y-34310476D01*
X215534523Y-34348571D01*
X215610714Y-34386666D01*
X215648809Y-34424761D01*
X215686904Y-34500952D01*
X215686904Y-34577142D01*
X215648809Y-34653333D01*
X215610714Y-34691428D01*
X215534523Y-34729523D01*
X215382142Y-34767619D01*
X215191666Y-34767619D01*
X215039285Y-34729523D01*
X214963095Y-34691428D01*
X214925000Y-34653333D01*
X214886904Y-34577142D01*
D13*
X159216666Y-61839880D02*
X159216666Y-62554166D01*
X159169047Y-62697023D01*
X159073809Y-62792261D01*
X158930952Y-62839880D01*
X158835714Y-62839880D01*
X160121428Y-62173214D02*
X160121428Y-62839880D01*
X159883333Y-61792261D02*
X159645238Y-62506547D01*
X160264285Y-62506547D01*
D14*
X207567619Y-48487142D02*
X207443809Y-48573809D01*
X207567619Y-48635714D02*
X207307619Y-48635714D01*
X207307619Y-48536666D01*
X207320000Y-48511904D01*
X207332380Y-48499523D01*
X207357142Y-48487142D01*
X207394285Y-48487142D01*
X207419047Y-48499523D01*
X207431428Y-48511904D01*
X207443809Y-48536666D01*
X207443809Y-48635714D01*
X207332380Y-48388095D02*
X207320000Y-48375714D01*
X207307619Y-48350952D01*
X207307619Y-48289047D01*
X207320000Y-48264285D01*
X207332380Y-48251904D01*
X207357142Y-48239523D01*
X207381904Y-48239523D01*
X207419047Y-48251904D01*
X207567619Y-48400476D01*
X207567619Y-48239523D01*
X207307619Y-48152857D02*
X207307619Y-47979523D01*
X207567619Y-48090952D01*
X204749285Y-48409285D02*
X204737380Y-48421190D01*
X204701666Y-48433095D01*
X204677857Y-48433095D01*
X204642142Y-48421190D01*
X204618333Y-48397380D01*
X204606428Y-48373571D01*
X204594523Y-48325952D01*
X204594523Y-48290238D01*
X204606428Y-48242619D01*
X204618333Y-48218809D01*
X204642142Y-48195000D01*
X204677857Y-48183095D01*
X204701666Y-48183095D01*
X204737380Y-48195000D01*
X204749285Y-48206904D01*
X204987380Y-48433095D02*
X204844523Y-48433095D01*
X204915952Y-48433095D02*
X204915952Y-48183095D01*
X204892142Y-48218809D01*
X204868333Y-48242619D01*
X204844523Y-48254523D01*
X205082619Y-48206904D02*
X205094523Y-48195000D01*
X205118333Y-48183095D01*
X205177857Y-48183095D01*
X205201666Y-48195000D01*
X205213571Y-48206904D01*
X205225476Y-48230714D01*
X205225476Y-48254523D01*
X205213571Y-48290238D01*
X205070714Y-48433095D01*
X205225476Y-48433095D01*
X200889285Y-31026714D02*
X200901190Y-31038619D01*
X200913095Y-31074333D01*
X200913095Y-31098142D01*
X200901190Y-31133857D01*
X200877380Y-31157666D01*
X200853571Y-31169571D01*
X200805952Y-31181476D01*
X200770238Y-31181476D01*
X200722619Y-31169571D01*
X200698809Y-31157666D01*
X200675000Y-31133857D01*
X200663095Y-31098142D01*
X200663095Y-31074333D01*
X200675000Y-31038619D01*
X200686904Y-31026714D01*
X200686904Y-30931476D02*
X200675000Y-30919571D01*
X200663095Y-30895761D01*
X200663095Y-30836238D01*
X200675000Y-30812428D01*
X200686904Y-30800523D01*
X200710714Y-30788619D01*
X200734523Y-30788619D01*
X200770238Y-30800523D01*
X200913095Y-30943380D01*
X200913095Y-30788619D01*
X200686904Y-30693380D02*
X200675000Y-30681476D01*
X200663095Y-30657666D01*
X200663095Y-30598142D01*
X200675000Y-30574333D01*
X200686904Y-30562428D01*
X200710714Y-30550523D01*
X200734523Y-30550523D01*
X200770238Y-30562428D01*
X200913095Y-30705285D01*
X200913095Y-30550523D01*
D13*
X195802380Y-49331904D02*
X196611904Y-49331904D01*
X196707142Y-49284285D01*
X196754761Y-49236666D01*
X196802380Y-49141428D01*
X196802380Y-48950952D01*
X196754761Y-48855714D01*
X196707142Y-48808095D01*
X196611904Y-48760476D01*
X195802380Y-48760476D01*
X195802380Y-48379523D02*
X195802380Y-47760476D01*
X196183333Y-48093809D01*
X196183333Y-47950952D01*
X196230952Y-47855714D01*
X196278571Y-47808095D01*
X196373809Y-47760476D01*
X196611904Y-47760476D01*
X196707142Y-47808095D01*
X196754761Y-47855714D01*
X196802380Y-47950952D01*
X196802380Y-48236666D01*
X196754761Y-48331904D01*
X196707142Y-48379523D01*
D14*
X188307619Y-49997142D02*
X188183809Y-50083809D01*
X188307619Y-50145714D02*
X188047619Y-50145714D01*
X188047619Y-50046666D01*
X188060000Y-50021904D01*
X188072380Y-50009523D01*
X188097142Y-49997142D01*
X188134285Y-49997142D01*
X188159047Y-50009523D01*
X188171428Y-50021904D01*
X188183809Y-50046666D01*
X188183809Y-50145714D01*
X188072380Y-49898095D02*
X188060000Y-49885714D01*
X188047619Y-49860952D01*
X188047619Y-49799047D01*
X188060000Y-49774285D01*
X188072380Y-49761904D01*
X188097142Y-49749523D01*
X188121904Y-49749523D01*
X188159047Y-49761904D01*
X188307619Y-49910476D01*
X188307619Y-49749523D01*
X188307619Y-49625714D02*
X188307619Y-49576190D01*
X188295238Y-49551428D01*
X188282857Y-49539047D01*
X188245714Y-49514285D01*
X188196190Y-49501904D01*
X188097142Y-49501904D01*
X188072380Y-49514285D01*
X188060000Y-49526666D01*
X188047619Y-49551428D01*
X188047619Y-49600952D01*
X188060000Y-49625714D01*
X188072380Y-49638095D01*
X188097142Y-49650476D01*
X188159047Y-49650476D01*
X188183809Y-49638095D01*
X188196190Y-49625714D01*
X188208571Y-49600952D01*
X188208571Y-49551428D01*
X188196190Y-49526666D01*
X188183809Y-49514285D01*
X188159047Y-49501904D01*
X200979285Y-44520714D02*
X200991190Y-44532619D01*
X201003095Y-44568333D01*
X201003095Y-44592142D01*
X200991190Y-44627857D01*
X200967380Y-44651666D01*
X200943571Y-44663571D01*
X200895952Y-44675476D01*
X200860238Y-44675476D01*
X200812619Y-44663571D01*
X200788809Y-44651666D01*
X200765000Y-44627857D01*
X200753095Y-44592142D01*
X200753095Y-44568333D01*
X200765000Y-44532619D01*
X200776904Y-44520714D01*
X200753095Y-44437380D02*
X200753095Y-44282619D01*
X200848333Y-44365952D01*
X200848333Y-44330238D01*
X200860238Y-44306428D01*
X200872142Y-44294523D01*
X200895952Y-44282619D01*
X200955476Y-44282619D01*
X200979285Y-44294523D01*
X200991190Y-44306428D01*
X201003095Y-44330238D01*
X201003095Y-44401666D01*
X200991190Y-44425476D01*
X200979285Y-44437380D01*
X200776904Y-44187380D02*
X200765000Y-44175476D01*
X200753095Y-44151666D01*
X200753095Y-44092142D01*
X200765000Y-44068333D01*
X200776904Y-44056428D01*
X200800714Y-44044523D01*
X200824523Y-44044523D01*
X200860238Y-44056428D01*
X201003095Y-44199285D01*
X201003095Y-44044523D01*
X150539285Y-43130714D02*
X150551190Y-43142619D01*
X150563095Y-43178333D01*
X150563095Y-43202142D01*
X150551190Y-43237857D01*
X150527380Y-43261666D01*
X150503571Y-43273571D01*
X150455952Y-43285476D01*
X150420238Y-43285476D01*
X150372619Y-43273571D01*
X150348809Y-43261666D01*
X150325000Y-43237857D01*
X150313095Y-43202142D01*
X150313095Y-43178333D01*
X150325000Y-43142619D01*
X150336904Y-43130714D01*
X150563095Y-42892619D02*
X150563095Y-43035476D01*
X150563095Y-42964047D02*
X150313095Y-42964047D01*
X150348809Y-42987857D01*
X150372619Y-43011666D01*
X150384523Y-43035476D01*
X150420238Y-42749761D02*
X150408333Y-42773571D01*
X150396428Y-42785476D01*
X150372619Y-42797380D01*
X150360714Y-42797380D01*
X150336904Y-42785476D01*
X150325000Y-42773571D01*
X150313095Y-42749761D01*
X150313095Y-42702142D01*
X150325000Y-42678333D01*
X150336904Y-42666428D01*
X150360714Y-42654523D01*
X150372619Y-42654523D01*
X150396428Y-42666428D01*
X150408333Y-42678333D01*
X150420238Y-42702142D01*
X150420238Y-42749761D01*
X150432142Y-42773571D01*
X150444047Y-42785476D01*
X150467857Y-42797380D01*
X150515476Y-42797380D01*
X150539285Y-42785476D01*
X150551190Y-42773571D01*
X150563095Y-42749761D01*
X150563095Y-42702142D01*
X150551190Y-42678333D01*
X150539285Y-42666428D01*
X150515476Y-42654523D01*
X150467857Y-42654523D01*
X150444047Y-42666428D01*
X150432142Y-42678333D01*
X150420238Y-42702142D01*
D15*
X213513257Y-40427142D02*
X213532304Y-40446190D01*
X213551352Y-40503333D01*
X213551352Y-40541428D01*
X213532304Y-40598571D01*
X213494209Y-40636666D01*
X213456114Y-40655714D01*
X213379923Y-40674761D01*
X213322780Y-40674761D01*
X213246590Y-40655714D01*
X213208495Y-40636666D01*
X213170400Y-40598571D01*
X213151352Y-40541428D01*
X213151352Y-40503333D01*
X213170400Y-40446190D01*
X213189447Y-40427142D01*
X213151352Y-40293809D02*
X213151352Y-40046190D01*
X213303733Y-40179523D01*
X213303733Y-40122380D01*
X213322780Y-40084285D01*
X213341828Y-40065238D01*
X213379923Y-40046190D01*
X213475161Y-40046190D01*
X213513257Y-40065238D01*
X213532304Y-40084285D01*
X213551352Y-40122380D01*
X213551352Y-40236666D01*
X213532304Y-40274761D01*
X213513257Y-40293809D01*
X213322780Y-39817619D02*
X213303733Y-39855714D01*
X213284685Y-39874761D01*
X213246590Y-39893809D01*
X213227542Y-39893809D01*
X213189447Y-39874761D01*
X213170400Y-39855714D01*
X213151352Y-39817619D01*
X213151352Y-39741428D01*
X213170400Y-39703333D01*
X213189447Y-39684285D01*
X213227542Y-39665238D01*
X213246590Y-39665238D01*
X213284685Y-39684285D01*
X213303733Y-39703333D01*
X213322780Y-39741428D01*
X213322780Y-39817619D01*
X213341828Y-39855714D01*
X213360876Y-39874761D01*
X213398971Y-39893809D01*
X213475161Y-39893809D01*
X213513257Y-39874761D01*
X213532304Y-39855714D01*
X213551352Y-39817619D01*
X213551352Y-39741428D01*
X213532304Y-39703333D01*
X213513257Y-39684285D01*
X213475161Y-39665238D01*
X213398971Y-39665238D01*
X213360876Y-39684285D01*
X213341828Y-39703333D01*
X213322780Y-39741428D01*
D14*
X191314885Y-52646885D02*
X191302980Y-52658790D01*
X191267266Y-52670695D01*
X191243457Y-52670695D01*
X191207742Y-52658790D01*
X191183933Y-52634980D01*
X191172028Y-52611171D01*
X191160123Y-52563552D01*
X191160123Y-52527838D01*
X191172028Y-52480219D01*
X191183933Y-52456409D01*
X191207742Y-52432600D01*
X191243457Y-52420695D01*
X191267266Y-52420695D01*
X191302980Y-52432600D01*
X191314885Y-52444504D01*
X191398219Y-52420695D02*
X191552980Y-52420695D01*
X191469647Y-52515933D01*
X191505361Y-52515933D01*
X191529171Y-52527838D01*
X191541076Y-52539742D01*
X191552980Y-52563552D01*
X191552980Y-52623076D01*
X191541076Y-52646885D01*
X191529171Y-52658790D01*
X191505361Y-52670695D01*
X191433933Y-52670695D01*
X191410123Y-52658790D01*
X191398219Y-52646885D01*
X191636314Y-52420695D02*
X191802980Y-52420695D01*
X191695838Y-52670695D01*
X189337619Y-50007142D02*
X189213809Y-50093809D01*
X189337619Y-50155714D02*
X189077619Y-50155714D01*
X189077619Y-50056666D01*
X189090000Y-50031904D01*
X189102380Y-50019523D01*
X189127142Y-50007142D01*
X189164285Y-50007142D01*
X189189047Y-50019523D01*
X189201428Y-50031904D01*
X189213809Y-50056666D01*
X189213809Y-50155714D01*
X189102380Y-49908095D02*
X189090000Y-49895714D01*
X189077619Y-49870952D01*
X189077619Y-49809047D01*
X189090000Y-49784285D01*
X189102380Y-49771904D01*
X189127142Y-49759523D01*
X189151904Y-49759523D01*
X189189047Y-49771904D01*
X189337619Y-49920476D01*
X189337619Y-49759523D01*
X189189047Y-49610952D02*
X189176666Y-49635714D01*
X189164285Y-49648095D01*
X189139523Y-49660476D01*
X189127142Y-49660476D01*
X189102380Y-49648095D01*
X189090000Y-49635714D01*
X189077619Y-49610952D01*
X189077619Y-49561428D01*
X189090000Y-49536666D01*
X189102380Y-49524285D01*
X189127142Y-49511904D01*
X189139523Y-49511904D01*
X189164285Y-49524285D01*
X189176666Y-49536666D01*
X189189047Y-49561428D01*
X189189047Y-49610952D01*
X189201428Y-49635714D01*
X189213809Y-49648095D01*
X189238571Y-49660476D01*
X189288095Y-49660476D01*
X189312857Y-49648095D01*
X189325238Y-49635714D01*
X189337619Y-49610952D01*
X189337619Y-49561428D01*
X189325238Y-49536666D01*
X189312857Y-49524285D01*
X189288095Y-49511904D01*
X189238571Y-49511904D01*
X189213809Y-49524285D01*
X189201428Y-49536666D01*
X189189047Y-49561428D01*
D15*
X148178133Y-39086057D02*
X148159085Y-39105104D01*
X148101942Y-39124152D01*
X148063847Y-39124152D01*
X148006704Y-39105104D01*
X147968609Y-39067009D01*
X147949561Y-39028914D01*
X147930514Y-38952723D01*
X147930514Y-38895580D01*
X147949561Y-38819390D01*
X147968609Y-38781295D01*
X148006704Y-38743200D01*
X148063847Y-38724152D01*
X148101942Y-38724152D01*
X148159085Y-38743200D01*
X148178133Y-38762247D01*
X148559085Y-39124152D02*
X148330514Y-39124152D01*
X148444800Y-39124152D02*
X148444800Y-38724152D01*
X148406704Y-38781295D01*
X148368609Y-38819390D01*
X148330514Y-38838438D01*
D14*
X161089285Y-39238381D02*
X161077380Y-39250286D01*
X161041666Y-39262191D01*
X161017857Y-39262191D01*
X160982142Y-39250286D01*
X160958333Y-39226476D01*
X160946428Y-39202667D01*
X160934523Y-39155048D01*
X160934523Y-39119334D01*
X160946428Y-39071715D01*
X160958333Y-39047905D01*
X160982142Y-39024096D01*
X161017857Y-39012191D01*
X161041666Y-39012191D01*
X161077380Y-39024096D01*
X161089285Y-39036000D01*
X161327380Y-39262191D02*
X161184523Y-39262191D01*
X161255952Y-39262191D02*
X161255952Y-39012191D01*
X161232142Y-39047905D01*
X161208333Y-39071715D01*
X161184523Y-39083619D01*
X161410714Y-39012191D02*
X161577380Y-39012191D01*
X161470238Y-39262191D01*
X206567619Y-48487142D02*
X206443809Y-48573809D01*
X206567619Y-48635714D02*
X206307619Y-48635714D01*
X206307619Y-48536666D01*
X206320000Y-48511904D01*
X206332380Y-48499523D01*
X206357142Y-48487142D01*
X206394285Y-48487142D01*
X206419047Y-48499523D01*
X206431428Y-48511904D01*
X206443809Y-48536666D01*
X206443809Y-48635714D01*
X206332380Y-48388095D02*
X206320000Y-48375714D01*
X206307619Y-48350952D01*
X206307619Y-48289047D01*
X206320000Y-48264285D01*
X206332380Y-48251904D01*
X206357142Y-48239523D01*
X206381904Y-48239523D01*
X206419047Y-48251904D01*
X206567619Y-48400476D01*
X206567619Y-48239523D01*
X206394285Y-48016666D02*
X206567619Y-48016666D01*
X206295238Y-48078571D02*
X206480952Y-48140476D01*
X206480952Y-47979523D01*
D17*
X159550000Y-42982500D02*
X159550000Y-42157500D01*
X161150000Y-42982500D02*
X159550000Y-42982500D01*
X159550000Y-42157500D02*
X161150000Y-42157500D01*
X161150000Y-42157500D02*
X161150000Y-42982500D01*
X160925000Y-34500000D02*
X159675000Y-34500000D01*
X160925000Y-32500000D02*
X160925000Y-34500000D01*
X159675000Y-34500000D02*
X159675000Y-32500000D01*
X159675000Y-32500000D02*
X160925000Y-32500000D01*
X149200000Y-53550000D02*
X151200000Y-53550000D01*
X151200000Y-54450000D02*
X149200000Y-54450000D01*
X149200000Y-54450000D02*
X149200000Y-53550000D01*
X151200000Y-53550000D02*
X151200000Y-54450000D01*
D18*
X185270000Y-53700000D02*
X185270000Y-37700000D01*
X163870000Y-37700000D02*
X163870000Y-53700000D01*
X185270000Y-37700000D02*
X163870000Y-37700000D01*
X163870000Y-53700000D02*
X185270000Y-53700000D01*
D19*
X168200000Y-51500000D02*
G75*
G03*
X168200000Y-51500000I-150000J0D01*
G01*
D17*
X177600000Y-56812500D02*
X176000000Y-56812500D01*
X177600000Y-55987500D02*
X177600000Y-56812500D01*
X176000000Y-55987500D02*
X177600000Y-55987500D01*
X176000000Y-56812500D02*
X176000000Y-55987500D01*
X158000000Y-28250000D02*
X154800000Y-28250000D01*
X154800000Y-29750000D02*
X155800000Y-30750000D01*
X158000000Y-30750000D02*
X158000000Y-28250000D01*
X154800000Y-30750000D02*
X158000000Y-30750000D01*
X154800000Y-28250000D02*
X154800000Y-30750000D01*
X161750000Y-37800000D02*
X160750000Y-37800000D01*
X160750000Y-37300000D02*
X161750000Y-37300000D01*
X160750000Y-37800000D02*
X160750000Y-37300000D01*
X161750000Y-37300000D02*
X161750000Y-37800000D01*
X151400000Y-35000000D02*
X158400000Y-35000000D01*
X151400000Y-41000000D02*
X151400000Y-35000000D01*
X158400000Y-42000000D02*
X152400000Y-42000000D01*
X152400000Y-42000000D02*
X151400000Y-41000000D01*
X158400000Y-35000000D02*
X158400000Y-42000000D01*
X160750000Y-36220000D02*
X161750000Y-36220000D01*
X161750000Y-36220000D02*
X161750000Y-36720000D01*
X161750000Y-36720000D02*
X160750000Y-36720000D01*
X160750000Y-36720000D02*
X160750000Y-36220000D01*
X177600000Y-55212500D02*
X176000000Y-55212500D01*
X177600000Y-54387500D02*
X177600000Y-55212500D01*
X176000000Y-54387500D02*
X177600000Y-54387500D01*
X176000000Y-55212500D02*
X176000000Y-54387500D01*
X153450000Y-30300000D02*
X153450000Y-29300000D01*
X153950000Y-29300000D02*
X153950000Y-30300000D01*
X153450000Y-29300000D02*
X153950000Y-29300000D01*
X153950000Y-30300000D02*
X153450000Y-30300000D01*
X158850000Y-30300000D02*
X158850000Y-29300000D01*
X159350000Y-29300000D02*
X159350000Y-30300000D01*
X158850000Y-29300000D02*
X159350000Y-29300000D01*
X159350000Y-30300000D02*
X158850000Y-30300000D01*
X149050000Y-36575000D02*
X149050000Y-37825000D01*
X147050000Y-36575000D02*
X149050000Y-36575000D01*
X149050000Y-37825000D02*
X147050000Y-37825000D01*
X147050000Y-37825000D02*
X147050000Y-36575000D01*
X155787500Y-48750000D02*
X156612500Y-48750000D01*
X156612500Y-50350000D02*
X155787500Y-50350000D01*
X156612500Y-48750000D02*
X156612500Y-50350000D01*
X155787500Y-50350000D02*
X155787500Y-48750000D01*
X156612500Y-45450000D02*
X156612500Y-47050000D01*
X156612500Y-47050000D02*
X155787500Y-47050000D01*
X155787500Y-47050000D02*
X155787500Y-45450000D01*
X155787500Y-45450000D02*
X156612500Y-45450000D01*
X154712500Y-47050000D02*
X153887500Y-47050000D01*
X154712500Y-45450000D02*
X154712500Y-47050000D01*
X153887500Y-47050000D02*
X153887500Y-45450000D01*
X153887500Y-45450000D02*
X154712500Y-45450000D01*
X151987500Y-45450000D02*
X152812500Y-45450000D01*
X152812500Y-47050000D02*
X151987500Y-47050000D01*
X151987500Y-47050000D02*
X151987500Y-45450000D01*
X152812500Y-45450000D02*
X152812500Y-47050000D01*
X150087500Y-47050000D02*
X150087500Y-45450000D01*
X150912500Y-45450000D02*
X150912500Y-47050000D01*
X150087500Y-45450000D02*
X150912500Y-45450000D01*
X150912500Y-47050000D02*
X150087500Y-47050000D01*
X157600000Y-48750000D02*
X158400000Y-48750000D01*
X158400000Y-48750000D02*
X158400000Y-50350000D01*
X158400000Y-50350000D02*
X157600000Y-50350000D01*
X157600000Y-50350000D02*
X157600000Y-48750000D01*
X162300000Y-44850000D02*
X161300000Y-44850000D01*
X161300000Y-44350000D02*
X162300000Y-44350000D01*
X161300000Y-44850000D02*
X161300000Y-44350000D01*
X162300000Y-44350000D02*
X162300000Y-44850000D01*
X161300000Y-46450000D02*
X161300000Y-45950000D01*
X162300000Y-46450000D02*
X161300000Y-46450000D01*
X161300000Y-45950000D02*
X162300000Y-45950000D01*
X162300000Y-45950000D02*
X162300000Y-46450000D01*
X169708000Y-55364400D02*
X172908000Y-55364400D01*
X172908000Y-56964400D02*
X169708000Y-56964400D01*
X172908000Y-55364400D02*
X172908000Y-56964400D01*
X169708000Y-56964400D02*
X169708000Y-55364400D01*
X160400000Y-48000000D02*
X160400000Y-49600000D01*
X160400000Y-49600000D02*
X159600000Y-49600000D01*
X159600000Y-48000000D02*
X160400000Y-48000000D01*
X159600000Y-49600000D02*
X159600000Y-48000000D01*
X201780000Y-32710000D02*
X200580000Y-32710000D01*
X200580000Y-32710000D02*
X200580000Y-37110000D01*
X200580000Y-37110000D02*
X194080000Y-37110000D01*
X200580000Y-28610000D02*
X201780000Y-28610000D01*
X200780000Y-38300000D02*
X192880000Y-38300000D01*
X192880000Y-23020000D02*
X201780000Y-23020000D01*
X200580000Y-24210000D02*
X200580000Y-28610000D01*
X200580000Y-28610000D02*
X200580000Y-28610000D01*
X194080000Y-24210000D02*
X200580000Y-24210000D01*
X192880000Y-38300000D02*
X192880000Y-23020000D01*
X194080000Y-37110000D02*
X194080000Y-24210000D01*
X201780000Y-37300000D02*
X200780000Y-38300000D01*
X201780000Y-23020000D02*
X201780000Y-37300000D01*
X161387500Y-48000000D02*
X162212500Y-48000000D01*
X161387500Y-49600000D02*
X161387500Y-48000000D01*
X162212500Y-49600000D02*
X161387500Y-49600000D01*
X162212500Y-48000000D02*
X162212500Y-49600000D01*
X154475000Y-32470000D02*
X154475000Y-31930000D01*
X154475000Y-31930000D02*
X155525000Y-31930000D01*
X155525000Y-31930000D02*
X155525000Y-32470000D01*
X155525000Y-32470000D02*
X154475000Y-32470000D01*
X149864300Y-50300000D02*
X149864300Y-48700000D01*
X150689300Y-48700000D02*
X150689300Y-50300000D01*
X149864300Y-48700000D02*
X150689300Y-48700000D01*
X150689300Y-50300000D02*
X149864300Y-50300000D01*
X153012500Y-50300000D02*
X152187500Y-50300000D01*
X152187500Y-50300000D02*
X152187500Y-48700000D01*
X152187500Y-48700000D02*
X153012500Y-48700000D01*
X153012500Y-48700000D02*
X153012500Y-50300000D01*
X154712500Y-48750000D02*
X154712500Y-50350000D01*
X154712500Y-50350000D02*
X153887500Y-50350000D01*
X153887500Y-50350000D02*
X153887500Y-48750000D01*
X153887500Y-48750000D02*
X154712500Y-48750000D01*
X163737500Y-31370000D02*
X164562500Y-31370000D01*
X164562500Y-31370000D02*
X164562500Y-32970000D01*
X164562500Y-32970000D02*
X163737500Y-32970000D01*
X163737500Y-32970000D02*
X163737500Y-31370000D01*
X162037500Y-32945000D02*
X162037500Y-31345000D01*
X162862500Y-32945000D02*
X162037500Y-32945000D01*
X162037500Y-31345000D02*
X162862500Y-31345000D01*
X162862500Y-31345000D02*
X162862500Y-32945000D01*
X165850000Y-30170000D02*
X167150000Y-30170000D01*
X167450000Y-29370000D02*
X165850000Y-29370000D01*
X167150000Y-30170000D02*
X167450000Y-29870000D01*
X167450000Y-29870000D02*
X167450000Y-29370000D01*
X165850000Y-29370000D02*
X165850000Y-30170000D01*
X206150000Y-61170000D02*
X206150000Y-59570000D01*
X206150000Y-59570000D02*
X205350000Y-59570000D01*
X205350000Y-60870000D02*
X205650000Y-61170000D01*
X205350000Y-59570000D02*
X205350000Y-60870000D01*
X205650000Y-61170000D02*
X206150000Y-61170000D01*
X206950000Y-62100000D02*
X206950000Y-57200000D01*
X217550000Y-64100000D02*
X216850000Y-64100000D01*
X216850000Y-66200000D02*
X206950000Y-66200000D01*
X216850000Y-62100000D02*
X216850000Y-57200000D01*
X217550000Y-62100000D02*
X216850000Y-62100000D01*
X216850000Y-66200000D02*
X216850000Y-64100000D01*
X206950000Y-66200000D02*
X206950000Y-64100000D01*
X206950000Y-64100000D02*
X206250000Y-64100000D01*
X206950000Y-62100000D02*
X206250000Y-62100000D01*
X216850000Y-57200000D02*
X206950000Y-57200000D01*
X217550000Y-64100000D02*
G75*
G03*
X217550000Y-62100000I0J1000000D01*
G01*
X206250000Y-62100000D02*
G75*
G03*
X206250000Y-64100000I0J-1000000D01*
G01*
X206162500Y-58170000D02*
X205337500Y-58170000D01*
X206162500Y-56570000D02*
X206162500Y-58170000D01*
X205337500Y-56570000D02*
X206162500Y-56570000D01*
X205337500Y-58170000D02*
X205337500Y-56570000D01*
X201530000Y-55795000D02*
X202070000Y-55795000D01*
X201530000Y-56845000D02*
X201530000Y-55795000D01*
X202070000Y-56845000D02*
X201530000Y-56845000D01*
X202070000Y-55795000D02*
X202070000Y-56845000D01*
X161750000Y-40920000D02*
X160750000Y-40920000D01*
X161750000Y-40420000D02*
X161750000Y-40920000D01*
X160750000Y-40920000D02*
X160750000Y-40420000D01*
X160750000Y-40420000D02*
X161750000Y-40420000D01*
X206200000Y-36770000D02*
X206200000Y-37770000D01*
X206200000Y-37770000D02*
X205700000Y-37770000D01*
X205700000Y-37770000D02*
X205700000Y-36770000D01*
X205700000Y-36770000D02*
X206200000Y-36770000D01*
X204963000Y-34549000D02*
X204963000Y-37089000D01*
X204963000Y-37089000D02*
X190358000Y-37089000D01*
X189723000Y-36454000D02*
X189723000Y-34549000D01*
X189723000Y-34549000D02*
X204963000Y-34549000D01*
X190358000Y-37089000D02*
X189723000Y-36454000D01*
X208197600Y-39221900D02*
X208197600Y-39221900D01*
X211197600Y-39221900D02*
X211502400Y-39221900D01*
X212351900Y-37872400D02*
X212351900Y-37567600D01*
X210697600Y-34218100D02*
X211002400Y-34218100D01*
X208697600Y-39221900D02*
X208697600Y-39221900D01*
X207348100Y-36067600D02*
X207348100Y-36372400D01*
X212351900Y-36872400D02*
X212351900Y-36872400D01*
X211502400Y-34218100D02*
X211502400Y-34218100D01*
X207348100Y-37567600D02*
X207348100Y-37567600D01*
X208502400Y-39221900D02*
X208197600Y-39221900D01*
X209002400Y-39221900D02*
X208697600Y-39221900D01*
X207348100Y-34218100D02*
X207348100Y-39221900D01*
X207348100Y-36372400D02*
X207348100Y-36372400D01*
X209697600Y-34218100D02*
X210002400Y-34218100D01*
X212351900Y-36567600D02*
X212351900Y-36567600D01*
X210197600Y-39221900D02*
X210502400Y-39221900D01*
X209697600Y-34218100D02*
X209697600Y-34218100D01*
X209002400Y-34218100D02*
X208697600Y-34218100D01*
X207348100Y-35488100D02*
X208618100Y-34218100D01*
X212351900Y-36372400D02*
X212351900Y-36067600D01*
X207348100Y-35067600D02*
X207348100Y-35372400D01*
X210502400Y-34218100D02*
X210197600Y-34218100D01*
X207348100Y-35372400D02*
X207348100Y-35372400D01*
X207348100Y-36567600D02*
X207348100Y-36872400D01*
X210002400Y-34218100D02*
X209697600Y-34218100D01*
X211502400Y-39221900D02*
X211502400Y-39221900D01*
X207348100Y-36067600D02*
X207348100Y-36067600D01*
X212351900Y-35567600D02*
X212351900Y-35567600D01*
X210502400Y-34218100D02*
X210502400Y-34218100D01*
X207348100Y-34218100D02*
X207348100Y-34218100D01*
X207348100Y-39221900D02*
X207348100Y-39221900D01*
X207348100Y-37567600D02*
X207348100Y-37872400D01*
X207348100Y-37067600D02*
X207348100Y-37372400D01*
X212351900Y-36067600D02*
X212351900Y-36067600D01*
X210697600Y-39221900D02*
X211002400Y-39221900D01*
X209697600Y-39221900D02*
X210002400Y-39221900D01*
X208697600Y-34218100D02*
X208697600Y-34218100D01*
X207348100Y-38067600D02*
X207348100Y-38067600D01*
X207348100Y-35067600D02*
X207348100Y-35067600D01*
X212351900Y-34218100D02*
X207348100Y-34218100D01*
X207348100Y-36372400D02*
X207348100Y-36067600D01*
X207348100Y-37372400D02*
X207348100Y-37067600D01*
X207348100Y-37872400D02*
X207348100Y-37872400D01*
X211002400Y-34218100D02*
X211002400Y-34218100D01*
X208197600Y-34218100D02*
X208502400Y-34218100D01*
X211197600Y-39221900D02*
X211197600Y-39221900D01*
X212351900Y-35872400D02*
X212351900Y-35872400D01*
X211002400Y-39221900D02*
X210697600Y-39221900D01*
X207348100Y-35567600D02*
X207348100Y-35567600D01*
X211197600Y-34218100D02*
X211502400Y-34218100D01*
X207348100Y-35872400D02*
X207348100Y-35567600D01*
X208502400Y-39221900D02*
X208502400Y-39221900D01*
X210002400Y-39221900D02*
X210002400Y-39221900D01*
X210502400Y-39221900D02*
X210197600Y-39221900D01*
X212351900Y-38067600D02*
X212351900Y-38372400D01*
X208502400Y-34218100D02*
X208502400Y-34218100D01*
X208697600Y-39221900D02*
X209002400Y-39221900D01*
X212351900Y-39221900D02*
X212351900Y-34218100D01*
X207348100Y-36872400D02*
X207348100Y-36567600D01*
X212351900Y-36067600D02*
X212351900Y-36372400D01*
X210002400Y-39221900D02*
X209697600Y-39221900D01*
X209697600Y-39221900D02*
X209697600Y-39221900D01*
X212351900Y-37372400D02*
X212351900Y-37372400D01*
X212351900Y-35372400D02*
X212351900Y-35372400D01*
X207348100Y-38372400D02*
X207348100Y-38372400D01*
X212351900Y-39221900D02*
X212351900Y-39221900D01*
X209002400Y-39221900D02*
X209002400Y-39221900D01*
X211002400Y-39221900D02*
X211002400Y-39221900D01*
X212351900Y-37567600D02*
X212351900Y-37567600D01*
X209197600Y-39221900D02*
X209502400Y-39221900D01*
X209502400Y-39221900D02*
X209502400Y-39221900D01*
X210197600Y-34218100D02*
X210197600Y-34218100D01*
X207348100Y-38067600D02*
X207348100Y-38372400D01*
X212351900Y-36567600D02*
X212351900Y-36872400D01*
X209502400Y-34218100D02*
X209197600Y-34218100D01*
X212351900Y-35067600D02*
X212351900Y-35372400D01*
X207348100Y-36567600D02*
X207348100Y-36567600D01*
X211502400Y-39221900D02*
X211197600Y-39221900D01*
X209002400Y-34218100D02*
X209002400Y-34218100D01*
X210197600Y-39221900D02*
X210197600Y-39221900D01*
X208502400Y-34218100D02*
X208197600Y-34218100D01*
X210697600Y-39221900D02*
X210697600Y-39221900D01*
X207348100Y-39221900D02*
X212351900Y-39221900D01*
X212351900Y-36372400D02*
X212351900Y-36372400D01*
X208197600Y-39221900D02*
X208502400Y-39221900D01*
X207348100Y-37872400D02*
X207348100Y-37567600D01*
X212351900Y-38372400D02*
X212351900Y-38372400D01*
X207348100Y-36872400D02*
X207348100Y-36872400D01*
X211502400Y-34218100D02*
X211197600Y-34218100D01*
X207348100Y-35567600D02*
X207348100Y-35872400D01*
X208697600Y-34218100D02*
X209002400Y-34218100D01*
X210502400Y-39221900D02*
X210502400Y-39221900D01*
X207348100Y-35872400D02*
X207348100Y-35872400D01*
X212351900Y-38372400D02*
X212351900Y-38067600D01*
X211002400Y-34218100D02*
X210697600Y-34218100D01*
X209502400Y-34218100D02*
X209502400Y-34218100D01*
X210002400Y-34218100D02*
X210002400Y-34218100D01*
X210197600Y-34218100D02*
X210502400Y-34218100D01*
X207348100Y-35372400D02*
X207348100Y-35067600D01*
X212351900Y-37372400D02*
X212351900Y-37067600D01*
X209502400Y-39221900D02*
X209197600Y-39221900D01*
X212351900Y-38067600D02*
X212351900Y-38067600D01*
X212351900Y-35872400D02*
X212351900Y-35567600D01*
X212351900Y-34218100D02*
X212351900Y-34218100D01*
X208197600Y-34218100D02*
X208197600Y-34218100D01*
X210697600Y-34218100D02*
X210697600Y-34218100D01*
X212351900Y-37067600D02*
X212351900Y-37372400D01*
X207348100Y-38372400D02*
X207348100Y-38067600D01*
X212351900Y-35567600D02*
X212351900Y-35872400D01*
X209197600Y-34218100D02*
X209502400Y-34218100D01*
X207348100Y-37372400D02*
X207348100Y-37372400D01*
X212351900Y-35067600D02*
X212351900Y-35067600D01*
X211197600Y-34218100D02*
X211197600Y-34218100D01*
X212351900Y-36872400D02*
X212351900Y-36567600D01*
X212351900Y-37567600D02*
X212351900Y-37872400D01*
X212351900Y-37872400D02*
X212351900Y-37872400D01*
X209197600Y-34218100D02*
X209197600Y-34218100D01*
X207348100Y-37067600D02*
X207348100Y-37067600D01*
X209197600Y-39221900D02*
X209197600Y-39221900D01*
X212351900Y-35372400D02*
X212351900Y-35067600D01*
X212351900Y-37067600D02*
X212351900Y-37067600D01*
X195032000Y-58891000D02*
X195032000Y-66191000D01*
X195032000Y-58891000D02*
X203972000Y-58891000D01*
X195032000Y-66191000D02*
X203972000Y-66191000D01*
X203972000Y-58891000D02*
X203972000Y-66191000D01*
X224700000Y-46720000D02*
X224700000Y-37420000D01*
X215400000Y-47720000D02*
X214400000Y-46720000D01*
X223700000Y-47720000D02*
X224700000Y-46720000D01*
X215400000Y-47720000D02*
X223700000Y-47720000D01*
X217350000Y-46628325D02*
X218350000Y-46628325D01*
X214400000Y-37420000D02*
X224700000Y-37420000D01*
X217850000Y-47128325D02*
X217850000Y-46128325D01*
X214400000Y-46720000D02*
X214400000Y-37420000D01*
X224550000Y-42570000D02*
G75*
G03*
X224550000Y-42570000I-5000000J0D01*
G01*
X199070000Y-55795000D02*
X199070000Y-56845000D01*
X198530000Y-55795000D02*
X199070000Y-55795000D01*
X199070000Y-56845000D02*
X198530000Y-56845000D01*
X198530000Y-56845000D02*
X198530000Y-55795000D01*
X203350000Y-30420000D02*
X208350000Y-30420000D01*
X203350000Y-32920000D02*
X203350000Y-30420000D01*
X208350000Y-32920000D02*
X203350000Y-32920000D01*
X208350000Y-30420000D02*
X208350000Y-32920000D01*
X158752400Y-44992400D02*
X158752400Y-45492400D01*
X157752400Y-45492400D02*
X157752400Y-44992400D01*
X158752400Y-45492400D02*
X157752400Y-45492400D01*
X157752400Y-44992400D02*
X158752400Y-44992400D01*
X159050000Y-33070000D02*
X159050000Y-34070000D01*
X158550000Y-34070000D02*
X158550000Y-33070000D01*
X159050000Y-34070000D02*
X158550000Y-34070000D01*
X158550000Y-33070000D02*
X159050000Y-33070000D01*
X181468000Y-35184000D02*
X181468000Y-37089000D01*
X166228000Y-34549000D02*
X180833000Y-34549000D01*
X181468000Y-37089000D02*
X166228000Y-37089000D01*
X166228000Y-37089000D02*
X166228000Y-34549000D01*
X180833000Y-34549000D02*
X181468000Y-35184000D01*
X190030000Y-49315000D02*
X190570000Y-49315000D01*
X190570000Y-49315000D02*
X190570000Y-50365000D01*
X190030000Y-50365000D02*
X190030000Y-49315000D01*
X190570000Y-50365000D02*
X190030000Y-50365000D01*
X165850000Y-28470000D02*
X167150000Y-28470000D01*
X167150000Y-28470000D02*
X167450000Y-28170000D01*
X165850000Y-27670000D02*
X165850000Y-28470000D01*
X167450000Y-28170000D02*
X167450000Y-27670000D01*
X167450000Y-27670000D02*
X165850000Y-27670000D01*
X217700000Y-34020000D02*
X217700000Y-35620000D01*
X216900000Y-34020000D02*
X217700000Y-34020000D01*
X216900000Y-35620000D02*
X216900000Y-34020000D01*
X217700000Y-35620000D02*
X216900000Y-35620000D01*
X219850000Y-49720000D02*
X218250000Y-49720000D01*
X218250000Y-48920000D02*
X219850000Y-48920000D01*
X219850000Y-48920000D02*
X219850000Y-49720000D01*
X218250000Y-49720000D02*
X218250000Y-48920000D01*
X200540000Y-32175000D02*
X201080000Y-32175000D01*
X201080000Y-32175000D02*
X201080000Y-33225000D01*
X201080000Y-33225000D02*
X200540000Y-33225000D01*
X200540000Y-33225000D02*
X200540000Y-32175000D01*
X174800000Y-60487500D02*
X174800000Y-58287500D01*
X175800000Y-66487500D02*
X165800000Y-66487500D01*
X173300000Y-61194607D02*
X172800000Y-60487500D01*
X173800000Y-60487500D02*
X173300000Y-61194607D01*
X174800000Y-58287500D02*
X175800000Y-58287500D01*
X166800000Y-58287500D02*
X166800000Y-60487500D01*
X166800000Y-60487500D02*
X174800000Y-60487500D01*
X165800000Y-66487500D02*
X165800000Y-58287500D01*
X165800000Y-58287500D02*
X166800000Y-58287500D01*
X175800000Y-58287500D02*
X175800000Y-66487500D01*
X216125000Y-36920000D02*
X214525000Y-36920000D01*
X214525000Y-36920000D02*
X214525000Y-33720000D01*
X214525000Y-33720000D02*
X216125000Y-33720000D01*
X216125000Y-33720000D02*
X216125000Y-36920000D01*
X154550000Y-66487500D02*
X154550000Y-58287500D01*
X155550000Y-58287500D02*
X155550000Y-60487500D01*
X162050000Y-61194607D02*
X161550000Y-60487500D01*
X163550000Y-58287500D02*
X164550000Y-58287500D01*
X164550000Y-58287500D02*
X164550000Y-66487500D01*
X164550000Y-66487500D02*
X154550000Y-66487500D01*
X155550000Y-60487500D02*
X163550000Y-60487500D01*
X163550000Y-60487500D02*
X163550000Y-58287500D01*
X154550000Y-58287500D02*
X155550000Y-58287500D01*
X162550000Y-60487500D02*
X162050000Y-61194607D01*
X220900000Y-52920000D02*
X220900000Y-54520000D01*
X220900000Y-54520000D02*
X217700000Y-54520000D01*
X217700000Y-54520000D02*
X217700000Y-52920000D01*
X217700000Y-52920000D02*
X220900000Y-52920000D01*
X207180000Y-47795000D02*
X207720000Y-47795000D01*
X207720000Y-48845000D02*
X207180000Y-48845000D01*
X207720000Y-47795000D02*
X207720000Y-48845000D01*
X207180000Y-48845000D02*
X207180000Y-47795000D01*
X157750000Y-44520000D02*
X157750000Y-44020000D01*
X157750000Y-44020000D02*
X158750000Y-44020000D01*
X158750000Y-44020000D02*
X158750000Y-44520000D01*
X158750000Y-44520000D02*
X157750000Y-44520000D01*
X204410000Y-48070000D02*
X205410000Y-48070000D01*
X205410000Y-48070000D02*
X205410000Y-48570000D01*
X204410000Y-48570000D02*
X204410000Y-48070000D01*
X205410000Y-48570000D02*
X204410000Y-48570000D01*
X199230000Y-41290000D02*
X199230000Y-41790000D01*
X199230000Y-41790000D02*
X198230000Y-41790000D01*
X198230000Y-41290000D02*
X199230000Y-41290000D01*
X198230000Y-41790000D02*
X198230000Y-41290000D01*
X205550000Y-27902500D02*
X206050000Y-27195393D01*
X203550000Y-30102500D02*
X203550000Y-21902500D01*
X215050000Y-30102500D02*
X215050000Y-27902500D01*
X206050000Y-27195393D02*
X206550000Y-27902500D01*
X204550000Y-30102500D02*
X203550000Y-30102500D01*
X216050000Y-21902500D02*
X216050000Y-30102500D01*
X203550000Y-21902500D02*
X216050000Y-21902500D01*
X215050000Y-27902500D02*
X204550000Y-27902500D01*
X216050000Y-30102500D02*
X215050000Y-30102500D01*
X204550000Y-27902500D02*
X204550000Y-30102500D01*
X200522000Y-52464000D02*
X201022000Y-52464000D01*
X200522000Y-53464000D02*
X200522000Y-52464000D01*
X201022000Y-52464000D02*
X201022000Y-53464000D01*
X201022000Y-53464000D02*
X200522000Y-53464000D01*
X201070000Y-55795000D02*
X201070000Y-56845000D01*
X200530000Y-56845000D02*
X200530000Y-55795000D01*
X201070000Y-56845000D02*
X200530000Y-56845000D01*
X200530000Y-55795000D02*
X201070000Y-55795000D01*
X211350000Y-30420000D02*
X216350000Y-30420000D01*
X211350000Y-32920000D02*
X211350000Y-30420000D01*
X216350000Y-32920000D02*
X211350000Y-32920000D01*
X216350000Y-30420000D02*
X216350000Y-32920000D01*
X195430000Y-41290000D02*
X195430000Y-41790000D01*
X194430000Y-41790000D02*
X194430000Y-41290000D01*
X195430000Y-41790000D02*
X194430000Y-41790000D01*
X194430000Y-41290000D02*
X195430000Y-41290000D01*
X200550000Y-30366000D02*
X201050000Y-30366000D01*
X200550000Y-31366000D02*
X200550000Y-30366000D01*
X201050000Y-31366000D02*
X200550000Y-31366000D01*
X201050000Y-30366000D02*
X201050000Y-31366000D01*
X198850000Y-45070000D02*
X199850000Y-46070000D01*
X192850000Y-52070000D02*
X192850000Y-45070000D01*
X199850000Y-52070000D02*
X192850000Y-52070000D01*
X192850000Y-45070000D02*
X198850000Y-45070000D01*
X199850000Y-46070000D02*
X199850000Y-52070000D01*
X168044000Y-58202500D02*
X166444000Y-58202500D01*
X168044000Y-57377500D02*
X168044000Y-58202500D01*
X166444000Y-58202500D02*
X166444000Y-57377500D01*
X166444000Y-57377500D02*
X168044000Y-57377500D01*
X187920000Y-50355000D02*
X187920000Y-49305000D01*
X188460000Y-49305000D02*
X188460000Y-50355000D01*
X187920000Y-49305000D02*
X188460000Y-49305000D01*
X188460000Y-50355000D02*
X187920000Y-50355000D01*
X210089400Y-42528000D02*
X209489400Y-42128000D01*
X209489400Y-42128000D02*
X209489400Y-41578000D01*
X211239400Y-41228000D02*
X211239400Y-43028000D01*
X209489400Y-42128000D02*
X210089400Y-41728000D01*
X210089400Y-41728000D02*
X210089400Y-42528000D01*
X208439400Y-41228000D02*
X211239400Y-41228000D01*
X210089400Y-42128000D02*
X210589400Y-42128000D01*
X208439400Y-43028000D02*
X208439400Y-41228000D01*
X211239400Y-43028000D02*
X208439400Y-43028000D01*
X209089400Y-42128000D02*
X209489400Y-42128000D01*
X209489400Y-42128000D02*
X209489400Y-42678000D01*
X203820000Y-52925000D02*
X204360000Y-52925000D01*
X204360000Y-53975000D02*
X203820000Y-53975000D01*
X203820000Y-53975000D02*
X203820000Y-52925000D01*
X204360000Y-52925000D02*
X204360000Y-53975000D01*
X201140000Y-44860000D02*
X200640000Y-44860000D01*
X200640000Y-44860000D02*
X200640000Y-43860000D01*
X200640000Y-43860000D02*
X201140000Y-43860000D01*
X201140000Y-43860000D02*
X201140000Y-44860000D01*
X197355000Y-41270000D02*
X197355000Y-41810000D01*
X196305000Y-41270000D02*
X197355000Y-41270000D01*
X196305000Y-41810000D02*
X196305000Y-41270000D01*
X197355000Y-41810000D02*
X196305000Y-41810000D01*
X205950000Y-34170000D02*
X204350000Y-34170000D01*
X204350000Y-33370000D02*
X205950000Y-33370000D01*
X205950000Y-33370000D02*
X205950000Y-34170000D01*
X204350000Y-34170000D02*
X204350000Y-33370000D01*
X197530000Y-55795000D02*
X198070000Y-55795000D01*
X197530000Y-56845000D02*
X197530000Y-55795000D01*
X198070000Y-56845000D02*
X197530000Y-56845000D01*
X198070000Y-55795000D02*
X198070000Y-56845000D01*
X219975000Y-34920000D02*
X220375000Y-34920000D01*
X219325000Y-34020000D02*
X222125000Y-34020000D01*
X222125000Y-35820000D02*
X219325000Y-35820000D01*
X220375000Y-34920000D02*
X220975000Y-34520000D01*
X220975000Y-34920000D02*
X221475000Y-34920000D01*
X220375000Y-34920000D02*
X220375000Y-34370000D01*
X219325000Y-35820000D02*
X219325000Y-34020000D01*
X220375000Y-34920000D02*
X220375000Y-35470000D01*
X220975000Y-34520000D02*
X220975000Y-35320000D01*
X220975000Y-35320000D02*
X220375000Y-34920000D01*
X222125000Y-34020000D02*
X222125000Y-35820000D01*
X150700000Y-42470000D02*
X150700000Y-43470000D01*
X150700000Y-43470000D02*
X150200000Y-43470000D01*
X150200000Y-43470000D02*
X150200000Y-42470000D01*
X150200000Y-42470000D02*
X150700000Y-42470000D01*
X156868000Y-58202500D02*
X155268000Y-58202500D01*
X155268000Y-57377500D02*
X156868000Y-57377500D01*
X155268000Y-58202500D02*
X155268000Y-57377500D01*
X156868000Y-57377500D02*
X156868000Y-58202500D01*
X213770400Y-40970000D02*
X212970400Y-40970000D01*
X212970400Y-40970000D02*
X212970400Y-39370000D01*
X213770400Y-39370000D02*
X213770400Y-40970000D01*
X212970400Y-39370000D02*
X213770400Y-39370000D01*
X191975600Y-52807600D02*
X190975600Y-52807600D01*
X190975600Y-52307600D02*
X191975600Y-52307600D01*
X190975600Y-52807600D02*
X190975600Y-52307600D01*
X191975600Y-52307600D02*
X191975600Y-52807600D01*
X202670000Y-28170000D02*
X202670000Y-27370000D01*
X201370000Y-27370000D02*
X201070000Y-27670000D01*
X202670000Y-27370000D02*
X201370000Y-27370000D01*
X201070000Y-27670000D02*
X201070000Y-28170000D01*
X201070000Y-28170000D02*
X202670000Y-28170000D01*
X217700000Y-50520000D02*
X220900000Y-50520000D01*
X220900000Y-50520000D02*
X220900000Y-52120000D01*
X217700000Y-52120000D02*
X217700000Y-50520000D01*
X220900000Y-52120000D02*
X217700000Y-52120000D01*
X202689600Y-28827900D02*
X202689600Y-29652900D01*
X201089600Y-29652900D02*
X201089600Y-28827900D01*
X202689600Y-29652900D02*
X201089600Y-29652900D01*
X201089600Y-28827900D02*
X202689600Y-28827900D01*
X189490000Y-49315000D02*
X189490000Y-50365000D01*
X188950000Y-49315000D02*
X189490000Y-49315000D01*
X188950000Y-50365000D02*
X188950000Y-49315000D01*
X189490000Y-50365000D02*
X188950000Y-50365000D01*
X194550000Y-40740000D02*
X194350000Y-40540000D01*
X199350000Y-40540000D02*
X199150000Y-40740000D01*
X199350000Y-38540000D02*
X198350000Y-37540000D01*
X194550000Y-37540000D02*
X199150000Y-37540000D01*
X199350000Y-37740000D02*
X199350000Y-40540000D01*
X194350000Y-37740000D02*
X194550000Y-37540000D01*
X194350000Y-40540000D02*
X194350000Y-37740000D01*
X199150000Y-37540000D02*
X199350000Y-37740000D01*
X199150000Y-40740000D02*
X194550000Y-40740000D01*
X147444800Y-39343200D02*
X147444800Y-38543200D01*
X147444800Y-38543200D02*
X149044800Y-38543200D01*
X149044800Y-38543200D02*
X149044800Y-39343200D01*
X149044800Y-39343200D02*
X147444800Y-39343200D01*
X211414400Y-45128000D02*
X208214400Y-45128000D01*
X208214400Y-45128000D02*
X208214400Y-43528000D01*
X211414400Y-43528000D02*
X211414400Y-45128000D01*
X208214400Y-43528000D02*
X211414400Y-43528000D01*
X193990000Y-42850000D02*
X193990000Y-42350000D01*
X193990000Y-42350000D02*
X194990000Y-42350000D01*
X194990000Y-42850000D02*
X193990000Y-42850000D01*
X194990000Y-42350000D02*
X194990000Y-42850000D01*
X202780000Y-52915000D02*
X203320000Y-52915000D01*
X202780000Y-53965000D02*
X202780000Y-52915000D01*
X203320000Y-52915000D02*
X203320000Y-53965000D01*
X203320000Y-53965000D02*
X202780000Y-53965000D01*
X200070000Y-56845000D02*
X199530000Y-56845000D01*
X200070000Y-55795000D02*
X200070000Y-56845000D01*
X199530000Y-55795000D02*
X200070000Y-55795000D01*
X199530000Y-56845000D02*
X199530000Y-55795000D01*
X161750000Y-38899096D02*
X161750000Y-39399096D01*
X160750000Y-39399096D02*
X160750000Y-38899096D01*
X161750000Y-39399096D02*
X160750000Y-39399096D01*
X160750000Y-38899096D02*
X161750000Y-38899096D01*
X206180000Y-48845000D02*
X206180000Y-47795000D01*
X206180000Y-47795000D02*
X206720000Y-47795000D01*
X206720000Y-48845000D02*
X206180000Y-48845000D01*
X206720000Y-47795000D02*
X206720000Y-48845000D01*
M02*
