%TF.GenerationSoftware,KiCad,Pcbnew,(6.0.1-0)*%
%TF.CreationDate,2023-01-25T00:15:59+01:00*%
%TF.ProjectId,ethersweep,65746865-7273-4776-9565-702e6b696361,2.0.1*%
%TF.SameCoordinates,Original*%
%TF.FileFunction,AssemblyDrawing,Bot*%
%FSLAX46Y46*%
G04 Gerber Fmt 4.6, Leading zero omitted, Abs format (unit mm)*
G04 Created by KiCad (PCBNEW (6.0.1-0)) date 2023-01-25 00:15:59*
%MOMM*%
%LPD*%
G01*
G04 APERTURE LIST*
%TA.AperFunction,Profile*%
%ADD10C,0.150000*%
%TD*%
%ADD11C,0.150000*%
%ADD12C,0.015000*%
%ADD13C,0.100000*%
G04 APERTURE END LIST*
D10*
X187150000Y-39570000D02*
X187150000Y-43270000D01*
X184150000Y-43270000D02*
X184150000Y-39570000D01*
X184150000Y-53070000D02*
X184150000Y-48970000D01*
X187150000Y-48970000D02*
X187150000Y-53070000D01*
X187150000Y-39570000D02*
G75*
G03*
X184150000Y-39570000I-1500000J0D01*
G01*
X184150000Y-43270000D02*
G75*
G03*
X187150000Y-43270000I1500000J0D01*
G01*
X184150000Y-53070000D02*
G75*
G03*
X187150000Y-53070000I1500000J0D01*
G01*
X187150000Y-48970000D02*
G75*
G03*
X184150000Y-48970000I-1500000J0D01*
G01*
X184100000Y-31800000D02*
G75*
G03*
X187100000Y-31800000I1500000J0D01*
G01*
X187100000Y-59370000D02*
G75*
G03*
X184100000Y-59370000I-1500000J0D01*
G01*
X184100000Y-31800000D02*
X184100000Y-30200000D01*
X184100000Y-60700000D02*
X184100000Y-59400000D01*
X180600000Y-26700000D02*
X149600000Y-26700000D01*
X149600000Y-26700000D02*
G75*
G03*
X146100000Y-30200000I-1J-3499999D01*
G01*
X184100000Y-30200000D02*
G75*
G03*
X180600000Y-26700000I-3499999J1D01*
G01*
X180600000Y-64700000D02*
G75*
G03*
X184100000Y-61200000I1J3499999D01*
G01*
X146100000Y-30200000D02*
X146100000Y-61200000D01*
X149600000Y-64700000D02*
X180600000Y-64700000D01*
X146100000Y-61200000D02*
G75*
G03*
X149600000Y-64700000I3499999J-1D01*
G01*
X184100000Y-61200000D02*
X184100000Y-60700000D01*
X225100000Y-61200000D02*
X225100000Y-30200000D01*
X190600000Y-64700000D02*
X221600000Y-64700000D01*
X187100000Y-61200000D02*
G75*
G03*
X190600000Y-64700000I3499999J-1D01*
G01*
X221600000Y-64700000D02*
G75*
G03*
X225100000Y-61200000I1J3499999D01*
G01*
X190600000Y-26700000D02*
G75*
G03*
X187100000Y-30200000I-1J-3499999D01*
G01*
X190600000Y-26700000D02*
X221600000Y-26700000D01*
X187100000Y-30200000D02*
X187100000Y-30700000D01*
X187100000Y-61200000D02*
X187100000Y-59400000D01*
X187100000Y-31800000D02*
X187100000Y-30700000D01*
X225100000Y-30200000D02*
G75*
G03*
X221600000Y-26700000I-3499999J1D01*
G01*
D11*
X147052380Y-45376666D02*
X147766666Y-45376666D01*
X147909523Y-45329047D01*
X148004761Y-45233809D01*
X148052380Y-45090952D01*
X148052380Y-44995714D01*
X147052380Y-45757619D02*
X147052380Y-46376666D01*
X147433333Y-46043333D01*
X147433333Y-46186190D01*
X147480952Y-46281428D01*
X147528571Y-46329047D01*
X147623809Y-46376666D01*
X147861904Y-46376666D01*
X147957142Y-46329047D01*
X148004761Y-46281428D01*
X148052380Y-46186190D01*
X148052380Y-45900476D01*
X148004761Y-45805238D01*
X147957142Y-45757619D01*
D12*
X201909523Y-47283333D02*
X201671428Y-47283333D01*
X201957142Y-47426190D02*
X201790476Y-46926190D01*
X201623809Y-47426190D01*
X201480952Y-47402380D02*
X201409523Y-47426190D01*
X201290476Y-47426190D01*
X201242857Y-47402380D01*
X201219047Y-47378571D01*
X201195238Y-47330952D01*
X201195238Y-47283333D01*
X201219047Y-47235714D01*
X201242857Y-47211904D01*
X201290476Y-47188095D01*
X201385714Y-47164285D01*
X201433333Y-47140476D01*
X201457142Y-47116666D01*
X201480952Y-47069047D01*
X201480952Y-47021428D01*
X201457142Y-46973809D01*
X201433333Y-46950000D01*
X201385714Y-46926190D01*
X201266666Y-46926190D01*
X201195238Y-46950000D01*
X200742857Y-46926190D02*
X200980952Y-46926190D01*
X201004761Y-47164285D01*
X200980952Y-47140476D01*
X200933333Y-47116666D01*
X200814285Y-47116666D01*
X200766666Y-47140476D01*
X200742857Y-47164285D01*
X200719047Y-47211904D01*
X200719047Y-47330952D01*
X200742857Y-47378571D01*
X200766666Y-47402380D01*
X200814285Y-47426190D01*
X200933333Y-47426190D01*
X200980952Y-47402380D01*
X201004761Y-47378571D01*
X200290476Y-46926190D02*
X200385714Y-46926190D01*
X200433333Y-46950000D01*
X200457142Y-46973809D01*
X200504761Y-47045238D01*
X200528571Y-47140476D01*
X200528571Y-47330952D01*
X200504761Y-47378571D01*
X200480952Y-47402380D01*
X200433333Y-47426190D01*
X200338095Y-47426190D01*
X200290476Y-47402380D01*
X200266666Y-47378571D01*
X200242857Y-47330952D01*
X200242857Y-47211904D01*
X200266666Y-47164285D01*
X200290476Y-47140476D01*
X200338095Y-47116666D01*
X200433333Y-47116666D01*
X200480952Y-47140476D01*
X200504761Y-47164285D01*
X200528571Y-47211904D01*
X199933333Y-46926190D02*
X199885714Y-46926190D01*
X199838095Y-46950000D01*
X199814285Y-46973809D01*
X199790476Y-47021428D01*
X199766666Y-47116666D01*
X199766666Y-47235714D01*
X199790476Y-47330952D01*
X199814285Y-47378571D01*
X199838095Y-47402380D01*
X199885714Y-47426190D01*
X199933333Y-47426190D01*
X199980952Y-47402380D01*
X200004761Y-47378571D01*
X200028571Y-47330952D01*
X200052380Y-47235714D01*
X200052380Y-47116666D01*
X200028571Y-47021428D01*
X200004761Y-46973809D01*
X199980952Y-46950000D01*
X199933333Y-46926190D01*
X199457142Y-46926190D02*
X199409523Y-46926190D01*
X199361904Y-46950000D01*
X199338095Y-46973809D01*
X199314285Y-47021428D01*
X199290476Y-47116666D01*
X199290476Y-47235714D01*
X199314285Y-47330952D01*
X199338095Y-47378571D01*
X199361904Y-47402380D01*
X199409523Y-47426190D01*
X199457142Y-47426190D01*
X199504761Y-47402380D01*
X199528571Y-47378571D01*
X199552380Y-47330952D01*
X199576190Y-47235714D01*
X199576190Y-47116666D01*
X199552380Y-47021428D01*
X199528571Y-46973809D01*
X199504761Y-46950000D01*
X199457142Y-46926190D01*
D13*
X170620000Y-24210000D02*
X170620000Y-28610000D01*
X169420000Y-23020000D02*
X169420000Y-37300000D01*
X170620000Y-28610000D02*
X170620000Y-28610000D01*
X169420000Y-37300000D02*
X170420000Y-38300000D01*
X170620000Y-32710000D02*
X170620000Y-37110000D01*
X177120000Y-37110000D02*
X177120000Y-24210000D01*
X170620000Y-37110000D02*
X177120000Y-37110000D01*
X178320000Y-23020000D02*
X169420000Y-23020000D01*
X170620000Y-28610000D02*
X169420000Y-28610000D01*
X169420000Y-32710000D02*
X170620000Y-32710000D01*
X178320000Y-38300000D02*
X178320000Y-23020000D01*
X177120000Y-24210000D02*
X170620000Y-24210000D01*
X170420000Y-38300000D02*
X178320000Y-38300000D01*
X148870000Y-50790000D02*
X148870000Y-41265000D01*
X146330000Y-50790000D02*
X148870000Y-50790000D01*
X148870000Y-41265000D02*
X148235000Y-40630000D01*
X148235000Y-40630000D02*
X146330000Y-40630000D01*
X146330000Y-40630000D02*
X146330000Y-50790000D01*
X167100000Y-31700000D02*
X167100000Y-28800000D01*
X163200000Y-28800000D02*
X163200000Y-31700000D01*
X163200000Y-31700000D02*
X167100000Y-31700000D01*
X167100000Y-28800000D02*
X163200000Y-28800000D01*
X166150000Y-30250000D02*
G75*
G03*
X166150000Y-30250000I-1000000J0D01*
G01*
M02*
