%TF.GenerationSoftware,KiCad,Pcbnew,(6.0.1-0)*%
%TF.CreationDate,2023-01-25T00:15:57+01:00*%
%TF.ProjectId,ethersweep,65746865-7273-4776-9565-702e6b696361,2.0.1*%
%TF.SameCoordinates,Original*%
%TF.FileFunction,Soldermask,Bot*%
%TF.FilePolarity,Negative*%
%FSLAX46Y46*%
G04 Gerber Fmt 4.6, Leading zero omitted, Abs format (unit mm)*
G04 Created by KiCad (PCBNEW (6.0.1-0)) date 2023-01-25 00:15:57*
%MOMM*%
%LPD*%
G01*
G04 APERTURE LIST*
G04 Aperture macros list*
%AMRoundRect*
0 Rectangle with rounded corners*
0 $1 Rounding radius*
0 $2 $3 $4 $5 $6 $7 $8 $9 X,Y pos of 4 corners*
0 Add a 4 corners polygon primitive as box body*
4,1,4,$2,$3,$4,$5,$6,$7,$8,$9,$2,$3,0*
0 Add four circle primitives for the rounded corners*
1,1,$1+$1,$2,$3*
1,1,$1+$1,$4,$5*
1,1,$1+$1,$6,$7*
1,1,$1+$1,$8,$9*
0 Add four rect primitives between the rounded corners*
20,1,$1+$1,$2,$3,$4,$5,0*
20,1,$1+$1,$4,$5,$6,$7,0*
20,1,$1+$1,$6,$7,$8,$9,0*
20,1,$1+$1,$8,$9,$2,$3,0*%
G04 Aperture macros list end*
%TA.AperFunction,Profile*%
%ADD10C,0.150000*%
%TD*%
%ADD11C,3.352000*%
%ADD12RoundRect,0.051000X-0.699000X0.699000X-0.699000X-0.699000X0.699000X-0.699000X0.699000X0.699000X0*%
%ADD13C,1.500000*%
%ADD14C,1.632000*%
%ADD15C,2.547000*%
%ADD16C,0.902000*%
%ADD17C,6.502000*%
%ADD18RoundRect,0.301000X0.600000X0.600000X-0.600000X0.600000X-0.600000X-0.600000X0.600000X-0.600000X0*%
%ADD19C,1.802000*%
%ADD20C,1.626000*%
%ADD21C,1.502000*%
%ADD22RoundRect,0.051000X1.750000X1.750000X-1.750000X1.750000X-1.750000X-1.750000X1.750000X-1.750000X0*%
%ADD23C,3.602000*%
%ADD24RoundRect,0.051000X0.850000X-0.850000X0.850000X0.850000X-0.850000X0.850000X-0.850000X-0.850000X0*%
%ADD25O,1.802000X1.802000*%
%ADD26C,0.752000*%
%ADD27O,1.102000X2.202000*%
%ADD28O,1.102000X1.702000*%
%ADD29RoundRect,0.051000X-0.850000X0.850000X-0.850000X-0.850000X0.850000X-0.850000X0.850000X0.850000X0*%
%ADD30RoundRect,0.301000X0.600000X0.725000X-0.600000X0.725000X-0.600000X-0.725000X0.600000X-0.725000X0*%
%ADD31O,1.802000X2.052000*%
%ADD32RoundRect,0.301000X-0.600000X-0.725000X0.600000X-0.725000X0.600000X0.725000X-0.600000X0.725000X0*%
%ADD33RoundRect,0.301000X-0.600000X-0.600000X0.600000X-0.600000X0.600000X0.600000X-0.600000X0.600000X0*%
%ADD34RoundRect,0.051000X0.850000X0.850000X-0.850000X0.850000X-0.850000X-0.850000X0.850000X-0.850000X0*%
%ADD35RoundRect,0.251000X0.200000X0.800000X-0.200000X0.800000X-0.200000X-0.800000X0.200000X-0.800000X0*%
%ADD36RoundRect,0.051000X-0.300000X-0.700000X0.300000X-0.700000X0.300000X0.700000X-0.300000X0.700000X0*%
%ADD37C,2.102000*%
G04 APERTURE END LIST*
D10*
X187150000Y-39570000D02*
X187150000Y-43270000D01*
X184150000Y-43270000D02*
X184150000Y-39570000D01*
X184150000Y-53070000D02*
X184150000Y-48970000D01*
X187150000Y-48970000D02*
X187150000Y-53070000D01*
X187150000Y-39570000D02*
G75*
G03*
X184150000Y-39570000I-1500000J0D01*
G01*
X184150000Y-43270000D02*
G75*
G03*
X187150000Y-43270000I1500000J0D01*
G01*
X184150000Y-53070000D02*
G75*
G03*
X187150000Y-53070000I1500000J0D01*
G01*
X187150000Y-48970000D02*
G75*
G03*
X184150000Y-48970000I-1500000J0D01*
G01*
X184100000Y-31800000D02*
G75*
G03*
X187100000Y-31800000I1500000J0D01*
G01*
X187100000Y-59370000D02*
G75*
G03*
X184100000Y-59370000I-1500000J0D01*
G01*
X184100000Y-31800000D02*
X184100000Y-30200000D01*
X184100000Y-60700000D02*
X184100000Y-59400000D01*
X180600000Y-26700000D02*
X149600000Y-26700000D01*
X149600000Y-26700000D02*
G75*
G03*
X146100000Y-30200000I-1J-3499999D01*
G01*
X184100000Y-30200000D02*
G75*
G03*
X180600000Y-26700000I-3499999J1D01*
G01*
X180600000Y-64700000D02*
G75*
G03*
X184100000Y-61200000I1J3499999D01*
G01*
X146100000Y-30200000D02*
X146100000Y-61200000D01*
X149600000Y-64700000D02*
X180600000Y-64700000D01*
X146100000Y-61200000D02*
G75*
G03*
X149600000Y-64700000I3499999J-1D01*
G01*
X184100000Y-61200000D02*
X184100000Y-60700000D01*
X225100000Y-61200000D02*
X225100000Y-30200000D01*
X190600000Y-64700000D02*
X221600000Y-64700000D01*
X187100000Y-61200000D02*
G75*
G03*
X190600000Y-64700000I3499999J-1D01*
G01*
X221600000Y-64700000D02*
G75*
G03*
X225100000Y-61200000I1J3499999D01*
G01*
X190600000Y-26700000D02*
G75*
G03*
X187100000Y-30200000I-1J-3499999D01*
G01*
X190600000Y-26700000D02*
X221600000Y-26700000D01*
X187100000Y-30200000D02*
X187100000Y-30700000D01*
X187100000Y-61200000D02*
X187100000Y-59400000D01*
X187100000Y-31800000D02*
X187100000Y-30700000D01*
X225100000Y-30200000D02*
G75*
G03*
X221600000Y-26700000I-3499999J1D01*
G01*
X187150000Y-39570000D02*
X187150000Y-43270000D01*
X184150000Y-43270000D02*
X184150000Y-39570000D01*
X184150000Y-53070000D02*
X184150000Y-48970000D01*
X187150000Y-48970000D02*
X187150000Y-53070000D01*
X187150000Y-39570000D02*
G75*
G03*
X184150000Y-39570000I-1500000J0D01*
G01*
X184150000Y-43270000D02*
G75*
G03*
X187150000Y-43270000I1500000J0D01*
G01*
X184150000Y-53070000D02*
G75*
G03*
X187150000Y-53070000I1500000J0D01*
G01*
X187150000Y-48970000D02*
G75*
G03*
X184150000Y-48970000I-1500000J0D01*
G01*
X184100000Y-31800000D02*
G75*
G03*
X187100000Y-31800000I1500000J0D01*
G01*
X187100000Y-59370000D02*
G75*
G03*
X184100000Y-59370000I-1500000J0D01*
G01*
X184100000Y-31800000D02*
X184100000Y-30200000D01*
X184100000Y-60700000D02*
X184100000Y-59400000D01*
X180600000Y-26700000D02*
X149600000Y-26700000D01*
X149600000Y-26700000D02*
G75*
G03*
X146100000Y-30200000I-1J-3499999D01*
G01*
X184100000Y-30200000D02*
G75*
G03*
X180600000Y-26700000I-3499999J1D01*
G01*
X180600000Y-64700000D02*
G75*
G03*
X184100000Y-61200000I1J3499999D01*
G01*
X146100000Y-30200000D02*
X146100000Y-61200000D01*
X149600000Y-64700000D02*
X180600000Y-64700000D01*
X146100000Y-61200000D02*
G75*
G03*
X149600000Y-64700000I3499999J-1D01*
G01*
X184100000Y-61200000D02*
X184100000Y-60700000D01*
X225100000Y-61200000D02*
X225100000Y-30200000D01*
X190600000Y-64700000D02*
X221600000Y-64700000D01*
X187100000Y-61200000D02*
G75*
G03*
X190600000Y-64700000I3499999J-1D01*
G01*
X221600000Y-64700000D02*
G75*
G03*
X225100000Y-61200000I1J3499999D01*
G01*
X190600000Y-26700000D02*
G75*
G03*
X187100000Y-30200000I-1J-3499999D01*
G01*
X190600000Y-26700000D02*
X221600000Y-26700000D01*
X187100000Y-30200000D02*
X187100000Y-30700000D01*
X187100000Y-61200000D02*
X187100000Y-59400000D01*
X187100000Y-31800000D02*
X187100000Y-30700000D01*
X225100000Y-30200000D02*
G75*
G03*
X221600000Y-26700000I-3499999J1D01*
G01*
D11*
X174350000Y-51415000D03*
X174350000Y-39985000D03*
D12*
X168000000Y-50150000D03*
D13*
X165460000Y-48880000D03*
X168000000Y-47610000D03*
X165460000Y-46340000D03*
X168000000Y-45070000D03*
X165460000Y-43800000D03*
X168000000Y-42530000D03*
X165460000Y-41260000D03*
D14*
X179250000Y-52325000D03*
X179250000Y-49785000D03*
X179250000Y-41615000D03*
X179250000Y-39075000D03*
D15*
X171300000Y-53445000D03*
X171300000Y-37955000D03*
D16*
X182297056Y-31897056D03*
X180600000Y-32600000D03*
X180600000Y-27800000D03*
X178902944Y-28502944D03*
D17*
X180600000Y-30200000D03*
D16*
X178902944Y-31897056D03*
X183000000Y-30200000D03*
X178200000Y-30200000D03*
X182297056Y-28502944D03*
X149600000Y-32600000D03*
X149600000Y-27800000D03*
X147902944Y-28502944D03*
D17*
X149600000Y-30200000D03*
D16*
X151297056Y-31897056D03*
X151297056Y-28502944D03*
X147902944Y-31897056D03*
X152000000Y-30200000D03*
X147200000Y-30200000D03*
X147902944Y-59502944D03*
X151297056Y-62897056D03*
X147200000Y-61200000D03*
X149600000Y-58800000D03*
X151297056Y-59502944D03*
X152000000Y-61200000D03*
X149600000Y-63600000D03*
D17*
X149600000Y-61200000D03*
D16*
X147902944Y-62897056D03*
X182297056Y-59502944D03*
X180600000Y-58800000D03*
X180600000Y-63600000D03*
X178902944Y-62897056D03*
X183000000Y-61200000D03*
D17*
X180600000Y-61200000D03*
D16*
X182297056Y-62897056D03*
X178200000Y-61200000D03*
X178902944Y-59502944D03*
X193000000Y-30200000D03*
D17*
X190600000Y-30200000D03*
D16*
X192297056Y-31897056D03*
X190600000Y-32600000D03*
X188200000Y-30200000D03*
X190600000Y-27800000D03*
X192297056Y-28502944D03*
X188902944Y-28502944D03*
X188902944Y-31897056D03*
X223297056Y-31897056D03*
D17*
X221600000Y-30200000D03*
D16*
X221600000Y-32600000D03*
X219200000Y-30200000D03*
X224000000Y-30200000D03*
X219902944Y-28502944D03*
X221600000Y-27800000D03*
X219902944Y-31897056D03*
X223297056Y-28502944D03*
X188902944Y-62897056D03*
X192297056Y-59502944D03*
D17*
X190600000Y-61200000D03*
D16*
X188902944Y-59502944D03*
X193000000Y-61200000D03*
X190600000Y-63600000D03*
X192297056Y-62897056D03*
X190600000Y-58800000D03*
X188200000Y-61200000D03*
D18*
X198600000Y-33200000D03*
D19*
X196060000Y-33200000D03*
X198600000Y-30660000D03*
X196060000Y-30660000D03*
X198600000Y-28120000D03*
X196060000Y-28120000D03*
D16*
X219200000Y-61175001D03*
X224000000Y-61175001D03*
X219902944Y-59477945D03*
X219902944Y-62872057D03*
D17*
X221600000Y-61175001D03*
D16*
X223297056Y-62872057D03*
X223297056Y-59477945D03*
X221600000Y-58775001D03*
X221600000Y-63575001D03*
D20*
X223850000Y-55315000D03*
X223850000Y-52775000D03*
X223850000Y-50235000D03*
D21*
X217400000Y-63100000D03*
X206400000Y-63100000D03*
D22*
X209400000Y-53100000D03*
D23*
X214400000Y-53100000D03*
D24*
X190993000Y-35819000D03*
D25*
X193533000Y-35819000D03*
X196073000Y-35819000D03*
X198613000Y-35819000D03*
X201153000Y-35819000D03*
X203693000Y-35819000D03*
D26*
X196612000Y-59941000D03*
X202392000Y-59941000D03*
D27*
X203822000Y-59411000D03*
D28*
X195182000Y-63591000D03*
X203822000Y-63591000D03*
D27*
X195182000Y-59411000D03*
D29*
X180198000Y-35819000D03*
D25*
X177658000Y-35819000D03*
X175118000Y-35819000D03*
X172578000Y-35819000D03*
X170038000Y-35819000D03*
X167498000Y-35819000D03*
D30*
X173300000Y-59787500D03*
D31*
X170800000Y-59787500D03*
X168300000Y-59787500D03*
D30*
X162050000Y-59787500D03*
D31*
X159550000Y-59787500D03*
X157050000Y-59787500D03*
D32*
X206050000Y-28602500D03*
D31*
X208550000Y-28602500D03*
X211050000Y-28602500D03*
X213550000Y-28602500D03*
D33*
X172600000Y-33200000D03*
D19*
X175140000Y-33200000D03*
X172600000Y-30660000D03*
X175140000Y-30660000D03*
X172600000Y-28120000D03*
X175140000Y-28120000D03*
D34*
X147600000Y-41900000D03*
D25*
X147600000Y-44440000D03*
X147600000Y-46980000D03*
X147600000Y-49520000D03*
D35*
X167250000Y-30250000D03*
X163050000Y-30250000D03*
D36*
X204195000Y-43000000D03*
X205465000Y-43000000D03*
X206735000Y-43000000D03*
X208005000Y-43000000D03*
X208005000Y-48400000D03*
X206735000Y-48400000D03*
X205465000Y-48400000D03*
X204195000Y-48400000D03*
D37*
X189342000Y-52710000D03*
X189342000Y-42042000D03*
X189342000Y-56266000D03*
X189342000Y-38486000D03*
X189342000Y-49154000D03*
X189342000Y-45598000D03*
M02*
