%TF.GenerationSoftware,KiCad,Pcbnew,(6.0.1-0)*%
%TF.CreationDate,2023-01-25T00:15:57+01:00*%
%TF.ProjectId,ethersweep,65746865-7273-4776-9565-702e6b696361,2.0.1*%
%TF.SameCoordinates,Original*%
%TF.FileFunction,Legend,Top*%
%TF.FilePolarity,Positive*%
%FSLAX46Y46*%
G04 Gerber Fmt 4.6, Leading zero omitted, Abs format (unit mm)*
G04 Created by KiCad (PCBNEW (6.0.1-0)) date 2023-01-25 00:15:57*
%MOMM*%
%LPD*%
G01*
G04 APERTURE LIST*
%TA.AperFunction,Profile*%
%ADD10C,0.150000*%
%TD*%
%ADD11C,0.100000*%
%ADD12C,0.200000*%
%ADD13C,0.125000*%
%ADD14C,0.150000*%
%ADD15C,0.120000*%
%ADD16C,0.127000*%
%ADD17C,0.300000*%
G04 APERTURE END LIST*
D10*
X187150000Y-39570000D02*
X187150000Y-43270000D01*
X184150000Y-43270000D02*
X184150000Y-39570000D01*
X184150000Y-53070000D02*
X184150000Y-48970000D01*
X187150000Y-48970000D02*
X187150000Y-53070000D01*
X187150000Y-39570000D02*
G75*
G03*
X184150000Y-39570000I-1500000J0D01*
G01*
X184150000Y-43270000D02*
G75*
G03*
X187150000Y-43270000I1500000J0D01*
G01*
X184150000Y-53070000D02*
G75*
G03*
X187150000Y-53070000I1500000J0D01*
G01*
X187150000Y-48970000D02*
G75*
G03*
X184150000Y-48970000I-1500000J0D01*
G01*
X184100000Y-31800000D02*
G75*
G03*
X187100000Y-31800000I1500000J0D01*
G01*
X187100000Y-59370000D02*
G75*
G03*
X184100000Y-59370000I-1500000J0D01*
G01*
D11*
X205250000Y-32370000D02*
X214250000Y-32370000D01*
X214250000Y-32370000D02*
X214250000Y-40970000D01*
X214250000Y-40970000D02*
X205250000Y-40970000D01*
X205250000Y-40970000D02*
X205250000Y-32370000D01*
D10*
X184100000Y-31800000D02*
X184100000Y-30200000D01*
X184100000Y-60700000D02*
X184100000Y-59400000D01*
X180600000Y-26700000D02*
X149600000Y-26700000D01*
X149600000Y-26700000D02*
G75*
G03*
X146100000Y-30200000I-1J-3499999D01*
G01*
X184100000Y-30200000D02*
G75*
G03*
X180600000Y-26700000I-3499999J1D01*
G01*
X180600000Y-64700000D02*
G75*
G03*
X184100000Y-61200000I1J3499999D01*
G01*
X146100000Y-30200000D02*
X146100000Y-61200000D01*
X149600000Y-64700000D02*
X180600000Y-64700000D01*
X146100000Y-61200000D02*
G75*
G03*
X149600000Y-64700000I3499999J-1D01*
G01*
X184100000Y-61200000D02*
X184100000Y-60700000D01*
X225100000Y-61200000D02*
X225100000Y-30200000D01*
X190600000Y-64700000D02*
X221600000Y-64700000D01*
X187100000Y-61200000D02*
G75*
G03*
X190600000Y-64700000I3499999J-1D01*
G01*
X221600000Y-64700000D02*
G75*
G03*
X225100000Y-61200000I1J3499999D01*
G01*
X190600000Y-26700000D02*
G75*
G03*
X187100000Y-30200000I-1J-3499999D01*
G01*
X190600000Y-26700000D02*
X221600000Y-26700000D01*
X187100000Y-30200000D02*
X187100000Y-30700000D01*
X187100000Y-61200000D02*
X187100000Y-59400000D01*
X187100000Y-31800000D02*
X187100000Y-30700000D01*
X225100000Y-30200000D02*
G75*
G03*
X221600000Y-26700000I-3499999J1D01*
G01*
D12*
X165021238Y-27710095D02*
X165021238Y-28510095D01*
X164830761Y-28510095D01*
X164716476Y-28472000D01*
X164640285Y-28395809D01*
X164602190Y-28319619D01*
X164564095Y-28167238D01*
X164564095Y-28052952D01*
X164602190Y-27900571D01*
X164640285Y-27824380D01*
X164716476Y-27748190D01*
X164830761Y-27710095D01*
X165021238Y-27710095D01*
X164221238Y-28510095D02*
X164221238Y-27862476D01*
X164183142Y-27786285D01*
X164145047Y-27748190D01*
X164068857Y-27710095D01*
X163916476Y-27710095D01*
X163840285Y-27748190D01*
X163802190Y-27786285D01*
X163764095Y-27862476D01*
X163764095Y-28510095D01*
X163383142Y-27710095D02*
X163383142Y-28510095D01*
X163078380Y-28510095D01*
X163002190Y-28472000D01*
X162964095Y-28433904D01*
X162926000Y-28357714D01*
X162926000Y-28243428D01*
X162964095Y-28167238D01*
X163002190Y-28129142D01*
X163078380Y-28091047D01*
X163383142Y-28091047D01*
X162202190Y-27710095D02*
X162583142Y-27710095D01*
X162583142Y-28510095D01*
X161935523Y-28129142D02*
X161668857Y-28129142D01*
X161554571Y-27710095D02*
X161935523Y-27710095D01*
X161935523Y-28510095D01*
X161554571Y-28510095D01*
X161287904Y-28510095D02*
X160754571Y-27710095D01*
X160754571Y-28510095D02*
X161287904Y-27710095D01*
X165002380Y-29476190D02*
X164888095Y-29438095D01*
X164697619Y-29438095D01*
X164621428Y-29476190D01*
X164583333Y-29514285D01*
X164545238Y-29590476D01*
X164545238Y-29666666D01*
X164583333Y-29742857D01*
X164621428Y-29780952D01*
X164697619Y-29819047D01*
X164850000Y-29857142D01*
X164926190Y-29895238D01*
X164964285Y-29933333D01*
X165002380Y-30009523D01*
X165002380Y-30085714D01*
X164964285Y-30161904D01*
X164926190Y-30200000D01*
X164850000Y-30238095D01*
X164659523Y-30238095D01*
X164545238Y-30200000D01*
X164202380Y-29438095D02*
X164202380Y-30238095D01*
X163897619Y-30238095D01*
X163821428Y-30200000D01*
X163783333Y-30161904D01*
X163745238Y-30085714D01*
X163745238Y-29971428D01*
X163783333Y-29895238D01*
X163821428Y-29857142D01*
X163897619Y-29819047D01*
X164202380Y-29819047D01*
X163402380Y-29857142D02*
X163135714Y-29857142D01*
X163021428Y-29438095D02*
X163402380Y-29438095D01*
X163402380Y-30238095D01*
X163021428Y-30238095D01*
X162678571Y-29857142D02*
X162411904Y-29857142D01*
X162297619Y-29438095D02*
X162678571Y-29438095D01*
X162678571Y-30238095D01*
X162297619Y-30238095D01*
X161954761Y-29438095D02*
X161954761Y-30238095D01*
X161764285Y-30238095D01*
X161650000Y-30200000D01*
X161573809Y-30123809D01*
X161535714Y-30047619D01*
X161497619Y-29895238D01*
X161497619Y-29780952D01*
X161535714Y-29628571D01*
X161573809Y-29552380D01*
X161650000Y-29476190D01*
X161764285Y-29438095D01*
X161954761Y-29438095D01*
D13*
X222240590Y-50958895D02*
X222240590Y-50649371D01*
X222431066Y-50816038D01*
X222431066Y-50744609D01*
X222454876Y-50696990D01*
X222478685Y-50673180D01*
X222526304Y-50649371D01*
X222645352Y-50649371D01*
X222692971Y-50673180D01*
X222716780Y-50696990D01*
X222740590Y-50744609D01*
X222740590Y-50887466D01*
X222716780Y-50935085D01*
X222692971Y-50958895D01*
X222692971Y-50435085D02*
X222716780Y-50411276D01*
X222740590Y-50435085D01*
X222716780Y-50458895D01*
X222692971Y-50435085D01*
X222740590Y-50435085D01*
X222240590Y-50244609D02*
X222240590Y-49935085D01*
X222431066Y-50101752D01*
X222431066Y-50030323D01*
X222454876Y-49982704D01*
X222478685Y-49958895D01*
X222526304Y-49935085D01*
X222645352Y-49935085D01*
X222692971Y-49958895D01*
X222716780Y-49982704D01*
X222740590Y-50030323D01*
X222740590Y-50173180D01*
X222716780Y-50220800D01*
X222692971Y-50244609D01*
X222240590Y-49792228D02*
X222740590Y-49625561D01*
X222240590Y-49458895D01*
X162228571Y-42796190D02*
X162061904Y-42558095D01*
X161942857Y-42796190D02*
X161942857Y-42296190D01*
X162133333Y-42296190D01*
X162180952Y-42320000D01*
X162204761Y-42343809D01*
X162228571Y-42391428D01*
X162228571Y-42462857D01*
X162204761Y-42510476D01*
X162180952Y-42534285D01*
X162133333Y-42558095D01*
X161942857Y-42558095D01*
X162419047Y-42343809D02*
X162442857Y-42320000D01*
X162490476Y-42296190D01*
X162609523Y-42296190D01*
X162657142Y-42320000D01*
X162680952Y-42343809D01*
X162704761Y-42391428D01*
X162704761Y-42439047D01*
X162680952Y-42510476D01*
X162395238Y-42796190D01*
X162704761Y-42796190D01*
X162895238Y-42343809D02*
X162919047Y-42320000D01*
X162966666Y-42296190D01*
X163085714Y-42296190D01*
X163133333Y-42320000D01*
X163157142Y-42343809D01*
X163180952Y-42391428D01*
X163180952Y-42439047D01*
X163157142Y-42510476D01*
X162871428Y-42796190D01*
X163180952Y-42796190D01*
X159928571Y-31648571D02*
X159904761Y-31672380D01*
X159833333Y-31696190D01*
X159785714Y-31696190D01*
X159714285Y-31672380D01*
X159666666Y-31624761D01*
X159642857Y-31577142D01*
X159619047Y-31481904D01*
X159619047Y-31410476D01*
X159642857Y-31315238D01*
X159666666Y-31267619D01*
X159714285Y-31220000D01*
X159785714Y-31196190D01*
X159833333Y-31196190D01*
X159904761Y-31220000D01*
X159928571Y-31243809D01*
X160119047Y-31243809D02*
X160142857Y-31220000D01*
X160190476Y-31196190D01*
X160309523Y-31196190D01*
X160357142Y-31220000D01*
X160380952Y-31243809D01*
X160404761Y-31291428D01*
X160404761Y-31339047D01*
X160380952Y-31410476D01*
X160095238Y-31696190D01*
X160404761Y-31696190D01*
X160833333Y-31196190D02*
X160738095Y-31196190D01*
X160690476Y-31220000D01*
X160666666Y-31243809D01*
X160619047Y-31315238D01*
X160595238Y-31410476D01*
X160595238Y-31600952D01*
X160619047Y-31648571D01*
X160642857Y-31672380D01*
X160690476Y-31696190D01*
X160785714Y-31696190D01*
X160833333Y-31672380D01*
X160857142Y-31648571D01*
X160880952Y-31600952D01*
X160880952Y-31481904D01*
X160857142Y-31434285D01*
X160833333Y-31410476D01*
X160785714Y-31386666D01*
X160690476Y-31386666D01*
X160642857Y-31410476D01*
X160619047Y-31434285D01*
X160595238Y-31481904D01*
X148009066Y-54256990D02*
X147770971Y-54256990D01*
X147770971Y-53756990D01*
X148437638Y-54256990D02*
X148151923Y-54256990D01*
X148294780Y-54256990D02*
X148294780Y-53756990D01*
X148247161Y-53828419D01*
X148199542Y-53876038D01*
X148151923Y-53899847D01*
X164350038Y-36992990D02*
X164350038Y-37350133D01*
X164326228Y-37421561D01*
X164278609Y-37469180D01*
X164207180Y-37492990D01*
X164159561Y-37492990D01*
X164850038Y-37492990D02*
X164564323Y-37492990D01*
X164707180Y-37492990D02*
X164707180Y-36992990D01*
X164659561Y-37064419D01*
X164611942Y-37112038D01*
X164564323Y-37135847D01*
X165159561Y-36992990D02*
X165207180Y-36992990D01*
X165254800Y-37016800D01*
X165278609Y-37040609D01*
X165302419Y-37088228D01*
X165326228Y-37183466D01*
X165326228Y-37302514D01*
X165302419Y-37397752D01*
X165278609Y-37445371D01*
X165254800Y-37469180D01*
X165207180Y-37492990D01*
X165159561Y-37492990D01*
X165111942Y-37469180D01*
X165088133Y-37445371D01*
X165064323Y-37397752D01*
X165040514Y-37302514D01*
X165040514Y-37183466D01*
X165064323Y-37088228D01*
X165088133Y-37040609D01*
X165111942Y-37016800D01*
X165159561Y-36992990D01*
X178758971Y-56593790D02*
X178592304Y-56355695D01*
X178473257Y-56593790D02*
X178473257Y-56093790D01*
X178663733Y-56093790D01*
X178711352Y-56117600D01*
X178735161Y-56141409D01*
X178758971Y-56189028D01*
X178758971Y-56260457D01*
X178735161Y-56308076D01*
X178711352Y-56331885D01*
X178663733Y-56355695D01*
X178473257Y-56355695D01*
X179235161Y-56593790D02*
X178949447Y-56593790D01*
X179092304Y-56593790D02*
X179092304Y-56093790D01*
X179044685Y-56165219D01*
X178997066Y-56212838D01*
X178949447Y-56236647D01*
X179473257Y-56593790D02*
X179568495Y-56593790D01*
X179616114Y-56569980D01*
X179639923Y-56546171D01*
X179687542Y-56474742D01*
X179711352Y-56379504D01*
X179711352Y-56189028D01*
X179687542Y-56141409D01*
X179663733Y-56117600D01*
X179616114Y-56093790D01*
X179520876Y-56093790D01*
X179473257Y-56117600D01*
X179449447Y-56141409D01*
X179425638Y-56189028D01*
X179425638Y-56308076D01*
X179449447Y-56355695D01*
X179473257Y-56379504D01*
X179520876Y-56403314D01*
X179616114Y-56403314D01*
X179663733Y-56379504D01*
X179687542Y-56355695D01*
X179711352Y-56308076D01*
X157760304Y-31514495D02*
X157760304Y-31752590D01*
X157593638Y-31252590D02*
X157760304Y-31514495D01*
X157926971Y-31252590D01*
X158069828Y-31300209D02*
X158093638Y-31276400D01*
X158141257Y-31252590D01*
X158260304Y-31252590D01*
X158307923Y-31276400D01*
X158331733Y-31300209D01*
X158355542Y-31347828D01*
X158355542Y-31395447D01*
X158331733Y-31466876D01*
X158046019Y-31752590D01*
X158355542Y-31752590D01*
X162528571Y-37648571D02*
X162504761Y-37672380D01*
X162433333Y-37696190D01*
X162385714Y-37696190D01*
X162314285Y-37672380D01*
X162266666Y-37624761D01*
X162242857Y-37577142D01*
X162219047Y-37481904D01*
X162219047Y-37410476D01*
X162242857Y-37315238D01*
X162266666Y-37267619D01*
X162314285Y-37220000D01*
X162385714Y-37196190D01*
X162433333Y-37196190D01*
X162504761Y-37220000D01*
X162528571Y-37243809D01*
X162695238Y-37196190D02*
X163004761Y-37196190D01*
X162838095Y-37386666D01*
X162909523Y-37386666D01*
X162957142Y-37410476D01*
X162980952Y-37434285D01*
X163004761Y-37481904D01*
X163004761Y-37600952D01*
X162980952Y-37648571D01*
X162957142Y-37672380D01*
X162909523Y-37696190D01*
X162766666Y-37696190D01*
X162719047Y-37672380D01*
X162695238Y-37648571D01*
X163433333Y-37196190D02*
X163338095Y-37196190D01*
X163290476Y-37220000D01*
X163266666Y-37243809D01*
X163219047Y-37315238D01*
X163195238Y-37410476D01*
X163195238Y-37600952D01*
X163219047Y-37648571D01*
X163242857Y-37672380D01*
X163290476Y-37696190D01*
X163385714Y-37696190D01*
X163433333Y-37672380D01*
X163457142Y-37648571D01*
X163480952Y-37600952D01*
X163480952Y-37481904D01*
X163457142Y-37434285D01*
X163433333Y-37410476D01*
X163385714Y-37386666D01*
X163290476Y-37386666D01*
X163242857Y-37410476D01*
X163219047Y-37434285D01*
X163195238Y-37481904D01*
X149919047Y-34776190D02*
X149919047Y-35180952D01*
X149942857Y-35228571D01*
X149966666Y-35252380D01*
X150014285Y-35276190D01*
X150109523Y-35276190D01*
X150157142Y-35252380D01*
X150180952Y-35228571D01*
X150204761Y-35180952D01*
X150204761Y-34776190D01*
X150657142Y-34776190D02*
X150561904Y-34776190D01*
X150514285Y-34800000D01*
X150490476Y-34823809D01*
X150442857Y-34895238D01*
X150419047Y-34990476D01*
X150419047Y-35180952D01*
X150442857Y-35228571D01*
X150466666Y-35252380D01*
X150514285Y-35276190D01*
X150609523Y-35276190D01*
X150657142Y-35252380D01*
X150680952Y-35228571D01*
X150704761Y-35180952D01*
X150704761Y-35061904D01*
X150680952Y-35014285D01*
X150657142Y-34990476D01*
X150609523Y-34966666D01*
X150514285Y-34966666D01*
X150466666Y-34990476D01*
X150442857Y-35014285D01*
X150419047Y-35061904D01*
X162528571Y-36648571D02*
X162504761Y-36672380D01*
X162433333Y-36696190D01*
X162385714Y-36696190D01*
X162314285Y-36672380D01*
X162266666Y-36624761D01*
X162242857Y-36577142D01*
X162219047Y-36481904D01*
X162219047Y-36410476D01*
X162242857Y-36315238D01*
X162266666Y-36267619D01*
X162314285Y-36220000D01*
X162385714Y-36196190D01*
X162433333Y-36196190D01*
X162504761Y-36220000D01*
X162528571Y-36243809D01*
X162695238Y-36196190D02*
X163004761Y-36196190D01*
X162838095Y-36386666D01*
X162909523Y-36386666D01*
X162957142Y-36410476D01*
X162980952Y-36434285D01*
X163004761Y-36481904D01*
X163004761Y-36600952D01*
X162980952Y-36648571D01*
X162957142Y-36672380D01*
X162909523Y-36696190D01*
X162766666Y-36696190D01*
X162719047Y-36672380D01*
X162695238Y-36648571D01*
X163457142Y-36196190D02*
X163219047Y-36196190D01*
X163195238Y-36434285D01*
X163219047Y-36410476D01*
X163266666Y-36386666D01*
X163385714Y-36386666D01*
X163433333Y-36410476D01*
X163457142Y-36434285D01*
X163480952Y-36481904D01*
X163480952Y-36600952D01*
X163457142Y-36648571D01*
X163433333Y-36672380D01*
X163385714Y-36696190D01*
X163266666Y-36696190D01*
X163219047Y-36672380D01*
X163195238Y-36648571D01*
X178809771Y-55069790D02*
X178643104Y-54831695D01*
X178524057Y-55069790D02*
X178524057Y-54569790D01*
X178714533Y-54569790D01*
X178762152Y-54593600D01*
X178785961Y-54617409D01*
X178809771Y-54665028D01*
X178809771Y-54736457D01*
X178785961Y-54784076D01*
X178762152Y-54807885D01*
X178714533Y-54831695D01*
X178524057Y-54831695D01*
X179000247Y-54617409D02*
X179024057Y-54593600D01*
X179071676Y-54569790D01*
X179190723Y-54569790D01*
X179238342Y-54593600D01*
X179262152Y-54617409D01*
X179285961Y-54665028D01*
X179285961Y-54712647D01*
X179262152Y-54784076D01*
X178976438Y-55069790D01*
X179285961Y-55069790D01*
X179595485Y-54569790D02*
X179643104Y-54569790D01*
X179690723Y-54593600D01*
X179714533Y-54617409D01*
X179738342Y-54665028D01*
X179762152Y-54760266D01*
X179762152Y-54879314D01*
X179738342Y-54974552D01*
X179714533Y-55022171D01*
X179690723Y-55045980D01*
X179643104Y-55069790D01*
X179595485Y-55069790D01*
X179547866Y-55045980D01*
X179524057Y-55022171D01*
X179500247Y-54974552D01*
X179476438Y-54879314D01*
X179476438Y-54760266D01*
X179500247Y-54665028D01*
X179524057Y-54617409D01*
X179547866Y-54593600D01*
X179595485Y-54569790D01*
X153378571Y-28648571D02*
X153354761Y-28672380D01*
X153283333Y-28696190D01*
X153235714Y-28696190D01*
X153164285Y-28672380D01*
X153116666Y-28624761D01*
X153092857Y-28577142D01*
X153069047Y-28481904D01*
X153069047Y-28410476D01*
X153092857Y-28315238D01*
X153116666Y-28267619D01*
X153164285Y-28220000D01*
X153235714Y-28196190D01*
X153283333Y-28196190D01*
X153354761Y-28220000D01*
X153378571Y-28243809D01*
X153545238Y-28196190D02*
X153854761Y-28196190D01*
X153688095Y-28386666D01*
X153759523Y-28386666D01*
X153807142Y-28410476D01*
X153830952Y-28434285D01*
X153854761Y-28481904D01*
X153854761Y-28600952D01*
X153830952Y-28648571D01*
X153807142Y-28672380D01*
X153759523Y-28696190D01*
X153616666Y-28696190D01*
X153569047Y-28672380D01*
X153545238Y-28648571D01*
X154283333Y-28362857D02*
X154283333Y-28696190D01*
X154164285Y-28172380D02*
X154045238Y-28529523D01*
X154354761Y-28529523D01*
X158928571Y-28648571D02*
X158904761Y-28672380D01*
X158833333Y-28696190D01*
X158785714Y-28696190D01*
X158714285Y-28672380D01*
X158666666Y-28624761D01*
X158642857Y-28577142D01*
X158619047Y-28481904D01*
X158619047Y-28410476D01*
X158642857Y-28315238D01*
X158666666Y-28267619D01*
X158714285Y-28220000D01*
X158785714Y-28196190D01*
X158833333Y-28196190D01*
X158904761Y-28220000D01*
X158928571Y-28243809D01*
X159095238Y-28196190D02*
X159404761Y-28196190D01*
X159238095Y-28386666D01*
X159309523Y-28386666D01*
X159357142Y-28410476D01*
X159380952Y-28434285D01*
X159404761Y-28481904D01*
X159404761Y-28600952D01*
X159380952Y-28648571D01*
X159357142Y-28672380D01*
X159309523Y-28696190D01*
X159166666Y-28696190D01*
X159119047Y-28672380D01*
X159095238Y-28648571D01*
X159571428Y-28196190D02*
X159880952Y-28196190D01*
X159714285Y-28386666D01*
X159785714Y-28386666D01*
X159833333Y-28410476D01*
X159857142Y-28434285D01*
X159880952Y-28481904D01*
X159880952Y-28600952D01*
X159857142Y-28648571D01*
X159833333Y-28672380D01*
X159785714Y-28696190D01*
X159642857Y-28696190D01*
X159595238Y-28672380D01*
X159571428Y-28648571D01*
X146928571Y-36248571D02*
X146904761Y-36272380D01*
X146833333Y-36296190D01*
X146785714Y-36296190D01*
X146714285Y-36272380D01*
X146666666Y-36224761D01*
X146642857Y-36177142D01*
X146619047Y-36081904D01*
X146619047Y-36010476D01*
X146642857Y-35915238D01*
X146666666Y-35867619D01*
X146714285Y-35820000D01*
X146785714Y-35796190D01*
X146833333Y-35796190D01*
X146904761Y-35820000D01*
X146928571Y-35843809D01*
X147095238Y-35796190D02*
X147404761Y-35796190D01*
X147238095Y-35986666D01*
X147309523Y-35986666D01*
X147357142Y-36010476D01*
X147380952Y-36034285D01*
X147404761Y-36081904D01*
X147404761Y-36200952D01*
X147380952Y-36248571D01*
X147357142Y-36272380D01*
X147309523Y-36296190D01*
X147166666Y-36296190D01*
X147119047Y-36272380D01*
X147095238Y-36248571D01*
X147714285Y-35796190D02*
X147761904Y-35796190D01*
X147809523Y-35820000D01*
X147833333Y-35843809D01*
X147857142Y-35891428D01*
X147880952Y-35986666D01*
X147880952Y-36105714D01*
X147857142Y-36200952D01*
X147833333Y-36248571D01*
X147809523Y-36272380D01*
X147761904Y-36296190D01*
X147714285Y-36296190D01*
X147666666Y-36272380D01*
X147642857Y-36248571D01*
X147619047Y-36200952D01*
X147595238Y-36105714D01*
X147595238Y-35986666D01*
X147619047Y-35891428D01*
X147642857Y-35843809D01*
X147666666Y-35820000D01*
X147714285Y-35796190D01*
X155828571Y-51676190D02*
X155661904Y-51438095D01*
X155542857Y-51676190D02*
X155542857Y-51176190D01*
X155733333Y-51176190D01*
X155780952Y-51200000D01*
X155804761Y-51223809D01*
X155828571Y-51271428D01*
X155828571Y-51342857D01*
X155804761Y-51390476D01*
X155780952Y-51414285D01*
X155733333Y-51438095D01*
X155542857Y-51438095D01*
X156019047Y-51223809D02*
X156042857Y-51200000D01*
X156090476Y-51176190D01*
X156209523Y-51176190D01*
X156257142Y-51200000D01*
X156280952Y-51223809D01*
X156304761Y-51271428D01*
X156304761Y-51319047D01*
X156280952Y-51390476D01*
X155995238Y-51676190D01*
X156304761Y-51676190D01*
X156471428Y-51176190D02*
X156780952Y-51176190D01*
X156614285Y-51366666D01*
X156685714Y-51366666D01*
X156733333Y-51390476D01*
X156757142Y-51414285D01*
X156780952Y-51461904D01*
X156780952Y-51580952D01*
X156757142Y-51628571D01*
X156733333Y-51652380D01*
X156685714Y-51676190D01*
X156542857Y-51676190D01*
X156495238Y-51652380D01*
X156471428Y-51628571D01*
X156166666Y-44696190D02*
X156000000Y-44458095D01*
X155880952Y-44696190D02*
X155880952Y-44196190D01*
X156071428Y-44196190D01*
X156119047Y-44220000D01*
X156142857Y-44243809D01*
X156166666Y-44291428D01*
X156166666Y-44362857D01*
X156142857Y-44410476D01*
X156119047Y-44434285D01*
X156071428Y-44458095D01*
X155880952Y-44458095D01*
X156333333Y-44196190D02*
X156666666Y-44196190D01*
X156452380Y-44696190D01*
X154166666Y-44696190D02*
X154000000Y-44458095D01*
X153880952Y-44696190D02*
X153880952Y-44196190D01*
X154071428Y-44196190D01*
X154119047Y-44220000D01*
X154142857Y-44243809D01*
X154166666Y-44291428D01*
X154166666Y-44362857D01*
X154142857Y-44410476D01*
X154119047Y-44434285D01*
X154071428Y-44458095D01*
X153880952Y-44458095D01*
X154595238Y-44196190D02*
X154500000Y-44196190D01*
X154452380Y-44220000D01*
X154428571Y-44243809D01*
X154380952Y-44315238D01*
X154357142Y-44410476D01*
X154357142Y-44600952D01*
X154380952Y-44648571D01*
X154404761Y-44672380D01*
X154452380Y-44696190D01*
X154547619Y-44696190D01*
X154595238Y-44672380D01*
X154619047Y-44648571D01*
X154642857Y-44600952D01*
X154642857Y-44481904D01*
X154619047Y-44434285D01*
X154595238Y-44410476D01*
X154547619Y-44386666D01*
X154452380Y-44386666D01*
X154404761Y-44410476D01*
X154380952Y-44434285D01*
X154357142Y-44481904D01*
X152366666Y-44696190D02*
X152200000Y-44458095D01*
X152080952Y-44696190D02*
X152080952Y-44196190D01*
X152271428Y-44196190D01*
X152319047Y-44220000D01*
X152342857Y-44243809D01*
X152366666Y-44291428D01*
X152366666Y-44362857D01*
X152342857Y-44410476D01*
X152319047Y-44434285D01*
X152271428Y-44458095D01*
X152080952Y-44458095D01*
X152819047Y-44196190D02*
X152580952Y-44196190D01*
X152557142Y-44434285D01*
X152580952Y-44410476D01*
X152628571Y-44386666D01*
X152747619Y-44386666D01*
X152795238Y-44410476D01*
X152819047Y-44434285D01*
X152842857Y-44481904D01*
X152842857Y-44600952D01*
X152819047Y-44648571D01*
X152795238Y-44672380D01*
X152747619Y-44696190D01*
X152628571Y-44696190D01*
X152580952Y-44672380D01*
X152557142Y-44648571D01*
X150366666Y-44696190D02*
X150200000Y-44458095D01*
X150080952Y-44696190D02*
X150080952Y-44196190D01*
X150271428Y-44196190D01*
X150319047Y-44220000D01*
X150342857Y-44243809D01*
X150366666Y-44291428D01*
X150366666Y-44362857D01*
X150342857Y-44410476D01*
X150319047Y-44434285D01*
X150271428Y-44458095D01*
X150080952Y-44458095D01*
X150795238Y-44362857D02*
X150795238Y-44696190D01*
X150676190Y-44172380D02*
X150557142Y-44529523D01*
X150866666Y-44529523D01*
X157916666Y-51628571D02*
X157892857Y-51652380D01*
X157821428Y-51676190D01*
X157773809Y-51676190D01*
X157702380Y-51652380D01*
X157654761Y-51604761D01*
X157630952Y-51557142D01*
X157607142Y-51461904D01*
X157607142Y-51390476D01*
X157630952Y-51295238D01*
X157654761Y-51247619D01*
X157702380Y-51200000D01*
X157773809Y-51176190D01*
X157821428Y-51176190D01*
X157892857Y-51200000D01*
X157916666Y-51223809D01*
X158369047Y-51176190D02*
X158130952Y-51176190D01*
X158107142Y-51414285D01*
X158130952Y-51390476D01*
X158178571Y-51366666D01*
X158297619Y-51366666D01*
X158345238Y-51390476D01*
X158369047Y-51414285D01*
X158392857Y-51461904D01*
X158392857Y-51580952D01*
X158369047Y-51628571D01*
X158345238Y-51652380D01*
X158297619Y-51676190D01*
X158178571Y-51676190D01*
X158130952Y-51652380D01*
X158107142Y-51628571D01*
X163147466Y-44811371D02*
X163123657Y-44835180D01*
X163052228Y-44858990D01*
X163004609Y-44858990D01*
X162933180Y-44835180D01*
X162885561Y-44787561D01*
X162861752Y-44739942D01*
X162837942Y-44644704D01*
X162837942Y-44573276D01*
X162861752Y-44478038D01*
X162885561Y-44430419D01*
X162933180Y-44382800D01*
X163004609Y-44358990D01*
X163052228Y-44358990D01*
X163123657Y-44382800D01*
X163147466Y-44406609D01*
X163314133Y-44358990D02*
X163647466Y-44358990D01*
X163433180Y-44858990D01*
X163061771Y-46386171D02*
X163037961Y-46409980D01*
X162966533Y-46433790D01*
X162918914Y-46433790D01*
X162847485Y-46409980D01*
X162799866Y-46362361D01*
X162776057Y-46314742D01*
X162752247Y-46219504D01*
X162752247Y-46148076D01*
X162776057Y-46052838D01*
X162799866Y-46005219D01*
X162847485Y-45957600D01*
X162918914Y-45933790D01*
X162966533Y-45933790D01*
X163037961Y-45957600D01*
X163061771Y-45981409D01*
X163537961Y-46433790D02*
X163252247Y-46433790D01*
X163395104Y-46433790D02*
X163395104Y-45933790D01*
X163347485Y-46005219D01*
X163299866Y-46052838D01*
X163252247Y-46076647D01*
X163704628Y-45933790D02*
X164014152Y-45933790D01*
X163847485Y-46124266D01*
X163918914Y-46124266D01*
X163966533Y-46148076D01*
X163990342Y-46171885D01*
X164014152Y-46219504D01*
X164014152Y-46338552D01*
X163990342Y-46386171D01*
X163966533Y-46409980D01*
X163918914Y-46433790D01*
X163776057Y-46433790D01*
X163728438Y-46409980D01*
X163704628Y-46386171D01*
X168430666Y-56342971D02*
X168406857Y-56366780D01*
X168335428Y-56390590D01*
X168287809Y-56390590D01*
X168216380Y-56366780D01*
X168168761Y-56319161D01*
X168144952Y-56271542D01*
X168121142Y-56176304D01*
X168121142Y-56104876D01*
X168144952Y-56009638D01*
X168168761Y-55962019D01*
X168216380Y-55914400D01*
X168287809Y-55890590D01*
X168335428Y-55890590D01*
X168406857Y-55914400D01*
X168430666Y-55938209D01*
X168597333Y-55890590D02*
X168906857Y-55890590D01*
X168740190Y-56081066D01*
X168811619Y-56081066D01*
X168859238Y-56104876D01*
X168883047Y-56128685D01*
X168906857Y-56176304D01*
X168906857Y-56295352D01*
X168883047Y-56342971D01*
X168859238Y-56366780D01*
X168811619Y-56390590D01*
X168668761Y-56390590D01*
X168621142Y-56366780D01*
X168597333Y-56342971D01*
X159966666Y-50848571D02*
X159942857Y-50872380D01*
X159871428Y-50896190D01*
X159823809Y-50896190D01*
X159752380Y-50872380D01*
X159704761Y-50824761D01*
X159680952Y-50777142D01*
X159657142Y-50681904D01*
X159657142Y-50610476D01*
X159680952Y-50515238D01*
X159704761Y-50467619D01*
X159752380Y-50420000D01*
X159823809Y-50396190D01*
X159871428Y-50396190D01*
X159942857Y-50420000D01*
X159966666Y-50443809D01*
X160395238Y-50562857D02*
X160395238Y-50896190D01*
X160276190Y-50372380D02*
X160157142Y-50729523D01*
X160466666Y-50729523D01*
X161766666Y-50896190D02*
X161600000Y-50658095D01*
X161480952Y-50896190D02*
X161480952Y-50396190D01*
X161671428Y-50396190D01*
X161719047Y-50420000D01*
X161742857Y-50443809D01*
X161766666Y-50491428D01*
X161766666Y-50562857D01*
X161742857Y-50610476D01*
X161719047Y-50634285D01*
X161671428Y-50658095D01*
X161480952Y-50658095D01*
X162052380Y-50610476D02*
X162004761Y-50586666D01*
X161980952Y-50562857D01*
X161957142Y-50515238D01*
X161957142Y-50491428D01*
X161980952Y-50443809D01*
X162004761Y-50420000D01*
X162052380Y-50396190D01*
X162147619Y-50396190D01*
X162195238Y-50420000D01*
X162219047Y-50443809D01*
X162242857Y-50491428D01*
X162242857Y-50515238D01*
X162219047Y-50562857D01*
X162195238Y-50586666D01*
X162147619Y-50610476D01*
X162052380Y-50610476D01*
X162004761Y-50634285D01*
X161980952Y-50658095D01*
X161957142Y-50705714D01*
X161957142Y-50800952D01*
X161980952Y-50848571D01*
X162004761Y-50872380D01*
X162052380Y-50896190D01*
X162147619Y-50896190D01*
X162195238Y-50872380D01*
X162219047Y-50848571D01*
X162242857Y-50800952D01*
X162242857Y-50705714D01*
X162219047Y-50658095D01*
X162195238Y-50634285D01*
X162147619Y-50610476D01*
X153128571Y-32496190D02*
X152961904Y-32258095D01*
X152842857Y-32496190D02*
X152842857Y-31996190D01*
X153033333Y-31996190D01*
X153080952Y-32020000D01*
X153104761Y-32043809D01*
X153128571Y-32091428D01*
X153128571Y-32162857D01*
X153104761Y-32210476D01*
X153080952Y-32234285D01*
X153033333Y-32258095D01*
X152842857Y-32258095D01*
X153319047Y-32043809D02*
X153342857Y-32020000D01*
X153390476Y-31996190D01*
X153509523Y-31996190D01*
X153557142Y-32020000D01*
X153580952Y-32043809D01*
X153604761Y-32091428D01*
X153604761Y-32139047D01*
X153580952Y-32210476D01*
X153295238Y-32496190D01*
X153604761Y-32496190D01*
X154080952Y-32496190D02*
X153795238Y-32496190D01*
X153938095Y-32496190D02*
X153938095Y-31996190D01*
X153890476Y-32067619D01*
X153842857Y-32115238D01*
X153795238Y-32139047D01*
X150193466Y-51626190D02*
X150026800Y-51388095D01*
X149907752Y-51626190D02*
X149907752Y-51126190D01*
X150098228Y-51126190D01*
X150145847Y-51150000D01*
X150169657Y-51173809D01*
X150193466Y-51221428D01*
X150193466Y-51292857D01*
X150169657Y-51340476D01*
X150145847Y-51364285D01*
X150098228Y-51388095D01*
X149907752Y-51388095D01*
X150431561Y-51626190D02*
X150526800Y-51626190D01*
X150574419Y-51602380D01*
X150598228Y-51578571D01*
X150645847Y-51507142D01*
X150669657Y-51411904D01*
X150669657Y-51221428D01*
X150645847Y-51173809D01*
X150622038Y-51150000D01*
X150574419Y-51126190D01*
X150479180Y-51126190D01*
X150431561Y-51150000D01*
X150407752Y-51173809D01*
X150383942Y-51221428D01*
X150383942Y-51340476D01*
X150407752Y-51388095D01*
X150431561Y-51411904D01*
X150479180Y-51435714D01*
X150574419Y-51435714D01*
X150622038Y-51411904D01*
X150645847Y-51388095D01*
X150669657Y-51340476D01*
X152278571Y-51626190D02*
X152111904Y-51388095D01*
X151992857Y-51626190D02*
X151992857Y-51126190D01*
X152183333Y-51126190D01*
X152230952Y-51150000D01*
X152254761Y-51173809D01*
X152278571Y-51221428D01*
X152278571Y-51292857D01*
X152254761Y-51340476D01*
X152230952Y-51364285D01*
X152183333Y-51388095D01*
X151992857Y-51388095D01*
X152754761Y-51626190D02*
X152469047Y-51626190D01*
X152611904Y-51626190D02*
X152611904Y-51126190D01*
X152564285Y-51197619D01*
X152516666Y-51245238D01*
X152469047Y-51269047D01*
X153064285Y-51126190D02*
X153111904Y-51126190D01*
X153159523Y-51150000D01*
X153183333Y-51173809D01*
X153207142Y-51221428D01*
X153230952Y-51316666D01*
X153230952Y-51435714D01*
X153207142Y-51530952D01*
X153183333Y-51578571D01*
X153159523Y-51602380D01*
X153111904Y-51626190D01*
X153064285Y-51626190D01*
X153016666Y-51602380D01*
X152992857Y-51578571D01*
X152969047Y-51530952D01*
X152945238Y-51435714D01*
X152945238Y-51316666D01*
X152969047Y-51221428D01*
X152992857Y-51173809D01*
X153016666Y-51150000D01*
X153064285Y-51126190D01*
X153978571Y-51676190D02*
X153811904Y-51438095D01*
X153692857Y-51676190D02*
X153692857Y-51176190D01*
X153883333Y-51176190D01*
X153930952Y-51200000D01*
X153954761Y-51223809D01*
X153978571Y-51271428D01*
X153978571Y-51342857D01*
X153954761Y-51390476D01*
X153930952Y-51414285D01*
X153883333Y-51438095D01*
X153692857Y-51438095D01*
X154454761Y-51676190D02*
X154169047Y-51676190D01*
X154311904Y-51676190D02*
X154311904Y-51176190D01*
X154264285Y-51247619D01*
X154216666Y-51295238D01*
X154169047Y-51319047D01*
X154740476Y-51390476D02*
X154692857Y-51366666D01*
X154669047Y-51342857D01*
X154645238Y-51295238D01*
X154645238Y-51271428D01*
X154669047Y-51223809D01*
X154692857Y-51200000D01*
X154740476Y-51176190D01*
X154835714Y-51176190D01*
X154883333Y-51200000D01*
X154907142Y-51223809D01*
X154930952Y-51271428D01*
X154930952Y-51295238D01*
X154907142Y-51342857D01*
X154883333Y-51366666D01*
X154835714Y-51390476D01*
X154740476Y-51390476D01*
X154692857Y-51414285D01*
X154669047Y-51438095D01*
X154645238Y-51485714D01*
X154645238Y-51580952D01*
X154669047Y-51628571D01*
X154692857Y-51652380D01*
X154740476Y-51676190D01*
X154835714Y-51676190D01*
X154883333Y-51652380D01*
X154907142Y-51628571D01*
X154930952Y-51580952D01*
X154930952Y-51485714D01*
X154907142Y-51438095D01*
X154883333Y-51414285D01*
X154835714Y-51390476D01*
X163828571Y-34196190D02*
X163661904Y-33958095D01*
X163542857Y-34196190D02*
X163542857Y-33696190D01*
X163733333Y-33696190D01*
X163780952Y-33720000D01*
X163804761Y-33743809D01*
X163828571Y-33791428D01*
X163828571Y-33862857D01*
X163804761Y-33910476D01*
X163780952Y-33934285D01*
X163733333Y-33958095D01*
X163542857Y-33958095D01*
X164019047Y-33743809D02*
X164042857Y-33720000D01*
X164090476Y-33696190D01*
X164209523Y-33696190D01*
X164257142Y-33720000D01*
X164280952Y-33743809D01*
X164304761Y-33791428D01*
X164304761Y-33839047D01*
X164280952Y-33910476D01*
X163995238Y-34196190D01*
X164304761Y-34196190D01*
X164757142Y-33696190D02*
X164519047Y-33696190D01*
X164495238Y-33934285D01*
X164519047Y-33910476D01*
X164566666Y-33886666D01*
X164685714Y-33886666D01*
X164733333Y-33910476D01*
X164757142Y-33934285D01*
X164780952Y-33981904D01*
X164780952Y-34100952D01*
X164757142Y-34148571D01*
X164733333Y-34172380D01*
X164685714Y-34196190D01*
X164566666Y-34196190D01*
X164519047Y-34172380D01*
X164495238Y-34148571D01*
X162128571Y-34196190D02*
X161961904Y-33958095D01*
X161842857Y-34196190D02*
X161842857Y-33696190D01*
X162033333Y-33696190D01*
X162080952Y-33720000D01*
X162104761Y-33743809D01*
X162128571Y-33791428D01*
X162128571Y-33862857D01*
X162104761Y-33910476D01*
X162080952Y-33934285D01*
X162033333Y-33958095D01*
X161842857Y-33958095D01*
X162319047Y-33743809D02*
X162342857Y-33720000D01*
X162390476Y-33696190D01*
X162509523Y-33696190D01*
X162557142Y-33720000D01*
X162580952Y-33743809D01*
X162604761Y-33791428D01*
X162604761Y-33839047D01*
X162580952Y-33910476D01*
X162295238Y-34196190D01*
X162604761Y-34196190D01*
X163033333Y-33696190D02*
X162938095Y-33696190D01*
X162890476Y-33720000D01*
X162866666Y-33743809D01*
X162819047Y-33815238D01*
X162795238Y-33910476D01*
X162795238Y-34100952D01*
X162819047Y-34148571D01*
X162842857Y-34172380D01*
X162890476Y-34196190D01*
X162985714Y-34196190D01*
X163033333Y-34172380D01*
X163057142Y-34148571D01*
X163080952Y-34100952D01*
X163080952Y-33981904D01*
X163057142Y-33934285D01*
X163033333Y-33910476D01*
X162985714Y-33886666D01*
X162890476Y-33886666D01*
X162842857Y-33910476D01*
X162819047Y-33934285D01*
X162795238Y-33981904D01*
X168280952Y-29991191D02*
X168280952Y-29491191D01*
X168400000Y-29491191D01*
X168471428Y-29515001D01*
X168519047Y-29562620D01*
X168542857Y-29610239D01*
X168566666Y-29705477D01*
X168566666Y-29776905D01*
X168542857Y-29872143D01*
X168519047Y-29919762D01*
X168471428Y-29967381D01*
X168400000Y-29991191D01*
X168280952Y-29991191D01*
X168733333Y-29491191D02*
X169042857Y-29491191D01*
X168876190Y-29681667D01*
X168947619Y-29681667D01*
X168995238Y-29705477D01*
X169019047Y-29729286D01*
X169042857Y-29776905D01*
X169042857Y-29895953D01*
X169019047Y-29943572D01*
X168995238Y-29967381D01*
X168947619Y-29991191D01*
X168804761Y-29991191D01*
X168757142Y-29967381D01*
X168733333Y-29943572D01*
X223454247Y-56703390D02*
X223454247Y-57108152D01*
X223478057Y-57155771D01*
X223501866Y-57179580D01*
X223549485Y-57203390D01*
X223644723Y-57203390D01*
X223692342Y-57179580D01*
X223716152Y-57155771D01*
X223739961Y-57108152D01*
X223739961Y-56703390D01*
X224192342Y-56870057D02*
X224192342Y-57203390D01*
X224073295Y-56679580D02*
X223954247Y-57036723D01*
X224263771Y-57036723D01*
X222264400Y-53090952D02*
X222240590Y-53138571D01*
X222240590Y-53210000D01*
X222264400Y-53281428D01*
X222312019Y-53329047D01*
X222359638Y-53352857D01*
X222454876Y-53376666D01*
X222526304Y-53376666D01*
X222621542Y-53352857D01*
X222669161Y-53329047D01*
X222716780Y-53281428D01*
X222740590Y-53210000D01*
X222740590Y-53162380D01*
X222716780Y-53090952D01*
X222692971Y-53067142D01*
X222526304Y-53067142D01*
X222526304Y-53162380D01*
X222740590Y-52852857D02*
X222240590Y-52852857D01*
X222740590Y-52567142D01*
X222240590Y-52567142D01*
X222740590Y-52329047D02*
X222240590Y-52329047D01*
X222240590Y-52210000D01*
X222264400Y-52138571D01*
X222312019Y-52090952D01*
X222359638Y-52067142D01*
X222454876Y-52043333D01*
X222526304Y-52043333D01*
X222621542Y-52067142D01*
X222669161Y-52090952D01*
X222716780Y-52138571D01*
X222740590Y-52210000D01*
X222740590Y-52329047D01*
X222240590Y-55950019D02*
X222740590Y-55783352D01*
X222240590Y-55616685D01*
X222740590Y-55450019D02*
X222240590Y-55450019D01*
X222740590Y-55211923D02*
X222240590Y-55211923D01*
X222740590Y-54926209D01*
X222240590Y-54926209D01*
X205112990Y-60038647D02*
X204612990Y-60038647D01*
X204612990Y-59919600D01*
X204636800Y-59848171D01*
X204684419Y-59800552D01*
X204732038Y-59776742D01*
X204827276Y-59752933D01*
X204898704Y-59752933D01*
X204993942Y-59776742D01*
X205041561Y-59800552D01*
X205089180Y-59848171D01*
X205112990Y-59919600D01*
X205112990Y-60038647D01*
X205112990Y-59276742D02*
X205112990Y-59562457D01*
X205112990Y-59419600D02*
X204612990Y-59419600D01*
X204684419Y-59467219D01*
X204732038Y-59514838D01*
X204755847Y-59562457D01*
X211781333Y-52842590D02*
X211781333Y-53199733D01*
X211757523Y-53271161D01*
X211709904Y-53318780D01*
X211638476Y-53342590D01*
X211590857Y-53342590D01*
X211995619Y-52890209D02*
X212019428Y-52866400D01*
X212067047Y-52842590D01*
X212186095Y-52842590D01*
X212233714Y-52866400D01*
X212257523Y-52890209D01*
X212281333Y-52937828D01*
X212281333Y-52985447D01*
X212257523Y-53056876D01*
X211971809Y-53342590D01*
X212281333Y-53342590D01*
X206027390Y-55520628D02*
X205789295Y-55687295D01*
X206027390Y-55806342D02*
X205527390Y-55806342D01*
X205527390Y-55615866D01*
X205551200Y-55568247D01*
X205575009Y-55544438D01*
X205622628Y-55520628D01*
X205694057Y-55520628D01*
X205741676Y-55544438D01*
X205765485Y-55568247D01*
X205789295Y-55615866D01*
X205789295Y-55806342D01*
X206027390Y-55044438D02*
X206027390Y-55330152D01*
X206027390Y-55187295D02*
X205527390Y-55187295D01*
X205598819Y-55234914D01*
X205646438Y-55282533D01*
X205670247Y-55330152D01*
X205527390Y-54877771D02*
X205527390Y-54568247D01*
X205717866Y-54734914D01*
X205717866Y-54663485D01*
X205741676Y-54615866D01*
X205765485Y-54592057D01*
X205813104Y-54568247D01*
X205932152Y-54568247D01*
X205979771Y-54592057D01*
X206003580Y-54615866D01*
X206027390Y-54663485D01*
X206027390Y-54806342D01*
X206003580Y-54853961D01*
X205979771Y-54877771D01*
X202026190Y-55012628D02*
X201788095Y-55179295D01*
X202026190Y-55298342D02*
X201526190Y-55298342D01*
X201526190Y-55107866D01*
X201550000Y-55060247D01*
X201573809Y-55036438D01*
X201621428Y-55012628D01*
X201692857Y-55012628D01*
X201740476Y-55036438D01*
X201764285Y-55060247D01*
X201788095Y-55107866D01*
X201788095Y-55298342D01*
X201526190Y-54845961D02*
X201526190Y-54536438D01*
X201716666Y-54703104D01*
X201716666Y-54631676D01*
X201740476Y-54584057D01*
X201764285Y-54560247D01*
X201811904Y-54536438D01*
X201930952Y-54536438D01*
X201978571Y-54560247D01*
X202002380Y-54584057D01*
X202026190Y-54631676D01*
X202026190Y-54774533D01*
X202002380Y-54822152D01*
X201978571Y-54845961D01*
X201692857Y-54107866D02*
X202026190Y-54107866D01*
X201502380Y-54226914D02*
X201859523Y-54345961D01*
X201859523Y-54036438D01*
X162528571Y-40848571D02*
X162504761Y-40872380D01*
X162433333Y-40896190D01*
X162385714Y-40896190D01*
X162314285Y-40872380D01*
X162266666Y-40824761D01*
X162242857Y-40777142D01*
X162219047Y-40681904D01*
X162219047Y-40610476D01*
X162242857Y-40515238D01*
X162266666Y-40467619D01*
X162314285Y-40420000D01*
X162385714Y-40396190D01*
X162433333Y-40396190D01*
X162504761Y-40420000D01*
X162528571Y-40443809D01*
X162719047Y-40443809D02*
X162742857Y-40420000D01*
X162790476Y-40396190D01*
X162909523Y-40396190D01*
X162957142Y-40420000D01*
X162980952Y-40443809D01*
X163004761Y-40491428D01*
X163004761Y-40539047D01*
X162980952Y-40610476D01*
X162695238Y-40896190D01*
X163004761Y-40896190D01*
X163314285Y-40396190D02*
X163361904Y-40396190D01*
X163409523Y-40420000D01*
X163433333Y-40443809D01*
X163457142Y-40491428D01*
X163480952Y-40586666D01*
X163480952Y-40705714D01*
X163457142Y-40800952D01*
X163433333Y-40848571D01*
X163409523Y-40872380D01*
X163361904Y-40896190D01*
X163314285Y-40896190D01*
X163266666Y-40872380D01*
X163242857Y-40848571D01*
X163219047Y-40800952D01*
X163195238Y-40705714D01*
X163195238Y-40586666D01*
X163219047Y-40491428D01*
X163242857Y-40443809D01*
X163266666Y-40420000D01*
X163314285Y-40396190D01*
X205866666Y-38648571D02*
X205842857Y-38672380D01*
X205771428Y-38696190D01*
X205723809Y-38696190D01*
X205652380Y-38672380D01*
X205604761Y-38624761D01*
X205580952Y-38577142D01*
X205557142Y-38481904D01*
X205557142Y-38410476D01*
X205580952Y-38315238D01*
X205604761Y-38267619D01*
X205652380Y-38220000D01*
X205723809Y-38196190D01*
X205771428Y-38196190D01*
X205842857Y-38220000D01*
X205866666Y-38243809D01*
X206104761Y-38696190D02*
X206200000Y-38696190D01*
X206247619Y-38672380D01*
X206271428Y-38648571D01*
X206319047Y-38577142D01*
X206342857Y-38481904D01*
X206342857Y-38291428D01*
X206319047Y-38243809D01*
X206295238Y-38220000D01*
X206247619Y-38196190D01*
X206152380Y-38196190D01*
X206104761Y-38220000D01*
X206080952Y-38243809D01*
X206057142Y-38291428D01*
X206057142Y-38410476D01*
X206080952Y-38458095D01*
X206104761Y-38481904D01*
X206152380Y-38505714D01*
X206247619Y-38505714D01*
X206295238Y-38481904D01*
X206319047Y-38458095D01*
X206342857Y-38410476D01*
X188616533Y-35570590D02*
X188616533Y-35927733D01*
X188592723Y-35999161D01*
X188545104Y-36046780D01*
X188473676Y-36070590D01*
X188426057Y-36070590D01*
X189068914Y-35570590D02*
X188973676Y-35570590D01*
X188926057Y-35594400D01*
X188902247Y-35618209D01*
X188854628Y-35689638D01*
X188830819Y-35784876D01*
X188830819Y-35975352D01*
X188854628Y-36022971D01*
X188878438Y-36046780D01*
X188926057Y-36070590D01*
X189021295Y-36070590D01*
X189068914Y-36046780D01*
X189092723Y-36022971D01*
X189116533Y-35975352D01*
X189116533Y-35856304D01*
X189092723Y-35808685D01*
X189068914Y-35784876D01*
X189021295Y-35761066D01*
X188926057Y-35761066D01*
X188878438Y-35784876D01*
X188854628Y-35808685D01*
X188830819Y-35856304D01*
D14*
X209088095Y-36172380D02*
X209088095Y-36981904D01*
X209135714Y-37077142D01*
X209183333Y-37124761D01*
X209278571Y-37172380D01*
X209469047Y-37172380D01*
X209564285Y-37124761D01*
X209611904Y-37077142D01*
X209659523Y-36981904D01*
X209659523Y-36172380D01*
X210040476Y-36172380D02*
X210707142Y-36172380D01*
X210278571Y-37172380D01*
D13*
X207492857Y-33132190D02*
X207778571Y-33132190D01*
X207635714Y-33632190D02*
X207635714Y-33132190D01*
X207945238Y-33632190D02*
X207945238Y-33132190D01*
X208111904Y-33489333D01*
X208278571Y-33132190D01*
X208278571Y-33632190D01*
X208802380Y-33584571D02*
X208778571Y-33608380D01*
X208707142Y-33632190D01*
X208659523Y-33632190D01*
X208588095Y-33608380D01*
X208540476Y-33560761D01*
X208516666Y-33513142D01*
X208492857Y-33417904D01*
X208492857Y-33346476D01*
X208516666Y-33251238D01*
X208540476Y-33203619D01*
X208588095Y-33156000D01*
X208659523Y-33132190D01*
X208707142Y-33132190D01*
X208778571Y-33156000D01*
X208802380Y-33179809D01*
X208992857Y-33179809D02*
X209016666Y-33156000D01*
X209064285Y-33132190D01*
X209183333Y-33132190D01*
X209230952Y-33156000D01*
X209254761Y-33179809D01*
X209278571Y-33227428D01*
X209278571Y-33275047D01*
X209254761Y-33346476D01*
X208969047Y-33632190D01*
X209278571Y-33632190D01*
X209469047Y-33179809D02*
X209492857Y-33156000D01*
X209540476Y-33132190D01*
X209659523Y-33132190D01*
X209707142Y-33156000D01*
X209730952Y-33179809D01*
X209754761Y-33227428D01*
X209754761Y-33275047D01*
X209730952Y-33346476D01*
X209445238Y-33632190D01*
X209754761Y-33632190D01*
X210064285Y-33132190D02*
X210111904Y-33132190D01*
X210159523Y-33156000D01*
X210183333Y-33179809D01*
X210207142Y-33227428D01*
X210230952Y-33322666D01*
X210230952Y-33441714D01*
X210207142Y-33536952D01*
X210183333Y-33584571D01*
X210159523Y-33608380D01*
X210111904Y-33632190D01*
X210064285Y-33632190D01*
X210016666Y-33608380D01*
X209992857Y-33584571D01*
X209969047Y-33536952D01*
X209945238Y-33441714D01*
X209945238Y-33322666D01*
X209969047Y-33227428D01*
X209992857Y-33179809D01*
X210016666Y-33156000D01*
X210064285Y-33132190D01*
X210469047Y-33632190D02*
X210564285Y-33632190D01*
X210611904Y-33608380D01*
X210635714Y-33584571D01*
X210683333Y-33513142D01*
X210707142Y-33417904D01*
X210707142Y-33227428D01*
X210683333Y-33179809D01*
X210659523Y-33156000D01*
X210611904Y-33132190D01*
X210516666Y-33132190D01*
X210469047Y-33156000D01*
X210445238Y-33179809D01*
X210421428Y-33227428D01*
X210421428Y-33346476D01*
X210445238Y-33394095D01*
X210469047Y-33417904D01*
X210516666Y-33441714D01*
X210611904Y-33441714D01*
X210659523Y-33417904D01*
X210683333Y-33394095D01*
X210707142Y-33346476D01*
X210921428Y-33441714D02*
X211302380Y-33441714D01*
X211778571Y-33632190D02*
X211540476Y-33632190D01*
X211540476Y-33132190D01*
X211921428Y-33489333D02*
X212159523Y-33489333D01*
X211873809Y-33632190D02*
X212040476Y-33132190D01*
X212207142Y-33632190D01*
D14*
X206408300Y-34422380D02*
X206408300Y-34660476D01*
X206170204Y-34565238D02*
X206408300Y-34660476D01*
X206646395Y-34565238D01*
X206265442Y-34850952D02*
X206408300Y-34660476D01*
X206551157Y-34850952D01*
D13*
X194728438Y-57465390D02*
X194728438Y-57822533D01*
X194704628Y-57893961D01*
X194657009Y-57941580D01*
X194585580Y-57965390D01*
X194537961Y-57965390D01*
X195228438Y-57965390D02*
X194942723Y-57965390D01*
X195085580Y-57965390D02*
X195085580Y-57465390D01*
X195037961Y-57536819D01*
X194990342Y-57584438D01*
X194942723Y-57608247D01*
X195418914Y-57513009D02*
X195442723Y-57489200D01*
X195490342Y-57465390D01*
X195609390Y-57465390D01*
X195657009Y-57489200D01*
X195680819Y-57513009D01*
X195704628Y-57560628D01*
X195704628Y-57608247D01*
X195680819Y-57679676D01*
X195395104Y-57965390D01*
X195704628Y-57965390D01*
X223716971Y-37038971D02*
X223693161Y-37062780D01*
X223621733Y-37086590D01*
X223574114Y-37086590D01*
X223502685Y-37062780D01*
X223455066Y-37015161D01*
X223431257Y-36967542D01*
X223407447Y-36872304D01*
X223407447Y-36800876D01*
X223431257Y-36705638D01*
X223455066Y-36658019D01*
X223502685Y-36610400D01*
X223574114Y-36586590D01*
X223621733Y-36586590D01*
X223693161Y-36610400D01*
X223716971Y-36634209D01*
X223883638Y-36586590D02*
X224193161Y-36586590D01*
X224026495Y-36777066D01*
X224097923Y-36777066D01*
X224145542Y-36800876D01*
X224169352Y-36824685D01*
X224193161Y-36872304D01*
X224193161Y-36991352D01*
X224169352Y-37038971D01*
X224145542Y-37062780D01*
X224097923Y-37086590D01*
X223955066Y-37086590D01*
X223907447Y-37062780D01*
X223883638Y-37038971D01*
X224431257Y-37086590D02*
X224526495Y-37086590D01*
X224574114Y-37062780D01*
X224597923Y-37038971D01*
X224645542Y-36967542D01*
X224669352Y-36872304D01*
X224669352Y-36681828D01*
X224645542Y-36634209D01*
X224621733Y-36610400D01*
X224574114Y-36586590D01*
X224478876Y-36586590D01*
X224431257Y-36610400D01*
X224407447Y-36634209D01*
X224383638Y-36681828D01*
X224383638Y-36800876D01*
X224407447Y-36848495D01*
X224431257Y-36872304D01*
X224478876Y-36896114D01*
X224574114Y-36896114D01*
X224621733Y-36872304D01*
X224645542Y-36848495D01*
X224669352Y-36800876D01*
X199026190Y-55012628D02*
X198788095Y-55179295D01*
X199026190Y-55298342D02*
X198526190Y-55298342D01*
X198526190Y-55107866D01*
X198550000Y-55060247D01*
X198573809Y-55036438D01*
X198621428Y-55012628D01*
X198692857Y-55012628D01*
X198740476Y-55036438D01*
X198764285Y-55060247D01*
X198788095Y-55107866D01*
X198788095Y-55298342D01*
X198526190Y-54845961D02*
X198526190Y-54536438D01*
X198716666Y-54703104D01*
X198716666Y-54631676D01*
X198740476Y-54584057D01*
X198764285Y-54560247D01*
X198811904Y-54536438D01*
X198930952Y-54536438D01*
X198978571Y-54560247D01*
X199002380Y-54584057D01*
X199026190Y-54631676D01*
X199026190Y-54774533D01*
X199002380Y-54822152D01*
X198978571Y-54845961D01*
X199026190Y-54060247D02*
X199026190Y-54345961D01*
X199026190Y-54203104D02*
X198526190Y-54203104D01*
X198597619Y-54250723D01*
X198645238Y-54298342D01*
X198669047Y-54345961D01*
X207728571Y-30096190D02*
X207561904Y-29858095D01*
X207442857Y-30096190D02*
X207442857Y-29596190D01*
X207633333Y-29596190D01*
X207680952Y-29620000D01*
X207704761Y-29643809D01*
X207728571Y-29691428D01*
X207728571Y-29762857D01*
X207704761Y-29810476D01*
X207680952Y-29834285D01*
X207633333Y-29858095D01*
X207442857Y-29858095D01*
X208204761Y-30096190D02*
X207919047Y-30096190D01*
X208061904Y-30096190D02*
X208061904Y-29596190D01*
X208014285Y-29667619D01*
X207966666Y-29715238D01*
X207919047Y-29739047D01*
X208680952Y-30096190D02*
X208395238Y-30096190D01*
X208538095Y-30096190D02*
X208538095Y-29596190D01*
X208490476Y-29667619D01*
X208442857Y-29715238D01*
X208395238Y-29739047D01*
X159607371Y-45420971D02*
X159583561Y-45444780D01*
X159512133Y-45468590D01*
X159464514Y-45468590D01*
X159393085Y-45444780D01*
X159345466Y-45397161D01*
X159321657Y-45349542D01*
X159297847Y-45254304D01*
X159297847Y-45182876D01*
X159321657Y-45087638D01*
X159345466Y-45040019D01*
X159393085Y-44992400D01*
X159464514Y-44968590D01*
X159512133Y-44968590D01*
X159583561Y-44992400D01*
X159607371Y-45016209D01*
X159797847Y-45016209D02*
X159821657Y-44992400D01*
X159869276Y-44968590D01*
X159988323Y-44968590D01*
X160035942Y-44992400D01*
X160059752Y-45016209D01*
X160083561Y-45063828D01*
X160083561Y-45111447D01*
X160059752Y-45182876D01*
X159774038Y-45468590D01*
X160083561Y-45468590D01*
X160559752Y-45468590D02*
X160274038Y-45468590D01*
X160416895Y-45468590D02*
X160416895Y-44968590D01*
X160369276Y-45040019D01*
X160321657Y-45087638D01*
X160274038Y-45111447D01*
X158328571Y-32448571D02*
X158304761Y-32472380D01*
X158233333Y-32496190D01*
X158185714Y-32496190D01*
X158114285Y-32472380D01*
X158066666Y-32424761D01*
X158042857Y-32377142D01*
X158019047Y-32281904D01*
X158019047Y-32210476D01*
X158042857Y-32115238D01*
X158066666Y-32067619D01*
X158114285Y-32020000D01*
X158185714Y-31996190D01*
X158233333Y-31996190D01*
X158304761Y-32020000D01*
X158328571Y-32043809D01*
X158804761Y-32496190D02*
X158519047Y-32496190D01*
X158661904Y-32496190D02*
X158661904Y-31996190D01*
X158614285Y-32067619D01*
X158566666Y-32115238D01*
X158519047Y-32139047D01*
X159233333Y-31996190D02*
X159138095Y-31996190D01*
X159090476Y-32020000D01*
X159066666Y-32043809D01*
X159019047Y-32115238D01*
X158995238Y-32210476D01*
X158995238Y-32400952D01*
X159019047Y-32448571D01*
X159042857Y-32472380D01*
X159090476Y-32496190D01*
X159185714Y-32496190D01*
X159233333Y-32472380D01*
X159257142Y-32448571D01*
X159280952Y-32400952D01*
X159280952Y-32281904D01*
X159257142Y-32234285D01*
X159233333Y-32210476D01*
X159185714Y-32186666D01*
X159090476Y-32186666D01*
X159042857Y-32210476D01*
X159019047Y-32234285D01*
X158995238Y-32281904D01*
X182361333Y-35545190D02*
X182361333Y-35902333D01*
X182337523Y-35973761D01*
X182289904Y-36021380D01*
X182218476Y-36045190D01*
X182170857Y-36045190D01*
X182551809Y-35545190D02*
X182885142Y-35545190D01*
X182670857Y-36045190D01*
X190546190Y-48471428D02*
X190308095Y-48638095D01*
X190546190Y-48757142D02*
X190046190Y-48757142D01*
X190046190Y-48566666D01*
X190070000Y-48519047D01*
X190093809Y-48495238D01*
X190141428Y-48471428D01*
X190212857Y-48471428D01*
X190260476Y-48495238D01*
X190284285Y-48519047D01*
X190308095Y-48566666D01*
X190308095Y-48757142D01*
X190046190Y-48304761D02*
X190046190Y-47995238D01*
X190236666Y-48161904D01*
X190236666Y-48090476D01*
X190260476Y-48042857D01*
X190284285Y-48019047D01*
X190331904Y-47995238D01*
X190450952Y-47995238D01*
X190498571Y-48019047D01*
X190522380Y-48042857D01*
X190546190Y-48090476D01*
X190546190Y-48233333D01*
X190522380Y-48280952D01*
X190498571Y-48304761D01*
X190046190Y-47685714D02*
X190046190Y-47638095D01*
X190070000Y-47590476D01*
X190093809Y-47566666D01*
X190141428Y-47542857D01*
X190236666Y-47519047D01*
X190355714Y-47519047D01*
X190450952Y-47542857D01*
X190498571Y-47566666D01*
X190522380Y-47590476D01*
X190546190Y-47638095D01*
X190546190Y-47685714D01*
X190522380Y-47733333D01*
X190498571Y-47757142D01*
X190450952Y-47780952D01*
X190355714Y-47804761D01*
X190236666Y-47804761D01*
X190141428Y-47780952D01*
X190093809Y-47757142D01*
X190070000Y-47733333D01*
X190046190Y-47685714D01*
X168280952Y-28396190D02*
X168280952Y-27896190D01*
X168400000Y-27896190D01*
X168471428Y-27920000D01*
X168519047Y-27967619D01*
X168542857Y-28015238D01*
X168566666Y-28110476D01*
X168566666Y-28181904D01*
X168542857Y-28277142D01*
X168519047Y-28324761D01*
X168471428Y-28372380D01*
X168400000Y-28396190D01*
X168280952Y-28396190D01*
X168995238Y-28062857D02*
X168995238Y-28396190D01*
X168876190Y-27872380D02*
X168757142Y-28229523D01*
X169066666Y-28229523D01*
X217562171Y-33117828D02*
X217585980Y-33141638D01*
X217609790Y-33213066D01*
X217609790Y-33260685D01*
X217585980Y-33332114D01*
X217538361Y-33379733D01*
X217490742Y-33403542D01*
X217395504Y-33427352D01*
X217324076Y-33427352D01*
X217228838Y-33403542D01*
X217181219Y-33379733D01*
X217133600Y-33332114D01*
X217109790Y-33260685D01*
X217109790Y-33213066D01*
X217133600Y-33141638D01*
X217157409Y-33117828D01*
X217157409Y-32927352D02*
X217133600Y-32903542D01*
X217109790Y-32855923D01*
X217109790Y-32736876D01*
X217133600Y-32689257D01*
X217157409Y-32665447D01*
X217205028Y-32641638D01*
X217252647Y-32641638D01*
X217324076Y-32665447D01*
X217609790Y-32951161D01*
X217609790Y-32641638D01*
X217109790Y-32474971D02*
X217109790Y-32141638D01*
X217609790Y-32355923D01*
X217198666Y-49484971D02*
X217174857Y-49508780D01*
X217103428Y-49532590D01*
X217055809Y-49532590D01*
X216984380Y-49508780D01*
X216936761Y-49461161D01*
X216912952Y-49413542D01*
X216889142Y-49318304D01*
X216889142Y-49246876D01*
X216912952Y-49151638D01*
X216936761Y-49104019D01*
X216984380Y-49056400D01*
X217055809Y-49032590D01*
X217103428Y-49032590D01*
X217174857Y-49056400D01*
X217198666Y-49080209D01*
X217627238Y-49032590D02*
X217532000Y-49032590D01*
X217484380Y-49056400D01*
X217460571Y-49080209D01*
X217412952Y-49151638D01*
X217389142Y-49246876D01*
X217389142Y-49437352D01*
X217412952Y-49484971D01*
X217436761Y-49508780D01*
X217484380Y-49532590D01*
X217579619Y-49532590D01*
X217627238Y-49508780D01*
X217651047Y-49484971D01*
X217674857Y-49437352D01*
X217674857Y-49318304D01*
X217651047Y-49270685D01*
X217627238Y-49246876D01*
X217579619Y-49223066D01*
X217484380Y-49223066D01*
X217436761Y-49246876D01*
X217412952Y-49270685D01*
X217389142Y-49318304D01*
X200286990Y-32676533D02*
X200048895Y-32843200D01*
X200286990Y-32962247D02*
X199786990Y-32962247D01*
X199786990Y-32771771D01*
X199810800Y-32724152D01*
X199834609Y-32700342D01*
X199882228Y-32676533D01*
X199953657Y-32676533D01*
X200001276Y-32700342D01*
X200025085Y-32724152D01*
X200048895Y-32771771D01*
X200048895Y-32962247D01*
X199786990Y-32509866D02*
X199786990Y-32200342D01*
X199977466Y-32367009D01*
X199977466Y-32295580D01*
X200001276Y-32247961D01*
X200025085Y-32224152D01*
X200072704Y-32200342D01*
X200191752Y-32200342D01*
X200239371Y-32224152D01*
X200263180Y-32247961D01*
X200286990Y-32295580D01*
X200286990Y-32438438D01*
X200263180Y-32486057D01*
X200239371Y-32509866D01*
X171883333Y-63546190D02*
X171883333Y-63903333D01*
X171859523Y-63974761D01*
X171811904Y-64022380D01*
X171740476Y-64046190D01*
X171692857Y-64046190D01*
X172359523Y-63546190D02*
X172121428Y-63546190D01*
X172097619Y-63784285D01*
X172121428Y-63760476D01*
X172169047Y-63736666D01*
X172288095Y-63736666D01*
X172335714Y-63760476D01*
X172359523Y-63784285D01*
X172383333Y-63831904D01*
X172383333Y-63950952D01*
X172359523Y-63998571D01*
X172335714Y-64022380D01*
X172288095Y-64046190D01*
X172169047Y-64046190D01*
X172121428Y-64022380D01*
X172097619Y-63998571D01*
X214107771Y-37029428D02*
X214131580Y-37053238D01*
X214155390Y-37124666D01*
X214155390Y-37172285D01*
X214131580Y-37243714D01*
X214083961Y-37291333D01*
X214036342Y-37315142D01*
X213941104Y-37338952D01*
X213869676Y-37338952D01*
X213774438Y-37315142D01*
X213726819Y-37291333D01*
X213679200Y-37243714D01*
X213655390Y-37172285D01*
X213655390Y-37124666D01*
X213679200Y-37053238D01*
X213703009Y-37029428D01*
X213822057Y-36600857D02*
X214155390Y-36600857D01*
X213631580Y-36719904D02*
X213988723Y-36838952D01*
X213988723Y-36529428D01*
X213655390Y-36243714D02*
X213655390Y-36196095D01*
X213679200Y-36148476D01*
X213703009Y-36124666D01*
X213750628Y-36100857D01*
X213845866Y-36077047D01*
X213964914Y-36077047D01*
X214060152Y-36100857D01*
X214107771Y-36124666D01*
X214131580Y-36148476D01*
X214155390Y-36196095D01*
X214155390Y-36243714D01*
X214131580Y-36291333D01*
X214107771Y-36315142D01*
X214060152Y-36338952D01*
X213964914Y-36362761D01*
X213845866Y-36362761D01*
X213750628Y-36338952D01*
X213703009Y-36315142D01*
X213679200Y-36291333D01*
X213655390Y-36243714D01*
X160633333Y-63546190D02*
X160633333Y-63903333D01*
X160609523Y-63974761D01*
X160561904Y-64022380D01*
X160490476Y-64046190D01*
X160442857Y-64046190D01*
X161085714Y-63712857D02*
X161085714Y-64046190D01*
X160966666Y-63522380D02*
X160847619Y-63879523D01*
X161157142Y-63879523D01*
X216952571Y-53996628D02*
X216976380Y-54020438D01*
X217000190Y-54091866D01*
X217000190Y-54139485D01*
X216976380Y-54210914D01*
X216928761Y-54258533D01*
X216881142Y-54282342D01*
X216785904Y-54306152D01*
X216714476Y-54306152D01*
X216619238Y-54282342D01*
X216571619Y-54258533D01*
X216524000Y-54210914D01*
X216500190Y-54139485D01*
X216500190Y-54091866D01*
X216524000Y-54020438D01*
X216547809Y-53996628D01*
X216500190Y-53829961D02*
X216500190Y-53520438D01*
X216690666Y-53687104D01*
X216690666Y-53615676D01*
X216714476Y-53568057D01*
X216738285Y-53544247D01*
X216785904Y-53520438D01*
X216904952Y-53520438D01*
X216952571Y-53544247D01*
X216976380Y-53568057D01*
X217000190Y-53615676D01*
X217000190Y-53758533D01*
X216976380Y-53806152D01*
X216952571Y-53829961D01*
X217000190Y-53044247D02*
X217000190Y-53329961D01*
X217000190Y-53187104D02*
X216500190Y-53187104D01*
X216571619Y-53234723D01*
X216619238Y-53282342D01*
X216643047Y-53329961D01*
X207729190Y-46986228D02*
X207491095Y-47152895D01*
X207729190Y-47271942D02*
X207229190Y-47271942D01*
X207229190Y-47081466D01*
X207253000Y-47033847D01*
X207276809Y-47010038D01*
X207324428Y-46986228D01*
X207395857Y-46986228D01*
X207443476Y-47010038D01*
X207467285Y-47033847D01*
X207491095Y-47081466D01*
X207491095Y-47271942D01*
X207276809Y-46795752D02*
X207253000Y-46771942D01*
X207229190Y-46724323D01*
X207229190Y-46605276D01*
X207253000Y-46557657D01*
X207276809Y-46533847D01*
X207324428Y-46510038D01*
X207372047Y-46510038D01*
X207443476Y-46533847D01*
X207729190Y-46819561D01*
X207729190Y-46510038D01*
X207229190Y-46343371D02*
X207229190Y-46010038D01*
X207729190Y-46224323D01*
X159556571Y-44506571D02*
X159532761Y-44530380D01*
X159461333Y-44554190D01*
X159413714Y-44554190D01*
X159342285Y-44530380D01*
X159294666Y-44482761D01*
X159270857Y-44435142D01*
X159247047Y-44339904D01*
X159247047Y-44268476D01*
X159270857Y-44173238D01*
X159294666Y-44125619D01*
X159342285Y-44078000D01*
X159413714Y-44054190D01*
X159461333Y-44054190D01*
X159532761Y-44078000D01*
X159556571Y-44101809D01*
X160032761Y-44554190D02*
X159747047Y-44554190D01*
X159889904Y-44554190D02*
X159889904Y-44054190D01*
X159842285Y-44125619D01*
X159794666Y-44173238D01*
X159747047Y-44197047D01*
X160485142Y-44054190D02*
X160247047Y-44054190D01*
X160223238Y-44292285D01*
X160247047Y-44268476D01*
X160294666Y-44244666D01*
X160413714Y-44244666D01*
X160461333Y-44268476D01*
X160485142Y-44292285D01*
X160508952Y-44339904D01*
X160508952Y-44458952D01*
X160485142Y-44506571D01*
X160461333Y-44530380D01*
X160413714Y-44554190D01*
X160294666Y-44554190D01*
X160247047Y-44530380D01*
X160223238Y-44506571D01*
X202939771Y-48519771D02*
X202915961Y-48543580D01*
X202844533Y-48567390D01*
X202796914Y-48567390D01*
X202725485Y-48543580D01*
X202677866Y-48495961D01*
X202654057Y-48448342D01*
X202630247Y-48353104D01*
X202630247Y-48281676D01*
X202654057Y-48186438D01*
X202677866Y-48138819D01*
X202725485Y-48091200D01*
X202796914Y-48067390D01*
X202844533Y-48067390D01*
X202915961Y-48091200D01*
X202939771Y-48115009D01*
X203415961Y-48567390D02*
X203130247Y-48567390D01*
X203273104Y-48567390D02*
X203273104Y-48067390D01*
X203225485Y-48138819D01*
X203177866Y-48186438D01*
X203130247Y-48210247D01*
X203606438Y-48115009D02*
X203630247Y-48091200D01*
X203677866Y-48067390D01*
X203796914Y-48067390D01*
X203844533Y-48091200D01*
X203868342Y-48115009D01*
X203892152Y-48162628D01*
X203892152Y-48210247D01*
X203868342Y-48281676D01*
X203582628Y-48567390D01*
X203892152Y-48567390D01*
X200145771Y-41712571D02*
X200121961Y-41736380D01*
X200050533Y-41760190D01*
X200002914Y-41760190D01*
X199931485Y-41736380D01*
X199883866Y-41688761D01*
X199860057Y-41641142D01*
X199836247Y-41545904D01*
X199836247Y-41474476D01*
X199860057Y-41379238D01*
X199883866Y-41331619D01*
X199931485Y-41284000D01*
X200002914Y-41260190D01*
X200050533Y-41260190D01*
X200121961Y-41284000D01*
X200145771Y-41307809D01*
X200621961Y-41760190D02*
X200336247Y-41760190D01*
X200479104Y-41760190D02*
X200479104Y-41260190D01*
X200431485Y-41331619D01*
X200383866Y-41379238D01*
X200336247Y-41403047D01*
X200931485Y-41260190D02*
X200979104Y-41260190D01*
X201026723Y-41284000D01*
X201050533Y-41307809D01*
X201074342Y-41355428D01*
X201098152Y-41450666D01*
X201098152Y-41569714D01*
X201074342Y-41664952D01*
X201050533Y-41712571D01*
X201026723Y-41736380D01*
X200979104Y-41760190D01*
X200931485Y-41760190D01*
X200883866Y-41736380D01*
X200860057Y-41712571D01*
X200836247Y-41664952D01*
X200812438Y-41569714D01*
X200812438Y-41450666D01*
X200836247Y-41355428D01*
X200860057Y-41307809D01*
X200883866Y-41284000D01*
X200931485Y-41260190D01*
D14*
X209466666Y-20154880D02*
X209466666Y-20869166D01*
X209419047Y-21012023D01*
X209323809Y-21107261D01*
X209180952Y-21154880D01*
X209085714Y-21154880D01*
X209990476Y-21154880D02*
X210180952Y-21154880D01*
X210276190Y-21107261D01*
X210323809Y-21059642D01*
X210419047Y-20916785D01*
X210466666Y-20726309D01*
X210466666Y-20345357D01*
X210419047Y-20250119D01*
X210371428Y-20202500D01*
X210276190Y-20154880D01*
X210085714Y-20154880D01*
X209990476Y-20202500D01*
X209942857Y-20250119D01*
X209895238Y-20345357D01*
X209895238Y-20583452D01*
X209942857Y-20678690D01*
X209990476Y-20726309D01*
X210085714Y-20773928D01*
X210276190Y-20773928D01*
X210371428Y-20726309D01*
X210419047Y-20678690D01*
X210466666Y-20583452D01*
D13*
X201814171Y-53285428D02*
X201837980Y-53309238D01*
X201861790Y-53380666D01*
X201861790Y-53428285D01*
X201837980Y-53499714D01*
X201790361Y-53547333D01*
X201742742Y-53571142D01*
X201647504Y-53594952D01*
X201576076Y-53594952D01*
X201480838Y-53571142D01*
X201433219Y-53547333D01*
X201385600Y-53499714D01*
X201361790Y-53428285D01*
X201361790Y-53380666D01*
X201385600Y-53309238D01*
X201409409Y-53285428D01*
X201861790Y-52809238D02*
X201861790Y-53094952D01*
X201861790Y-52952095D02*
X201361790Y-52952095D01*
X201433219Y-52999714D01*
X201480838Y-53047333D01*
X201504647Y-53094952D01*
X201861790Y-52571142D02*
X201861790Y-52475904D01*
X201837980Y-52428285D01*
X201814171Y-52404476D01*
X201742742Y-52356857D01*
X201647504Y-52333047D01*
X201457028Y-52333047D01*
X201409409Y-52356857D01*
X201385600Y-52380666D01*
X201361790Y-52428285D01*
X201361790Y-52523523D01*
X201385600Y-52571142D01*
X201409409Y-52594952D01*
X201457028Y-52618761D01*
X201576076Y-52618761D01*
X201623695Y-52594952D01*
X201647504Y-52571142D01*
X201671314Y-52523523D01*
X201671314Y-52428285D01*
X201647504Y-52380666D01*
X201623695Y-52356857D01*
X201576076Y-52333047D01*
X201026190Y-55012628D02*
X200788095Y-55179295D01*
X201026190Y-55298342D02*
X200526190Y-55298342D01*
X200526190Y-55107866D01*
X200550000Y-55060247D01*
X200573809Y-55036438D01*
X200621428Y-55012628D01*
X200692857Y-55012628D01*
X200740476Y-55036438D01*
X200764285Y-55060247D01*
X200788095Y-55107866D01*
X200788095Y-55298342D01*
X200526190Y-54845961D02*
X200526190Y-54536438D01*
X200716666Y-54703104D01*
X200716666Y-54631676D01*
X200740476Y-54584057D01*
X200764285Y-54560247D01*
X200811904Y-54536438D01*
X200930952Y-54536438D01*
X200978571Y-54560247D01*
X201002380Y-54584057D01*
X201026190Y-54631676D01*
X201026190Y-54774533D01*
X201002380Y-54822152D01*
X200978571Y-54845961D01*
X200526190Y-54084057D02*
X200526190Y-54322152D01*
X200764285Y-54345961D01*
X200740476Y-54322152D01*
X200716666Y-54274533D01*
X200716666Y-54155485D01*
X200740476Y-54107866D01*
X200764285Y-54084057D01*
X200811904Y-54060247D01*
X200930952Y-54060247D01*
X200978571Y-54084057D01*
X201002380Y-54107866D01*
X201026190Y-54155485D01*
X201026190Y-54274533D01*
X201002380Y-54322152D01*
X200978571Y-54345961D01*
X215838571Y-30038690D02*
X215671904Y-29800595D01*
X215552857Y-30038690D02*
X215552857Y-29538690D01*
X215743333Y-29538690D01*
X215790952Y-29562500D01*
X215814761Y-29586309D01*
X215838571Y-29633928D01*
X215838571Y-29705357D01*
X215814761Y-29752976D01*
X215790952Y-29776785D01*
X215743333Y-29800595D01*
X215552857Y-29800595D01*
X216314761Y-30038690D02*
X216029047Y-30038690D01*
X216171904Y-30038690D02*
X216171904Y-29538690D01*
X216124285Y-29610119D01*
X216076666Y-29657738D01*
X216029047Y-29681547D01*
X216505238Y-29586309D02*
X216529047Y-29562500D01*
X216576666Y-29538690D01*
X216695714Y-29538690D01*
X216743333Y-29562500D01*
X216767142Y-29586309D01*
X216790952Y-29633928D01*
X216790952Y-29681547D01*
X216767142Y-29752976D01*
X216481428Y-30038690D01*
X216790952Y-30038690D01*
X193424266Y-41712571D02*
X193400457Y-41736380D01*
X193329028Y-41760190D01*
X193281409Y-41760190D01*
X193209980Y-41736380D01*
X193162361Y-41688761D01*
X193138552Y-41641142D01*
X193114742Y-41545904D01*
X193114742Y-41474476D01*
X193138552Y-41379238D01*
X193162361Y-41331619D01*
X193209980Y-41284000D01*
X193281409Y-41260190D01*
X193329028Y-41260190D01*
X193400457Y-41284000D01*
X193424266Y-41307809D01*
X193709980Y-41474476D02*
X193662361Y-41450666D01*
X193638552Y-41426857D01*
X193614742Y-41379238D01*
X193614742Y-41355428D01*
X193638552Y-41307809D01*
X193662361Y-41284000D01*
X193709980Y-41260190D01*
X193805219Y-41260190D01*
X193852838Y-41284000D01*
X193876647Y-41307809D01*
X193900457Y-41355428D01*
X193900457Y-41379238D01*
X193876647Y-41426857D01*
X193852838Y-41450666D01*
X193805219Y-41474476D01*
X193709980Y-41474476D01*
X193662361Y-41498285D01*
X193638552Y-41522095D01*
X193614742Y-41569714D01*
X193614742Y-41664952D01*
X193638552Y-41712571D01*
X193662361Y-41736380D01*
X193709980Y-41760190D01*
X193805219Y-41760190D01*
X193852838Y-41736380D01*
X193876647Y-41712571D01*
X193900457Y-41664952D01*
X193900457Y-41569714D01*
X193876647Y-41522095D01*
X193852838Y-41498285D01*
X193805219Y-41474476D01*
X200239371Y-31151828D02*
X200263180Y-31175638D01*
X200286990Y-31247066D01*
X200286990Y-31294685D01*
X200263180Y-31366114D01*
X200215561Y-31413733D01*
X200167942Y-31437542D01*
X200072704Y-31461352D01*
X200001276Y-31461352D01*
X199906038Y-31437542D01*
X199858419Y-31413733D01*
X199810800Y-31366114D01*
X199786990Y-31294685D01*
X199786990Y-31247066D01*
X199810800Y-31175638D01*
X199834609Y-31151828D01*
X199834609Y-30961352D02*
X199810800Y-30937542D01*
X199786990Y-30889923D01*
X199786990Y-30770876D01*
X199810800Y-30723257D01*
X199834609Y-30699447D01*
X199882228Y-30675638D01*
X199929847Y-30675638D01*
X200001276Y-30699447D01*
X200286990Y-30985161D01*
X200286990Y-30675638D01*
X199834609Y-30485161D02*
X199810800Y-30461352D01*
X199786990Y-30413733D01*
X199786990Y-30294685D01*
X199810800Y-30247066D01*
X199834609Y-30223257D01*
X199882228Y-30199447D01*
X199929847Y-30199447D01*
X200001276Y-30223257D01*
X200286990Y-30508971D01*
X200286990Y-30199447D01*
X192136047Y-44054190D02*
X192136047Y-44458952D01*
X192159857Y-44506571D01*
X192183666Y-44530380D01*
X192231285Y-44554190D01*
X192326523Y-44554190D01*
X192374142Y-44530380D01*
X192397952Y-44506571D01*
X192421761Y-44458952D01*
X192421761Y-44054190D01*
X192612238Y-44054190D02*
X192921761Y-44054190D01*
X192755095Y-44244666D01*
X192826523Y-44244666D01*
X192874142Y-44268476D01*
X192897952Y-44292285D01*
X192921761Y-44339904D01*
X192921761Y-44458952D01*
X192897952Y-44506571D01*
X192874142Y-44530380D01*
X192826523Y-44554190D01*
X192683666Y-44554190D01*
X192636047Y-44530380D01*
X192612238Y-44506571D01*
X165179466Y-57965390D02*
X165012800Y-57727295D01*
X164893752Y-57965390D02*
X164893752Y-57465390D01*
X165084228Y-57465390D01*
X165131847Y-57489200D01*
X165155657Y-57513009D01*
X165179466Y-57560628D01*
X165179466Y-57632057D01*
X165155657Y-57679676D01*
X165131847Y-57703485D01*
X165084228Y-57727295D01*
X164893752Y-57727295D01*
X165369942Y-57513009D02*
X165393752Y-57489200D01*
X165441371Y-57465390D01*
X165560419Y-57465390D01*
X165608038Y-57489200D01*
X165631847Y-57513009D01*
X165655657Y-57560628D01*
X165655657Y-57608247D01*
X165631847Y-57679676D01*
X165346133Y-57965390D01*
X165655657Y-57965390D01*
X188476190Y-48481428D02*
X188238095Y-48648095D01*
X188476190Y-48767142D02*
X187976190Y-48767142D01*
X187976190Y-48576666D01*
X188000000Y-48529047D01*
X188023809Y-48505238D01*
X188071428Y-48481428D01*
X188142857Y-48481428D01*
X188190476Y-48505238D01*
X188214285Y-48529047D01*
X188238095Y-48576666D01*
X188238095Y-48767142D01*
X188023809Y-48290952D02*
X188000000Y-48267142D01*
X187976190Y-48219523D01*
X187976190Y-48100476D01*
X188000000Y-48052857D01*
X188023809Y-48029047D01*
X188071428Y-48005238D01*
X188119047Y-48005238D01*
X188190476Y-48029047D01*
X188476190Y-48314761D01*
X188476190Y-48005238D01*
X188476190Y-47767142D02*
X188476190Y-47671904D01*
X188452380Y-47624285D01*
X188428571Y-47600476D01*
X188357142Y-47552857D01*
X188261904Y-47529047D01*
X188071428Y-47529047D01*
X188023809Y-47552857D01*
X188000000Y-47576666D01*
X187976190Y-47624285D01*
X187976190Y-47719523D01*
X188000000Y-47767142D01*
X188023809Y-47790952D01*
X188071428Y-47814761D01*
X188190476Y-47814761D01*
X188238095Y-47790952D01*
X188261904Y-47767142D01*
X188285714Y-47719523D01*
X188285714Y-47624285D01*
X188261904Y-47576666D01*
X188238095Y-47552857D01*
X188190476Y-47529047D01*
X206600552Y-42369790D02*
X206600552Y-41869790D01*
X206719600Y-41869790D01*
X206791028Y-41893600D01*
X206838647Y-41941219D01*
X206862457Y-41988838D01*
X206886266Y-42084076D01*
X206886266Y-42155504D01*
X206862457Y-42250742D01*
X206838647Y-42298361D01*
X206791028Y-42345980D01*
X206719600Y-42369790D01*
X206600552Y-42369790D01*
X207338647Y-41869790D02*
X207100552Y-41869790D01*
X207076742Y-42107885D01*
X207100552Y-42084076D01*
X207148171Y-42060266D01*
X207267219Y-42060266D01*
X207314838Y-42084076D01*
X207338647Y-42107885D01*
X207362457Y-42155504D01*
X207362457Y-42274552D01*
X207338647Y-42322171D01*
X207314838Y-42345980D01*
X207267219Y-42369790D01*
X207148171Y-42369790D01*
X207100552Y-42345980D01*
X207076742Y-42322171D01*
X204291190Y-52117028D02*
X204053095Y-52283695D01*
X204291190Y-52402742D02*
X203791190Y-52402742D01*
X203791190Y-52212266D01*
X203815000Y-52164647D01*
X203838809Y-52140838D01*
X203886428Y-52117028D01*
X203957857Y-52117028D01*
X204005476Y-52140838D01*
X204029285Y-52164647D01*
X204053095Y-52212266D01*
X204053095Y-52402742D01*
X204291190Y-51640838D02*
X204291190Y-51926552D01*
X204291190Y-51783695D02*
X203791190Y-51783695D01*
X203862619Y-51831314D01*
X203910238Y-51878933D01*
X203934047Y-51926552D01*
X203791190Y-51212266D02*
X203791190Y-51307504D01*
X203815000Y-51355123D01*
X203838809Y-51378933D01*
X203910238Y-51426552D01*
X204005476Y-51450361D01*
X204195952Y-51450361D01*
X204243571Y-51426552D01*
X204267380Y-51402742D01*
X204291190Y-51355123D01*
X204291190Y-51259885D01*
X204267380Y-51212266D01*
X204243571Y-51188457D01*
X204195952Y-51164647D01*
X204076904Y-51164647D01*
X204029285Y-51188457D01*
X204005476Y-51212266D01*
X203981666Y-51259885D01*
X203981666Y-51355123D01*
X204005476Y-51402742D01*
X204029285Y-51426552D01*
X204076904Y-51450361D01*
X199908571Y-44681428D02*
X199932380Y-44705238D01*
X199956190Y-44776666D01*
X199956190Y-44824285D01*
X199932380Y-44895714D01*
X199884761Y-44943333D01*
X199837142Y-44967142D01*
X199741904Y-44990952D01*
X199670476Y-44990952D01*
X199575238Y-44967142D01*
X199527619Y-44943333D01*
X199480000Y-44895714D01*
X199456190Y-44824285D01*
X199456190Y-44776666D01*
X199480000Y-44705238D01*
X199503809Y-44681428D01*
X199456190Y-44514761D02*
X199456190Y-44205238D01*
X199646666Y-44371904D01*
X199646666Y-44300476D01*
X199670476Y-44252857D01*
X199694285Y-44229047D01*
X199741904Y-44205238D01*
X199860952Y-44205238D01*
X199908571Y-44229047D01*
X199932380Y-44252857D01*
X199956190Y-44300476D01*
X199956190Y-44443333D01*
X199932380Y-44490952D01*
X199908571Y-44514761D01*
X199503809Y-44014761D02*
X199480000Y-43990952D01*
X199456190Y-43943333D01*
X199456190Y-43824285D01*
X199480000Y-43776666D01*
X199503809Y-43752857D01*
X199551428Y-43729047D01*
X199599047Y-43729047D01*
X199670476Y-43752857D01*
X199956190Y-44038571D01*
X199956190Y-43729047D01*
X196508571Y-42623790D02*
X196341904Y-42385695D01*
X196222857Y-42623790D02*
X196222857Y-42123790D01*
X196413333Y-42123790D01*
X196460952Y-42147600D01*
X196484761Y-42171409D01*
X196508571Y-42219028D01*
X196508571Y-42290457D01*
X196484761Y-42338076D01*
X196460952Y-42361885D01*
X196413333Y-42385695D01*
X196222857Y-42385695D01*
X196984761Y-42623790D02*
X196699047Y-42623790D01*
X196841904Y-42623790D02*
X196841904Y-42123790D01*
X196794285Y-42195219D01*
X196746666Y-42242838D01*
X196699047Y-42266647D01*
X197413333Y-42290457D02*
X197413333Y-42623790D01*
X197294285Y-42099980D02*
X197175238Y-42457123D01*
X197484761Y-42457123D01*
X202685771Y-33948571D02*
X202661961Y-33972380D01*
X202590533Y-33996190D01*
X202542914Y-33996190D01*
X202471485Y-33972380D01*
X202423866Y-33924761D01*
X202400057Y-33877142D01*
X202376247Y-33781904D01*
X202376247Y-33710476D01*
X202400057Y-33615238D01*
X202423866Y-33567619D01*
X202471485Y-33520000D01*
X202542914Y-33496190D01*
X202590533Y-33496190D01*
X202661961Y-33520000D01*
X202685771Y-33543809D01*
X202876247Y-33543809D02*
X202900057Y-33520000D01*
X202947676Y-33496190D01*
X203066723Y-33496190D01*
X203114342Y-33520000D01*
X203138152Y-33543809D01*
X203161961Y-33591428D01*
X203161961Y-33639047D01*
X203138152Y-33710476D01*
X202852438Y-33996190D01*
X203161961Y-33996190D01*
X203328628Y-33496190D02*
X203638152Y-33496190D01*
X203471485Y-33686666D01*
X203542914Y-33686666D01*
X203590533Y-33710476D01*
X203614342Y-33734285D01*
X203638152Y-33781904D01*
X203638152Y-33900952D01*
X203614342Y-33948571D01*
X203590533Y-33972380D01*
X203542914Y-33996190D01*
X203400057Y-33996190D01*
X203352438Y-33972380D01*
X203328628Y-33948571D01*
X198051790Y-55014628D02*
X197813695Y-55181295D01*
X198051790Y-55300342D02*
X197551790Y-55300342D01*
X197551790Y-55109866D01*
X197575600Y-55062247D01*
X197599409Y-55038438D01*
X197647028Y-55014628D01*
X197718457Y-55014628D01*
X197766076Y-55038438D01*
X197789885Y-55062247D01*
X197813695Y-55109866D01*
X197813695Y-55300342D01*
X197551790Y-54847961D02*
X197551790Y-54538438D01*
X197742266Y-54705104D01*
X197742266Y-54633676D01*
X197766076Y-54586057D01*
X197789885Y-54562247D01*
X197837504Y-54538438D01*
X197956552Y-54538438D01*
X198004171Y-54562247D01*
X198027980Y-54586057D01*
X198051790Y-54633676D01*
X198051790Y-54776533D01*
X198027980Y-54824152D01*
X198004171Y-54847961D01*
X197551790Y-54371771D02*
X197551790Y-54062247D01*
X197742266Y-54228914D01*
X197742266Y-54157485D01*
X197766076Y-54109866D01*
X197789885Y-54086057D01*
X197837504Y-54062247D01*
X197956552Y-54062247D01*
X198004171Y-54086057D01*
X198027980Y-54109866D01*
X198051790Y-54157485D01*
X198051790Y-54300342D01*
X198027980Y-54347961D01*
X198004171Y-54371771D01*
X223110552Y-35206990D02*
X223110552Y-34706990D01*
X223229600Y-34706990D01*
X223301028Y-34730800D01*
X223348647Y-34778419D01*
X223372457Y-34826038D01*
X223396266Y-34921276D01*
X223396266Y-34992704D01*
X223372457Y-35087942D01*
X223348647Y-35135561D01*
X223301028Y-35183180D01*
X223229600Y-35206990D01*
X223110552Y-35206990D01*
X223824838Y-34706990D02*
X223729600Y-34706990D01*
X223681980Y-34730800D01*
X223658171Y-34754609D01*
X223610552Y-34826038D01*
X223586742Y-34921276D01*
X223586742Y-35111752D01*
X223610552Y-35159371D01*
X223634361Y-35183180D01*
X223681980Y-35206990D01*
X223777219Y-35206990D01*
X223824838Y-35183180D01*
X223848647Y-35159371D01*
X223872457Y-35111752D01*
X223872457Y-34992704D01*
X223848647Y-34945085D01*
X223824838Y-34921276D01*
X223777219Y-34897466D01*
X223681980Y-34897466D01*
X223634361Y-34921276D01*
X223610552Y-34945085D01*
X223586742Y-34992704D01*
X149878571Y-43291428D02*
X149902380Y-43315238D01*
X149926190Y-43386666D01*
X149926190Y-43434285D01*
X149902380Y-43505714D01*
X149854761Y-43553333D01*
X149807142Y-43577142D01*
X149711904Y-43600952D01*
X149640476Y-43600952D01*
X149545238Y-43577142D01*
X149497619Y-43553333D01*
X149450000Y-43505714D01*
X149426190Y-43434285D01*
X149426190Y-43386666D01*
X149450000Y-43315238D01*
X149473809Y-43291428D01*
X149926190Y-42815238D02*
X149926190Y-43100952D01*
X149926190Y-42958095D02*
X149426190Y-42958095D01*
X149497619Y-43005714D01*
X149545238Y-43053333D01*
X149569047Y-43100952D01*
X149640476Y-42529523D02*
X149616666Y-42577142D01*
X149592857Y-42600952D01*
X149545238Y-42624761D01*
X149521428Y-42624761D01*
X149473809Y-42600952D01*
X149450000Y-42577142D01*
X149426190Y-42529523D01*
X149426190Y-42434285D01*
X149450000Y-42386666D01*
X149473809Y-42362857D01*
X149521428Y-42339047D01*
X149545238Y-42339047D01*
X149592857Y-42362857D01*
X149616666Y-42386666D01*
X149640476Y-42434285D01*
X149640476Y-42529523D01*
X149664285Y-42577142D01*
X149688095Y-42600952D01*
X149735714Y-42624761D01*
X149830952Y-42624761D01*
X149878571Y-42600952D01*
X149902380Y-42577142D01*
X149926190Y-42529523D01*
X149926190Y-42434285D01*
X149902380Y-42386666D01*
X149878571Y-42362857D01*
X149830952Y-42339047D01*
X149735714Y-42339047D01*
X149688095Y-42362857D01*
X149664285Y-42386666D01*
X149640476Y-42434285D01*
X154003466Y-58016190D02*
X153836800Y-57778095D01*
X153717752Y-58016190D02*
X153717752Y-57516190D01*
X153908228Y-57516190D01*
X153955847Y-57540000D01*
X153979657Y-57563809D01*
X154003466Y-57611428D01*
X154003466Y-57682857D01*
X153979657Y-57730476D01*
X153955847Y-57754285D01*
X153908228Y-57778095D01*
X153717752Y-57778095D01*
X154479657Y-58016190D02*
X154193942Y-58016190D01*
X154336800Y-58016190D02*
X154336800Y-57516190D01*
X154289180Y-57587619D01*
X154241561Y-57635238D01*
X154193942Y-57659047D01*
X212998171Y-42169771D02*
X212974361Y-42193580D01*
X212902933Y-42217390D01*
X212855314Y-42217390D01*
X212783885Y-42193580D01*
X212736266Y-42145961D01*
X212712457Y-42098342D01*
X212688647Y-42003104D01*
X212688647Y-41931676D01*
X212712457Y-41836438D01*
X212736266Y-41788819D01*
X212783885Y-41741200D01*
X212855314Y-41717390D01*
X212902933Y-41717390D01*
X212974361Y-41741200D01*
X212998171Y-41765009D01*
X213164838Y-41717390D02*
X213474361Y-41717390D01*
X213307695Y-41907866D01*
X213379123Y-41907866D01*
X213426742Y-41931676D01*
X213450552Y-41955485D01*
X213474361Y-42003104D01*
X213474361Y-42122152D01*
X213450552Y-42169771D01*
X213426742Y-42193580D01*
X213379123Y-42217390D01*
X213236266Y-42217390D01*
X213188647Y-42193580D01*
X213164838Y-42169771D01*
X213760076Y-41931676D02*
X213712457Y-41907866D01*
X213688647Y-41884057D01*
X213664838Y-41836438D01*
X213664838Y-41812628D01*
X213688647Y-41765009D01*
X213712457Y-41741200D01*
X213760076Y-41717390D01*
X213855314Y-41717390D01*
X213902933Y-41741200D01*
X213926742Y-41765009D01*
X213950552Y-41812628D01*
X213950552Y-41836438D01*
X213926742Y-41884057D01*
X213902933Y-41907866D01*
X213855314Y-41931676D01*
X213760076Y-41931676D01*
X213712457Y-41955485D01*
X213688647Y-41979295D01*
X213664838Y-42026914D01*
X213664838Y-42122152D01*
X213688647Y-42169771D01*
X213712457Y-42193580D01*
X213760076Y-42217390D01*
X213855314Y-42217390D01*
X213902933Y-42193580D01*
X213926742Y-42169771D01*
X213950552Y-42122152D01*
X213950552Y-42026914D01*
X213926742Y-41979295D01*
X213902933Y-41955485D01*
X213855314Y-41931676D01*
X189434171Y-52776171D02*
X189410361Y-52799980D01*
X189338933Y-52823790D01*
X189291314Y-52823790D01*
X189219885Y-52799980D01*
X189172266Y-52752361D01*
X189148457Y-52704742D01*
X189124647Y-52609504D01*
X189124647Y-52538076D01*
X189148457Y-52442838D01*
X189172266Y-52395219D01*
X189219885Y-52347600D01*
X189291314Y-52323790D01*
X189338933Y-52323790D01*
X189410361Y-52347600D01*
X189434171Y-52371409D01*
X189600838Y-52323790D02*
X189910361Y-52323790D01*
X189743695Y-52514266D01*
X189815123Y-52514266D01*
X189862742Y-52538076D01*
X189886552Y-52561885D01*
X189910361Y-52609504D01*
X189910361Y-52728552D01*
X189886552Y-52776171D01*
X189862742Y-52799980D01*
X189815123Y-52823790D01*
X189672266Y-52823790D01*
X189624647Y-52799980D01*
X189600838Y-52776171D01*
X190077028Y-52323790D02*
X190410361Y-52323790D01*
X190196076Y-52823790D01*
X200236190Y-28187047D02*
X199736190Y-28187047D01*
X199736190Y-28068000D01*
X199760000Y-27996571D01*
X199807619Y-27948952D01*
X199855238Y-27925142D01*
X199950476Y-27901333D01*
X200021904Y-27901333D01*
X200117142Y-27925142D01*
X200164761Y-27948952D01*
X200212380Y-27996571D01*
X200236190Y-28068000D01*
X200236190Y-28187047D01*
X199783809Y-27710857D02*
X199760000Y-27687047D01*
X199736190Y-27639428D01*
X199736190Y-27520380D01*
X199760000Y-27472761D01*
X199783809Y-27448952D01*
X199831428Y-27425142D01*
X199879047Y-27425142D01*
X199950476Y-27448952D01*
X200236190Y-27734666D01*
X200236190Y-27425142D01*
X216952571Y-51370933D02*
X216976380Y-51394742D01*
X217000190Y-51466171D01*
X217000190Y-51513790D01*
X216976380Y-51585219D01*
X216928761Y-51632838D01*
X216881142Y-51656647D01*
X216785904Y-51680457D01*
X216714476Y-51680457D01*
X216619238Y-51656647D01*
X216571619Y-51632838D01*
X216524000Y-51585219D01*
X216500190Y-51513790D01*
X216500190Y-51466171D01*
X216524000Y-51394742D01*
X216547809Y-51370933D01*
X216547809Y-51180457D02*
X216524000Y-51156647D01*
X216500190Y-51109028D01*
X216500190Y-50989980D01*
X216524000Y-50942361D01*
X216547809Y-50918552D01*
X216595428Y-50894742D01*
X216643047Y-50894742D01*
X216714476Y-50918552D01*
X217000190Y-51204266D01*
X217000190Y-50894742D01*
X200236190Y-29511028D02*
X199998095Y-29677695D01*
X200236190Y-29796742D02*
X199736190Y-29796742D01*
X199736190Y-29606266D01*
X199760000Y-29558647D01*
X199783809Y-29534838D01*
X199831428Y-29511028D01*
X199902857Y-29511028D01*
X199950476Y-29534838D01*
X199974285Y-29558647D01*
X199998095Y-29606266D01*
X199998095Y-29796742D01*
X200236190Y-29034838D02*
X200236190Y-29320552D01*
X200236190Y-29177695D02*
X199736190Y-29177695D01*
X199807619Y-29225314D01*
X199855238Y-29272933D01*
X199879047Y-29320552D01*
X199736190Y-28582457D02*
X199736190Y-28820552D01*
X199974285Y-28844361D01*
X199950476Y-28820552D01*
X199926666Y-28772933D01*
X199926666Y-28653885D01*
X199950476Y-28606266D01*
X199974285Y-28582457D01*
X200021904Y-28558647D01*
X200140952Y-28558647D01*
X200188571Y-28582457D01*
X200212380Y-28606266D01*
X200236190Y-28653885D01*
X200236190Y-28772933D01*
X200212380Y-28820552D01*
X200188571Y-28844361D01*
X189466190Y-48491428D02*
X189228095Y-48658095D01*
X189466190Y-48777142D02*
X188966190Y-48777142D01*
X188966190Y-48586666D01*
X188990000Y-48539047D01*
X189013809Y-48515238D01*
X189061428Y-48491428D01*
X189132857Y-48491428D01*
X189180476Y-48515238D01*
X189204285Y-48539047D01*
X189228095Y-48586666D01*
X189228095Y-48777142D01*
X189013809Y-48300952D02*
X188990000Y-48277142D01*
X188966190Y-48229523D01*
X188966190Y-48110476D01*
X188990000Y-48062857D01*
X189013809Y-48039047D01*
X189061428Y-48015238D01*
X189109047Y-48015238D01*
X189180476Y-48039047D01*
X189466190Y-48324761D01*
X189466190Y-48015238D01*
X189180476Y-47729523D02*
X189156666Y-47777142D01*
X189132857Y-47800952D01*
X189085238Y-47824761D01*
X189061428Y-47824761D01*
X189013809Y-47800952D01*
X188990000Y-47777142D01*
X188966190Y-47729523D01*
X188966190Y-47634285D01*
X188990000Y-47586666D01*
X189013809Y-47562857D01*
X189061428Y-47539047D01*
X189085238Y-47539047D01*
X189132857Y-47562857D01*
X189156666Y-47586666D01*
X189180476Y-47634285D01*
X189180476Y-47729523D01*
X189204285Y-47777142D01*
X189228095Y-47800952D01*
X189275714Y-47824761D01*
X189370952Y-47824761D01*
X189418571Y-47800952D01*
X189442380Y-47777142D01*
X189466190Y-47729523D01*
X189466190Y-47634285D01*
X189442380Y-47586666D01*
X189418571Y-47562857D01*
X189370952Y-47539047D01*
X189275714Y-47539047D01*
X189228095Y-47562857D01*
X189204285Y-47586666D01*
X189180476Y-47634285D01*
X193117104Y-39236095D02*
X193117104Y-39474190D01*
X192950438Y-38974190D02*
X193117104Y-39236095D01*
X193283771Y-38974190D01*
X193402819Y-38974190D02*
X193712342Y-38974190D01*
X193545676Y-39164666D01*
X193617104Y-39164666D01*
X193664723Y-39188476D01*
X193688533Y-39212285D01*
X193712342Y-39259904D01*
X193712342Y-39378952D01*
X193688533Y-39426571D01*
X193664723Y-39450380D01*
X193617104Y-39474190D01*
X193474247Y-39474190D01*
X193426628Y-39450380D01*
X193402819Y-39426571D01*
X146848571Y-39026533D02*
X146872380Y-39050342D01*
X146896190Y-39121771D01*
X146896190Y-39169390D01*
X146872380Y-39240819D01*
X146824761Y-39288438D01*
X146777142Y-39312247D01*
X146681904Y-39336057D01*
X146610476Y-39336057D01*
X146515238Y-39312247D01*
X146467619Y-39288438D01*
X146420000Y-39240819D01*
X146396190Y-39169390D01*
X146396190Y-39121771D01*
X146420000Y-39050342D01*
X146443809Y-39026533D01*
X146896190Y-38550342D02*
X146896190Y-38836057D01*
X146896190Y-38693200D02*
X146396190Y-38693200D01*
X146467619Y-38740819D01*
X146515238Y-38788438D01*
X146539047Y-38836057D01*
X206444971Y-44506571D02*
X206421161Y-44530380D01*
X206349733Y-44554190D01*
X206302114Y-44554190D01*
X206230685Y-44530380D01*
X206183066Y-44482761D01*
X206159257Y-44435142D01*
X206135447Y-44339904D01*
X206135447Y-44268476D01*
X206159257Y-44173238D01*
X206183066Y-44125619D01*
X206230685Y-44078000D01*
X206302114Y-44054190D01*
X206349733Y-44054190D01*
X206421161Y-44078000D01*
X206444971Y-44101809D01*
X206921161Y-44554190D02*
X206635447Y-44554190D01*
X206778304Y-44554190D02*
X206778304Y-44054190D01*
X206730685Y-44125619D01*
X206683066Y-44173238D01*
X206635447Y-44197047D01*
X207397352Y-44554190D02*
X207111638Y-44554190D01*
X207254495Y-44554190D02*
X207254495Y-44054190D01*
X207206876Y-44125619D01*
X207159257Y-44173238D01*
X207111638Y-44197047D01*
X192525771Y-42779371D02*
X192501961Y-42803180D01*
X192430533Y-42826990D01*
X192382914Y-42826990D01*
X192311485Y-42803180D01*
X192263866Y-42755561D01*
X192240057Y-42707942D01*
X192216247Y-42612704D01*
X192216247Y-42541276D01*
X192240057Y-42446038D01*
X192263866Y-42398419D01*
X192311485Y-42350800D01*
X192382914Y-42326990D01*
X192430533Y-42326990D01*
X192501961Y-42350800D01*
X192525771Y-42374609D01*
X193001961Y-42826990D02*
X192716247Y-42826990D01*
X192859104Y-42826990D02*
X192859104Y-42326990D01*
X192811485Y-42398419D01*
X192763866Y-42446038D01*
X192716247Y-42469847D01*
X193430533Y-42493657D02*
X193430533Y-42826990D01*
X193311485Y-42303180D02*
X193192438Y-42660323D01*
X193501961Y-42660323D01*
X203284190Y-52117028D02*
X203046095Y-52283695D01*
X203284190Y-52402742D02*
X202784190Y-52402742D01*
X202784190Y-52212266D01*
X202808000Y-52164647D01*
X202831809Y-52140838D01*
X202879428Y-52117028D01*
X202950857Y-52117028D01*
X202998476Y-52140838D01*
X203022285Y-52164647D01*
X203046095Y-52212266D01*
X203046095Y-52402742D01*
X203284190Y-51640838D02*
X203284190Y-51926552D01*
X203284190Y-51783695D02*
X202784190Y-51783695D01*
X202855619Y-51831314D01*
X202903238Y-51878933D01*
X202927047Y-51926552D01*
X202784190Y-51474171D02*
X202784190Y-51140838D01*
X203284190Y-51355123D01*
X200026190Y-55012628D02*
X199788095Y-55179295D01*
X200026190Y-55298342D02*
X199526190Y-55298342D01*
X199526190Y-55107866D01*
X199550000Y-55060247D01*
X199573809Y-55036438D01*
X199621428Y-55012628D01*
X199692857Y-55012628D01*
X199740476Y-55036438D01*
X199764285Y-55060247D01*
X199788095Y-55107866D01*
X199788095Y-55298342D01*
X199526190Y-54845961D02*
X199526190Y-54536438D01*
X199716666Y-54703104D01*
X199716666Y-54631676D01*
X199740476Y-54584057D01*
X199764285Y-54560247D01*
X199811904Y-54536438D01*
X199930952Y-54536438D01*
X199978571Y-54560247D01*
X200002380Y-54584057D01*
X200026190Y-54631676D01*
X200026190Y-54774533D01*
X200002380Y-54822152D01*
X199978571Y-54845961D01*
X199573809Y-54345961D02*
X199550000Y-54322152D01*
X199526190Y-54274533D01*
X199526190Y-54155485D01*
X199550000Y-54107866D01*
X199573809Y-54084057D01*
X199621428Y-54060247D01*
X199669047Y-54060247D01*
X199740476Y-54084057D01*
X200026190Y-54369771D01*
X200026190Y-54060247D01*
X162528571Y-39248571D02*
X162504761Y-39272380D01*
X162433333Y-39296190D01*
X162385714Y-39296190D01*
X162314285Y-39272380D01*
X162266666Y-39224761D01*
X162242857Y-39177142D01*
X162219047Y-39081904D01*
X162219047Y-39010476D01*
X162242857Y-38915238D01*
X162266666Y-38867619D01*
X162314285Y-38820000D01*
X162385714Y-38796190D01*
X162433333Y-38796190D01*
X162504761Y-38820000D01*
X162528571Y-38843809D01*
X163004761Y-39296190D02*
X162719047Y-39296190D01*
X162861904Y-39296190D02*
X162861904Y-38796190D01*
X162814285Y-38867619D01*
X162766666Y-38915238D01*
X162719047Y-38939047D01*
X163171428Y-38796190D02*
X163504761Y-38796190D01*
X163290476Y-39296190D01*
X206713190Y-46986228D02*
X206475095Y-47152895D01*
X206713190Y-47271942D02*
X206213190Y-47271942D01*
X206213190Y-47081466D01*
X206237000Y-47033847D01*
X206260809Y-47010038D01*
X206308428Y-46986228D01*
X206379857Y-46986228D01*
X206427476Y-47010038D01*
X206451285Y-47033847D01*
X206475095Y-47081466D01*
X206475095Y-47271942D01*
X206260809Y-46795752D02*
X206237000Y-46771942D01*
X206213190Y-46724323D01*
X206213190Y-46605276D01*
X206237000Y-46557657D01*
X206260809Y-46533847D01*
X206308428Y-46510038D01*
X206356047Y-46510038D01*
X206427476Y-46533847D01*
X206713190Y-46819561D01*
X206713190Y-46510038D01*
X206379857Y-46081466D02*
X206713190Y-46081466D01*
X206189380Y-46200514D02*
X206546523Y-46319561D01*
X206546523Y-46010038D01*
D15*
X160587258Y-42047500D02*
X160112742Y-42047500D01*
X160587258Y-43092500D02*
X160112742Y-43092500D01*
X159565000Y-33761252D02*
X159565000Y-33238748D01*
X161035000Y-33761252D02*
X161035000Y-33238748D01*
X149800378Y-54560000D02*
X150599622Y-54560000D01*
X149800378Y-53440000D02*
X150599622Y-53440000D01*
D16*
X185270000Y-53700000D02*
X185270000Y-37700000D01*
X185270000Y-37700000D02*
X172850000Y-37700000D01*
X169750000Y-37700000D02*
X163870000Y-37700000D01*
X185270000Y-53700000D02*
X172850000Y-53700000D01*
X163870000Y-53700000D02*
X163870000Y-37700000D01*
X169750000Y-53700000D02*
X163870000Y-53700000D01*
D17*
X168200000Y-54700000D02*
G75*
G03*
X168200000Y-54700000I-150000J0D01*
G01*
D15*
X177037258Y-56922500D02*
X176562742Y-56922500D01*
X177037258Y-55877500D02*
X176562742Y-55877500D01*
X154400000Y-31150000D02*
X158400000Y-31150000D01*
X154400000Y-27850000D02*
X154400000Y-31150000D01*
X161142164Y-37910000D02*
X161357836Y-37910000D01*
X161142164Y-37190000D02*
X161357836Y-37190000D01*
X151740000Y-42110000D02*
X151740000Y-43400000D01*
X151290000Y-34890000D02*
X151740000Y-34890000D01*
X158510000Y-35340000D02*
X158510000Y-34890000D01*
X158510000Y-42110000D02*
X158060000Y-42110000D01*
X158510000Y-41660000D02*
X158510000Y-42110000D01*
X151290000Y-35340000D02*
X151290000Y-34890000D01*
X151290000Y-41660000D02*
X151290000Y-42110000D01*
X151290000Y-42110000D02*
X151740000Y-42110000D01*
X158510000Y-34890000D02*
X158060000Y-34890000D01*
X161142164Y-36830000D02*
X161357836Y-36830000D01*
X161142164Y-36110000D02*
X161357836Y-36110000D01*
X177037258Y-54277500D02*
X176562742Y-54277500D01*
X177037258Y-55322500D02*
X176562742Y-55322500D01*
X154060000Y-29907836D02*
X154060000Y-29692164D01*
X153340000Y-29907836D02*
X153340000Y-29692164D01*
X159460000Y-29907836D02*
X159460000Y-29692164D01*
X158740000Y-29907836D02*
X158740000Y-29692164D01*
X148311252Y-37935000D02*
X147788748Y-37935000D01*
X148311252Y-36465000D02*
X147788748Y-36465000D01*
X156722500Y-49787258D02*
X156722500Y-49312742D01*
X155677500Y-49787258D02*
X155677500Y-49312742D01*
X156722500Y-46487258D02*
X156722500Y-46012742D01*
X155677500Y-46487258D02*
X155677500Y-46012742D01*
X153777500Y-46487258D02*
X153777500Y-46012742D01*
X154822500Y-46487258D02*
X154822500Y-46012742D01*
X152922500Y-46487258D02*
X152922500Y-46012742D01*
X151877500Y-46487258D02*
X151877500Y-46012742D01*
X149977500Y-46487258D02*
X149977500Y-46012742D01*
X151022500Y-46487258D02*
X151022500Y-46012742D01*
X157490000Y-49409420D02*
X157490000Y-49690580D01*
X158510000Y-49409420D02*
X158510000Y-49690580D01*
X161907836Y-44240000D02*
X161692164Y-44240000D01*
X161907836Y-44960000D02*
X161692164Y-44960000D01*
X161907836Y-46560000D02*
X161692164Y-46560000D01*
X161907836Y-45840000D02*
X161692164Y-45840000D01*
X172019252Y-55254400D02*
X170596748Y-55254400D01*
X172019252Y-57074400D02*
X170596748Y-57074400D01*
X159490000Y-48940580D02*
X159490000Y-48659420D01*
X160510000Y-48940580D02*
X160510000Y-48659420D01*
X200580000Y-24210000D02*
X200580000Y-28610000D01*
X203280000Y-33700000D02*
X203280000Y-32700000D01*
X203280000Y-32700000D02*
X202280000Y-33200000D01*
X200580000Y-28610000D02*
X200580000Y-28610000D01*
X192770000Y-38410000D02*
X192770000Y-22910000D01*
X200580000Y-32710000D02*
X200580000Y-37110000D01*
X201890000Y-38410000D02*
X192770000Y-38410000D01*
X200580000Y-37110000D02*
X194080000Y-37110000D01*
X192770000Y-22910000D02*
X201890000Y-22910000D01*
X194080000Y-37110000D02*
X194080000Y-24210000D01*
X200580000Y-28610000D02*
X201890000Y-28610000D01*
X201890000Y-22910000D02*
X201890000Y-38410000D01*
X201890000Y-32710000D02*
X200580000Y-32710000D01*
X194080000Y-24210000D02*
X200580000Y-24210000D01*
X202280000Y-33200000D02*
X203280000Y-33700000D01*
X162322500Y-49037258D02*
X162322500Y-48562742D01*
X161277500Y-49037258D02*
X161277500Y-48562742D01*
X155153641Y-32580000D02*
X154846359Y-32580000D01*
X155153641Y-31820000D02*
X154846359Y-31820000D01*
X150799300Y-49737258D02*
X150799300Y-49262742D01*
X149754300Y-49737258D02*
X149754300Y-49262742D01*
X152077500Y-49737258D02*
X152077500Y-49262742D01*
X153122500Y-49737258D02*
X153122500Y-49262742D01*
X153777500Y-49787258D02*
X153777500Y-49312742D01*
X154822500Y-49787258D02*
X154822500Y-49312742D01*
X164672500Y-32407258D02*
X164672500Y-31932742D01*
X163627500Y-32407258D02*
X163627500Y-31932742D01*
X161927500Y-32382258D02*
X161927500Y-31907742D01*
X162972500Y-32382258D02*
X162972500Y-31907742D01*
X168135000Y-30505000D02*
X168135000Y-29035000D01*
X168135000Y-29035000D02*
X165850000Y-29035000D01*
X165850000Y-30505000D02*
X168135000Y-30505000D01*
X207340000Y-47695000D02*
X225120000Y-47695000D01*
X225120000Y-57855000D02*
X207340000Y-57855000D01*
X225120000Y-47695000D02*
X225120000Y-57855000D01*
X207340000Y-57855000D02*
X207340000Y-47695000D01*
X205015000Y-61855000D02*
X206485000Y-61855000D01*
X205015000Y-59570000D02*
X205015000Y-61855000D01*
X206485000Y-61855000D02*
X206485000Y-59570000D01*
X216960000Y-57090000D02*
X206840000Y-57090000D01*
X216960000Y-66310000D02*
X206840000Y-66310000D01*
X216960000Y-66310000D02*
X216960000Y-64210000D01*
X217550000Y-61990000D02*
X216960000Y-61990000D01*
X206840000Y-66310000D02*
X206840000Y-64210000D01*
X216960000Y-61990000D02*
X216960000Y-57090000D01*
X206840000Y-61990000D02*
X206250000Y-61990000D01*
X217550000Y-64210000D02*
X216960000Y-64210000D01*
X206840000Y-64210000D02*
X206250000Y-64210000D01*
X206840000Y-61990000D02*
X206840000Y-57090000D01*
X206250000Y-61990000D02*
G75*
G03*
X206250000Y-64210000I0J-1110000D01*
G01*
X217550000Y-64210000D02*
G75*
G03*
X217550000Y-61990000I0J1110000D01*
G01*
X205227500Y-57132742D02*
X205227500Y-57607258D01*
X206272500Y-57132742D02*
X206272500Y-57607258D01*
X202180000Y-56473641D02*
X202180000Y-56166359D01*
X201420000Y-56473641D02*
X201420000Y-56166359D01*
X161142164Y-41030000D02*
X161357836Y-41030000D01*
X161142164Y-40310000D02*
X161357836Y-40310000D01*
X205590000Y-37162164D02*
X205590000Y-37377836D01*
X206310000Y-37162164D02*
X206310000Y-37377836D01*
X192263000Y-37149000D02*
X205023000Y-37149000D01*
X192263000Y-37149000D02*
X192263000Y-34489000D01*
X192263000Y-34489000D02*
X205023000Y-34489000D01*
X189663000Y-37149000D02*
X189663000Y-35819000D01*
X205023000Y-37149000D02*
X205023000Y-34489000D01*
X190993000Y-37149000D02*
X189663000Y-37149000D01*
X207221100Y-34091100D02*
X207221100Y-34760260D01*
X212478900Y-39348900D02*
X212478900Y-38679740D01*
X212478900Y-34760260D02*
X212478900Y-34091100D01*
X212478900Y-34091100D02*
X211809740Y-34091100D01*
X207221100Y-39348900D02*
X207890260Y-39348900D01*
X207221100Y-38679740D02*
X207221100Y-39348900D01*
X207890260Y-34091100D02*
X207221100Y-34091100D01*
X211809740Y-39348900D02*
X212478900Y-39348900D01*
D11*
X213164700Y-35529499D02*
X213164700Y-35910499D01*
X213164700Y-35910499D02*
X212910700Y-35910499D01*
X212910700Y-35910499D02*
X212910700Y-35529499D01*
X212910700Y-35529499D02*
X213164700Y-35529499D01*
G36*
X213164700Y-35910499D02*
G01*
X212910700Y-35910499D01*
X212910700Y-35529499D01*
X213164700Y-35529499D01*
X213164700Y-35910499D01*
G37*
X213164700Y-35910499D02*
X212910700Y-35910499D01*
X212910700Y-35529499D01*
X213164700Y-35529499D01*
X213164700Y-35910499D01*
X209159501Y-39780700D02*
X209159501Y-40034700D01*
X209159501Y-40034700D02*
X209540501Y-40034700D01*
X209540501Y-40034700D02*
X209540501Y-39780700D01*
X209540501Y-39780700D02*
X209159501Y-39780700D01*
G36*
X209540501Y-40034700D02*
G01*
X209159501Y-40034700D01*
X209159501Y-39780700D01*
X209540501Y-39780700D01*
X209540501Y-40034700D01*
G37*
X209540501Y-40034700D02*
X209159501Y-40034700D01*
X209159501Y-39780700D01*
X209540501Y-39780700D01*
X209540501Y-40034700D01*
D15*
X194802000Y-64541000D02*
X194802000Y-66441000D01*
X194802000Y-66441000D02*
X204202000Y-66441000D01*
X204202000Y-64541000D02*
X204202000Y-66441000D01*
X194802000Y-60641000D02*
X194802000Y-62641000D01*
X204202000Y-60641000D02*
X204202000Y-62641000D01*
X223745563Y-47830000D02*
X221060000Y-47830000D01*
X224810000Y-46765563D02*
X224810000Y-37310000D01*
X224810000Y-37310000D02*
X221060000Y-37310000D01*
X223745563Y-47830000D02*
X224810000Y-46765563D01*
X215354437Y-47830000D02*
X218040000Y-47830000D01*
X216165000Y-48695000D02*
X217415000Y-48695000D01*
X216790000Y-49320000D02*
X216790000Y-48070000D01*
X215354437Y-47830000D02*
X214290000Y-46765563D01*
X214290000Y-46765563D02*
X214290000Y-37310000D01*
X214290000Y-37310000D02*
X218040000Y-37310000D01*
X199180000Y-56473641D02*
X199180000Y-56166359D01*
X198420000Y-56473641D02*
X198420000Y-56166359D01*
X204322936Y-33030000D02*
X207377064Y-33030000D01*
X204322936Y-30310000D02*
X207377064Y-30310000D01*
X158144564Y-45602400D02*
X158360236Y-45602400D01*
X158144564Y-44882400D02*
X158360236Y-44882400D01*
X159160000Y-33677836D02*
X159160000Y-33462164D01*
X158440000Y-33677836D02*
X158440000Y-33462164D01*
X178928000Y-34489000D02*
X178928000Y-37149000D01*
X181528000Y-34489000D02*
X181528000Y-35819000D01*
X178928000Y-37149000D02*
X166168000Y-37149000D01*
X180198000Y-34489000D02*
X181528000Y-34489000D01*
X166168000Y-34489000D02*
X166168000Y-37149000D01*
X178928000Y-34489000D02*
X166168000Y-34489000D01*
X189920000Y-49993641D02*
X189920000Y-49686359D01*
X190680000Y-49993641D02*
X190680000Y-49686359D01*
X168135000Y-27335000D02*
X165850000Y-27335000D01*
X168135000Y-28805000D02*
X168135000Y-27335000D01*
X165850000Y-28805000D02*
X168135000Y-28805000D01*
X216790000Y-34960580D02*
X216790000Y-34679420D01*
X217810000Y-34960580D02*
X217810000Y-34679420D01*
X218909420Y-48810000D02*
X219190580Y-48810000D01*
X218909420Y-49830000D02*
X219190580Y-49830000D01*
X201190000Y-32853641D02*
X201190000Y-32546359D01*
X200430000Y-32853641D02*
X200430000Y-32546359D01*
X174690000Y-61377500D02*
X166910000Y-61377500D01*
X173300000Y-58287500D02*
X173600000Y-57687500D01*
X170800000Y-61377500D02*
X171120000Y-61377500D01*
X175910000Y-65377500D02*
X174690000Y-65377500D01*
X174690000Y-60377500D02*
X175910000Y-60377500D01*
X174690000Y-65377500D02*
X174690000Y-60377500D01*
X171120000Y-64797500D02*
X170800000Y-64877500D01*
X173620000Y-61377500D02*
X173620000Y-64797500D01*
X167980000Y-64797500D02*
X167980000Y-61377500D01*
X173600000Y-57687500D02*
X173000000Y-57687500D01*
X170800000Y-64877500D02*
X170480000Y-64797500D01*
X173000000Y-57687500D02*
X173300000Y-58287500D01*
X174690000Y-58177500D02*
X175910000Y-58177500D01*
X171120000Y-61377500D02*
X171120000Y-64797500D01*
X167980000Y-61377500D02*
X168300000Y-61377500D01*
X174690000Y-60377500D02*
X174690000Y-58177500D01*
X172980000Y-64797500D02*
X172980000Y-61377500D01*
X166910000Y-65377500D02*
X166910000Y-60377500D01*
X173300000Y-61377500D02*
X173620000Y-61377500D01*
X170480000Y-61377500D02*
X170800000Y-61377500D01*
X168620000Y-61377500D02*
X168620000Y-64797500D01*
X175910000Y-66597500D02*
X165690000Y-66597500D01*
X173620000Y-64797500D02*
X173300000Y-64877500D01*
X165690000Y-65377500D02*
X166910000Y-65377500D01*
X172980000Y-61377500D02*
X173300000Y-61377500D01*
X168300000Y-61377500D02*
X168620000Y-61377500D01*
X172130000Y-60377500D02*
X171970000Y-60377500D01*
X175910000Y-58177500D02*
X175910000Y-66597500D01*
X170480000Y-64797500D02*
X170480000Y-61377500D01*
X173300000Y-64877500D02*
X172980000Y-64797500D01*
X166910000Y-58177500D02*
X166910000Y-60377500D01*
X168300000Y-64877500D02*
X167980000Y-64797500D01*
X165690000Y-58177500D02*
X166910000Y-58177500D01*
X165690000Y-66597500D02*
X165690000Y-58177500D01*
X168620000Y-64797500D02*
X168300000Y-64877500D01*
X166910000Y-60377500D02*
X165690000Y-60377500D01*
X169630000Y-60377500D02*
X169470000Y-60377500D01*
X216235000Y-34608748D02*
X216235000Y-36031252D01*
X214415000Y-34608748D02*
X214415000Y-36031252D01*
X163440000Y-58177500D02*
X164660000Y-58177500D01*
X154440000Y-58177500D02*
X155660000Y-58177500D01*
X162050000Y-64877500D02*
X161730000Y-64797500D01*
X159870000Y-61377500D02*
X159870000Y-64797500D01*
X163440000Y-60377500D02*
X164660000Y-60377500D01*
X154440000Y-65377500D02*
X155660000Y-65377500D01*
X156730000Y-64797500D02*
X156730000Y-61377500D01*
X157050000Y-61377500D02*
X157370000Y-61377500D01*
X163440000Y-60377500D02*
X163440000Y-58177500D01*
X162370000Y-61377500D02*
X162370000Y-64797500D01*
X162350000Y-57687500D02*
X161750000Y-57687500D01*
X155660000Y-58177500D02*
X155660000Y-60377500D01*
X163440000Y-61377500D02*
X155660000Y-61377500D01*
X159230000Y-61377500D02*
X159550000Y-61377500D01*
X159870000Y-64797500D02*
X159550000Y-64877500D01*
X162050000Y-61377500D02*
X162370000Y-61377500D01*
X155660000Y-60377500D02*
X154440000Y-60377500D01*
X163440000Y-65377500D02*
X163440000Y-60377500D01*
X164660000Y-66597500D02*
X154440000Y-66597500D01*
X154440000Y-66597500D02*
X154440000Y-58177500D01*
X157050000Y-64877500D02*
X156730000Y-64797500D01*
X157370000Y-61377500D02*
X157370000Y-64797500D01*
X164660000Y-65377500D02*
X163440000Y-65377500D01*
X159550000Y-61377500D02*
X159870000Y-61377500D01*
X162050000Y-58287500D02*
X162350000Y-57687500D01*
X157370000Y-64797500D02*
X157050000Y-64877500D01*
X159230000Y-64797500D02*
X159230000Y-61377500D01*
X161750000Y-57687500D02*
X162050000Y-58287500D01*
X160880000Y-60377500D02*
X160720000Y-60377500D01*
X161730000Y-64797500D02*
X161730000Y-61377500D01*
X162370000Y-64797500D02*
X162050000Y-64877500D01*
X158380000Y-60377500D02*
X158220000Y-60377500D01*
X159550000Y-64877500D02*
X159230000Y-64797500D01*
X164660000Y-58177500D02*
X164660000Y-66597500D01*
X161730000Y-61377500D02*
X162050000Y-61377500D01*
X156730000Y-61377500D02*
X157050000Y-61377500D01*
X155660000Y-65377500D02*
X155660000Y-60377500D01*
X218588748Y-52810000D02*
X220011252Y-52810000D01*
X218588748Y-54630000D02*
X220011252Y-54630000D01*
X207070000Y-48473641D02*
X207070000Y-48166359D01*
X207830000Y-48473641D02*
X207830000Y-48166359D01*
X158142164Y-44630000D02*
X158357836Y-44630000D01*
X158142164Y-43910000D02*
X158357836Y-43910000D01*
X204802164Y-48680000D02*
X205017836Y-48680000D01*
X204802164Y-47960000D02*
X205017836Y-47960000D01*
X198837836Y-41900000D02*
X198622164Y-41900000D01*
X198837836Y-41180000D02*
X198622164Y-41180000D01*
X208870000Y-27012500D02*
X208550000Y-27012500D01*
X206050000Y-27012500D02*
X205730000Y-27012500D01*
X213230000Y-23592500D02*
X213550000Y-23512500D01*
X206350000Y-30702500D02*
X206050000Y-30102500D01*
X206370000Y-27012500D02*
X206050000Y-27012500D01*
X216160000Y-21792500D02*
X216160000Y-30212500D01*
X216160000Y-23012500D02*
X214940000Y-23012500D01*
X203440000Y-30212500D02*
X203440000Y-21792500D01*
X208230000Y-27012500D02*
X208230000Y-23592500D01*
X204660000Y-27012500D02*
X214940000Y-27012500D01*
X208550000Y-27012500D02*
X208230000Y-27012500D01*
X214940000Y-30212500D02*
X214940000Y-28012500D01*
X210730000Y-23592500D02*
X211050000Y-23512500D01*
X203440000Y-21792500D02*
X216160000Y-21792500D01*
X213870000Y-27012500D02*
X213550000Y-27012500D01*
X213550000Y-23512500D02*
X213870000Y-23592500D01*
X203440000Y-23012500D02*
X204660000Y-23012500D01*
X204660000Y-28012500D02*
X204660000Y-30212500D01*
X210730000Y-27012500D02*
X210730000Y-23592500D01*
X212220000Y-28012500D02*
X212380000Y-28012500D01*
X213550000Y-27012500D02*
X213230000Y-27012500D01*
X209720000Y-28012500D02*
X209880000Y-28012500D01*
X213870000Y-23592500D02*
X213870000Y-27012500D01*
X207220000Y-28012500D02*
X207380000Y-28012500D01*
X206370000Y-23592500D02*
X206370000Y-27012500D01*
X205750000Y-30702500D02*
X206350000Y-30702500D01*
X211050000Y-27012500D02*
X210730000Y-27012500D01*
X204660000Y-28012500D02*
X203440000Y-28012500D01*
X206050000Y-23512500D02*
X206370000Y-23592500D01*
X204660000Y-23012500D02*
X204660000Y-28012500D01*
X216160000Y-30212500D02*
X214940000Y-30212500D01*
X211370000Y-23592500D02*
X211370000Y-27012500D01*
X211370000Y-27012500D02*
X211050000Y-27012500D01*
X205730000Y-23592500D02*
X206050000Y-23512500D01*
X214940000Y-28012500D02*
X216160000Y-28012500D01*
X208230000Y-23592500D02*
X208550000Y-23512500D01*
X214940000Y-23012500D02*
X214940000Y-28012500D01*
X211050000Y-23512500D02*
X211370000Y-23592500D01*
X208550000Y-23512500D02*
X208870000Y-23592500D01*
X205730000Y-27012500D02*
X205730000Y-23592500D01*
X208870000Y-23592500D02*
X208870000Y-27012500D01*
X213230000Y-27012500D02*
X213230000Y-23592500D01*
X204660000Y-30212500D02*
X203440000Y-30212500D01*
X206050000Y-30102500D02*
X205750000Y-30702500D01*
X201132000Y-52856164D02*
X201132000Y-53071836D01*
X200412000Y-52856164D02*
X200412000Y-53071836D01*
X200420000Y-56473641D02*
X200420000Y-56166359D01*
X201180000Y-56473641D02*
X201180000Y-56166359D01*
X215377064Y-30310000D02*
X212322936Y-30310000D01*
X215377064Y-33030000D02*
X212322936Y-33030000D01*
X195037836Y-41900000D02*
X194822164Y-41900000D01*
X195037836Y-41180000D02*
X194822164Y-41180000D01*
X201160000Y-30758164D02*
X201160000Y-30973836D01*
X200440000Y-30758164D02*
X200440000Y-30973836D01*
X199960000Y-51730000D02*
X199960000Y-52180000D01*
X199510000Y-44960000D02*
X199510000Y-43670000D01*
X192740000Y-51730000D02*
X192740000Y-52180000D01*
X192740000Y-44960000D02*
X193190000Y-44960000D01*
X199960000Y-44960000D02*
X199510000Y-44960000D01*
X199960000Y-52180000D02*
X199510000Y-52180000D01*
X199960000Y-45410000D02*
X199960000Y-44960000D01*
X192740000Y-52180000D02*
X193190000Y-52180000D01*
X192740000Y-45410000D02*
X192740000Y-44960000D01*
X167006742Y-58312500D02*
X167481258Y-58312500D01*
X167006742Y-57267500D02*
X167481258Y-57267500D01*
X188570000Y-49983641D02*
X188570000Y-49676359D01*
X187810000Y-49983641D02*
X187810000Y-49676359D01*
X207589400Y-41128000D02*
X211489400Y-41128000D01*
X207589400Y-41128000D02*
X207589400Y-43128000D01*
X207589400Y-43128000D02*
X211489400Y-43128000D01*
X203710000Y-53603641D02*
X203710000Y-53296359D01*
X204470000Y-53603641D02*
X204470000Y-53296359D01*
X200530000Y-44467836D02*
X200530000Y-44252164D01*
X201250000Y-44467836D02*
X201250000Y-44252164D01*
X196983641Y-41920000D02*
X196676359Y-41920000D01*
X196983641Y-41160000D02*
X196676359Y-41160000D01*
X205290580Y-33260000D02*
X205009420Y-33260000D01*
X205290580Y-34280000D02*
X205009420Y-34280000D01*
X197420000Y-56473641D02*
X197420000Y-56166359D01*
X198180000Y-56473641D02*
X198180000Y-56166359D01*
X218475000Y-33920000D02*
X218475000Y-35920000D01*
X218475000Y-35920000D02*
X222375000Y-35920000D01*
X218475000Y-33920000D02*
X222375000Y-33920000D01*
X150090000Y-42862164D02*
X150090000Y-43077836D01*
X150810000Y-42862164D02*
X150810000Y-43077836D01*
X155830742Y-58312500D02*
X156305258Y-58312500D01*
X155830742Y-57267500D02*
X156305258Y-57267500D01*
X212860400Y-40029420D02*
X212860400Y-40310580D01*
X213880400Y-40029420D02*
X213880400Y-40310580D01*
X191583436Y-52917600D02*
X191367764Y-52917600D01*
X191583436Y-52197600D02*
X191367764Y-52197600D01*
X200385000Y-28505000D02*
X202670000Y-28505000D01*
X200385000Y-27035000D02*
X200385000Y-28505000D01*
X202670000Y-27035000D02*
X200385000Y-27035000D01*
X218588748Y-50410000D02*
X220011252Y-50410000D01*
X218588748Y-52230000D02*
X220011252Y-52230000D01*
X202126858Y-28717900D02*
X201652342Y-28717900D01*
X202126858Y-29762900D02*
X201652342Y-29762900D01*
X188840000Y-49993641D02*
X188840000Y-49686359D01*
X189600000Y-49993641D02*
X189600000Y-49686359D01*
X199900000Y-37340000D02*
X194150000Y-37340000D01*
X199900000Y-40940000D02*
X199900000Y-37340000D01*
X194150000Y-40940000D02*
X199900000Y-40940000D01*
X148385380Y-39453200D02*
X148104220Y-39453200D01*
X148385380Y-38433200D02*
X148104220Y-38433200D01*
X209103148Y-43418000D02*
X210525652Y-43418000D01*
X209103148Y-45238000D02*
X210525652Y-45238000D01*
X194382164Y-42240000D02*
X194597836Y-42240000D01*
X194382164Y-42960000D02*
X194597836Y-42960000D01*
X202670000Y-53286359D02*
X202670000Y-53593641D01*
X203430000Y-53286359D02*
X203430000Y-53593641D01*
X200180000Y-56473641D02*
X200180000Y-56166359D01*
X199420000Y-56473641D02*
X199420000Y-56166359D01*
X161142164Y-39509096D02*
X161357836Y-39509096D01*
X161142164Y-38789096D02*
X161357836Y-38789096D01*
X206070000Y-48473641D02*
X206070000Y-48166359D01*
X206830000Y-48473641D02*
X206830000Y-48166359D01*
M02*
