M48
; DRILL file {KiCad (5.1.8-0-10_14)} date Thursday, September 02, 2021 at 11:11:15 AM
; FORMAT={-:-/ absolute / metric / decimal}
; #@! TF.CreationDate,2021-09-02T11:11:15+02:00
; #@! TF.GenerationSoftware,Kicad,Pcbnew,(5.1.8-0-10_14)
; #@! TF.FileFunction,Plated,1,2,PTH
FMAT,2
METRIC
T1C0.200
T2C0.400
T3C0.500
T4C0.762
T5C0.800
T6C0.890
T7C1.000
T8C1.020
T9C1.630
T10C1.900
T11C3.200
%
G90
G05
T1
X211.225Y-29.725
X211.225Y-31.1
X211.225Y-32.475
X212.6Y-29.725
X212.6Y-31.1
X212.6Y-32.475
X213.975Y-29.725
X213.975Y-31.1
X213.975Y-32.475
T2
X147.0Y-35.6
X147.05Y-33.85
X147.4Y-52.5
X147.45Y-54.25
X147.55Y-57.1
X147.6Y-40.4
X148.85Y-34.9
X150.05Y-55.7
X150.9Y-34.45
X151.1Y-43.55
X152.4Y-54.0
X152.6Y-37.95
X152.6Y-55.2
X152.8Y-27.4
X152.8Y-32.6
X152.8Y-51.6
X152.95Y-36.1
X153.0Y-63.95
X153.15Y-39.75
X153.35Y-40.7
X153.4Y-44.1
X153.6Y-54.0
X153.6Y-56.2
X153.7Y-28.4
X153.9Y-36.75
X154.05Y-61.75
X154.25Y-37.7
X154.5Y-58.7
X154.65Y-40.85
X155.0Y-55.4
X155.05Y-63.45
X155.1Y-36.75
X155.2Y-52.4
X155.35Y-35.75
X155.8Y-56.6
X156.2Y-27.4
X156.3Y-36.65
X156.8Y-53.4
X156.8Y-55.4
X157.15Y-31.85
X157.3Y-38.25
X157.4Y-61.8
X157.6Y-40.9
X157.6Y-45.4
X158.0Y-47.75
X158.0Y-52.4
X158.0Y-56.6
X158.0Y-63.75
X158.6Y-43.2
X158.8Y-32.2
X159.2Y-53.4
X159.2Y-55.4
X159.3Y-50.6
X159.6Y-44.05
X159.6Y-45.2
X160.2Y-27.8
X160.4Y-31.5
X160.4Y-52.4
X160.4Y-56.6
X160.55Y-40.0
X160.55Y-59.3
X160.6Y-29.8
X160.7Y-61.9
X160.8Y-51.4
X161.4Y-53.4
X161.4Y-55.4
X161.6Y-58.4
X162.0Y-29.4
X162.0Y-51.8
X162.0Y-56.6
X162.4Y-59.6
X162.45Y-38.8
X162.45Y-41.05
X162.5Y-37.7
X162.7Y-58.2
X162.75Y-42.6
X163.1Y-34.9
X163.15Y-57.05
X163.2Y-47.8
X163.2Y-51.2
X163.2Y-52.4
X163.2Y-53.4
X163.2Y-55.4
X163.25Y-37.2
X163.3Y-49.8
X163.35Y-34.65
X163.5Y-39.9
X163.5Y-63.7
X163.6Y-27.8
X164.4Y-56.6
X164.8Y-55.4
X165.8Y-31.4
X165.8Y-54.6
X166.0Y-56.3
X166.55Y-63.75
X166.6Y-34.45
X168.4Y-27.4
X168.7Y-56.2
X168.8Y-37.0
X169.15Y-59.55
X169.65Y-33.2
X169.65Y-63.75
X170.25Y-27.3
X170.65Y-29.15
X170.75Y-31.1
X171.0Y-59.45
X171.15Y-34.45
X171.55Y-57.15
X173.45Y-63.4
X174.75Y-57.3
X175.05Y-55.2
X175.9Y-61.0
X176.3Y-63.45
X176.5Y-29.4
X176.9Y-32.35
X177.15Y-27.5
X178.15Y-33.45
X178.55Y-44.75
X178.75Y-37.4
X178.75Y-47.8
X179.1Y-54.05
X179.45Y-46.35
X179.5Y-43.75
X180.05Y-37.75
X182.0Y-57.1
X183.0Y-33.85
X183.0Y-50.85
X183.0Y-56.0
X183.05Y-35.25
X183.15Y-39.45
X183.15Y-47.75
X183.2Y-44.85
X187.8Y-45.7
X188.0Y-33.9
X188.0Y-47.1
X188.1Y-41.2
X188.6Y-35.2
X188.7Y-49.5
X189.0Y-45.9
X189.1Y-40.9
X189.1Y-57.2
X189.3Y-48.4
X191.1Y-57.2
X191.6Y-51.7
X192.5Y-47.8
X193.1Y-44.7
X193.1Y-44.7
X193.4Y-43.2
X193.6Y-39.2
X193.65Y-47.3
X193.8Y-32.9
X193.85Y-54.9
X194.1Y-27.45
X194.1Y-37.7
X194.1Y-45.7
X194.6Y-28.7
X194.6Y-39.2
X194.7Y-47.1
X194.736Y-38.3
X194.75Y-58.8
X194.8Y-42.4
X194.8Y-44.3
X194.8Y-60.3
X194.9Y-62.0
X195.2Y-52.9
X195.55Y-43.1
X195.6Y-46.5
X195.8Y-38.5
X195.8Y-63.7
X196.1Y-37.7
X196.2Y-44.3
X196.4Y-55.5
X196.6Y-47.7
X196.65Y-46.5
X197.15Y-31.9
X197.8Y-42.9
X198.0Y-58.7
X198.1Y-63.5
X198.2Y-55.7
X198.85Y-39.95
X198.95Y-61.5
X199.0Y-51.4
X199.1Y-37.2
X199.8Y-58.5
X199.8Y-63.3
X200.6Y-37.2
X200.85Y-29.6
X201.0Y-32.4
X201.1Y-27.7
X201.6Y-45.5
X201.8Y-51.7
X202.0Y-49.0
X202.0Y-53.3
X202.8Y-31.1
X202.8Y-40.9
X202.8Y-45.5
X202.8Y-55.3
X202.9Y-34.2
X203.1Y-27.7
X203.1Y-37.5
X203.1Y-48.9
X204.0Y-60.7
X204.195Y-41.705
X204.2Y-33.7
X204.2Y-44.5
X204.2Y-49.9
X204.2Y-56.9
X204.4Y-38.1
X204.4Y-63.3
X204.6Y-53.9
X204.8Y-27.5
X204.8Y-51.9
X205.8Y-34.3
X205.8Y-55.9
X205.8Y-58.6
X206.0Y-37.9
X206.0Y-51.7
X206.2Y-27.5
X207.0Y-45.7
X207.2Y-57.8
X207.8Y-61.5
X208.2Y-28.5
X208.8Y-34.9
X209.0Y-30.5
X209.0Y-31.5
X209.0Y-63.1
X209.2Y-44.7
X209.2Y-58.1
X209.4Y-28.5
X209.4Y-42.7
X209.4Y-46.1
X209.75Y-33.55
X210.2Y-48.9
X210.25Y-38.05
X210.4Y-28.1
X210.4Y-36.9
X210.6Y-34.1
X210.8Y-58.7
X210.8Y-60.5
X211.0Y-34.9
X211.8Y-50.3
X212.6Y-27.3
X212.8Y-57.5
X213.4Y-61.9
X214.0Y-38.1
X214.4Y-57.5
X215.037Y-28.737
X215.4Y-34.3
X215.6Y-27.9
X215.6Y-42.9
X215.8Y-37.9
X216.2Y-29.1
X216.2Y-32.7
X216.6Y-31.9
X216.6Y-49.9
X216.8Y-28.1
X216.8Y-30.1
X216.8Y-43.7
X217.0Y-31.1
X217.4Y-48.7
X217.8Y-56.1
X218.4Y-43.3
X218.6Y-27.5
X219.0Y-44.1
X219.4Y-53.1
X219.6Y-43.3
X220.2Y-44.1
X220.4Y-51.3
X220.6Y-43.3
X221.6Y-36.1
X221.8Y-53.5
X222.0Y-34.3
X222.4Y-37.7
X222.6Y-48.3
X222.8Y-35.3
X223.0Y-39.3
X224.2Y-57.3
T3
X178.2Y-30.2
X178.903Y-28.503
X178.903Y-31.897
X180.6Y-27.8
X180.6Y-32.6
X182.297Y-28.503
X182.297Y-31.897
X183.0Y-30.2
X219.2Y-61.175
X219.903Y-59.478
X219.903Y-62.872
X221.6Y-58.775
X221.6Y-63.575
X223.297Y-59.478
X223.297Y-62.872
X224.0Y-61.175
X178.2Y-61.2
X178.903Y-59.503
X178.903Y-62.897
X180.6Y-58.8
X180.6Y-63.6
X182.297Y-59.503
X182.297Y-62.897
X183.0Y-61.2
X188.2Y-61.2
X188.903Y-59.503
X188.903Y-62.897
X190.6Y-58.8
X190.6Y-63.6
X192.297Y-59.503
X192.297Y-62.897
X193.0Y-61.2
X188.2Y-30.2
X188.903Y-28.503
X188.903Y-31.897
X190.6Y-27.8
X190.6Y-32.6
X192.297Y-28.503
X192.297Y-31.897
X193.0Y-30.2
X147.2Y-61.2
X147.903Y-59.503
X147.903Y-62.897
X149.6Y-58.8
X149.6Y-63.6
X151.297Y-59.503
X151.297Y-62.897
X152.0Y-61.2
X147.2Y-30.2
X147.903Y-28.503
X147.903Y-31.897
X149.6Y-27.8
X149.6Y-32.6
X151.297Y-28.503
X151.297Y-31.897
X152.0Y-30.2
X219.2Y-30.2
X219.903Y-28.503
X219.903Y-31.897
X221.6Y-27.8
X221.6Y-32.6
X223.297Y-28.503
X223.297Y-31.897
X224.0Y-30.2
T4
X217.18Y-41.39
X219.72Y-41.39
X222.26Y-41.39
T5
X196.6Y-57.1
X196.6Y-59.64
X196.6Y-62.18
T6
X165.46Y-41.26
X165.46Y-43.8
X165.46Y-46.34
X165.46Y-48.88
X168.0Y-42.53
X168.0Y-45.07
X168.0Y-47.61
X168.0Y-50.15
T7
X164.96Y-35.8
X167.5Y-35.8
X170.04Y-35.8
X172.58Y-35.8
X175.12Y-35.8
X177.66Y-35.8
X180.2Y-35.8
X191.0Y-35.8
X193.54Y-35.8
X196.08Y-35.8
X198.62Y-35.8
X201.16Y-35.8
X203.7Y-35.8
X206.24Y-35.8
X164.3Y-59.4
X166.8Y-59.4
X206.4Y-63.1
X217.4Y-63.1
X196.06Y-28.12
X196.06Y-30.66
X196.06Y-33.2
X198.6Y-28.12
X198.6Y-30.66
X198.6Y-33.2
X172.6Y-28.12
X172.6Y-30.66
X172.6Y-33.2
X175.14Y-28.12
X175.14Y-30.66
X175.14Y-33.2
X156.4Y-59.4
X158.9Y-59.4
X147.6Y-41.9
X147.6Y-44.44
X147.6Y-46.98
X147.6Y-49.52
T8
X179.25Y-39.075
X179.25Y-41.615
X179.25Y-49.785
X179.25Y-52.325
T9
X171.3Y-37.955
X171.3Y-53.445
T10
X209.4Y-53.1
X214.4Y-53.1
T11
X190.6Y-61.2
X190.6Y-30.2
X149.6Y-61.2
X149.6Y-30.2
X221.6Y-30.2
X180.6Y-30.2
X221.6Y-61.175
X180.6Y-61.2
T0
M30
