%TF.GenerationSoftware,KiCad,Pcbnew,(5.1.8-0-10_14)*%
%TF.CreationDate,2021-09-02T11:11:10+02:00*%
%TF.ProjectId,ethersweep,65746865-7273-4776-9565-702e6b696361,2.0.1*%
%TF.SameCoordinates,Original*%
%TF.FileFunction,Paste,Bot*%
%TF.FilePolarity,Positive*%
%FSLAX46Y46*%
G04 Gerber Fmt 4.6, Leading zero omitted, Abs format (unit mm)*
G04 Created by KiCad (PCBNEW (5.1.8-0-10_14)) date 2021-09-02 11:11:10*
%MOMM*%
%LPD*%
G01*
G04 APERTURE LIST*
%TA.AperFunction,Profile*%
%ADD10C,0.150000*%
%TD*%
%ADD11R,3.150000X1.000000*%
%ADD12R,0.600000X1.400000*%
G04 APERTURE END LIST*
D10*
X221600000Y-26700000D02*
G75*
G02*
X225100000Y-30200000I0J-3500000D01*
G01*
X184100000Y-60700000D02*
X184100000Y-59400000D01*
X187100000Y-31800000D02*
X187100000Y-30700000D01*
X187100000Y-31800000D02*
G75*
G02*
X184100000Y-31800000I-1500000J0D01*
G01*
X187100000Y-61200000D02*
X187100000Y-59400000D01*
X184100000Y-31800000D02*
X184100000Y-30200000D01*
X184100000Y-59400000D02*
G75*
G02*
X187100000Y-59400000I1500000J0D01*
G01*
X184100000Y-61200000D02*
X184100000Y-60700000D01*
X187100000Y-30200000D02*
X187100000Y-30700000D01*
X174700000Y-56000000D02*
G75*
G03*
X174700000Y-56000000I-1500000J0D01*
G01*
X149600000Y-64700000D02*
G75*
G02*
X146100000Y-61200000I0J3500000D01*
G01*
X149600000Y-64700000D02*
X180600000Y-64700000D01*
X190600000Y-26700000D02*
X221600000Y-26700000D01*
X187100000Y-30200000D02*
G75*
G02*
X190600000Y-26700000I3500000J0D01*
G01*
X225100000Y-61200000D02*
G75*
G02*
X221600000Y-64700000I-3500000J0D01*
G01*
X190600000Y-64700000D02*
G75*
G02*
X187100000Y-61200000I0J3500000D01*
G01*
X190600000Y-64700000D02*
X221600000Y-64700000D01*
X225100000Y-61200000D02*
X225100000Y-30200000D01*
X146100000Y-30200000D02*
X146100000Y-61200000D01*
X184100000Y-61200000D02*
G75*
G02*
X180600000Y-64700000I-3500000J0D01*
G01*
X180600000Y-26700000D02*
G75*
G02*
X184100000Y-30200000I0J-3500000D01*
G01*
X146100000Y-30200000D02*
G75*
G02*
X149600000Y-26700000I3500000J0D01*
G01*
X180600000Y-26700000D02*
X149600000Y-26700000D01*
D11*
X208625000Y-29730000D03*
X203575000Y-29730000D03*
X208625000Y-32270000D03*
X203575000Y-32270000D03*
G36*
G01*
X163450000Y-29450000D02*
X163450000Y-31050000D01*
G75*
G02*
X163250000Y-31250000I-200000J0D01*
G01*
X162850000Y-31250000D01*
G75*
G02*
X162650000Y-31050000I0J200000D01*
G01*
X162650000Y-29450000D01*
G75*
G02*
X162850000Y-29250000I200000J0D01*
G01*
X163250000Y-29250000D01*
G75*
G02*
X163450000Y-29450000I0J-200000D01*
G01*
G37*
G36*
G01*
X167650000Y-29450000D02*
X167650000Y-31050000D01*
G75*
G02*
X167450000Y-31250000I-200000J0D01*
G01*
X167050000Y-31250000D01*
G75*
G02*
X166850000Y-31050000I0J200000D01*
G01*
X166850000Y-29450000D01*
G75*
G02*
X167050000Y-29250000I200000J0D01*
G01*
X167450000Y-29250000D01*
G75*
G02*
X167650000Y-29450000I0J-200000D01*
G01*
G37*
D12*
X204195000Y-43000000D03*
X205465000Y-43000000D03*
X206735000Y-43000000D03*
X208005000Y-43000000D03*
X208005000Y-48400000D03*
X206735000Y-48400000D03*
X205465000Y-48400000D03*
X204195000Y-48400000D03*
M02*
