%TF.GenerationSoftware,KiCad,Pcbnew,(5.1.8-0-10_14)*%
%TF.CreationDate,2021-09-02T11:11:12+02:00*%
%TF.ProjectId,ethersweep,65746865-7273-4776-9565-702e6b696361,2.0.1*%
%TF.SameCoordinates,Original*%
%TF.FileFunction,Soldermask,Bot*%
%TF.FilePolarity,Negative*%
%FSLAX46Y46*%
G04 Gerber Fmt 4.6, Leading zero omitted, Abs format (unit mm)*
G04 Created by KiCad (PCBNEW (5.1.8-0-10_14)) date 2021-09-02 11:11:12*
%MOMM*%
%LPD*%
G01*
G04 APERTURE LIST*
%TA.AperFunction,Profile*%
%ADD10C,0.150000*%
%TD*%
%ADD11C,0.902000*%
%ADD12C,6.502000*%
%ADD13O,1.802000X2.102000*%
%ADD14C,1.802000*%
%ADD15O,1.802000X1.802000*%
%ADD16C,2.102000*%
%ADD17C,1.500000*%
%ADD18C,1.632000*%
%ADD19C,2.547000*%
%ADD20C,3.352000*%
%ADD21C,1.542000*%
%ADD22C,1.502000*%
%ADD23C,3.602000*%
%ADD24C,1.626000*%
%ADD25C,0.100000*%
G04 APERTURE END LIST*
D10*
X221600000Y-26700000D02*
G75*
G02*
X225100000Y-30200000I0J-3500000D01*
G01*
X184100000Y-60700000D02*
X184100000Y-59400000D01*
X187100000Y-31800000D02*
X187100000Y-30700000D01*
X187100000Y-31800000D02*
G75*
G02*
X184100000Y-31800000I-1500000J0D01*
G01*
X187100000Y-61200000D02*
X187100000Y-59400000D01*
X184100000Y-31800000D02*
X184100000Y-30200000D01*
X184100000Y-59400000D02*
G75*
G02*
X187100000Y-59400000I1500000J0D01*
G01*
X184100000Y-61200000D02*
X184100000Y-60700000D01*
X187100000Y-30200000D02*
X187100000Y-30700000D01*
X174700000Y-56000000D02*
G75*
G03*
X174700000Y-56000000I-1500000J0D01*
G01*
X149600000Y-64700000D02*
G75*
G02*
X146100000Y-61200000I0J3500000D01*
G01*
X149600000Y-64700000D02*
X180600000Y-64700000D01*
X190600000Y-26700000D02*
X221600000Y-26700000D01*
X187100000Y-30200000D02*
G75*
G02*
X190600000Y-26700000I3500000J0D01*
G01*
X225100000Y-61200000D02*
G75*
G02*
X221600000Y-64700000I-3500000J0D01*
G01*
X190600000Y-64700000D02*
G75*
G02*
X187100000Y-61200000I0J3500000D01*
G01*
X190600000Y-64700000D02*
X221600000Y-64700000D01*
X225100000Y-61200000D02*
X225100000Y-30200000D01*
X146100000Y-30200000D02*
X146100000Y-61200000D01*
X184100000Y-61200000D02*
G75*
G02*
X180600000Y-64700000I-3500000J0D01*
G01*
X180600000Y-26700000D02*
G75*
G02*
X184100000Y-30200000I0J-3500000D01*
G01*
X146100000Y-30200000D02*
G75*
G02*
X149600000Y-26700000I3500000J0D01*
G01*
X180600000Y-26700000D02*
X149600000Y-26700000D01*
X221600000Y-26700000D02*
G75*
G02*
X225100000Y-30200000I0J-3500000D01*
G01*
X184100000Y-60700000D02*
X184100000Y-59400000D01*
X187100000Y-31800000D02*
X187100000Y-30700000D01*
X187100000Y-31800000D02*
G75*
G02*
X184100000Y-31800000I-1500000J0D01*
G01*
X187100000Y-61200000D02*
X187100000Y-59400000D01*
X184100000Y-31800000D02*
X184100000Y-30200000D01*
X184100000Y-59400000D02*
G75*
G02*
X187100000Y-59400000I1500000J0D01*
G01*
X184100000Y-61200000D02*
X184100000Y-60700000D01*
X187100000Y-30200000D02*
X187100000Y-30700000D01*
X174700000Y-56000000D02*
G75*
G03*
X174700000Y-56000000I-1500000J0D01*
G01*
X149600000Y-64700000D02*
G75*
G02*
X146100000Y-61200000I0J3500000D01*
G01*
X149600000Y-64700000D02*
X180600000Y-64700000D01*
X190600000Y-26700000D02*
X221600000Y-26700000D01*
X187100000Y-30200000D02*
G75*
G02*
X190600000Y-26700000I3500000J0D01*
G01*
X225100000Y-61200000D02*
G75*
G02*
X221600000Y-64700000I-3500000J0D01*
G01*
X190600000Y-64700000D02*
G75*
G02*
X187100000Y-61200000I0J3500000D01*
G01*
X190600000Y-64700000D02*
X221600000Y-64700000D01*
X225100000Y-61200000D02*
X225100000Y-30200000D01*
X146100000Y-30200000D02*
X146100000Y-61200000D01*
X184100000Y-61200000D02*
G75*
G02*
X180600000Y-64700000I-3500000J0D01*
G01*
X180600000Y-26700000D02*
G75*
G02*
X184100000Y-30200000I0J-3500000D01*
G01*
X146100000Y-30200000D02*
G75*
G02*
X149600000Y-26700000I3500000J0D01*
G01*
X180600000Y-26700000D02*
X149600000Y-26700000D01*
D11*
X151297056Y-59502944D03*
X149600000Y-58800000D03*
X147902944Y-59502944D03*
X147200000Y-61200000D03*
X147902944Y-62897056D03*
X149600000Y-63600000D03*
X151297056Y-62897056D03*
X152000000Y-61200000D03*
D12*
X149600000Y-61200000D03*
X221600000Y-30200000D03*
D11*
X224000000Y-30200000D03*
X223297056Y-31897056D03*
X221600000Y-32600000D03*
X219902944Y-31897056D03*
X219200000Y-30200000D03*
X219902944Y-28502944D03*
X221600000Y-27800000D03*
X223297056Y-28502944D03*
D13*
X156400000Y-59400000D03*
G36*
G01*
X159801000Y-58614000D02*
X159801000Y-60186000D01*
G75*
G02*
X159536000Y-60451000I-265000J0D01*
G01*
X158264000Y-60451000D01*
G75*
G02*
X157999000Y-60186000I0J265000D01*
G01*
X157999000Y-58614000D01*
G75*
G02*
X158264000Y-58349000I265000J0D01*
G01*
X159536000Y-58349000D01*
G75*
G02*
X159801000Y-58614000I0J-265000D01*
G01*
G37*
G36*
G01*
X171699000Y-33836000D02*
X171699000Y-32564000D01*
G75*
G02*
X171964000Y-32299000I265000J0D01*
G01*
X173236000Y-32299000D01*
G75*
G02*
X173501000Y-32564000I0J-265000D01*
G01*
X173501000Y-33836000D01*
G75*
G02*
X173236000Y-34101000I-265000J0D01*
G01*
X171964000Y-34101000D01*
G75*
G02*
X171699000Y-33836000I0J265000D01*
G01*
G37*
D14*
X172600000Y-30660000D03*
X172600000Y-28120000D03*
X175140000Y-33200000D03*
X175140000Y-30660000D03*
X175140000Y-28120000D03*
G36*
G01*
X199501000Y-32564000D02*
X199501000Y-33836000D01*
G75*
G02*
X199236000Y-34101000I-265000J0D01*
G01*
X197964000Y-34101000D01*
G75*
G02*
X197699000Y-33836000I0J265000D01*
G01*
X197699000Y-32564000D01*
G75*
G02*
X197964000Y-32299000I265000J0D01*
G01*
X199236000Y-32299000D01*
G75*
G02*
X199501000Y-32564000I0J-265000D01*
G01*
G37*
X198600000Y-30660000D03*
X198600000Y-28120000D03*
X196060000Y-33200000D03*
X196060000Y-30660000D03*
X196060000Y-28120000D03*
D12*
X190600000Y-61200000D03*
D11*
X193000000Y-61200000D03*
X192297056Y-62897056D03*
X190600000Y-63600000D03*
X188902944Y-62897056D03*
X188200000Y-61200000D03*
X188902944Y-59502944D03*
X190600000Y-58800000D03*
X192297056Y-59502944D03*
X223297056Y-59477945D03*
X221600000Y-58775001D03*
X219902944Y-59477945D03*
X219200000Y-61175001D03*
X219902944Y-62872057D03*
X221600000Y-63575001D03*
X223297056Y-62872057D03*
X224000000Y-61175001D03*
D12*
X221600000Y-61175001D03*
D11*
X192297056Y-28502944D03*
X190600000Y-27800000D03*
X188902944Y-28502944D03*
X188200000Y-30200000D03*
X188902944Y-31897056D03*
X190600000Y-32600000D03*
X192297056Y-31897056D03*
X193000000Y-30200000D03*
D12*
X190600000Y-30200000D03*
G36*
G01*
X148501000Y-41050000D02*
X148501000Y-42750000D01*
G75*
G02*
X148450000Y-42801000I-51000J0D01*
G01*
X146750000Y-42801000D01*
G75*
G02*
X146699000Y-42750000I0J51000D01*
G01*
X146699000Y-41050000D01*
G75*
G02*
X146750000Y-40999000I51000J0D01*
G01*
X148450000Y-40999000D01*
G75*
G02*
X148501000Y-41050000I0J-51000D01*
G01*
G37*
D15*
X147600000Y-44440000D03*
X147600000Y-46980000D03*
X147600000Y-49520000D03*
G36*
G01*
X167701000Y-58614000D02*
X167701000Y-60186000D01*
G75*
G02*
X167436000Y-60451000I-265000J0D01*
G01*
X166164000Y-60451000D01*
G75*
G02*
X165899000Y-60186000I0J265000D01*
G01*
X165899000Y-58614000D01*
G75*
G02*
X166164000Y-58349000I265000J0D01*
G01*
X167436000Y-58349000D01*
G75*
G02*
X167701000Y-58614000I0J-265000D01*
G01*
G37*
D13*
X164300000Y-59400000D03*
G36*
G01*
X210251000Y-29230000D02*
X210251000Y-30230000D01*
G75*
G02*
X210200000Y-30281000I-51000J0D01*
G01*
X207050000Y-30281000D01*
G75*
G02*
X206999000Y-30230000I0J51000D01*
G01*
X206999000Y-29230000D01*
G75*
G02*
X207050000Y-29179000I51000J0D01*
G01*
X210200000Y-29179000D01*
G75*
G02*
X210251000Y-29230000I0J-51000D01*
G01*
G37*
G36*
G01*
X205201000Y-29230000D02*
X205201000Y-30230000D01*
G75*
G02*
X205150000Y-30281000I-51000J0D01*
G01*
X202000000Y-30281000D01*
G75*
G02*
X201949000Y-30230000I0J51000D01*
G01*
X201949000Y-29230000D01*
G75*
G02*
X202000000Y-29179000I51000J0D01*
G01*
X205150000Y-29179000D01*
G75*
G02*
X205201000Y-29230000I0J-51000D01*
G01*
G37*
G36*
G01*
X210251000Y-31770000D02*
X210251000Y-32770000D01*
G75*
G02*
X210200000Y-32821000I-51000J0D01*
G01*
X207050000Y-32821000D01*
G75*
G02*
X206999000Y-32770000I0J51000D01*
G01*
X206999000Y-31770000D01*
G75*
G02*
X207050000Y-31719000I51000J0D01*
G01*
X210200000Y-31719000D01*
G75*
G02*
X210251000Y-31770000I0J-51000D01*
G01*
G37*
G36*
G01*
X205201000Y-31770000D02*
X205201000Y-32770000D01*
G75*
G02*
X205150000Y-32821000I-51000J0D01*
G01*
X202000000Y-32821000D01*
G75*
G02*
X201949000Y-32770000I0J51000D01*
G01*
X201949000Y-31770000D01*
G75*
G02*
X202000000Y-31719000I51000J0D01*
G01*
X205150000Y-31719000D01*
G75*
G02*
X205201000Y-31770000I0J-51000D01*
G01*
G37*
G36*
G01*
X163501000Y-29424500D02*
X163501000Y-31075500D01*
G75*
G02*
X163275500Y-31301000I-225500J0D01*
G01*
X162824500Y-31301000D01*
G75*
G02*
X162599000Y-31075500I0J225500D01*
G01*
X162599000Y-29424500D01*
G75*
G02*
X162824500Y-29199000I225500J0D01*
G01*
X163275500Y-29199000D01*
G75*
G02*
X163501000Y-29424500I0J-225500D01*
G01*
G37*
G36*
G01*
X167701000Y-29424500D02*
X167701000Y-31075500D01*
G75*
G02*
X167475500Y-31301000I-225500J0D01*
G01*
X167024500Y-31301000D01*
G75*
G02*
X166799000Y-31075500I0J225500D01*
G01*
X166799000Y-29424500D01*
G75*
G02*
X167024500Y-29199000I225500J0D01*
G01*
X167475500Y-29199000D01*
G75*
G02*
X167701000Y-29424500I0J-225500D01*
G01*
G37*
G36*
G01*
X203844000Y-43700000D02*
X203844000Y-42300000D01*
G75*
G02*
X203895000Y-42249000I51000J0D01*
G01*
X204495000Y-42249000D01*
G75*
G02*
X204546000Y-42300000I0J-51000D01*
G01*
X204546000Y-43700000D01*
G75*
G02*
X204495000Y-43751000I-51000J0D01*
G01*
X203895000Y-43751000D01*
G75*
G02*
X203844000Y-43700000I0J51000D01*
G01*
G37*
G36*
G01*
X205114000Y-43700000D02*
X205114000Y-42300000D01*
G75*
G02*
X205165000Y-42249000I51000J0D01*
G01*
X205765000Y-42249000D01*
G75*
G02*
X205816000Y-42300000I0J-51000D01*
G01*
X205816000Y-43700000D01*
G75*
G02*
X205765000Y-43751000I-51000J0D01*
G01*
X205165000Y-43751000D01*
G75*
G02*
X205114000Y-43700000I0J51000D01*
G01*
G37*
G36*
G01*
X206384000Y-43700000D02*
X206384000Y-42300000D01*
G75*
G02*
X206435000Y-42249000I51000J0D01*
G01*
X207035000Y-42249000D01*
G75*
G02*
X207086000Y-42300000I0J-51000D01*
G01*
X207086000Y-43700000D01*
G75*
G02*
X207035000Y-43751000I-51000J0D01*
G01*
X206435000Y-43751000D01*
G75*
G02*
X206384000Y-43700000I0J51000D01*
G01*
G37*
G36*
G01*
X207654000Y-43700000D02*
X207654000Y-42300000D01*
G75*
G02*
X207705000Y-42249000I51000J0D01*
G01*
X208305000Y-42249000D01*
G75*
G02*
X208356000Y-42300000I0J-51000D01*
G01*
X208356000Y-43700000D01*
G75*
G02*
X208305000Y-43751000I-51000J0D01*
G01*
X207705000Y-43751000D01*
G75*
G02*
X207654000Y-43700000I0J51000D01*
G01*
G37*
G36*
G01*
X207654000Y-49100000D02*
X207654000Y-47700000D01*
G75*
G02*
X207705000Y-47649000I51000J0D01*
G01*
X208305000Y-47649000D01*
G75*
G02*
X208356000Y-47700000I0J-51000D01*
G01*
X208356000Y-49100000D01*
G75*
G02*
X208305000Y-49151000I-51000J0D01*
G01*
X207705000Y-49151000D01*
G75*
G02*
X207654000Y-49100000I0J51000D01*
G01*
G37*
G36*
G01*
X206384000Y-49100000D02*
X206384000Y-47700000D01*
G75*
G02*
X206435000Y-47649000I51000J0D01*
G01*
X207035000Y-47649000D01*
G75*
G02*
X207086000Y-47700000I0J-51000D01*
G01*
X207086000Y-49100000D01*
G75*
G02*
X207035000Y-49151000I-51000J0D01*
G01*
X206435000Y-49151000D01*
G75*
G02*
X206384000Y-49100000I0J51000D01*
G01*
G37*
G36*
G01*
X205114000Y-49100000D02*
X205114000Y-47700000D01*
G75*
G02*
X205165000Y-47649000I51000J0D01*
G01*
X205765000Y-47649000D01*
G75*
G02*
X205816000Y-47700000I0J-51000D01*
G01*
X205816000Y-49100000D01*
G75*
G02*
X205765000Y-49151000I-51000J0D01*
G01*
X205165000Y-49151000D01*
G75*
G02*
X205114000Y-49100000I0J51000D01*
G01*
G37*
G36*
G01*
X203844000Y-49100000D02*
X203844000Y-47700000D01*
G75*
G02*
X203895000Y-47649000I51000J0D01*
G01*
X204495000Y-47649000D01*
G75*
G02*
X204546000Y-47700000I0J-51000D01*
G01*
X204546000Y-49100000D01*
G75*
G02*
X204495000Y-49151000I-51000J0D01*
G01*
X203895000Y-49151000D01*
G75*
G02*
X203844000Y-49100000I0J51000D01*
G01*
G37*
D12*
X149600000Y-30200000D03*
D11*
X152000000Y-30200000D03*
X151297056Y-31897056D03*
X149600000Y-32600000D03*
X147902944Y-31897056D03*
X147200000Y-30200000D03*
X147902944Y-28502944D03*
X149600000Y-27800000D03*
X151297056Y-28502944D03*
X182297056Y-28502944D03*
X180600000Y-27800000D03*
X178902944Y-28502944D03*
X178200000Y-30200000D03*
X178902944Y-31897056D03*
X180600000Y-32600000D03*
X182297056Y-31897056D03*
X183000000Y-30200000D03*
D12*
X180600000Y-30200000D03*
X180600000Y-61200000D03*
D11*
X183000000Y-61200000D03*
X182297056Y-62897056D03*
X180600000Y-63600000D03*
X178902944Y-62897056D03*
X178200000Y-61200000D03*
X178902944Y-59502944D03*
X180600000Y-58800000D03*
X182297056Y-59502944D03*
D16*
X188574999Y-55200000D03*
X188600000Y-52100000D03*
X191700000Y-55200000D03*
X191700000Y-52100000D03*
G36*
G01*
X191850000Y-36701000D02*
X190150000Y-36701000D01*
G75*
G02*
X190099000Y-36650000I0J51000D01*
G01*
X190099000Y-34950000D01*
G75*
G02*
X190150000Y-34899000I51000J0D01*
G01*
X191850000Y-34899000D01*
G75*
G02*
X191901000Y-34950000I0J-51000D01*
G01*
X191901000Y-36650000D01*
G75*
G02*
X191850000Y-36701000I-51000J0D01*
G01*
G37*
D15*
X193540000Y-35800000D03*
X196080000Y-35800000D03*
X198620000Y-35800000D03*
X201160000Y-35800000D03*
X203700000Y-35800000D03*
X206240000Y-35800000D03*
X164960000Y-35800000D03*
X167500000Y-35800000D03*
X170040000Y-35800000D03*
X172580000Y-35800000D03*
X175120000Y-35800000D03*
X177660000Y-35800000D03*
G36*
G01*
X181050000Y-36701000D02*
X179350000Y-36701000D01*
G75*
G02*
X179299000Y-36650000I0J51000D01*
G01*
X179299000Y-34950000D01*
G75*
G02*
X179350000Y-34899000I51000J0D01*
G01*
X181050000Y-34899000D01*
G75*
G02*
X181101000Y-34950000I0J-51000D01*
G01*
X181101000Y-36650000D01*
G75*
G02*
X181050000Y-36701000I-51000J0D01*
G01*
G37*
G36*
G01*
X167301000Y-49400000D02*
X168699000Y-49400000D01*
G75*
G02*
X168750000Y-49451000I0J-51000D01*
G01*
X168750000Y-50849000D01*
G75*
G02*
X168699000Y-50900000I-51000J0D01*
G01*
X167301000Y-50900000D01*
G75*
G02*
X167250000Y-50849000I0J51000D01*
G01*
X167250000Y-49451000D01*
G75*
G02*
X167301000Y-49400000I51000J0D01*
G01*
G37*
D17*
X165460000Y-48880000D03*
X168000000Y-47610000D03*
X165460000Y-46340000D03*
X168000000Y-45070000D03*
X165460000Y-43800000D03*
X168000000Y-42530000D03*
X165460000Y-41260000D03*
D18*
X179250000Y-52325000D03*
X179250000Y-49785000D03*
X179250000Y-39075000D03*
X179250000Y-41615000D03*
D19*
X171300000Y-53445000D03*
X171300000Y-37955000D03*
D20*
X174350000Y-39985000D03*
X174350000Y-51415000D03*
D21*
X196600000Y-62180000D03*
X196600000Y-59640000D03*
X196600000Y-57100000D03*
D22*
X206400000Y-63100000D03*
X217400000Y-63100000D03*
G36*
G01*
X211201000Y-51350000D02*
X211201000Y-54850000D01*
G75*
G02*
X211150000Y-54901000I-51000J0D01*
G01*
X207650000Y-54901000D01*
G75*
G02*
X207599000Y-54850000I0J51000D01*
G01*
X207599000Y-51350000D01*
G75*
G02*
X207650000Y-51299000I51000J0D01*
G01*
X211150000Y-51299000D01*
G75*
G02*
X211201000Y-51350000I0J-51000D01*
G01*
G37*
D23*
X214400000Y-53100000D03*
D24*
X222260000Y-41390000D03*
X219720000Y-41390000D03*
X217180000Y-41390000D03*
D25*
G36*
X165900990Y-60185804D02*
G01*
X165906062Y-60237304D01*
X165921029Y-60286642D01*
X165945332Y-60332110D01*
X165978038Y-60371962D01*
X166017890Y-60404668D01*
X166063358Y-60428971D01*
X166112696Y-60443938D01*
X166164196Y-60449010D01*
X166165822Y-60450175D01*
X166165626Y-60452165D01*
X166164000Y-60453000D01*
X166081903Y-60453000D01*
X166081707Y-60452990D01*
X166041204Y-60449001D01*
X166040819Y-60448925D01*
X166007767Y-60438899D01*
X166007405Y-60438749D01*
X165976954Y-60422472D01*
X165976628Y-60422254D01*
X165949932Y-60400345D01*
X165949655Y-60400068D01*
X165927746Y-60373372D01*
X165927528Y-60373046D01*
X165911251Y-60342595D01*
X165911101Y-60342233D01*
X165901075Y-60309181D01*
X165900999Y-60308796D01*
X165897010Y-60268293D01*
X165897000Y-60268097D01*
X165897000Y-60186000D01*
X165898000Y-60184268D01*
X165900000Y-60184268D01*
X165900990Y-60185804D01*
G37*
G36*
X159802165Y-60184374D02*
G01*
X159803000Y-60186000D01*
X159803000Y-60268097D01*
X159802990Y-60268293D01*
X159799001Y-60308796D01*
X159798925Y-60309181D01*
X159788899Y-60342233D01*
X159788749Y-60342595D01*
X159772472Y-60373046D01*
X159772254Y-60373372D01*
X159750345Y-60400068D01*
X159750068Y-60400345D01*
X159723372Y-60422254D01*
X159723046Y-60422472D01*
X159692595Y-60438749D01*
X159692233Y-60438899D01*
X159659181Y-60448925D01*
X159658796Y-60449001D01*
X159618293Y-60452990D01*
X159618097Y-60453000D01*
X159536000Y-60453000D01*
X159534268Y-60452000D01*
X159534268Y-60450000D01*
X159535804Y-60449010D01*
X159587304Y-60443938D01*
X159636642Y-60428971D01*
X159682110Y-60404668D01*
X159721962Y-60371962D01*
X159754668Y-60332110D01*
X159778971Y-60286642D01*
X159793938Y-60237304D01*
X159799010Y-60185804D01*
X159800175Y-60184178D01*
X159802165Y-60184374D01*
G37*
G36*
X167702165Y-60184374D02*
G01*
X167703000Y-60186000D01*
X167703000Y-60268097D01*
X167702990Y-60268293D01*
X167699001Y-60308796D01*
X167698925Y-60309181D01*
X167688899Y-60342233D01*
X167688749Y-60342595D01*
X167672472Y-60373046D01*
X167672254Y-60373372D01*
X167650345Y-60400068D01*
X167650068Y-60400345D01*
X167623372Y-60422254D01*
X167623046Y-60422472D01*
X167592595Y-60438749D01*
X167592233Y-60438899D01*
X167559181Y-60448925D01*
X167558796Y-60449001D01*
X167518293Y-60452990D01*
X167518097Y-60453000D01*
X167436000Y-60453000D01*
X167434268Y-60452000D01*
X167434268Y-60450000D01*
X167435804Y-60449010D01*
X167487304Y-60443938D01*
X167536642Y-60428971D01*
X167582110Y-60404668D01*
X167621962Y-60371962D01*
X167654668Y-60332110D01*
X167678971Y-60286642D01*
X167693938Y-60237304D01*
X167699010Y-60185804D01*
X167700175Y-60184178D01*
X167702165Y-60184374D01*
G37*
G36*
X158000990Y-60185804D02*
G01*
X158006062Y-60237304D01*
X158021029Y-60286642D01*
X158045332Y-60332110D01*
X158078038Y-60371962D01*
X158117890Y-60404668D01*
X158163358Y-60428971D01*
X158212696Y-60443938D01*
X158264196Y-60449010D01*
X158265822Y-60450175D01*
X158265626Y-60452165D01*
X158264000Y-60453000D01*
X158181903Y-60453000D01*
X158181707Y-60452990D01*
X158141204Y-60449001D01*
X158140819Y-60448925D01*
X158107767Y-60438899D01*
X158107405Y-60438749D01*
X158076954Y-60422472D01*
X158076628Y-60422254D01*
X158049932Y-60400345D01*
X158049655Y-60400068D01*
X158027746Y-60373372D01*
X158027528Y-60373046D01*
X158011251Y-60342595D01*
X158011101Y-60342233D01*
X158001075Y-60309181D01*
X158000999Y-60308796D01*
X157997010Y-60268293D01*
X157997000Y-60268097D01*
X157997000Y-60186000D01*
X157998000Y-60184268D01*
X158000000Y-60184268D01*
X158000990Y-60185804D01*
G37*
G36*
X166165732Y-58348000D02*
G01*
X166165732Y-58350000D01*
X166164196Y-58350990D01*
X166112696Y-58356062D01*
X166063358Y-58371029D01*
X166017890Y-58395332D01*
X165978038Y-58428038D01*
X165945332Y-58467890D01*
X165921029Y-58513358D01*
X165906062Y-58562696D01*
X165900990Y-58614196D01*
X165899825Y-58615822D01*
X165897835Y-58615626D01*
X165897000Y-58614000D01*
X165897000Y-58531903D01*
X165897010Y-58531707D01*
X165900999Y-58491204D01*
X165901075Y-58490819D01*
X165911101Y-58457767D01*
X165911251Y-58457405D01*
X165927528Y-58426954D01*
X165927746Y-58426628D01*
X165949655Y-58399932D01*
X165949932Y-58399655D01*
X165976628Y-58377746D01*
X165976954Y-58377528D01*
X166007405Y-58361251D01*
X166007767Y-58361101D01*
X166040819Y-58351075D01*
X166041204Y-58350999D01*
X166081707Y-58347010D01*
X166081903Y-58347000D01*
X166164000Y-58347000D01*
X166165732Y-58348000D01*
G37*
G36*
X158265732Y-58348000D02*
G01*
X158265732Y-58350000D01*
X158264196Y-58350990D01*
X158212696Y-58356062D01*
X158163358Y-58371029D01*
X158117890Y-58395332D01*
X158078038Y-58428038D01*
X158045332Y-58467890D01*
X158021029Y-58513358D01*
X158006062Y-58562696D01*
X158000990Y-58614196D01*
X157999825Y-58615822D01*
X157997835Y-58615626D01*
X157997000Y-58614000D01*
X157997000Y-58531903D01*
X157997010Y-58531707D01*
X158000999Y-58491204D01*
X158001075Y-58490819D01*
X158011101Y-58457767D01*
X158011251Y-58457405D01*
X158027528Y-58426954D01*
X158027746Y-58426628D01*
X158049655Y-58399932D01*
X158049932Y-58399655D01*
X158076628Y-58377746D01*
X158076954Y-58377528D01*
X158107405Y-58361251D01*
X158107767Y-58361101D01*
X158140819Y-58351075D01*
X158141204Y-58350999D01*
X158181707Y-58347010D01*
X158181903Y-58347000D01*
X158264000Y-58347000D01*
X158265732Y-58348000D01*
G37*
G36*
X159618293Y-58347010D02*
G01*
X159658796Y-58350999D01*
X159659181Y-58351075D01*
X159692233Y-58361101D01*
X159692595Y-58361251D01*
X159723046Y-58377528D01*
X159723372Y-58377746D01*
X159750068Y-58399655D01*
X159750345Y-58399932D01*
X159772254Y-58426628D01*
X159772472Y-58426954D01*
X159788749Y-58457405D01*
X159788899Y-58457767D01*
X159798925Y-58490819D01*
X159799001Y-58491204D01*
X159802990Y-58531707D01*
X159803000Y-58531903D01*
X159803000Y-58614000D01*
X159802000Y-58615732D01*
X159800000Y-58615732D01*
X159799010Y-58614196D01*
X159793938Y-58562696D01*
X159778971Y-58513358D01*
X159754668Y-58467890D01*
X159721962Y-58428038D01*
X159682110Y-58395332D01*
X159636642Y-58371029D01*
X159587304Y-58356062D01*
X159535804Y-58350990D01*
X159534178Y-58349825D01*
X159534374Y-58347835D01*
X159536000Y-58347000D01*
X159618097Y-58347000D01*
X159618293Y-58347010D01*
G37*
G36*
X167518293Y-58347010D02*
G01*
X167558796Y-58350999D01*
X167559181Y-58351075D01*
X167592233Y-58361101D01*
X167592595Y-58361251D01*
X167623046Y-58377528D01*
X167623372Y-58377746D01*
X167650068Y-58399655D01*
X167650345Y-58399932D01*
X167672254Y-58426628D01*
X167672472Y-58426954D01*
X167688749Y-58457405D01*
X167688899Y-58457767D01*
X167698925Y-58490819D01*
X167699001Y-58491204D01*
X167702990Y-58531707D01*
X167703000Y-58531903D01*
X167703000Y-58614000D01*
X167702000Y-58615732D01*
X167700000Y-58615732D01*
X167699010Y-58614196D01*
X167693938Y-58562696D01*
X167678971Y-58513358D01*
X167654668Y-58467890D01*
X167621962Y-58428038D01*
X167582110Y-58395332D01*
X167536642Y-58371029D01*
X167487304Y-58356062D01*
X167435804Y-58350990D01*
X167434178Y-58349825D01*
X167434374Y-58347835D01*
X167436000Y-58347000D01*
X167518097Y-58347000D01*
X167518293Y-58347010D01*
G37*
G36*
X171700990Y-33835804D02*
G01*
X171706062Y-33887304D01*
X171721029Y-33936642D01*
X171745332Y-33982110D01*
X171778038Y-34021962D01*
X171817890Y-34054668D01*
X171863358Y-34078971D01*
X171912696Y-34093938D01*
X171964196Y-34099010D01*
X171965822Y-34100175D01*
X171965626Y-34102165D01*
X171964000Y-34103000D01*
X171881903Y-34103000D01*
X171881707Y-34102990D01*
X171841204Y-34099001D01*
X171840819Y-34098925D01*
X171807767Y-34088899D01*
X171807405Y-34088749D01*
X171776954Y-34072472D01*
X171776628Y-34072254D01*
X171749932Y-34050345D01*
X171749655Y-34050068D01*
X171727746Y-34023372D01*
X171727528Y-34023046D01*
X171711251Y-33992595D01*
X171711101Y-33992233D01*
X171701075Y-33959181D01*
X171700999Y-33958796D01*
X171697010Y-33918293D01*
X171697000Y-33918097D01*
X171697000Y-33836000D01*
X171698000Y-33834268D01*
X171700000Y-33834268D01*
X171700990Y-33835804D01*
G37*
G36*
X197700990Y-33835804D02*
G01*
X197706062Y-33887304D01*
X197721029Y-33936642D01*
X197745332Y-33982110D01*
X197778038Y-34021962D01*
X197817890Y-34054668D01*
X197863358Y-34078971D01*
X197912696Y-34093938D01*
X197964196Y-34099010D01*
X197965822Y-34100175D01*
X197965626Y-34102165D01*
X197964000Y-34103000D01*
X197881903Y-34103000D01*
X197881707Y-34102990D01*
X197841204Y-34099001D01*
X197840819Y-34098925D01*
X197807767Y-34088899D01*
X197807405Y-34088749D01*
X197776954Y-34072472D01*
X197776628Y-34072254D01*
X197749932Y-34050345D01*
X197749655Y-34050068D01*
X197727746Y-34023372D01*
X197727528Y-34023046D01*
X197711251Y-33992595D01*
X197711101Y-33992233D01*
X197701075Y-33959181D01*
X197700999Y-33958796D01*
X197697010Y-33918293D01*
X197697000Y-33918097D01*
X197697000Y-33836000D01*
X197698000Y-33834268D01*
X197700000Y-33834268D01*
X197700990Y-33835804D01*
G37*
G36*
X173502165Y-33834374D02*
G01*
X173503000Y-33836000D01*
X173503000Y-33918097D01*
X173502990Y-33918293D01*
X173499001Y-33958796D01*
X173498925Y-33959181D01*
X173488899Y-33992233D01*
X173488749Y-33992595D01*
X173472472Y-34023046D01*
X173472254Y-34023372D01*
X173450345Y-34050068D01*
X173450068Y-34050345D01*
X173423372Y-34072254D01*
X173423046Y-34072472D01*
X173392595Y-34088749D01*
X173392233Y-34088899D01*
X173359181Y-34098925D01*
X173358796Y-34099001D01*
X173318293Y-34102990D01*
X173318097Y-34103000D01*
X173236000Y-34103000D01*
X173234268Y-34102000D01*
X173234268Y-34100000D01*
X173235804Y-34099010D01*
X173287304Y-34093938D01*
X173336642Y-34078971D01*
X173382110Y-34054668D01*
X173421962Y-34021962D01*
X173454668Y-33982110D01*
X173478971Y-33936642D01*
X173493938Y-33887304D01*
X173499010Y-33835804D01*
X173500175Y-33834178D01*
X173502165Y-33834374D01*
G37*
G36*
X199502165Y-33834374D02*
G01*
X199503000Y-33836000D01*
X199503000Y-33918097D01*
X199502990Y-33918293D01*
X199499001Y-33958796D01*
X199498925Y-33959181D01*
X199488899Y-33992233D01*
X199488749Y-33992595D01*
X199472472Y-34023046D01*
X199472254Y-34023372D01*
X199450345Y-34050068D01*
X199450068Y-34050345D01*
X199423372Y-34072254D01*
X199423046Y-34072472D01*
X199392595Y-34088749D01*
X199392233Y-34088899D01*
X199359181Y-34098925D01*
X199358796Y-34099001D01*
X199318293Y-34102990D01*
X199318097Y-34103000D01*
X199236000Y-34103000D01*
X199234268Y-34102000D01*
X199234268Y-34100000D01*
X199235804Y-34099010D01*
X199287304Y-34093938D01*
X199336642Y-34078971D01*
X199382110Y-34054668D01*
X199421962Y-34021962D01*
X199454668Y-33982110D01*
X199478971Y-33936642D01*
X199493938Y-33887304D01*
X199499010Y-33835804D01*
X199500175Y-33834178D01*
X199502165Y-33834374D01*
G37*
G36*
X197965732Y-32298000D02*
G01*
X197965732Y-32300000D01*
X197964196Y-32300990D01*
X197912696Y-32306062D01*
X197863358Y-32321029D01*
X197817890Y-32345332D01*
X197778038Y-32378038D01*
X197745332Y-32417890D01*
X197721029Y-32463358D01*
X197706062Y-32512696D01*
X197700990Y-32564196D01*
X197699825Y-32565822D01*
X197697835Y-32565626D01*
X197697000Y-32564000D01*
X197697000Y-32481903D01*
X197697010Y-32481707D01*
X197700999Y-32441204D01*
X197701075Y-32440819D01*
X197711101Y-32407767D01*
X197711251Y-32407405D01*
X197727528Y-32376954D01*
X197727746Y-32376628D01*
X197749655Y-32349932D01*
X197749932Y-32349655D01*
X197776628Y-32327746D01*
X197776954Y-32327528D01*
X197807405Y-32311251D01*
X197807767Y-32311101D01*
X197840819Y-32301075D01*
X197841204Y-32300999D01*
X197881707Y-32297010D01*
X197881903Y-32297000D01*
X197964000Y-32297000D01*
X197965732Y-32298000D01*
G37*
G36*
X171965732Y-32298000D02*
G01*
X171965732Y-32300000D01*
X171964196Y-32300990D01*
X171912696Y-32306062D01*
X171863358Y-32321029D01*
X171817890Y-32345332D01*
X171778038Y-32378038D01*
X171745332Y-32417890D01*
X171721029Y-32463358D01*
X171706062Y-32512696D01*
X171700990Y-32564196D01*
X171699825Y-32565822D01*
X171697835Y-32565626D01*
X171697000Y-32564000D01*
X171697000Y-32481903D01*
X171697010Y-32481707D01*
X171700999Y-32441204D01*
X171701075Y-32440819D01*
X171711101Y-32407767D01*
X171711251Y-32407405D01*
X171727528Y-32376954D01*
X171727746Y-32376628D01*
X171749655Y-32349932D01*
X171749932Y-32349655D01*
X171776628Y-32327746D01*
X171776954Y-32327528D01*
X171807405Y-32311251D01*
X171807767Y-32311101D01*
X171840819Y-32301075D01*
X171841204Y-32300999D01*
X171881707Y-32297010D01*
X171881903Y-32297000D01*
X171964000Y-32297000D01*
X171965732Y-32298000D01*
G37*
G36*
X173318293Y-32297010D02*
G01*
X173358796Y-32300999D01*
X173359181Y-32301075D01*
X173392233Y-32311101D01*
X173392595Y-32311251D01*
X173423046Y-32327528D01*
X173423372Y-32327746D01*
X173450068Y-32349655D01*
X173450345Y-32349932D01*
X173472254Y-32376628D01*
X173472472Y-32376954D01*
X173488749Y-32407405D01*
X173488899Y-32407767D01*
X173498925Y-32440819D01*
X173499001Y-32441204D01*
X173502990Y-32481707D01*
X173503000Y-32481903D01*
X173503000Y-32564000D01*
X173502000Y-32565732D01*
X173500000Y-32565732D01*
X173499010Y-32564196D01*
X173493938Y-32512696D01*
X173478971Y-32463358D01*
X173454668Y-32417890D01*
X173421962Y-32378038D01*
X173382110Y-32345332D01*
X173336642Y-32321029D01*
X173287304Y-32306062D01*
X173235804Y-32300990D01*
X173234178Y-32299825D01*
X173234374Y-32297835D01*
X173236000Y-32297000D01*
X173318097Y-32297000D01*
X173318293Y-32297010D01*
G37*
G36*
X199318293Y-32297010D02*
G01*
X199358796Y-32300999D01*
X199359181Y-32301075D01*
X199392233Y-32311101D01*
X199392595Y-32311251D01*
X199423046Y-32327528D01*
X199423372Y-32327746D01*
X199450068Y-32349655D01*
X199450345Y-32349932D01*
X199472254Y-32376628D01*
X199472472Y-32376954D01*
X199488749Y-32407405D01*
X199488899Y-32407767D01*
X199498925Y-32440819D01*
X199499001Y-32441204D01*
X199502990Y-32481707D01*
X199503000Y-32481903D01*
X199503000Y-32564000D01*
X199502000Y-32565732D01*
X199500000Y-32565732D01*
X199499010Y-32564196D01*
X199493938Y-32512696D01*
X199478971Y-32463358D01*
X199454668Y-32417890D01*
X199421962Y-32378038D01*
X199382110Y-32345332D01*
X199336642Y-32321029D01*
X199287304Y-32306062D01*
X199235804Y-32300990D01*
X199234178Y-32299825D01*
X199234374Y-32297835D01*
X199236000Y-32297000D01*
X199318097Y-32297000D01*
X199318293Y-32297010D01*
G37*
M02*
