%TF.GenerationSoftware,KiCad,Pcbnew,(5.1.8-0-10_14)*%
%TF.CreationDate,2021-09-02T11:11:12+02:00*%
%TF.ProjectId,ethersweep,65746865-7273-4776-9565-702e6b696361,2.0.1*%
%TF.SameCoordinates,Original*%
%TF.FileFunction,Other,User*%
%FSLAX46Y46*%
G04 Gerber Fmt 4.6, Leading zero omitted, Abs format (unit mm)*
G04 Created by KiCad (PCBNEW (5.1.8-0-10_14)) date 2021-09-02 11:11:12*
%MOMM*%
%LPD*%
G01*
G04 APERTURE LIST*
%TA.AperFunction,Profile*%
%ADD10C,0.150000*%
%TD*%
%ADD11C,0.050000*%
%ADD12C,0.010000*%
G04 APERTURE END LIST*
D10*
X221600000Y-26700000D02*
G75*
G02*
X225100000Y-30200000I0J-3500000D01*
G01*
X184100000Y-60700000D02*
X184100000Y-59400000D01*
X187100000Y-31800000D02*
X187100000Y-30700000D01*
X187100000Y-31800000D02*
G75*
G02*
X184100000Y-31800000I-1500000J0D01*
G01*
X187100000Y-61200000D02*
X187100000Y-59400000D01*
X184100000Y-31800000D02*
X184100000Y-30200000D01*
X184100000Y-59400000D02*
G75*
G02*
X187100000Y-59400000I1500000J0D01*
G01*
X184100000Y-61200000D02*
X184100000Y-60700000D01*
X187100000Y-30200000D02*
X187100000Y-30700000D01*
X174700000Y-56000000D02*
G75*
G03*
X174700000Y-56000000I-1500000J0D01*
G01*
X149600000Y-64700000D02*
G75*
G02*
X146100000Y-61200000I0J3500000D01*
G01*
X149600000Y-64700000D02*
X180600000Y-64700000D01*
X190600000Y-26700000D02*
X221600000Y-26700000D01*
X187100000Y-30200000D02*
G75*
G02*
X190600000Y-26700000I3500000J0D01*
G01*
X225100000Y-61200000D02*
G75*
G02*
X221600000Y-64700000I-3500000J0D01*
G01*
X190600000Y-64700000D02*
G75*
G02*
X187100000Y-61200000I0J3500000D01*
G01*
X190600000Y-64700000D02*
X221600000Y-64700000D01*
X225100000Y-61200000D02*
X225100000Y-30200000D01*
X146100000Y-30200000D02*
X146100000Y-61200000D01*
X184100000Y-61200000D02*
G75*
G02*
X180600000Y-64700000I-3500000J0D01*
G01*
X180600000Y-26700000D02*
G75*
G02*
X184100000Y-30200000I0J-3500000D01*
G01*
X146100000Y-30200000D02*
G75*
G02*
X149600000Y-26700000I3500000J0D01*
G01*
X180600000Y-26700000D02*
X149600000Y-26700000D01*
D11*
X168920000Y-38800000D02*
X168920000Y-22510000D01*
X168920000Y-22510000D02*
X178820000Y-22510000D01*
X178820000Y-22510000D02*
X178820000Y-38800000D01*
X178820000Y-38800000D02*
X168920000Y-38800000D01*
X145800000Y-40100000D02*
X149400000Y-40100000D01*
X145800000Y-51300000D02*
X145800000Y-40100000D01*
X149400000Y-51300000D02*
X145800000Y-51300000D01*
X149400000Y-40100000D02*
X149400000Y-51300000D01*
X200200000Y-27950000D02*
X212000000Y-27950000D01*
X200200000Y-34050000D02*
X200200000Y-27950000D01*
X212000000Y-34050000D02*
X200200000Y-34050000D01*
X212000000Y-27950000D02*
X212000000Y-34050000D01*
X167900000Y-31950000D02*
X167900000Y-28550000D01*
X162400000Y-31950000D02*
X167900000Y-31950000D01*
X162400000Y-28550000D02*
X162400000Y-31950000D01*
X167900000Y-28550000D02*
X162400000Y-28550000D01*
D12*
G36*
X203560000Y-47732000D02*
G01*
X208640000Y-47732000D01*
X208640000Y-43668000D01*
X203560000Y-43668000D01*
X203560000Y-47732000D01*
G37*
X203560000Y-47732000D02*
X208640000Y-47732000D01*
X208640000Y-43668000D01*
X203560000Y-43668000D01*
X203560000Y-47732000D01*
D11*
X190074999Y-55200000D02*
G75*
G03*
X190074999Y-55200000I-1500000J0D01*
G01*
X190100000Y-52100000D02*
G75*
G03*
X190100000Y-52100000I-1500000J0D01*
G01*
X193200000Y-55200000D02*
G75*
G03*
X193200000Y-55200000I-1500000J0D01*
G01*
X193200000Y-52100000D02*
G75*
G03*
X193200000Y-52100000I-1500000J0D01*
G01*
X182000000Y-34000000D02*
X182000000Y-37600000D01*
X163150000Y-34000000D02*
X182000000Y-34000000D01*
X163150000Y-37600000D02*
X163150000Y-34000000D01*
X182000000Y-37600000D02*
X163150000Y-37600000D01*
M02*
