%TF.GenerationSoftware,KiCad,Pcbnew,(7.0.0-0)*%
%TF.CreationDate,2023-05-24T17:39:11+02:00*%
%TF.ProjectId,ethersweep,65746865-7273-4776-9565-702e6b696361,2.0.1*%
%TF.SameCoordinates,Original*%
%TF.FileFunction,Soldermask,Top*%
%TF.FilePolarity,Negative*%
%FSLAX46Y46*%
G04 Gerber Fmt 4.6, Leading zero omitted, Abs format (unit mm)*
G04 Created by KiCad (PCBNEW (7.0.0-0)) date 2023-05-24 17:39:11*
%MOMM*%
%LPD*%
G01*
G04 APERTURE LIST*
G04 Aperture macros list*
%AMRoundRect*
0 Rectangle with rounded corners*
0 $1 Rounding radius*
0 $2 $3 $4 $5 $6 $7 $8 $9 X,Y pos of 4 corners*
0 Add a 4 corners polygon primitive as box body*
4,1,4,$2,$3,$4,$5,$6,$7,$8,$9,$2,$3,0*
0 Add four circle primitives for the rounded corners*
1,1,$1+$1,$2,$3*
1,1,$1+$1,$4,$5*
1,1,$1+$1,$6,$7*
1,1,$1+$1,$8,$9*
0 Add four rect primitives between the rounded corners*
20,1,$1+$1,$2,$3,$4,$5,0*
20,1,$1+$1,$4,$5,$6,$7,0*
20,1,$1+$1,$6,$7,$8,$9,0*
20,1,$1+$1,$8,$9,$2,$3,0*%
G04 Aperture macros list end*
%ADD10RoundRect,0.301000X0.475000X-0.250000X0.475000X0.250000X-0.475000X0.250000X-0.475000X-0.250000X0*%
%ADD11RoundRect,0.269750X-0.218750X-0.381250X0.218750X-0.381250X0.218750X0.381250X-0.218750X0.381250X0*%
%ADD12C,3.352000*%
%ADD13RoundRect,0.051000X-0.699000X0.699000X-0.699000X-0.699000X0.699000X-0.699000X0.699000X0.699000X0*%
%ADD14C,1.500000*%
%ADD15C,1.632000*%
%ADD16C,2.547000*%
%ADD17C,0.902000*%
%ADD18C,6.502000*%
%ADD19RoundRect,0.251000X0.200000X0.275000X-0.200000X0.275000X-0.200000X-0.275000X0.200000X-0.275000X0*%
%ADD20RoundRect,0.051000X-0.700000X-0.600000X0.700000X-0.600000X0.700000X0.600000X-0.700000X0.600000X0*%
%ADD21RoundRect,0.191000X-0.140000X-0.170000X0.140000X-0.170000X0.140000X0.170000X-0.140000X0.170000X0*%
%ADD22RoundRect,0.126000X0.075000X-0.662500X0.075000X0.662500X-0.075000X0.662500X-0.075000X-0.662500X0*%
%ADD23RoundRect,0.126000X0.662500X-0.075000X0.662500X0.075000X-0.662500X0.075000X-0.662500X-0.075000X0*%
%ADD24RoundRect,0.191000X0.170000X-0.140000X0.170000X0.140000X-0.170000X0.140000X-0.170000X-0.140000X0*%
%ADD25RoundRect,0.301000X0.250000X0.475000X-0.250000X0.475000X-0.250000X-0.475000X0.250000X-0.475000X0*%
%ADD26RoundRect,0.251000X0.275000X-0.200000X0.275000X0.200000X-0.275000X0.200000X-0.275000X-0.200000X0*%
%ADD27RoundRect,0.276000X-0.250000X0.225000X-0.250000X-0.225000X0.250000X-0.225000X0.250000X0.225000X0*%
%ADD28RoundRect,0.191000X0.140000X0.170000X-0.140000X0.170000X-0.140000X-0.170000X0.140000X-0.170000X0*%
%ADD29RoundRect,0.301000X0.325000X0.650000X-0.325000X0.650000X-0.325000X-0.650000X0.325000X-0.650000X0*%
%ADD30RoundRect,0.276000X0.250000X-0.225000X0.250000X0.225000X-0.250000X0.225000X-0.250000X-0.225000X0*%
%ADD31RoundRect,0.301000X0.600000X0.600000X-0.600000X0.600000X-0.600000X-0.600000X0.600000X-0.600000X0*%
%ADD32C,1.802000*%
%ADD33RoundRect,0.186000X0.135000X0.185000X-0.135000X0.185000X-0.135000X-0.185000X0.135000X-0.185000X0*%
%ADD34RoundRect,0.251000X-0.200000X-0.275000X0.200000X-0.275000X0.200000X0.275000X-0.200000X0.275000X0*%
%ADD35RoundRect,0.269750X0.218750X0.256250X-0.218750X0.256250X-0.218750X-0.256250X0.218750X-0.256250X0*%
%ADD36C,1.626000*%
%ADD37RoundRect,0.269750X0.256250X-0.218750X0.256250X0.218750X-0.256250X0.218750X-0.256250X-0.218750X0*%
%ADD38C,1.502000*%
%ADD39RoundRect,0.051000X1.750000X1.750000X-1.750000X1.750000X-1.750000X-1.750000X1.750000X-1.750000X0*%
%ADD40C,3.602000*%
%ADD41RoundRect,0.251000X-0.275000X0.200000X-0.275000X-0.200000X0.275000X-0.200000X0.275000X0.200000X0*%
%ADD42RoundRect,0.191000X-0.170000X0.140000X-0.170000X-0.140000X0.170000X-0.140000X0.170000X0.140000X0*%
%ADD43RoundRect,0.051000X0.381000X-0.127000X0.381000X0.127000X-0.381000X0.127000X-0.381000X-0.127000X0*%
%ADD44RoundRect,0.051000X-0.127000X-0.381000X0.127000X-0.381000X0.127000X0.381000X-0.127000X0.381000X0*%
%ADD45RoundRect,0.051000X-1.905000X-1.905000X1.905000X-1.905000X1.905000X1.905000X-1.905000X1.905000X0*%
%ADD46RoundRect,0.301000X1.000000X-1.750000X1.000000X1.750000X-1.000000X1.750000X-1.000000X-1.750000X0*%
%ADD47RoundRect,0.301000X-0.362500X-1.075000X0.362500X-1.075000X0.362500X1.075000X-0.362500X1.075000X0*%
%ADD48RoundRect,0.186000X0.185000X-0.135000X0.185000X0.135000X-0.185000X0.135000X-0.185000X-0.135000X0*%
%ADD49RoundRect,0.276000X-0.225000X-0.250000X0.225000X-0.250000X0.225000X0.250000X-0.225000X0.250000X0*%
%ADD50RoundRect,0.051000X-0.225000X-0.690000X0.225000X-0.690000X0.225000X0.690000X-0.225000X0.690000X0*%
%ADD51RoundRect,0.051000X-0.825000X-0.650000X0.825000X-0.650000X0.825000X0.650000X-0.825000X0.650000X0*%
%ADD52RoundRect,0.051000X-0.712500X-0.775000X0.712500X-0.775000X0.712500X0.775000X-0.712500X0.775000X0*%
%ADD53RoundRect,0.051000X-0.900000X-0.950000X0.900000X-0.950000X0.900000X0.950000X-0.900000X0.950000X0*%
%ADD54RoundRect,0.051000X-0.500000X-0.950000X0.500000X-0.950000X0.500000X0.950000X-0.500000X0.950000X0*%
%ADD55RoundRect,0.051000X-0.850000X0.850000X-0.850000X-0.850000X0.850000X-0.850000X0.850000X0.850000X0*%
%ADD56O,1.802000X1.802000*%
%ADD57RoundRect,0.301000X0.600000X0.725000X-0.600000X0.725000X-0.600000X-0.725000X0.600000X-0.725000X0*%
%ADD58O,1.802000X2.052000*%
%ADD59RoundRect,0.301000X-0.650000X0.325000X-0.650000X-0.325000X0.650000X-0.325000X0.650000X0.325000X0*%
%ADD60RoundRect,0.301000X-0.325000X-0.650000X0.325000X-0.650000X0.325000X0.650000X-0.325000X0.650000X0*%
%ADD61RoundRect,0.051000X0.850000X-0.850000X0.850000X0.850000X-0.850000X0.850000X-0.850000X-0.850000X0*%
%ADD62RoundRect,0.301000X-0.600000X-0.725000X0.600000X-0.725000X0.600000X0.725000X-0.600000X0.725000X0*%
%ADD63RoundRect,0.301000X0.362500X1.075000X-0.362500X1.075000X-0.362500X-1.075000X0.362500X-1.075000X0*%
%ADD64RoundRect,0.126000X-0.075000X0.662500X-0.075000X-0.662500X0.075000X-0.662500X0.075000X0.662500X0*%
%ADD65RoundRect,0.126000X-0.662500X0.075000X-0.662500X-0.075000X0.662500X-0.075000X0.662500X0.075000X0*%
%ADD66RoundRect,0.051000X-0.450000X-0.600000X0.450000X-0.600000X0.450000X0.600000X-0.450000X0.600000X0*%
%ADD67RoundRect,0.113500X0.062500X-0.337500X0.062500X0.337500X-0.062500X0.337500X-0.062500X-0.337500X0*%
%ADD68RoundRect,0.113500X0.337500X-0.062500X0.337500X0.062500X-0.337500X0.062500X-0.337500X-0.062500X0*%
%ADD69RoundRect,0.051000X1.675000X-1.675000X1.675000X1.675000X-1.675000X1.675000X-1.675000X-1.675000X0*%
%ADD70RoundRect,0.269750X-0.218750X-0.256250X0.218750X-0.256250X0.218750X0.256250X-0.218750X0.256250X0*%
%ADD71RoundRect,0.186000X-0.185000X0.135000X-0.185000X-0.135000X0.185000X-0.135000X0.185000X0.135000X0*%
%ADD72RoundRect,0.051000X1.000000X1.200000X-1.000000X1.200000X-1.000000X-1.200000X1.000000X-1.200000X0*%
%ADD73RoundRect,0.276000X0.225000X0.250000X-0.225000X0.250000X-0.225000X-0.250000X0.225000X-0.250000X0*%
%ADD74RoundRect,0.301000X-0.600000X-0.600000X0.600000X-0.600000X0.600000X0.600000X-0.600000X0.600000X0*%
%ADD75RoundRect,0.051000X0.850000X0.850000X-0.850000X0.850000X-0.850000X-0.850000X0.850000X-0.850000X0*%
%TA.AperFunction,Profile*%
%ADD76C,0.150000*%
%TD*%
G04 APERTURE END LIST*
D10*
X160300000Y-34450000D03*
X160300000Y-32550000D03*
D11*
X149137500Y-54000000D03*
X151262500Y-54000000D03*
D12*
X174350000Y-39985000D03*
X174350000Y-51415000D03*
D13*
X168000000Y-50150000D03*
D14*
X165460000Y-48880000D03*
X168000000Y-47610000D03*
X165460000Y-46340000D03*
X168000000Y-45070000D03*
X165460000Y-43800000D03*
X168000000Y-42530000D03*
X165460000Y-41260000D03*
D15*
X179250000Y-52325000D03*
X179250000Y-49785000D03*
X179250000Y-41615000D03*
X179250000Y-39075000D03*
D16*
X171300000Y-53445000D03*
X171300000Y-37955000D03*
D17*
X178200000Y-30200000D03*
X178902944Y-28502944D03*
X178902944Y-31897056D03*
X180600000Y-27800000D03*
D18*
X180600000Y-30200000D03*
D17*
X180600000Y-32600000D03*
X182297056Y-28502944D03*
X182297056Y-31897056D03*
X183000000Y-30200000D03*
X147200000Y-30200000D03*
X147902944Y-28502944D03*
X147902944Y-31897056D03*
X149600000Y-27800000D03*
D18*
X149600000Y-30200000D03*
D17*
X149600000Y-32600000D03*
X151297056Y-28502944D03*
X151297056Y-31897056D03*
X152000000Y-30200000D03*
X147200000Y-61200000D03*
X147902944Y-59502944D03*
X147902944Y-62897056D03*
X149600000Y-58800000D03*
D18*
X149600000Y-61200000D03*
D17*
X149600000Y-63600000D03*
X151297056Y-59502944D03*
X151297056Y-62897056D03*
X152000000Y-61200000D03*
X178200000Y-61200000D03*
X178902944Y-59502944D03*
X178902944Y-62897056D03*
X180600000Y-58800000D03*
D18*
X180600000Y-61200000D03*
D17*
X180600000Y-63600000D03*
X182297056Y-59502944D03*
X182297056Y-62897056D03*
X183000000Y-61200000D03*
D19*
X177625000Y-56400000D03*
X175975000Y-56400000D03*
D20*
X155685000Y-30470000D03*
X157885000Y-30470000D03*
X157885000Y-28770000D03*
X155685000Y-28770000D03*
D21*
X160770000Y-37550000D03*
X161730000Y-37550000D03*
D22*
X152150000Y-42662500D03*
X152650000Y-42662500D03*
X153150000Y-42662500D03*
X153650000Y-42662500D03*
X154150000Y-42662500D03*
X154650000Y-42662500D03*
X155150000Y-42662500D03*
X155650000Y-42662500D03*
X156150000Y-42662500D03*
X156650000Y-42662500D03*
X157150000Y-42662500D03*
X157650000Y-42662500D03*
D23*
X159062500Y-41250000D03*
X159062500Y-40750000D03*
X159062500Y-40250000D03*
X159062500Y-39750000D03*
X159062500Y-39250000D03*
X159062500Y-38750000D03*
X159062500Y-38250000D03*
X159062500Y-37750000D03*
X159062500Y-37250000D03*
X159062500Y-36750000D03*
X159062500Y-36250000D03*
X159062500Y-35750000D03*
D22*
X157650000Y-34337500D03*
X157150000Y-34337500D03*
X156650000Y-34337500D03*
X156150000Y-34337500D03*
X155650000Y-34337500D03*
X155150000Y-34337500D03*
X154650000Y-34337500D03*
X154150000Y-34337500D03*
X153650000Y-34337500D03*
X153150000Y-34337500D03*
X152650000Y-34337500D03*
X152150000Y-34337500D03*
D23*
X150737500Y-35750000D03*
X150737500Y-36250000D03*
X150737500Y-36750000D03*
X150737500Y-37250000D03*
X150737500Y-37750000D03*
X150737500Y-38250000D03*
X150737500Y-38750000D03*
X150737500Y-39250000D03*
X150737500Y-39750000D03*
X150737500Y-40250000D03*
X150737500Y-40750000D03*
X150737500Y-41250000D03*
D21*
X160770000Y-36470000D03*
X161730000Y-36470000D03*
D19*
X177625000Y-54800000D03*
X175975000Y-54800000D03*
D24*
X154085000Y-30400000D03*
X154085000Y-29440000D03*
X159485000Y-30400000D03*
X159485000Y-29440000D03*
D25*
X149000000Y-37200000D03*
X147100000Y-37200000D03*
D26*
X156200000Y-50375000D03*
X156200000Y-48725000D03*
X156200000Y-47075000D03*
X156200000Y-45425000D03*
X154300000Y-47075000D03*
X154300000Y-45425000D03*
X152400000Y-47075000D03*
X152400000Y-45425000D03*
X150500000Y-47075000D03*
X150500000Y-45425000D03*
D27*
X158000000Y-48775000D03*
X158000000Y-50325000D03*
D28*
X162280000Y-44600000D03*
X161320000Y-44600000D03*
X162280000Y-46200000D03*
X161320000Y-46200000D03*
D29*
X172675000Y-56120000D03*
X169725000Y-56120000D03*
D30*
X160000000Y-49575000D03*
X160000000Y-48025000D03*
D17*
X188200000Y-30200000D03*
X188902944Y-28502944D03*
X188902944Y-31897056D03*
X190600000Y-27800000D03*
D18*
X190600000Y-30200000D03*
D17*
X190600000Y-32600000D03*
X192297056Y-28502944D03*
X192297056Y-31897056D03*
X193000000Y-30200000D03*
X219200000Y-30200000D03*
X219902944Y-28502944D03*
X219902944Y-31897056D03*
X221600000Y-27800000D03*
D18*
X221600000Y-30200000D03*
D17*
X221600000Y-32600000D03*
X223297056Y-28502944D03*
X223297056Y-31897056D03*
X224000000Y-30200000D03*
X188200000Y-61200000D03*
X188902944Y-59502944D03*
X188902944Y-62897056D03*
X190600000Y-58800000D03*
D18*
X190600000Y-61200000D03*
D17*
X190600000Y-63600000D03*
X192297056Y-59502944D03*
X192297056Y-62897056D03*
X193000000Y-61200000D03*
D31*
X198600000Y-33200000D03*
D32*
X196060000Y-33200000D03*
X198600000Y-30660000D03*
X196060000Y-30660000D03*
X198600000Y-28120000D03*
X196060000Y-28120000D03*
D17*
X219200000Y-61175001D03*
X219902944Y-59477945D03*
X219902944Y-62872057D03*
X221600000Y-58775001D03*
D18*
X221600000Y-61175001D03*
D17*
X221600000Y-63575001D03*
X223297056Y-59477945D03*
X223297056Y-62872057D03*
X224000000Y-61175001D03*
D26*
X161800000Y-49625000D03*
X161800000Y-47975000D03*
D33*
X155895000Y-32320000D03*
X154875000Y-32320000D03*
D19*
X161175000Y-42570000D03*
X159525000Y-42570000D03*
D26*
X150276800Y-50325000D03*
X150276800Y-48675000D03*
X152600000Y-50325000D03*
X152600000Y-48675000D03*
X154300000Y-50375000D03*
X154300000Y-48725000D03*
D34*
X162525000Y-29770000D03*
X164175000Y-29770000D03*
X162525000Y-28070000D03*
X164175000Y-28070000D03*
D35*
X167437500Y-29770000D03*
X165862500Y-29770000D03*
D36*
X223850000Y-55315000D03*
X223850000Y-52775000D03*
X223850000Y-50235000D03*
D37*
X205750000Y-61157500D03*
X205750000Y-59582500D03*
D38*
X217400000Y-63100000D03*
X206400000Y-63100000D03*
D39*
X209400000Y-53100000D03*
D40*
X214400000Y-53100000D03*
D41*
X205750000Y-56545000D03*
X205750000Y-58195000D03*
D21*
X160770000Y-40670000D03*
X161730000Y-40670000D03*
D42*
X205950000Y-36790000D03*
X205950000Y-37750000D03*
D43*
X207424300Y-35220000D03*
X207424300Y-35719999D03*
X207424300Y-36220001D03*
X207424300Y-36720000D03*
X207424300Y-37219999D03*
X207424300Y-37720001D03*
X207424300Y-38220000D03*
D44*
X208350000Y-39145700D03*
X208849999Y-39145700D03*
X209350001Y-39145700D03*
X209850000Y-39145700D03*
X210349999Y-39145700D03*
X210850001Y-39145700D03*
X211350000Y-39145700D03*
D43*
X212275700Y-38220000D03*
X212275700Y-37720001D03*
X212275700Y-37219999D03*
X212275700Y-36720000D03*
X212275700Y-36220001D03*
X212275700Y-35719999D03*
X212275700Y-35220000D03*
D44*
X211350000Y-34294300D03*
X210850001Y-34294300D03*
X210349999Y-34294300D03*
X209850000Y-34294300D03*
X209350001Y-34294300D03*
X208849999Y-34294300D03*
X208350000Y-34294300D03*
D45*
X209850000Y-36720000D03*
D46*
X219550000Y-46570000D03*
X219550000Y-38570000D03*
D47*
X203537500Y-31670000D03*
X208162500Y-31670000D03*
D21*
X157772400Y-45242400D03*
X158732400Y-45242400D03*
D28*
X203880000Y-58545000D03*
X202920000Y-58545000D03*
D24*
X158800000Y-34050000D03*
X158800000Y-33090000D03*
D48*
X188775000Y-50305000D03*
X188775000Y-49285000D03*
D35*
X167437500Y-28070000D03*
X165862500Y-28070000D03*
D30*
X217300000Y-35595000D03*
X217300000Y-34045000D03*
D28*
X203880000Y-57545000D03*
X202920000Y-57545000D03*
D49*
X218275000Y-49320000D03*
X219825000Y-49320000D03*
D50*
X197987500Y-61010000D03*
X198637500Y-61010000D03*
X199287500Y-61010000D03*
X199937500Y-61010000D03*
X200587500Y-61010000D03*
D51*
X195912500Y-63670000D03*
D52*
X196800000Y-61095000D03*
D53*
X198137500Y-63670000D03*
D54*
X200837500Y-63670000D03*
D52*
X201775000Y-61095000D03*
D51*
X202662500Y-63670000D03*
D55*
X182717600Y-35819000D03*
D56*
X180177599Y-35818999D03*
X177637599Y-35818999D03*
X175097599Y-35818999D03*
X172557599Y-35818999D03*
X170017599Y-35818999D03*
X167477599Y-35818999D03*
D48*
X200810000Y-33210000D03*
X200810000Y-32190000D03*
D57*
X173300000Y-59787500D03*
D58*
X170799999Y-59787499D03*
X168299999Y-59787499D03*
D59*
X215325000Y-33845000D03*
X215325000Y-36795000D03*
D57*
X162050000Y-59787500D03*
D58*
X159549999Y-59787499D03*
X157049999Y-59787499D03*
D60*
X217825000Y-53720000D03*
X220775000Y-53720000D03*
D33*
X205660000Y-46070000D03*
X204640000Y-46070000D03*
D21*
X157770000Y-44270000D03*
X158730000Y-44270000D03*
D42*
X202950000Y-41390000D03*
X202950000Y-42350000D03*
D28*
X197560000Y-41540000D03*
X196600000Y-41540000D03*
D61*
X188453000Y-35819000D03*
D56*
X190992999Y-35818999D03*
X193532999Y-35818999D03*
X196072999Y-35818999D03*
X198612999Y-35818999D03*
X201152999Y-35818999D03*
X203692999Y-35818999D03*
D62*
X206050000Y-28602500D03*
D58*
X208549999Y-28602499D03*
X211049999Y-28602499D03*
X213549999Y-28602499D03*
D21*
X198407500Y-51920000D03*
X199367500Y-51920000D03*
D63*
X216162500Y-31670000D03*
X211537500Y-31670000D03*
D28*
X193760000Y-41540000D03*
X192800000Y-41540000D03*
D42*
X200800000Y-30386000D03*
X200800000Y-31346000D03*
D64*
X197437500Y-43257500D03*
X196937500Y-43257500D03*
X196437500Y-43257500D03*
X195937500Y-43257500D03*
X195437500Y-43257500D03*
X194937500Y-43257500D03*
X194437500Y-43257500D03*
X193937500Y-43257500D03*
X193437500Y-43257500D03*
X192937500Y-43257500D03*
X192437500Y-43257500D03*
X191937500Y-43257500D03*
D65*
X190525000Y-44670000D03*
X190525000Y-45170000D03*
X190525000Y-45670000D03*
X190525000Y-46170000D03*
X190525000Y-46670000D03*
X190525000Y-47170000D03*
X190525000Y-47670000D03*
X190525000Y-48170000D03*
X190525000Y-48670000D03*
X190525000Y-49170000D03*
X190525000Y-49670000D03*
X190525000Y-50170000D03*
D64*
X191937500Y-51582500D03*
X192437500Y-51582500D03*
X192937500Y-51582500D03*
X193437500Y-51582500D03*
X193937500Y-51582500D03*
X194437500Y-51582500D03*
X194937500Y-51582500D03*
X195437500Y-51582500D03*
X195937500Y-51582500D03*
X196437500Y-51582500D03*
X196937500Y-51582500D03*
X197437500Y-51582500D03*
D65*
X198850000Y-50170000D03*
X198850000Y-49670000D03*
X198850000Y-49170000D03*
X198850000Y-48670000D03*
X198850000Y-48170000D03*
X198850000Y-47670000D03*
X198850000Y-47170000D03*
X198850000Y-46670000D03*
X198850000Y-46170000D03*
X198850000Y-45670000D03*
X198850000Y-45170000D03*
X198850000Y-44670000D03*
D34*
X166425000Y-57470000D03*
X168075000Y-57470000D03*
D33*
X205660000Y-44970000D03*
X204640000Y-44970000D03*
D66*
X208189400Y-42128000D03*
X211489400Y-42128000D03*
D67*
X197825000Y-58370000D03*
X198325000Y-58370000D03*
X198825000Y-58370000D03*
X199325000Y-58370000D03*
X199825000Y-58370000D03*
X200325000Y-58370000D03*
X200825000Y-58370000D03*
D68*
X201775000Y-57420000D03*
X201775000Y-56920000D03*
X201775000Y-56420000D03*
X201775000Y-55920000D03*
X201775000Y-55420000D03*
X201775000Y-54920000D03*
X201775000Y-54420000D03*
D67*
X200825000Y-53470000D03*
X200325000Y-53470000D03*
X199825000Y-53470000D03*
X199325000Y-53470000D03*
X198825000Y-53470000D03*
X198325000Y-53470000D03*
X197825000Y-53470000D03*
D68*
X196875000Y-54420000D03*
X196875000Y-54920000D03*
X196875000Y-55420000D03*
X196875000Y-55920000D03*
X196875000Y-56420000D03*
X196875000Y-56920000D03*
X196875000Y-57420000D03*
D69*
X199325000Y-55920000D03*
D33*
X213570000Y-56170000D03*
X212550000Y-56170000D03*
D24*
X199187500Y-43690000D03*
X199187500Y-42730000D03*
D33*
X195690000Y-41540000D03*
X194670000Y-41540000D03*
D27*
X204750000Y-37795000D03*
X204750000Y-39345000D03*
D66*
X219075000Y-34920000D03*
X222375000Y-34920000D03*
D42*
X150450000Y-42490000D03*
X150450000Y-43450000D03*
D34*
X155325000Y-57470000D03*
X156975000Y-57470000D03*
D27*
X213370400Y-39395000D03*
X213370400Y-40945000D03*
D42*
X190287500Y-51120000D03*
X190287500Y-52080000D03*
D70*
X201082500Y-27770000D03*
X202657500Y-27770000D03*
D60*
X217825000Y-51320000D03*
X220775000Y-51320000D03*
D19*
X202714600Y-29240400D03*
X201064600Y-29240400D03*
D71*
X188775000Y-47310000D03*
X188775000Y-48330000D03*
D72*
X197050000Y-39140000D03*
X193350000Y-39140000D03*
D73*
X149019800Y-38943200D03*
X147469800Y-38943200D03*
D60*
X208339400Y-44328000D03*
X211289400Y-44328000D03*
D24*
X191025000Y-42350000D03*
X191025000Y-41390000D03*
D33*
X211610000Y-56170000D03*
X210590000Y-56170000D03*
D21*
X160770000Y-39149096D03*
X161730000Y-39149096D03*
D42*
X195675000Y-57640000D03*
X195675000Y-58600000D03*
D33*
X205660000Y-47170000D03*
X204640000Y-47170000D03*
D74*
X172600000Y-33200000D03*
D32*
X175140000Y-33200000D03*
X172600000Y-30660000D03*
X175140000Y-30660000D03*
X172600000Y-28120000D03*
X175140000Y-28120000D03*
D75*
X147600000Y-41900000D03*
D56*
X147599999Y-44439999D03*
X147599999Y-46979999D03*
X147599999Y-49519999D03*
G36*
X197724845Y-60288512D02*
G01*
X197724614Y-60290266D01*
X197717266Y-60301262D01*
X197713500Y-60320199D01*
X197713500Y-61699801D01*
X197717266Y-61718737D01*
X197727879Y-61734620D01*
X197738875Y-61741967D01*
X197739760Y-61743499D01*
X197739083Y-61745134D01*
X197737374Y-61745592D01*
X197720867Y-61742309D01*
X197720253Y-61743170D01*
X197718620Y-61743341D01*
X197694522Y-61735382D01*
X197630545Y-61749752D01*
X197583058Y-61794970D01*
X197568844Y-61846348D01*
X197567966Y-61847517D01*
X197567547Y-61847592D01*
X197565462Y-61858076D01*
X197564265Y-61859534D01*
X197562389Y-61859349D01*
X197561500Y-61857686D01*
X197561500Y-60320199D01*
X197557733Y-60301262D01*
X197550386Y-60290267D01*
X197550155Y-60288513D01*
X197551406Y-60287262D01*
X197553160Y-60287493D01*
X197566952Y-60296708D01*
X197567050Y-60296562D01*
X197568468Y-60295687D01*
X197570056Y-60296190D01*
X197579551Y-60304795D01*
X197637500Y-60319310D01*
X197695448Y-60304795D01*
X197704943Y-60296190D01*
X197706531Y-60295687D01*
X197707949Y-60296561D01*
X197708047Y-60296708D01*
X197721840Y-60287492D01*
X197723594Y-60287261D01*
X197724845Y-60288512D01*
G37*
G36*
X201024845Y-60288512D02*
G01*
X201024614Y-60290266D01*
X201017266Y-60301262D01*
X201013500Y-60320199D01*
X201013500Y-61857682D01*
X201012611Y-61859345D01*
X201010735Y-61859530D01*
X201009538Y-61858072D01*
X201007453Y-61847593D01*
X201007036Y-61847518D01*
X201006158Y-61846350D01*
X200991929Y-61794951D01*
X200944433Y-61749741D01*
X200880455Y-61735382D01*
X200856381Y-61743338D01*
X200854746Y-61743167D01*
X200854133Y-61742308D01*
X200837626Y-61745592D01*
X200835917Y-61745134D01*
X200835240Y-61743499D01*
X200836125Y-61741967D01*
X200847120Y-61734620D01*
X200857733Y-61718737D01*
X200861500Y-61699801D01*
X200861500Y-60320199D01*
X200857733Y-60301262D01*
X200850386Y-60290267D01*
X200850155Y-60288513D01*
X200851406Y-60287262D01*
X200853160Y-60287493D01*
X200866952Y-60296708D01*
X200867050Y-60296562D01*
X200868468Y-60295687D01*
X200870056Y-60296190D01*
X200879551Y-60304795D01*
X200937500Y-60319310D01*
X200995448Y-60304795D01*
X201004943Y-60296190D01*
X201006531Y-60295687D01*
X201007949Y-60296561D01*
X201008047Y-60296708D01*
X201021840Y-60287492D01*
X201023594Y-60287261D01*
X201024845Y-60288512D01*
G37*
G36*
X200325947Y-60284202D02*
G01*
X200326994Y-60285478D01*
X200326725Y-60287107D01*
X200317266Y-60301262D01*
X200313500Y-60320199D01*
X200313500Y-61699801D01*
X200317266Y-61718737D01*
X200326725Y-61732892D01*
X200326994Y-61734521D01*
X200325947Y-61735797D01*
X200324297Y-61735851D01*
X200286488Y-61720190D01*
X200238512Y-61720190D01*
X200200702Y-61735851D01*
X200199052Y-61735797D01*
X200198005Y-61734521D01*
X200198274Y-61732892D01*
X200207733Y-61718737D01*
X200211500Y-61699801D01*
X200211500Y-60320199D01*
X200207733Y-60301262D01*
X200198274Y-60287107D01*
X200198005Y-60285478D01*
X200199052Y-60284202D01*
X200200702Y-60284148D01*
X200238513Y-60299809D01*
X200286487Y-60299809D01*
X200324297Y-60284148D01*
X200325947Y-60284202D01*
G37*
G36*
X199675947Y-60284202D02*
G01*
X199676994Y-60285478D01*
X199676725Y-60287107D01*
X199667266Y-60301262D01*
X199663500Y-60320199D01*
X199663500Y-61699801D01*
X199667266Y-61718737D01*
X199676725Y-61732892D01*
X199676994Y-61734521D01*
X199675947Y-61735797D01*
X199674297Y-61735851D01*
X199636488Y-61720190D01*
X199588512Y-61720190D01*
X199550702Y-61735851D01*
X199549052Y-61735797D01*
X199548005Y-61734521D01*
X199548274Y-61732892D01*
X199557733Y-61718737D01*
X199561500Y-61699801D01*
X199561500Y-60320199D01*
X199557733Y-60301262D01*
X199548274Y-60287107D01*
X199548005Y-60285478D01*
X199549052Y-60284202D01*
X199550702Y-60284148D01*
X199588513Y-60299809D01*
X199636487Y-60299809D01*
X199674297Y-60284148D01*
X199675947Y-60284202D01*
G37*
G36*
X199025947Y-60284202D02*
G01*
X199026994Y-60285478D01*
X199026725Y-60287107D01*
X199017266Y-60301262D01*
X199013500Y-60320199D01*
X199013500Y-61699801D01*
X199017266Y-61718737D01*
X199026725Y-61732892D01*
X199026994Y-61734521D01*
X199025947Y-61735797D01*
X199024297Y-61735851D01*
X198986488Y-61720190D01*
X198938512Y-61720190D01*
X198900702Y-61735851D01*
X198899052Y-61735797D01*
X198898005Y-61734521D01*
X198898274Y-61732892D01*
X198907733Y-61718737D01*
X198911500Y-61699801D01*
X198911500Y-60320199D01*
X198907733Y-60301262D01*
X198898274Y-60287107D01*
X198898005Y-60285478D01*
X198899052Y-60284202D01*
X198900702Y-60284148D01*
X198938513Y-60299809D01*
X198986487Y-60299809D01*
X199024297Y-60284148D01*
X199025947Y-60284202D01*
G37*
G36*
X198375947Y-60284202D02*
G01*
X198376994Y-60285478D01*
X198376725Y-60287107D01*
X198367266Y-60301262D01*
X198363500Y-60320199D01*
X198363500Y-61699801D01*
X198367266Y-61718737D01*
X198376725Y-61732892D01*
X198376994Y-61734521D01*
X198375947Y-61735797D01*
X198374297Y-61735851D01*
X198336488Y-61720190D01*
X198288512Y-61720190D01*
X198250702Y-61735851D01*
X198249052Y-61735797D01*
X198248005Y-61734521D01*
X198248274Y-61732892D01*
X198257733Y-61718737D01*
X198261500Y-61699801D01*
X198261500Y-60320199D01*
X198257733Y-60301262D01*
X198248274Y-60287107D01*
X198248005Y-60285478D01*
X198249052Y-60284202D01*
X198250702Y-60284148D01*
X198288513Y-60299809D01*
X198336487Y-60299809D01*
X198374297Y-60284148D01*
X198375947Y-60284202D01*
G37*
G36*
X200673467Y-57967425D02*
G01*
X200673270Y-57969271D01*
X200659524Y-57989844D01*
X200651000Y-58032699D01*
X200651000Y-58707301D01*
X200659524Y-58750155D01*
X200673269Y-58770726D01*
X200673466Y-58772572D01*
X200672060Y-58773785D01*
X200670263Y-58773319D01*
X200632952Y-58739503D01*
X200575000Y-58724986D01*
X200517047Y-58739503D01*
X200479736Y-58773319D01*
X200477939Y-58773785D01*
X200476533Y-58772572D01*
X200476730Y-58770726D01*
X200490475Y-58750155D01*
X200499000Y-58707301D01*
X200499000Y-58032699D01*
X200490475Y-57989844D01*
X200476729Y-57969271D01*
X200476532Y-57967425D01*
X200477938Y-57966212D01*
X200479735Y-57966678D01*
X200517048Y-58000496D01*
X200575000Y-58015012D01*
X200632951Y-58000496D01*
X200670264Y-57966678D01*
X200672061Y-57966212D01*
X200673467Y-57967425D01*
G37*
G36*
X200173467Y-57967425D02*
G01*
X200173270Y-57969271D01*
X200159524Y-57989844D01*
X200151000Y-58032699D01*
X200151000Y-58707301D01*
X200159524Y-58750155D01*
X200173269Y-58770726D01*
X200173466Y-58772572D01*
X200172060Y-58773785D01*
X200170263Y-58773319D01*
X200132952Y-58739503D01*
X200075000Y-58724986D01*
X200017047Y-58739503D01*
X199979736Y-58773319D01*
X199977939Y-58773785D01*
X199976533Y-58772572D01*
X199976730Y-58770726D01*
X199990475Y-58750155D01*
X199999000Y-58707301D01*
X199999000Y-58032699D01*
X199990475Y-57989844D01*
X199976729Y-57969271D01*
X199976532Y-57967425D01*
X199977938Y-57966212D01*
X199979735Y-57966678D01*
X200017048Y-58000496D01*
X200075000Y-58015012D01*
X200132951Y-58000496D01*
X200170264Y-57966678D01*
X200172061Y-57966212D01*
X200173467Y-57967425D01*
G37*
G36*
X199673467Y-57967425D02*
G01*
X199673270Y-57969271D01*
X199659524Y-57989844D01*
X199651000Y-58032699D01*
X199651000Y-58707301D01*
X199659524Y-58750155D01*
X199673269Y-58770726D01*
X199673466Y-58772572D01*
X199672060Y-58773785D01*
X199670263Y-58773319D01*
X199632952Y-58739503D01*
X199575000Y-58724986D01*
X199517047Y-58739503D01*
X199479736Y-58773319D01*
X199477939Y-58773785D01*
X199476533Y-58772572D01*
X199476730Y-58770726D01*
X199490475Y-58750155D01*
X199499000Y-58707301D01*
X199499000Y-58032699D01*
X199490475Y-57989844D01*
X199476729Y-57969271D01*
X199476532Y-57967425D01*
X199477938Y-57966212D01*
X199479735Y-57966678D01*
X199517048Y-58000496D01*
X199575000Y-58015012D01*
X199632951Y-58000496D01*
X199670264Y-57966678D01*
X199672061Y-57966212D01*
X199673467Y-57967425D01*
G37*
G36*
X199173467Y-57967425D02*
G01*
X199173270Y-57969271D01*
X199159524Y-57989844D01*
X199151000Y-58032699D01*
X199151000Y-58707301D01*
X199159524Y-58750155D01*
X199173269Y-58770726D01*
X199173466Y-58772572D01*
X199172060Y-58773785D01*
X199170263Y-58773319D01*
X199132952Y-58739503D01*
X199075000Y-58724986D01*
X199017047Y-58739503D01*
X198979736Y-58773319D01*
X198977939Y-58773785D01*
X198976533Y-58772572D01*
X198976730Y-58770726D01*
X198990475Y-58750155D01*
X198999000Y-58707301D01*
X198999000Y-58032699D01*
X198990475Y-57989844D01*
X198976729Y-57969271D01*
X198976532Y-57967425D01*
X198977938Y-57966212D01*
X198979735Y-57966678D01*
X199017048Y-58000496D01*
X199075000Y-58015012D01*
X199132951Y-58000496D01*
X199170264Y-57966678D01*
X199172061Y-57966212D01*
X199173467Y-57967425D01*
G37*
G36*
X198673467Y-57967425D02*
G01*
X198673270Y-57969271D01*
X198659524Y-57989844D01*
X198651000Y-58032699D01*
X198651000Y-58707301D01*
X198659524Y-58750155D01*
X198673269Y-58770726D01*
X198673466Y-58772572D01*
X198672060Y-58773785D01*
X198670263Y-58773319D01*
X198632952Y-58739503D01*
X198575000Y-58724986D01*
X198517047Y-58739503D01*
X198479736Y-58773319D01*
X198477939Y-58773785D01*
X198476533Y-58772572D01*
X198476730Y-58770726D01*
X198490475Y-58750155D01*
X198499000Y-58707301D01*
X198499000Y-58032699D01*
X198490475Y-57989844D01*
X198476729Y-57969271D01*
X198476532Y-57967425D01*
X198477938Y-57966212D01*
X198479735Y-57966678D01*
X198517048Y-58000496D01*
X198575000Y-58015012D01*
X198632951Y-58000496D01*
X198670264Y-57966678D01*
X198672061Y-57966212D01*
X198673467Y-57967425D01*
G37*
G36*
X198173467Y-57967425D02*
G01*
X198173270Y-57969271D01*
X198159524Y-57989844D01*
X198151000Y-58032699D01*
X198151000Y-58707301D01*
X198159524Y-58750155D01*
X198173269Y-58770726D01*
X198173466Y-58772572D01*
X198172060Y-58773785D01*
X198170263Y-58773319D01*
X198132952Y-58739503D01*
X198075000Y-58724986D01*
X198017047Y-58739503D01*
X197979736Y-58773319D01*
X197977939Y-58773785D01*
X197976533Y-58772572D01*
X197976730Y-58770726D01*
X197990475Y-58750155D01*
X197999000Y-58707301D01*
X197999000Y-58032699D01*
X197990475Y-57989844D01*
X197976729Y-57969271D01*
X197976532Y-57967425D01*
X197977938Y-57966212D01*
X197979735Y-57966678D01*
X198017048Y-58000496D01*
X198075000Y-58015012D01*
X198132951Y-58000496D01*
X198170264Y-57966678D01*
X198172061Y-57966212D01*
X198173467Y-57967425D01*
G37*
G36*
X201374271Y-57071729D02*
G01*
X201394844Y-57085475D01*
X201437699Y-57094000D01*
X202112301Y-57094000D01*
X202155155Y-57085475D01*
X202175726Y-57071730D01*
X202177572Y-57071533D01*
X202178785Y-57072939D01*
X202178319Y-57074736D01*
X202144503Y-57112047D01*
X202129986Y-57169999D01*
X202144503Y-57227952D01*
X202178319Y-57265263D01*
X202178785Y-57267060D01*
X202177572Y-57268466D01*
X202175726Y-57268269D01*
X202155155Y-57254524D01*
X202112301Y-57246000D01*
X201437699Y-57246000D01*
X201394844Y-57254524D01*
X201374271Y-57268270D01*
X201372425Y-57268467D01*
X201371212Y-57267061D01*
X201371678Y-57265264D01*
X201405496Y-57227951D01*
X201420012Y-57169999D01*
X201405496Y-57112048D01*
X201371678Y-57074735D01*
X201371212Y-57072938D01*
X201372425Y-57071532D01*
X201374271Y-57071729D01*
G37*
G36*
X196474271Y-57071729D02*
G01*
X196494844Y-57085475D01*
X196537699Y-57094000D01*
X197212301Y-57094000D01*
X197255155Y-57085475D01*
X197275726Y-57071730D01*
X197277572Y-57071533D01*
X197278785Y-57072939D01*
X197278319Y-57074736D01*
X197244503Y-57112047D01*
X197229986Y-57169999D01*
X197244503Y-57227952D01*
X197278319Y-57265263D01*
X197278785Y-57267060D01*
X197277572Y-57268466D01*
X197275726Y-57268269D01*
X197255155Y-57254524D01*
X197212301Y-57246000D01*
X196537699Y-57246000D01*
X196494844Y-57254524D01*
X196474271Y-57268270D01*
X196472425Y-57268467D01*
X196471212Y-57267061D01*
X196471678Y-57265264D01*
X196505496Y-57227951D01*
X196520012Y-57169999D01*
X196505496Y-57112048D01*
X196471678Y-57074735D01*
X196471212Y-57072938D01*
X196472425Y-57071532D01*
X196474271Y-57071729D01*
G37*
G36*
X201374271Y-56571729D02*
G01*
X201394844Y-56585475D01*
X201437699Y-56594000D01*
X202112301Y-56594000D01*
X202155155Y-56585475D01*
X202175726Y-56571730D01*
X202177572Y-56571533D01*
X202178785Y-56572939D01*
X202178319Y-56574736D01*
X202144503Y-56612047D01*
X202129986Y-56669999D01*
X202144503Y-56727952D01*
X202178319Y-56765263D01*
X202178785Y-56767060D01*
X202177572Y-56768466D01*
X202175726Y-56768269D01*
X202155155Y-56754524D01*
X202112301Y-56746000D01*
X201437699Y-56746000D01*
X201394844Y-56754524D01*
X201374271Y-56768270D01*
X201372425Y-56768467D01*
X201371212Y-56767061D01*
X201371678Y-56765264D01*
X201405496Y-56727951D01*
X201420012Y-56669999D01*
X201405496Y-56612048D01*
X201371678Y-56574735D01*
X201371212Y-56572938D01*
X201372425Y-56571532D01*
X201374271Y-56571729D01*
G37*
G36*
X196474271Y-56571729D02*
G01*
X196494844Y-56585475D01*
X196537699Y-56594000D01*
X197212301Y-56594000D01*
X197255155Y-56585475D01*
X197275726Y-56571730D01*
X197277572Y-56571533D01*
X197278785Y-56572939D01*
X197278319Y-56574736D01*
X197244503Y-56612047D01*
X197229986Y-56669999D01*
X197244503Y-56727952D01*
X197278319Y-56765263D01*
X197278785Y-56767060D01*
X197277572Y-56768466D01*
X197275726Y-56768269D01*
X197255155Y-56754524D01*
X197212301Y-56746000D01*
X196537699Y-56746000D01*
X196494844Y-56754524D01*
X196474271Y-56768270D01*
X196472425Y-56768467D01*
X196471212Y-56767061D01*
X196471678Y-56765264D01*
X196505496Y-56727951D01*
X196520012Y-56669999D01*
X196505496Y-56612048D01*
X196471678Y-56574735D01*
X196471212Y-56572938D01*
X196472425Y-56571532D01*
X196474271Y-56571729D01*
G37*
G36*
X201374271Y-56071729D02*
G01*
X201394844Y-56085475D01*
X201437699Y-56094000D01*
X202112301Y-56094000D01*
X202155155Y-56085475D01*
X202175726Y-56071730D01*
X202177572Y-56071533D01*
X202178785Y-56072939D01*
X202178319Y-56074736D01*
X202144503Y-56112047D01*
X202129986Y-56169999D01*
X202144503Y-56227952D01*
X202178319Y-56265263D01*
X202178785Y-56267060D01*
X202177572Y-56268466D01*
X202175726Y-56268269D01*
X202155155Y-56254524D01*
X202112301Y-56246000D01*
X201437699Y-56246000D01*
X201394844Y-56254524D01*
X201374271Y-56268270D01*
X201372425Y-56268467D01*
X201371212Y-56267061D01*
X201371678Y-56265264D01*
X201405496Y-56227951D01*
X201420012Y-56169999D01*
X201405496Y-56112048D01*
X201371678Y-56074735D01*
X201371212Y-56072938D01*
X201372425Y-56071532D01*
X201374271Y-56071729D01*
G37*
G36*
X196474271Y-56071729D02*
G01*
X196494844Y-56085475D01*
X196537699Y-56094000D01*
X197212301Y-56094000D01*
X197255155Y-56085475D01*
X197275726Y-56071730D01*
X197277572Y-56071533D01*
X197278785Y-56072939D01*
X197278319Y-56074736D01*
X197244503Y-56112047D01*
X197229986Y-56169999D01*
X197244503Y-56227952D01*
X197278319Y-56265263D01*
X197278785Y-56267060D01*
X197277572Y-56268466D01*
X197275726Y-56268269D01*
X197255155Y-56254524D01*
X197212301Y-56246000D01*
X196537699Y-56246000D01*
X196494844Y-56254524D01*
X196474271Y-56268270D01*
X196472425Y-56268467D01*
X196471212Y-56267061D01*
X196471678Y-56265264D01*
X196505496Y-56227951D01*
X196520012Y-56169999D01*
X196505496Y-56112048D01*
X196471678Y-56074735D01*
X196471212Y-56072938D01*
X196472425Y-56071532D01*
X196474271Y-56071729D01*
G37*
G36*
X201374271Y-55571729D02*
G01*
X201394844Y-55585475D01*
X201437699Y-55594000D01*
X202112301Y-55594000D01*
X202155155Y-55585475D01*
X202175726Y-55571731D01*
X202177572Y-55571534D01*
X202178785Y-55572940D01*
X202178319Y-55574737D01*
X202144504Y-55612044D01*
X202129986Y-55669996D01*
X202144501Y-55727948D01*
X202178321Y-55765264D01*
X202178787Y-55767061D01*
X202177574Y-55768467D01*
X202175728Y-55768270D01*
X202155155Y-55754524D01*
X202112301Y-55746000D01*
X201437699Y-55746000D01*
X201394844Y-55754524D01*
X201374271Y-55768270D01*
X201372425Y-55768467D01*
X201371212Y-55767061D01*
X201371678Y-55765264D01*
X201405497Y-55727948D01*
X201420012Y-55669996D01*
X201405494Y-55612045D01*
X201371678Y-55574735D01*
X201371212Y-55572938D01*
X201372425Y-55571532D01*
X201374271Y-55571729D01*
G37*
G36*
X196474271Y-55571729D02*
G01*
X196494844Y-55585475D01*
X196537699Y-55594000D01*
X197212301Y-55594000D01*
X197255155Y-55585475D01*
X197275726Y-55571731D01*
X197277572Y-55571534D01*
X197278785Y-55572940D01*
X197278319Y-55574737D01*
X197244504Y-55612044D01*
X197229986Y-55669996D01*
X197244501Y-55727948D01*
X197278321Y-55765264D01*
X197278787Y-55767061D01*
X197277574Y-55768467D01*
X197275728Y-55768270D01*
X197255155Y-55754524D01*
X197212301Y-55746000D01*
X196537699Y-55746000D01*
X196494844Y-55754524D01*
X196474271Y-55768270D01*
X196472425Y-55768467D01*
X196471212Y-55767061D01*
X196471678Y-55765264D01*
X196505497Y-55727948D01*
X196520012Y-55669996D01*
X196505494Y-55612045D01*
X196471678Y-55574735D01*
X196471212Y-55572938D01*
X196472425Y-55571532D01*
X196474271Y-55571729D01*
G37*
G36*
X201374271Y-55071729D02*
G01*
X201394844Y-55085475D01*
X201437699Y-55094000D01*
X202112301Y-55094000D01*
X202155155Y-55085475D01*
X202175726Y-55071731D01*
X202177572Y-55071534D01*
X202178785Y-55072940D01*
X202178319Y-55074737D01*
X202144504Y-55112044D01*
X202129986Y-55169996D01*
X202144501Y-55227948D01*
X202178321Y-55265264D01*
X202178787Y-55267061D01*
X202177574Y-55268467D01*
X202175728Y-55268270D01*
X202155155Y-55254524D01*
X202112301Y-55246000D01*
X201437699Y-55246000D01*
X201394844Y-55254524D01*
X201374271Y-55268270D01*
X201372425Y-55268467D01*
X201371212Y-55267061D01*
X201371678Y-55265264D01*
X201405497Y-55227948D01*
X201420012Y-55169996D01*
X201405494Y-55112045D01*
X201371678Y-55074735D01*
X201371212Y-55072938D01*
X201372425Y-55071532D01*
X201374271Y-55071729D01*
G37*
G36*
X196474271Y-55071729D02*
G01*
X196494844Y-55085475D01*
X196537699Y-55094000D01*
X197212301Y-55094000D01*
X197255155Y-55085475D01*
X197275726Y-55071731D01*
X197277572Y-55071534D01*
X197278785Y-55072940D01*
X197278319Y-55074737D01*
X197244504Y-55112044D01*
X197229986Y-55169996D01*
X197244501Y-55227948D01*
X197278321Y-55265264D01*
X197278787Y-55267061D01*
X197277574Y-55268467D01*
X197275728Y-55268270D01*
X197255155Y-55254524D01*
X197212301Y-55246000D01*
X196537699Y-55246000D01*
X196494844Y-55254524D01*
X196474271Y-55268270D01*
X196472425Y-55268467D01*
X196471212Y-55267061D01*
X196471678Y-55265264D01*
X196505497Y-55227948D01*
X196520012Y-55169996D01*
X196505494Y-55112045D01*
X196471678Y-55074735D01*
X196471212Y-55072938D01*
X196472425Y-55071532D01*
X196474271Y-55071729D01*
G37*
G36*
X201374271Y-54571729D02*
G01*
X201394844Y-54585475D01*
X201437699Y-54594000D01*
X202112301Y-54594000D01*
X202155155Y-54585475D01*
X202175726Y-54571730D01*
X202177572Y-54571533D01*
X202178785Y-54572939D01*
X202178319Y-54574736D01*
X202144503Y-54612047D01*
X202129986Y-54670000D01*
X202144503Y-54727952D01*
X202178319Y-54765263D01*
X202178785Y-54767060D01*
X202177572Y-54768466D01*
X202175726Y-54768269D01*
X202155155Y-54754524D01*
X202112301Y-54746000D01*
X201437699Y-54746000D01*
X201394844Y-54754524D01*
X201374271Y-54768270D01*
X201372425Y-54768467D01*
X201371212Y-54767061D01*
X201371678Y-54765264D01*
X201405496Y-54727951D01*
X201420012Y-54670000D01*
X201405496Y-54612048D01*
X201371678Y-54574735D01*
X201371212Y-54572938D01*
X201372425Y-54571532D01*
X201374271Y-54571729D01*
G37*
G36*
X196474271Y-54571729D02*
G01*
X196494844Y-54585475D01*
X196537699Y-54594000D01*
X197212301Y-54594000D01*
X197255155Y-54585475D01*
X197275726Y-54571730D01*
X197277572Y-54571533D01*
X197278785Y-54572939D01*
X197278319Y-54574736D01*
X197244503Y-54612047D01*
X197229986Y-54670000D01*
X197244503Y-54727952D01*
X197278319Y-54765263D01*
X197278785Y-54767060D01*
X197277572Y-54768466D01*
X197275726Y-54768269D01*
X197255155Y-54754524D01*
X197212301Y-54746000D01*
X196537699Y-54746000D01*
X196494844Y-54754524D01*
X196474271Y-54768270D01*
X196472425Y-54768467D01*
X196471212Y-54767061D01*
X196471678Y-54765264D01*
X196505496Y-54727951D01*
X196520012Y-54670000D01*
X196505496Y-54612048D01*
X196471678Y-54574735D01*
X196471212Y-54572938D01*
X196472425Y-54571532D01*
X196474271Y-54571729D01*
G37*
G36*
X200673467Y-53067425D02*
G01*
X200673270Y-53069271D01*
X200659524Y-53089844D01*
X200651000Y-53132699D01*
X200651000Y-53807301D01*
X200659524Y-53850155D01*
X200673269Y-53870726D01*
X200673466Y-53872572D01*
X200672060Y-53873785D01*
X200670263Y-53873319D01*
X200632952Y-53839503D01*
X200575000Y-53824986D01*
X200517047Y-53839503D01*
X200479736Y-53873319D01*
X200477939Y-53873785D01*
X200476533Y-53872572D01*
X200476730Y-53870726D01*
X200490475Y-53850155D01*
X200499000Y-53807301D01*
X200499000Y-53132699D01*
X200490475Y-53089844D01*
X200476729Y-53069271D01*
X200476532Y-53067425D01*
X200477938Y-53066212D01*
X200479735Y-53066678D01*
X200517048Y-53100496D01*
X200575000Y-53115012D01*
X200632951Y-53100496D01*
X200670264Y-53066678D01*
X200672061Y-53066212D01*
X200673467Y-53067425D01*
G37*
G36*
X200173467Y-53067425D02*
G01*
X200173270Y-53069271D01*
X200159524Y-53089844D01*
X200151000Y-53132699D01*
X200151000Y-53807301D01*
X200159524Y-53850155D01*
X200173269Y-53870726D01*
X200173466Y-53872572D01*
X200172060Y-53873785D01*
X200170263Y-53873319D01*
X200132952Y-53839503D01*
X200075000Y-53824986D01*
X200017047Y-53839503D01*
X199979736Y-53873319D01*
X199977939Y-53873785D01*
X199976533Y-53872572D01*
X199976730Y-53870726D01*
X199990475Y-53850155D01*
X199999000Y-53807301D01*
X199999000Y-53132699D01*
X199990475Y-53089844D01*
X199976729Y-53069271D01*
X199976532Y-53067425D01*
X199977938Y-53066212D01*
X199979735Y-53066678D01*
X200017048Y-53100496D01*
X200075000Y-53115012D01*
X200132951Y-53100496D01*
X200170264Y-53066678D01*
X200172061Y-53066212D01*
X200173467Y-53067425D01*
G37*
G36*
X199673467Y-53067425D02*
G01*
X199673270Y-53069271D01*
X199659524Y-53089844D01*
X199651000Y-53132699D01*
X199651000Y-53807301D01*
X199659524Y-53850155D01*
X199673269Y-53870726D01*
X199673466Y-53872572D01*
X199672060Y-53873785D01*
X199670263Y-53873319D01*
X199632952Y-53839503D01*
X199575000Y-53824986D01*
X199517047Y-53839503D01*
X199479736Y-53873319D01*
X199477939Y-53873785D01*
X199476533Y-53872572D01*
X199476730Y-53870726D01*
X199490475Y-53850155D01*
X199499000Y-53807301D01*
X199499000Y-53132699D01*
X199490475Y-53089844D01*
X199476729Y-53069271D01*
X199476532Y-53067425D01*
X199477938Y-53066212D01*
X199479735Y-53066678D01*
X199517048Y-53100496D01*
X199575000Y-53115012D01*
X199632951Y-53100496D01*
X199670264Y-53066678D01*
X199672061Y-53066212D01*
X199673467Y-53067425D01*
G37*
G36*
X199173467Y-53067425D02*
G01*
X199173270Y-53069271D01*
X199159524Y-53089844D01*
X199151000Y-53132699D01*
X199151000Y-53807301D01*
X199159524Y-53850155D01*
X199173269Y-53870726D01*
X199173466Y-53872572D01*
X199172060Y-53873785D01*
X199170263Y-53873319D01*
X199132952Y-53839503D01*
X199075000Y-53824986D01*
X199017047Y-53839503D01*
X198979736Y-53873319D01*
X198977939Y-53873785D01*
X198976533Y-53872572D01*
X198976730Y-53870726D01*
X198990475Y-53850155D01*
X198999000Y-53807301D01*
X198999000Y-53132699D01*
X198990475Y-53089844D01*
X198976729Y-53069271D01*
X198976532Y-53067425D01*
X198977938Y-53066212D01*
X198979735Y-53066678D01*
X199017048Y-53100496D01*
X199075000Y-53115012D01*
X199132951Y-53100496D01*
X199170264Y-53066678D01*
X199172061Y-53066212D01*
X199173467Y-53067425D01*
G37*
G36*
X198673467Y-53067425D02*
G01*
X198673270Y-53069271D01*
X198659524Y-53089844D01*
X198651000Y-53132699D01*
X198651000Y-53807301D01*
X198659524Y-53850155D01*
X198673269Y-53870726D01*
X198673466Y-53872572D01*
X198672060Y-53873785D01*
X198670263Y-53873319D01*
X198632952Y-53839503D01*
X198575000Y-53824986D01*
X198517047Y-53839503D01*
X198479736Y-53873319D01*
X198477939Y-53873785D01*
X198476533Y-53872572D01*
X198476730Y-53870726D01*
X198490475Y-53850155D01*
X198499000Y-53807301D01*
X198499000Y-53132699D01*
X198490475Y-53089844D01*
X198476729Y-53069271D01*
X198476532Y-53067425D01*
X198477938Y-53066212D01*
X198479735Y-53066678D01*
X198517048Y-53100496D01*
X198575000Y-53115012D01*
X198632951Y-53100496D01*
X198670264Y-53066678D01*
X198672061Y-53066212D01*
X198673467Y-53067425D01*
G37*
G36*
X198173467Y-53067425D02*
G01*
X198173270Y-53069271D01*
X198159524Y-53089844D01*
X198151000Y-53132699D01*
X198151000Y-53807301D01*
X198159524Y-53850155D01*
X198173269Y-53870726D01*
X198173466Y-53872572D01*
X198172060Y-53873785D01*
X198170263Y-53873319D01*
X198132952Y-53839503D01*
X198075000Y-53824986D01*
X198017047Y-53839503D01*
X197979736Y-53873319D01*
X197977939Y-53873785D01*
X197976533Y-53872572D01*
X197976730Y-53870726D01*
X197990475Y-53850155D01*
X197999000Y-53807301D01*
X197999000Y-53132699D01*
X197990475Y-53089844D01*
X197976729Y-53069271D01*
X197976532Y-53067425D01*
X197977938Y-53066212D01*
X197979735Y-53066678D01*
X198017048Y-53100496D01*
X198075000Y-53115012D01*
X198132951Y-53100496D01*
X198170264Y-53066678D01*
X198172061Y-53066212D01*
X198173467Y-53067425D01*
G37*
G36*
X197271814Y-50835477D02*
G01*
X197271583Y-50837231D01*
X197247975Y-50872561D01*
X197238500Y-50920199D01*
X197238500Y-52244801D01*
X197247975Y-52292438D01*
X197271581Y-52327765D01*
X197271812Y-52329519D01*
X197270561Y-52330770D01*
X197268807Y-52330539D01*
X197255999Y-52321981D01*
X197211488Y-52303545D01*
X197163512Y-52303545D01*
X197119000Y-52321981D01*
X197106193Y-52330539D01*
X197104439Y-52330770D01*
X197103188Y-52329519D01*
X197103419Y-52327765D01*
X197127024Y-52292438D01*
X197136500Y-52244801D01*
X197136500Y-50920199D01*
X197127024Y-50872561D01*
X197103416Y-50837231D01*
X197103185Y-50835477D01*
X197104436Y-50834226D01*
X197106190Y-50834457D01*
X197119001Y-50843017D01*
X197163512Y-50861454D01*
X197211488Y-50861454D01*
X197255998Y-50843017D01*
X197268809Y-50834457D01*
X197270563Y-50834226D01*
X197271814Y-50835477D01*
G37*
G36*
X196771814Y-50835477D02*
G01*
X196771583Y-50837231D01*
X196747975Y-50872561D01*
X196738500Y-50920199D01*
X196738500Y-52244801D01*
X196747975Y-52292438D01*
X196771581Y-52327765D01*
X196771812Y-52329519D01*
X196770561Y-52330770D01*
X196768807Y-52330539D01*
X196755999Y-52321981D01*
X196711488Y-52303545D01*
X196663512Y-52303545D01*
X196619000Y-52321981D01*
X196606193Y-52330539D01*
X196604439Y-52330770D01*
X196603188Y-52329519D01*
X196603419Y-52327765D01*
X196627024Y-52292438D01*
X196636500Y-52244801D01*
X196636500Y-50920199D01*
X196627024Y-50872561D01*
X196603416Y-50837231D01*
X196603185Y-50835477D01*
X196604436Y-50834226D01*
X196606190Y-50834457D01*
X196619001Y-50843017D01*
X196663512Y-50861454D01*
X196711488Y-50861454D01*
X196755998Y-50843017D01*
X196768809Y-50834457D01*
X196770563Y-50834226D01*
X196771814Y-50835477D01*
G37*
G36*
X196271814Y-50835477D02*
G01*
X196271583Y-50837231D01*
X196247975Y-50872561D01*
X196238500Y-50920199D01*
X196238500Y-52244801D01*
X196247975Y-52292438D01*
X196271581Y-52327765D01*
X196271812Y-52329519D01*
X196270561Y-52330770D01*
X196268807Y-52330539D01*
X196255999Y-52321981D01*
X196211488Y-52303545D01*
X196163512Y-52303545D01*
X196119000Y-52321981D01*
X196106193Y-52330539D01*
X196104439Y-52330770D01*
X196103188Y-52329519D01*
X196103419Y-52327765D01*
X196127024Y-52292438D01*
X196136500Y-52244801D01*
X196136500Y-50920199D01*
X196127024Y-50872561D01*
X196103416Y-50837231D01*
X196103185Y-50835477D01*
X196104436Y-50834226D01*
X196106190Y-50834457D01*
X196119001Y-50843017D01*
X196163512Y-50861454D01*
X196211488Y-50861454D01*
X196255998Y-50843017D01*
X196268809Y-50834457D01*
X196270563Y-50834226D01*
X196271814Y-50835477D01*
G37*
G36*
X195771814Y-50835477D02*
G01*
X195771583Y-50837231D01*
X195747975Y-50872561D01*
X195738500Y-50920199D01*
X195738500Y-52244801D01*
X195747975Y-52292438D01*
X195771581Y-52327765D01*
X195771812Y-52329519D01*
X195770561Y-52330770D01*
X195768807Y-52330539D01*
X195755999Y-52321981D01*
X195711488Y-52303545D01*
X195663512Y-52303545D01*
X195619000Y-52321981D01*
X195606193Y-52330539D01*
X195604439Y-52330770D01*
X195603188Y-52329519D01*
X195603419Y-52327765D01*
X195627024Y-52292438D01*
X195636500Y-52244801D01*
X195636500Y-50920199D01*
X195627024Y-50872561D01*
X195603416Y-50837231D01*
X195603185Y-50835477D01*
X195604436Y-50834226D01*
X195606190Y-50834457D01*
X195619001Y-50843017D01*
X195663512Y-50861454D01*
X195711488Y-50861454D01*
X195755998Y-50843017D01*
X195768809Y-50834457D01*
X195770563Y-50834226D01*
X195771814Y-50835477D01*
G37*
G36*
X195271814Y-50835477D02*
G01*
X195271583Y-50837231D01*
X195247975Y-50872561D01*
X195238500Y-50920199D01*
X195238500Y-52244801D01*
X195247975Y-52292438D01*
X195271581Y-52327765D01*
X195271812Y-52329519D01*
X195270561Y-52330770D01*
X195268807Y-52330539D01*
X195255999Y-52321981D01*
X195211488Y-52303545D01*
X195163512Y-52303545D01*
X195119000Y-52321981D01*
X195106193Y-52330539D01*
X195104439Y-52330770D01*
X195103188Y-52329519D01*
X195103419Y-52327765D01*
X195127024Y-52292438D01*
X195136500Y-52244801D01*
X195136500Y-50920199D01*
X195127024Y-50872561D01*
X195103416Y-50837231D01*
X195103185Y-50835477D01*
X195104436Y-50834226D01*
X195106190Y-50834457D01*
X195119001Y-50843017D01*
X195163512Y-50861454D01*
X195211488Y-50861454D01*
X195255998Y-50843017D01*
X195268809Y-50834457D01*
X195270563Y-50834226D01*
X195271814Y-50835477D01*
G37*
G36*
X194771814Y-50835477D02*
G01*
X194771583Y-50837231D01*
X194747975Y-50872561D01*
X194738500Y-50920199D01*
X194738500Y-52244801D01*
X194747975Y-52292438D01*
X194771581Y-52327765D01*
X194771812Y-52329519D01*
X194770561Y-52330770D01*
X194768807Y-52330539D01*
X194755999Y-52321981D01*
X194711488Y-52303545D01*
X194663512Y-52303545D01*
X194619000Y-52321981D01*
X194606193Y-52330539D01*
X194604439Y-52330770D01*
X194603188Y-52329519D01*
X194603419Y-52327765D01*
X194627024Y-52292438D01*
X194636500Y-52244801D01*
X194636500Y-50920199D01*
X194627024Y-50872561D01*
X194603416Y-50837231D01*
X194603185Y-50835477D01*
X194604436Y-50834226D01*
X194606190Y-50834457D01*
X194619001Y-50843017D01*
X194663512Y-50861454D01*
X194711488Y-50861454D01*
X194755998Y-50843017D01*
X194768809Y-50834457D01*
X194770563Y-50834226D01*
X194771814Y-50835477D01*
G37*
G36*
X194271814Y-50835477D02*
G01*
X194271583Y-50837231D01*
X194247975Y-50872561D01*
X194238500Y-50920199D01*
X194238500Y-52244801D01*
X194247975Y-52292438D01*
X194271581Y-52327765D01*
X194271812Y-52329519D01*
X194270561Y-52330770D01*
X194268807Y-52330539D01*
X194255999Y-52321981D01*
X194211488Y-52303545D01*
X194163512Y-52303545D01*
X194119000Y-52321981D01*
X194106193Y-52330539D01*
X194104439Y-52330770D01*
X194103188Y-52329519D01*
X194103419Y-52327765D01*
X194127024Y-52292438D01*
X194136500Y-52244801D01*
X194136500Y-50920199D01*
X194127024Y-50872561D01*
X194103416Y-50837231D01*
X194103185Y-50835477D01*
X194104436Y-50834226D01*
X194106190Y-50834457D01*
X194119001Y-50843017D01*
X194163512Y-50861454D01*
X194211488Y-50861454D01*
X194255998Y-50843017D01*
X194268809Y-50834457D01*
X194270563Y-50834226D01*
X194271814Y-50835477D01*
G37*
G36*
X193771814Y-50835477D02*
G01*
X193771583Y-50837231D01*
X193747975Y-50872561D01*
X193738500Y-50920199D01*
X193738500Y-52244801D01*
X193747975Y-52292438D01*
X193771581Y-52327765D01*
X193771812Y-52329519D01*
X193770561Y-52330770D01*
X193768807Y-52330539D01*
X193755999Y-52321981D01*
X193711488Y-52303545D01*
X193663512Y-52303545D01*
X193619000Y-52321981D01*
X193606193Y-52330539D01*
X193604439Y-52330770D01*
X193603188Y-52329519D01*
X193603419Y-52327765D01*
X193627024Y-52292438D01*
X193636500Y-52244801D01*
X193636500Y-50920199D01*
X193627024Y-50872561D01*
X193603416Y-50837231D01*
X193603185Y-50835477D01*
X193604436Y-50834226D01*
X193606190Y-50834457D01*
X193619001Y-50843017D01*
X193663512Y-50861454D01*
X193711488Y-50861454D01*
X193755998Y-50843017D01*
X193768809Y-50834457D01*
X193770563Y-50834226D01*
X193771814Y-50835477D01*
G37*
G36*
X193271814Y-50835477D02*
G01*
X193271583Y-50837231D01*
X193247975Y-50872561D01*
X193238500Y-50920199D01*
X193238500Y-52244801D01*
X193247975Y-52292438D01*
X193271581Y-52327765D01*
X193271812Y-52329519D01*
X193270561Y-52330770D01*
X193268807Y-52330539D01*
X193255999Y-52321981D01*
X193211488Y-52303545D01*
X193163512Y-52303545D01*
X193119000Y-52321981D01*
X193106193Y-52330539D01*
X193104439Y-52330770D01*
X193103188Y-52329519D01*
X193103419Y-52327765D01*
X193127024Y-52292438D01*
X193136500Y-52244801D01*
X193136500Y-50920199D01*
X193127024Y-50872561D01*
X193103416Y-50837231D01*
X193103185Y-50835477D01*
X193104436Y-50834226D01*
X193106190Y-50834457D01*
X193119001Y-50843017D01*
X193163512Y-50861454D01*
X193211488Y-50861454D01*
X193255998Y-50843017D01*
X193268809Y-50834457D01*
X193270563Y-50834226D01*
X193271814Y-50835477D01*
G37*
G36*
X192771814Y-50835477D02*
G01*
X192771583Y-50837231D01*
X192747975Y-50872561D01*
X192738500Y-50920199D01*
X192738500Y-52244801D01*
X192747975Y-52292438D01*
X192771581Y-52327765D01*
X192771812Y-52329519D01*
X192770561Y-52330770D01*
X192768807Y-52330539D01*
X192755999Y-52321981D01*
X192711488Y-52303545D01*
X192663512Y-52303545D01*
X192619000Y-52321981D01*
X192606193Y-52330539D01*
X192604439Y-52330770D01*
X192603188Y-52329519D01*
X192603419Y-52327765D01*
X192627024Y-52292438D01*
X192636500Y-52244801D01*
X192636500Y-50920199D01*
X192627024Y-50872561D01*
X192603416Y-50837231D01*
X192603185Y-50835477D01*
X192604436Y-50834226D01*
X192606190Y-50834457D01*
X192619001Y-50843017D01*
X192663512Y-50861454D01*
X192711488Y-50861454D01*
X192755998Y-50843017D01*
X192768809Y-50834457D01*
X192770563Y-50834226D01*
X192771814Y-50835477D01*
G37*
G36*
X192271814Y-50835477D02*
G01*
X192271583Y-50837231D01*
X192247975Y-50872561D01*
X192238500Y-50920199D01*
X192238500Y-52244801D01*
X192247975Y-52292438D01*
X192271581Y-52327765D01*
X192271812Y-52329519D01*
X192270561Y-52330770D01*
X192268807Y-52330539D01*
X192255999Y-52321981D01*
X192211488Y-52303545D01*
X192163512Y-52303545D01*
X192119000Y-52321981D01*
X192106193Y-52330539D01*
X192104439Y-52330770D01*
X192103188Y-52329519D01*
X192103419Y-52327765D01*
X192127024Y-52292438D01*
X192136500Y-52244801D01*
X192136500Y-50920199D01*
X192127024Y-50872561D01*
X192103416Y-50837231D01*
X192103185Y-50835477D01*
X192104436Y-50834226D01*
X192106190Y-50834457D01*
X192119001Y-50843017D01*
X192163512Y-50861454D01*
X192211488Y-50861454D01*
X192255998Y-50843017D01*
X192268809Y-50834457D01*
X192270563Y-50834226D01*
X192271814Y-50835477D01*
G37*
G36*
X198104731Y-49835916D02*
G01*
X198140061Y-49859524D01*
X198187699Y-49869000D01*
X199512301Y-49869000D01*
X199559938Y-49859524D01*
X199595265Y-49835919D01*
X199597019Y-49835688D01*
X199598270Y-49836939D01*
X199598039Y-49838693D01*
X199589481Y-49851500D01*
X199571045Y-49896012D01*
X199571045Y-49943988D01*
X199589481Y-49988499D01*
X199598039Y-50001307D01*
X199598270Y-50003061D01*
X199597019Y-50004312D01*
X199595265Y-50004081D01*
X199559938Y-49980475D01*
X199512301Y-49971000D01*
X198187699Y-49971000D01*
X198140061Y-49980475D01*
X198104731Y-50004083D01*
X198102977Y-50004314D01*
X198101726Y-50003063D01*
X198101957Y-50001309D01*
X198110517Y-49988498D01*
X198128954Y-49943988D01*
X198128954Y-49896012D01*
X198110517Y-49851501D01*
X198101957Y-49838690D01*
X198101726Y-49836936D01*
X198102977Y-49835685D01*
X198104731Y-49835916D01*
G37*
G36*
X189779731Y-49835916D02*
G01*
X189815061Y-49859524D01*
X189862699Y-49869000D01*
X191187301Y-49869000D01*
X191234938Y-49859524D01*
X191270265Y-49835919D01*
X191272019Y-49835688D01*
X191273270Y-49836939D01*
X191273039Y-49838693D01*
X191264481Y-49851500D01*
X191246045Y-49896012D01*
X191246045Y-49943988D01*
X191264481Y-49988499D01*
X191273039Y-50001307D01*
X191273270Y-50003061D01*
X191272019Y-50004312D01*
X191270265Y-50004081D01*
X191234938Y-49980475D01*
X191187301Y-49971000D01*
X189862699Y-49971000D01*
X189815061Y-49980475D01*
X189779731Y-50004083D01*
X189777977Y-50004314D01*
X189776726Y-50003063D01*
X189776957Y-50001309D01*
X189785517Y-49988498D01*
X189803954Y-49943988D01*
X189803954Y-49896012D01*
X189785517Y-49851501D01*
X189776957Y-49838690D01*
X189776726Y-49836936D01*
X189777977Y-49835685D01*
X189779731Y-49835916D01*
G37*
G36*
X198104731Y-49335916D02*
G01*
X198140061Y-49359524D01*
X198187699Y-49369000D01*
X199512301Y-49369000D01*
X199559938Y-49359524D01*
X199595265Y-49335919D01*
X199597019Y-49335688D01*
X199598270Y-49336939D01*
X199598039Y-49338693D01*
X199589481Y-49351500D01*
X199571045Y-49396012D01*
X199571045Y-49443988D01*
X199589481Y-49488499D01*
X199598039Y-49501307D01*
X199598270Y-49503061D01*
X199597019Y-49504312D01*
X199595265Y-49504081D01*
X199559938Y-49480475D01*
X199512301Y-49471000D01*
X198187699Y-49471000D01*
X198140061Y-49480475D01*
X198104731Y-49504083D01*
X198102977Y-49504314D01*
X198101726Y-49503063D01*
X198101957Y-49501309D01*
X198110517Y-49488498D01*
X198128954Y-49443988D01*
X198128954Y-49396012D01*
X198110517Y-49351501D01*
X198101957Y-49338690D01*
X198101726Y-49336936D01*
X198102977Y-49335685D01*
X198104731Y-49335916D01*
G37*
G36*
X189779731Y-49335916D02*
G01*
X189815061Y-49359524D01*
X189862699Y-49369000D01*
X191187301Y-49369000D01*
X191234938Y-49359524D01*
X191270265Y-49335919D01*
X191272019Y-49335688D01*
X191273270Y-49336939D01*
X191273039Y-49338693D01*
X191264481Y-49351500D01*
X191246045Y-49396012D01*
X191246045Y-49443988D01*
X191264481Y-49488499D01*
X191273039Y-49501307D01*
X191273270Y-49503061D01*
X191272019Y-49504312D01*
X191270265Y-49504081D01*
X191234938Y-49480475D01*
X191187301Y-49471000D01*
X189862699Y-49471000D01*
X189815061Y-49480475D01*
X189779731Y-49504083D01*
X189777977Y-49504314D01*
X189776726Y-49503063D01*
X189776957Y-49501309D01*
X189785517Y-49488498D01*
X189803954Y-49443988D01*
X189803954Y-49396012D01*
X189785517Y-49351501D01*
X189776957Y-49338690D01*
X189776726Y-49336936D01*
X189777977Y-49335685D01*
X189779731Y-49335916D01*
G37*
G36*
X198104733Y-48835918D02*
G01*
X198140061Y-48859524D01*
X198187699Y-48869000D01*
X199512301Y-48869000D01*
X199559938Y-48859524D01*
X199595264Y-48835919D01*
X199597018Y-48835688D01*
X199598269Y-48836939D01*
X199598038Y-48838693D01*
X199589482Y-48851498D01*
X199571045Y-48896010D01*
X199571045Y-48943986D01*
X199589481Y-48988497D01*
X199598042Y-49001308D01*
X199598273Y-49003062D01*
X199597022Y-49004313D01*
X199595268Y-49004082D01*
X199559938Y-48980475D01*
X199512301Y-48971000D01*
X198187699Y-48971000D01*
X198140061Y-48980475D01*
X198104730Y-49004083D01*
X198102976Y-49004314D01*
X198101725Y-49003063D01*
X198101956Y-49001309D01*
X198110518Y-48988496D01*
X198128954Y-48943986D01*
X198128954Y-48896010D01*
X198110517Y-48851499D01*
X198101959Y-48838692D01*
X198101728Y-48836938D01*
X198102979Y-48835687D01*
X198104733Y-48835918D01*
G37*
G36*
X189779733Y-48835918D02*
G01*
X189815061Y-48859524D01*
X189862699Y-48869000D01*
X191187301Y-48869000D01*
X191234938Y-48859524D01*
X191270264Y-48835919D01*
X191272018Y-48835688D01*
X191273269Y-48836939D01*
X191273038Y-48838693D01*
X191264482Y-48851498D01*
X191246045Y-48896010D01*
X191246045Y-48943986D01*
X191264481Y-48988497D01*
X191273042Y-49001308D01*
X191273273Y-49003062D01*
X191272022Y-49004313D01*
X191270268Y-49004082D01*
X191234938Y-48980475D01*
X191187301Y-48971000D01*
X189862699Y-48971000D01*
X189815061Y-48980475D01*
X189779730Y-49004083D01*
X189777976Y-49004314D01*
X189776725Y-49003063D01*
X189776956Y-49001309D01*
X189785518Y-48988496D01*
X189803954Y-48943986D01*
X189803954Y-48896010D01*
X189785517Y-48851499D01*
X189776959Y-48838692D01*
X189776728Y-48836938D01*
X189777979Y-48835687D01*
X189779733Y-48835918D01*
G37*
G36*
X220287758Y-48619867D02*
G01*
X220287977Y-48621717D01*
X220286577Y-48622945D01*
X220230299Y-48636455D01*
X220186651Y-48673734D01*
X220164685Y-48726765D01*
X220169189Y-48783990D01*
X220199307Y-48833139D01*
X220225532Y-48859364D01*
X220226080Y-48861168D01*
X220224883Y-48862626D01*
X220223007Y-48862441D01*
X220154841Y-48816893D01*
X220049801Y-48796000D01*
X219600199Y-48796000D01*
X219495158Y-48816893D01*
X219426985Y-48862446D01*
X219425109Y-48862631D01*
X219423912Y-48861173D01*
X219424460Y-48859369D01*
X219450691Y-48833138D01*
X219480809Y-48783989D01*
X219485313Y-48726764D01*
X219463347Y-48673734D01*
X219419699Y-48636455D01*
X219363422Y-48622945D01*
X219362022Y-48621717D01*
X219362241Y-48619867D01*
X219363889Y-48619000D01*
X220286110Y-48619000D01*
X220287758Y-48619867D01*
G37*
G36*
X218481617Y-48611053D02*
G01*
X218550118Y-48619000D01*
X218736110Y-48619000D01*
X218737758Y-48619867D01*
X218737977Y-48621717D01*
X218736577Y-48622945D01*
X218680299Y-48636455D01*
X218636651Y-48673734D01*
X218614685Y-48726765D01*
X218619189Y-48783990D01*
X218649307Y-48833139D01*
X218675532Y-48859364D01*
X218676080Y-48861168D01*
X218674883Y-48862626D01*
X218673007Y-48862441D01*
X218604841Y-48816893D01*
X218499801Y-48796000D01*
X218308163Y-48796000D01*
X218306527Y-48795150D01*
X218306281Y-48793323D01*
X218307635Y-48792071D01*
X218370737Y-48774808D01*
X218415883Y-48728220D01*
X218431027Y-48665139D01*
X218411951Y-48603133D01*
X218385401Y-48578975D01*
X218384748Y-48577543D01*
X218385235Y-48576323D01*
X218378784Y-48569872D01*
X218378217Y-48568182D01*
X218379225Y-48566711D01*
X218381006Y-48566628D01*
X218481617Y-48611053D01*
G37*
G36*
X198104731Y-48335916D02*
G01*
X198140061Y-48359524D01*
X198187699Y-48369000D01*
X199512301Y-48369000D01*
X199559938Y-48359524D01*
X199595265Y-48335919D01*
X199597019Y-48335688D01*
X199598270Y-48336939D01*
X199598039Y-48338693D01*
X199589481Y-48351500D01*
X199571045Y-48396012D01*
X199571045Y-48443988D01*
X199589481Y-48488499D01*
X199598039Y-48501307D01*
X199598270Y-48503061D01*
X199597019Y-48504312D01*
X199595265Y-48504081D01*
X199559938Y-48480475D01*
X199512301Y-48471000D01*
X198187699Y-48471000D01*
X198140061Y-48480475D01*
X198104731Y-48504083D01*
X198102977Y-48504314D01*
X198101726Y-48503063D01*
X198101957Y-48501309D01*
X198110517Y-48488498D01*
X198128954Y-48443988D01*
X198128954Y-48396012D01*
X198110517Y-48351501D01*
X198101957Y-48338690D01*
X198101726Y-48336936D01*
X198102977Y-48335685D01*
X198104731Y-48335916D01*
G37*
G36*
X189779731Y-48335916D02*
G01*
X189815061Y-48359524D01*
X189862699Y-48369000D01*
X191187301Y-48369000D01*
X191234938Y-48359524D01*
X191270265Y-48335919D01*
X191272019Y-48335688D01*
X191273270Y-48336939D01*
X191273039Y-48338693D01*
X191264481Y-48351500D01*
X191246045Y-48396012D01*
X191246045Y-48443988D01*
X191264481Y-48488499D01*
X191273039Y-48501307D01*
X191273270Y-48503061D01*
X191272019Y-48504312D01*
X191270265Y-48504081D01*
X191234938Y-48480475D01*
X191187301Y-48471000D01*
X189862699Y-48471000D01*
X189815061Y-48480475D01*
X189779731Y-48504083D01*
X189777977Y-48504314D01*
X189776726Y-48503063D01*
X189776957Y-48501309D01*
X189785517Y-48488498D01*
X189803954Y-48443988D01*
X189803954Y-48396012D01*
X189785517Y-48351501D01*
X189776957Y-48338690D01*
X189776726Y-48336936D01*
X189777977Y-48335685D01*
X189779731Y-48335916D01*
G37*
G36*
X198104731Y-47835916D02*
G01*
X198140061Y-47859524D01*
X198187699Y-47869000D01*
X199512301Y-47869000D01*
X199559938Y-47859524D01*
X199595265Y-47835919D01*
X199597019Y-47835688D01*
X199598270Y-47836939D01*
X199598039Y-47838693D01*
X199589481Y-47851500D01*
X199571045Y-47896012D01*
X199571045Y-47943988D01*
X199589481Y-47988499D01*
X199598039Y-48001307D01*
X199598270Y-48003061D01*
X199597019Y-48004312D01*
X199595265Y-48004081D01*
X199559938Y-47980475D01*
X199512301Y-47971000D01*
X198187699Y-47971000D01*
X198140061Y-47980475D01*
X198104731Y-48004083D01*
X198102977Y-48004314D01*
X198101726Y-48003063D01*
X198101957Y-48001309D01*
X198110517Y-47988498D01*
X198128954Y-47943988D01*
X198128954Y-47896012D01*
X198110517Y-47851501D01*
X198101957Y-47838690D01*
X198101726Y-47836936D01*
X198102977Y-47835685D01*
X198104731Y-47835916D01*
G37*
G36*
X189779731Y-47835916D02*
G01*
X189815061Y-47859524D01*
X189862699Y-47869000D01*
X191187301Y-47869000D01*
X191234938Y-47859524D01*
X191270265Y-47835919D01*
X191272019Y-47835688D01*
X191273270Y-47836939D01*
X191273039Y-47838693D01*
X191264481Y-47851500D01*
X191246045Y-47896012D01*
X191246045Y-47943988D01*
X191264481Y-47988499D01*
X191273039Y-48001307D01*
X191273270Y-48003061D01*
X191272019Y-48004312D01*
X191270265Y-48004081D01*
X191234938Y-47980475D01*
X191187301Y-47971000D01*
X189862699Y-47971000D01*
X189815061Y-47980475D01*
X189779731Y-48004083D01*
X189777977Y-48004314D01*
X189776726Y-48003063D01*
X189776957Y-48001309D01*
X189785517Y-47988498D01*
X189803954Y-47943988D01*
X189803954Y-47896012D01*
X189785517Y-47851501D01*
X189776957Y-47838690D01*
X189776726Y-47836936D01*
X189777977Y-47835685D01*
X189779731Y-47835916D01*
G37*
G36*
X198104731Y-47335916D02*
G01*
X198140061Y-47359524D01*
X198187699Y-47369000D01*
X199512301Y-47369000D01*
X199559938Y-47359524D01*
X199595265Y-47335919D01*
X199597019Y-47335688D01*
X199598270Y-47336939D01*
X199598039Y-47338693D01*
X199589481Y-47351500D01*
X199571045Y-47396012D01*
X199571045Y-47443988D01*
X199589481Y-47488499D01*
X199598039Y-47501307D01*
X199598270Y-47503061D01*
X199597019Y-47504312D01*
X199595265Y-47504081D01*
X199559938Y-47480475D01*
X199512301Y-47471000D01*
X198187699Y-47471000D01*
X198140061Y-47480475D01*
X198104731Y-47504083D01*
X198102977Y-47504314D01*
X198101726Y-47503063D01*
X198101957Y-47501309D01*
X198110517Y-47488498D01*
X198128954Y-47443988D01*
X198128954Y-47396012D01*
X198110517Y-47351501D01*
X198101957Y-47338690D01*
X198101726Y-47336936D01*
X198102977Y-47335685D01*
X198104731Y-47335916D01*
G37*
G36*
X189779731Y-47335916D02*
G01*
X189815061Y-47359524D01*
X189862699Y-47369000D01*
X191187301Y-47369000D01*
X191234938Y-47359524D01*
X191270265Y-47335919D01*
X191272019Y-47335688D01*
X191273270Y-47336939D01*
X191273039Y-47338693D01*
X191264481Y-47351500D01*
X191246045Y-47396012D01*
X191246045Y-47443988D01*
X191264481Y-47488499D01*
X191273039Y-47501307D01*
X191273270Y-47503061D01*
X191272019Y-47504312D01*
X191270265Y-47504081D01*
X191234938Y-47480475D01*
X191187301Y-47471000D01*
X189862699Y-47471000D01*
X189815061Y-47480475D01*
X189779731Y-47504083D01*
X189777977Y-47504314D01*
X189776726Y-47503063D01*
X189776957Y-47501309D01*
X189785517Y-47488498D01*
X189803954Y-47443988D01*
X189803954Y-47396012D01*
X189785517Y-47351501D01*
X189776957Y-47338690D01*
X189776726Y-47336936D01*
X189777977Y-47335685D01*
X189779731Y-47335916D01*
G37*
G36*
X198104733Y-46835918D02*
G01*
X198140061Y-46859524D01*
X198187699Y-46869000D01*
X199512301Y-46869000D01*
X199559938Y-46859524D01*
X199595264Y-46835919D01*
X199597018Y-46835688D01*
X199598269Y-46836939D01*
X199598038Y-46838693D01*
X199589482Y-46851498D01*
X199571045Y-46896010D01*
X199571045Y-46943986D01*
X199589481Y-46988497D01*
X199598042Y-47001308D01*
X199598273Y-47003062D01*
X199597022Y-47004313D01*
X199595268Y-47004082D01*
X199559938Y-46980475D01*
X199512301Y-46971000D01*
X198187699Y-46971000D01*
X198140061Y-46980475D01*
X198104730Y-47004083D01*
X198102976Y-47004314D01*
X198101725Y-47003063D01*
X198101956Y-47001309D01*
X198110518Y-46988496D01*
X198128954Y-46943986D01*
X198128954Y-46896010D01*
X198110517Y-46851499D01*
X198101959Y-46838692D01*
X198101728Y-46836938D01*
X198102979Y-46835687D01*
X198104733Y-46835918D01*
G37*
G36*
X189779733Y-46835918D02*
G01*
X189815061Y-46859524D01*
X189862699Y-46869000D01*
X191187301Y-46869000D01*
X191234938Y-46859524D01*
X191270264Y-46835919D01*
X191272018Y-46835688D01*
X191273269Y-46836939D01*
X191273038Y-46838693D01*
X191264482Y-46851498D01*
X191246045Y-46896010D01*
X191246045Y-46943986D01*
X191264481Y-46988497D01*
X191273042Y-47001308D01*
X191273273Y-47003062D01*
X191272022Y-47004313D01*
X191270268Y-47004082D01*
X191234938Y-46980475D01*
X191187301Y-46971000D01*
X189862699Y-46971000D01*
X189815061Y-46980475D01*
X189779730Y-47004083D01*
X189777976Y-47004314D01*
X189776725Y-47003063D01*
X189776956Y-47001309D01*
X189785518Y-46988496D01*
X189803954Y-46943986D01*
X189803954Y-46896010D01*
X189785517Y-46851499D01*
X189776959Y-46838692D01*
X189776728Y-46836938D01*
X189777979Y-46835687D01*
X189779733Y-46835918D01*
G37*
G36*
X198104731Y-46335916D02*
G01*
X198140061Y-46359524D01*
X198187699Y-46369000D01*
X199512301Y-46369000D01*
X199559938Y-46359524D01*
X199595265Y-46335919D01*
X199597019Y-46335688D01*
X199598270Y-46336939D01*
X199598039Y-46338693D01*
X199589481Y-46351500D01*
X199571045Y-46396012D01*
X199571045Y-46443988D01*
X199589481Y-46488499D01*
X199598039Y-46501307D01*
X199598270Y-46503061D01*
X199597019Y-46504312D01*
X199595265Y-46504081D01*
X199559938Y-46480475D01*
X199512301Y-46471000D01*
X198187699Y-46471000D01*
X198140061Y-46480475D01*
X198104731Y-46504083D01*
X198102977Y-46504314D01*
X198101726Y-46503063D01*
X198101957Y-46501309D01*
X198110517Y-46488498D01*
X198128954Y-46443988D01*
X198128954Y-46396012D01*
X198110517Y-46351501D01*
X198101957Y-46338690D01*
X198101726Y-46336936D01*
X198102977Y-46335685D01*
X198104731Y-46335916D01*
G37*
G36*
X189779731Y-46335916D02*
G01*
X189815061Y-46359524D01*
X189862699Y-46369000D01*
X191187301Y-46369000D01*
X191234938Y-46359524D01*
X191270265Y-46335919D01*
X191272019Y-46335688D01*
X191273270Y-46336939D01*
X191273039Y-46338693D01*
X191264481Y-46351500D01*
X191246045Y-46396012D01*
X191246045Y-46443988D01*
X191264481Y-46488499D01*
X191273039Y-46501307D01*
X191273270Y-46503061D01*
X191272019Y-46504312D01*
X191270265Y-46504081D01*
X191234938Y-46480475D01*
X191187301Y-46471000D01*
X189862699Y-46471000D01*
X189815061Y-46480475D01*
X189779731Y-46504083D01*
X189777977Y-46504314D01*
X189776726Y-46503063D01*
X189776957Y-46501309D01*
X189785517Y-46488498D01*
X189803954Y-46443988D01*
X189803954Y-46396012D01*
X189785517Y-46351501D01*
X189776957Y-46338690D01*
X189776726Y-46336936D01*
X189777977Y-46335685D01*
X189779731Y-46335916D01*
G37*
G36*
X198104731Y-45835916D02*
G01*
X198140061Y-45859524D01*
X198187699Y-45869000D01*
X199512301Y-45869000D01*
X199559938Y-45859524D01*
X199595265Y-45835919D01*
X199597019Y-45835688D01*
X199598270Y-45836939D01*
X199598039Y-45838693D01*
X199589481Y-45851500D01*
X199571045Y-45896012D01*
X199571045Y-45943988D01*
X199589481Y-45988499D01*
X199598039Y-46001307D01*
X199598270Y-46003061D01*
X199597019Y-46004312D01*
X199595265Y-46004081D01*
X199559938Y-45980475D01*
X199512301Y-45971000D01*
X198187699Y-45971000D01*
X198140061Y-45980475D01*
X198104731Y-46004083D01*
X198102977Y-46004314D01*
X198101726Y-46003063D01*
X198101957Y-46001309D01*
X198110517Y-45988498D01*
X198128954Y-45943988D01*
X198128954Y-45896012D01*
X198110517Y-45851501D01*
X198101957Y-45838690D01*
X198101726Y-45836936D01*
X198102977Y-45835685D01*
X198104731Y-45835916D01*
G37*
G36*
X189779731Y-45835916D02*
G01*
X189815061Y-45859524D01*
X189862699Y-45869000D01*
X191187301Y-45869000D01*
X191234938Y-45859524D01*
X191270265Y-45835919D01*
X191272019Y-45835688D01*
X191273270Y-45836939D01*
X191273039Y-45838693D01*
X191264481Y-45851500D01*
X191246045Y-45896012D01*
X191246045Y-45943988D01*
X191264481Y-45988499D01*
X191273039Y-46001307D01*
X191273270Y-46003061D01*
X191272019Y-46004312D01*
X191270265Y-46004081D01*
X191234938Y-45980475D01*
X191187301Y-45971000D01*
X189862699Y-45971000D01*
X189815061Y-45980475D01*
X189779731Y-46004083D01*
X189777977Y-46004314D01*
X189776726Y-46003063D01*
X189776957Y-46001309D01*
X189785517Y-45988498D01*
X189803954Y-45943988D01*
X189803954Y-45896012D01*
X189785517Y-45851501D01*
X189776957Y-45838690D01*
X189776726Y-45836936D01*
X189777977Y-45835685D01*
X189779731Y-45835916D01*
G37*
G36*
X198104733Y-45335918D02*
G01*
X198140061Y-45359524D01*
X198187699Y-45369000D01*
X199512301Y-45369000D01*
X199559938Y-45359524D01*
X199595264Y-45335919D01*
X199597018Y-45335688D01*
X199598269Y-45336939D01*
X199598038Y-45338693D01*
X199589482Y-45351498D01*
X199571045Y-45396010D01*
X199571045Y-45443986D01*
X199589481Y-45488497D01*
X199598042Y-45501308D01*
X199598273Y-45503062D01*
X199597022Y-45504313D01*
X199595268Y-45504082D01*
X199559938Y-45480475D01*
X199512301Y-45471000D01*
X198187699Y-45471000D01*
X198140061Y-45480475D01*
X198104730Y-45504083D01*
X198102976Y-45504314D01*
X198101725Y-45503063D01*
X198101956Y-45501309D01*
X198110518Y-45488496D01*
X198128954Y-45443986D01*
X198128954Y-45396010D01*
X198110517Y-45351499D01*
X198101959Y-45338692D01*
X198101728Y-45336938D01*
X198102979Y-45335687D01*
X198104733Y-45335918D01*
G37*
G36*
X189779733Y-45335918D02*
G01*
X189815061Y-45359524D01*
X189862699Y-45369000D01*
X191187301Y-45369000D01*
X191234938Y-45359524D01*
X191270264Y-45335919D01*
X191272018Y-45335688D01*
X191273269Y-45336939D01*
X191273038Y-45338693D01*
X191264482Y-45351498D01*
X191246045Y-45396010D01*
X191246045Y-45443986D01*
X191264481Y-45488497D01*
X191273042Y-45501308D01*
X191273273Y-45503062D01*
X191272022Y-45504313D01*
X191270268Y-45504082D01*
X191234938Y-45480475D01*
X191187301Y-45471000D01*
X189862699Y-45471000D01*
X189815061Y-45480475D01*
X189779730Y-45504083D01*
X189777976Y-45504314D01*
X189776725Y-45503063D01*
X189776956Y-45501309D01*
X189785518Y-45488496D01*
X189803954Y-45443986D01*
X189803954Y-45396010D01*
X189785517Y-45351499D01*
X189776959Y-45338692D01*
X189776728Y-45336938D01*
X189777979Y-45335687D01*
X189779733Y-45335918D01*
G37*
G36*
X198104731Y-44835916D02*
G01*
X198140061Y-44859524D01*
X198187699Y-44869000D01*
X199512301Y-44869000D01*
X199559938Y-44859524D01*
X199595265Y-44835919D01*
X199597019Y-44835688D01*
X199598270Y-44836939D01*
X199598039Y-44838693D01*
X199589481Y-44851500D01*
X199571045Y-44896012D01*
X199571045Y-44943988D01*
X199589481Y-44988499D01*
X199598039Y-45001307D01*
X199598270Y-45003061D01*
X199597019Y-45004312D01*
X199595265Y-45004081D01*
X199559938Y-44980475D01*
X199512301Y-44971000D01*
X198187699Y-44971000D01*
X198140061Y-44980475D01*
X198104731Y-45004083D01*
X198102977Y-45004314D01*
X198101726Y-45003063D01*
X198101957Y-45001309D01*
X198110517Y-44988498D01*
X198128954Y-44943988D01*
X198128954Y-44896012D01*
X198110517Y-44851501D01*
X198101957Y-44838690D01*
X198101726Y-44836936D01*
X198102977Y-44835685D01*
X198104731Y-44835916D01*
G37*
G36*
X189779731Y-44835916D02*
G01*
X189815061Y-44859524D01*
X189862699Y-44869000D01*
X191187301Y-44869000D01*
X191234938Y-44859524D01*
X191270265Y-44835919D01*
X191272019Y-44835688D01*
X191273270Y-44836939D01*
X191273039Y-44838693D01*
X191264481Y-44851500D01*
X191246045Y-44896012D01*
X191246045Y-44943988D01*
X191264481Y-44988499D01*
X191273039Y-45001307D01*
X191273270Y-45003061D01*
X191272019Y-45004312D01*
X191270265Y-45004081D01*
X191234938Y-44980475D01*
X191187301Y-44971000D01*
X189862699Y-44971000D01*
X189815061Y-44980475D01*
X189779731Y-45004083D01*
X189777977Y-45004314D01*
X189776726Y-45003063D01*
X189776957Y-45001309D01*
X189785517Y-44988498D01*
X189803954Y-44943988D01*
X189803954Y-44896012D01*
X189785517Y-44851501D01*
X189776957Y-44838690D01*
X189776726Y-44836936D01*
X189777977Y-44835685D01*
X189779731Y-44835916D01*
G37*
G36*
X197271814Y-42510477D02*
G01*
X197271583Y-42512231D01*
X197247975Y-42547561D01*
X197238500Y-42595199D01*
X197238500Y-43919801D01*
X197247975Y-43967438D01*
X197271581Y-44002765D01*
X197271812Y-44004519D01*
X197270561Y-44005770D01*
X197268807Y-44005539D01*
X197255999Y-43996981D01*
X197211488Y-43978545D01*
X197163512Y-43978545D01*
X197119000Y-43996981D01*
X197106193Y-44005539D01*
X197104439Y-44005770D01*
X197103188Y-44004519D01*
X197103419Y-44002765D01*
X197127024Y-43967438D01*
X197136500Y-43919801D01*
X197136500Y-42595199D01*
X197127024Y-42547561D01*
X197103416Y-42512231D01*
X197103185Y-42510477D01*
X197104436Y-42509226D01*
X197106190Y-42509457D01*
X197119001Y-42518017D01*
X197163512Y-42536454D01*
X197211488Y-42536454D01*
X197255998Y-42518017D01*
X197268809Y-42509457D01*
X197270563Y-42509226D01*
X197271814Y-42510477D01*
G37*
G36*
X196771814Y-42510477D02*
G01*
X196771583Y-42512231D01*
X196747975Y-42547561D01*
X196738500Y-42595199D01*
X196738500Y-43919801D01*
X196747975Y-43967438D01*
X196771581Y-44002765D01*
X196771812Y-44004519D01*
X196770561Y-44005770D01*
X196768807Y-44005539D01*
X196755999Y-43996981D01*
X196711488Y-43978545D01*
X196663512Y-43978545D01*
X196619000Y-43996981D01*
X196606193Y-44005539D01*
X196604439Y-44005770D01*
X196603188Y-44004519D01*
X196603419Y-44002765D01*
X196627024Y-43967438D01*
X196636500Y-43919801D01*
X196636500Y-42595199D01*
X196627024Y-42547561D01*
X196603416Y-42512231D01*
X196603185Y-42510477D01*
X196604436Y-42509226D01*
X196606190Y-42509457D01*
X196619001Y-42518017D01*
X196663512Y-42536454D01*
X196711488Y-42536454D01*
X196755998Y-42518017D01*
X196768809Y-42509457D01*
X196770563Y-42509226D01*
X196771814Y-42510477D01*
G37*
G36*
X196271814Y-42510477D02*
G01*
X196271583Y-42512231D01*
X196247975Y-42547561D01*
X196238500Y-42595199D01*
X196238500Y-43919801D01*
X196247975Y-43967438D01*
X196271581Y-44002765D01*
X196271812Y-44004519D01*
X196270561Y-44005770D01*
X196268807Y-44005539D01*
X196255999Y-43996981D01*
X196211488Y-43978545D01*
X196163512Y-43978545D01*
X196119000Y-43996981D01*
X196106193Y-44005539D01*
X196104439Y-44005770D01*
X196103188Y-44004519D01*
X196103419Y-44002765D01*
X196127024Y-43967438D01*
X196136500Y-43919801D01*
X196136500Y-42595199D01*
X196127024Y-42547561D01*
X196103416Y-42512231D01*
X196103185Y-42510477D01*
X196104436Y-42509226D01*
X196106190Y-42509457D01*
X196119001Y-42518017D01*
X196163512Y-42536454D01*
X196211488Y-42536454D01*
X196255998Y-42518017D01*
X196268809Y-42509457D01*
X196270563Y-42509226D01*
X196271814Y-42510477D01*
G37*
G36*
X195771814Y-42510477D02*
G01*
X195771583Y-42512231D01*
X195747975Y-42547561D01*
X195738500Y-42595199D01*
X195738500Y-43919801D01*
X195747975Y-43967438D01*
X195771581Y-44002765D01*
X195771812Y-44004519D01*
X195770561Y-44005770D01*
X195768807Y-44005539D01*
X195755999Y-43996981D01*
X195711488Y-43978545D01*
X195663512Y-43978545D01*
X195619000Y-43996981D01*
X195606193Y-44005539D01*
X195604439Y-44005770D01*
X195603188Y-44004519D01*
X195603419Y-44002765D01*
X195627024Y-43967438D01*
X195636500Y-43919801D01*
X195636500Y-42595199D01*
X195627024Y-42547561D01*
X195603416Y-42512231D01*
X195603185Y-42510477D01*
X195604436Y-42509226D01*
X195606190Y-42509457D01*
X195619001Y-42518017D01*
X195663512Y-42536454D01*
X195711488Y-42536454D01*
X195755998Y-42518017D01*
X195768809Y-42509457D01*
X195770563Y-42509226D01*
X195771814Y-42510477D01*
G37*
G36*
X195271814Y-42510477D02*
G01*
X195271583Y-42512231D01*
X195247975Y-42547561D01*
X195238500Y-42595199D01*
X195238500Y-43919801D01*
X195247975Y-43967438D01*
X195271581Y-44002765D01*
X195271812Y-44004519D01*
X195270561Y-44005770D01*
X195268807Y-44005539D01*
X195255999Y-43996981D01*
X195211488Y-43978545D01*
X195163512Y-43978545D01*
X195119000Y-43996981D01*
X195106193Y-44005539D01*
X195104439Y-44005770D01*
X195103188Y-44004519D01*
X195103419Y-44002765D01*
X195127024Y-43967438D01*
X195136500Y-43919801D01*
X195136500Y-42595199D01*
X195127024Y-42547561D01*
X195103416Y-42512231D01*
X195103185Y-42510477D01*
X195104436Y-42509226D01*
X195106190Y-42509457D01*
X195119001Y-42518017D01*
X195163512Y-42536454D01*
X195211488Y-42536454D01*
X195255998Y-42518017D01*
X195268809Y-42509457D01*
X195270563Y-42509226D01*
X195271814Y-42510477D01*
G37*
G36*
X194771814Y-42510477D02*
G01*
X194771583Y-42512231D01*
X194747975Y-42547561D01*
X194738500Y-42595199D01*
X194738500Y-43919801D01*
X194747975Y-43967438D01*
X194771581Y-44002765D01*
X194771812Y-44004519D01*
X194770561Y-44005770D01*
X194768807Y-44005539D01*
X194755999Y-43996981D01*
X194711488Y-43978545D01*
X194663512Y-43978545D01*
X194619000Y-43996981D01*
X194606193Y-44005539D01*
X194604439Y-44005770D01*
X194603188Y-44004519D01*
X194603419Y-44002765D01*
X194627024Y-43967438D01*
X194636500Y-43919801D01*
X194636500Y-42595199D01*
X194627024Y-42547561D01*
X194603416Y-42512231D01*
X194603185Y-42510477D01*
X194604436Y-42509226D01*
X194606190Y-42509457D01*
X194619001Y-42518017D01*
X194663512Y-42536454D01*
X194711488Y-42536454D01*
X194755998Y-42518017D01*
X194768809Y-42509457D01*
X194770563Y-42509226D01*
X194771814Y-42510477D01*
G37*
G36*
X194271814Y-42510477D02*
G01*
X194271583Y-42512231D01*
X194247975Y-42547561D01*
X194238500Y-42595199D01*
X194238500Y-43919801D01*
X194247975Y-43967438D01*
X194271581Y-44002765D01*
X194271812Y-44004519D01*
X194270561Y-44005770D01*
X194268807Y-44005539D01*
X194255999Y-43996981D01*
X194211488Y-43978545D01*
X194163512Y-43978545D01*
X194119000Y-43996981D01*
X194106193Y-44005539D01*
X194104439Y-44005770D01*
X194103188Y-44004519D01*
X194103419Y-44002765D01*
X194127024Y-43967438D01*
X194136500Y-43919801D01*
X194136500Y-42595199D01*
X194127024Y-42547561D01*
X194103416Y-42512231D01*
X194103185Y-42510477D01*
X194104436Y-42509226D01*
X194106190Y-42509457D01*
X194119001Y-42518017D01*
X194163512Y-42536454D01*
X194211488Y-42536454D01*
X194255998Y-42518017D01*
X194268809Y-42509457D01*
X194270563Y-42509226D01*
X194271814Y-42510477D01*
G37*
G36*
X193771814Y-42510477D02*
G01*
X193771583Y-42512231D01*
X193747975Y-42547561D01*
X193738500Y-42595199D01*
X193738500Y-43919801D01*
X193747975Y-43967438D01*
X193771581Y-44002765D01*
X193771812Y-44004519D01*
X193770561Y-44005770D01*
X193768807Y-44005539D01*
X193755999Y-43996981D01*
X193711488Y-43978545D01*
X193663512Y-43978545D01*
X193619000Y-43996981D01*
X193606193Y-44005539D01*
X193604439Y-44005770D01*
X193603188Y-44004519D01*
X193603419Y-44002765D01*
X193627024Y-43967438D01*
X193636500Y-43919801D01*
X193636500Y-42595199D01*
X193627024Y-42547561D01*
X193603416Y-42512231D01*
X193603185Y-42510477D01*
X193604436Y-42509226D01*
X193606190Y-42509457D01*
X193619001Y-42518017D01*
X193663512Y-42536454D01*
X193711488Y-42536454D01*
X193755998Y-42518017D01*
X193768809Y-42509457D01*
X193770563Y-42509226D01*
X193771814Y-42510477D01*
G37*
G36*
X193271814Y-42510477D02*
G01*
X193271583Y-42512231D01*
X193247975Y-42547561D01*
X193238500Y-42595199D01*
X193238500Y-43919801D01*
X193247975Y-43967438D01*
X193271581Y-44002765D01*
X193271812Y-44004519D01*
X193270561Y-44005770D01*
X193268807Y-44005539D01*
X193255999Y-43996981D01*
X193211488Y-43978545D01*
X193163512Y-43978545D01*
X193119000Y-43996981D01*
X193106193Y-44005539D01*
X193104439Y-44005770D01*
X193103188Y-44004519D01*
X193103419Y-44002765D01*
X193127024Y-43967438D01*
X193136500Y-43919801D01*
X193136500Y-42595199D01*
X193127024Y-42547561D01*
X193103416Y-42512231D01*
X193103185Y-42510477D01*
X193104436Y-42509226D01*
X193106190Y-42509457D01*
X193119001Y-42518017D01*
X193163512Y-42536454D01*
X193211488Y-42536454D01*
X193255998Y-42518017D01*
X193268809Y-42509457D01*
X193270563Y-42509226D01*
X193271814Y-42510477D01*
G37*
G36*
X192771814Y-42510477D02*
G01*
X192771583Y-42512231D01*
X192747975Y-42547561D01*
X192738500Y-42595199D01*
X192738500Y-43919801D01*
X192747975Y-43967438D01*
X192771581Y-44002765D01*
X192771812Y-44004519D01*
X192770561Y-44005770D01*
X192768807Y-44005539D01*
X192755999Y-43996981D01*
X192711488Y-43978545D01*
X192663512Y-43978545D01*
X192619000Y-43996981D01*
X192606193Y-44005539D01*
X192604439Y-44005770D01*
X192603188Y-44004519D01*
X192603419Y-44002765D01*
X192627024Y-43967438D01*
X192636500Y-43919801D01*
X192636500Y-42595199D01*
X192627024Y-42547561D01*
X192603416Y-42512231D01*
X192603185Y-42510477D01*
X192604436Y-42509226D01*
X192606190Y-42509457D01*
X192619001Y-42518017D01*
X192663512Y-42536454D01*
X192711488Y-42536454D01*
X192755998Y-42518017D01*
X192768809Y-42509457D01*
X192770563Y-42509226D01*
X192771814Y-42510477D01*
G37*
G36*
X192271814Y-42510477D02*
G01*
X192271583Y-42512231D01*
X192247975Y-42547561D01*
X192238500Y-42595199D01*
X192238500Y-43919801D01*
X192247975Y-43967438D01*
X192271581Y-44002765D01*
X192271812Y-44004519D01*
X192270561Y-44005770D01*
X192268807Y-44005539D01*
X192255999Y-43996981D01*
X192211488Y-43978545D01*
X192163512Y-43978545D01*
X192119000Y-43996981D01*
X192106193Y-44005539D01*
X192104439Y-44005770D01*
X192103188Y-44004519D01*
X192103419Y-44002765D01*
X192127024Y-43967438D01*
X192136500Y-43919801D01*
X192136500Y-42595199D01*
X192127024Y-42547561D01*
X192103416Y-42512231D01*
X192103185Y-42510477D01*
X192104436Y-42509226D01*
X192106190Y-42509457D01*
X192119001Y-42518017D01*
X192163512Y-42536454D01*
X192211488Y-42536454D01*
X192255998Y-42518017D01*
X192268809Y-42509457D01*
X192270563Y-42509226D01*
X192271814Y-42510477D01*
G37*
G36*
X157484314Y-41915477D02*
G01*
X157484083Y-41917231D01*
X157460475Y-41952561D01*
X157451000Y-42000199D01*
X157451000Y-43324801D01*
X157460475Y-43372438D01*
X157484081Y-43407765D01*
X157484312Y-43409519D01*
X157483061Y-43410770D01*
X157481307Y-43410539D01*
X157468499Y-43401981D01*
X157423988Y-43383545D01*
X157376012Y-43383545D01*
X157331500Y-43401981D01*
X157318693Y-43410539D01*
X157316939Y-43410770D01*
X157315688Y-43409519D01*
X157315919Y-43407765D01*
X157339524Y-43372438D01*
X157349000Y-43324801D01*
X157349000Y-42000199D01*
X157339524Y-41952561D01*
X157315916Y-41917231D01*
X157315685Y-41915477D01*
X157316936Y-41914226D01*
X157318690Y-41914457D01*
X157331501Y-41923017D01*
X157376012Y-41941454D01*
X157423988Y-41941454D01*
X157468498Y-41923017D01*
X157481309Y-41914457D01*
X157483063Y-41914226D01*
X157484314Y-41915477D01*
G37*
G36*
X156984314Y-41915477D02*
G01*
X156984083Y-41917231D01*
X156960475Y-41952561D01*
X156951000Y-42000199D01*
X156951000Y-43324801D01*
X156960475Y-43372438D01*
X156984081Y-43407765D01*
X156984312Y-43409519D01*
X156983061Y-43410770D01*
X156981307Y-43410539D01*
X156968499Y-43401981D01*
X156923988Y-43383545D01*
X156876012Y-43383545D01*
X156831500Y-43401981D01*
X156818693Y-43410539D01*
X156816939Y-43410770D01*
X156815688Y-43409519D01*
X156815919Y-43407765D01*
X156839524Y-43372438D01*
X156849000Y-43324801D01*
X156849000Y-42000199D01*
X156839524Y-41952561D01*
X156815916Y-41917231D01*
X156815685Y-41915477D01*
X156816936Y-41914226D01*
X156818690Y-41914457D01*
X156831501Y-41923017D01*
X156876012Y-41941454D01*
X156923988Y-41941454D01*
X156968498Y-41923017D01*
X156981309Y-41914457D01*
X156983063Y-41914226D01*
X156984314Y-41915477D01*
G37*
G36*
X156484314Y-41915477D02*
G01*
X156484083Y-41917231D01*
X156460475Y-41952561D01*
X156451000Y-42000199D01*
X156451000Y-43324801D01*
X156460475Y-43372438D01*
X156484081Y-43407765D01*
X156484312Y-43409519D01*
X156483061Y-43410770D01*
X156481307Y-43410539D01*
X156468499Y-43401981D01*
X156423988Y-43383545D01*
X156376012Y-43383545D01*
X156331500Y-43401981D01*
X156318693Y-43410539D01*
X156316939Y-43410770D01*
X156315688Y-43409519D01*
X156315919Y-43407765D01*
X156339524Y-43372438D01*
X156349000Y-43324801D01*
X156349000Y-42000199D01*
X156339524Y-41952561D01*
X156315916Y-41917231D01*
X156315685Y-41915477D01*
X156316936Y-41914226D01*
X156318690Y-41914457D01*
X156331501Y-41923017D01*
X156376012Y-41941454D01*
X156423988Y-41941454D01*
X156468498Y-41923017D01*
X156481309Y-41914457D01*
X156483063Y-41914226D01*
X156484314Y-41915477D01*
G37*
G36*
X155984314Y-41915477D02*
G01*
X155984083Y-41917231D01*
X155960475Y-41952561D01*
X155951000Y-42000199D01*
X155951000Y-43324801D01*
X155960475Y-43372438D01*
X155984081Y-43407765D01*
X155984312Y-43409519D01*
X155983061Y-43410770D01*
X155981307Y-43410539D01*
X155968499Y-43401981D01*
X155923988Y-43383545D01*
X155876012Y-43383545D01*
X155831500Y-43401981D01*
X155818693Y-43410539D01*
X155816939Y-43410770D01*
X155815688Y-43409519D01*
X155815919Y-43407765D01*
X155839524Y-43372438D01*
X155849000Y-43324801D01*
X155849000Y-42000199D01*
X155839524Y-41952561D01*
X155815916Y-41917231D01*
X155815685Y-41915477D01*
X155816936Y-41914226D01*
X155818690Y-41914457D01*
X155831501Y-41923017D01*
X155876012Y-41941454D01*
X155923988Y-41941454D01*
X155968498Y-41923017D01*
X155981309Y-41914457D01*
X155983063Y-41914226D01*
X155984314Y-41915477D01*
G37*
G36*
X155484314Y-41915477D02*
G01*
X155484083Y-41917231D01*
X155460475Y-41952561D01*
X155451000Y-42000199D01*
X155451000Y-43324801D01*
X155460475Y-43372438D01*
X155484081Y-43407765D01*
X155484312Y-43409519D01*
X155483061Y-43410770D01*
X155481307Y-43410539D01*
X155468499Y-43401981D01*
X155423988Y-43383545D01*
X155376012Y-43383545D01*
X155331500Y-43401981D01*
X155318693Y-43410539D01*
X155316939Y-43410770D01*
X155315688Y-43409519D01*
X155315919Y-43407765D01*
X155339524Y-43372438D01*
X155349000Y-43324801D01*
X155349000Y-42000199D01*
X155339524Y-41952561D01*
X155315916Y-41917231D01*
X155315685Y-41915477D01*
X155316936Y-41914226D01*
X155318690Y-41914457D01*
X155331501Y-41923017D01*
X155376012Y-41941454D01*
X155423988Y-41941454D01*
X155468498Y-41923017D01*
X155481309Y-41914457D01*
X155483063Y-41914226D01*
X155484314Y-41915477D01*
G37*
G36*
X154984314Y-41915477D02*
G01*
X154984083Y-41917231D01*
X154960475Y-41952561D01*
X154951000Y-42000199D01*
X154951000Y-43324801D01*
X154960475Y-43372438D01*
X154984081Y-43407765D01*
X154984312Y-43409519D01*
X154983061Y-43410770D01*
X154981307Y-43410539D01*
X154968499Y-43401981D01*
X154923988Y-43383545D01*
X154876012Y-43383545D01*
X154831500Y-43401981D01*
X154818693Y-43410539D01*
X154816939Y-43410770D01*
X154815688Y-43409519D01*
X154815919Y-43407765D01*
X154839524Y-43372438D01*
X154849000Y-43324801D01*
X154849000Y-42000199D01*
X154839524Y-41952561D01*
X154815916Y-41917231D01*
X154815685Y-41915477D01*
X154816936Y-41914226D01*
X154818690Y-41914457D01*
X154831501Y-41923017D01*
X154876012Y-41941454D01*
X154923988Y-41941454D01*
X154968498Y-41923017D01*
X154981309Y-41914457D01*
X154983063Y-41914226D01*
X154984314Y-41915477D01*
G37*
G36*
X154484314Y-41915477D02*
G01*
X154484083Y-41917231D01*
X154460475Y-41952561D01*
X154451000Y-42000199D01*
X154451000Y-43324801D01*
X154460475Y-43372438D01*
X154484081Y-43407765D01*
X154484312Y-43409519D01*
X154483061Y-43410770D01*
X154481307Y-43410539D01*
X154468499Y-43401981D01*
X154423988Y-43383545D01*
X154376012Y-43383545D01*
X154331500Y-43401981D01*
X154318693Y-43410539D01*
X154316939Y-43410770D01*
X154315688Y-43409519D01*
X154315919Y-43407765D01*
X154339524Y-43372438D01*
X154349000Y-43324801D01*
X154349000Y-42000199D01*
X154339524Y-41952561D01*
X154315916Y-41917231D01*
X154315685Y-41915477D01*
X154316936Y-41914226D01*
X154318690Y-41914457D01*
X154331501Y-41923017D01*
X154376012Y-41941454D01*
X154423988Y-41941454D01*
X154468498Y-41923017D01*
X154481309Y-41914457D01*
X154483063Y-41914226D01*
X154484314Y-41915477D01*
G37*
G36*
X153984314Y-41915477D02*
G01*
X153984083Y-41917231D01*
X153960475Y-41952561D01*
X153951000Y-42000199D01*
X153951000Y-43324801D01*
X153960475Y-43372438D01*
X153984081Y-43407765D01*
X153984312Y-43409519D01*
X153983061Y-43410770D01*
X153981307Y-43410539D01*
X153968499Y-43401981D01*
X153923988Y-43383545D01*
X153876012Y-43383545D01*
X153831500Y-43401981D01*
X153818693Y-43410539D01*
X153816939Y-43410770D01*
X153815688Y-43409519D01*
X153815919Y-43407765D01*
X153839524Y-43372438D01*
X153849000Y-43324801D01*
X153849000Y-42000199D01*
X153839524Y-41952561D01*
X153815916Y-41917231D01*
X153815685Y-41915477D01*
X153816936Y-41914226D01*
X153818690Y-41914457D01*
X153831501Y-41923017D01*
X153876012Y-41941454D01*
X153923988Y-41941454D01*
X153968498Y-41923017D01*
X153981309Y-41914457D01*
X153983063Y-41914226D01*
X153984314Y-41915477D01*
G37*
G36*
X153484314Y-41915477D02*
G01*
X153484083Y-41917231D01*
X153460475Y-41952561D01*
X153451000Y-42000199D01*
X153451000Y-43324801D01*
X153460475Y-43372438D01*
X153484081Y-43407765D01*
X153484312Y-43409519D01*
X153483061Y-43410770D01*
X153481307Y-43410539D01*
X153468499Y-43401981D01*
X153423988Y-43383545D01*
X153376012Y-43383545D01*
X153331500Y-43401981D01*
X153318693Y-43410539D01*
X153316939Y-43410770D01*
X153315688Y-43409519D01*
X153315919Y-43407765D01*
X153339524Y-43372438D01*
X153349000Y-43324801D01*
X153349000Y-42000199D01*
X153339524Y-41952561D01*
X153315916Y-41917231D01*
X153315685Y-41915477D01*
X153316936Y-41914226D01*
X153318690Y-41914457D01*
X153331501Y-41923017D01*
X153376012Y-41941454D01*
X153423988Y-41941454D01*
X153468498Y-41923017D01*
X153481309Y-41914457D01*
X153483063Y-41914226D01*
X153484314Y-41915477D01*
G37*
G36*
X152984314Y-41915477D02*
G01*
X152984083Y-41917231D01*
X152960475Y-41952561D01*
X152951000Y-42000199D01*
X152951000Y-43324801D01*
X152960475Y-43372438D01*
X152984081Y-43407765D01*
X152984312Y-43409519D01*
X152983061Y-43410770D01*
X152981307Y-43410539D01*
X152968499Y-43401981D01*
X152923988Y-43383545D01*
X152876012Y-43383545D01*
X152831500Y-43401981D01*
X152818693Y-43410539D01*
X152816939Y-43410770D01*
X152815688Y-43409519D01*
X152815919Y-43407765D01*
X152839524Y-43372438D01*
X152849000Y-43324801D01*
X152849000Y-42000199D01*
X152839524Y-41952561D01*
X152815916Y-41917231D01*
X152815685Y-41915477D01*
X152816936Y-41914226D01*
X152818690Y-41914457D01*
X152831501Y-41923017D01*
X152876012Y-41941454D01*
X152923988Y-41941454D01*
X152968498Y-41923017D01*
X152981309Y-41914457D01*
X152983063Y-41914226D01*
X152984314Y-41915477D01*
G37*
G36*
X152484314Y-41915477D02*
G01*
X152484083Y-41917231D01*
X152460475Y-41952561D01*
X152451000Y-42000199D01*
X152451000Y-43324801D01*
X152460475Y-43372438D01*
X152484081Y-43407765D01*
X152484312Y-43409519D01*
X152483061Y-43410770D01*
X152481307Y-43410539D01*
X152468499Y-43401981D01*
X152423988Y-43383545D01*
X152376012Y-43383545D01*
X152331500Y-43401981D01*
X152318693Y-43410539D01*
X152316939Y-43410770D01*
X152315688Y-43409519D01*
X152315919Y-43407765D01*
X152339524Y-43372438D01*
X152349000Y-43324801D01*
X152349000Y-42000199D01*
X152339524Y-41952561D01*
X152315916Y-41917231D01*
X152315685Y-41915477D01*
X152316936Y-41914226D01*
X152318690Y-41914457D01*
X152331501Y-41923017D01*
X152376012Y-41941454D01*
X152423988Y-41941454D01*
X152468498Y-41923017D01*
X152481309Y-41914457D01*
X152483063Y-41914226D01*
X152484314Y-41915477D01*
G37*
G36*
X158317231Y-40915916D02*
G01*
X158352561Y-40939524D01*
X158400199Y-40949000D01*
X159724801Y-40949000D01*
X159772438Y-40939524D01*
X159807765Y-40915919D01*
X159809519Y-40915688D01*
X159810770Y-40916939D01*
X159810539Y-40918693D01*
X159801981Y-40931500D01*
X159783545Y-40976012D01*
X159783545Y-41023988D01*
X159801981Y-41068499D01*
X159810539Y-41081307D01*
X159810770Y-41083061D01*
X159809519Y-41084312D01*
X159807765Y-41084081D01*
X159772438Y-41060475D01*
X159724801Y-41051000D01*
X158400199Y-41051000D01*
X158352561Y-41060475D01*
X158317231Y-41084083D01*
X158315477Y-41084314D01*
X158314226Y-41083063D01*
X158314457Y-41081309D01*
X158323017Y-41068498D01*
X158341454Y-41023988D01*
X158341454Y-40976012D01*
X158323017Y-40931501D01*
X158314457Y-40918690D01*
X158314226Y-40916936D01*
X158315477Y-40915685D01*
X158317231Y-40915916D01*
G37*
G36*
X149992231Y-40915916D02*
G01*
X150027561Y-40939524D01*
X150075199Y-40949000D01*
X151399801Y-40949000D01*
X151447438Y-40939524D01*
X151482765Y-40915919D01*
X151484519Y-40915688D01*
X151485770Y-40916939D01*
X151485539Y-40918693D01*
X151476981Y-40931500D01*
X151458545Y-40976012D01*
X151458545Y-41023988D01*
X151476981Y-41068499D01*
X151485539Y-41081307D01*
X151485770Y-41083061D01*
X151484519Y-41084312D01*
X151482765Y-41084081D01*
X151447438Y-41060475D01*
X151399801Y-41051000D01*
X150075199Y-41051000D01*
X150027561Y-41060475D01*
X149992231Y-41084083D01*
X149990477Y-41084314D01*
X149989226Y-41083063D01*
X149989457Y-41081309D01*
X149998017Y-41068498D01*
X150016454Y-41023988D01*
X150016454Y-40976012D01*
X149998017Y-40931501D01*
X149989457Y-40918690D01*
X149989226Y-40916936D01*
X149990477Y-40915685D01*
X149992231Y-40915916D01*
G37*
G36*
X158317231Y-40415916D02*
G01*
X158352561Y-40439524D01*
X158400199Y-40449000D01*
X159724801Y-40449000D01*
X159772438Y-40439524D01*
X159807764Y-40415919D01*
X159809518Y-40415688D01*
X159810769Y-40416939D01*
X159810538Y-40418693D01*
X159801982Y-40431498D01*
X159783545Y-40476010D01*
X159783545Y-40523986D01*
X159801981Y-40568497D01*
X159810542Y-40581308D01*
X159810773Y-40583062D01*
X159809522Y-40584313D01*
X159807768Y-40584082D01*
X159772438Y-40560475D01*
X159724801Y-40551000D01*
X158400199Y-40551000D01*
X158352561Y-40560475D01*
X158317231Y-40584083D01*
X158315477Y-40584314D01*
X158314226Y-40583063D01*
X158314457Y-40581309D01*
X158323017Y-40568498D01*
X158341454Y-40523988D01*
X158341454Y-40476012D01*
X158323017Y-40431501D01*
X158314457Y-40418690D01*
X158314226Y-40416936D01*
X158315477Y-40415685D01*
X158317231Y-40415916D01*
G37*
G36*
X149992231Y-40415916D02*
G01*
X150027561Y-40439524D01*
X150075199Y-40449000D01*
X151399801Y-40449000D01*
X151447438Y-40439524D01*
X151482764Y-40415919D01*
X151484518Y-40415688D01*
X151485769Y-40416939D01*
X151485538Y-40418693D01*
X151476982Y-40431498D01*
X151458545Y-40476010D01*
X151458545Y-40523986D01*
X151476981Y-40568497D01*
X151485542Y-40581308D01*
X151485773Y-40583062D01*
X151484522Y-40584313D01*
X151482768Y-40584082D01*
X151447438Y-40560475D01*
X151399801Y-40551000D01*
X150075199Y-40551000D01*
X150027561Y-40560475D01*
X149992231Y-40584083D01*
X149990477Y-40584314D01*
X149989226Y-40583063D01*
X149989457Y-40581309D01*
X149998017Y-40568498D01*
X150016454Y-40523988D01*
X150016454Y-40476012D01*
X149998017Y-40431501D01*
X149989457Y-40418690D01*
X149989226Y-40416936D01*
X149990477Y-40415685D01*
X149992231Y-40415916D01*
G37*
G36*
X158317233Y-39915918D02*
G01*
X158352561Y-39939524D01*
X158400199Y-39949000D01*
X159724801Y-39949000D01*
X159772438Y-39939524D01*
X159807764Y-39915919D01*
X159809518Y-39915688D01*
X159810769Y-39916939D01*
X159810538Y-39918693D01*
X159801982Y-39931498D01*
X159783545Y-39976010D01*
X159783545Y-40023986D01*
X159801981Y-40068497D01*
X159810542Y-40081308D01*
X159810773Y-40083062D01*
X159809522Y-40084313D01*
X159807768Y-40084082D01*
X159772438Y-40060475D01*
X159724801Y-40051000D01*
X158400199Y-40051000D01*
X158352561Y-40060475D01*
X158317230Y-40084083D01*
X158315476Y-40084314D01*
X158314225Y-40083063D01*
X158314456Y-40081309D01*
X158323018Y-40068496D01*
X158341454Y-40023986D01*
X158341454Y-39976010D01*
X158323017Y-39931499D01*
X158314459Y-39918692D01*
X158314228Y-39916938D01*
X158315479Y-39915687D01*
X158317233Y-39915918D01*
G37*
G36*
X149992233Y-39915918D02*
G01*
X150027561Y-39939524D01*
X150075199Y-39949000D01*
X151399801Y-39949000D01*
X151447438Y-39939524D01*
X151482764Y-39915919D01*
X151484518Y-39915688D01*
X151485769Y-39916939D01*
X151485538Y-39918693D01*
X151476982Y-39931498D01*
X151458545Y-39976010D01*
X151458545Y-40023986D01*
X151476981Y-40068497D01*
X151485542Y-40081308D01*
X151485773Y-40083062D01*
X151484522Y-40084313D01*
X151482768Y-40084082D01*
X151447438Y-40060475D01*
X151399801Y-40051000D01*
X150075199Y-40051000D01*
X150027561Y-40060475D01*
X149992230Y-40084083D01*
X149990476Y-40084314D01*
X149989225Y-40083063D01*
X149989456Y-40081309D01*
X149998018Y-40068496D01*
X150016454Y-40023986D01*
X150016454Y-39976010D01*
X149998017Y-39931499D01*
X149989459Y-39918692D01*
X149989228Y-39916938D01*
X149990479Y-39915687D01*
X149992233Y-39915918D01*
G37*
G36*
X158317231Y-39415916D02*
G01*
X158352561Y-39439524D01*
X158400199Y-39449000D01*
X159724801Y-39449000D01*
X159772438Y-39439524D01*
X159807765Y-39415919D01*
X159809519Y-39415688D01*
X159810770Y-39416939D01*
X159810539Y-39418693D01*
X159801981Y-39431500D01*
X159783545Y-39476012D01*
X159783545Y-39523988D01*
X159801981Y-39568499D01*
X159810539Y-39581307D01*
X159810770Y-39583061D01*
X159809519Y-39584312D01*
X159807765Y-39584081D01*
X159772438Y-39560475D01*
X159724801Y-39551000D01*
X158400199Y-39551000D01*
X158352561Y-39560475D01*
X158317231Y-39584083D01*
X158315477Y-39584314D01*
X158314226Y-39583063D01*
X158314457Y-39581309D01*
X158323017Y-39568498D01*
X158341454Y-39523988D01*
X158341454Y-39476012D01*
X158323017Y-39431501D01*
X158314457Y-39418690D01*
X158314226Y-39416936D01*
X158315477Y-39415685D01*
X158317231Y-39415916D01*
G37*
G36*
X149992231Y-39415916D02*
G01*
X150027561Y-39439524D01*
X150075199Y-39449000D01*
X151399801Y-39449000D01*
X151447438Y-39439524D01*
X151482765Y-39415919D01*
X151484519Y-39415688D01*
X151485770Y-39416939D01*
X151485539Y-39418693D01*
X151476981Y-39431500D01*
X151458545Y-39476012D01*
X151458545Y-39523988D01*
X151476981Y-39568499D01*
X151485539Y-39581307D01*
X151485770Y-39583061D01*
X151484519Y-39584312D01*
X151482765Y-39584081D01*
X151447438Y-39560475D01*
X151399801Y-39551000D01*
X150075199Y-39551000D01*
X150027561Y-39560475D01*
X149992231Y-39584083D01*
X149990477Y-39584314D01*
X149989226Y-39583063D01*
X149989457Y-39581309D01*
X149998017Y-39568498D01*
X150016454Y-39523988D01*
X150016454Y-39476012D01*
X149998017Y-39431501D01*
X149989457Y-39418690D01*
X149989226Y-39416936D01*
X149990477Y-39415685D01*
X149992231Y-39415916D01*
G37*
G36*
X211654632Y-38674853D02*
G01*
X211654873Y-38676684D01*
X211653512Y-38677932D01*
X211591532Y-38694539D01*
X211546539Y-38739533D01*
X211529932Y-38801512D01*
X211528684Y-38802873D01*
X211526853Y-38802632D01*
X211526000Y-38800994D01*
X211526000Y-38764899D01*
X211522233Y-38745962D01*
X211511620Y-38730079D01*
X211495737Y-38719466D01*
X211476801Y-38715700D01*
X211223199Y-38715700D01*
X211204262Y-38719466D01*
X211188379Y-38730079D01*
X211177766Y-38745962D01*
X211174000Y-38764899D01*
X211174000Y-39526501D01*
X211177766Y-39545437D01*
X211185113Y-39556432D01*
X211185344Y-39558186D01*
X211184093Y-39559437D01*
X211182339Y-39559206D01*
X211168499Y-39549958D01*
X211123988Y-39531522D01*
X211076011Y-39531522D01*
X211031499Y-39549959D01*
X211017661Y-39559206D01*
X211015907Y-39559437D01*
X211014656Y-39558186D01*
X211014887Y-39556432D01*
X211022234Y-39545437D01*
X211026001Y-39526501D01*
X211026001Y-38764899D01*
X211022234Y-38745962D01*
X211011621Y-38730079D01*
X210995738Y-38719466D01*
X210976802Y-38715700D01*
X210723200Y-38715700D01*
X210704263Y-38719466D01*
X210688380Y-38730079D01*
X210677767Y-38745962D01*
X210674001Y-38764899D01*
X210674001Y-39526501D01*
X210677767Y-39545437D01*
X210685115Y-39556434D01*
X210685346Y-39558188D01*
X210684095Y-39559439D01*
X210682341Y-39559208D01*
X210668499Y-39549958D01*
X210623988Y-39531521D01*
X210576012Y-39531521D01*
X210531500Y-39549958D01*
X210517658Y-39559207D01*
X210515904Y-39559438D01*
X210514653Y-39558187D01*
X210514884Y-39556433D01*
X210522232Y-39545437D01*
X210525999Y-39526501D01*
X210525999Y-38764899D01*
X210522232Y-38745962D01*
X210511619Y-38730079D01*
X210495736Y-38719466D01*
X210476800Y-38715700D01*
X210223198Y-38715700D01*
X210204261Y-38719466D01*
X210188378Y-38730079D01*
X210177765Y-38745962D01*
X210173999Y-38764899D01*
X210173999Y-39526501D01*
X210177765Y-39545437D01*
X210185112Y-39556432D01*
X210185343Y-39558186D01*
X210184092Y-39559437D01*
X210182338Y-39559206D01*
X210168498Y-39549958D01*
X210123987Y-39531522D01*
X210076010Y-39531522D01*
X210031498Y-39549959D01*
X210017660Y-39559206D01*
X210015906Y-39559437D01*
X210014655Y-39558186D01*
X210014886Y-39556432D01*
X210022233Y-39545437D01*
X210026000Y-39526501D01*
X210026000Y-38764899D01*
X210022233Y-38745962D01*
X210011620Y-38730079D01*
X209995737Y-38719466D01*
X209976801Y-38715700D01*
X209723199Y-38715700D01*
X209704262Y-38719466D01*
X209688379Y-38730079D01*
X209677766Y-38745962D01*
X209674000Y-38764899D01*
X209674000Y-39526501D01*
X209677766Y-39545437D01*
X209685113Y-39556432D01*
X209685344Y-39558186D01*
X209684093Y-39559437D01*
X209682339Y-39559206D01*
X209668499Y-39549958D01*
X209623988Y-39531522D01*
X209576011Y-39531522D01*
X209531499Y-39549959D01*
X209517661Y-39559206D01*
X209515907Y-39559437D01*
X209514656Y-39558186D01*
X209514887Y-39556432D01*
X209522234Y-39545437D01*
X209526001Y-39526501D01*
X209526001Y-38764899D01*
X209522234Y-38745962D01*
X209511621Y-38730079D01*
X209495738Y-38719466D01*
X209476802Y-38715700D01*
X209223200Y-38715700D01*
X209204263Y-38719466D01*
X209188380Y-38730079D01*
X209177767Y-38745962D01*
X209174001Y-38764899D01*
X209174001Y-39526501D01*
X209177767Y-39545437D01*
X209185115Y-39556434D01*
X209185346Y-39558188D01*
X209184095Y-39559439D01*
X209182341Y-39559208D01*
X209168499Y-39549958D01*
X209123988Y-39531521D01*
X209076012Y-39531521D01*
X209031500Y-39549958D01*
X209017658Y-39559207D01*
X209015904Y-39559438D01*
X209014653Y-39558187D01*
X209014884Y-39556433D01*
X209022232Y-39545437D01*
X209025999Y-39526501D01*
X209025999Y-38764899D01*
X209022232Y-38745962D01*
X209011619Y-38730079D01*
X208995736Y-38719466D01*
X208976800Y-38715700D01*
X208723198Y-38715700D01*
X208704261Y-38719466D01*
X208688378Y-38730079D01*
X208677765Y-38745962D01*
X208673999Y-38764899D01*
X208673999Y-39526501D01*
X208677765Y-39545437D01*
X208685112Y-39556432D01*
X208685343Y-39558186D01*
X208684092Y-39559437D01*
X208682338Y-39559206D01*
X208668498Y-39549958D01*
X208623987Y-39531522D01*
X208576010Y-39531522D01*
X208531498Y-39549959D01*
X208517660Y-39559206D01*
X208515906Y-39559437D01*
X208514655Y-39558186D01*
X208514886Y-39556432D01*
X208522233Y-39545437D01*
X208526000Y-39526501D01*
X208526000Y-38764899D01*
X208522233Y-38745962D01*
X208511620Y-38730079D01*
X208495737Y-38719466D01*
X208476801Y-38715700D01*
X208223199Y-38715700D01*
X208204262Y-38719466D01*
X208188379Y-38730079D01*
X208177766Y-38745962D01*
X208174000Y-38764899D01*
X208174000Y-38800998D01*
X208173147Y-38802636D01*
X208171316Y-38802877D01*
X208170068Y-38801516D01*
X208153459Y-38739532D01*
X208108465Y-38694538D01*
X208046486Y-38677932D01*
X208045125Y-38676684D01*
X208045366Y-38674853D01*
X208047004Y-38674000D01*
X211652994Y-38674000D01*
X211654632Y-38674853D01*
G37*
G36*
X158317231Y-38915916D02*
G01*
X158352561Y-38939524D01*
X158400199Y-38949000D01*
X159724801Y-38949000D01*
X159772438Y-38939524D01*
X159807765Y-38915919D01*
X159809519Y-38915688D01*
X159810770Y-38916939D01*
X159810539Y-38918693D01*
X159801981Y-38931500D01*
X159783545Y-38976012D01*
X159783545Y-39023988D01*
X159801981Y-39068499D01*
X159810539Y-39081307D01*
X159810770Y-39083061D01*
X159809519Y-39084312D01*
X159807765Y-39084081D01*
X159772438Y-39060475D01*
X159724801Y-39051000D01*
X158400199Y-39051000D01*
X158352561Y-39060475D01*
X158317231Y-39084083D01*
X158315477Y-39084314D01*
X158314226Y-39083063D01*
X158314457Y-39081309D01*
X158323017Y-39068498D01*
X158341454Y-39023988D01*
X158341454Y-38976012D01*
X158323017Y-38931501D01*
X158314457Y-38918690D01*
X158314226Y-38916936D01*
X158315477Y-38915685D01*
X158317231Y-38915916D01*
G37*
G36*
X149992231Y-38915916D02*
G01*
X150027561Y-38939524D01*
X150075199Y-38949000D01*
X151399801Y-38949000D01*
X151447438Y-38939524D01*
X151482765Y-38915919D01*
X151484519Y-38915688D01*
X151485770Y-38916939D01*
X151485539Y-38918693D01*
X151476981Y-38931500D01*
X151458545Y-38976012D01*
X151458545Y-39023988D01*
X151476981Y-39068499D01*
X151485539Y-39081307D01*
X151485770Y-39083061D01*
X151484519Y-39084312D01*
X151482765Y-39084081D01*
X151447438Y-39060475D01*
X151399801Y-39051000D01*
X150075199Y-39051000D01*
X150027561Y-39060475D01*
X149992231Y-39084083D01*
X149990477Y-39084314D01*
X149989226Y-39083063D01*
X149989457Y-39081309D01*
X149998017Y-39068498D01*
X150016454Y-39023988D01*
X150016454Y-38976012D01*
X149998017Y-38931501D01*
X149989457Y-38918690D01*
X149989226Y-38916936D01*
X149990477Y-38915685D01*
X149992231Y-38915916D01*
G37*
G36*
X158317233Y-38415918D02*
G01*
X158352561Y-38439524D01*
X158400199Y-38449000D01*
X159724801Y-38449000D01*
X159772438Y-38439524D01*
X159807764Y-38415919D01*
X159809518Y-38415688D01*
X159810769Y-38416939D01*
X159810538Y-38418693D01*
X159801982Y-38431498D01*
X159783545Y-38476010D01*
X159783545Y-38523986D01*
X159801981Y-38568497D01*
X159810542Y-38581308D01*
X159810773Y-38583062D01*
X159809522Y-38584313D01*
X159807768Y-38584082D01*
X159772438Y-38560475D01*
X159724801Y-38551000D01*
X158400199Y-38551000D01*
X158352561Y-38560475D01*
X158317230Y-38584083D01*
X158315476Y-38584314D01*
X158314225Y-38583063D01*
X158314456Y-38581309D01*
X158323018Y-38568496D01*
X158341454Y-38523986D01*
X158341454Y-38476010D01*
X158323017Y-38431499D01*
X158314459Y-38418692D01*
X158314228Y-38416938D01*
X158315479Y-38415687D01*
X158317233Y-38415918D01*
G37*
G36*
X149992233Y-38415918D02*
G01*
X150027561Y-38439524D01*
X150075199Y-38449000D01*
X151399801Y-38449000D01*
X151447438Y-38439524D01*
X151482764Y-38415919D01*
X151484518Y-38415688D01*
X151485769Y-38416939D01*
X151485538Y-38418693D01*
X151476982Y-38431498D01*
X151458545Y-38476010D01*
X151458545Y-38523986D01*
X151476981Y-38568497D01*
X151485542Y-38581308D01*
X151485773Y-38583062D01*
X151484522Y-38584313D01*
X151482768Y-38584082D01*
X151447438Y-38560475D01*
X151399801Y-38551000D01*
X150075199Y-38551000D01*
X150027561Y-38560475D01*
X149992230Y-38584083D01*
X149990476Y-38584314D01*
X149989225Y-38583063D01*
X149989456Y-38581309D01*
X149998018Y-38568496D01*
X150016454Y-38523986D01*
X150016454Y-38476010D01*
X149998017Y-38431499D01*
X149989459Y-38418692D01*
X149989228Y-38416938D01*
X149990479Y-38415687D01*
X149992233Y-38415918D01*
G37*
G36*
X207895147Y-34915363D02*
G01*
X207896000Y-34917001D01*
X207896000Y-38522997D01*
X207895147Y-38524635D01*
X207893316Y-38524876D01*
X207892068Y-38523515D01*
X207875459Y-38461532D01*
X207830465Y-38416538D01*
X207768487Y-38399932D01*
X207767126Y-38398684D01*
X207767367Y-38396853D01*
X207769005Y-38396000D01*
X207805101Y-38396000D01*
X207824037Y-38392233D01*
X207839920Y-38381620D01*
X207850533Y-38365737D01*
X207854300Y-38346801D01*
X207854300Y-38093199D01*
X207850533Y-38074262D01*
X207839920Y-38058379D01*
X207824037Y-38047766D01*
X207805101Y-38044000D01*
X207043499Y-38044000D01*
X207024562Y-38047766D01*
X207013566Y-38055114D01*
X207011812Y-38055345D01*
X207010561Y-38054094D01*
X207010792Y-38052340D01*
X207020041Y-38038498D01*
X207038477Y-37993987D01*
X207038477Y-37946012D01*
X207020040Y-37901500D01*
X207010792Y-37887660D01*
X207010561Y-37885906D01*
X207011812Y-37884655D01*
X207013566Y-37884886D01*
X207024562Y-37892234D01*
X207043499Y-37896001D01*
X207805101Y-37896001D01*
X207824037Y-37892234D01*
X207839920Y-37881621D01*
X207850533Y-37865738D01*
X207854300Y-37846802D01*
X207854300Y-37593200D01*
X207850533Y-37574263D01*
X207839920Y-37558380D01*
X207824037Y-37547767D01*
X207805101Y-37544001D01*
X207043499Y-37544001D01*
X207024562Y-37547767D01*
X207013564Y-37555116D01*
X207011810Y-37555347D01*
X207010559Y-37554096D01*
X207010790Y-37552342D01*
X207020041Y-37538498D01*
X207038478Y-37493988D01*
X207038478Y-37446012D01*
X207020041Y-37401501D01*
X207010790Y-37387657D01*
X207010559Y-37385903D01*
X207011810Y-37384652D01*
X207013564Y-37384883D01*
X207024562Y-37392232D01*
X207043499Y-37395999D01*
X207805101Y-37395999D01*
X207824037Y-37392232D01*
X207839920Y-37381619D01*
X207850533Y-37365736D01*
X207854300Y-37346800D01*
X207854300Y-37093198D01*
X207850533Y-37074261D01*
X207839920Y-37058378D01*
X207824037Y-37047765D01*
X207805101Y-37043999D01*
X207043499Y-37043999D01*
X207024562Y-37047765D01*
X207013566Y-37055113D01*
X207011812Y-37055344D01*
X207010561Y-37054093D01*
X207010792Y-37052339D01*
X207020041Y-37038497D01*
X207038477Y-36993986D01*
X207038477Y-36946011D01*
X207020040Y-36901499D01*
X207010792Y-36887659D01*
X207010561Y-36885905D01*
X207011812Y-36884654D01*
X207013566Y-36884885D01*
X207024562Y-36892233D01*
X207043499Y-36896000D01*
X207805101Y-36896000D01*
X207824037Y-36892233D01*
X207839920Y-36881620D01*
X207850533Y-36865737D01*
X207854300Y-36846801D01*
X207854300Y-36593199D01*
X207850533Y-36574262D01*
X207839920Y-36558379D01*
X207824037Y-36547766D01*
X207805101Y-36544000D01*
X207043499Y-36544000D01*
X207024562Y-36547766D01*
X207013566Y-36555114D01*
X207011812Y-36555345D01*
X207010561Y-36554094D01*
X207010792Y-36552340D01*
X207020041Y-36538498D01*
X207038477Y-36493987D01*
X207038477Y-36446012D01*
X207020040Y-36401500D01*
X207010792Y-36387660D01*
X207010561Y-36385906D01*
X207011812Y-36384655D01*
X207013566Y-36384886D01*
X207024562Y-36392234D01*
X207043499Y-36396001D01*
X207805101Y-36396001D01*
X207824037Y-36392234D01*
X207839920Y-36381621D01*
X207850533Y-36365738D01*
X207854300Y-36346802D01*
X207854300Y-36093200D01*
X207850533Y-36074263D01*
X207839920Y-36058380D01*
X207824037Y-36047767D01*
X207805101Y-36044001D01*
X207043499Y-36044001D01*
X207024562Y-36047767D01*
X207013564Y-36055116D01*
X207011810Y-36055347D01*
X207010559Y-36054096D01*
X207010790Y-36052342D01*
X207020041Y-36038498D01*
X207038478Y-35993988D01*
X207038478Y-35946012D01*
X207020041Y-35901501D01*
X207010790Y-35887657D01*
X207010559Y-35885903D01*
X207011810Y-35884652D01*
X207013564Y-35884883D01*
X207024562Y-35892232D01*
X207043499Y-35895999D01*
X207805101Y-35895999D01*
X207824037Y-35892232D01*
X207839920Y-35881619D01*
X207850533Y-35865736D01*
X207854300Y-35846800D01*
X207854300Y-35593198D01*
X207850533Y-35574261D01*
X207839920Y-35558378D01*
X207824037Y-35547765D01*
X207805101Y-35543999D01*
X207043499Y-35543999D01*
X207024562Y-35547765D01*
X207013566Y-35555113D01*
X207011812Y-35555344D01*
X207010561Y-35554093D01*
X207010792Y-35552339D01*
X207020041Y-35538497D01*
X207038477Y-35493986D01*
X207038477Y-35446011D01*
X207020040Y-35401499D01*
X207010792Y-35387659D01*
X207010561Y-35385905D01*
X207011812Y-35384654D01*
X207013566Y-35384885D01*
X207024562Y-35392233D01*
X207043499Y-35396000D01*
X207805101Y-35396000D01*
X207824037Y-35392233D01*
X207839920Y-35381620D01*
X207850533Y-35365737D01*
X207854300Y-35346801D01*
X207854300Y-35093199D01*
X207850533Y-35074262D01*
X207839920Y-35058379D01*
X207824037Y-35047766D01*
X207805101Y-35044000D01*
X207769001Y-35044000D01*
X207767363Y-35043147D01*
X207767122Y-35041316D01*
X207768483Y-35040068D01*
X207830466Y-35023459D01*
X207875459Y-34978465D01*
X207892068Y-34916483D01*
X207893316Y-34915122D01*
X207895147Y-34915363D01*
G37*
G36*
X211807932Y-34916487D02*
G01*
X211824539Y-34978466D01*
X211869533Y-35023459D01*
X211931516Y-35040068D01*
X211932877Y-35041316D01*
X211932636Y-35043147D01*
X211930998Y-35044000D01*
X211894899Y-35044000D01*
X211875962Y-35047766D01*
X211860079Y-35058379D01*
X211849466Y-35074262D01*
X211845700Y-35093199D01*
X211845700Y-35346801D01*
X211849466Y-35365737D01*
X211860079Y-35381620D01*
X211875962Y-35392233D01*
X211894899Y-35396000D01*
X212656501Y-35396000D01*
X212675437Y-35392233D01*
X212686431Y-35384886D01*
X212688185Y-35384655D01*
X212689436Y-35385906D01*
X212689205Y-35387660D01*
X212679959Y-35401498D01*
X212661522Y-35446010D01*
X212661522Y-35493987D01*
X212679958Y-35538498D01*
X212689206Y-35552338D01*
X212689437Y-35554092D01*
X212688186Y-35555343D01*
X212686432Y-35555112D01*
X212675437Y-35547765D01*
X212656501Y-35543999D01*
X211894899Y-35543999D01*
X211875962Y-35547765D01*
X211860079Y-35558378D01*
X211849466Y-35574261D01*
X211845700Y-35593198D01*
X211845700Y-35846800D01*
X211849466Y-35865736D01*
X211860079Y-35881619D01*
X211875962Y-35892232D01*
X211894899Y-35895999D01*
X212656501Y-35895999D01*
X212675437Y-35892232D01*
X212686433Y-35884884D01*
X212688187Y-35884653D01*
X212689438Y-35885904D01*
X212689207Y-35887658D01*
X212679958Y-35901500D01*
X212661521Y-35946012D01*
X212661521Y-35993988D01*
X212679958Y-36038499D01*
X212689208Y-36052342D01*
X212689439Y-36054096D01*
X212688188Y-36055347D01*
X212686434Y-36055116D01*
X212675437Y-36047767D01*
X212656501Y-36044001D01*
X211894899Y-36044001D01*
X211875962Y-36047767D01*
X211860079Y-36058380D01*
X211849466Y-36074263D01*
X211845700Y-36093200D01*
X211845700Y-36346802D01*
X211849466Y-36365738D01*
X211860079Y-36381621D01*
X211875962Y-36392234D01*
X211894899Y-36396001D01*
X212656501Y-36396001D01*
X212675437Y-36392234D01*
X212686431Y-36384887D01*
X212688185Y-36384656D01*
X212689436Y-36385907D01*
X212689205Y-36387661D01*
X212679959Y-36401499D01*
X212661522Y-36446011D01*
X212661522Y-36493988D01*
X212679958Y-36538499D01*
X212689206Y-36552339D01*
X212689437Y-36554093D01*
X212688186Y-36555344D01*
X212686432Y-36555113D01*
X212675437Y-36547766D01*
X212656501Y-36544000D01*
X211894899Y-36544000D01*
X211875962Y-36547766D01*
X211860079Y-36558379D01*
X211849466Y-36574262D01*
X211845700Y-36593199D01*
X211845700Y-36846801D01*
X211849466Y-36865737D01*
X211860079Y-36881620D01*
X211875962Y-36892233D01*
X211894899Y-36896000D01*
X212656501Y-36896000D01*
X212675437Y-36892233D01*
X212686431Y-36884886D01*
X212688185Y-36884655D01*
X212689436Y-36885906D01*
X212689205Y-36887660D01*
X212679959Y-36901498D01*
X212661522Y-36946010D01*
X212661522Y-36993987D01*
X212679958Y-37038498D01*
X212689206Y-37052338D01*
X212689437Y-37054092D01*
X212688186Y-37055343D01*
X212686432Y-37055112D01*
X212675437Y-37047765D01*
X212656501Y-37043999D01*
X211894899Y-37043999D01*
X211875962Y-37047765D01*
X211860079Y-37058378D01*
X211849466Y-37074261D01*
X211845700Y-37093198D01*
X211845700Y-37346800D01*
X211849466Y-37365736D01*
X211860079Y-37381619D01*
X211875962Y-37392232D01*
X211894899Y-37395999D01*
X212656501Y-37395999D01*
X212675437Y-37392232D01*
X212686433Y-37384884D01*
X212688187Y-37384653D01*
X212689438Y-37385904D01*
X212689207Y-37387658D01*
X212679958Y-37401500D01*
X212661521Y-37446012D01*
X212661521Y-37493988D01*
X212679958Y-37538499D01*
X212689208Y-37552342D01*
X212689439Y-37554096D01*
X212688188Y-37555347D01*
X212686434Y-37555116D01*
X212675437Y-37547767D01*
X212656501Y-37544001D01*
X211894899Y-37544001D01*
X211875962Y-37547767D01*
X211860079Y-37558380D01*
X211849466Y-37574263D01*
X211845700Y-37593200D01*
X211845700Y-37846802D01*
X211849466Y-37865738D01*
X211860079Y-37881621D01*
X211875962Y-37892234D01*
X211894899Y-37896001D01*
X212656501Y-37896001D01*
X212675437Y-37892234D01*
X212686431Y-37884887D01*
X212688185Y-37884656D01*
X212689436Y-37885907D01*
X212689205Y-37887661D01*
X212679959Y-37901499D01*
X212661522Y-37946011D01*
X212661522Y-37993988D01*
X212679958Y-38038499D01*
X212689206Y-38052339D01*
X212689437Y-38054093D01*
X212688186Y-38055344D01*
X212686432Y-38055113D01*
X212675437Y-38047766D01*
X212656501Y-38044000D01*
X211894899Y-38044000D01*
X211875962Y-38047766D01*
X211860079Y-38058379D01*
X211849466Y-38074262D01*
X211845700Y-38093199D01*
X211845700Y-38346801D01*
X211849466Y-38365737D01*
X211860079Y-38381620D01*
X211875962Y-38392233D01*
X211894899Y-38396000D01*
X211930994Y-38396000D01*
X211932632Y-38396853D01*
X211932873Y-38398684D01*
X211931512Y-38399932D01*
X211869532Y-38416539D01*
X211824538Y-38461533D01*
X211807932Y-38523513D01*
X211806684Y-38524874D01*
X211804853Y-38524633D01*
X211804000Y-38522995D01*
X211804000Y-34917005D01*
X211804853Y-34915367D01*
X211806684Y-34915126D01*
X211807932Y-34916487D01*
G37*
G36*
X158317231Y-37915916D02*
G01*
X158352561Y-37939524D01*
X158400199Y-37949000D01*
X159724801Y-37949000D01*
X159772438Y-37939524D01*
X159807765Y-37915919D01*
X159809519Y-37915688D01*
X159810770Y-37916939D01*
X159810539Y-37918693D01*
X159801981Y-37931500D01*
X159783545Y-37976012D01*
X159783545Y-38023988D01*
X159801981Y-38068499D01*
X159810539Y-38081307D01*
X159810770Y-38083061D01*
X159809519Y-38084312D01*
X159807765Y-38084081D01*
X159772438Y-38060475D01*
X159724801Y-38051000D01*
X158400199Y-38051000D01*
X158352561Y-38060475D01*
X158317231Y-38084083D01*
X158315477Y-38084314D01*
X158314226Y-38083063D01*
X158314457Y-38081309D01*
X158323017Y-38068498D01*
X158341454Y-38023988D01*
X158341454Y-37976012D01*
X158323017Y-37931501D01*
X158314457Y-37918690D01*
X158314226Y-37916936D01*
X158315477Y-37915685D01*
X158317231Y-37915916D01*
G37*
G36*
X149992231Y-37915916D02*
G01*
X150027561Y-37939524D01*
X150075199Y-37949000D01*
X151399801Y-37949000D01*
X151447438Y-37939524D01*
X151482765Y-37915919D01*
X151484519Y-37915688D01*
X151485770Y-37916939D01*
X151485539Y-37918693D01*
X151476981Y-37931500D01*
X151458545Y-37976012D01*
X151458545Y-38023988D01*
X151476981Y-38068499D01*
X151485539Y-38081307D01*
X151485770Y-38083061D01*
X151484519Y-38084312D01*
X151482765Y-38084081D01*
X151447438Y-38060475D01*
X151399801Y-38051000D01*
X150075199Y-38051000D01*
X150027561Y-38060475D01*
X149992231Y-38084083D01*
X149990477Y-38084314D01*
X149989226Y-38083063D01*
X149989457Y-38081309D01*
X149998017Y-38068498D01*
X150016454Y-38023988D01*
X150016454Y-37976012D01*
X149998017Y-37931501D01*
X149989457Y-37918690D01*
X149989226Y-37916936D01*
X149990477Y-37915685D01*
X149992231Y-37915916D01*
G37*
G36*
X158317231Y-37415916D02*
G01*
X158352561Y-37439524D01*
X158400199Y-37449000D01*
X159724801Y-37449000D01*
X159772438Y-37439524D01*
X159807765Y-37415919D01*
X159809519Y-37415688D01*
X159810770Y-37416939D01*
X159810539Y-37418693D01*
X159801981Y-37431500D01*
X159783545Y-37476012D01*
X159783545Y-37523988D01*
X159801981Y-37568499D01*
X159810539Y-37581307D01*
X159810770Y-37583061D01*
X159809519Y-37584312D01*
X159807765Y-37584081D01*
X159772438Y-37560475D01*
X159724801Y-37551000D01*
X158400199Y-37551000D01*
X158352561Y-37560475D01*
X158317231Y-37584083D01*
X158315477Y-37584314D01*
X158314226Y-37583063D01*
X158314457Y-37581309D01*
X158323017Y-37568498D01*
X158341454Y-37523988D01*
X158341454Y-37476012D01*
X158323017Y-37431501D01*
X158314457Y-37418690D01*
X158314226Y-37416936D01*
X158315477Y-37415685D01*
X158317231Y-37415916D01*
G37*
G36*
X149992231Y-37415916D02*
G01*
X150027561Y-37439524D01*
X150075199Y-37449000D01*
X151399801Y-37449000D01*
X151447438Y-37439524D01*
X151482765Y-37415919D01*
X151484519Y-37415688D01*
X151485770Y-37416939D01*
X151485539Y-37418693D01*
X151476981Y-37431500D01*
X151458545Y-37476012D01*
X151458545Y-37523988D01*
X151476981Y-37568499D01*
X151485539Y-37581307D01*
X151485770Y-37583061D01*
X151484519Y-37584312D01*
X151482765Y-37584081D01*
X151447438Y-37560475D01*
X151399801Y-37551000D01*
X150075199Y-37551000D01*
X150027561Y-37560475D01*
X149992231Y-37584083D01*
X149990477Y-37584314D01*
X149989226Y-37583063D01*
X149989457Y-37581309D01*
X149998017Y-37568498D01*
X150016454Y-37523988D01*
X150016454Y-37476012D01*
X149998017Y-37431501D01*
X149989457Y-37418690D01*
X149989226Y-37416936D01*
X149990477Y-37415685D01*
X149992231Y-37415916D01*
G37*
G36*
X158317233Y-36915918D02*
G01*
X158352561Y-36939524D01*
X158400199Y-36949000D01*
X159724801Y-36949000D01*
X159772438Y-36939524D01*
X159807764Y-36915919D01*
X159809518Y-36915688D01*
X159810769Y-36916939D01*
X159810538Y-36918693D01*
X159801982Y-36931498D01*
X159783545Y-36976010D01*
X159783545Y-37023986D01*
X159801981Y-37068497D01*
X159810542Y-37081308D01*
X159810773Y-37083062D01*
X159809522Y-37084313D01*
X159807768Y-37084082D01*
X159772438Y-37060475D01*
X159724801Y-37051000D01*
X158400199Y-37051000D01*
X158352561Y-37060475D01*
X158317230Y-37084083D01*
X158315476Y-37084314D01*
X158314225Y-37083063D01*
X158314456Y-37081309D01*
X158323018Y-37068496D01*
X158341454Y-37023986D01*
X158341454Y-36976010D01*
X158323017Y-36931499D01*
X158314459Y-36918692D01*
X158314228Y-36916938D01*
X158315479Y-36915687D01*
X158317233Y-36915918D01*
G37*
G36*
X149992233Y-36915918D02*
G01*
X150027561Y-36939524D01*
X150075199Y-36949000D01*
X151399801Y-36949000D01*
X151447438Y-36939524D01*
X151482765Y-36915919D01*
X151484519Y-36915688D01*
X151485770Y-36916939D01*
X151485539Y-36918693D01*
X151476981Y-36931500D01*
X151458545Y-36976012D01*
X151458545Y-37023988D01*
X151476981Y-37068499D01*
X151485539Y-37081307D01*
X151485770Y-37083061D01*
X151484519Y-37084312D01*
X151482765Y-37084081D01*
X151447438Y-37060475D01*
X151399801Y-37051000D01*
X150075199Y-37051000D01*
X150027561Y-37060475D01*
X149992230Y-37084083D01*
X149990476Y-37084314D01*
X149989225Y-37083063D01*
X149989456Y-37081309D01*
X149998018Y-37068496D01*
X150016454Y-37023986D01*
X150016454Y-36976010D01*
X149998017Y-36931499D01*
X149989459Y-36918692D01*
X149989228Y-36916938D01*
X149990479Y-36915687D01*
X149992233Y-36915918D01*
G37*
G36*
X158317231Y-36415916D02*
G01*
X158352561Y-36439524D01*
X158400199Y-36449000D01*
X159724801Y-36449000D01*
X159772438Y-36439524D01*
X159807765Y-36415919D01*
X159809519Y-36415688D01*
X159810770Y-36416939D01*
X159810539Y-36418693D01*
X159801981Y-36431500D01*
X159783545Y-36476012D01*
X159783545Y-36523988D01*
X159801981Y-36568499D01*
X159810539Y-36581307D01*
X159810770Y-36583061D01*
X159809519Y-36584312D01*
X159807765Y-36584081D01*
X159772438Y-36560475D01*
X159724801Y-36551000D01*
X158400199Y-36551000D01*
X158352561Y-36560475D01*
X158317231Y-36584083D01*
X158315477Y-36584314D01*
X158314226Y-36583063D01*
X158314457Y-36581309D01*
X158323017Y-36568498D01*
X158341454Y-36523988D01*
X158341454Y-36476012D01*
X158323017Y-36431501D01*
X158314457Y-36418690D01*
X158314226Y-36416936D01*
X158315477Y-36415685D01*
X158317231Y-36415916D01*
G37*
G36*
X149992231Y-36415916D02*
G01*
X150027561Y-36439524D01*
X150075199Y-36449000D01*
X151399801Y-36449000D01*
X151447438Y-36439524D01*
X151482765Y-36415919D01*
X151484519Y-36415688D01*
X151485770Y-36416939D01*
X151485539Y-36418693D01*
X151476981Y-36431500D01*
X151458545Y-36476012D01*
X151458545Y-36523988D01*
X151476981Y-36568499D01*
X151485539Y-36581307D01*
X151485770Y-36583061D01*
X151484519Y-36584312D01*
X151482765Y-36584081D01*
X151447438Y-36560475D01*
X151399801Y-36551000D01*
X150075199Y-36551000D01*
X150027561Y-36560475D01*
X149992231Y-36584083D01*
X149990477Y-36584314D01*
X149989226Y-36583063D01*
X149989457Y-36581309D01*
X149998017Y-36568498D01*
X150016454Y-36523988D01*
X150016454Y-36476012D01*
X149998017Y-36431501D01*
X149989457Y-36418690D01*
X149989226Y-36416936D01*
X149990477Y-36415685D01*
X149992231Y-36415916D01*
G37*
G36*
X158317231Y-35915916D02*
G01*
X158352561Y-35939524D01*
X158400199Y-35949000D01*
X159724801Y-35949000D01*
X159772438Y-35939524D01*
X159807765Y-35915919D01*
X159809519Y-35915688D01*
X159810770Y-35916939D01*
X159810539Y-35918693D01*
X159801981Y-35931500D01*
X159783545Y-35976012D01*
X159783545Y-36023988D01*
X159801981Y-36068499D01*
X159810539Y-36081307D01*
X159810770Y-36083061D01*
X159809519Y-36084312D01*
X159807765Y-36084081D01*
X159772438Y-36060475D01*
X159724801Y-36051000D01*
X158400199Y-36051000D01*
X158352561Y-36060475D01*
X158317231Y-36084083D01*
X158315477Y-36084314D01*
X158314226Y-36083063D01*
X158314457Y-36081309D01*
X158323017Y-36068498D01*
X158341454Y-36023988D01*
X158341454Y-35976012D01*
X158323017Y-35931501D01*
X158314457Y-35918690D01*
X158314226Y-35916936D01*
X158315477Y-35915685D01*
X158317231Y-35915916D01*
G37*
G36*
X149992231Y-35915916D02*
G01*
X150027561Y-35939524D01*
X150075199Y-35949000D01*
X151399801Y-35949000D01*
X151447438Y-35939524D01*
X151482765Y-35915919D01*
X151484519Y-35915688D01*
X151485770Y-35916939D01*
X151485539Y-35918693D01*
X151476981Y-35931500D01*
X151458545Y-35976012D01*
X151458545Y-36023988D01*
X151476981Y-36068499D01*
X151485539Y-36081307D01*
X151485770Y-36083061D01*
X151484519Y-36084312D01*
X151482765Y-36084081D01*
X151447438Y-36060475D01*
X151399801Y-36051000D01*
X150075199Y-36051000D01*
X150027561Y-36060475D01*
X149992231Y-36084083D01*
X149990477Y-36084314D01*
X149989226Y-36083063D01*
X149989457Y-36081309D01*
X149998017Y-36068498D01*
X150016454Y-36023988D01*
X150016454Y-35976012D01*
X149998017Y-35931501D01*
X149989457Y-35918690D01*
X149989226Y-35916936D01*
X149990477Y-35915685D01*
X149992231Y-35915916D01*
G37*
G36*
X157484314Y-33590477D02*
G01*
X157484083Y-33592231D01*
X157460475Y-33627561D01*
X157451000Y-33675199D01*
X157451000Y-34999801D01*
X157460475Y-35047438D01*
X157484081Y-35082765D01*
X157484312Y-35084519D01*
X157483061Y-35085770D01*
X157481307Y-35085539D01*
X157468499Y-35076981D01*
X157423988Y-35058545D01*
X157376012Y-35058545D01*
X157331500Y-35076981D01*
X157318693Y-35085539D01*
X157316939Y-35085770D01*
X157315688Y-35084519D01*
X157315919Y-35082765D01*
X157339524Y-35047438D01*
X157349000Y-34999801D01*
X157349000Y-33675199D01*
X157339524Y-33627561D01*
X157315916Y-33592231D01*
X157315685Y-33590477D01*
X157316936Y-33589226D01*
X157318690Y-33589457D01*
X157331501Y-33598017D01*
X157376012Y-33616454D01*
X157423988Y-33616454D01*
X157468498Y-33598017D01*
X157481309Y-33589457D01*
X157483063Y-33589226D01*
X157484314Y-33590477D01*
G37*
G36*
X156984314Y-33590477D02*
G01*
X156984083Y-33592231D01*
X156960475Y-33627561D01*
X156951000Y-33675199D01*
X156951000Y-34999801D01*
X156960475Y-35047438D01*
X156984081Y-35082765D01*
X156984312Y-35084519D01*
X156983061Y-35085770D01*
X156981307Y-35085539D01*
X156968499Y-35076981D01*
X156923988Y-35058545D01*
X156876012Y-35058545D01*
X156831500Y-35076981D01*
X156818693Y-35085539D01*
X156816939Y-35085770D01*
X156815688Y-35084519D01*
X156815919Y-35082765D01*
X156839524Y-35047438D01*
X156849000Y-34999801D01*
X156849000Y-33675199D01*
X156839524Y-33627561D01*
X156815916Y-33592231D01*
X156815685Y-33590477D01*
X156816936Y-33589226D01*
X156818690Y-33589457D01*
X156831501Y-33598017D01*
X156876012Y-33616454D01*
X156923988Y-33616454D01*
X156968498Y-33598017D01*
X156981309Y-33589457D01*
X156983063Y-33589226D01*
X156984314Y-33590477D01*
G37*
G36*
X156484314Y-33590477D02*
G01*
X156484083Y-33592231D01*
X156460475Y-33627561D01*
X156451000Y-33675199D01*
X156451000Y-34999801D01*
X156460475Y-35047438D01*
X156484081Y-35082765D01*
X156484312Y-35084519D01*
X156483061Y-35085770D01*
X156481307Y-35085539D01*
X156468499Y-35076981D01*
X156423988Y-35058545D01*
X156376012Y-35058545D01*
X156331500Y-35076981D01*
X156318693Y-35085539D01*
X156316939Y-35085770D01*
X156315688Y-35084519D01*
X156315919Y-35082765D01*
X156339524Y-35047438D01*
X156349000Y-34999801D01*
X156349000Y-33675199D01*
X156339524Y-33627561D01*
X156315916Y-33592231D01*
X156315685Y-33590477D01*
X156316936Y-33589226D01*
X156318690Y-33589457D01*
X156331501Y-33598017D01*
X156376012Y-33616454D01*
X156423988Y-33616454D01*
X156468498Y-33598017D01*
X156481309Y-33589457D01*
X156483063Y-33589226D01*
X156484314Y-33590477D01*
G37*
G36*
X155984314Y-33590477D02*
G01*
X155984083Y-33592231D01*
X155960475Y-33627561D01*
X155951000Y-33675199D01*
X155951000Y-34999801D01*
X155960475Y-35047438D01*
X155984081Y-35082765D01*
X155984312Y-35084519D01*
X155983061Y-35085770D01*
X155981307Y-35085539D01*
X155968499Y-35076981D01*
X155923988Y-35058545D01*
X155876012Y-35058545D01*
X155831500Y-35076981D01*
X155818693Y-35085539D01*
X155816939Y-35085770D01*
X155815688Y-35084519D01*
X155815919Y-35082765D01*
X155839524Y-35047438D01*
X155849000Y-34999801D01*
X155849000Y-33675199D01*
X155839524Y-33627561D01*
X155815916Y-33592231D01*
X155815685Y-33590477D01*
X155816936Y-33589226D01*
X155818690Y-33589457D01*
X155831501Y-33598017D01*
X155876012Y-33616454D01*
X155923988Y-33616454D01*
X155968498Y-33598017D01*
X155981309Y-33589457D01*
X155983063Y-33589226D01*
X155984314Y-33590477D01*
G37*
G36*
X155484314Y-33590477D02*
G01*
X155484083Y-33592231D01*
X155460475Y-33627561D01*
X155451000Y-33675199D01*
X155451000Y-34999801D01*
X155460475Y-35047438D01*
X155484081Y-35082765D01*
X155484312Y-35084519D01*
X155483061Y-35085770D01*
X155481307Y-35085539D01*
X155468499Y-35076981D01*
X155423988Y-35058545D01*
X155376012Y-35058545D01*
X155331500Y-35076981D01*
X155318693Y-35085539D01*
X155316939Y-35085770D01*
X155315688Y-35084519D01*
X155315919Y-35082765D01*
X155339524Y-35047438D01*
X155349000Y-34999801D01*
X155349000Y-33675199D01*
X155339524Y-33627561D01*
X155315916Y-33592231D01*
X155315685Y-33590477D01*
X155316936Y-33589226D01*
X155318690Y-33589457D01*
X155331501Y-33598017D01*
X155376012Y-33616454D01*
X155423988Y-33616454D01*
X155468498Y-33598017D01*
X155481309Y-33589457D01*
X155483063Y-33589226D01*
X155484314Y-33590477D01*
G37*
G36*
X154984314Y-33590477D02*
G01*
X154984083Y-33592231D01*
X154960475Y-33627561D01*
X154951000Y-33675199D01*
X154951000Y-34999801D01*
X154960475Y-35047438D01*
X154984081Y-35082765D01*
X154984312Y-35084519D01*
X154983061Y-35085770D01*
X154981307Y-35085539D01*
X154968499Y-35076981D01*
X154923988Y-35058545D01*
X154876012Y-35058545D01*
X154831500Y-35076981D01*
X154818693Y-35085539D01*
X154816939Y-35085770D01*
X154815688Y-35084519D01*
X154815919Y-35082765D01*
X154839524Y-35047438D01*
X154849000Y-34999801D01*
X154849000Y-33675199D01*
X154839524Y-33627561D01*
X154815916Y-33592231D01*
X154815685Y-33590477D01*
X154816936Y-33589226D01*
X154818690Y-33589457D01*
X154831501Y-33598017D01*
X154876012Y-33616454D01*
X154923988Y-33616454D01*
X154968498Y-33598017D01*
X154981309Y-33589457D01*
X154983063Y-33589226D01*
X154984314Y-33590477D01*
G37*
G36*
X154484314Y-33590477D02*
G01*
X154484083Y-33592231D01*
X154460475Y-33627561D01*
X154451000Y-33675199D01*
X154451000Y-34999801D01*
X154460475Y-35047438D01*
X154484081Y-35082765D01*
X154484312Y-35084519D01*
X154483061Y-35085770D01*
X154481307Y-35085539D01*
X154468499Y-35076981D01*
X154423988Y-35058545D01*
X154376012Y-35058545D01*
X154331500Y-35076981D01*
X154318693Y-35085539D01*
X154316939Y-35085770D01*
X154315688Y-35084519D01*
X154315919Y-35082765D01*
X154339524Y-35047438D01*
X154349000Y-34999801D01*
X154349000Y-33675199D01*
X154339524Y-33627561D01*
X154315916Y-33592231D01*
X154315685Y-33590477D01*
X154316936Y-33589226D01*
X154318690Y-33589457D01*
X154331501Y-33598017D01*
X154376012Y-33616454D01*
X154423988Y-33616454D01*
X154468498Y-33598017D01*
X154481309Y-33589457D01*
X154483063Y-33589226D01*
X154484314Y-33590477D01*
G37*
G36*
X153984314Y-33590477D02*
G01*
X153984083Y-33592231D01*
X153960475Y-33627561D01*
X153951000Y-33675199D01*
X153951000Y-34999801D01*
X153960475Y-35047438D01*
X153984081Y-35082765D01*
X153984312Y-35084519D01*
X153983061Y-35085770D01*
X153981307Y-35085539D01*
X153968499Y-35076981D01*
X153923988Y-35058545D01*
X153876012Y-35058545D01*
X153831500Y-35076981D01*
X153818693Y-35085539D01*
X153816939Y-35085770D01*
X153815688Y-35084519D01*
X153815919Y-35082765D01*
X153839524Y-35047438D01*
X153849000Y-34999801D01*
X153849000Y-33675199D01*
X153839524Y-33627561D01*
X153815916Y-33592231D01*
X153815685Y-33590477D01*
X153816936Y-33589226D01*
X153818690Y-33589457D01*
X153831501Y-33598017D01*
X153876012Y-33616454D01*
X153923988Y-33616454D01*
X153968498Y-33598017D01*
X153981309Y-33589457D01*
X153983063Y-33589226D01*
X153984314Y-33590477D01*
G37*
G36*
X153484314Y-33590477D02*
G01*
X153484083Y-33592231D01*
X153460475Y-33627561D01*
X153451000Y-33675199D01*
X153451000Y-34999801D01*
X153460475Y-35047438D01*
X153484081Y-35082765D01*
X153484312Y-35084519D01*
X153483061Y-35085770D01*
X153481307Y-35085539D01*
X153468499Y-35076981D01*
X153423988Y-35058545D01*
X153376012Y-35058545D01*
X153331500Y-35076981D01*
X153318693Y-35085539D01*
X153316939Y-35085770D01*
X153315688Y-35084519D01*
X153315919Y-35082765D01*
X153339524Y-35047438D01*
X153349000Y-34999801D01*
X153349000Y-33675199D01*
X153339524Y-33627561D01*
X153315916Y-33592231D01*
X153315685Y-33590477D01*
X153316936Y-33589226D01*
X153318690Y-33589457D01*
X153331501Y-33598017D01*
X153376012Y-33616454D01*
X153423988Y-33616454D01*
X153468498Y-33598017D01*
X153481309Y-33589457D01*
X153483063Y-33589226D01*
X153484314Y-33590477D01*
G37*
G36*
X152984314Y-33590477D02*
G01*
X152984083Y-33592231D01*
X152960475Y-33627561D01*
X152951000Y-33675199D01*
X152951000Y-34999801D01*
X152960475Y-35047438D01*
X152984081Y-35082765D01*
X152984312Y-35084519D01*
X152983061Y-35085770D01*
X152981307Y-35085539D01*
X152968499Y-35076981D01*
X152923988Y-35058545D01*
X152876012Y-35058545D01*
X152831500Y-35076981D01*
X152818693Y-35085539D01*
X152816939Y-35085770D01*
X152815688Y-35084519D01*
X152815919Y-35082765D01*
X152839524Y-35047438D01*
X152849000Y-34999801D01*
X152849000Y-33675199D01*
X152839524Y-33627561D01*
X152815916Y-33592231D01*
X152815685Y-33590477D01*
X152816936Y-33589226D01*
X152818690Y-33589457D01*
X152831501Y-33598017D01*
X152876012Y-33616454D01*
X152923988Y-33616454D01*
X152968498Y-33598017D01*
X152981309Y-33589457D01*
X152983063Y-33589226D01*
X152984314Y-33590477D01*
G37*
G36*
X152484314Y-33590477D02*
G01*
X152484083Y-33592231D01*
X152460475Y-33627561D01*
X152451000Y-33675199D01*
X152451000Y-34999801D01*
X152460475Y-35047438D01*
X152484081Y-35082765D01*
X152484312Y-35084519D01*
X152483061Y-35085770D01*
X152481307Y-35085539D01*
X152468499Y-35076981D01*
X152423988Y-35058545D01*
X152376012Y-35058545D01*
X152331500Y-35076981D01*
X152318693Y-35085539D01*
X152316939Y-35085770D01*
X152315688Y-35084519D01*
X152315919Y-35082765D01*
X152339524Y-35047438D01*
X152349000Y-34999801D01*
X152349000Y-33675199D01*
X152339524Y-33627561D01*
X152315916Y-33592231D01*
X152315685Y-33590477D01*
X152316936Y-33589226D01*
X152318690Y-33589457D01*
X152331501Y-33598017D01*
X152376012Y-33616454D01*
X152423988Y-33616454D01*
X152468498Y-33598017D01*
X152481309Y-33589457D01*
X152483063Y-33589226D01*
X152484314Y-33590477D01*
G37*
G36*
X210685348Y-33881810D02*
G01*
X210685117Y-33883564D01*
X210677767Y-33894562D01*
X210674001Y-33913499D01*
X210674001Y-34675101D01*
X210677767Y-34694037D01*
X210688380Y-34709920D01*
X210704263Y-34720533D01*
X210723200Y-34724300D01*
X210976802Y-34724300D01*
X210995738Y-34720533D01*
X211011621Y-34709920D01*
X211022234Y-34694037D01*
X211026001Y-34675101D01*
X211026001Y-33913499D01*
X211022234Y-33894562D01*
X211014886Y-33883566D01*
X211014655Y-33881812D01*
X211015906Y-33880561D01*
X211017660Y-33880792D01*
X211031500Y-33890040D01*
X211076012Y-33908477D01*
X211123987Y-33908477D01*
X211168498Y-33890041D01*
X211182340Y-33880791D01*
X211184094Y-33880560D01*
X211185345Y-33881811D01*
X211185114Y-33883565D01*
X211177766Y-33894562D01*
X211174000Y-33913499D01*
X211174000Y-34675101D01*
X211177766Y-34694037D01*
X211188379Y-34709920D01*
X211204262Y-34720533D01*
X211223199Y-34724300D01*
X211476801Y-34724300D01*
X211495737Y-34720533D01*
X211511620Y-34709920D01*
X211522233Y-34694037D01*
X211526000Y-34675101D01*
X211526000Y-34639005D01*
X211526853Y-34637367D01*
X211528684Y-34637126D01*
X211529932Y-34638487D01*
X211546539Y-34700466D01*
X211591533Y-34745459D01*
X211653516Y-34762068D01*
X211654877Y-34763316D01*
X211654636Y-34765147D01*
X211652998Y-34766000D01*
X208047002Y-34766000D01*
X208045364Y-34765147D01*
X208045123Y-34763316D01*
X208046484Y-34762068D01*
X208108466Y-34745459D01*
X208153460Y-34700465D01*
X208170068Y-34638483D01*
X208171316Y-34637122D01*
X208173147Y-34637363D01*
X208174000Y-34639001D01*
X208174000Y-34675101D01*
X208177766Y-34694037D01*
X208188379Y-34709920D01*
X208204262Y-34720533D01*
X208223199Y-34724300D01*
X208476801Y-34724300D01*
X208495737Y-34720533D01*
X208511620Y-34709920D01*
X208522233Y-34694037D01*
X208526000Y-34675101D01*
X208526000Y-33913499D01*
X208522233Y-33894562D01*
X208514885Y-33883566D01*
X208514654Y-33881812D01*
X208515905Y-33880561D01*
X208517659Y-33880792D01*
X208531499Y-33890040D01*
X208576011Y-33908477D01*
X208623986Y-33908477D01*
X208668497Y-33890041D01*
X208682339Y-33880791D01*
X208684093Y-33880560D01*
X208685344Y-33881811D01*
X208685113Y-33883565D01*
X208677765Y-33894562D01*
X208673999Y-33913499D01*
X208673999Y-34675101D01*
X208677765Y-34694037D01*
X208688378Y-34709920D01*
X208704261Y-34720533D01*
X208723198Y-34724300D01*
X208976800Y-34724300D01*
X208995736Y-34720533D01*
X209011619Y-34709920D01*
X209022232Y-34694037D01*
X209025999Y-34675101D01*
X209025999Y-33913499D01*
X209022232Y-33894562D01*
X209014883Y-33883564D01*
X209014652Y-33881810D01*
X209015903Y-33880559D01*
X209017657Y-33880790D01*
X209031501Y-33890041D01*
X209076012Y-33908478D01*
X209123988Y-33908478D01*
X209168498Y-33890041D01*
X209182343Y-33880790D01*
X209184097Y-33880559D01*
X209185348Y-33881810D01*
X209185117Y-33883564D01*
X209177767Y-33894562D01*
X209174001Y-33913499D01*
X209174001Y-34675101D01*
X209177767Y-34694037D01*
X209188380Y-34709920D01*
X209204263Y-34720533D01*
X209223200Y-34724300D01*
X209476802Y-34724300D01*
X209495738Y-34720533D01*
X209511621Y-34709920D01*
X209522234Y-34694037D01*
X209526001Y-34675101D01*
X209526001Y-33913499D01*
X209522234Y-33894562D01*
X209514886Y-33883566D01*
X209514655Y-33881812D01*
X209515906Y-33880561D01*
X209517660Y-33880792D01*
X209531500Y-33890040D01*
X209576012Y-33908477D01*
X209623987Y-33908477D01*
X209668498Y-33890041D01*
X209682340Y-33880791D01*
X209684094Y-33880560D01*
X209685345Y-33881811D01*
X209685114Y-33883565D01*
X209677766Y-33894562D01*
X209674000Y-33913499D01*
X209674000Y-34675101D01*
X209677766Y-34694037D01*
X209688379Y-34709920D01*
X209704262Y-34720533D01*
X209723199Y-34724300D01*
X209976801Y-34724300D01*
X209995737Y-34720533D01*
X210011620Y-34709920D01*
X210022233Y-34694037D01*
X210026000Y-34675101D01*
X210026000Y-33913499D01*
X210022233Y-33894562D01*
X210014885Y-33883566D01*
X210014654Y-33881812D01*
X210015905Y-33880561D01*
X210017659Y-33880792D01*
X210031499Y-33890040D01*
X210076011Y-33908477D01*
X210123986Y-33908477D01*
X210168497Y-33890041D01*
X210182339Y-33880791D01*
X210184093Y-33880560D01*
X210185344Y-33881811D01*
X210185113Y-33883565D01*
X210177765Y-33894562D01*
X210173999Y-33913499D01*
X210173999Y-34675101D01*
X210177765Y-34694037D01*
X210188378Y-34709920D01*
X210204261Y-34720533D01*
X210223198Y-34724300D01*
X210476800Y-34724300D01*
X210495736Y-34720533D01*
X210511619Y-34709920D01*
X210522232Y-34694037D01*
X210525999Y-34675101D01*
X210525999Y-33913499D01*
X210522232Y-33894562D01*
X210514883Y-33883564D01*
X210514652Y-33881810D01*
X210515903Y-33880559D01*
X210517657Y-33880790D01*
X210531501Y-33890041D01*
X210576012Y-33908478D01*
X210623988Y-33908478D01*
X210668498Y-33890041D01*
X210682343Y-33880790D01*
X210684097Y-33880559D01*
X210685348Y-33881810D01*
G37*
G36*
X215731617Y-33036053D02*
G01*
X215800118Y-33044000D01*
X216216831Y-33044000D01*
X216218467Y-33044850D01*
X216218713Y-33046677D01*
X216217359Y-33047929D01*
X216154260Y-33065190D01*
X216109114Y-33111777D01*
X216093970Y-33174859D01*
X216113046Y-33236865D01*
X216139597Y-33261025D01*
X216140250Y-33262456D01*
X216139763Y-33263675D01*
X216146215Y-33270127D01*
X216146782Y-33271817D01*
X216145774Y-33273288D01*
X216143993Y-33273371D01*
X216043382Y-33228946D01*
X215974882Y-33221000D01*
X215558163Y-33221000D01*
X215556527Y-33220150D01*
X215556281Y-33218323D01*
X215557635Y-33217071D01*
X215620737Y-33199808D01*
X215665883Y-33153221D01*
X215681027Y-33090139D01*
X215661951Y-33028133D01*
X215635401Y-33003975D01*
X215634748Y-33002543D01*
X215635235Y-33001323D01*
X215628784Y-32994872D01*
X215628217Y-32993182D01*
X215629225Y-32991711D01*
X215631006Y-32991628D01*
X215731617Y-33036053D01*
G37*
G36*
X201038824Y-31662027D02*
G01*
X201039544Y-31663593D01*
X201038779Y-31665137D01*
X201005860Y-31690964D01*
X200981705Y-31741271D01*
X200982278Y-31797074D01*
X201007459Y-31846874D01*
X201048623Y-31877828D01*
X201049420Y-31879370D01*
X201048712Y-31880955D01*
X201047031Y-31881389D01*
X200994801Y-31871000D01*
X200625199Y-31871000D01*
X200567202Y-31882535D01*
X200565521Y-31882101D01*
X200564813Y-31880516D01*
X200565610Y-31878974D01*
X200602266Y-31851409D01*
X200627447Y-31801610D01*
X200628020Y-31745808D01*
X200603865Y-31695501D01*
X200566506Y-31666189D01*
X200565741Y-31664645D01*
X200566461Y-31663079D01*
X200568131Y-31662654D01*
X200630199Y-31675000D01*
X200969801Y-31675000D01*
X201037154Y-31661602D01*
X201038824Y-31662027D01*
G37*
D76*
X184100000Y-31800000D02*
X184100000Y-30200000D01*
X184100000Y-60700000D02*
X184100000Y-59400000D01*
X180600000Y-26700000D02*
X149600000Y-26700000D01*
X149600000Y-26700000D02*
G75*
G03*
X146100000Y-30200000I0J-3500000D01*
G01*
X184100000Y-30200000D02*
G75*
G03*
X180600000Y-26700000I-3500000J0D01*
G01*
X180600000Y-64700000D02*
G75*
G03*
X184100000Y-61200000I0J3500000D01*
G01*
X146100000Y-30200000D02*
X146100000Y-61200000D01*
X149600000Y-64700000D02*
X180600000Y-64700000D01*
X146100000Y-61200000D02*
G75*
G03*
X149600000Y-64700000I3500000J0D01*
G01*
X184100000Y-61200000D02*
X184100000Y-60700000D01*
X225100000Y-61200000D02*
X225100000Y-30200000D01*
X190600000Y-64700000D02*
X221600000Y-64700000D01*
X187100000Y-61200000D02*
G75*
G03*
X190600000Y-64700000I3500000J0D01*
G01*
X221600000Y-64700000D02*
G75*
G03*
X225100000Y-61200000I0J3500000D01*
G01*
X190600000Y-26700000D02*
G75*
G03*
X187100000Y-30200000I0J-3500000D01*
G01*
X190600000Y-26700000D02*
X221600000Y-26700000D01*
X187100000Y-30200000D02*
X187100000Y-30700000D01*
X187100000Y-61200000D02*
X187100000Y-59400000D01*
X187100000Y-31800000D02*
X187100000Y-30700000D01*
X225100000Y-30200000D02*
G75*
G03*
X221600000Y-26700000I-3500000J0D01*
G01*
X187150000Y-48970000D02*
G75*
G03*
X184150000Y-48970000I-1500000J0D01*
G01*
X187150000Y-39570000D02*
G75*
G03*
X184150000Y-39570000I-1500000J0D01*
G01*
X187100000Y-59400000D02*
G75*
G03*
X184100000Y-59400000I-1500000J30019D01*
G01*
X184150000Y-53070000D02*
X184150000Y-48970000D01*
X184150000Y-43270000D02*
X184150000Y-39570000D01*
X184150000Y-43270000D02*
G75*
G03*
X187150000Y-43270000I1500000J0D01*
G01*
X184100000Y-31800000D02*
G75*
G03*
X187100000Y-31800000I1500000J0D01*
G01*
X187150000Y-39570000D02*
X187150000Y-43270000D01*
X187150000Y-48970000D02*
X187150000Y-53070000D01*
X184150000Y-53070000D02*
G75*
G03*
X187150000Y-53070000I1500000J0D01*
G01*
M02*
