%TF.GenerationSoftware,KiCad,Pcbnew,(7.0.0-0)*%
%TF.CreationDate,2023-05-24T17:39:12+02:00*%
%TF.ProjectId,ethersweep,65746865-7273-4776-9565-702e6b696361,2.0.1*%
%TF.SameCoordinates,Original*%
%TF.FileFunction,Other,User*%
%FSLAX46Y46*%
G04 Gerber Fmt 4.6, Leading zero omitted, Abs format (unit mm)*
G04 Created by KiCad (PCBNEW (7.0.0-0)) date 2023-05-24 17:39:12*
%MOMM*%
%LPD*%
G01*
G04 APERTURE LIST*
%ADD10C,0.050000*%
%TA.AperFunction,Profile*%
%ADD11C,0.150000*%
%TD*%
G04 APERTURE END LIST*
D10*
X159320000Y-35200000D02*
X159320000Y-31800000D01*
X161280000Y-35200000D02*
X159320000Y-35200000D01*
X159320000Y-31800000D02*
X161280000Y-31800000D01*
X161280000Y-31800000D02*
X161280000Y-35200000D01*
X148450000Y-53150000D02*
X151950000Y-53150000D01*
X148450000Y-54850000D02*
X148450000Y-53150000D01*
X151950000Y-53150000D02*
X151950000Y-54850000D01*
X151950000Y-54850000D02*
X148450000Y-54850000D01*
X185520000Y-36450000D02*
X163620000Y-36450000D01*
X163620000Y-36450000D02*
X163620000Y-54950000D01*
X185520000Y-54950000D02*
X185520000Y-36450000D01*
X163620000Y-54950000D02*
X185520000Y-54950000D01*
X184050000Y-30200000D02*
G75*
G03*
X184050000Y-30200000I-3450000J0D01*
G01*
X153050000Y-30200000D02*
G75*
G03*
X153050000Y-30200000I-3450000J0D01*
G01*
X153050000Y-61200000D02*
G75*
G03*
X153050000Y-61200000I-3450000J0D01*
G01*
X184050000Y-61200000D02*
G75*
G03*
X184050000Y-61200000I-3450000J0D01*
G01*
X178280000Y-57130000D02*
X175320000Y-57130000D01*
X178280000Y-55670000D02*
X178280000Y-57130000D01*
X175320000Y-57130000D02*
X175320000Y-55670000D01*
X175320000Y-55670000D02*
X178280000Y-55670000D01*
X154685000Y-27920000D02*
X154685000Y-31320000D01*
X154685000Y-31320000D02*
X158885000Y-31320000D01*
X158885000Y-27920000D02*
X154685000Y-27920000D01*
X158885000Y-31320000D02*
X158885000Y-27920000D01*
X160340000Y-37090000D02*
X162160000Y-37090000D01*
X160340000Y-38010000D02*
X160340000Y-37090000D01*
X162160000Y-37090000D02*
X162160000Y-38010000D01*
X162160000Y-38010000D02*
X160340000Y-38010000D01*
X151750000Y-43650000D02*
X154900000Y-43650000D01*
X158050000Y-43650000D02*
X154900000Y-43650000D01*
X151150000Y-42250000D02*
X151750000Y-42250000D01*
X151750000Y-42250000D02*
X151750000Y-43650000D01*
X158050000Y-42250000D02*
X158050000Y-43650000D01*
X158650000Y-42250000D02*
X158050000Y-42250000D01*
X149750000Y-41650000D02*
X151150000Y-41650000D01*
X151150000Y-41650000D02*
X151150000Y-42250000D01*
X158650000Y-41650000D02*
X158650000Y-42250000D01*
X160050000Y-41650000D02*
X158650000Y-41650000D01*
X149750000Y-38500000D02*
X149750000Y-41650000D01*
X149750000Y-38500000D02*
X149750000Y-35350000D01*
X160050000Y-38500000D02*
X160050000Y-41650000D01*
X160050000Y-38500000D02*
X160050000Y-35350000D01*
X149750000Y-35350000D02*
X151150000Y-35350000D01*
X151150000Y-35350000D02*
X151150000Y-34750000D01*
X158650000Y-35350000D02*
X158650000Y-34750000D01*
X160050000Y-35350000D02*
X158650000Y-35350000D01*
X151150000Y-34750000D02*
X151750000Y-34750000D01*
X151750000Y-34750000D02*
X151750000Y-33350000D01*
X158050000Y-34750000D02*
X158050000Y-33350000D01*
X158650000Y-34750000D02*
X158050000Y-34750000D01*
X151750000Y-33350000D02*
X154900000Y-33350000D01*
X158050000Y-33350000D02*
X154900000Y-33350000D01*
X160340000Y-36010000D02*
X162160000Y-36010000D01*
X160340000Y-36930000D02*
X160340000Y-36010000D01*
X162160000Y-36010000D02*
X162160000Y-36930000D01*
X162160000Y-36930000D02*
X160340000Y-36930000D01*
X178280000Y-55530000D02*
X175320000Y-55530000D01*
X178280000Y-54070000D02*
X178280000Y-55530000D01*
X175320000Y-55530000D02*
X175320000Y-54070000D01*
X175320000Y-54070000D02*
X178280000Y-54070000D01*
X153625000Y-30830000D02*
X153625000Y-29010000D01*
X154545000Y-30830000D02*
X153625000Y-30830000D01*
X153625000Y-29010000D02*
X154545000Y-29010000D01*
X154545000Y-29010000D02*
X154545000Y-30830000D01*
X159025000Y-30830000D02*
X159025000Y-29010000D01*
X159945000Y-30830000D02*
X159025000Y-30830000D01*
X159025000Y-29010000D02*
X159945000Y-29010000D01*
X159945000Y-29010000D02*
X159945000Y-30830000D01*
X149750000Y-38180000D02*
X146350000Y-38180000D01*
X149750000Y-36220000D02*
X149750000Y-38180000D01*
X146350000Y-38180000D02*
X146350000Y-36220000D01*
X146350000Y-36220000D02*
X149750000Y-36220000D01*
X155470000Y-51030000D02*
X155470000Y-48070000D01*
X156930000Y-51030000D02*
X155470000Y-51030000D01*
X155470000Y-48070000D02*
X156930000Y-48070000D01*
X156930000Y-48070000D02*
X156930000Y-51030000D01*
X155470000Y-47730000D02*
X155470000Y-44770000D01*
X156930000Y-47730000D02*
X155470000Y-47730000D01*
X155470000Y-44770000D02*
X156930000Y-44770000D01*
X156930000Y-44770000D02*
X156930000Y-47730000D01*
X153570000Y-47730000D02*
X153570000Y-44770000D01*
X155030000Y-47730000D02*
X153570000Y-47730000D01*
X153570000Y-44770000D02*
X155030000Y-44770000D01*
X155030000Y-44770000D02*
X155030000Y-47730000D01*
X151670000Y-47730000D02*
X151670000Y-44770000D01*
X153130000Y-47730000D02*
X151670000Y-47730000D01*
X151670000Y-44770000D02*
X153130000Y-44770000D01*
X153130000Y-44770000D02*
X153130000Y-47730000D01*
X149770000Y-47730000D02*
X149770000Y-44770000D01*
X151230000Y-47730000D02*
X149770000Y-47730000D01*
X149770000Y-44770000D02*
X151230000Y-44770000D01*
X151230000Y-44770000D02*
X151230000Y-47730000D01*
X158730000Y-48070000D02*
X158730000Y-51030000D01*
X157270000Y-48070000D02*
X158730000Y-48070000D01*
X158730000Y-51030000D02*
X157270000Y-51030000D01*
X157270000Y-51030000D02*
X157270000Y-48070000D01*
X162710000Y-45060000D02*
X160890000Y-45060000D01*
X162710000Y-44140000D02*
X162710000Y-45060000D01*
X160890000Y-45060000D02*
X160890000Y-44140000D01*
X160890000Y-44140000D02*
X162710000Y-44140000D01*
X162710000Y-46660000D02*
X160890000Y-46660000D01*
X162710000Y-45740000D02*
X162710000Y-46660000D01*
X160890000Y-46660000D02*
X160890000Y-45740000D01*
X160890000Y-45740000D02*
X162710000Y-45740000D01*
X173500000Y-57270000D02*
X168900000Y-57270000D01*
X173500000Y-54970000D02*
X173500000Y-57270000D01*
X168900000Y-57270000D02*
X168900000Y-54970000D01*
X168900000Y-54970000D02*
X173500000Y-54970000D01*
X159270000Y-50280000D02*
X159270000Y-47320000D01*
X160730000Y-50280000D02*
X159270000Y-50280000D01*
X159270000Y-47320000D02*
X160730000Y-47320000D01*
X160730000Y-47320000D02*
X160730000Y-50280000D01*
X194050000Y-30200000D02*
G75*
G03*
X194050000Y-30200000I-3450000J0D01*
G01*
X225050000Y-30200000D02*
G75*
G03*
X225050000Y-30200000I-3450000J0D01*
G01*
X194050000Y-61200000D02*
G75*
G03*
X194050000Y-61200000I-3450000J0D01*
G01*
X202280000Y-38800000D02*
X202280000Y-22510000D01*
X202280000Y-22510000D02*
X192380000Y-22510000D01*
X192380000Y-38800000D02*
X202280000Y-38800000D01*
X192380000Y-22510000D02*
X192380000Y-38800000D01*
X225050000Y-61175001D02*
G75*
G03*
X225050000Y-61175001I-3450000J0D01*
G01*
X161070000Y-50280000D02*
X161070000Y-47320000D01*
X162530000Y-50280000D02*
X161070000Y-50280000D01*
X161070000Y-47320000D02*
X162530000Y-47320000D01*
X162530000Y-47320000D02*
X162530000Y-50280000D01*
X156315000Y-32790000D02*
X154455000Y-32790000D01*
X156315000Y-31850000D02*
X156315000Y-32790000D01*
X154455000Y-32790000D02*
X154455000Y-31850000D01*
X154455000Y-31850000D02*
X156315000Y-31850000D01*
X161830000Y-43300000D02*
X158870000Y-43300000D01*
X161830000Y-41840000D02*
X161830000Y-43300000D01*
X158870000Y-43300000D02*
X158870000Y-41840000D01*
X158870000Y-41840000D02*
X161830000Y-41840000D01*
X149546800Y-50980000D02*
X149546800Y-48020000D01*
X151006800Y-50980000D02*
X149546800Y-50980000D01*
X149546800Y-48020000D02*
X151006800Y-48020000D01*
X151006800Y-48020000D02*
X151006800Y-50980000D01*
X151870000Y-50980000D02*
X151870000Y-48020000D01*
X153330000Y-50980000D02*
X151870000Y-50980000D01*
X151870000Y-48020000D02*
X153330000Y-48020000D01*
X153330000Y-48020000D02*
X153330000Y-50980000D01*
X153570000Y-51030000D02*
X153570000Y-48070000D01*
X155030000Y-51030000D02*
X153570000Y-51030000D01*
X153570000Y-48070000D02*
X155030000Y-48070000D01*
X155030000Y-48070000D02*
X155030000Y-51030000D01*
X161870000Y-29040000D02*
X164830000Y-29040000D01*
X161870000Y-30500000D02*
X161870000Y-29040000D01*
X164830000Y-29040000D02*
X164830000Y-30500000D01*
X164830000Y-30500000D02*
X161870000Y-30500000D01*
X161870000Y-27340000D02*
X164830000Y-27340000D01*
X161870000Y-28800000D02*
X161870000Y-27340000D01*
X164830000Y-27340000D02*
X164830000Y-28800000D01*
X164830000Y-28800000D02*
X161870000Y-28800000D01*
X168130000Y-30500000D02*
X165170000Y-30500000D01*
X168130000Y-29040000D02*
X168130000Y-30500000D01*
X165170000Y-30500000D02*
X165170000Y-29040000D01*
X165170000Y-29040000D02*
X168130000Y-29040000D01*
X205020000Y-61850000D02*
X205020000Y-58890000D01*
X206480000Y-61850000D02*
X205020000Y-61850000D01*
X205020000Y-58890000D02*
X206480000Y-58890000D01*
X206480000Y-58890000D02*
X206480000Y-61850000D01*
X219050000Y-66700000D02*
X219050000Y-50850000D01*
X219050000Y-66700000D02*
X204750000Y-66700000D01*
X219050000Y-50850000D02*
X204750000Y-50850000D01*
X204750000Y-66700000D02*
X204750000Y-50850000D01*
X206480000Y-55890000D02*
X206480000Y-58850000D01*
X205020000Y-55890000D02*
X206480000Y-55890000D01*
X206480000Y-58850000D02*
X205020000Y-58850000D01*
X205020000Y-58850000D02*
X205020000Y-55890000D01*
X160340000Y-40210000D02*
X162160000Y-40210000D01*
X160340000Y-41130000D02*
X160340000Y-40210000D01*
X162160000Y-40210000D02*
X162160000Y-41130000D01*
X162160000Y-41130000D02*
X160340000Y-41130000D01*
X206410000Y-36360000D02*
X206410000Y-38180000D01*
X205490000Y-36360000D02*
X206410000Y-36360000D01*
X206410000Y-38180000D02*
X205490000Y-38180000D01*
X205490000Y-38180000D02*
X205490000Y-36360000D01*
X206789300Y-34839000D02*
X207094100Y-34839000D01*
X206789300Y-34839000D02*
X207094100Y-34839000D01*
X206789300Y-38601000D02*
X206789300Y-34839000D01*
X206789300Y-38601000D02*
X206789300Y-34839000D01*
X207094100Y-33964100D02*
X207969000Y-33964100D01*
X207094100Y-33964100D02*
X207969000Y-33964100D01*
X207094100Y-34839000D02*
X207094100Y-33964100D01*
X207094100Y-34839000D02*
X207094100Y-33964100D01*
X207094100Y-38601000D02*
X206789300Y-38601000D01*
X207094100Y-38601000D02*
X206789300Y-38601000D01*
X207094100Y-39475900D02*
X207094100Y-38601000D01*
X207094100Y-39475900D02*
X207094100Y-38601000D01*
X207969000Y-33659300D02*
X211731000Y-33659300D01*
X207969000Y-33659300D02*
X211731000Y-33659300D01*
X207969000Y-33964100D02*
X207969000Y-33659300D01*
X207969000Y-33964100D02*
X207969000Y-33659300D01*
X207969000Y-39475900D02*
X207094100Y-39475900D01*
X207969000Y-39475900D02*
X207094100Y-39475900D01*
X207969000Y-39780700D02*
X207969000Y-39475900D01*
X207969000Y-39780700D02*
X207969000Y-39475900D01*
X211731000Y-33659300D02*
X211731000Y-33964100D01*
X211731000Y-33659300D02*
X211731000Y-33964100D01*
X211731000Y-33964100D02*
X212605900Y-33964100D01*
X211731000Y-33964100D02*
X212605900Y-33964100D01*
X211731000Y-39475900D02*
X211731000Y-39780700D01*
X211731000Y-39475900D02*
X211731000Y-39780700D01*
X211731000Y-39780700D02*
X207969000Y-39780700D01*
X211731000Y-39780700D02*
X207969000Y-39780700D01*
X212605900Y-33964100D02*
X212605900Y-34839000D01*
X212605900Y-33964100D02*
X212605900Y-34839000D01*
X212605900Y-34839000D02*
X212910700Y-34839000D01*
X212605900Y-34839000D02*
X212910700Y-34839000D01*
X212605900Y-38601000D02*
X212605900Y-39475900D01*
X212605900Y-38601000D02*
X212605900Y-39475900D01*
X212605900Y-39475900D02*
X211731000Y-39475900D01*
X212605900Y-39475900D02*
X211731000Y-39475900D01*
X212910700Y-34839000D02*
X212910700Y-38601000D01*
X212910700Y-34839000D02*
X212910700Y-38601000D01*
X212910700Y-38601000D02*
X212605900Y-38601000D01*
X212910700Y-38601000D02*
X212605900Y-38601000D01*
X218050000Y-48820000D02*
X221050000Y-48820000D01*
X221050000Y-48820000D02*
X221050000Y-47970000D01*
X215300000Y-47970000D02*
X218050000Y-47970000D01*
X215300000Y-47970000D02*
X214150000Y-46820000D01*
X218050000Y-47970000D02*
X218050000Y-48820000D01*
X221050000Y-47970000D02*
X223800000Y-47970000D01*
X223800000Y-47970000D02*
X224950000Y-46820000D01*
X214150000Y-46820000D02*
X214150000Y-37170000D01*
X224950000Y-46820000D02*
X224950000Y-37170000D01*
X214150000Y-37170000D02*
X218050000Y-37170000D01*
X218050000Y-37170000D02*
X218050000Y-36320000D01*
X221050000Y-37170000D02*
X224950000Y-37170000D01*
X218050000Y-36320000D02*
X221050000Y-36320000D01*
X221050000Y-36320000D02*
X221050000Y-37170000D01*
X202670000Y-30090000D02*
X209030000Y-30090000D01*
X202670000Y-33250000D02*
X202670000Y-30090000D01*
X209030000Y-30090000D02*
X209030000Y-33250000D01*
X209030000Y-33250000D02*
X202670000Y-33250000D01*
X157342400Y-44782400D02*
X159162400Y-44782400D01*
X157342400Y-45702400D02*
X157342400Y-44782400D01*
X159162400Y-44782400D02*
X159162400Y-45702400D01*
X159162400Y-45702400D02*
X157342400Y-45702400D01*
X204310000Y-59005000D02*
X202490000Y-59005000D01*
X204310000Y-58085000D02*
X204310000Y-59005000D01*
X202490000Y-59005000D02*
X202490000Y-58085000D01*
X202490000Y-58085000D02*
X204310000Y-58085000D01*
X158340000Y-34480000D02*
X158340000Y-32660000D01*
X159260000Y-34480000D02*
X158340000Y-34480000D01*
X158340000Y-32660000D02*
X159260000Y-32660000D01*
X159260000Y-32660000D02*
X159260000Y-34480000D01*
X188305000Y-50725000D02*
X188305000Y-48865000D01*
X189245000Y-50725000D02*
X188305000Y-50725000D01*
X188305000Y-48865000D02*
X189245000Y-48865000D01*
X189245000Y-48865000D02*
X189245000Y-50725000D01*
X168130000Y-28800000D02*
X165170000Y-28800000D01*
X168130000Y-27340000D02*
X168130000Y-28800000D01*
X165170000Y-28800000D02*
X165170000Y-27340000D01*
X165170000Y-27340000D02*
X168130000Y-27340000D01*
X216570000Y-36300000D02*
X216570000Y-33340000D01*
X218030000Y-36300000D02*
X216570000Y-36300000D01*
X216570000Y-33340000D02*
X218030000Y-33340000D01*
X218030000Y-33340000D02*
X218030000Y-36300000D01*
X204310000Y-58005000D02*
X202490000Y-58005000D01*
X204310000Y-57085000D02*
X204310000Y-58005000D01*
X202490000Y-58005000D02*
X202490000Y-57085000D01*
X202490000Y-57085000D02*
X204310000Y-57085000D01*
X217570000Y-48590000D02*
X220530000Y-48590000D01*
X217570000Y-50050000D02*
X217570000Y-48590000D01*
X220530000Y-48590000D02*
X220530000Y-50050000D01*
X220530000Y-50050000D02*
X217570000Y-50050000D01*
X194587500Y-59820000D02*
X203987500Y-59820000D01*
X194587500Y-66320000D02*
X194587500Y-59820000D01*
X203987500Y-59820000D02*
X203987500Y-66320000D01*
X203987500Y-66320000D02*
X194587500Y-66320000D01*
X184517600Y-34019000D02*
X165667600Y-34019000D01*
X165667600Y-34019000D02*
X165667600Y-37619000D01*
X184517600Y-37619000D02*
X184517600Y-34019000D01*
X165667600Y-37619000D02*
X184517600Y-37619000D01*
X200340000Y-33630000D02*
X200340000Y-31770000D01*
X201280000Y-33630000D02*
X200340000Y-33630000D01*
X200340000Y-31770000D02*
X201280000Y-31770000D01*
X201280000Y-31770000D02*
X201280000Y-33630000D01*
X176300000Y-66987500D02*
X176300000Y-57787500D01*
X176300000Y-57787500D02*
X165300000Y-57787500D01*
X165300000Y-66987500D02*
X176300000Y-66987500D01*
X165300000Y-57787500D02*
X165300000Y-66987500D01*
X216475000Y-33020000D02*
X216475000Y-37620000D01*
X214175000Y-33020000D02*
X216475000Y-33020000D01*
X216475000Y-37620000D02*
X214175000Y-37620000D01*
X214175000Y-37620000D02*
X214175000Y-33020000D01*
X165050000Y-66987500D02*
X165050000Y-57787500D01*
X165050000Y-57787500D02*
X154050000Y-57787500D01*
X154050000Y-66987500D02*
X165050000Y-66987500D01*
X154050000Y-57787500D02*
X154050000Y-66987500D01*
X217000000Y-52570000D02*
X221600000Y-52570000D01*
X217000000Y-54870000D02*
X217000000Y-52570000D01*
X221600000Y-52570000D02*
X221600000Y-54870000D01*
X221600000Y-54870000D02*
X217000000Y-54870000D01*
X206080000Y-46540000D02*
X204220000Y-46540000D01*
X206080000Y-45600000D02*
X206080000Y-46540000D01*
X204220000Y-46540000D02*
X204220000Y-45600000D01*
X204220000Y-45600000D02*
X206080000Y-45600000D01*
X157340000Y-43810000D02*
X159160000Y-43810000D01*
X157340000Y-44730000D02*
X157340000Y-43810000D01*
X159160000Y-43810000D02*
X159160000Y-44730000D01*
X159160000Y-44730000D02*
X157340000Y-44730000D01*
X203410000Y-40960000D02*
X203410000Y-42780000D01*
X202490000Y-40960000D02*
X203410000Y-40960000D01*
X203410000Y-42780000D02*
X202490000Y-42780000D01*
X202490000Y-42780000D02*
X202490000Y-40960000D01*
X197990000Y-42000000D02*
X196170000Y-42000000D01*
X197990000Y-41080000D02*
X197990000Y-42000000D01*
X196170000Y-42000000D02*
X196170000Y-41080000D01*
X196170000Y-41080000D02*
X197990000Y-41080000D01*
X186653000Y-37619000D02*
X205503000Y-37619000D01*
X205503000Y-37619000D02*
X205503000Y-34019000D01*
X186653000Y-34019000D02*
X186653000Y-37619000D01*
X205503000Y-34019000D02*
X186653000Y-34019000D01*
X203050000Y-21402500D02*
X203050000Y-30602500D01*
X203050000Y-30602500D02*
X216550000Y-30602500D01*
X216550000Y-21402500D02*
X203050000Y-21402500D01*
X216550000Y-30602500D02*
X216550000Y-21402500D01*
X197977500Y-51460000D02*
X199797500Y-51460000D01*
X197977500Y-52380000D02*
X197977500Y-51460000D01*
X199797500Y-51460000D02*
X199797500Y-52380000D01*
X199797500Y-52380000D02*
X197977500Y-52380000D01*
X217030000Y-33250000D02*
X210670000Y-33250000D01*
X217030000Y-30090000D02*
X217030000Y-33250000D01*
X210670000Y-33250000D02*
X210670000Y-30090000D01*
X210670000Y-30090000D02*
X217030000Y-30090000D01*
X194190000Y-42000000D02*
X192370000Y-42000000D01*
X194190000Y-41080000D02*
X194190000Y-42000000D01*
X192370000Y-42000000D02*
X192370000Y-41080000D01*
X192370000Y-41080000D02*
X194190000Y-41080000D01*
X201260000Y-29956000D02*
X201260000Y-31776000D01*
X200340000Y-29956000D02*
X201260000Y-29956000D01*
X201260000Y-31776000D02*
X200340000Y-31776000D01*
X200340000Y-31776000D02*
X200340000Y-29956000D01*
X197837500Y-42270000D02*
X194687500Y-42270000D01*
X191537500Y-42270000D02*
X194687500Y-42270000D01*
X198437500Y-43670000D02*
X197837500Y-43670000D01*
X197837500Y-43670000D02*
X197837500Y-42270000D01*
X191537500Y-43670000D02*
X191537500Y-42270000D01*
X190937500Y-43670000D02*
X191537500Y-43670000D01*
X199837500Y-44270000D02*
X198437500Y-44270000D01*
X198437500Y-44270000D02*
X198437500Y-43670000D01*
X190937500Y-44270000D02*
X190937500Y-43670000D01*
X189537500Y-44270000D02*
X190937500Y-44270000D01*
X199837500Y-47420000D02*
X199837500Y-44270000D01*
X199837500Y-47420000D02*
X199837500Y-50570000D01*
X189537500Y-47420000D02*
X189537500Y-44270000D01*
X189537500Y-47420000D02*
X189537500Y-50570000D01*
X199837500Y-50570000D02*
X198437500Y-50570000D01*
X198437500Y-50570000D02*
X198437500Y-51170000D01*
X190937500Y-50570000D02*
X190937500Y-51170000D01*
X189537500Y-50570000D02*
X190937500Y-50570000D01*
X198437500Y-51170000D02*
X197837500Y-51170000D01*
X197837500Y-51170000D02*
X197837500Y-52570000D01*
X191537500Y-51170000D02*
X191537500Y-52570000D01*
X190937500Y-51170000D02*
X191537500Y-51170000D01*
X197837500Y-52570000D02*
X194687500Y-52570000D01*
X191537500Y-52570000D02*
X194687500Y-52570000D01*
X165770000Y-56740000D02*
X168730000Y-56740000D01*
X165770000Y-58200000D02*
X165770000Y-56740000D01*
X168730000Y-56740000D02*
X168730000Y-58200000D01*
X168730000Y-58200000D02*
X165770000Y-58200000D01*
X206080000Y-45440000D02*
X204220000Y-45440000D01*
X206080000Y-44500000D02*
X206080000Y-45440000D01*
X204220000Y-45440000D02*
X204220000Y-44500000D01*
X204220000Y-44500000D02*
X206080000Y-44500000D01*
X207489400Y-40978000D02*
X207489400Y-43278000D01*
X207489400Y-40978000D02*
X212189400Y-40978000D01*
X212189400Y-40978000D02*
X212189400Y-43278000D01*
X212189400Y-43278000D02*
X207489400Y-43278000D01*
X196225000Y-59020000D02*
X202425000Y-59020000D01*
X202425000Y-59020000D02*
X202425000Y-52820000D01*
X196225000Y-52820000D02*
X196225000Y-59020000D01*
X202425000Y-52820000D02*
X196225000Y-52820000D01*
X213990000Y-56640000D02*
X212130000Y-56640000D01*
X213990000Y-55700000D02*
X213990000Y-56640000D01*
X212130000Y-56640000D02*
X212130000Y-55700000D01*
X212130000Y-55700000D02*
X213990000Y-55700000D01*
X198727500Y-44120000D02*
X198727500Y-42300000D01*
X199647500Y-44120000D02*
X198727500Y-44120000D01*
X198727500Y-42300000D02*
X199647500Y-42300000D01*
X199647500Y-42300000D02*
X199647500Y-44120000D01*
X196110000Y-42010000D02*
X194250000Y-42010000D01*
X196110000Y-41070000D02*
X196110000Y-42010000D01*
X194250000Y-42010000D02*
X194250000Y-41070000D01*
X194250000Y-41070000D02*
X196110000Y-41070000D01*
X205480000Y-37090000D02*
X205480000Y-40050000D01*
X204020000Y-37090000D02*
X205480000Y-37090000D01*
X205480000Y-40050000D02*
X204020000Y-40050000D01*
X204020000Y-40050000D02*
X204020000Y-37090000D01*
X218375000Y-33770000D02*
X218375000Y-36070000D01*
X218375000Y-33770000D02*
X223075000Y-33770000D01*
X223075000Y-33770000D02*
X223075000Y-36070000D01*
X223075000Y-36070000D02*
X218375000Y-36070000D01*
X150910000Y-42060000D02*
X150910000Y-43880000D01*
X149990000Y-42060000D02*
X150910000Y-42060000D01*
X150910000Y-43880000D02*
X149990000Y-43880000D01*
X149990000Y-43880000D02*
X149990000Y-42060000D01*
X154670000Y-56740000D02*
X157630000Y-56740000D01*
X154670000Y-58200000D02*
X154670000Y-56740000D01*
X157630000Y-56740000D02*
X157630000Y-58200000D01*
X157630000Y-58200000D02*
X154670000Y-58200000D01*
X214100400Y-38690000D02*
X214100400Y-41650000D01*
X212640400Y-38690000D02*
X214100400Y-38690000D01*
X214100400Y-41650000D02*
X212640400Y-41650000D01*
X212640400Y-41650000D02*
X212640400Y-38690000D01*
X190747500Y-50690000D02*
X190747500Y-52510000D01*
X189827500Y-50690000D02*
X190747500Y-50690000D01*
X190747500Y-52510000D02*
X189827500Y-52510000D01*
X189827500Y-52510000D02*
X189827500Y-50690000D01*
X200390000Y-27040000D02*
X203350000Y-27040000D01*
X200390000Y-28500000D02*
X200390000Y-27040000D01*
X203350000Y-27040000D02*
X203350000Y-28500000D01*
X203350000Y-28500000D02*
X200390000Y-28500000D01*
X217000000Y-50170000D02*
X221600000Y-50170000D01*
X217000000Y-52470000D02*
X217000000Y-50170000D01*
X221600000Y-50170000D02*
X221600000Y-52470000D01*
X221600000Y-52470000D02*
X217000000Y-52470000D01*
X203369600Y-29970400D02*
X200409600Y-29970400D01*
X203369600Y-28510400D02*
X203369600Y-29970400D01*
X200409600Y-29970400D02*
X200409600Y-28510400D01*
X200409600Y-28510400D02*
X203369600Y-28510400D01*
X189245000Y-46890000D02*
X189245000Y-48750000D01*
X188305000Y-46890000D02*
X189245000Y-46890000D01*
X189245000Y-48750000D02*
X188305000Y-48750000D01*
X188305000Y-48750000D02*
X188305000Y-46890000D01*
X198300000Y-41040000D02*
X198300000Y-37240000D01*
X198300000Y-37240000D02*
X192100000Y-37240000D01*
X192100000Y-41040000D02*
X198300000Y-41040000D01*
X192100000Y-37240000D02*
X192100000Y-41040000D01*
X149724800Y-39673200D02*
X146764800Y-39673200D01*
X149724800Y-38213200D02*
X149724800Y-39673200D01*
X146764800Y-39673200D02*
X146764800Y-38213200D01*
X146764800Y-38213200D02*
X149724800Y-38213200D01*
X207514400Y-43178000D02*
X212114400Y-43178000D01*
X207514400Y-45478000D02*
X207514400Y-43178000D01*
X212114400Y-43178000D02*
X212114400Y-45478000D01*
X212114400Y-45478000D02*
X207514400Y-45478000D01*
X190565000Y-42780000D02*
X190565000Y-40960000D01*
X191485000Y-42780000D02*
X190565000Y-42780000D01*
X190565000Y-40960000D02*
X191485000Y-40960000D01*
X191485000Y-40960000D02*
X191485000Y-42780000D01*
X212030000Y-56640000D02*
X210170000Y-56640000D01*
X212030000Y-55700000D02*
X212030000Y-56640000D01*
X210170000Y-56640000D02*
X210170000Y-55700000D01*
X210170000Y-55700000D02*
X212030000Y-55700000D01*
X160340000Y-38689096D02*
X162160000Y-38689096D01*
X160340000Y-39609096D02*
X160340000Y-38689096D01*
X162160000Y-38689096D02*
X162160000Y-39609096D01*
X162160000Y-39609096D02*
X160340000Y-39609096D01*
X196135000Y-57210000D02*
X196135000Y-59030000D01*
X195215000Y-57210000D02*
X196135000Y-57210000D01*
X196135000Y-59030000D02*
X195215000Y-59030000D01*
X195215000Y-59030000D02*
X195215000Y-57210000D01*
X206080000Y-47640000D02*
X204220000Y-47640000D01*
X206080000Y-46700000D02*
X206080000Y-47640000D01*
X204220000Y-47640000D02*
X204220000Y-46700000D01*
X204220000Y-46700000D02*
X206080000Y-46700000D01*
D11*
X184100000Y-31800000D02*
X184100000Y-30200000D01*
X184100000Y-60700000D02*
X184100000Y-59400000D01*
X180600000Y-26700000D02*
X149600000Y-26700000D01*
X149600000Y-26700000D02*
G75*
G03*
X146100000Y-30200000I0J-3500000D01*
G01*
X184100000Y-30200000D02*
G75*
G03*
X180600000Y-26700000I-3500000J0D01*
G01*
X180600000Y-64700000D02*
G75*
G03*
X184100000Y-61200000I0J3500000D01*
G01*
X146100000Y-30200000D02*
X146100000Y-61200000D01*
X149600000Y-64700000D02*
X180600000Y-64700000D01*
X146100000Y-61200000D02*
G75*
G03*
X149600000Y-64700000I3500000J0D01*
G01*
X184100000Y-61200000D02*
X184100000Y-60700000D01*
X225100000Y-61200000D02*
X225100000Y-30200000D01*
X190600000Y-64700000D02*
X221600000Y-64700000D01*
X187100000Y-61200000D02*
G75*
G03*
X190600000Y-64700000I3500000J0D01*
G01*
X221600000Y-64700000D02*
G75*
G03*
X225100000Y-61200000I0J3500000D01*
G01*
X190600000Y-26700000D02*
G75*
G03*
X187100000Y-30200000I0J-3500000D01*
G01*
X190600000Y-26700000D02*
X221600000Y-26700000D01*
X187100000Y-30200000D02*
X187100000Y-30700000D01*
X187100000Y-61200000D02*
X187100000Y-59400000D01*
X187100000Y-31800000D02*
X187100000Y-30700000D01*
X225100000Y-30200000D02*
G75*
G03*
X221600000Y-26700000I-3500000J0D01*
G01*
X187150000Y-48970000D02*
G75*
G03*
X184150000Y-48970000I-1500000J0D01*
G01*
X187150000Y-39570000D02*
G75*
G03*
X184150000Y-39570000I-1500000J0D01*
G01*
X187100000Y-59400000D02*
G75*
G03*
X184100000Y-59400000I-1500000J30019D01*
G01*
X184150000Y-53070000D02*
X184150000Y-48970000D01*
X184150000Y-43270000D02*
X184150000Y-39570000D01*
X184150000Y-43270000D02*
G75*
G03*
X187150000Y-43270000I1500000J0D01*
G01*
X184100000Y-31800000D02*
G75*
G03*
X187100000Y-31800000I1500000J0D01*
G01*
X187150000Y-39570000D02*
X187150000Y-43270000D01*
X187150000Y-48970000D02*
X187150000Y-53070000D01*
X184150000Y-53070000D02*
G75*
G03*
X187150000Y-53070000I1500000J0D01*
G01*
M02*
