%TF.GenerationSoftware,KiCad,Pcbnew,(7.0.0-0)*%
%TF.CreationDate,2023-05-24T17:39:12+02:00*%
%TF.ProjectId,ethersweep,65746865-7273-4776-9565-702e6b696361,2.0.1*%
%TF.SameCoordinates,Original*%
%TF.FileFunction,AssemblyDrawing,Bot*%
%FSLAX46Y46*%
G04 Gerber Fmt 4.6, Leading zero omitted, Abs format (unit mm)*
G04 Created by KiCad (PCBNEW (7.0.0-0)) date 2023-05-24 17:39:12*
%MOMM*%
%LPD*%
G01*
G04 APERTURE LIST*
%ADD10C,0.150000*%
%ADD11C,0.015000*%
%ADD12C,0.100000*%
%TA.AperFunction,Profile*%
%ADD13C,0.150000*%
%TD*%
G04 APERTURE END LIST*
D10*
X146967380Y-45376666D02*
X147681666Y-45376666D01*
X147681666Y-45376666D02*
X147824523Y-45329047D01*
X147824523Y-45329047D02*
X147919761Y-45233809D01*
X147919761Y-45233809D02*
X147967380Y-45090952D01*
X147967380Y-45090952D02*
X147967380Y-44995714D01*
X146967380Y-45757619D02*
X146967380Y-46376666D01*
X146967380Y-46376666D02*
X147348333Y-46043333D01*
X147348333Y-46043333D02*
X147348333Y-46186190D01*
X147348333Y-46186190D02*
X147395952Y-46281428D01*
X147395952Y-46281428D02*
X147443571Y-46329047D01*
X147443571Y-46329047D02*
X147538809Y-46376666D01*
X147538809Y-46376666D02*
X147776904Y-46376666D01*
X147776904Y-46376666D02*
X147872142Y-46329047D01*
X147872142Y-46329047D02*
X147919761Y-46281428D01*
X147919761Y-46281428D02*
X147967380Y-46186190D01*
X147967380Y-46186190D02*
X147967380Y-45900476D01*
X147967380Y-45900476D02*
X147919761Y-45805238D01*
X147919761Y-45805238D02*
X147872142Y-45757619D01*
D11*
X208159521Y-46010833D02*
X207921426Y-46010833D01*
X208207140Y-46153690D02*
X208040474Y-45653690D01*
X208040474Y-45653690D02*
X207873807Y-46153690D01*
X207730950Y-46129880D02*
X207659522Y-46153690D01*
X207659522Y-46153690D02*
X207540474Y-46153690D01*
X207540474Y-46153690D02*
X207492855Y-46129880D01*
X207492855Y-46129880D02*
X207469046Y-46106071D01*
X207469046Y-46106071D02*
X207445236Y-46058452D01*
X207445236Y-46058452D02*
X207445236Y-46010833D01*
X207445236Y-46010833D02*
X207469046Y-45963214D01*
X207469046Y-45963214D02*
X207492855Y-45939404D01*
X207492855Y-45939404D02*
X207540474Y-45915595D01*
X207540474Y-45915595D02*
X207635712Y-45891785D01*
X207635712Y-45891785D02*
X207683331Y-45867976D01*
X207683331Y-45867976D02*
X207707141Y-45844166D01*
X207707141Y-45844166D02*
X207730950Y-45796547D01*
X207730950Y-45796547D02*
X207730950Y-45748928D01*
X207730950Y-45748928D02*
X207707141Y-45701309D01*
X207707141Y-45701309D02*
X207683331Y-45677500D01*
X207683331Y-45677500D02*
X207635712Y-45653690D01*
X207635712Y-45653690D02*
X207516665Y-45653690D01*
X207516665Y-45653690D02*
X207445236Y-45677500D01*
X206992856Y-45653690D02*
X207230951Y-45653690D01*
X207230951Y-45653690D02*
X207254760Y-45891785D01*
X207254760Y-45891785D02*
X207230951Y-45867976D01*
X207230951Y-45867976D02*
X207183332Y-45844166D01*
X207183332Y-45844166D02*
X207064284Y-45844166D01*
X207064284Y-45844166D02*
X207016665Y-45867976D01*
X207016665Y-45867976D02*
X206992856Y-45891785D01*
X206992856Y-45891785D02*
X206969046Y-45939404D01*
X206969046Y-45939404D02*
X206969046Y-46058452D01*
X206969046Y-46058452D02*
X206992856Y-46106071D01*
X206992856Y-46106071D02*
X207016665Y-46129880D01*
X207016665Y-46129880D02*
X207064284Y-46153690D01*
X207064284Y-46153690D02*
X207183332Y-46153690D01*
X207183332Y-46153690D02*
X207230951Y-46129880D01*
X207230951Y-46129880D02*
X207254760Y-46106071D01*
X206540475Y-45653690D02*
X206635713Y-45653690D01*
X206635713Y-45653690D02*
X206683332Y-45677500D01*
X206683332Y-45677500D02*
X206707142Y-45701309D01*
X206707142Y-45701309D02*
X206754761Y-45772738D01*
X206754761Y-45772738D02*
X206778570Y-45867976D01*
X206778570Y-45867976D02*
X206778570Y-46058452D01*
X206778570Y-46058452D02*
X206754761Y-46106071D01*
X206754761Y-46106071D02*
X206730951Y-46129880D01*
X206730951Y-46129880D02*
X206683332Y-46153690D01*
X206683332Y-46153690D02*
X206588094Y-46153690D01*
X206588094Y-46153690D02*
X206540475Y-46129880D01*
X206540475Y-46129880D02*
X206516666Y-46106071D01*
X206516666Y-46106071D02*
X206492856Y-46058452D01*
X206492856Y-46058452D02*
X206492856Y-45939404D01*
X206492856Y-45939404D02*
X206516666Y-45891785D01*
X206516666Y-45891785D02*
X206540475Y-45867976D01*
X206540475Y-45867976D02*
X206588094Y-45844166D01*
X206588094Y-45844166D02*
X206683332Y-45844166D01*
X206683332Y-45844166D02*
X206730951Y-45867976D01*
X206730951Y-45867976D02*
X206754761Y-45891785D01*
X206754761Y-45891785D02*
X206778570Y-45939404D01*
X206183333Y-45653690D02*
X206135714Y-45653690D01*
X206135714Y-45653690D02*
X206088095Y-45677500D01*
X206088095Y-45677500D02*
X206064285Y-45701309D01*
X206064285Y-45701309D02*
X206040476Y-45748928D01*
X206040476Y-45748928D02*
X206016666Y-45844166D01*
X206016666Y-45844166D02*
X206016666Y-45963214D01*
X206016666Y-45963214D02*
X206040476Y-46058452D01*
X206040476Y-46058452D02*
X206064285Y-46106071D01*
X206064285Y-46106071D02*
X206088095Y-46129880D01*
X206088095Y-46129880D02*
X206135714Y-46153690D01*
X206135714Y-46153690D02*
X206183333Y-46153690D01*
X206183333Y-46153690D02*
X206230952Y-46129880D01*
X206230952Y-46129880D02*
X206254761Y-46106071D01*
X206254761Y-46106071D02*
X206278571Y-46058452D01*
X206278571Y-46058452D02*
X206302380Y-45963214D01*
X206302380Y-45963214D02*
X206302380Y-45844166D01*
X206302380Y-45844166D02*
X206278571Y-45748928D01*
X206278571Y-45748928D02*
X206254761Y-45701309D01*
X206254761Y-45701309D02*
X206230952Y-45677500D01*
X206230952Y-45677500D02*
X206183333Y-45653690D01*
X205707143Y-45653690D02*
X205659524Y-45653690D01*
X205659524Y-45653690D02*
X205611905Y-45677500D01*
X205611905Y-45677500D02*
X205588095Y-45701309D01*
X205588095Y-45701309D02*
X205564286Y-45748928D01*
X205564286Y-45748928D02*
X205540476Y-45844166D01*
X205540476Y-45844166D02*
X205540476Y-45963214D01*
X205540476Y-45963214D02*
X205564286Y-46058452D01*
X205564286Y-46058452D02*
X205588095Y-46106071D01*
X205588095Y-46106071D02*
X205611905Y-46129880D01*
X205611905Y-46129880D02*
X205659524Y-46153690D01*
X205659524Y-46153690D02*
X205707143Y-46153690D01*
X205707143Y-46153690D02*
X205754762Y-46129880D01*
X205754762Y-46129880D02*
X205778571Y-46106071D01*
X205778571Y-46106071D02*
X205802381Y-46058452D01*
X205802381Y-46058452D02*
X205826190Y-45963214D01*
X205826190Y-45963214D02*
X205826190Y-45844166D01*
X205826190Y-45844166D02*
X205802381Y-45748928D01*
X205802381Y-45748928D02*
X205778571Y-45701309D01*
X205778571Y-45701309D02*
X205754762Y-45677500D01*
X205754762Y-45677500D02*
X205707143Y-45653690D01*
D12*
X169420000Y-23020000D02*
X169420000Y-37300000D01*
X169420000Y-32710000D02*
X170620000Y-32710000D01*
X169420000Y-37300000D02*
X170420000Y-38300000D01*
X170420000Y-38300000D02*
X178320000Y-38300000D01*
X170620000Y-24210000D02*
X170620000Y-28610000D01*
X170620000Y-28610000D02*
X169420000Y-28610000D01*
X170620000Y-28610000D02*
X170620000Y-28610000D01*
X170620000Y-32710000D02*
X170620000Y-37110000D01*
X170620000Y-37110000D02*
X177120000Y-37110000D01*
X177120000Y-24210000D02*
X170620000Y-24210000D01*
X177120000Y-37110000D02*
X177120000Y-24210000D01*
X178320000Y-23020000D02*
X169420000Y-23020000D01*
X178320000Y-38300000D02*
X178320000Y-23020000D01*
X148870000Y-50790000D02*
X148870000Y-41265000D01*
X148870000Y-41265000D02*
X148235000Y-40630000D01*
X148235000Y-40630000D02*
X146330000Y-40630000D01*
X146330000Y-50790000D02*
X148870000Y-50790000D01*
X146330000Y-40630000D02*
X146330000Y-50790000D01*
X167100000Y-31700000D02*
X167100000Y-28800000D01*
X167100000Y-28800000D02*
X163200000Y-28800000D01*
X163200000Y-31700000D02*
X167100000Y-31700000D01*
X163200000Y-28800000D02*
X163200000Y-31700000D01*
X166150000Y-30250000D02*
G75*
G03*
X166150000Y-30250000I-1000000J0D01*
G01*
D13*
X184100000Y-31800000D02*
X184100000Y-30200000D01*
X184100000Y-60700000D02*
X184100000Y-59400000D01*
X180600000Y-26700000D02*
X149600000Y-26700000D01*
X149600000Y-26700000D02*
G75*
G03*
X146100000Y-30200000I0J-3500000D01*
G01*
X184100000Y-30200000D02*
G75*
G03*
X180600000Y-26700000I-3500000J0D01*
G01*
X180600000Y-64700000D02*
G75*
G03*
X184100000Y-61200000I0J3500000D01*
G01*
X146100000Y-30200000D02*
X146100000Y-61200000D01*
X149600000Y-64700000D02*
X180600000Y-64700000D01*
X146100000Y-61200000D02*
G75*
G03*
X149600000Y-64700000I3500000J0D01*
G01*
X184100000Y-61200000D02*
X184100000Y-60700000D01*
X225100000Y-61200000D02*
X225100000Y-30200000D01*
X190600000Y-64700000D02*
X221600000Y-64700000D01*
X187100000Y-61200000D02*
G75*
G03*
X190600000Y-64700000I3500000J0D01*
G01*
X221600000Y-64700000D02*
G75*
G03*
X225100000Y-61200000I0J3500000D01*
G01*
X190600000Y-26700000D02*
G75*
G03*
X187100000Y-30200000I0J-3500000D01*
G01*
X190600000Y-26700000D02*
X221600000Y-26700000D01*
X187100000Y-30200000D02*
X187100000Y-30700000D01*
X187100000Y-61200000D02*
X187100000Y-59400000D01*
X187100000Y-31800000D02*
X187100000Y-30700000D01*
X225100000Y-30200000D02*
G75*
G03*
X221600000Y-26700000I-3500000J0D01*
G01*
X187150000Y-48970000D02*
G75*
G03*
X184150000Y-48970000I-1500000J0D01*
G01*
X187150000Y-39570000D02*
G75*
G03*
X184150000Y-39570000I-1500000J0D01*
G01*
X187100000Y-59400000D02*
G75*
G03*
X184100000Y-59400000I-1500000J30019D01*
G01*
X184150000Y-53070000D02*
X184150000Y-48970000D01*
X184150000Y-43270000D02*
X184150000Y-39570000D01*
X184150000Y-43270000D02*
G75*
G03*
X187150000Y-43270000I1500000J0D01*
G01*
X184100000Y-31800000D02*
G75*
G03*
X187100000Y-31800000I1500000J0D01*
G01*
X187150000Y-39570000D02*
X187150000Y-43270000D01*
X187150000Y-48970000D02*
X187150000Y-53070000D01*
X184150000Y-53070000D02*
G75*
G03*
X187150000Y-53070000I1500000J0D01*
G01*
M02*
