%TF.GenerationSoftware,KiCad,Pcbnew,(7.0.0-0)*%
%TF.CreationDate,2023-05-24T17:39:11+02:00*%
%TF.ProjectId,ethersweep,65746865-7273-4776-9565-702e6b696361,2.0.1*%
%TF.SameCoordinates,Original*%
%TF.FileFunction,Paste,Top*%
%TF.FilePolarity,Positive*%
%FSLAX46Y46*%
G04 Gerber Fmt 4.6, Leading zero omitted, Abs format (unit mm)*
G04 Created by KiCad (PCBNEW (7.0.0-0)) date 2023-05-24 17:39:11*
%MOMM*%
%LPD*%
G01*
G04 APERTURE LIST*
G04 Aperture macros list*
%AMRoundRect*
0 Rectangle with rounded corners*
0 $1 Rounding radius*
0 $2 $3 $4 $5 $6 $7 $8 $9 X,Y pos of 4 corners*
0 Add a 4 corners polygon primitive as box body*
4,1,4,$2,$3,$4,$5,$6,$7,$8,$9,$2,$3,0*
0 Add four circle primitives for the rounded corners*
1,1,$1+$1,$2,$3*
1,1,$1+$1,$4,$5*
1,1,$1+$1,$6,$7*
1,1,$1+$1,$8,$9*
0 Add four rect primitives between the rounded corners*
20,1,$1+$1,$2,$3,$4,$5,0*
20,1,$1+$1,$4,$5,$6,$7,0*
20,1,$1+$1,$6,$7,$8,$9,0*
20,1,$1+$1,$8,$9,$2,$3,0*%
G04 Aperture macros list end*
%ADD10C,0.100000*%
%ADD11RoundRect,0.250000X0.475000X-0.250000X0.475000X0.250000X-0.475000X0.250000X-0.475000X-0.250000X0*%
%ADD12RoundRect,0.218750X-0.218750X-0.381250X0.218750X-0.381250X0.218750X0.381250X-0.218750X0.381250X0*%
%ADD13RoundRect,0.200000X0.200000X0.275000X-0.200000X0.275000X-0.200000X-0.275000X0.200000X-0.275000X0*%
%ADD14R,1.400000X1.200000*%
%ADD15RoundRect,0.140000X-0.140000X-0.170000X0.140000X-0.170000X0.140000X0.170000X-0.140000X0.170000X0*%
%ADD16RoundRect,0.075000X0.075000X-0.662500X0.075000X0.662500X-0.075000X0.662500X-0.075000X-0.662500X0*%
%ADD17RoundRect,0.075000X0.662500X-0.075000X0.662500X0.075000X-0.662500X0.075000X-0.662500X-0.075000X0*%
%ADD18RoundRect,0.140000X0.170000X-0.140000X0.170000X0.140000X-0.170000X0.140000X-0.170000X-0.140000X0*%
%ADD19RoundRect,0.250000X0.250000X0.475000X-0.250000X0.475000X-0.250000X-0.475000X0.250000X-0.475000X0*%
%ADD20RoundRect,0.200000X0.275000X-0.200000X0.275000X0.200000X-0.275000X0.200000X-0.275000X-0.200000X0*%
%ADD21RoundRect,0.225000X-0.250000X0.225000X-0.250000X-0.225000X0.250000X-0.225000X0.250000X0.225000X0*%
%ADD22RoundRect,0.140000X0.140000X0.170000X-0.140000X0.170000X-0.140000X-0.170000X0.140000X-0.170000X0*%
%ADD23RoundRect,0.250000X0.325000X0.650000X-0.325000X0.650000X-0.325000X-0.650000X0.325000X-0.650000X0*%
%ADD24RoundRect,0.225000X0.250000X-0.225000X0.250000X0.225000X-0.250000X0.225000X-0.250000X-0.225000X0*%
%ADD25RoundRect,0.135000X0.135000X0.185000X-0.135000X0.185000X-0.135000X-0.185000X0.135000X-0.185000X0*%
%ADD26RoundRect,0.200000X-0.200000X-0.275000X0.200000X-0.275000X0.200000X0.275000X-0.200000X0.275000X0*%
%ADD27RoundRect,0.218750X0.218750X0.256250X-0.218750X0.256250X-0.218750X-0.256250X0.218750X-0.256250X0*%
%ADD28RoundRect,0.218750X0.256250X-0.218750X0.256250X0.218750X-0.256250X0.218750X-0.256250X-0.218750X0*%
%ADD29RoundRect,0.200000X-0.275000X0.200000X-0.275000X-0.200000X0.275000X-0.200000X0.275000X0.200000X0*%
%ADD30RoundRect,0.140000X-0.170000X0.140000X-0.170000X-0.140000X0.170000X-0.140000X0.170000X0.140000X0*%
%ADD31R,0.762000X0.254000*%
%ADD32R,0.254000X0.762000*%
%ADD33RoundRect,0.250000X1.000000X-1.750000X1.000000X1.750000X-1.000000X1.750000X-1.000000X-1.750000X0*%
%ADD34RoundRect,0.250000X-0.362500X-1.075000X0.362500X-1.075000X0.362500X1.075000X-0.362500X1.075000X0*%
%ADD35RoundRect,0.135000X0.185000X-0.135000X0.185000X0.135000X-0.185000X0.135000X-0.185000X-0.135000X0*%
%ADD36RoundRect,0.225000X-0.225000X-0.250000X0.225000X-0.250000X0.225000X0.250000X-0.225000X0.250000X0*%
%ADD37R,0.450000X1.380000*%
%ADD38R,1.650000X1.300000*%
%ADD39R,1.425000X1.550000*%
%ADD40R,1.800000X1.900000*%
%ADD41R,1.000000X1.900000*%
%ADD42RoundRect,0.250000X-0.650000X0.325000X-0.650000X-0.325000X0.650000X-0.325000X0.650000X0.325000X0*%
%ADD43RoundRect,0.250000X-0.325000X-0.650000X0.325000X-0.650000X0.325000X0.650000X-0.325000X0.650000X0*%
%ADD44RoundRect,0.250000X0.362500X1.075000X-0.362500X1.075000X-0.362500X-1.075000X0.362500X-1.075000X0*%
%ADD45RoundRect,0.075000X-0.075000X0.662500X-0.075000X-0.662500X0.075000X-0.662500X0.075000X0.662500X0*%
%ADD46RoundRect,0.075000X-0.662500X0.075000X-0.662500X-0.075000X0.662500X-0.075000X0.662500X0.075000X0*%
%ADD47R,0.900000X1.200000*%
%ADD48RoundRect,0.225000X0.225000X-0.225000X0.225000X0.225000X-0.225000X0.225000X-0.225000X-0.225000X0*%
%ADD49RoundRect,0.062500X0.062500X-0.337500X0.062500X0.337500X-0.062500X0.337500X-0.062500X-0.337500X0*%
%ADD50RoundRect,0.062500X0.337500X-0.062500X0.337500X0.062500X-0.337500X0.062500X-0.337500X-0.062500X0*%
%ADD51RoundRect,0.218750X-0.218750X-0.256250X0.218750X-0.256250X0.218750X0.256250X-0.218750X0.256250X0*%
%ADD52RoundRect,0.135000X-0.185000X0.135000X-0.185000X-0.135000X0.185000X-0.135000X0.185000X0.135000X0*%
%ADD53R,2.000000X2.400000*%
%ADD54RoundRect,0.225000X0.225000X0.250000X-0.225000X0.250000X-0.225000X-0.250000X0.225000X-0.250000X0*%
%TA.AperFunction,Profile*%
%ADD55C,0.150000*%
%TD*%
G04 APERTURE END LIST*
G36*
X209115000Y-35985000D02*
G01*
X208045000Y-35985000D01*
X208045000Y-34915000D01*
X209115000Y-34915000D01*
X209115000Y-35985000D01*
G37*
D10*
X209115000Y-35985000D02*
X208045000Y-35985000D01*
X208045000Y-34915000D01*
X209115000Y-34915000D01*
X209115000Y-35985000D01*
G36*
X209115000Y-37255000D02*
G01*
X208045000Y-37255000D01*
X208045000Y-36185000D01*
X209115000Y-36185000D01*
X209115000Y-37255000D01*
G37*
X209115000Y-37255000D02*
X208045000Y-37255000D01*
X208045000Y-36185000D01*
X209115000Y-36185000D01*
X209115000Y-37255000D01*
G36*
X209115000Y-38525000D02*
G01*
X208045000Y-38525000D01*
X208045000Y-37455000D01*
X209115000Y-37455000D01*
X209115000Y-38525000D01*
G37*
X209115000Y-38525000D02*
X208045000Y-38525000D01*
X208045000Y-37455000D01*
X209115000Y-37455000D01*
X209115000Y-38525000D01*
G36*
X210385000Y-35985000D02*
G01*
X209315000Y-35985000D01*
X209315000Y-34915000D01*
X210385000Y-34915000D01*
X210385000Y-35985000D01*
G37*
X210385000Y-35985000D02*
X209315000Y-35985000D01*
X209315000Y-34915000D01*
X210385000Y-34915000D01*
X210385000Y-35985000D01*
G36*
X210385000Y-37255000D02*
G01*
X209315000Y-37255000D01*
X209315000Y-36185000D01*
X210385000Y-36185000D01*
X210385000Y-37255000D01*
G37*
X210385000Y-37255000D02*
X209315000Y-37255000D01*
X209315000Y-36185000D01*
X210385000Y-36185000D01*
X210385000Y-37255000D01*
G36*
X210385000Y-38525000D02*
G01*
X209315000Y-38525000D01*
X209315000Y-37455000D01*
X210385000Y-37455000D01*
X210385000Y-38525000D01*
G37*
X210385000Y-38525000D02*
X209315000Y-38525000D01*
X209315000Y-37455000D01*
X210385000Y-37455000D01*
X210385000Y-38525000D01*
G36*
X211655000Y-35985000D02*
G01*
X210585000Y-35985000D01*
X210585000Y-34915000D01*
X211655000Y-34915000D01*
X211655000Y-35985000D01*
G37*
X211655000Y-35985000D02*
X210585000Y-35985000D01*
X210585000Y-34915000D01*
X211655000Y-34915000D01*
X211655000Y-35985000D01*
G36*
X211655000Y-37255000D02*
G01*
X210585000Y-37255000D01*
X210585000Y-36185000D01*
X211655000Y-36185000D01*
X211655000Y-37255000D01*
G37*
X211655000Y-37255000D02*
X210585000Y-37255000D01*
X210585000Y-36185000D01*
X211655000Y-36185000D01*
X211655000Y-37255000D01*
G36*
X211655000Y-38525000D02*
G01*
X210585000Y-38525000D01*
X210585000Y-37455000D01*
X211655000Y-37455000D01*
X211655000Y-38525000D01*
G37*
X211655000Y-38525000D02*
X210585000Y-38525000D01*
X210585000Y-37455000D01*
X211655000Y-37455000D01*
X211655000Y-38525000D01*
D11*
X160300000Y-34450000D03*
X160300000Y-32550000D03*
D12*
X149137500Y-54000000D03*
X151262500Y-54000000D03*
D13*
X177625000Y-56400000D03*
X175975000Y-56400000D03*
D14*
X155684999Y-30469999D03*
X157884999Y-30469999D03*
X157884999Y-28769999D03*
X155684999Y-28769999D03*
D15*
X160770000Y-37550000D03*
X161730000Y-37550000D03*
D16*
X152150000Y-42662500D03*
X152650000Y-42662500D03*
X153150000Y-42662500D03*
X153650000Y-42662500D03*
X154150000Y-42662500D03*
X154650000Y-42662500D03*
X155150000Y-42662500D03*
X155650000Y-42662500D03*
X156150000Y-42662500D03*
X156650000Y-42662500D03*
X157150000Y-42662500D03*
X157650000Y-42662500D03*
D17*
X159062500Y-41250000D03*
X159062500Y-40750000D03*
X159062500Y-40250000D03*
X159062500Y-39750000D03*
X159062500Y-39250000D03*
X159062500Y-38750000D03*
X159062500Y-38250000D03*
X159062500Y-37750000D03*
X159062500Y-37250000D03*
X159062500Y-36750000D03*
X159062500Y-36250000D03*
X159062500Y-35750000D03*
D16*
X157650000Y-34337500D03*
X157150000Y-34337500D03*
X156650000Y-34337500D03*
X156150000Y-34337500D03*
X155650000Y-34337500D03*
X155150000Y-34337500D03*
X154650000Y-34337500D03*
X154150000Y-34337500D03*
X153650000Y-34337500D03*
X153150000Y-34337500D03*
X152650000Y-34337500D03*
X152150000Y-34337500D03*
D17*
X150737500Y-35750000D03*
X150737500Y-36250000D03*
X150737500Y-36750000D03*
X150737500Y-37250000D03*
X150737500Y-37750000D03*
X150737500Y-38250000D03*
X150737500Y-38750000D03*
X150737500Y-39250000D03*
X150737500Y-39750000D03*
X150737500Y-40250000D03*
X150737500Y-40750000D03*
X150737500Y-41250000D03*
D15*
X160770000Y-36470000D03*
X161730000Y-36470000D03*
D13*
X177625000Y-54800000D03*
X175975000Y-54800000D03*
D18*
X154085000Y-30400000D03*
X154085000Y-29440000D03*
X159485000Y-30400000D03*
X159485000Y-29440000D03*
D19*
X149000000Y-37200000D03*
X147100000Y-37200000D03*
D20*
X156200000Y-50375000D03*
X156200000Y-48725000D03*
X156200000Y-47075000D03*
X156200000Y-45425000D03*
X154300000Y-47075000D03*
X154300000Y-45425000D03*
X152400000Y-47075000D03*
X152400000Y-45425000D03*
X150500000Y-47075000D03*
X150500000Y-45425000D03*
D21*
X158000000Y-48775000D03*
X158000000Y-50325000D03*
D22*
X162280000Y-44600000D03*
X161320000Y-44600000D03*
X162280000Y-46200000D03*
X161320000Y-46200000D03*
D23*
X172675000Y-56120000D03*
X169725000Y-56120000D03*
D24*
X160000000Y-49575000D03*
X160000000Y-48025000D03*
D20*
X161800000Y-49625000D03*
X161800000Y-47975000D03*
D25*
X155895000Y-32320000D03*
X154875000Y-32320000D03*
D13*
X161175000Y-42570000D03*
X159525000Y-42570000D03*
D20*
X150276800Y-50325000D03*
X150276800Y-48675000D03*
X152600000Y-50325000D03*
X152600000Y-48675000D03*
X154300000Y-50375000D03*
X154300000Y-48725000D03*
D26*
X162525000Y-29770000D03*
X164175000Y-29770000D03*
X162525000Y-28070000D03*
X164175000Y-28070000D03*
D27*
X167437500Y-29770000D03*
X165862500Y-29770000D03*
D28*
X205750000Y-61157500D03*
X205750000Y-59582500D03*
D29*
X205750000Y-56545000D03*
X205750000Y-58195000D03*
D15*
X160770000Y-40670000D03*
X161730000Y-40670000D03*
D30*
X205950000Y-36790000D03*
X205950000Y-37750000D03*
D31*
X207424299Y-35219999D03*
X207424299Y-35719998D03*
X207424299Y-36220000D03*
X207424299Y-36719999D03*
X207424299Y-37219998D03*
X207424299Y-37720000D03*
X207424299Y-38219999D03*
D32*
X208349999Y-39145699D03*
X208849998Y-39145699D03*
X209350000Y-39145699D03*
X209849999Y-39145699D03*
X210349998Y-39145699D03*
X210850000Y-39145699D03*
X211349999Y-39145699D03*
D31*
X212275699Y-38219999D03*
X212275699Y-37720000D03*
X212275699Y-37219998D03*
X212275699Y-36719999D03*
X212275699Y-36220000D03*
X212275699Y-35719998D03*
X212275699Y-35219999D03*
D32*
X211349999Y-34294299D03*
X210850000Y-34294299D03*
X210349998Y-34294299D03*
X209849999Y-34294299D03*
X209350000Y-34294299D03*
X208849998Y-34294299D03*
X208349999Y-34294299D03*
D33*
X219550000Y-46570000D03*
X219550000Y-38570000D03*
D34*
X203537500Y-31670000D03*
X208162500Y-31670000D03*
D15*
X157772400Y-45242400D03*
X158732400Y-45242400D03*
D22*
X203880000Y-58545000D03*
X202920000Y-58545000D03*
D18*
X158800000Y-34050000D03*
X158800000Y-33090000D03*
D35*
X188775000Y-50305000D03*
X188775000Y-49285000D03*
D27*
X167437500Y-28070000D03*
X165862500Y-28070000D03*
D24*
X217300000Y-35595000D03*
X217300000Y-34045000D03*
D22*
X203880000Y-57545000D03*
X202920000Y-57545000D03*
D36*
X218275000Y-49320000D03*
X219825000Y-49320000D03*
D37*
X197987499Y-61009999D03*
X198637499Y-61009999D03*
X199287499Y-61009999D03*
X199937499Y-61009999D03*
X200587499Y-61009999D03*
D38*
X195912499Y-63669999D03*
D39*
X196799999Y-61094999D03*
D40*
X198137499Y-63669999D03*
D41*
X200837499Y-63669999D03*
D39*
X201774999Y-61094999D03*
D38*
X202662499Y-63669999D03*
D35*
X200810000Y-33210000D03*
X200810000Y-32190000D03*
D42*
X215325000Y-33845000D03*
X215325000Y-36795000D03*
D43*
X217825000Y-53720000D03*
X220775000Y-53720000D03*
D25*
X205660000Y-46070000D03*
X204640000Y-46070000D03*
D15*
X157770000Y-44270000D03*
X158730000Y-44270000D03*
D30*
X202950000Y-41390000D03*
X202950000Y-42350000D03*
D22*
X197560000Y-41540000D03*
X196600000Y-41540000D03*
D15*
X198407500Y-51920000D03*
X199367500Y-51920000D03*
D44*
X216162500Y-31670000D03*
X211537500Y-31670000D03*
D22*
X193760000Y-41540000D03*
X192800000Y-41540000D03*
D30*
X200800000Y-30386000D03*
X200800000Y-31346000D03*
D45*
X197437500Y-43257500D03*
X196937500Y-43257500D03*
X196437500Y-43257500D03*
X195937500Y-43257500D03*
X195437500Y-43257500D03*
X194937500Y-43257500D03*
X194437500Y-43257500D03*
X193937500Y-43257500D03*
X193437500Y-43257500D03*
X192937500Y-43257500D03*
X192437500Y-43257500D03*
X191937500Y-43257500D03*
D46*
X190525000Y-44670000D03*
X190525000Y-45170000D03*
X190525000Y-45670000D03*
X190525000Y-46170000D03*
X190525000Y-46670000D03*
X190525000Y-47170000D03*
X190525000Y-47670000D03*
X190525000Y-48170000D03*
X190525000Y-48670000D03*
X190525000Y-49170000D03*
X190525000Y-49670000D03*
X190525000Y-50170000D03*
D45*
X191937500Y-51582500D03*
X192437500Y-51582500D03*
X192937500Y-51582500D03*
X193437500Y-51582500D03*
X193937500Y-51582500D03*
X194437500Y-51582500D03*
X194937500Y-51582500D03*
X195437500Y-51582500D03*
X195937500Y-51582500D03*
X196437500Y-51582500D03*
X196937500Y-51582500D03*
X197437500Y-51582500D03*
D46*
X198850000Y-50170000D03*
X198850000Y-49670000D03*
X198850000Y-49170000D03*
X198850000Y-48670000D03*
X198850000Y-48170000D03*
X198850000Y-47670000D03*
X198850000Y-47170000D03*
X198850000Y-46670000D03*
X198850000Y-46170000D03*
X198850000Y-45670000D03*
X198850000Y-45170000D03*
X198850000Y-44670000D03*
D26*
X166425000Y-57470000D03*
X168075000Y-57470000D03*
D25*
X205660000Y-44970000D03*
X204640000Y-44970000D03*
D47*
X208189399Y-42127999D03*
X211489399Y-42127999D03*
D48*
X198205000Y-57040000D03*
X199325000Y-57040000D03*
X200445000Y-57040000D03*
X198205000Y-55920000D03*
X199325000Y-55920000D03*
X200445000Y-55920000D03*
X198205000Y-54800000D03*
X199325000Y-54800000D03*
X200445000Y-54800000D03*
D49*
X197825000Y-58370000D03*
X198325000Y-58370000D03*
X198825000Y-58370000D03*
X199325000Y-58370000D03*
X199825000Y-58370000D03*
X200325000Y-58370000D03*
X200825000Y-58370000D03*
D50*
X201775000Y-57420000D03*
X201775000Y-56920000D03*
X201775000Y-56420000D03*
X201775000Y-55920000D03*
X201775000Y-55420000D03*
X201775000Y-54920000D03*
X201775000Y-54420000D03*
D49*
X200825000Y-53470000D03*
X200325000Y-53470000D03*
X199825000Y-53470000D03*
X199325000Y-53470000D03*
X198825000Y-53470000D03*
X198325000Y-53470000D03*
X197825000Y-53470000D03*
D50*
X196875000Y-54420000D03*
X196875000Y-54920000D03*
X196875000Y-55420000D03*
X196875000Y-55920000D03*
X196875000Y-56420000D03*
X196875000Y-56920000D03*
X196875000Y-57420000D03*
D25*
X213570000Y-56170000D03*
X212550000Y-56170000D03*
D18*
X199187500Y-43690000D03*
X199187500Y-42730000D03*
D25*
X195690000Y-41540000D03*
X194670000Y-41540000D03*
D21*
X204750000Y-37795000D03*
X204750000Y-39345000D03*
D47*
X219074999Y-34919999D03*
X222374999Y-34919999D03*
D30*
X150450000Y-42490000D03*
X150450000Y-43450000D03*
D26*
X155325000Y-57470000D03*
X156975000Y-57470000D03*
D21*
X213370400Y-39395000D03*
X213370400Y-40945000D03*
D30*
X190287500Y-51120000D03*
X190287500Y-52080000D03*
D51*
X201082500Y-27770000D03*
X202657500Y-27770000D03*
D43*
X217825000Y-51320000D03*
X220775000Y-51320000D03*
D13*
X202714600Y-29240400D03*
X201064600Y-29240400D03*
D52*
X188775000Y-47310000D03*
X188775000Y-48330000D03*
D53*
X197049999Y-39139999D03*
X193349999Y-39139999D03*
D54*
X149019800Y-38943200D03*
X147469800Y-38943200D03*
D43*
X208339400Y-44328000D03*
X211289400Y-44328000D03*
D18*
X191025000Y-42350000D03*
X191025000Y-41390000D03*
D25*
X211610000Y-56170000D03*
X210590000Y-56170000D03*
D15*
X160770000Y-39149096D03*
X161730000Y-39149096D03*
D30*
X195675000Y-57640000D03*
X195675000Y-58600000D03*
D25*
X205660000Y-47170000D03*
X204640000Y-47170000D03*
D55*
X184100000Y-31800000D02*
X184100000Y-30200000D01*
X184100000Y-60700000D02*
X184100000Y-59400000D01*
X180600000Y-26700000D02*
X149600000Y-26700000D01*
X149600000Y-26700000D02*
G75*
G03*
X146100000Y-30200000I0J-3500000D01*
G01*
X184100000Y-30200000D02*
G75*
G03*
X180600000Y-26700000I-3500000J0D01*
G01*
X180600000Y-64700000D02*
G75*
G03*
X184100000Y-61200000I0J3500000D01*
G01*
X146100000Y-30200000D02*
X146100000Y-61200000D01*
X149600000Y-64700000D02*
X180600000Y-64700000D01*
X146100000Y-61200000D02*
G75*
G03*
X149600000Y-64700000I3500000J0D01*
G01*
X184100000Y-61200000D02*
X184100000Y-60700000D01*
X225100000Y-61200000D02*
X225100000Y-30200000D01*
X190600000Y-64700000D02*
X221600000Y-64700000D01*
X187100000Y-61200000D02*
G75*
G03*
X190600000Y-64700000I3500000J0D01*
G01*
X221600000Y-64700000D02*
G75*
G03*
X225100000Y-61200000I0J3500000D01*
G01*
X190600000Y-26700000D02*
G75*
G03*
X187100000Y-30200000I0J-3500000D01*
G01*
X190600000Y-26700000D02*
X221600000Y-26700000D01*
X187100000Y-30200000D02*
X187100000Y-30700000D01*
X187100000Y-61200000D02*
X187100000Y-59400000D01*
X187100000Y-31800000D02*
X187100000Y-30700000D01*
X225100000Y-30200000D02*
G75*
G03*
X221600000Y-26700000I-3500000J0D01*
G01*
X187150000Y-48970000D02*
G75*
G03*
X184150000Y-48970000I-1500000J0D01*
G01*
X187150000Y-39570000D02*
G75*
G03*
X184150000Y-39570000I-1500000J0D01*
G01*
X187100000Y-59400000D02*
G75*
G03*
X184100000Y-59400000I-1500000J30019D01*
G01*
X184150000Y-53070000D02*
X184150000Y-48970000D01*
X184150000Y-43270000D02*
X184150000Y-39570000D01*
X184150000Y-43270000D02*
G75*
G03*
X187150000Y-43270000I1500000J0D01*
G01*
X184100000Y-31800000D02*
G75*
G03*
X187100000Y-31800000I1500000J0D01*
G01*
X187150000Y-39570000D02*
X187150000Y-43270000D01*
X187150000Y-48970000D02*
X187150000Y-53070000D01*
X184150000Y-53070000D02*
G75*
G03*
X187150000Y-53070000I1500000J0D01*
G01*
M02*
